<svg width="35" height="35" viewBox="0 0 35 35" fill="none" xmlns="http://www.w3.org/2000/svg">
<circle cx="17.5" cy="17.5" r="17.5" fill="#E5EFF0"/>
<path d="M20.5 14.6667H20.5083M18.4167 25.5H13C12.337 25.5 11.7011 25.2366 11.2322 24.7678C10.7634 24.2989 10.5 23.663 10.5 23V13C10.5 12.337 10.7634 11.7011 11.2322 11.2322C11.7011 10.7634 12.337 10.5 13 10.5H23C23.663 10.5 24.2989 10.7634 24.7678 11.2322C25.2366 11.7011 25.5 12.337 25.5 13V18.4167" stroke="#006466" stroke-width="2" stroke-linecap="round" stroke-linejoin="round"/>
<path d="M10.5 21.3333L14.6667 17.1666C15.44 16.4225 16.3933 16.4225 17.1667 17.1666L20.5 20.5" stroke="#006466" stroke-width="2" stroke-linecap="round" stroke-linejoin="round"/>
<path d="M19.6665 19.6667L20.4998 18.8334C21.0582 18.2967 21.7082 18.1467 22.3182 18.3834M21.3332 23.8334H26.3332M23.8332 21.3334V26.3334" stroke="#006466" stroke-width="2" stroke-linecap="round" stroke-linejoin="round"/>
</svg>
