<svg width="250" height="250" viewBox="0 0 250 250" fill="none" xmlns="http://www.w3.org/2000/svg">
<path d="M210.07 98.43H158.055V170.415H210.07V98.43Z" fill="#EBEBEB"/>
<path d="M212.59 95.76H155.535V98.43H212.59V95.76Z" fill="#DBDBDB"/>
<path d="M230.535 95.76H212.59V98.43H230.535V95.76Z" fill="#EBEBEB"/>
<path d="M227.695 98.43H210.07V170.415H227.695V98.43Z" fill="#DBDBDB"/>
<path d="M204.465 131.745H163.655V108.685H204.465V131.745ZM163.78 131.62H204.34V108.81H163.78V131.62Z" fill="#C7C7C7"/>
<path d="M186.31 115.425H178.365V119.99H186.31V115.425Z" fill="#C7C7C7"/>
<path d="M188.725 119.71H180.65V115.71H188.725V119.71ZM180.775 119.585H188.6V115.83H180.775V119.585Z" fill="#C7C7C7"/>
<path d="M204.465 160.725H163.655V137.665H204.465V160.725ZM163.78 160.6H204.34V137.79H163.78V160.6Z" fill="#C7C7C7"/>
<path d="M186.31 144.405H178.365V148.97H186.31V144.405Z" fill="#C7C7C7"/>
<path d="M188.725 148.69H180.65V144.69H188.725V148.69ZM180.775 148.565H188.6V144.81H180.775V148.565Z" fill="#C7C7C7"/>
<path d="M27.9299 20H110.37V127.75H27.9299V20ZM108.195 22.175H30.1049V125.575H108.195V22.175Z" fill="#EBEBEB"/>
<path d="M71.0849 22.74H68.9099V126.66H71.0849V22.74Z" fill="#EBEBEB"/>
<path d="M25.9548 27.42L112.34 27.42V24.395L25.9548 24.395V27.42Z" fill="#EBEBEB"/>
<path d="M25.9548 30.825L112.34 30.825V27.8L25.9548 27.8V30.825Z" fill="#EBEBEB"/>
<path d="M25.9548 34.23L112.34 34.23V31.205L25.9548 31.205V34.23Z" fill="#EBEBEB"/>
<path d="M25.9548 37.635L112.34 37.635V34.61L25.9548 34.61V37.635Z" fill="#EBEBEB"/>
<path d="M25.9548 41.04L112.34 41.04V38.015L25.9548 38.015V41.04Z" fill="#EBEBEB"/>
<path d="M25.9548 44.445L112.34 44.445V41.42L25.9548 41.42V44.445Z" fill="#EBEBEB"/>
<path d="M25.9548 47.85L112.34 47.85V44.825L25.9548 44.825V47.85Z" fill="#EBEBEB"/>
<path d="M25.9548 51.255L112.34 51.255V48.23L25.9548 48.23V51.255Z" fill="#EBEBEB"/>
<path d="M25.9548 54.665L112.34 54.665V51.64L25.9548 51.64V54.665Z" fill="#EBEBEB"/>
<path d="M32.96 23.775H32.415V93.55H32.96V23.775Z" fill="#263238"/>
<path d="M31.72 96.085H33.65L33.165 93.31H32.205L31.72 96.085Z" fill="#263238"/>
<path d="M30.9998 23.775H30.4548V124.715H30.9998V23.775Z" fill="#263238"/>
<path d="M29.7649 126.755H31.6949L31.2099 123.985H30.2449L29.7649 126.755Z" fill="#263238"/>
<path d="M22.5848 25.905L115.715 25.905V19.57L22.5848 19.57V25.905Z" fill="#DBDBDB"/>
<path d="M190.86 62.585C196.36 67.945 197.26 76.24 196.105 83.51C196.075 83.675 195.82 83.63 195.82 83.475C195.82 81.82 195.87 80.18 195.865 78.545L195.78 78.325C194.305 77.3547 193.084 76.0447 192.22 74.505C191.305 72.705 190.945 70.675 190.245 68.795C190.18 68.615 190.375 68.67 190.5 68.76C193.83 71.22 194.895 73.865 195.85 77.395C195.83 75.5475 195.636 73.7061 195.27 71.895C194.55 68.54 193.125 65.215 190.715 62.73C190.625 62.635 190.765 62.5 190.86 62.585Z" fill="#A6A6A6"/>
<path d="M189.83 63.21C188.89 63.24 188.3 64.745 187.565 65.21C187.488 65.273 187.399 65.319 187.303 65.345C187.207 65.3709 187.106 65.3763 187.008 65.3607C186.91 65.3452 186.816 65.309 186.733 65.2546C186.649 65.2001 186.579 65.1287 186.525 65.045C185.795 64.045 186.795 62.78 187.735 62.075C187.06 62.355 186.505 62.84 185.78 62.975C185.688 63.0051 185.59 63.0151 185.494 63.0043C185.397 62.9936 185.304 62.9623 185.221 62.9125C185.137 62.8628 185.065 62.7958 185.01 62.716C184.955 62.6362 184.917 62.5455 184.9 62.45C184.58 61.065 186.32 60.45 187.51 60.42C186.93 60.015 185.275 58.92 186.155 58.385C187.035 57.85 188.99 59.385 189.625 59.925C190.555 60.68 191.665 61.81 191.71 62.99C191.765 64.345 190.555 63.5 189.83 63.21Z" fill="#DBDBDB"/>
<path d="M190.105 63.44C188.9 62.89 186.605 63.68 186.39 63.225C185.99 62.295 187.84 61.66 188.835 61.535C187.915 61.285 186.155 60.89 186.21 60.005C186.275 58.92 188.91 59.85 190.245 60.875C191.93 62.165 191.915 63.41 191.64 63.655C191.255 64 190.305 63.53 190.105 63.44Z" fill="#EBEBEB"/>
<path d="M203.335 62.05C197.66 67.2 196.425 75.46 197.3 82.765C197.3 82.93 197.58 82.895 197.585 82.74C197.65 81.085 197.665 79.445 197.73 77.815C197.765 77.74 197.79 77.67 197.825 77.595C199.337 76.6827 200.607 75.4185 201.525 73.91C202.525 72.15 202.945 70.135 203.715 68.285C203.785 68.105 203.595 68.15 203.465 68.24C200.04 70.57 198.88 73.17 197.79 76.665C197.88 74.8112 198.142 72.9698 198.575 71.165C199.425 67.84 200.975 64.575 203.475 62.165C203.478 62.1469 203.476 62.1284 203.47 62.1113C203.463 62.0941 203.452 62.079 203.438 62.0674C203.424 62.0558 203.407 62.048 203.389 62.045C203.371 62.0419 203.352 62.0437 203.335 62.05Z" fill="#A6A6A6"/>
<path d="M204.34 62.715C205.28 62.785 205.815 64.31 206.53 64.78C206.605 64.8452 206.693 64.8939 206.788 64.9231C206.883 64.9523 206.984 64.9613 207.082 64.9495C207.181 64.9378 207.276 64.9055 207.362 64.8548C207.448 64.8041 207.522 64.736 207.58 64.655C208.345 63.655 207.395 62.375 206.48 61.655C207.145 61.955 207.68 62.465 208.4 62.655C208.491 62.6878 208.589 62.7007 208.686 62.6927C208.783 62.6847 208.878 62.6561 208.963 62.6088C209.048 62.5614 209.122 62.4965 209.18 62.4182C209.238 62.34 209.279 62.2503 209.3 62.155C209.67 60.78 207.96 60.1 206.77 60.025C207.36 59.645 209.06 58.62 208.2 58.025C207.34 57.43 205.33 58.935 204.7 59.425C203.74 60.145 202.585 61.235 202.5 62.425C202.37 63.78 203.605 63 204.34 62.715Z" fill="#DBDBDB"/>
<path d="M204.06 62.935C205.285 62.435 207.56 63.31 207.78 62.865C208.215 61.95 206.39 61.245 205.4 61.085C206.325 60.87 208.105 60.54 208.085 59.65C208.06 58.565 205.39 59.395 204.015 60.37C202.285 61.595 202.25 62.835 202.515 63.095C202.885 63.45 203.86 63 204.06 62.935Z" fill="#EBEBEB"/>
<path d="M197.53 75.655C197.145 78.4102 196.555 81.1328 195.765 83.8C195.76 83.826 195.749 83.8506 195.734 83.8726C195.72 83.8945 195.701 83.9133 195.679 83.928C195.657 83.9426 195.632 83.9527 195.606 83.9578C195.58 83.9629 195.553 83.9628 195.527 83.9575C195.501 83.9523 195.477 83.942 195.455 83.9272C195.433 83.9124 195.414 83.8935 195.399 83.8714C195.385 83.8493 195.375 83.8246 195.369 83.7987C195.364 83.7727 195.365 83.746 195.37 83.72C195.745 81.22 196.425 78.745 196.795 76.22C197.203 73.6818 197.351 71.1083 197.235 68.54C196.995 64.31 195.845 59.81 193.085 56.5C193.025 56.425 193.155 56.315 193.215 56.385C198.74 62.83 197.86 70.725 197.855 71.435C198.64 68.765 199.445 65.71 202.405 62.995C202.53 62.875 202.63 62.935 202.61 63.13C202.08 68.08 200.705 70.66 197.835 73.305C197.755 74.105 197.655 74.885 197.53 75.655Z" fill="#A6A6A6"/>
<path d="M193.035 57.26C192.035 56.815 190.67 58.08 189.685 58.17C189.573 58.1969 189.457 58.1999 189.344 58.1787C189.231 58.1575 189.123 58.1126 189.029 58.0469C188.935 57.9813 188.855 57.8964 188.796 57.7978C188.736 57.6992 188.699 57.5892 188.685 57.475C188.44 56.055 190.11 55.26 191.435 55.005C190.6 54.95 189.78 55.175 188.935 54.955C188.823 54.9395 188.716 54.9 188.621 54.8392C188.525 54.7785 188.444 54.6979 188.383 54.603C188.322 54.508 188.282 54.401 188.266 54.2892C188.25 54.1773 188.258 54.0634 188.29 53.955C188.655 52.36 190.765 52.595 192.02 53.165C191.62 52.455 190.45 50.49 191.635 50.375C192.82 50.26 194.06 52.875 194.46 53.715C195.045 54.97 195.63 56.715 195.08 57.945C194.465 59.41 193.64 57.925 193.035 57.26Z" fill="#DBDBDB"/>
<path d="M193.2 57.635C192.225 56.46 189.43 56.135 189.455 55.54C189.505 54.38 191.745 54.65 192.845 55.04C192.015 54.315 190.39 53.04 190.89 52.125C191.505 51.035 193.77 53.33 194.64 55.06C195.735 57.245 195.1 58.53 194.685 58.65C194.115 58.795 193.36 57.83 193.2 57.635Z" fill="#EBEBEB"/>
<path d="M201.165 77.145L203.6 95.76H188.775C189.08 94.11 191.84 77.12 191.84 77.12L201.165 77.145Z" fill="#EBEBEB"/>
<path fill-rule="evenodd" clip-rule="evenodd" d="M150.685 83.81C150.225 83.45 149.845 82.96 149.185 82.955C148.93 82.955 149.005 82.75 149.02 82.61L149.785 75.205C149.785 75.025 149.83 74.88 150.04 74.8C152.04 74.05 153.04 72.265 154.355 70.8C155.031 70.0678 155.552 69.207 155.888 68.2689C156.224 67.3309 156.367 66.3348 156.31 65.34C156.31 64.78 156.575 64.555 157.085 64.495C157.346 64.4334 157.619 64.4576 157.865 64.5639C158.111 64.6701 158.316 64.8529 158.45 65.085C158.886 66.1495 159.136 67.2809 159.19 68.43C159.19 69.38 158.77 70.255 158.555 71.17C158.4 71.84 158.17 72.495 157.97 73.17C158.12 73.31 158.32 73.265 158.5 73.285C160.583 73.5084 162.668 73.7267 164.755 73.94C165.635 74.035 166.035 74.33 166.1 74.94C166.129 75.3068 166.037 75.673 165.838 75.9826C165.64 76.2923 165.345 76.5285 165 76.655C164.835 76.715 164.565 76.615 164.5 76.86C164.435 77.105 164.745 77.11 164.88 77.225C165.58 77.825 165.33 78.875 164.38 79.4C164.155 79.53 163.755 79.4 163.715 79.725C163.675 80.05 164.065 80.005 164.215 80.225C164.76 80.89 164.34 81.98 163.38 82.34C163.251 82.365 163.124 82.4001 163 82.445C162.89 82.5 162.78 82.57 162.965 82.735C163.8 83.47 163.69 84.37 162.71 84.93L162.42 85.095C162.069 85.2605 161.673 85.3045 161.295 85.22C158.025 84.8867 154.755 84.5534 151.485 84.22C151.175 84.1937 150.887 84.0465 150.685 83.81Z" fill="#EBEBEB"/>
<path fill-rule="evenodd" clip-rule="evenodd" d="M141.84 78.5C142.005 76.935 142.175 75.365 142.34 73.795C142.37 73.475 142.42 73.325 142.81 73.37C144.727 73.59 146.64 73.79 148.55 73.97C148.925 74.005 148.97 74.14 148.935 74.47C148.602 77.6267 148.268 80.7833 147.935 83.94C147.895 84.345 147.775 84.44 147.375 84.395C145.518 84.1817 143.663 83.99 141.81 83.82C141.345 83.78 141.31 83.61 141.345 83.205C141.53 81.625 141.675 80.055 141.84 78.5Z" fill="#EBEBEB"/>
<path fill-rule="evenodd" clip-rule="evenodd" d="M137.945 62.94C137.53 62.78 137.145 62.51 136.665 62.65C136.48 62.705 136.49 62.54 136.47 62.44L135.39 56.885C135.39 56.75 135.35 56.64 135.485 56.535C136.76 55.535 137.1 54.035 137.735 52.66C138.064 51.9786 138.253 51.2379 138.29 50.4819C138.327 49.7259 138.211 48.9703 137.95 48.26C137.914 48.1847 137.895 48.1024 137.896 48.019C137.896 47.9357 137.914 47.8534 137.95 47.7782C137.986 47.7029 138.038 47.6367 138.103 47.5842C138.168 47.5318 138.244 47.4945 138.325 47.475C138.501 47.3732 138.705 47.3304 138.908 47.3529C139.11 47.3754 139.3 47.462 139.45 47.6C139.999 48.2796 140.431 49.047 140.725 49.87C140.856 50.572 140.904 51.2868 140.87 52C140.905 52.5 140.87 53.05 140.87 53.58C141.01 53.65 141.145 53.58 141.28 53.55L145.975 52.645C146.63 52.515 146.975 52.645 147.165 53.065C147.272 53.3257 147.289 53.6145 147.214 53.886C147.139 54.1576 146.976 54.3965 146.75 54.565C146.645 54.645 146.42 54.635 146.44 54.82C146.46 55.005 146.68 54.95 146.8 55.005C147.44 55.28 147.49 56.105 146.925 56.695C146.79 56.835 146.475 56.84 146.51 57.075C146.545 57.31 146.83 57.205 146.985 57.305C147.53 57.67 147.485 58.56 146.85 59.03C146.761 59.0763 146.675 59.1298 146.595 59.19C146.525 59.255 146.46 59.33 146.63 59.41C147.405 59.76 147.52 60.41 146.93 61.06L146.755 61.245C146.538 61.4417 146.262 61.5612 145.97 61.585C143.513 62.065 141.06 62.54 138.61 63.01C138.5 63.0428 138.384 63.0535 138.27 63.0415C138.156 63.0294 138.046 62.995 137.945 62.94Z" fill="#EBEBEB"/>
<path fill-rule="evenodd" clip-rule="evenodd" d="M130.34 61.025C130.11 59.85 129.89 58.67 129.65 57.495C129.605 57.26 129.605 57.135 129.9 57.08C131.34 56.82 132.77 56.545 134.205 56.25C134.485 56.195 134.545 56.28 134.595 56.53C135.045 58.9 135.503 61.2684 135.97 63.635C136.03 63.935 135.97 64.035 135.66 64.09C134.265 64.345 132.875 64.59 131.485 64.9C131.14 64.97 131.07 64.86 131.015 64.555C130.805 63.375 130.565 62.2 130.34 61.025Z" fill="#EBEBEB"/>
<path d="M125 218.06C186.102 218.06 235.635 212.034 235.635 204.6C235.635 197.166 186.102 191.14 125 191.14C63.898 191.14 14.365 197.166 14.365 204.6C14.365 212.034 63.898 218.06 125 218.06Z" fill="#EBEBEB"/>
<path d="M22.585 170.5L48.19 170.38L73.795 170.335L125 170.25L176.21 170.335L201.81 170.38L227.415 170.5L201.81 170.625L176.21 170.665L125 170.75L73.795 170.665L48.19 170.62L22.585 170.5Z" fill="#263238"/>
<path d="M44.845 127.745C48.435 120.37 54.715 116.58 61.79 118.675C68.865 120.77 69.965 130.635 64.68 133.13C59.395 135.625 54.115 128.345 51.325 126.85C48.535 125.355 44.845 127.745 44.845 127.745Z" fill="#FFC727"/>
<path d="M41.3699 147.38C41.3699 146.49 41.4249 145.6 41.4549 144.715C41.5199 142.94 41.5799 141.16 41.6449 139.385C41.7649 136.14 42.1149 132.95 43.4599 129.96C44.6476 127.247 46.632 124.959 49.1499 123.4C50.0858 122.834 51.0953 122.4 52.1499 122.11C53.1054 121.144 54.3216 120.477 55.6499 120.19C57.2961 119.854 58.9889 119.811 60.6499 120.065C60.7099 120.065 60.7099 120.165 60.6499 120.16C59.0733 119.955 57.4716 120.069 55.9399 120.495C55.2831 120.674 54.6464 120.921 54.0399 121.23C53.6594 121.436 53.2935 121.669 52.9449 121.925C54.3734 121.633 55.8478 121.648 57.2699 121.97C57.7824 122.097 58.2839 122.264 58.7699 122.47C59.1567 122.382 59.5538 122.349 59.9499 122.37C60.4665 122.386 60.9797 122.46 61.4799 122.59C62.5052 122.878 63.486 123.305 64.3949 123.86C64.4449 123.89 64.3949 123.97 64.3449 123.94C63.451 123.453 62.4934 123.092 61.4999 122.87C61.0195 122.761 60.5314 122.689 60.0399 122.655C59.7701 122.64 59.4997 122.64 59.2299 122.655C61.2461 123.586 62.8671 125.202 63.8049 127.215C63.8049 127.27 63.7449 127.315 63.7249 127.26C63.1663 126.092 62.3515 125.066 61.3413 124.256C60.3311 123.447 59.1513 122.876 57.8899 122.585C57.7349 122.545 57.5749 122.525 57.4199 122.495C57.457 122.732 57.482 122.971 57.4949 123.21C57.5399 123.565 57.5999 123.925 57.6749 124.28C57.8189 125.012 58.0109 125.733 58.2499 126.44C58.489 127.155 58.7746 127.853 59.1049 128.53C59.4237 129.242 59.8266 129.914 60.3049 130.53C60.3449 130.585 60.2649 130.645 60.2299 130.585C59.8049 129.92 59.3099 129.305 58.9199 128.615C58.5476 127.954 58.2267 127.265 57.9599 126.555C57.6878 125.837 57.4771 125.098 57.3299 124.345C57.2499 123.945 57.1899 123.545 57.1449 123.145C57.0949 122.903 57.0798 122.656 57.0999 122.41C56.272 122.287 55.4319 122.27 54.5999 122.36C54.9149 124.12 55.2499 125.955 56.2399 127.485C56.2699 127.535 56.1849 127.58 56.1549 127.53C55.6938 126.725 55.2878 125.89 54.9399 125.03C54.6145 124.19 54.4108 123.308 54.3349 122.41C52.8735 122.605 51.4631 123.079 50.1799 123.805C47.7619 125.211 45.8308 127.322 44.6449 129.855C43.3993 132.584 42.7027 135.532 42.5949 138.53C42.3599 142.3 42.3099 146.095 41.9349 149.85C41.9349 150.1 41.5199 150.18 41.4749 149.905C41.3599 149.069 41.3247 148.223 41.3699 147.38Z" fill="#263238"/>
<path d="M49.6648 122.805C49.9031 122.521 50.177 122.269 50.4798 122.055C50.7748 121.81 51.0748 121.555 51.3898 121.36C52.013 120.935 52.7023 120.615 53.4298 120.415C53.4898 120.415 53.5098 120.495 53.4298 120.505C52.7014 120.697 52.0204 121.037 51.4298 121.505C51.1298 121.725 50.8448 121.96 50.5648 122.205C50.315 122.467 50.0385 122.701 49.7398 122.905C49.7266 122.91 49.7122 122.911 49.6986 122.907C49.685 122.903 49.6731 122.895 49.6646 122.883C49.6561 122.872 49.6516 122.858 49.6516 122.844C49.6517 122.83 49.6563 122.816 49.6648 122.805Z" fill="#263238"/>
<path d="M61.1199 125.5C61.7132 126.192 62.2626 126.92 62.7649 127.68C63.255 128.444 63.6655 129.257 63.9899 130.105C63.9899 130.13 63.9599 130.145 63.9449 130.105C63.1236 128.5 62.1544 126.975 61.0499 125.55C60.9999 125.5 61.0799 125.435 61.1199 125.5Z" fill="#263238"/>
<path d="M53.3999 124.75C53.4745 125.211 53.6107 125.66 53.8049 126.085C54.0003 126.497 54.2276 126.893 54.4849 127.27C54.4849 127.27 54.4849 127.32 54.4449 127.3C53.8309 126.595 53.4348 125.726 53.3049 124.8C53.2999 124.715 53.3899 124.69 53.3999 124.75Z" fill="#263238"/>
<path d="M41.8699 127.925C41.8699 127.925 36.7899 121.54 26.9999 123.805C17.6749 125.955 13.3749 143.05 22.7949 145.095C32.2149 147.14 30.5549 131.32 33.9849 128.635C36.4999 126.665 40.1099 127.09 41.8699 127.925Z" fill="#FFC727"/>
<path d="M19.41 133.14C20.0415 132.579 20.7096 132.062 21.41 131.59C22.0803 131.126 22.8125 130.76 23.585 130.5C24.6619 128.85 26.1151 127.479 27.825 126.5H27.535C27.035 126.5 26.495 126.5 25.975 126.5C24.9297 126.569 23.9052 126.825 22.95 127.255C22.9387 127.26 22.9258 127.261 22.9141 127.257C22.9024 127.252 22.8928 127.244 22.8875 127.233C22.8822 127.221 22.8816 127.208 22.8858 127.197C22.89 127.185 22.8987 127.175 22.91 127.17C23.8723 126.754 24.8788 126.449 25.91 126.26C26.4149 126.169 26.9271 126.126 27.44 126.13C27.715 126.13 27.995 126.13 28.265 126.175H28.425C29.3236 125.721 30.2715 125.372 31.25 125.135C31.16 125.11 31.07 125.08 30.975 125.06C30.4962 124.955 30.0122 124.875 29.525 124.82C28.5487 124.71 27.5624 124.725 26.59 124.865C26.53 124.865 26.515 124.78 26.59 124.775C27.5752 124.655 28.5684 124.615 29.56 124.655C30.3904 124.677 31.2164 124.785 32.025 124.975C32.616 124.864 33.2142 124.795 33.815 124.77C37.235 124.625 40.96 125.905 43.065 128.715C45.17 131.525 45.565 135.28 45.955 138.675C46.5295 143.404 46.655 148.177 46.33 152.93C46.33 153.21 45.915 153.16 45.905 152.89C45.78 148.86 45.635 144.83 45.25 140.815C45.07 138.955 44.875 137.085 44.565 135.245C44.3417 133.658 43.8851 132.113 43.21 130.66C42.4834 129.172 41.3314 127.933 39.9 127.1C38.4642 126.278 36.8642 125.785 35.215 125.655C33.7353 125.534 32.2459 125.674 30.815 126.07C30.8576 126.357 30.8576 126.648 30.815 126.935C30.7834 127.3 30.7113 127.661 30.6 128.01C30.4904 128.338 30.3532 128.655 30.19 128.96C30.005 129.295 29.78 129.595 29.575 129.92C29.545 129.97 29.46 129.92 29.5 129.865C29.9039 129.29 30.1645 128.626 30.26 127.93C30.32 127.599 30.36 127.265 30.38 126.93C30.38 126.68 30.38 126.43 30.38 126.175C28.824 126.653 27.372 127.419 26.1 128.435C25.86 128.625 25.63 128.825 25.405 129.035C25.7255 129.329 26.0047 129.666 26.235 130.035C26.571 130.527 26.8638 131.047 27.11 131.59C27.5633 132.681 27.8677 133.828 28.015 135C28.015 135.06 27.93 135.08 27.925 135C27.7444 133.864 27.3652 132.769 26.805 131.765C26.5497 131.268 26.2607 130.788 25.94 130.33C25.775 130.095 25.6 129.86 25.44 129.635C25.34 129.51 25.235 129.39 25.145 129.255C23.9936 130.387 23.0523 131.714 22.365 133.175C22.8268 133.667 23.2127 134.225 23.51 134.83C23.8629 135.461 24.1703 136.116 24.43 136.79C24.904 138.097 25.2948 139.433 25.6 140.79C25.6 140.85 25.52 140.865 25.51 140.79C25.2115 139.424 24.7429 138.1 24.115 136.85C23.825 136.235 23.515 135.63 23.19 135.03C22.8462 134.479 22.5389 133.906 22.27 133.315C21.6138 134.746 21.2338 136.288 21.15 137.86C21.15 137.92 21.05 137.91 21.055 137.86C21.2355 135.397 21.9889 133.01 23.255 130.89C22.655 131.145 22.055 131.39 21.48 131.705C20.7431 132.095 20.0577 132.575 19.44 133.135C19.425 133.25 19.365 133.18 19.41 133.14Z" fill="#263238"/>
<path d="M26.6 133.5C26.895 134.47 27.265 135.41 27.53 136.39C27.8016 137.327 27.9479 138.295 27.965 139.27C27.965 139.3 27.92 139.3 27.92 139.27C27.6486 137.312 27.1727 135.388 26.5 133.53C26.498 133.523 26.4974 133.517 26.4981 133.51C26.4988 133.503 26.5008 133.496 26.504 133.49C26.5073 133.484 26.5117 133.479 26.517 133.475C26.5223 133.47 26.5284 133.467 26.535 133.465C26.5416 133.463 26.5485 133.462 26.5553 133.463C26.5621 133.464 26.5687 133.466 26.5748 133.469C26.5808 133.472 26.5861 133.477 26.5905 133.482C26.5948 133.487 26.598 133.493 26.6 133.5Z" fill="#263238"/>
<path d="M20.39 131.1C20.7732 130.728 21.2096 130.414 21.685 130.17C22.1692 129.951 22.671 129.774 23.185 129.64C23.245 129.64 23.26 129.72 23.185 129.73C22.6778 129.864 22.1903 130.064 21.735 130.325C21.2733 130.567 20.8289 130.841 20.405 131.145C20.4019 131.15 20.3975 131.153 20.3924 131.156C20.3873 131.158 20.3816 131.159 20.3761 131.158C20.3705 131.157 20.3653 131.155 20.361 131.151C20.3566 131.148 20.3534 131.143 20.3516 131.138C20.3499 131.132 20.3496 131.127 20.3509 131.121C20.3522 131.116 20.3551 131.111 20.3591 131.107C20.363 131.103 20.3681 131.1 20.3735 131.099C20.379 131.098 20.3847 131.098 20.39 131.1Z" fill="#263238"/>
<path d="M37.0449 119.4C37.0449 119.4 36.1049 107.9 27.5749 104.205C20.4549 101.1 16.3749 109.105 21.4099 114.005C25.4999 117.965 31.9999 116.18 37.0449 119.4Z" fill="#FFC727"/>
<path d="M22.9998 106.43C24.2975 106.953 25.563 107.552 26.7898 108.225C27.8123 108.813 28.796 109.466 29.7348 110.18C29.5948 109.89 29.4698 109.585 29.3298 109.3C29.1048 108.86 28.8698 108.425 28.6048 108.005C28.0783 107.137 27.4469 106.338 26.7248 105.625C26.6798 105.585 26.7248 105.52 26.7948 105.56C27.5227 106.273 28.1916 107.044 28.7948 107.865C29.0911 108.28 29.3616 108.712 29.6048 109.16C29.8464 109.579 30.0281 110.03 30.1448 110.5L30.2398 110.565C31.73 111.757 33.0953 113.097 34.3148 114.565C34.3148 114.45 34.2648 114.34 34.2348 114.235C34.0748 113.675 33.9048 113.12 33.7348 112.565C33.3668 111.389 32.8493 110.264 32.1948 109.22C32.1598 109.17 32.2448 109.125 32.2748 109.175C32.9437 110.221 33.5401 111.312 34.0598 112.44C34.2958 112.991 34.493 113.557 34.6498 114.135C34.7725 114.51 34.8644 114.895 34.9248 115.285C35.2998 115.76 35.6648 116.235 36.0098 116.725C39.6698 121.935 41.5098 128.225 41.9498 134.55C42.0765 136.431 42.1082 138.316 42.0448 140.2C42.0288 142.102 41.8616 144 41.5448 145.875C41.5448 145.99 41.3348 145.955 41.3398 145.84C41.3798 144.185 41.5498 142.53 41.5848 140.875C41.6198 139.22 41.5848 137.55 41.4248 135.875C41.1539 132.565 40.5304 129.293 39.5648 126.115C38.5721 122.86 37.1101 119.768 35.2248 116.935C34.8648 116.865 34.5098 116.77 34.1598 116.68C33.7298 116.57 33.3048 116.46 32.8798 116.34C32.0597 116.125 31.2626 115.83 30.4998 115.46C30.4448 115.43 30.4998 115.35 30.5498 115.38C31.3006 115.791 32.1154 116.071 32.9598 116.21C33.6248 116.345 34.3198 116.43 34.9898 116.585C34.3698 115.685 33.7098 114.81 32.9898 113.975C31.3644 114.123 29.7256 114.002 28.1398 113.615C27.2902 113.413 26.455 113.154 25.6398 112.84C24.7848 112.51 23.9748 112.09 23.1398 111.735C23.0748 111.71 23.1398 111.615 23.1748 111.65C24.7024 112.483 26.3701 113.029 28.0948 113.26C29.6181 113.503 31.1574 113.632 32.6998 113.645C32.0898 112.95 31.4648 112.27 30.7998 111.645C28.5698 109.5 25.9098 107.54 22.9598 106.5C22.9048 106.5 22.9348 106.405 22.9998 106.43Z" fill="#263238"/>
<path d="M29.9299 106.465C30.3233 106.95 30.6809 107.463 30.9999 108C31.3183 108.56 31.5701 109.156 31.7499 109.775C31.7499 109.775 31.7249 109.81 31.7199 109.775C31.4349 109.215 31.2199 108.63 30.9049 108.07C30.6296 107.518 30.2943 106.998 29.9049 106.52C29.8249 106.5 29.8899 106.415 29.9299 106.465Z" fill="#263238"/>
<path d="M21.9999 110.285C22.5551 110.583 23.1399 110.823 23.7449 111C24.3307 111.191 24.9266 111.35 25.5299 111.475C25.5299 111.475 25.5299 111.53 25.5299 111.525C24.9019 111.458 24.2832 111.322 23.6849 111.12C23.0945 110.899 22.5184 110.642 21.9599 110.35C21.9518 110.35 21.9439 110.348 21.937 110.344C21.93 110.34 21.9243 110.334 21.9203 110.327C21.9164 110.32 21.9144 110.312 21.9146 110.304C21.9147 110.296 21.917 110.288 21.9212 110.281C21.9254 110.275 21.9314 110.269 21.9385 110.265C21.9456 110.261 21.9536 110.26 21.9616 110.26C21.9696 110.26 21.9774 110.263 21.9841 110.267C21.9909 110.272 21.9963 110.278 21.9999 110.285Z" fill="#263238"/>
<path d="M43.675 117.335C43.725 117.835 44.965 113.17 52.175 109.03C58.725 105.27 66.54 95.5 60.12 89.325C54.935 84.34 41.28 95.205 43.675 117.335Z" fill="#FFC727"/>
<path d="M38.71 144.055C38.8138 139.204 39.1961 134.362 39.855 129.555C40.4232 125.129 41.4435 120.773 42.9 116.555C43.435 115.055 44.05 113.555 44.715 112.055C44.6773 111.484 44.6873 110.91 44.745 110.34C44.78 109.605 44.845 108.875 44.915 108.14C44.985 107.405 45.055 106.675 45.145 105.945C45.235 105.215 45.385 104.49 45.415 103.76C45.415 103.695 45.525 103.705 45.505 103.76C45.3625 104.526 45.2772 105.301 45.25 106.08C45.195 106.79 45.155 107.495 45.13 108.205C45.105 108.915 45.13 109.625 45.13 110.335C45.13 110.59 45.13 110.865 45.13 111.135C45.81 109.705 46.535 108.29 47.32 106.92C46.82 103.92 47.47 100.8 48.08 97.88C48.08 97.82 48.18 97.845 48.17 97.88C47.8695 99.4072 47.7104 100.959 47.695 102.515C47.665 103.745 47.725 104.97 47.73 106.2C47.9 105.905 48.075 105.61 48.23 105.32C49.1633 103.79 50.1633 102.29 51.23 100.82C51.1456 100.111 51.1692 99.3924 51.3 98.6901C51.4092 97.9022 51.5763 97.1234 51.8 96.3601C52.03 95.5934 52.295 94.8417 52.595 94.1051C52.91 93.3501 53.325 92.6301 53.625 91.8701C53.6303 91.8588 53.6399 91.8501 53.6516 91.8459C53.6633 91.8416 53.6762 91.8422 53.6875 91.8476C53.6988 91.8529 53.7075 91.8624 53.7117 91.8741C53.7159 91.8859 53.7153 91.8988 53.71 91.9101C53.3277 92.6279 53.0258 93.3859 52.81 94.17C52.5713 94.9067 52.3743 95.6562 52.22 96.4151C52.065 97.1751 51.94 97.915 51.835 98.7C51.765 99.2 51.72 99.735 51.63 100.25C53.1937 98.2182 54.8961 96.2969 56.725 94.5C56.77 94.46 56.83 94.525 56.79 94.57C54.0432 97.6449 51.5893 100.969 49.46 104.5C49.38 104.63 49.305 104.765 49.23 104.9C49.625 104.65 50.08 104.455 50.455 104.245C51.155 103.855 51.8567 103.47 52.56 103.09L54.6 102C54.95 101.805 55.295 101.6 55.65 101.42C56.076 101.229 56.4857 101.003 56.875 100.745C56.93 100.7 56.985 100.785 56.93 100.815C56.235 101.2 55.62 101.765 54.93 102.195C54.24 102.625 53.57 103.04 52.87 103.43C51.59 104.145 50.195 104.66 48.935 105.4C48.06 106.93 47.255 108.505 46.51 110.105C47.2767 109.615 48.0567 109.147 48.85 108.7C49.36 108.417 49.875 108.137 50.395 107.86C50.9098 107.624 51.3962 107.331 51.845 106.985C51.89 106.945 51.955 106.985 51.91 107.05C51.0773 107.811 50.1536 108.466 49.16 109C48.23 109.54 47.295 110.065 46.335 110.535C45.5583 112.225 44.8617 113.945 44.245 115.695C41.21 124.29 40.095 133.415 39.56 142.48C39.405 145.18 39.32 147.88 39.285 150.585C39.25 153.29 39.395 155.985 39.39 158.685C39.39 158.765 39.26 158.785 39.25 158.685C38.925 156.285 38.865 153.85 38.75 151.44C38.635 149.03 38.655 146.5 38.71 144.055Z" fill="#263238"/>
<path d="M51.8098 105.145C53.1284 104.559 54.4092 103.891 55.6448 103.145C56.8982 102.44 58.1132 101.669 59.2848 100.835C59.2848 100.835 59.3248 100.835 59.2848 100.87C58.1774 101.767 57.0078 102.584 55.7848 103.315C54.5047 104.027 53.1822 104.66 51.8248 105.21C51.7998 105.25 51.7548 105.165 51.8098 105.145Z" fill="#263238"/>
<path d="M49.72 95.425C49.83 95.01 49.96 94.595 50.105 94.185C50.105 94.185 50.075 94.16 50.105 94.14C50.195 93.905 50.29 93.675 50.385 93.445C50.385 93.415 50.385 93.385 50.42 93.36C50.455 93.335 50.455 93.275 50.475 93.23C50.475 93.23 50.43 93.39 50.405 93.47C50.3957 93.5156 50.384 93.5607 50.37 93.605C49.8912 95.2076 49.5336 96.8438 49.3 98.5C49.3 98.55 49.21 98.555 49.215 98.5C49.2856 97.4613 49.4547 96.4317 49.72 95.425Z" fill="#263238"/>
<path d="M31.0898 145.8L31.6048 151.9L33.1798 170.5H50.0548L51.6298 151.9L52.1448 145.8H31.0898Z" fill="#455A64"/>
<path d="M31.0898 145.8L31.6048 151.9H51.6298L52.1448 145.8H31.0898Z" fill="#263238"/>
<path d="M29.4351 149.2H53.8V143.35H29.4351V149.2Z" fill="#455A64"/>
<path d="M101.305 143.26C100.9 143.285 99.01 143.395 96.255 143.57C95.22 141.845 93.97 138.775 94.295 134.345C94.35 133.615 92.795 137.87 93.69 143.73C88.355 144.055 81.105 144.495 74.765 144.82C74.55 142.35 74.24 140.07 74.24 140.07C74.0977 141.7 73.8116 143.315 73.385 144.895C72.52 144.95 71.67 144.98 70.855 145.02C70.895 141.17 70 134.5 70 134.5C69.6776 138.189 68.752 141.801 67.26 145.19C63.26 145.355 60.58 145.39 60.76 145.19C66.59 137.975 61.98 134.12 63.485 127.905C65.29 120.455 71.6 119.05 71.205 113.52C70.895 109.02 70.03 100.87 75.655 98.91C77.1386 97.3466 79.05 96.2549 81.1503 95.7711C83.2507 95.2874 85.447 95.4331 87.465 96.19C96.585 99.3 93.545 113.325 94.265 116.125C95.265 120.125 97.265 121.48 98.865 126.03C100.465 130.58 98.5 133.805 98.365 136.97C98.23 140.135 102.315 143.215 101.305 143.26Z" fill="#263238"/>
<path d="M60.5 144.2C61.2858 142.958 61.8934 141.611 62.305 140.2C62.715 138.81 62.465 137.415 62.13 135.97C61.752 134.513 61.4499 133.038 61.225 131.55C61.0027 129.996 61.0945 128.413 61.495 126.895C61.9314 125.376 62.7116 123.979 63.775 122.81C64.8034 121.698 65.9222 120.673 67.12 119.745C68.2805 118.856 69.3193 117.819 70.21 116.66C71.0613 115.457 71.5678 114.045 71.675 112.575C71.7913 114.102 71.4427 115.629 70.675 116.955C69.8661 118.248 68.8665 119.411 67.71 120.405C66.6109 121.376 65.5739 122.414 64.605 123.515C63.6933 124.592 63.0232 125.852 62.64 127.21C62.2909 128.585 62.201 130.012 62.375 131.42C62.51 132.86 62.835 134.3 63.08 135.785C63.2172 136.541 63.2957 137.307 63.315 138.075C63.3113 138.864 63.1674 139.646 62.89 140.385C62.3221 141.786 61.5132 143.078 60.5 144.2Z" fill="#263238"/>
<path d="M92.72 101.165C93.4076 102.879 93.8844 104.671 94.14 106.5C94.44 108.32 94.64 110.15 94.835 111.97L95.13 114.69C95.2117 115.568 95.3792 116.435 95.63 117.28C96.13 118.95 97.13 120.385 98.26 121.845C98.8319 122.593 99.3531 123.378 99.82 124.195C100.284 125.035 100.653 125.924 100.92 126.845C101.155 127.763 101.322 128.697 101.42 129.64C101.521 130.59 101.504 131.549 101.37 132.495C101.24 133.44 101.01 134.335 100.82 135.215C100.627 136.089 100.518 136.98 100.495 137.875C100.502 138.771 100.722 139.652 101.136 140.445C101.551 141.239 102.149 141.923 102.88 142.44C102.05 141.985 101.346 141.331 100.83 140.537C100.314 139.743 100.003 138.834 99.925 137.89C99.8747 136.951 99.92 136.01 100.06 135.08C100.185 134.155 100.38 133.27 100.45 132.39C100.563 130.625 100.355 128.855 99.835 127.165C99.5741 126.331 99.2272 125.527 98.8 124.765C98.3498 123.996 97.8487 123.257 97.3 122.555C96.7306 121.813 96.1999 121.042 95.71 120.245C95.2147 119.418 94.8234 118.533 94.545 117.61C94.3015 116.69 94.1458 115.749 94.08 114.8C93.995 113.875 93.945 112.96 93.895 112.045C93.79 110.215 93.705 108.39 93.55 106.575C93.4595 104.748 93.1814 102.935 92.72 101.165Z" fill="#263238"/>
<path d="M233.45 200.22C231.89 200.815 186.635 202.835 184.865 201.825C184.67 201.71 184.725 199.71 184.06 194.545C184.025 194.3 182.99 193.34 181.38 191.99C175.33 186.915 161.105 176.22 161.105 176.22L183.69 156.6L205.58 178.1L211.27 183.695C211.27 183.695 229.77 192.485 231.59 193.805C233.41 195.125 235 199.62 233.45 200.22Z" fill="#DD6A57"/>
<path d="M233.45 200.22C231.89 200.815 186.635 202.835 184.86 201.825C184.67 201.71 184.72 199.71 184.055 194.545C190.53 195.545 225.055 197.32 226.235 193.255C226.705 191.655 221.575 188.755 220.65 188.225C225.53 190.595 230.65 193.15 231.595 193.81C233.41 195.135 235 199.62 233.45 200.22Z" fill="#263238"/>
<path d="M197.595 168.07L194.095 172.045L176.72 191.885C176.72 191.885 152.805 174.5 145.78 168.76C145.555 168.57 117.93 188.115 97.73 191.885C82.23 194.78 71.73 188.935 65.645 174.495L91.24 163.17C112.69 152.595 136.86 135.765 151.475 137.535C167.35 139.46 197.595 168.07 197.595 168.07Z" fill="#37474F"/>
<path d="M192.13 166.62C188.56 170.48 189.535 169.325 186.01 173.225C184.28 175.135 175.585 184.725 174.275 186.75C174.245 186.795 174.305 186.85 174.35 186.82C176.225 185.27 184.715 175.515 186.405 173.575C189.86 169.615 188.825 170.715 192.24 166.72C192.25 166.705 192.255 166.687 192.253 166.669C192.251 166.651 192.242 166.634 192.229 166.622C192.215 166.61 192.198 166.603 192.18 166.602C192.162 166.602 192.144 166.608 192.13 166.62Z" fill="#263238"/>
<path d="M191.345 175.2L176.735 191.89C176.735 191.89 152.805 174.5 145.78 168.76C145.555 168.57 117.93 188.115 97.735 191.89C82.235 194.78 71.71 188.935 65.645 174.495L91.24 163.165C94.08 161.765 96.965 160.26 99.875 158.7C122.35 162.795 171.605 171.655 191.345 175.2Z" fill="#263238"/>
<path d="M229.725 208.625C228.17 209.225 182.91 211.24 181.14 210.23C180.945 210.115 181 208.12 180.335 202.95C180.3 202.705 179.27 201.745 177.655 200.395C171.605 195.32 157.38 184.63 157.38 184.63L179.965 165L201.855 186.5L207.545 192.09C207.545 192.09 226.045 200.88 227.87 202.2C229.695 203.52 231.285 208.025 229.725 208.625Z" fill="#DD6A57"/>
<path d="M229.73 208.625C228.17 209.22 182.91 211.245 181.14 210.23C180.945 210.115 181 208.12 180.33 202.955C186.805 203.93 221.33 205.73 222.515 201.66C222.985 200.065 217.85 197.16 216.925 196.63C221.805 199 226.925 201.555 227.87 202.22C229.685 203.545 231.285 208.025 229.73 208.625Z" fill="#263238"/>
<path d="M215.735 196.165C213.895 195.165 212.065 194.165 210.195 193.265C209.307 192.876 208.48 192.361 207.74 191.735C206.975 191.04 206.24 190.295 205.505 189.58C202.47 186.685 199.445 183.775 196.385 180.9C194.73 179.345 193.095 177.775 191.455 176.205C191.415 176.165 191.345 176.205 191.38 176.265C191.48 176.42 194.24 179.37 195.565 180.705C197.065 182.205 198.565 183.68 200.065 185.155L204.565 189.555C205.32 190.295 206.065 191.025 206.84 191.755C207.512 192.428 208.291 192.984 209.145 193.4C211.29 194.4 213.47 195.345 215.645 196.28C215.75 196.31 215.81 196.205 215.735 196.165Z" fill="#263238"/>
<path d="M61.5001 170C61.5001 170 58.1801 188.175 67.6801 195.94C74.5001 201.545 83.5001 202.095 91.2651 201C112.765 197.945 130.975 172 138.125 170.595C141.79 169.885 170.625 198.405 170.625 198.405L193.03 176.72C187.33 171.77 153.35 137.415 136.2 137.415C124.46 137.415 94.7001 161.805 93.9751 161.52C92.8051 161.05 87.5951 158.55 87.5951 158.55L61.5001 170Z" fill="#37474F"/>
<path d="M188.5 174.41C185.695 176.77 183.075 179.345 180.425 181.855C177.775 184.365 175.165 186.88 172.58 189.435C171.11 190.885 169.65 192.34 168.24 193.835C168.2 193.87 168.24 193.925 168.295 193.89C171.065 191.49 173.72 188.97 176.375 186.45C179.03 183.93 181.635 181.45 184.23 178.88C185.7 177.44 187.185 175.995 188.575 174.485C188.62 174.435 188.55 174.37 188.5 174.41Z" fill="#263238"/>
<path d="M79.29 167.2C79.25 167.1 79.1 167.17 79.125 167.265C79.768 169.991 79.4318 172.857 78.175 175.36C76.72 178.135 74.08 180.125 71.735 182.1C71.51 182.295 71.795 182.65 72.045 182.505C73.5649 181.615 74.9833 180.562 76.275 179.365C77.4709 178.31 78.4389 177.022 79.12 175.58C79.729 174.272 80.0587 172.851 80.088 171.408C80.1172 169.965 79.8455 168.532 79.29 167.2Z" fill="#263238"/>
<path d="M94.3951 163.335C93.7351 162.835 93.0351 162.4 92.3601 161.93C90.7601 160.825 89.1501 159.72 87.5051 158.68C87.3501 158.585 87.1651 158.83 87.3151 158.945C88.4751 159.825 89.6701 160.655 90.8551 161.495C91.4651 161.93 92.0701 162.36 92.6851 162.785C93.2992 163.15 93.8754 163.576 94.4051 164.055C94.9051 164.58 94.6201 165.23 93.9951 165.47C93.433 165.642 92.8263 165.592 92.3001 165.33C91.0951 164.83 90.0051 163.96 88.9201 163.255C88.2534 162.818 87.5868 162.388 86.9201 161.965C86.2051 161.515 85.4651 161.11 84.7551 160.66C84.7101 160.63 84.6551 160.705 84.7001 160.74C85.3551 161.24 85.9851 161.825 86.6451 162.35C87.3051 162.875 87.9701 163.39 88.6451 163.9C89.3201 164.41 89.9301 164.845 90.5851 165.295C91.1428 165.698 91.7626 166.007 92.4201 166.21C93.4851 166.495 95.1051 166.175 95.2701 164.855C95.273 164.547 95.1933 164.243 95.0395 163.976C94.8857 163.709 94.6632 163.487 94.3951 163.335Z" fill="#263238"/>
<path d="M191.55 175C190.135 173.545 188.645 172.16 187.17 170.77C185.695 169.38 184.23 168.015 182.74 166.66C179.74 163.935 176.715 161.24 173.62 158.63C170.525 156.02 167.335 153.505 164.07 151.105C160.805 148.705 157.525 146.475 154.07 144.43C152.345 143.405 150.57 142.43 148.785 141.51C147.034 140.585 145.237 139.75 143.4 139.01C142.9 138.825 142.4 138.64 141.9 138.435C141.825 138.405 141.76 138.515 141.835 138.545C142.755 138.96 143.64 139.45 144.54 139.9C145.44 140.35 146.305 140.805 147.18 141.265C148.94 142.2 150.68 143.175 152.4 144.195C155.847 146.245 159.205 148.438 162.475 150.775C165.75 153.115 168.925 155.585 172.02 158.15C175.115 160.715 178.215 163.37 181.235 166.07C184.255 168.77 187.21 171.48 190.235 174.165C190.615 174.5 190.995 174.835 191.385 175.165C191.408 175.175 191.434 175.178 191.459 175.174C191.483 175.169 191.506 175.157 191.524 175.139C191.542 175.121 191.554 175.099 191.559 175.074C191.563 175.049 191.56 175.023 191.55 175Z" fill="#263238"/>
<path d="M169.47 190.945C162.565 184.375 143.865 167.64 139.63 164.84C139.203 164.562 138.724 164.374 138.222 164.288C137.72 164.202 137.205 164.22 136.71 164.34C135.62 164.61 134.745 165.42 133.885 166.1L130.81 168.535L124.495 173.535C120.55 176.67 116.63 179.835 112.645 182.915C109.126 185.72 105.401 188.256 101.5 190.5C94 194.67 84.5 197.335 76.245 193.735C72.4847 192.059 69.4632 189.071 67.745 185.33C65.96 181.605 65.205 177.465 64.745 173.39C64.635 172.39 64.5449 171.415 64.4649 170.425C64.4672 170.419 64.4679 170.412 64.4671 170.406C64.4663 170.4 64.464 170.394 64.4603 170.388C64.4566 170.383 64.4517 170.379 64.446 170.376C64.4403 170.373 64.4339 170.371 64.4274 170.371C64.421 170.371 64.4146 170.373 64.4089 170.376C64.4032 170.379 64.3983 170.383 64.3946 170.388C64.3909 170.394 64.3886 170.4 64.3878 170.406C64.387 170.412 64.3877 170.419 64.39 170.425C64.775 178.11 65.99 187.025 72.495 192.08C79.41 197.45 89.135 196.515 96.775 193.38C105.34 189.88 112.52 183.72 119.69 178.02L132.225 168.06C133.225 167.255 134.225 166.415 135.27 165.645C136.315 164.875 137.54 164.3 138.735 164.995C142.695 167.3 168.37 190.285 169.28 191.085C169.42 191.205 169.58 191.045 169.47 190.945Z" fill="#263238"/>
<path d="M84.78 130.95C89.385 133.745 112.645 146.575 120.24 142.735C129.445 138.075 139.165 129.08 142.445 123.665C144.28 120.63 129.095 111.925 127.1 114.44C123.96 118.44 115.805 125.81 114.325 126.94C112.845 128.07 96.785 124.62 87.8 124.01C79.705 123.445 81.535 129 84.78 130.95Z" fill="#DD6A57"/>
<path d="M147.73 116.5C146.35 119.97 140.73 125.96 138.835 126.885C136.94 127.81 126.425 118.62 126.56 116.45C126.695 114.28 132.25 102.95 135.56 101.07C138.87 99.19 149.165 112.885 147.73 116.5Z" fill="#DD6A57"/>
<path d="M127.165 114.335C127.165 114.335 127.22 109.475 125.835 105.425C124.675 102.015 122.56 97.09 124.37 96.395C128.08 94.97 133.345 107.26 133.345 107.26C133.345 107.26 134.795 113.055 131.245 114.79C130.589 115.098 129.861 115.218 129.141 115.138C128.421 115.057 127.737 114.78 127.165 114.335Z" fill="#DD6A57"/>
<path d="M131.05 104.97C131.375 106.925 133.49 105.425 133.49 105.425C133.49 105.425 130.965 108.315 132.075 110.2C133.155 112.01 135.645 110.11 135.825 109.975C135.695 110.13 133.445 112.85 134.755 114.625C136.065 116.4 138.295 114.125 138.435 113.985C138.355 114.17 137.35 116.63 138.655 117.755C140.9 119.68 143.655 113.46 145.91 112.69C145.91 112.69 147.66 116.38 147.73 116.48C147.73 116.48 150.46 110.615 149.23 107.61C149.06 107.171 148.745 106.804 148.338 106.568C147.931 106.333 147.455 106.243 146.99 106.315C146.99 106.315 148.08 104.52 147.09 103.085C146.59 102.355 144.95 102.515 144.95 102.515C144.95 102.515 145.765 101.045 144.805 99.825C144.04 98.825 142.53 99.165 142.53 99.165C142.53 99.165 142.65 97.39 141.53 96.665C139.345 95.14 130.355 100.79 131.05 104.97Z" fill="#DD6A57"/>
<path d="M142.3 99.175C142.307 99.175 142.313 99.1724 142.318 99.1677C142.322 99.163 142.325 99.1566 142.325 99.15C142.325 99.1434 142.322 99.137 142.318 99.1323C142.313 99.1276 142.307 99.125 142.3 99.125C138.743 100.293 135.627 102.517 133.365 105.5C133.295 105.6 133.42 105.755 133.52 105.66C136.118 103.085 139.075 100.901 142.3 99.175Z" fill="#263238"/>
<path d="M145 102.47C145.035 102.47 145 102.39 144.965 102.405C141.465 103.595 137.7 106.28 135.67 109.955C135.6 110.08 135.67 110.265 135.755 110.125C137.295 107.785 141.955 104.04 145 102.47Z" fill="#263238"/>
<path d="M138.38 114.29C140.465 110.84 143.445 108.41 146.88 106.355C146.925 106.325 146.88 106.265 146.84 106.28C144.895 106.83 142.84 108.37 141.365 109.7C139.962 110.905 138.899 112.457 138.28 114.2C138.235 114.285 138.34 114.36 138.38 114.29Z" fill="#263238"/>
<path d="M133.42 105.425C133.34 105.54 133.6 105.535 133.52 105.65C133.185 106.15 131.44 109.315 132.335 110.245C133.05 110.99 134.55 110.54 135.055 110.145L136.335 109.145L135.485 110.53C135.098 111.146 134.816 111.822 134.65 112.53C134.555 112.851 134.528 113.188 134.572 113.52C134.616 113.852 134.729 114.17 134.905 114.455C135.07 114.713 135.317 114.908 135.607 115.007C135.897 115.106 136.212 115.104 136.5 115C137.149 114.748 137.722 114.333 138.165 113.795L139.44 112.355L138.71 114.125C138.507 114.617 138.367 115.133 138.295 115.66C138.202 116.166 138.261 116.688 138.465 117.16C138.565 117.365 138.719 117.538 138.912 117.66C139.104 117.782 139.327 117.848 139.555 117.85C140.062 117.776 140.539 117.561 140.93 117.23C141.786 116.519 142.587 115.743 143.325 114.91C143.715 114.5 144.1 114.09 144.51 113.695C144.896 113.279 145.367 112.95 145.89 112.73C145.401 113.002 144.969 113.367 144.62 113.805C144.25 114.225 143.895 114.66 143.54 115.095C142.845 115.998 142.069 116.835 141.22 117.595C140.765 118.012 140.199 118.288 139.59 118.39C139.252 118.408 138.916 118.327 138.623 118.158C138.33 117.988 138.093 117.737 137.94 117.435C137.674 116.868 137.584 116.234 137.68 115.615C137.751 115.025 137.899 114.447 138.12 113.895L138.665 114.225C138.152 114.87 137.477 115.368 136.71 115.67C136.281 115.828 135.809 115.828 135.38 115.67C134.962 115.506 134.604 115.22 134.35 114.85C134.128 114.49 133.985 114.086 133.929 113.667C133.874 113.247 133.909 112.821 134.03 112.415C134.227 111.645 134.548 110.912 134.98 110.245L135.405 110.63C134.745 111.13 133.125 111.8 131.865 110.785C130.44 109.18 132.925 106 133.42 105.425Z" fill="#263238"/>
<path d="M133.5 105.425C133.127 105.59 132.731 105.698 132.325 105.745C132.164 105.769 131.998 105.75 131.847 105.688C131.696 105.626 131.564 105.525 131.465 105.395C131.291 105.077 131.21 104.717 131.23 104.355C131.23 103.955 131.265 103.54 131.31 103.105C131.061 103.469 130.891 103.881 130.81 104.315C130.752 104.551 130.741 104.796 130.778 105.036C130.815 105.277 130.899 105.507 131.025 105.715C131.188 105.929 131.411 106.089 131.665 106.175C131.909 106.243 132.166 106.243 132.41 106.175C132.843 106.046 133.225 105.783 133.5 105.425Z" fill="#263238"/>
<path d="M112.575 126.65L106.575 142.05C106.575 142.05 92.5002 136.74 85.7302 132.47C78.9602 128.2 78.4652 123.765 88.4802 123.765C94.8202 123.765 112.575 126.65 112.575 126.65Z" fill="#FFC727"/>
<path d="M81.7101 126.79L81.3451 127.24L81.3751 127.82L80.9301 127.65C80.7657 127.198 80.7517 126.705 80.8901 126.245L81.1502 126.645L81.7101 126.79Z" fill="#FFC727"/>
<path d="M91.4 126.79L91.035 127.24L91.065 127.82L90.52 127.615L89.98 127.82L90.01 127.24L89.645 126.79L90.205 126.645L90.52 126.155L90.84 126.645L91.4 126.79Z" fill="#FFC727"/>
<path d="M96.24 133.795L95.875 134.245L95.905 134.825L95.365 134.62L94.825 134.825L94.855 134.245L94.49 133.795L95.05 133.65L95.365 133.16L95.68 133.65L96.24 133.795Z" fill="#FFC727"/>
<path d="M101.085 126.79L100.72 127.24L100.75 127.82L100.21 127.615L99.67 127.82L99.7 127.24L99.335 126.79L99.895 126.645L100.21 126.155L100.525 126.645L101.085 126.79Z" fill="#FFC727"/>
<path d="M105.93 133.795L105.565 134.245L105.595 134.825L105.055 134.62L104.51 134.825L104.545 134.245L104.18 133.795L104.74 133.65L105.055 133.16L105.37 133.65L105.93 133.795Z" fill="#FFC727"/>
<path d="M110.405 127.24L110.44 127.82L109.895 127.615L109.355 127.82L109.385 127.24L109.02 126.79L109.58 126.645L109.845 126.235H109.96L110.215 126.63L110.775 126.775L110.405 127.24Z" fill="#FFC727"/>
<g opacity="0.2">
<path d="M81.3451 127.24L81.3751 127.82L80.9301 127.65C80.768 127.196 80.754 126.702 80.8901 126.24L81.1501 126.64L81.7101 126.785L81.3451 127.24Z" fill="black"/>
<path d="M91.035 127.24L91.065 127.82L90.52 127.615L89.98 127.82L90.01 127.24L89.645 126.79L90.205 126.645L90.52 126.155L90.84 126.645L91.4 126.79L91.035 127.24Z" fill="black"/>
<path d="M100.72 127.24L100.75 127.82L100.21 127.615L99.67 127.82L99.7 127.24L99.335 126.79L99.895 126.645L100.21 126.155L100.525 126.645L101.085 126.79L100.72 127.24Z" fill="black"/>
<path d="M110.405 127.24L110.44 127.82L109.895 127.615L109.355 127.82L109.385 127.24L109.02 126.79L109.58 126.645L109.845 126.235H109.945L110.2 126.63L110.76 126.775L110.405 127.24Z" fill="black"/>
<path d="M95.875 134.245L95.905 134.825L95.365 134.62L94.825 134.825L94.855 134.245L94.49 133.795L95.05 133.65L95.365 133.16L95.68 133.65L96.24 133.795L95.875 134.245Z" fill="black"/>
<path d="M105.565 134.245L105.595 134.825L105.055 134.62L104.51 134.825L104.545 134.245L104.18 133.795L104.74 133.65L105.055 133.16L105.37 133.65L105.93 133.795L105.565 134.245Z" fill="black"/>
</g>
<path d="M104.08 139.91C105.08 137.835 105.92 135.655 106.74 133.495C107.56 131.335 108.31 129.19 108.955 126.995C108.955 126.955 108.9 126.925 108.885 126.97C107.975 129.095 107.14 131.255 106.33 133.42C105.52 135.585 104.685 137.7 104 139.885C104 139.93 104.06 139.955 104.08 139.91Z" fill="#263238"/>
<path opacity="0.1" d="M108.265 137.68L106.555 142.05C106.555 142.05 92.5 136.74 85.73 132.47C81.38 129.715 79.62 126.895 81.605 125.24L108.265 137.68Z" fill="black"/>
<path d="M96.64 154.425L98.07 159.66C98.07 159.66 60.07 188.685 58.345 187.755C58.345 187.755 63.975 137.05 73.71 126.985C78.58 121.95 84.14 122.485 87.6 126.155C88.5 127.09 98 139 99 144.445C99.86 149.245 96.64 154.425 96.64 154.425Z" fill="#FFC727"/>
<path d="M95.935 137.605C95.355 136.535 94.74 135.5 94.08 134.475C93.9268 134.091 93.7498 133.717 93.55 133.355C93.28 132.82 93.015 132.29 92.78 131.74C92.7794 131.734 92.7773 131.728 92.774 131.722C92.7706 131.717 92.766 131.713 92.7606 131.709C92.7552 131.706 92.7491 131.704 92.7428 131.704C92.7365 131.703 92.7302 131.705 92.7244 131.707C92.7186 131.709 92.7135 131.713 92.7095 131.718C92.7054 131.723 92.7026 131.729 92.7012 131.735C92.6998 131.741 92.6998 131.747 92.7014 131.753C92.7029 131.76 92.7059 131.765 92.71 131.77C92.96 132.315 93.21 132.865 93.4 133.42C93.4138 133.449 93.4255 133.479 93.435 133.51C93.19 133.165 92.935 132.82 92.69 132.48C92.3101 131.933 91.9029 131.406 91.47 130.9C91.445 130.875 91.41 130.9 91.425 130.935C91.745 131.51 92.145 132.045 92.5 132.595C92.855 133.145 93.235 133.745 93.61 134.31C94.355 135.43 95.11 136.535 95.87 137.645C95.8715 137.651 95.8745 137.657 95.8786 137.661C95.8827 137.666 95.8879 137.67 95.8937 137.672C95.8995 137.675 95.9058 137.676 95.9121 137.675C95.9183 137.675 95.9244 137.673 95.9297 137.669C95.9351 137.666 95.9396 137.661 95.9429 137.656C95.9462 137.651 95.9481 137.645 95.9486 137.638C95.9492 137.632 95.9482 137.626 95.9458 137.62C95.9434 137.614 95.9397 137.609 95.935 137.605Z" fill="#263238"/>
<g opacity="0.2">
<path d="M80.835 126.155L81.15 126.64L81.71 126.79L81.345 127.245L81.375 127.82L80.835 127.615L80.295 127.82L80.325 127.245L79.96 126.79L80.52 126.64L80.835 126.155Z" fill="black"/>
<path d="M71.145 139.96L71.465 140.45L72.025 140.6L71.655 141.05L71.69 141.625L71.145 141.42L70.605 141.625L70.635 141.05L70.27 140.6L70.83 140.45L71.145 139.96Z" fill="black"/>
<path d="M80.835 139.96L81.15 140.45L81.71 140.6L81.345 141.05L81.375 141.625L80.835 141.42L80.295 141.625L80.325 141.05L79.96 140.6L80.52 140.45L80.835 139.96Z" fill="black"/>
<path d="M90.52 139.96L90.84 140.45L91.4 140.6L91.03 141.05L91.065 141.625L90.52 141.42L89.98 141.625L90.01 141.05L89.645 140.6L90.205 140.45L90.52 139.96Z" fill="black"/>
<path d="M75.99 133.16L76.305 133.65L76.865 133.795L76.5 134.25L76.53 134.825L75.99 134.62L75.45 134.825L75.48 134.25L75.115 133.795L75.675 133.65L75.99 133.16Z" fill="black"/>
<path d="M85.68 133.16L85.995 133.65L86.555 133.795L86.19 134.25L86.22 134.825L85.68 134.62L85.135 134.825L85.17 134.25L84.8 133.795L85.365 133.65L85.68 133.16Z" fill="black"/>
<path d="M71.145 153.77L71.465 154.255L72.025 154.405L71.655 154.855L71.69 155.435L71.145 155.225L70.605 155.435L70.635 154.855L70.27 154.405L70.83 154.255L71.145 153.77Z" fill="black"/>
<path d="M80.835 153.77L81.15 154.255L81.71 154.405L81.345 154.855L81.375 155.435L80.835 155.225L80.295 155.435L80.325 154.855L79.96 154.405L80.52 154.255L80.835 153.77Z" fill="black"/>
<path d="M90.52 153.77L90.84 154.255L91.4 154.405L91.03 154.855L91.065 155.435L90.52 155.225L89.98 155.435L90.01 154.855L89.645 154.405L90.205 154.255L90.52 153.77Z" fill="black"/>
<path d="M66.3049 146.965L66.6199 147.455L67.1799 147.605L66.8149 148.055L66.8449 148.63L66.3049 148.425L65.7649 148.63L65.7949 148.055L65.4299 147.605L65.9899 147.455L66.3049 146.965Z" fill="black"/>
<path d="M75.99 146.965L76.305 147.455L76.865 147.605L76.5 148.055L76.53 148.63L75.99 148.425L75.45 148.63L75.48 148.055L75.115 147.605L75.675 147.455L75.99 146.965Z" fill="black"/>
<path d="M85.68 146.965L85.995 147.455L86.555 147.605L86.19 148.055L86.22 148.63L85.68 148.425L85.135 148.63L85.17 148.055L84.8 147.605L85.365 147.455L85.68 146.965Z" fill="black"/>
<path d="M95.365 146.965L95.68 147.455L96.24 147.605L95.875 148.055L95.905 148.63L95.365 148.425L94.825 148.63L94.855 148.055L94.49 147.605L95.05 147.455L95.365 146.965Z" fill="black"/>
<path d="M61.97 168.66L62 169.24L61.46 169.03L60.96 169.225C61.02 168.84 61.085 168.45 61.15 168.06L61.46 167.56L61.775 168.06L62.335 168.21L61.97 168.66Z" fill="black"/>
<path d="M71.145 167.575L71.465 168.06L72.025 168.21L71.655 168.66L71.69 169.24L71.145 169.03L70.605 169.24L70.635 168.66L70.27 168.21L70.83 168.06L71.145 167.575Z" fill="black"/>
<path d="M80.835 167.575L81.15 168.06L81.71 168.21L81.345 168.66L81.375 169.24L80.835 169.03L80.295 169.24L80.325 168.66L79.96 168.21L80.52 168.06L80.835 167.575Z" fill="black"/>
<path d="M66.3049 160.775L66.6199 161.26L67.1799 161.41L66.8149 161.86L66.8449 162.44L66.3049 162.23L65.7649 162.44L65.7949 161.86L65.4299 161.41L65.9899 161.26L66.3049 160.775Z" fill="black"/>
<path d="M75.99 160.775L76.305 161.26L76.865 161.41L76.5 161.86L76.53 162.44L75.99 162.23L75.45 162.44L75.48 161.86L75.115 161.41L75.675 161.26L75.99 160.775Z" fill="black"/>
<path d="M85.68 160.775L85.995 161.26L86.555 161.41L86.19 161.86L86.22 162.44L85.68 162.23L85.135 162.44L85.17 161.86L84.8 161.41L85.365 161.26L85.68 160.775Z" fill="black"/>
<path d="M94.8399 162.11V161.86L94.4749 161.41L95.0349 161.26L95.3499 160.76L95.6649 161.26L95.8799 161.315L94.8399 162.11Z" fill="black"/>
<path d="M61.46 181.38L61.775 181.865L62.335 182.015L61.97 182.465L62 183.045L61.46 182.835L60.92 183.045L60.95 182.465L60.585 182.015L61.145 181.865L61.46 181.38Z" fill="black"/>
<path d="M66.3049 174.58L66.6199 175.065L67.1799 175.215L66.8149 175.665L66.8449 176.245L66.3049 176.035L65.7649 176.245L65.7949 175.665L65.4299 175.215L65.9899 175.065L66.3049 174.58Z" fill="black"/>
<path d="M76.4999 175.665V175.775L76.0899 176.075L75.9849 176.035L75.4449 176.245L75.4749 175.665L75.1099 175.215L75.6699 175.065L75.9849 174.565L76.2999 175.065L76.8599 175.215L76.4999 175.665Z" fill="black"/>
</g>
<path d="M73 127.955C59.595 141.91 40.05 177.245 37.635 182.31C35.995 185.75 53.975 194.81 54.74 192.31C55.74 189.11 71.38 149.565 75.54 134.645C77.845 126.42 75.775 125.075 73 127.955Z" fill="#DD6A57"/>
<path d="M55.5951 189.955C54.9701 191.665 52.8351 198.955 51.3401 199.85C49.8451 200.745 42.0001 200.56 38.0601 200.56C34.1201 200.56 33.3351 199.46 33.4001 198.1C33.4651 196.74 41.7501 196.5 41.7501 196.5C41.7501 196.5 30.6851 199.675 27.9001 200.19C25.1151 200.705 18.7001 202.33 17.7751 200.02C17.3551 198.98 19.1101 197.925 19.1101 197.925C19.1101 197.925 16.4201 198.71 15.9901 197.375C15.4901 195.875 17.6451 195.01 17.6451 195.01C17.6451 195.01 15.9601 195.35 15.9251 194.11C15.8351 191.335 26.3651 189.975 26.3651 189.975C26.3651 189.975 18.3051 193.895 18.0451 191.635C17.6851 188.5 34.2051 185.065 35.9251 183.7C37.0487 182.748 37.9833 181.593 38.6801 180.295L55.5951 189.955Z" fill="#DD6A57"/>
<path d="M33.46 198.79C33.4325 198.596 33.4523 198.399 33.5176 198.214C33.5828 198.029 33.6918 197.863 33.835 197.73C34.1172 197.469 34.4419 197.257 34.795 197.105C35.5265 196.794 36.2846 196.549 37.06 196.375C38.615 195.975 40.21 195.7 41.8 195.285C40.1584 195.263 38.5205 195.448 36.925 195.835C36.111 196.023 35.3269 196.322 34.595 196.725C34.2193 196.936 33.8894 197.22 33.625 197.56C33.4942 197.734 33.4102 197.938 33.3813 198.153C33.3524 198.369 33.3796 198.588 33.46 198.79Z" fill="#263238"/>
<path d="M19.1101 197.905C20.2501 197.625 21.3701 197.305 22.4951 196.98C23.6201 196.655 24.7251 196.315 25.8451 195.98L29.1751 194.935C30.2901 194.585 31.4001 194.24 32.5201 193.905C31.3568 194.028 30.2027 194.227 29.0651 194.5C27.9201 194.76 26.8001 195.09 25.6801 195.43C24.5601 195.77 23.4551 196.145 22.3601 196.56C21.2651 196.975 20.1751 197.41 19.1101 197.905Z" fill="#263238"/>
<path d="M29.85 191.14C28.7758 191.209 27.7079 191.356 26.655 191.58C25.6 191.794 24.5569 192.062 23.53 192.385C22.4995 192.698 21.4878 193.071 20.5 193.5C19.5102 193.931 18.5527 194.432 17.635 195C18.635 194.65 19.635 194.26 20.635 193.92C21.635 193.58 22.635 193.235 23.67 192.92C24.705 192.605 25.705 192.3 26.725 192C27.745 191.7 28.81 191.42 29.85 191.14Z" fill="#263238"/>
<path d="M28.22 188.5C26.4868 188.631 24.7786 188.99 23.14 189.57C21.4869 190.115 19.9133 190.877 18.46 191.835C20.1 191.25 21.69 190.635 23.315 190.095C24.94 189.555 26.57 189.03 28.22 188.5Z" fill="#263238"/>
<path d="M54.5 150.33L69.4 155.54C69.4 155.54 75.235 140.83 76.52 132.95C77.805 125.07 76.315 123.37 69.52 130.715C62.725 138.06 54.5 150.33 54.5 150.33Z" fill="#FFC727"/>
<g opacity="0.2">
<path d="M61.9699 141.05L61.9999 141.625L61.4599 141.42L60.9199 141.625V141.29C61.1599 140.965 61.4199 140.635 61.6549 140.29L61.7549 140.45L62.3149 140.6L61.9699 141.05Z" fill="black"/>
<path d="M71.145 139.96L71.465 140.45L72.025 140.6L71.655 141.05L71.69 141.625L71.145 141.42L70.605 141.625L70.635 141.05L70.27 140.6L70.83 140.45L71.145 139.96Z" fill="black"/>
<path d="M66.815 134.245L66.845 134.825L66.305 134.62L66.05 134.715L66.88 133.715L67.18 133.795L66.815 134.245Z" fill="black"/>
<path d="M76.405 133.675C76.345 134.005 76.275 134.35 76.2 134.675L75.99 134.595L75.45 134.8L75.48 134.22L75.115 133.77L75.675 133.625L75.99 133.125L76.305 133.625L76.405 133.675Z" fill="black"/>
<path d="M57.125 148.055L57.1549 148.63L56.615 148.425L56.075 148.63L56.1049 148.055V148.03C56.3049 147.75 56.515 147.445 56.74 147.125L56.95 147.455L57.5099 147.605L57.125 148.055Z" fill="black"/>
<path d="M66.3049 146.965L66.6199 147.455L67.1799 147.605L66.8149 148.055L66.8449 148.63L66.3049 148.425L65.7649 148.63L65.7949 148.055L65.4299 147.605L65.9899 147.455L66.3049 146.965Z" fill="black"/>
</g>
<path d="M75.385 141.125C74.7592 142.154 74.1884 143.216 73.675 144.305C73.83 143.805 73.985 143.275 74.135 142.765C74.505 141.5 74.885 140.225 75.18 138.94C75.1777 138.935 75.1738 138.93 75.1689 138.927C75.164 138.924 75.1583 138.922 75.1525 138.922C75.1466 138.922 75.1409 138.924 75.1361 138.927C75.1312 138.93 75.1273 138.935 75.125 138.94C74.315 141.095 73.625 143.295 72.845 145.47C72.065 147.645 71.31 149.805 70.555 151.97C70.14 153.155 69.755 154.345 69.39 155.545L68.64 155.28C68.59 155.25 68.575 155.335 68.64 155.345L69.54 155.735C69.57 155.735 72.285 148.84 73.37 145.315C74.125 143.965 74.815 142.575 75.455 141.17C75.4579 141.165 75.46 141.16 75.4609 141.155C75.4619 141.15 75.4618 141.144 75.4606 141.139C75.4595 141.133 75.4573 141.128 75.4542 141.124C75.4511 141.119 75.4471 141.116 75.4425 141.113C75.4379 141.11 75.4328 141.108 75.4274 141.107C75.422 141.106 75.4165 141.106 75.4112 141.107C75.4058 141.108 75.4008 141.11 75.3963 141.113C75.3918 141.116 75.3879 141.12 75.385 141.125Z" fill="#263238"/>
<path d="M70 152.915C67.91 151.915 65.72 151.14 63.55 150.35C61.38 149.56 59.22 148.85 57.015 148.225C56.97 148.225 56.95 148.285 57.015 148.3C59.155 149.18 61.325 149.98 63.515 150.76C65.705 151.54 67.815 152.345 70.015 152.995C70.0219 152.99 70.0272 152.983 70.0304 152.975C70.0336 152.967 70.0344 152.959 70.0328 152.95C70.0313 152.942 70.0273 152.934 70.0215 152.928C70.0157 152.922 70.0082 152.917 70 152.915Z" fill="#263238"/>
<path d="M80.41 123.5C75.715 123.97 76.97 128.7 79.04 130.865C80.42 132.315 83.215 133.775 84.82 133.2C86.425 132.625 85.16 129.035 85.16 129.035C85.16 129.035 87.805 131.605 88.785 130.495C89.765 129.385 85.27 123 80.41 123.5Z" fill="#263238"/>
<path d="M77.9701 125.955C78.2351 126.625 81.8151 129.325 84.9701 128.72C85.9701 128.52 85.5201 124.195 85.5201 124.195L85.5551 123.765L86.0101 117.765L78.5101 114.37L77.4351 113.935C77.4351 113.935 77.4351 115.59 77.4351 117.645V117.94C77.4351 118.055 77.4351 118.165 77.4351 118.275C77.4351 118.58 77.4351 118.895 77.4351 119.21C77.4351 119.445 77.4351 119.68 77.4351 119.93C77.4351 120.18 77.4351 120.43 77.4351 120.675C77.4959 122.445 77.6746 124.209 77.9701 125.955Z" fill="#DD6A57"/>
<path d="M77.4252 117.635C78.2505 119.186 79.4043 120.537 80.8058 121.596C82.2074 122.655 83.8231 123.395 85.5402 123.765L85.9952 117.765L78.4952 114.37L77.4202 113.935C77.4202 113.935 77.4252 115.58 77.4252 117.635Z" fill="#263238"/>
<path d="M93.415 107.865C95.325 118.275 89.305 120.59 87.06 121C85.02 121.37 78.035 122.38 75.06 112.22C72.085 102.06 76.32 97.89 80.935 96.795C85.55 95.7 91.5 97.455 93.415 107.865Z" fill="#DD6A57"/>
<path d="M90.0451 105.395C89.7951 105.395 89.5451 105.355 89.3151 105.335C89.056 105.347 88.7999 105.275 88.5851 105.13C88.5276 105.071 88.4912 104.994 88.4813 104.912C88.4713 104.83 88.4885 104.747 88.5301 104.675C88.6336 104.545 88.7708 104.445 88.9267 104.387C89.0826 104.329 89.2515 104.314 89.4151 104.345C89.7556 104.349 90.0822 104.481 90.3301 104.715C90.3829 104.772 90.4182 104.843 90.4317 104.92C90.4453 104.996 90.4365 105.075 90.4064 105.147C90.3764 105.218 90.3263 105.28 90.2623 105.324C90.1982 105.368 90.1228 105.393 90.0451 105.395Z" fill="#263238"/>
<path d="M82.89 106.645C83.1258 106.578 83.3579 106.498 83.585 106.405C83.839 106.357 84.0695 106.225 84.24 106.03C84.2832 105.959 84.3014 105.876 84.2914 105.793C84.2814 105.71 84.2439 105.634 84.185 105.575C84.052 105.475 83.8946 105.413 83.7293 105.394C83.564 105.376 83.3967 105.402 83.245 105.47C82.9159 105.561 82.6325 105.771 82.45 106.06C82.412 106.128 82.3946 106.205 82.3998 106.282C82.405 106.36 82.4326 106.434 82.4793 106.496C82.5259 106.558 82.5895 106.605 82.6625 106.632C82.7354 106.658 82.8144 106.663 82.89 106.645Z" fill="#263238"/>
<path d="M84.8501 109.16C84.8501 109.16 84.8001 109.2 84.8051 109.23C84.9351 109.94 84.9601 110.775 84.3501 111.105C84.3501 111.105 84.3501 111.15 84.3501 111.145C85.1351 110.915 85.0851 109.81 84.8501 109.16Z" fill="#263238"/>
<path d="M84.1051 108.5C82.9451 108.585 83.1951 110.895 84.2701 110.82C85.3451 110.745 85.0751 108.44 84.1051 108.5Z" fill="#263238"/>
<path d="M83.6602 108.68C83.4752 108.835 83.3002 109.085 83.0602 109.135C82.8202 109.185 82.5602 108.975 82.3352 108.765C82.3352 108.74 82.2952 108.765 82.2952 108.795C82.3402 109.24 82.5602 109.675 83.0402 109.69C83.5202 109.705 83.7502 109.275 83.8102 108.82C83.8252 108.735 83.7402 108.62 83.6602 108.68Z" fill="#263238"/>
<path d="M89 108.335C89 108.305 89.06 108.36 89.065 108.39C89.115 109.11 89.29 109.925 89.965 110.095V110.14C89.145 110.105 88.92 109 89 108.335Z" fill="#263238"/>
<path d="M89.5501 107.5C90.6951 107.295 91.0201 109.6 89.9601 109.79C88.9001 109.98 88.5901 107.69 89.5501 107.5Z" fill="#263238"/>
<path d="M90.05 107.605C90.25 107.7 90.465 107.895 90.68 107.88C90.895 107.865 91.09 107.585 91.215 107.325C91.215 107.295 91.25 107.325 91.255 107.325C91.33 107.76 91.255 108.24 90.835 108.385C90.415 108.53 90.125 108.18 89.96 107.755C89.925 107.695 89.97 107.565 90.05 107.605Z" fill="#263238"/>
<path d="M88.37 111.685C88.37 111.685 88.645 112.735 88.705 113.24C88.705 113.285 88.59 113.325 88.42 113.355C87.9973 113.487 87.5462 113.501 87.1166 113.393C86.6869 113.285 86.2953 113.061 85.985 112.745C85.94 112.7 85.985 112.64 86.05 112.665C86.7463 113.026 87.5409 113.153 88.315 113.025C88.315 112.885 87.78 111.245 87.855 111.23C88.252 111.214 88.6494 111.254 89.035 111.35C88.535 109.145 87.655 107.04 87.18 104.85C87.18 104.77 87.275 104.735 87.305 104.8C88.365 106.945 89.015 109.47 89.6 111.73C89.665 112 88.58 111.745 88.37 111.685Z" fill="#263238"/>
<path d="M88.37 113C88.1618 113.46 87.8379 113.858 87.43 114.155C87.2021 114.307 86.9339 114.387 86.66 114.385C86.06 114.385 85.925 113.85 85.925 113.385C85.9281 113.136 85.96 112.887 86.02 112.645C86.7454 113.011 87.5689 113.136 88.37 113Z" fill="#263238"/>
<path d="M87.43 114.17C87.2021 114.322 86.9339 114.402 86.66 114.4C86.06 114.4 85.925 113.865 85.925 113.4C86.2259 113.341 86.5381 113.384 86.8111 113.524C87.0841 113.664 87.3022 113.891 87.43 114.17Z" fill="#FF9ABB"/>
<path d="M75.8051 111.67C78.3351 111.385 78.4851 103.525 78.4901 102.56C78.5151 103.17 78.6701 106.39 78.9251 106.5C79.1971 106.473 79.4625 106.401 79.7101 106.285C79.6776 105.901 79.6776 105.514 79.7101 105.13C79.7101 104.95 79.8051 105.51 79.9551 106.2L80.4151 106.03C80.3228 105.211 80.3413 104.384 80.4701 103.57C80.5201 103.26 80.7051 104.62 81.0901 105.79C83.2071 104.993 85.4053 104.432 87.6451 104.115C88.2751 104.045 88.8251 104.01 89.3101 104C89.2401 103.05 89.0551 102.045 89.1401 102.26C89.3747 102.817 89.5523 103.397 89.6701 103.99H90.3951C90.3601 102.645 89.5601 100.555 89.8001 100.87C90.5141 101.829 91.0384 102.915 91.3451 104.07C92.2701 104.175 92.5401 104.335 92.5451 104.095C92.5451 103.665 91.7501 99.955 88.6201 97.43C85.2201 94.68 78.8351 94.43 75.6201 99.285C75.6201 99.285 72.8251 101.425 72.6201 104.55C72.4151 107.675 74.3401 111.83 75.8051 111.67Z" fill="#263238"/>
<path d="M76.865 112.72C76.865 112.72 74.25 109.65 72.865 110.61C71.48 111.57 73.63 116.175 75.445 116.66C75.6732 116.738 75.915 116.769 76.1556 116.751C76.3962 116.734 76.6307 116.667 76.845 116.557C77.0594 116.446 77.2492 116.293 77.403 116.107C77.5568 115.921 77.6714 115.706 77.74 115.475L76.865 112.72Z" fill="#DD6A57"/>
<path d="M73.5 111.915V111.96C74.775 112.345 75.53 113.42 76.095 114.56C76.0108 114.445 75.9029 114.349 75.7786 114.279C75.6544 114.209 75.5166 114.167 75.3745 114.155C75.2325 114.142 75.0894 114.16 74.9549 114.208C74.8205 114.255 74.6978 114.331 74.595 114.43C74.565 114.43 74.595 114.5 74.635 114.49C74.8443 114.401 75.0758 114.38 75.2979 114.428C75.5199 114.477 75.7215 114.592 75.875 114.76C76.1335 115.039 76.3584 115.348 76.545 115.68C76.615 115.785 76.805 115.68 76.755 115.585V115.555C76.62 114 75.19 111.91 73.5 111.915Z" fill="#263238"/>
<path d="M128.195 79.925C127.885 82.9132 126.751 85.7565 124.919 88.1372C123.086 90.5178 120.628 92.3421 117.818 93.406C115.009 94.47 111.959 94.7317 109.009 94.162C106.059 93.5923 103.326 92.2136 101.115 90.18L93 91.37L97.055 84.37C96.0413 81.9012 95.6597 79.2185 95.945 76.565C96.3919 72.289 98.5191 68.3657 101.859 65.6582C105.198 62.9506 109.477 61.6806 113.753 62.1275C118.028 62.5744 121.952 64.7016 124.659 68.0411C127.367 71.3807 128.637 75.659 128.19 79.935L128.195 79.925Z" fill="white"/>
<path d="M128.195 79.925C127.881 82.9133 126.749 85.7573 124.925 88.145C124.03 89.3466 122.958 90.4054 121.745 91.285C118.73 93.5811 115 94.736 111.215 94.545C110.464 94.5242 109.715 94.4456 108.975 94.31C105.993 93.7581 103.223 92.3869 100.975 90.35L101.165 90.41L93.0651 91.655L92.4751 91.745L92.7751 91.245L96.8101 84.245V84.525C95.8578 82.2009 95.4527 79.689 95.6261 77.1834C95.7995 74.6779 96.5467 72.2457 97.8101 70.075C99.0726 67.9137 100.808 66.066 102.885 64.67C104.961 63.2962 107.321 62.4098 109.788 62.0773C112.254 61.7448 114.765 61.9748 117.13 62.75C119.475 63.5458 121.612 64.8561 123.385 66.585C125.14 68.3026 126.484 70.3946 127.317 72.7045C128.15 75.0145 128.45 77.4827 128.195 79.925ZM128.195 79.925C128.454 77.4842 128.149 75.0165 127.304 72.7122C126.458 70.4078 125.095 68.3282 123.32 66.6337C121.544 64.9391 119.403 63.6749 117.062 62.9382C114.72 62.2016 112.241 62.0124 109.815 62.385C107.411 62.7431 105.12 63.6479 103.12 65.03C101.139 66.4208 99.484 68.2258 98.2701 70.32C97.0738 72.4216 96.3695 74.767 96.2101 77.18C96.0603 79.5888 96.4497 82.0007 97.3501 84.24L97.4101 84.385L97.3351 84.515L93.2501 91.515L92.9601 91.085L101.08 89.95H101.19L101.27 90.025C103.435 92.0534 106.122 93.4385 109.03 94.025C109.755 94.1724 110.491 94.2627 111.23 94.295C111.969 94.345 112.711 94.345 113.45 94.295C114.931 94.1803 116.388 93.8588 117.78 93.34C119.18 92.8342 120.497 92.1249 121.69 91.235C122.288 90.7929 122.859 90.3154 123.4 89.805C123.928 89.2801 124.421 88.7205 124.875 88.13C126.718 85.7538 127.867 82.914 128.195 79.925Z" fill="#263238"/>
<mask id="path-164-outside-1_10_7" maskUnits="userSpaceOnUse" x="98" y="68" width="27" height="20" fill="black">
<rect fill="white" x="98" y="68" width="27" height="20"/>
<path d="M100.11 85.895C99.94 85.235 99.79 84.59 99.66 83.96C99.54 83.33 99.45 82.75 99.39 82.22C99.33 81.69 99.3 81.255 99.3 80.915C99.3 80.305 99.41 79.8 99.63 79.4C99.85 78.99 100.145 78.675 100.515 78.455C100.885 78.225 101.295 78.07 101.745 77.99C102.205 77.91 102.675 77.885 103.155 77.915C103.645 77.935 104.105 77.995 104.535 78.095C104.565 77.755 104.545 77.43 104.475 77.12C104.415 76.8 104.31 76.52 104.16 76.28C104.02 76.03 103.84 75.835 103.62 75.695C103.4 75.555 103.15 75.485 102.87 75.485C102.62 75.485 102.385 75.54 102.165 75.65C101.945 75.76 101.735 75.93 101.535 76.16C101.345 76.38 101.16 76.655 100.98 76.985L100.05 76.475C100.31 75.935 100.595 75.505 100.905 75.185C101.225 74.865 101.56 74.635 101.91 74.495C102.26 74.345 102.605 74.27 102.945 74.27C103.455 74.27 103.885 74.38 104.235 74.6C104.585 74.81 104.86 75.09 105.06 75.44C105.27 75.78 105.42 76.15 105.51 76.55C105.61 76.94 105.66 77.315 105.66 77.675C105.66 77.925 105.63 78.175 105.57 78.425C105.51 78.675 105.435 78.9 105.345 79.1C105.265 79.3 105.185 79.455 105.105 79.565C104.565 79.405 104.06 79.29 103.59 79.22C103.12 79.15 102.695 79.13 102.315 79.16C101.945 79.18 101.625 79.26 101.355 79.4C101.085 79.54 100.88 79.74 100.74 80C100.6 80.26 100.53 80.59 100.53 80.99C100.53 81.36 100.56 81.8 100.62 82.31C100.68 82.82 100.765 83.355 100.875 83.915C100.985 84.485 101.115 85.045 101.265 85.595L100.11 85.895ZM110.631 80.075C109.831 80.075 109.216 79.985 108.786 79.805C108.366 79.625 108.076 79.345 107.916 78.965C107.756 78.585 107.666 78.095 107.646 77.495L107.346 69.29H108.576L108.876 77.015C108.896 77.505 108.941 77.885 109.011 78.155C109.091 78.415 109.261 78.595 109.521 78.695C109.791 78.795 110.211 78.845 110.781 78.845C110.991 78.845 111.141 78.905 111.231 79.025C111.331 79.135 111.381 79.27 111.381 79.43C111.381 79.59 111.311 79.74 111.171 79.88C111.031 80.01 110.851 80.075 110.631 80.075ZM110.631 80.075L110.781 78.845C111.061 78.845 111.281 78.785 111.441 78.665C111.611 78.545 111.771 78.345 111.921 78.065C112.081 77.785 112.281 77.41 112.521 76.94C112.761 76.46 113.001 76.07 113.241 75.77C113.491 75.46 113.731 75.22 113.961 75.05C114.201 74.87 114.426 74.745 114.636 74.675C114.846 74.605 115.041 74.57 115.221 74.57C115.551 74.57 115.846 74.645 116.106 74.795C116.366 74.935 116.611 75.18 116.841 75.53C117.071 75.87 117.306 76.34 117.546 76.94C117.776 77.49 117.981 77.905 118.161 78.185C118.351 78.455 118.546 78.635 118.746 78.725C118.956 78.805 119.191 78.845 119.451 78.845C119.661 78.845 119.811 78.905 119.901 79.025C120.001 79.135 120.051 79.27 120.051 79.43C120.051 79.59 119.981 79.74 119.841 79.88C119.701 80.01 119.521 80.075 119.301 80.075C118.911 80.075 118.551 80.01 118.221 79.88C117.901 79.75 117.631 79.545 117.411 79.265L117.621 78.95C117.511 79.26 117.361 79.515 117.171 79.715C116.991 79.905 116.786 80.045 116.556 80.135C116.326 80.235 116.081 80.285 115.821 80.285C115.491 80.285 115.151 80.215 114.801 80.075C114.461 79.935 114.131 79.735 113.811 79.475C113.491 79.215 113.211 78.91 112.971 78.56C112.711 79.02 112.461 79.36 112.221 79.58C111.991 79.79 111.751 79.925 111.501 79.985C111.251 80.045 110.961 80.075 110.631 80.075ZM113.541 77.42C113.711 77.7 113.891 77.945 114.081 78.155C114.281 78.365 114.481 78.54 114.681 78.68C114.881 78.81 115.076 78.91 115.266 78.98C115.466 79.04 115.646 79.07 115.806 79.07C116.156 79.07 116.411 78.945 116.571 78.695C116.741 78.445 116.736 78.095 116.556 77.645C116.466 77.415 116.371 77.19 116.271 76.97C116.181 76.75 116.081 76.55 115.971 76.37C115.861 76.18 115.736 76.035 115.596 75.935C115.456 75.825 115.301 75.77 115.131 75.77C114.981 75.77 114.821 75.82 114.651 75.92C114.491 76.02 114.316 76.19 114.126 76.43C113.946 76.67 113.751 77 113.541 77.42ZM119.303 80.075L119.453 78.845C120.043 78.845 120.503 78.825 120.833 78.785C121.163 78.735 121.398 78.62 121.538 78.44C121.678 78.25 121.748 77.955 121.748 77.555C121.748 77.305 121.708 77.01 121.628 76.67C121.548 76.32 121.443 75.95 121.313 75.56C121.183 75.17 121.043 74.785 120.893 74.405L122.108 73.955C122.238 74.275 122.358 74.64 122.468 75.05C122.588 75.46 122.688 75.865 122.768 76.265C122.848 76.665 122.888 77.015 122.888 77.315C122.888 77.815 122.818 78.24 122.678 78.59C122.548 78.94 122.338 79.225 122.048 79.445C121.758 79.665 121.383 79.825 120.923 79.925C120.473 80.025 119.933 80.075 119.303 80.075ZM122.573 72.395C122.363 72.395 122.183 72.325 122.033 72.185C121.893 72.035 121.823 71.86 121.823 71.66C121.823 71.46 121.893 71.285 122.033 71.135C122.183 70.985 122.363 70.91 122.573 70.91C122.773 70.91 122.943 70.985 123.083 71.135C123.233 71.285 123.308 71.46 123.308 71.66C123.308 71.86 123.233 72.035 123.083 72.185C122.943 72.325 122.773 72.395 122.573 72.395ZM120.518 72.395C120.308 72.395 120.128 72.325 119.978 72.185C119.838 72.035 119.768 71.86 119.768 71.66C119.768 71.46 119.838 71.285 119.978 71.135C120.128 70.985 120.308 70.91 120.518 70.91C120.718 70.91 120.888 70.985 121.028 71.135C121.178 71.285 121.253 71.46 121.253 71.66C121.253 71.86 121.178 72.035 121.028 72.185C120.888 72.325 120.718 72.395 120.518 72.395Z"/>
</mask>
<path d="M100.11 85.895C99.94 85.235 99.79 84.59 99.66 83.96C99.54 83.33 99.45 82.75 99.39 82.22C99.33 81.69 99.3 81.255 99.3 80.915C99.3 80.305 99.41 79.8 99.63 79.4C99.85 78.99 100.145 78.675 100.515 78.455C100.885 78.225 101.295 78.07 101.745 77.99C102.205 77.91 102.675 77.885 103.155 77.915C103.645 77.935 104.105 77.995 104.535 78.095C104.565 77.755 104.545 77.43 104.475 77.12C104.415 76.8 104.31 76.52 104.16 76.28C104.02 76.03 103.84 75.835 103.62 75.695C103.4 75.555 103.15 75.485 102.87 75.485C102.62 75.485 102.385 75.54 102.165 75.65C101.945 75.76 101.735 75.93 101.535 76.16C101.345 76.38 101.16 76.655 100.98 76.985L100.05 76.475C100.31 75.935 100.595 75.505 100.905 75.185C101.225 74.865 101.56 74.635 101.91 74.495C102.26 74.345 102.605 74.27 102.945 74.27C103.455 74.27 103.885 74.38 104.235 74.6C104.585 74.81 104.86 75.09 105.06 75.44C105.27 75.78 105.42 76.15 105.51 76.55C105.61 76.94 105.66 77.315 105.66 77.675C105.66 77.925 105.63 78.175 105.57 78.425C105.51 78.675 105.435 78.9 105.345 79.1C105.265 79.3 105.185 79.455 105.105 79.565C104.565 79.405 104.06 79.29 103.59 79.22C103.12 79.15 102.695 79.13 102.315 79.16C101.945 79.18 101.625 79.26 101.355 79.4C101.085 79.54 100.88 79.74 100.74 80C100.6 80.26 100.53 80.59 100.53 80.99C100.53 81.36 100.56 81.8 100.62 82.31C100.68 82.82 100.765 83.355 100.875 83.915C100.985 84.485 101.115 85.045 101.265 85.595L100.11 85.895ZM110.631 80.075C109.831 80.075 109.216 79.985 108.786 79.805C108.366 79.625 108.076 79.345 107.916 78.965C107.756 78.585 107.666 78.095 107.646 77.495L107.346 69.29H108.576L108.876 77.015C108.896 77.505 108.941 77.885 109.011 78.155C109.091 78.415 109.261 78.595 109.521 78.695C109.791 78.795 110.211 78.845 110.781 78.845C110.991 78.845 111.141 78.905 111.231 79.025C111.331 79.135 111.381 79.27 111.381 79.43C111.381 79.59 111.311 79.74 111.171 79.88C111.031 80.01 110.851 80.075 110.631 80.075ZM110.631 80.075L110.781 78.845C111.061 78.845 111.281 78.785 111.441 78.665C111.611 78.545 111.771 78.345 111.921 78.065C112.081 77.785 112.281 77.41 112.521 76.94C112.761 76.46 113.001 76.07 113.241 75.77C113.491 75.46 113.731 75.22 113.961 75.05C114.201 74.87 114.426 74.745 114.636 74.675C114.846 74.605 115.041 74.57 115.221 74.57C115.551 74.57 115.846 74.645 116.106 74.795C116.366 74.935 116.611 75.18 116.841 75.53C117.071 75.87 117.306 76.34 117.546 76.94C117.776 77.49 117.981 77.905 118.161 78.185C118.351 78.455 118.546 78.635 118.746 78.725C118.956 78.805 119.191 78.845 119.451 78.845C119.661 78.845 119.811 78.905 119.901 79.025C120.001 79.135 120.051 79.27 120.051 79.43C120.051 79.59 119.981 79.74 119.841 79.88C119.701 80.01 119.521 80.075 119.301 80.075C118.911 80.075 118.551 80.01 118.221 79.88C117.901 79.75 117.631 79.545 117.411 79.265L117.621 78.95C117.511 79.26 117.361 79.515 117.171 79.715C116.991 79.905 116.786 80.045 116.556 80.135C116.326 80.235 116.081 80.285 115.821 80.285C115.491 80.285 115.151 80.215 114.801 80.075C114.461 79.935 114.131 79.735 113.811 79.475C113.491 79.215 113.211 78.91 112.971 78.56C112.711 79.02 112.461 79.36 112.221 79.58C111.991 79.79 111.751 79.925 111.501 79.985C111.251 80.045 110.961 80.075 110.631 80.075ZM113.541 77.42C113.711 77.7 113.891 77.945 114.081 78.155C114.281 78.365 114.481 78.54 114.681 78.68C114.881 78.81 115.076 78.91 115.266 78.98C115.466 79.04 115.646 79.07 115.806 79.07C116.156 79.07 116.411 78.945 116.571 78.695C116.741 78.445 116.736 78.095 116.556 77.645C116.466 77.415 116.371 77.19 116.271 76.97C116.181 76.75 116.081 76.55 115.971 76.37C115.861 76.18 115.736 76.035 115.596 75.935C115.456 75.825 115.301 75.77 115.131 75.77C114.981 75.77 114.821 75.82 114.651 75.92C114.491 76.02 114.316 76.19 114.126 76.43C113.946 76.67 113.751 77 113.541 77.42ZM119.303 80.075L119.453 78.845C120.043 78.845 120.503 78.825 120.833 78.785C121.163 78.735 121.398 78.62 121.538 78.44C121.678 78.25 121.748 77.955 121.748 77.555C121.748 77.305 121.708 77.01 121.628 76.67C121.548 76.32 121.443 75.95 121.313 75.56C121.183 75.17 121.043 74.785 120.893 74.405L122.108 73.955C122.238 74.275 122.358 74.64 122.468 75.05C122.588 75.46 122.688 75.865 122.768 76.265C122.848 76.665 122.888 77.015 122.888 77.315C122.888 77.815 122.818 78.24 122.678 78.59C122.548 78.94 122.338 79.225 122.048 79.445C121.758 79.665 121.383 79.825 120.923 79.925C120.473 80.025 119.933 80.075 119.303 80.075ZM122.573 72.395C122.363 72.395 122.183 72.325 122.033 72.185C121.893 72.035 121.823 71.86 121.823 71.66C121.823 71.46 121.893 71.285 122.033 71.135C122.183 70.985 122.363 70.91 122.573 70.91C122.773 70.91 122.943 70.985 123.083 71.135C123.233 71.285 123.308 71.46 123.308 71.66C123.308 71.86 123.233 72.035 123.083 72.185C122.943 72.325 122.773 72.395 122.573 72.395ZM120.518 72.395C120.308 72.395 120.128 72.325 119.978 72.185C119.838 72.035 119.768 71.86 119.768 71.66C119.768 71.46 119.838 71.285 119.978 71.135C120.128 70.985 120.308 70.91 120.518 70.91C120.718 70.91 120.888 70.985 121.028 71.135C121.178 71.285 121.253 71.46 121.253 71.66C121.253 71.86 121.178 72.035 121.028 72.185C120.888 72.325 120.718 72.395 120.518 72.395Z" fill="#FFC727"/>
<path d="M100.11 85.895L99.1416 86.1444L99.3915 87.1148L100.361 86.8629L100.11 85.895ZM99.66 83.96L98.6777 84.1471L98.6791 84.1546L98.6806 84.1621L99.66 83.96ZM99.39 82.22L98.3963 82.3325L99.39 82.22ZM99.63 79.4L100.506 79.8819L100.511 79.8728L99.63 79.4ZM100.515 78.455L101.026 79.3145L101.035 79.3095L101.043 79.3043L100.515 78.455ZM101.745 77.99L101.574 77.0048L101.57 77.0054L101.745 77.99ZM103.155 77.915L103.093 78.9131L103.103 78.9137L103.114 78.9142L103.155 77.915ZM104.535 78.095L104.308 79.069L105.43 79.3298L105.531 78.1829L104.535 78.095ZM104.475 77.12L103.492 77.3043L103.496 77.3223L103.5 77.3403L104.475 77.12ZM104.16 76.28L103.287 76.7686L103.299 76.7896L103.312 76.81L104.16 76.28ZM103.62 75.695L103.083 76.5387L103.62 75.695ZM101.535 76.16L100.78 75.5038L100.778 75.5064L101.535 76.16ZM100.98 76.985L100.499 77.8618L101.378 78.3437L101.858 77.4639L100.98 76.985ZM100.05 76.475L99.149 76.0412L98.7375 76.8958L99.5692 77.3518L100.05 76.475ZM100.905 75.185L100.198 74.4779L100.192 74.4835L100.187 74.4892L100.905 75.185ZM101.91 74.495L102.281 75.4235L102.293 75.4189L102.304 75.4141L101.91 74.495ZM104.235 74.6L103.703 75.4466L103.712 75.4522L103.721 75.4575L104.235 74.6ZM105.06 75.44L104.192 75.9361L104.2 75.951L104.209 75.9655L105.06 75.44ZM105.51 76.55L104.534 76.7695L104.538 76.784L104.541 76.7984L105.51 76.55ZM105.57 78.425L106.542 78.6584L105.57 78.425ZM105.345 79.1L104.433 78.6896L104.424 78.7089L104.417 78.7286L105.345 79.1ZM105.105 79.565L104.821 80.5238L105.498 80.7245L105.914 80.1532L105.105 79.565ZM103.59 79.22L103.737 78.2309L103.59 79.22ZM102.315 79.16L102.369 80.1585L102.381 80.1579L102.394 80.1569L102.315 79.16ZM101.355 79.4L100.895 78.5122H100.895L101.355 79.4ZM100.74 80L99.8595 79.5259H99.8595L100.74 80ZM100.62 82.31L99.6268 82.4268H99.6268L100.62 82.31ZM100.875 83.915L101.857 83.7255L101.856 83.7223L100.875 83.915ZM101.265 85.595L101.516 86.5629L102.496 86.3084L102.23 85.3319L101.265 85.595ZM101.078 85.6456C100.912 85.0003 100.766 84.3711 100.639 83.7579L98.6806 84.1621C98.8141 84.8089 98.9678 85.4697 99.1416 86.1444L101.078 85.6456ZM100.642 83.7729C100.526 83.1629 100.44 82.6081 100.384 82.1075L98.3963 82.3325C98.4597 82.8919 98.5539 83.4971 98.6777 84.1471L100.642 83.7729ZM100.384 82.1075C100.326 81.5964 100.3 81.2026 100.3 80.915H98.3C98.3 81.3074 98.3342 81.7836 98.3963 82.3325L100.384 82.1075ZM100.3 80.915C100.3 80.419 100.39 80.0929 100.506 79.8819L98.7538 78.9181C98.4298 79.5071 98.3 80.191 98.3 80.915H100.3ZM100.511 79.8728C100.652 79.6095 100.825 79.4342 101.026 79.3145L100.004 77.5955C99.4651 77.9158 99.0476 78.3705 98.7488 78.9272L100.511 79.8728ZM101.043 79.3043C101.3 79.1447 101.589 79.0334 101.92 78.9746L101.57 77.0054C101.001 77.1066 100.47 77.3053 99.9871 77.6057L101.043 79.3043ZM101.916 78.9752C102.297 78.909 102.688 78.8878 103.093 78.9131L103.217 76.9169C102.662 76.8822 102.113 76.911 101.574 77.0048L101.916 78.9752ZM103.114 78.9142C103.548 78.9319 103.946 78.9847 104.308 79.069L104.762 77.121C104.264 77.0053 103.742 76.9381 103.196 76.9158L103.114 78.9142ZM105.531 78.1829C105.57 77.7474 105.545 77.318 105.45 76.8997L103.5 77.3403C103.545 77.542 103.56 77.7626 103.539 78.0071L105.531 78.1829ZM105.458 76.9357C105.378 76.5113 105.233 76.1105 105.008 75.75L103.312 76.81C103.387 76.9295 103.452 77.0887 103.492 77.3043L105.458 76.9357ZM105.033 75.7914C104.82 75.4117 104.53 75.0887 104.157 74.8513L103.083 76.5387C103.15 76.5813 103.22 76.6483 103.287 76.7686L105.033 75.7914ZM104.157 74.8513C103.765 74.6016 103.326 74.485 102.87 74.485V76.485C102.974 76.485 103.035 76.5083 103.083 76.5387L104.157 74.8513ZM102.87 74.485C102.467 74.485 102.079 74.575 101.718 74.7556L102.612 76.5444C102.691 76.505 102.773 76.485 102.87 76.485V74.485ZM101.718 74.7556C101.356 74.9363 101.046 75.1979 100.78 75.5038L102.29 76.8162C102.424 76.6621 102.534 76.5837 102.612 76.5444L101.718 74.7556ZM100.778 75.5064C100.531 75.7931 100.307 76.1309 100.102 76.5061L101.858 77.4639C102.013 77.1791 102.159 76.9669 102.292 76.8136L100.778 75.5064ZM101.461 76.1082L100.531 75.5982L99.5692 77.3518L100.499 77.8618L101.461 76.1082ZM100.951 76.9088C101.179 76.4343 101.409 76.1024 101.623 75.8808L100.187 74.4892C99.7815 74.9076 99.4405 75.4357 99.149 76.0412L100.951 76.9088ZM101.612 75.8921C101.855 75.649 102.08 75.5042 102.281 75.4235L101.539 73.5665C101.04 73.7658 100.595 74.0809 100.198 74.4779L101.612 75.8921ZM102.304 75.4141C102.544 75.3111 102.756 75.27 102.945 75.27V73.27C102.454 73.27 101.976 73.3789 101.516 73.5759L102.304 75.4141ZM102.945 75.27C103.311 75.27 103.546 75.3479 103.703 75.4466L104.767 73.7534C104.224 73.4121 103.599 73.27 102.945 73.27V75.27ZM103.721 75.4575C103.926 75.5805 104.078 75.7368 104.192 75.9361L105.928 74.9439C105.642 74.4432 105.244 74.0395 104.749 73.7425L103.721 75.4575ZM104.209 75.9655C104.359 76.2087 104.468 76.4749 104.534 76.7695L106.486 76.3305C106.372 75.8251 106.181 75.3513 105.911 74.9145L104.209 75.9655ZM104.541 76.7984C104.623 77.1167 104.66 77.408 104.66 77.675H106.66C106.66 77.222 106.597 76.7633 106.479 76.3016L104.541 76.7984ZM104.66 77.675C104.66 77.8442 104.64 78.0159 104.598 78.1916L106.542 78.6584C106.62 78.3341 106.66 78.0058 106.66 77.675H104.66ZM104.598 78.1916C104.55 78.391 104.494 78.5554 104.433 78.6896L106.257 79.5104C106.376 79.2446 106.47 78.959 106.542 78.6584L104.598 78.1916ZM104.417 78.7286C104.352 78.8908 104.308 78.961 104.296 78.9768L105.914 80.1532C106.062 79.949 106.178 79.7092 106.273 79.4714L104.417 78.7286ZM105.389 78.6062C104.812 78.4353 104.261 78.3089 103.737 78.2309L103.443 80.2091C103.859 80.2711 104.318 80.3747 104.821 80.5238L105.389 78.6062ZM103.737 78.2309C103.21 78.1524 102.707 78.1259 102.236 78.1631L102.394 80.1569C102.683 80.1341 103.03 80.1476 103.443 80.2091L103.737 78.2309ZM102.261 78.1615C101.78 78.1875 101.315 78.2942 100.895 78.5122L101.815 80.2878C101.935 80.2258 102.11 80.1725 102.369 80.1585L102.261 78.1615ZM100.895 78.5122C100.452 78.7418 100.098 79.0834 99.8595 79.5259L101.62 80.4741C101.662 80.3966 101.718 80.3382 101.815 80.2878L100.895 78.5122ZM99.8595 79.5259C99.6182 79.9741 99.53 80.4806 99.53 80.99H101.53C101.53 80.6994 101.582 80.5459 101.62 80.4741L99.8595 79.5259ZM99.53 80.99C99.53 81.4107 99.5639 81.8917 99.6268 82.4268L101.613 82.1932C101.556 81.7083 101.53 81.3093 101.53 80.99H99.53ZM99.6268 82.4268C99.6902 82.9649 99.7793 83.5253 99.8938 84.1077L101.856 83.7223C101.751 83.1847 101.67 82.6751 101.613 82.1932L99.6268 82.4268ZM99.8931 84.1045C100.008 84.6988 100.143 85.2834 100.3 85.8581L102.23 85.3319C102.087 84.8066 101.962 84.2712 101.857 83.7255L99.8931 84.1045ZM101.014 84.6271L99.8586 84.9271L100.361 86.8629L101.516 86.5629L101.014 84.6271ZM108.786 79.805L108.392 80.7242L108.399 80.7274L108.786 79.805ZM107.916 78.965L108.837 78.5769V78.5769L107.916 78.965ZM107.646 77.495L108.645 77.4617L108.645 77.4585L107.646 77.495ZM107.346 69.29V68.29H106.308L106.346 69.3265L107.346 69.29ZM108.576 69.29L109.575 69.2512L109.538 68.29H108.576V69.29ZM108.876 77.015L107.876 77.0538L107.876 77.0558L108.876 77.015ZM109.011 78.155L108.043 78.406L108.048 78.4277L108.055 78.4491L109.011 78.155ZM109.521 78.695L109.162 79.6284L109.173 79.6327L109.521 78.695ZM111.231 79.025L110.431 79.625L110.459 79.6628L110.491 79.6977L111.231 79.025ZM111.171 79.88L111.851 80.6128L111.865 80.6002L111.878 80.5871L111.171 79.88ZM110.631 79.075C109.882 79.075 109.422 78.9873 109.172 78.8826L108.399 80.7274C109.009 80.9827 109.779 81.075 110.631 81.075V79.075ZM109.18 78.8859C108.969 78.7958 108.885 78.6915 108.837 78.5769L106.994 79.3531C107.266 79.9985 107.762 80.4542 108.392 80.7241L109.18 78.8859ZM108.837 78.5769C108.741 78.3483 108.663 77.9904 108.645 77.4617L106.646 77.5283C106.669 78.1996 106.77 78.8217 106.994 79.3531L108.837 78.5769ZM108.645 77.4585L108.345 69.2535L106.346 69.3265L106.646 77.5315L108.645 77.4585ZM107.346 70.29H108.576V68.29H107.346V70.29ZM107.576 69.3288L107.876 77.0538L109.875 76.9762L109.575 69.2512L107.576 69.3288ZM107.876 77.0558C107.898 77.572 107.946 78.0343 108.043 78.406L109.979 77.904C109.935 77.7357 109.894 77.438 109.875 76.9742L107.876 77.0558ZM108.055 78.4491C108.228 79.0106 108.623 79.4212 109.162 79.6283L109.88 77.7617C109.872 77.7586 109.895 77.7667 109.925 77.7984C109.939 77.8129 109.949 77.8279 109.957 77.841C109.964 77.8538 109.967 77.8615 109.966 77.8609L108.055 78.4491ZM109.173 79.6327C109.617 79.7971 110.185 79.845 110.781 79.845V77.845C110.236 77.845 109.964 77.7929 109.868 77.7573L109.173 79.6327ZM110.781 79.845C110.795 79.845 110.752 79.8476 110.679 79.8185C110.598 79.7858 110.504 79.723 110.431 79.625L112.031 78.425C111.684 77.9624 111.171 77.845 110.781 77.845V79.845ZM110.491 79.6977C110.457 79.661 110.426 79.6126 110.405 79.5561C110.385 79.5007 110.381 79.4554 110.381 79.43H112.381C112.381 79.0419 112.251 78.6611 111.971 78.3523L110.491 79.6977ZM110.381 79.43C110.381 79.3588 110.397 79.2923 110.422 79.2396C110.445 79.1906 110.467 79.1696 110.464 79.1729L111.878 80.5871C112.158 80.3068 112.381 79.9152 112.381 79.43H110.381ZM110.49 79.1472C110.519 79.1206 110.555 79.0988 110.591 79.0857C110.625 79.0735 110.642 79.075 110.631 79.075V81.075C111.062 81.075 111.498 80.9405 111.851 80.6128L110.49 79.1472ZM110.631 80.075L109.638 79.9539L109.501 81.075H110.631V80.075ZM110.781 78.845V77.845H109.895L109.788 78.7239L110.781 78.845ZM111.441 78.665L110.864 77.848L110.852 77.8563L110.841 77.865L111.441 78.665ZM111.921 78.065L111.053 77.5689L111.046 77.5807L111.039 77.5928L111.921 78.065ZM112.521 76.94L113.411 77.3948L113.415 77.3872L112.521 76.94ZM113.241 75.77L112.462 75.1422L112.46 75.1453L113.241 75.77ZM113.961 75.05L114.555 75.8542L114.561 75.85L113.961 75.05ZM114.636 74.675L114.952 75.6237L114.636 74.675ZM116.106 74.795L115.606 75.6612L115.619 75.6685L115.632 75.6755L116.106 74.795ZM116.841 75.53L116.005 76.0792L116.013 76.0903L116.841 75.53ZM117.546 76.94L116.617 77.3114L116.62 77.3186L116.623 77.3258L117.546 76.94ZM118.161 78.185L117.32 78.7258L117.331 78.7434L117.343 78.7605L118.161 78.185ZM118.746 78.725L118.335 79.6369L118.362 79.649L118.39 79.6595L118.746 78.725ZM119.901 79.025L119.101 79.625L119.129 79.6628L119.161 79.6977L119.901 79.025ZM119.841 79.88L120.521 80.6128L120.535 80.6002L120.548 80.5871L119.841 79.88ZM118.221 79.88L117.844 80.8065L117.854 80.8104L118.221 79.88ZM117.411 79.265L116.579 78.7103L116.177 79.3131L116.625 79.8828L117.411 79.265ZM117.621 78.95L118.563 79.2844L116.789 78.3953L117.621 78.95ZM117.171 79.715L116.446 79.0262L116.445 79.0273L117.171 79.715ZM116.556 80.135L116.191 79.2038L116.174 79.2105L116.157 79.2179L116.556 80.135ZM114.801 80.075L114.42 80.9997L114.429 81.0035L114.801 80.075ZM113.811 79.475L113.18 80.2511L113.811 79.475ZM112.971 78.56L113.796 77.9945L112.889 76.6724L112.1 78.0679L112.971 78.56ZM112.221 79.58L112.895 80.3185L112.897 80.3172L112.221 79.58ZM111.501 79.985L111.267 79.0126L111.501 79.985ZM113.541 77.42L112.646 76.9728L112.399 77.4668L112.686 77.939L113.541 77.42ZM114.081 78.155L113.339 78.8259L113.348 78.8354L113.357 78.8447L114.081 78.155ZM114.681 78.68L114.107 79.4992L114.121 79.5091L114.136 79.5184L114.681 78.68ZM115.266 78.98L114.92 79.9183L114.949 79.929L114.979 79.9378L115.266 78.98ZM116.571 78.695L115.744 78.1327L115.736 78.1442L115.729 78.1559L116.571 78.695ZM116.556 77.645L115.625 78.0094L115.627 78.0164L116.556 77.645ZM116.271 76.97L115.345 77.3486L115.353 77.3664L115.36 77.3838L116.271 76.97ZM115.971 76.37L115.105 76.871L115.111 76.8813L115.118 76.8914L115.971 76.37ZM115.596 75.935L114.978 76.7213L114.996 76.7354L115.015 76.7487L115.596 75.935ZM114.651 75.92L114.144 75.0581L114.132 75.0649L114.121 75.072L114.651 75.92ZM114.126 76.43L113.342 75.8093L113.334 75.8195L113.326 75.83L114.126 76.43ZM111.624 80.1961L111.774 78.9661L109.788 78.7239L109.638 79.9539L111.624 80.1961ZM110.781 79.845C111.193 79.845 111.651 79.7577 112.041 79.465L110.841 77.865C110.875 77.8395 110.898 77.8338 110.893 77.8352C110.885 77.8372 110.851 77.845 110.781 77.845V79.845ZM112.018 79.482C112.364 79.2375 112.614 78.8886 112.802 78.5372L111.039 77.5928C110.987 77.6912 110.942 77.7577 110.907 77.8003C110.873 77.8431 110.857 77.853 110.864 77.848L112.018 79.482ZM112.789 78.5611C112.96 78.2617 113.168 77.8712 113.411 77.3948L111.63 76.4852C111.394 76.9488 111.202 77.3083 111.053 77.5689L112.789 78.5611ZM113.415 77.3872C113.635 76.9474 113.839 76.6229 114.022 76.3947L112.46 75.1453C112.163 75.5171 111.887 75.9726 111.626 76.4928L113.415 77.3872ZM114.019 76.3978C114.235 76.1303 114.415 75.958 114.555 75.8542L113.366 74.2458C113.047 74.482 112.747 74.7897 112.462 75.1422L114.019 76.3978ZM114.561 75.85C114.743 75.7132 114.873 75.65 114.952 75.6237L114.32 73.7263C113.979 73.84 113.658 74.0268 113.361 74.25L114.561 75.85ZM114.952 75.6237C115.083 75.5802 115.17 75.57 115.221 75.57V73.57C114.912 73.57 114.609 73.6298 114.32 73.7263L114.952 75.6237ZM115.221 75.57C115.393 75.57 115.513 75.6074 115.606 75.6612L116.606 73.9288C116.179 73.6826 115.708 73.57 115.221 73.57V75.57ZM115.632 75.6755C115.697 75.7107 115.83 75.8133 116.005 76.0792L117.677 74.9808C117.391 74.5467 117.034 74.1593 116.58 73.9145L115.632 75.6755ZM116.013 76.0903C116.187 76.3474 116.391 76.7446 116.617 77.3114L118.474 76.5686C118.221 75.9354 117.955 75.3926 117.669 74.9697L116.013 76.0903ZM116.623 77.3258C116.861 77.8946 117.093 78.3725 117.32 78.7258L119.002 77.6442C118.869 77.4375 118.691 77.0854 118.468 76.5542L116.623 77.3258ZM117.343 78.7605C117.588 79.1085 117.909 79.4452 118.335 79.6369L119.156 77.8131C119.173 77.8205 119.162 77.8194 119.128 77.7877C119.093 77.7557 119.042 77.7 118.979 77.6095L117.343 78.7605ZM118.39 79.6595C118.73 79.789 119.088 79.845 119.451 79.845V77.845C119.294 77.845 119.182 77.821 119.102 77.7905L118.39 79.6595ZM119.451 79.845C119.465 79.845 119.422 79.8476 119.349 79.8185C119.268 79.7858 119.174 79.723 119.101 79.625L120.701 78.425C120.354 77.9624 119.842 77.845 119.451 77.845V79.845ZM119.161 79.6977C119.128 79.661 119.097 79.6126 119.076 79.5561C119.055 79.5007 119.051 79.4554 119.051 79.43H121.051C121.051 79.0419 120.922 78.6611 120.641 78.3523L119.161 79.6977ZM119.051 79.43C119.051 79.3588 119.068 79.2923 119.092 79.2396C119.115 79.1906 119.137 79.1696 119.134 79.1729L120.548 80.5871C120.828 80.3068 121.051 79.9152 121.051 79.43H119.051ZM119.16 79.1472C119.189 79.1206 119.225 79.0988 119.261 79.0857C119.295 79.0735 119.312 79.075 119.301 79.075V81.075C119.732 81.075 120.168 80.9405 120.521 80.6128L119.16 79.1472ZM119.301 79.075C119.024 79.075 118.79 79.0292 118.587 78.9496L117.854 80.8104C118.312 80.9908 118.798 81.075 119.301 81.075V79.075ZM118.597 78.9535C118.444 78.8911 118.313 78.7948 118.197 78.6472L116.625 79.8828C116.949 80.2952 117.358 80.6089 117.844 80.8065L118.597 78.9535ZM118.243 79.8197L118.453 79.5047L116.789 78.3953L116.579 78.7103L118.243 79.8197ZM116.678 78.6156C116.606 78.8186 116.523 78.9454 116.446 79.0263L117.896 80.4037C118.199 80.0846 118.415 79.7014 118.563 79.2844L116.678 78.6156ZM116.445 79.0273C116.36 79.117 116.276 79.1705 116.191 79.2038L116.92 81.0662C117.295 80.9195 117.622 80.693 117.897 80.4027L116.445 79.0273ZM116.157 79.2179C116.058 79.2612 115.949 79.285 115.821 79.285V81.285C116.213 81.285 116.594 81.2088 116.955 81.0521L116.157 79.2179ZM115.821 79.285C115.635 79.285 115.421 79.2459 115.172 79.1465L114.429 81.0035C114.881 81.1841 115.347 81.285 115.821 81.285V79.285ZM115.182 79.1503C114.942 79.0516 114.695 78.9048 114.441 78.6989L113.18 80.2511C113.567 80.5652 113.98 80.8184 114.42 80.9997L115.182 79.1503ZM114.441 78.6989C114.198 78.5012 113.983 78.2677 113.796 77.9945L112.146 79.1255C112.439 79.5523 112.784 79.9288 113.18 80.2511L114.441 78.6989ZM112.1 78.0679C111.864 78.486 111.675 78.7241 111.545 78.8428L112.897 80.3172C113.247 79.9959 113.558 79.554 113.841 79.0521L112.1 78.0679ZM111.547 78.8415C111.415 78.9615 111.322 78.9996 111.267 79.0126L111.734 80.9574C112.18 80.8504 112.567 80.6185 112.895 80.3185L111.547 78.8415ZM111.267 79.0126C111.112 79.05 110.903 79.075 110.631 79.075V81.075C111.019 81.075 111.39 81.04 111.734 80.9574L111.267 79.0126ZM112.686 77.939C112.884 78.2649 113.101 78.5623 113.339 78.8259L114.822 77.4841C114.681 77.3277 114.538 77.1351 114.396 76.901L112.686 77.939ZM113.357 78.8447C113.594 79.0941 113.844 79.3148 114.107 79.4992L115.254 77.8608C115.118 77.7652 114.967 77.6359 114.805 77.4653L113.357 78.8447ZM114.136 79.5184C114.388 79.6821 114.649 79.8185 114.92 79.9183L115.612 78.0417C115.503 78.0015 115.374 77.9379 115.226 77.8416L114.136 79.5184ZM114.979 79.9378C115.245 80.0178 115.524 80.07 115.806 80.07V78.07C115.768 78.07 115.687 78.0622 115.553 78.0222L114.979 79.9378ZM115.806 80.07C116.426 80.07 117.034 79.8264 117.413 79.2341L115.729 78.1559C115.734 78.1481 115.745 78.1335 115.763 78.1171C115.781 78.1005 115.801 78.0874 115.819 78.0783C115.857 78.0599 115.863 78.07 115.806 78.07V80.07ZM117.398 79.2573C117.847 78.5972 117.711 77.8411 117.484 77.2736L115.627 78.0164C115.657 78.0897 115.674 78.1468 115.684 78.1891C115.694 78.2314 115.695 78.2538 115.695 78.2593C115.695 78.264 115.694 78.2501 115.701 78.2236C115.709 78.1958 115.723 78.1637 115.744 78.1327L117.398 79.2573ZM117.487 77.2806C117.391 77.0343 117.289 76.7928 117.181 76.5562L115.36 77.3838C115.453 77.5872 115.541 77.7957 115.625 78.0094L117.487 77.2806ZM117.196 76.5914C117.089 76.328 116.965 76.0794 116.824 75.8485L115.118 76.8914C115.196 77.0206 115.273 77.172 115.345 77.3486L117.196 76.5914ZM116.836 75.869C116.674 75.5885 116.46 75.3236 116.177 75.1213L115.015 76.7487C115.011 76.7464 115.048 76.7715 115.105 76.871L116.836 75.869ZM116.214 75.1487C115.906 74.9073 115.536 74.77 115.131 74.77V76.77C115.106 76.77 115.074 76.7656 115.04 76.7537C115.007 76.742 114.986 76.7279 114.978 76.7213L116.214 75.1487ZM115.131 74.77C114.755 74.77 114.42 74.8954 114.144 75.0581L115.158 76.7819C115.188 76.7641 115.201 76.7606 115.197 76.762C115.191 76.7636 115.168 76.77 115.131 76.77V74.77ZM114.121 75.072C113.822 75.2586 113.564 75.5282 113.342 75.8093L114.91 77.0507C115.067 76.8518 115.159 76.7814 115.181 76.768L114.121 75.072ZM113.326 75.83C113.096 76.1369 112.87 76.5255 112.646 76.9728L114.435 77.8672C114.632 77.4745 114.796 77.2031 114.926 77.03L113.326 75.83ZM119.303 80.075L118.31 79.9539L118.173 81.075H119.303V80.075ZM119.453 78.845V77.845H118.567L118.46 78.7239L119.453 78.845ZM120.833 78.785L120.953 79.7777L120.968 79.7759L120.983 79.7737L120.833 78.785ZM121.538 78.44L122.327 79.0539L122.335 79.0437L122.343 79.0332L121.538 78.44ZM121.628 76.67L120.653 76.8928L120.654 76.899L121.628 76.67ZM120.893 74.405L120.545 73.4673L119.588 73.822L119.963 74.7722L120.893 74.405ZM122.108 73.955L123.034 73.5786L122.669 72.6806L121.76 73.0173L122.108 73.955ZM122.468 75.05L121.502 75.3091L121.505 75.32L121.508 75.3309L122.468 75.05ZM122.768 76.265L123.748 76.0689L122.768 76.265ZM122.678 78.59L121.749 78.2186L121.745 78.2302L121.74 78.2418L122.678 78.59ZM122.048 79.445L122.652 80.2417L122.048 79.445ZM120.923 79.925L120.71 78.9478L120.706 78.9488L120.923 79.925ZM122.033 72.185L121.302 72.8673L121.325 72.8925L121.35 72.9161L122.033 72.185ZM122.033 71.135L121.326 70.4279L121.313 70.4401L121.302 70.4527L122.033 71.135ZM123.083 71.135L122.352 71.8173L122.363 71.8299L122.376 71.8421L123.083 71.135ZM123.083 72.185L122.376 71.4779V71.4779L123.083 72.185ZM119.978 72.185L119.247 72.8673L119.27 72.8925L119.295 72.9161L119.978 72.185ZM119.978 71.135L119.271 70.4279L119.258 70.4401L119.247 70.4527L119.978 71.135ZM121.028 71.135L120.297 71.8173L120.308 71.8299L120.321 71.8421L121.028 71.135ZM121.028 72.185L120.321 71.4779V71.4779L121.028 72.185ZM120.295 80.1961L120.445 78.9661L118.46 78.7239L118.31 79.9539L120.295 80.1961ZM119.453 79.845C120.057 79.845 120.564 79.8249 120.953 79.7777L120.712 77.7923C120.442 77.8251 120.028 77.845 119.453 77.845V79.845ZM120.983 79.7737C121.45 79.703 121.97 79.5131 122.327 79.0539L120.748 77.8261C120.765 77.8041 120.783 77.7879 120.797 77.7769C120.81 77.7661 120.818 77.7623 120.817 77.763C120.812 77.7654 120.774 77.7825 120.683 77.7963L120.983 79.7737ZM122.343 79.0332C122.671 78.5882 122.748 78.0347 122.748 77.555H120.748C120.748 77.7004 120.735 77.7931 120.722 77.8454C120.71 77.8977 120.704 77.8861 120.733 77.8468L122.343 79.0332ZM122.748 77.555C122.748 77.2042 122.692 76.8288 122.601 76.441L120.654 76.899C120.723 77.1912 120.748 77.4058 120.748 77.555H122.748ZM122.603 76.4472C122.514 76.0615 122.4 75.6602 122.261 75.2438L120.364 75.8762C120.485 76.2398 120.581 76.5785 120.653 76.8928L122.603 76.4472ZM122.261 75.2438C122.126 74.8367 121.98 74.4347 121.823 74.0378L119.963 74.7722C120.106 75.1353 120.24 75.5033 120.364 75.8762L122.261 75.2438ZM121.24 75.3427L122.455 74.8927L121.76 73.0173L120.545 73.4673L121.24 75.3427ZM121.181 74.3314C121.293 74.6057 121.4 74.9304 121.502 75.3091L123.434 74.7909C123.315 74.3496 123.183 73.9443 123.034 73.5786L121.181 74.3314ZM121.508 75.3309C121.62 75.7143 121.713 76.091 121.787 76.4611L123.748 76.0689C123.662 75.639 123.555 75.2057 123.427 74.7691L121.508 75.3309ZM121.787 76.4611C121.859 76.8179 121.888 77.0995 121.888 77.315H123.888C123.888 76.9305 123.837 76.5121 123.748 76.0689L121.787 76.4611ZM121.888 77.315C121.888 77.727 121.829 78.0184 121.749 78.2186L123.606 78.9614C123.806 78.4616 123.888 77.903 123.888 77.315H121.888ZM121.74 78.2418C121.675 78.4185 121.578 78.5462 121.443 78.6483L122.652 80.2417C123.098 79.9038 123.421 79.4615 123.615 78.9382L121.74 78.2418ZM121.443 78.6483C121.298 78.7585 121.068 78.87 120.71 78.9478L121.135 80.9022C121.697 80.78 122.217 80.5715 122.652 80.2417L121.443 78.6483ZM120.706 78.9488C120.348 79.0284 119.884 79.075 119.303 79.075V81.075C119.981 81.075 120.598 81.0216 121.14 80.9012L120.706 78.9488ZM122.573 71.395C122.581 71.395 122.607 71.3968 122.643 71.4105C122.678 71.4244 122.703 71.4427 122.715 71.4539L121.35 72.9161C121.69 73.2333 122.116 73.395 122.573 73.395V71.395ZM122.764 71.5027C122.771 71.5102 122.789 71.5326 122.804 71.5699C122.819 71.6076 122.823 71.6406 122.823 71.66H120.823C120.823 72.1205 120.994 72.5375 121.302 72.8673L122.764 71.5027ZM122.823 71.66C122.823 71.6794 122.819 71.7124 122.804 71.7501C122.789 71.7874 122.771 71.8098 122.764 71.8173L121.302 70.4527C120.994 70.7825 120.823 71.1995 120.823 71.66H122.823ZM122.74 71.8421C122.731 71.8513 122.706 71.8723 122.665 71.8893C122.624 71.9064 122.59 71.91 122.573 71.91V69.91C122.095 69.91 121.661 70.0925 121.326 70.4279L122.74 71.8421ZM122.573 71.91C122.544 71.91 122.498 71.904 122.447 71.8812C122.396 71.8586 122.364 71.8308 122.352 71.8173L123.814 70.4527C123.49 70.106 123.058 69.91 122.573 69.91V71.91ZM122.376 71.8421C122.371 71.8374 122.35 71.8147 122.332 71.7727C122.314 71.7295 122.308 71.6885 122.308 71.66H124.308C124.308 71.1774 124.115 70.7528 123.79 70.4279L122.376 71.8421ZM122.308 71.66C122.308 71.6315 122.314 71.5905 122.332 71.5473C122.35 71.5053 122.371 71.4826 122.376 71.4779L123.79 72.8921C124.115 72.5672 124.308 72.1426 124.308 71.66H122.308ZM122.376 71.4779C122.392 71.4618 122.423 71.4369 122.469 71.4178C122.516 71.3989 122.554 71.395 122.573 71.395V73.395C123.035 73.395 123.46 73.2218 123.79 72.8921L122.376 71.4779ZM120.518 71.395C120.526 71.395 120.552 71.3968 120.588 71.4105C120.623 71.4244 120.648 71.4427 120.66 71.4539L119.295 72.9161C119.635 73.2333 120.061 73.395 120.518 73.395V71.395ZM120.709 71.5027C120.716 71.5102 120.734 71.5326 120.749 71.5699C120.764 71.6076 120.768 71.6406 120.768 71.66H118.768C118.768 72.1205 118.939 72.5375 119.247 72.8673L120.709 71.5027ZM120.768 71.66C120.768 71.6794 120.764 71.7124 120.749 71.7501C120.734 71.7874 120.716 71.8098 120.709 71.8173L119.247 70.4527C118.939 70.7825 118.768 71.1995 118.768 71.66H120.768ZM120.685 71.8421C120.676 71.8513 120.651 71.8723 120.61 71.8893C120.569 71.9064 120.535 71.91 120.518 71.91V69.91C120.04 69.91 119.606 70.0925 119.271 70.4279L120.685 71.8421ZM120.518 71.91C120.489 71.91 120.443 71.904 120.392 71.8812C120.341 71.8586 120.309 71.8308 120.297 71.8173L121.759 70.4527C121.435 70.106 121.003 69.91 120.518 69.91V71.91ZM120.321 71.8421C120.316 71.8374 120.295 71.8147 120.277 71.7727C120.259 71.7295 120.253 71.6885 120.253 71.66H122.253C122.253 71.1774 122.06 70.7528 121.735 70.4279L120.321 71.8421ZM120.253 71.66C120.253 71.6315 120.259 71.5905 120.277 71.5473C120.295 71.5053 120.316 71.4826 120.321 71.4779L121.735 72.8921C122.06 72.5672 122.253 72.1426 122.253 71.66H120.253ZM120.321 71.4779C120.337 71.4618 120.368 71.4369 120.414 71.4178C120.461 71.3989 120.499 71.395 120.518 71.395V73.395C120.98 73.395 121.405 73.2218 121.735 72.8921L120.321 71.4779Z" fill="#A6A6A6" mask="url(#path-164-outside-1_10_7)"/>
</svg>
