<svg width="74" height="96" viewBox="0 0 74 96" fill="none" xmlns="http://www.w3.org/2000/svg">
<path d="M5.42847 5.70984V83.9855C5.42847 86.9751 6.61609 89.8422 8.73004 91.9562C10.844 94.0701 13.7111 95.2577 16.7007 95.2577C19.6903 95.2577 22.5574 94.0701 24.6714 91.9562C26.7853 89.8422 27.9729 86.9751 27.9729 83.9855V5.70984H5.42847Z" fill="white"/>
<path d="M16.7007 95.9145C13.5345 95.911 10.4989 94.6516 8.26008 92.4127C6.02121 90.1739 4.76185 87.1383 4.7583 83.9721V5.70984C4.7583 5.5321 4.82892 5.36165 4.9546 5.23597C5.08028 5.11029 5.25073 5.03967 5.42847 5.03967H27.9729C28.1507 5.03967 28.3211 5.11029 28.4468 5.23597C28.5725 5.36165 28.6431 5.5321 28.6431 5.70984V83.9855C28.636 87.1494 27.3751 90.1815 25.1366 92.4175C22.8981 94.6534 19.8646 95.911 16.7007 95.9145ZM6.09864 6.36661V83.9721C6.09864 86.7839 7.21564 89.4806 9.20391 91.4689C11.1922 93.4572 13.8889 94.5742 16.7007 94.5742C19.5125 94.5742 22.2092 93.4572 24.1975 91.4689C26.1858 89.4806 27.3028 86.7839 27.3028 83.9721V6.36661H6.09864Z" fill="#263238"/>
<path d="M16.7007 91.2232C14.7775 91.2232 12.9332 90.4593 11.5733 89.0994C10.2134 87.7395 9.44946 85.8952 9.44946 83.972V29.4337H23.9519V83.972C23.9484 85.8941 23.1833 87.7364 21.8242 89.0955C20.4651 90.4546 18.6227 91.2197 16.7007 91.2232Z" fill="#006466"/>
<path d="M16.7007 91.8934C14.6009 91.8899 12.5881 91.0542 11.1033 89.5694C9.61855 88.0846 8.78284 86.0718 8.7793 83.972V29.4471C8.7793 29.2694 8.84991 29.0989 8.97559 28.9733C9.10128 28.8476 9.27173 28.777 9.44947 28.777H23.9519C24.1297 28.777 24.3001 28.8476 24.4258 28.9733C24.5515 29.0989 24.6221 29.2694 24.6221 29.4471V83.972C24.6185 86.0718 23.7828 88.0846 22.2981 89.5694C20.8133 91.0542 18.8005 91.8899 16.7007 91.8934ZM10.1196 30.1173V83.972C10.1196 85.7174 10.813 87.3913 12.0472 88.6255C13.2814 89.8597 14.9553 90.5531 16.7007 90.5531C18.4461 90.5531 20.12 89.8597 21.3542 88.6255C22.5884 87.3913 23.2817 85.7174 23.2817 83.972V30.1173H10.1196Z" fill="#263238"/>
<path d="M32.7176 0.670166H0.670166V5.69643H32.7176V0.670166Z" fill="white"/>
<path d="M32.7176 6.3666H0.670168C0.492429 6.3666 0.321978 6.29598 0.196297 6.1703C0.0706165 6.04462 0 5.87417 0 5.69643V0.670168C0 0.492429 0.0706165 0.321958 0.196297 0.196277C0.321978 0.0705961 0.492429 0 0.670168 0H32.7176C32.8954 0 33.0658 0.0705961 33.1915 0.196277C33.3172 0.321958 33.3878 0.492429 33.3878 0.670168V5.70983C33.3843 5.88523 33.3121 6.05227 33.1868 6.17507C33.0615 6.29786 32.8931 6.36663 32.7176 6.3666ZM1.34034 5.02626H32.0475V1.34034H1.34034V5.02626Z" fill="#263238"/>
<path d="M46.0005 5.70984V83.9855C46.0005 86.9751 47.1881 89.8422 49.302 91.9562C51.416 94.0701 54.2831 95.2577 57.2727 95.2577C60.2623 95.2577 63.1294 94.0701 65.2434 91.9562C67.3573 89.8422 68.545 86.9751 68.545 83.9855V5.70984H46.0005Z" fill="white"/>
<path d="M57.2996 95.9145C54.1333 95.911 51.0978 94.6516 48.8589 92.4127C46.6201 90.1739 45.3607 87.1383 45.3572 83.9721V5.70984C45.3572 5.5321 45.4278 5.36165 45.5535 5.23597C45.6791 5.11029 45.8496 5.03967 46.0273 5.03967H68.5718C68.7495 5.03967 68.92 5.11029 69.0457 5.23597C69.1714 5.36165 69.242 5.5321 69.242 5.70984V83.9855C69.2349 87.1494 67.974 90.1815 65.7355 92.4175C63.497 94.6534 60.4635 95.911 57.2996 95.9145ZM46.6975 6.36661V83.9721C46.6975 86.7839 47.8145 89.4806 49.8028 91.4689C51.7911 93.4572 54.4877 94.5742 57.2996 94.5742C60.1114 94.5742 62.8081 93.4572 64.7964 91.4689C66.7846 89.4806 67.9016 86.7839 67.9016 83.9721V6.36661H46.6975Z" fill="#263238"/>
<path d="M57.2995 91.2233C55.3775 91.2197 53.5352 90.4546 52.1761 89.0955C50.817 87.7364 50.0519 85.8941 50.0483 83.9721V57.2859H64.5642V83.9721C64.5606 85.8964 63.7937 87.7408 62.4317 89.1003C61.0697 90.4597 59.2239 91.2233 57.2995 91.2233Z" fill="#006466"/>
<path d="M57.2995 91.8935C55.1998 91.8899 53.187 91.0542 51.7022 89.5694C50.2174 88.0846 49.3817 86.0719 49.3782 83.9721V57.286C49.3782 57.1082 49.4488 56.9378 49.5745 56.8121C49.7001 56.6864 49.8706 56.6158 50.0483 56.6158H64.5508C64.7285 56.6158 64.899 56.6864 65.0247 56.8121C65.1503 56.9378 65.2209 57.1082 65.2209 57.286V83.9721C65.2174 86.0719 64.3817 88.0846 62.8969 89.5694C61.4121 91.0542 59.3993 91.8899 57.2995 91.8935ZM50.7185 57.9829V83.9989C50.7185 85.7443 51.4119 87.4182 52.646 88.6524C53.8802 89.8866 55.5541 90.5799 57.2995 90.5799C59.045 90.5799 60.7189 89.8866 61.9531 88.6524C63.1873 87.4182 63.8806 85.7443 63.8806 83.9989V57.9829H50.7185Z" fill="#263238"/>
<path d="M73.3299 0.670166H41.2825V5.69643H73.3299V0.670166Z" fill="white"/>
<path d="M73.3299 6.3666H41.2825C41.1047 6.3666 40.9343 6.29598 40.8086 6.1703C40.6829 6.04462 40.6123 5.87417 40.6123 5.69643V0.670168C40.6123 0.492429 40.6829 0.321958 40.8086 0.196277C40.9343 0.0705961 41.1047 0 41.2825 0H73.3299C73.5077 0 73.6781 0.0705961 73.8038 0.196277C73.9295 0.321958 74.0001 0.492429 74.0001 0.670168V5.70983C73.9966 5.88523 73.9244 6.05227 73.7991 6.17507C73.6738 6.29786 73.5054 6.36663 73.3299 6.3666ZM41.9526 5.02626H72.6598V1.34034H41.9795L41.9526 5.02626Z" fill="#263238"/>
</svg>
