<svg width="140" height="180" viewBox="0 0 140 180" fill="none" xmlns="http://www.w3.org/2000/svg">
<path d="M92.4814 128.847C92.4958 128.724 92.5511 128.607 92.6417 128.507C92.7323 128.407 92.8549 128.328 92.9972 128.277C93.3875 128.123 93.8179 128.044 94.2542 128.044C94.6906 128.044 95.1209 128.123 95.5113 128.277C95.6546 128.327 95.7784 128.406 95.8703 128.506C95.9623 128.607 96.0191 128.724 96.0351 128.847L82.6828 172.431C82.6729 172.516 82.6339 172.597 82.5701 172.666C82.5063 172.735 82.42 172.789 82.3202 172.823C82.0451 172.935 81.7397 172.994 81.4298 172.994C81.1199 172.994 80.8145 172.935 80.5394 172.823C80.4396 172.789 80.3533 172.735 80.2895 172.666C80.2257 172.597 80.1867 172.516 80.1768 172.431L92.4814 128.847Z" fill="#455A64"/>
<path d="M123.255 128.847C123.241 128.724 123.186 128.607 123.095 128.507C123.004 128.407 122.882 128.328 122.74 128.277C122.349 128.123 121.919 128.044 121.482 128.044C121.046 128.044 120.616 128.123 120.225 128.277C120.081 128.326 119.956 128.405 119.864 128.505C119.772 128.606 119.716 128.723 119.702 128.847L133.054 172.431C133.064 172.516 133.103 172.597 133.167 172.666C133.23 172.735 133.317 172.789 133.417 172.823C133.692 172.935 133.997 172.994 134.307 172.994C134.617 172.994 134.922 172.935 135.197 172.823C135.295 172.787 135.38 172.732 135.443 172.664C135.507 172.595 135.547 172.515 135.56 172.431L123.255 128.847Z" fill="#455A64"/>
<path d="M109.863 130.291C109.848 130.167 109.792 130.048 109.7 129.947C109.608 129.846 109.483 129.765 109.339 129.714C108.949 129.561 108.518 129.481 108.082 129.481C107.646 129.481 107.215 129.561 106.825 129.714C106.683 129.765 106.56 129.845 106.469 129.945C106.379 130.045 106.323 130.162 106.309 130.284L106.825 179.441C106.836 179.526 106.875 179.607 106.939 179.676C107.002 179.745 107.088 179.8 107.187 179.834C107.464 179.943 107.769 180 108.078 180C108.387 180 108.692 179.943 108.968 179.834C109.066 179.798 109.15 179.743 109.213 179.674C109.277 179.605 109.317 179.525 109.331 179.441L109.863 130.291Z" fill="#455A64"/>
<path d="M139.943 136.187C139.943 132.488 136.857 128.79 130.636 125.965C118.195 120.316 98.0173 120.316 85.5756 125.965C79.3548 128.79 76.2686 132.488 76.2766 136.187V138.175C76.3491 141.823 79.4999 145.465 85.6079 148.251C98.0576 153.9 118.227 153.9 130.669 148.251C136.817 145.465 139.927 141.823 140 138.175L139.943 136.187Z" fill="#006466"/>
<path d="M85.5515 125.965C73.1098 131.608 73.1098 140.765 85.5515 146.408C97.9931 152.051 118.171 152.057 130.612 146.408C143.054 140.759 143.062 131.608 130.612 125.965C118.163 120.322 97.9931 120.316 85.5515 125.965Z" fill="#006466"/>
<path opacity="0.45" d="M85.5515 125.965C73.1098 131.608 73.1098 140.765 85.5515 146.408C97.9931 152.051 118.171 152.057 130.612 146.408C143.054 140.759 143.062 131.608 130.612 125.965C118.163 120.322 97.9931 120.316 85.5515 125.965Z" fill="white"/>
<g opacity="0.05">
<path d="M115.06 137.143C119.033 138.942 119.033 141.861 115.06 143.666C111.087 145.471 104.657 145.465 100.693 143.666C96.7279 141.867 96.7199 138.942 100.693 137.143C104.665 135.344 111.095 135.338 115.06 137.143Z" fill="black"/>
</g>
<path d="M101.587 140.803C98.1301 138.03 96.0994 131.108 99.4758 128.91H116.591C119.967 131.108 117.937 138.03 114.48 140.803L114.391 140.879L114.27 140.968C114.174 141.044 114.069 141.114 113.956 141.19L113.876 141.24L113.61 141.392C113.467 141.474 113.319 141.55 113.166 141.62C111.57 142.254 109.806 142.585 108.017 142.585C106.229 142.585 104.465 142.254 102.868 141.62C102.715 141.551 102.57 141.475 102.417 141.392L102.175 141.247L102.07 141.183L101.772 140.974L101.635 140.867C101.618 140.846 101.601 140.825 101.587 140.803Z" fill="#EBEBEB"/>
<path d="M115.108 128.023C119.016 129.803 119.016 132.684 115.108 134.458C111.2 136.231 104.842 136.231 100.934 134.458C97.026 132.684 97.0179 129.803 100.934 128.023C104.85 126.244 111.192 126.25 115.108 128.023Z" fill="#FAFAFA"/>
<path d="M112.328 129.284C114.746 130.367 114.746 132.121 112.328 133.197C110.993 133.731 109.516 134.01 108.017 134.01C106.519 134.01 105.042 133.731 103.706 133.197C101.289 132.121 101.289 130.367 103.706 129.284C105.043 128.753 106.52 128.476 108.017 128.476C109.515 128.476 110.992 128.753 112.328 129.284Z" fill="#EBEBEB"/>
<path d="M103.706 131.146C105.042 130.613 106.519 130.336 108.017 130.336C109.515 130.336 110.992 130.613 112.328 131.146C112.904 131.393 113.393 131.748 113.755 132.178C113.396 132.608 112.906 132.961 112.328 133.204C110.993 133.738 109.516 134.016 108.017 134.016C106.519 134.016 105.042 133.738 103.706 133.204C103.129 132.961 102.639 132.608 102.28 132.178C102.638 131.745 103.128 131.39 103.706 131.146Z" fill="#E0E0E0"/>
<path d="M111.805 132.171C113.022 131.197 114.071 130.1 114.923 128.91C116.366 126.909 116.631 124.23 115.882 123.894C115.133 123.559 112.111 126.244 112.111 126.244C112.387 125.118 112.492 123.97 112.425 122.824C112.304 121.038 111.748 119.423 111.096 119.094C110.443 118.764 108.992 120.994 108.372 122.647C107.751 124.3 107.373 125.617 107.373 125.617C107.126 124.346 106.755 123.093 106.261 121.868C105.503 120.17 104.818 119.79 104.287 119.968C103.755 120.145 103.4 120.924 103.247 123.179C103.188 124.256 103.231 125.336 103.376 126.408C103.376 126.408 102.304 125.484 101.12 124.585C99.8143 123.603 99.2583 123.47 98.8876 123.654C98.5169 123.837 98.4122 125.376 100.427 128.245C101.431 129.705 102.717 131.034 104.238 132.184C104.238 132.184 107.034 133.584 111.805 132.171Z" fill="#006466"/>
<path opacity="0.3" d="M111.805 132.171C113.022 131.197 114.071 130.1 114.923 128.91C116.366 126.909 116.631 124.23 115.882 123.894C115.133 123.559 112.111 126.244 112.111 126.244C112.387 125.118 112.492 123.97 112.425 122.824C112.304 121.038 111.748 119.423 111.096 119.094C110.443 118.764 108.992 120.994 108.372 122.647C107.751 124.3 107.373 125.617 107.373 125.617C107.126 124.346 106.755 123.093 106.261 121.868C105.503 120.17 104.818 119.79 104.287 119.968C103.755 120.145 103.4 120.924 103.247 123.179C103.188 124.256 103.231 125.336 103.376 126.408C103.376 126.408 102.304 125.484 101.12 124.585C99.8143 123.603 99.2583 123.47 98.8876 123.654C98.5169 123.837 98.4122 125.376 100.427 128.245C101.431 129.705 102.717 131.034 104.238 132.184C104.238 132.184 107.034 133.584 111.805 132.171Z" fill="black"/>
<path d="M1.42898 124.787C1.27642 124.787 1.12491 124.768 0.980148 124.73C0.801712 124.685 0.636559 124.613 0.494255 124.518C0.351952 124.423 0.235313 124.307 0.151085 124.177C0.0668488 124.047 0.0167007 123.905 0.00352478 123.76C-0.00964355 123.615 0.0144196 123.469 0.0743408 123.331L11.1073 97.4224C12.3223 95.1363 14.4133 93.1952 17.097 91.862L62.9016 71.3366C63.5297 71.0288 64.2447 70.8438 64.9852 70.7975C65.7257 70.7512 66.4696 70.8449 67.1532 71.0706C67.802 71.3219 68.3632 71.6908 68.7894 72.146C69.2155 72.6013 69.494 73.1296 69.6013 73.6861L75.232 86.2699C75.3059 86.4092 75.3425 86.5588 75.3394 86.7095C75.3363 86.8602 75.2937 87.0088 75.2141 87.1463C75.1345 87.2837 75.0196 87.4072 74.8764 87.509C74.7333 87.6108 74.5649 87.6889 74.3815 87.7385C74.1981 87.7881 74.0036 87.8081 73.8099 87.7974C73.6162 87.7867 73.4274 87.7454 73.2549 87.6761C73.0825 87.6068 72.9301 87.511 72.807 87.3944C72.6839 87.2778 72.5927 87.143 72.5391 86.9982L66.8675 74.3321C66.8447 74.2738 66.8256 74.2146 66.8104 74.1548C66.8233 73.9305 66.7505 73.7083 66.6013 73.516C66.452 73.3237 66.2329 73.1698 65.9714 73.0738C65.71 72.9778 65.4178 72.9438 65.1315 72.9761C64.8452 73.0084 64.5777 73.1056 64.3623 73.2555L18.4925 93.7809C16.4019 94.8451 14.7636 96.3655 13.7839 98.1507L2.75913 124.027C2.66412 124.244 2.48568 124.434 2.24785 124.57C2.01002 124.705 1.72421 124.781 1.42898 124.787Z" fill="#263238"/>
<path d="M69.1361 155.731H68.9729C68.5977 155.696 68.2556 155.547 68.0216 155.317C67.7875 155.086 67.6807 154.793 67.7244 154.502L72.3024 124.838C72.5389 123.626 73.1051 122.468 73.9634 121.439C74.8217 120.411 75.9524 119.536 77.2803 118.872L123.093 98.328C123.744 98.0217 124.474 97.8289 125.231 97.7631C125.988 97.6972 126.754 97.7598 127.476 97.9465C128.199 98.1333 128.861 98.4397 129.416 98.8445C129.971 99.2494 130.406 99.743 130.69 100.291C130.692 100.312 130.692 100.333 130.69 100.355L139.797 125.965C139.923 126.243 139.903 126.547 139.741 126.813C139.579 127.079 139.288 127.284 138.932 127.384C138.583 127.487 138.195 127.478 137.854 127.359C137.513 127.241 137.246 127.022 137.113 126.751L128.055 101.146C127.918 100.894 127.713 100.667 127.453 100.482C127.194 100.297 126.886 100.157 126.55 100.073C126.215 99.9891 125.86 99.9621 125.509 99.9943C125.159 100.026 124.822 100.117 124.521 100.26L78.7083 120.785C77.7709 121.275 76.9714 121.908 76.3584 122.645C75.7454 123.382 75.3317 124.208 75.1422 125.072L70.5561 154.749C70.516 155.019 70.3491 155.269 70.0872 155.45C69.8254 155.631 69.4868 155.731 69.1361 155.731Z" fill="#263238"/>
<path d="M74.2611 122.672L127.745 98.7332C128.412 98.5203 128.983 98.1583 129.384 97.6932C129.786 97.228 130 96.6808 130 96.1208C130 95.5609 129.786 95.0137 129.384 94.5485C128.983 94.0834 128.412 93.7214 127.745 93.5085L75.2158 69.9622C73.828 69.4068 72.2891 69.117 70.7276 69.117C69.1661 69.117 67.6272 69.4068 66.2394 69.9622L12.7558 93.9264C12.0916 94.1416 11.5243 94.5045 11.1253 94.9693C10.7263 95.4342 10.5133 95.9803 10.5133 96.5388C10.5133 97.0974 10.7263 97.6435 11.1253 98.1083C11.5243 98.5732 12.0916 98.936 12.7558 99.1512L65.2683 122.672C66.6561 123.228 68.195 123.517 69.7565 123.517C71.318 123.517 72.8569 123.228 74.2448 122.672H74.2611ZM73.8938 71.7228L126.414 95.2754C126.986 95.535 127.337 95.8517 127.337 96.105C127.337 96.3583 126.986 96.675 126.414 96.9283L72.9309 120.899C71.9451 121.277 70.8602 121.474 69.7606 121.474C68.6609 121.474 67.5761 121.277 66.5903 120.899L14.0697 97.3463C13.4984 97.0866 13.1475 96.77 13.1475 96.5167C13.1475 96.2633 13.4984 95.9467 14.0697 95.6934L67.5532 71.7292C68.5387 71.3502 69.6237 71.153 70.7235 71.153C71.8234 71.153 72.9084 71.3502 73.8938 71.7292V71.7228Z" fill="#455A64"/>
<path d="M27.5587 89.487C27.2554 89.4879 26.961 89.4078 26.7247 89.2603C26.4885 89.1127 26.3248 88.9065 26.2612 88.6764L20.8671 69.5063C20.8288 69.3744 20.8246 69.2379 20.8549 69.1048C20.8852 68.9716 20.9492 68.8445 21.0434 68.7308C21.1376 68.617 21.2599 68.519 21.4034 68.4423C21.5469 68.3656 21.7085 68.3118 21.879 68.284C22.2231 68.2256 22.583 68.2754 22.8798 68.4226C23.1766 68.5698 23.386 68.8024 23.4621 69.0693L28.8562 88.2331C28.9315 88.5001 28.8673 88.7794 28.6776 89.0098C28.4879 89.2401 28.1882 89.4026 27.8443 89.4617C27.7501 89.476 27.6546 89.4845 27.5587 89.487Z" fill="#37474F"/>
<path d="M52.7664 78.2015C52.4645 78.201 52.172 78.1202 51.9374 77.9728C51.7029 77.8253 51.5404 77.62 51.4771 77.3909L46.0422 58.2018C45.9851 57.9405 46.0597 57.6721 46.2506 57.4523C46.4416 57.2325 46.7341 57.0781 47.0677 57.0211C47.4013 56.9641 47.7503 57.0089 48.0425 57.1462C48.3347 57.2834 48.5476 57.5027 48.6372 57.7585L54.0394 76.9223C54.0766 77.0549 54.0797 77.192 54.0485 77.3256C54.0174 77.4592 53.9526 77.5867 53.8578 77.7008C53.7631 77.8149 53.6402 77.9134 53.4964 77.9906C53.3525 78.0679 53.1904 78.1223 53.0194 78.1509C52.938 78.1755 52.853 78.1926 52.7664 78.2015Z" fill="#37474F"/>
<path d="M69.1362 52.7934C69.1127 52.6061 69.0245 52.4273 68.8808 52.2757C68.7372 52.1241 68.5435 52.0054 68.3202 51.9321L61.3675 48.8163C60.7732 48.5821 60.1162 48.46 59.4498 48.46C58.7833 48.46 58.1263 48.5821 57.5321 48.8163L7.41063 71.2732C7.18741 71.3448 6.99352 71.4622 6.84975 71.6128C6.70599 71.7634 6.61777 71.9416 6.59459 72.1282V73.7431C6.61777 73.9297 6.70599 74.1078 6.84975 74.2585C6.99352 74.4091 7.18741 74.5265 7.41063 74.5981L14.4123 77.7203C15.0076 77.9515 15.6642 78.0719 16.33 78.0719C16.9958 78.0719 17.6524 77.9515 18.2477 77.7203L68.361 55.2633C68.5833 55.1889 68.7761 55.0699 68.9195 54.9186C69.063 54.7672 69.1518 54.5889 69.177 54.402L69.1362 52.7934Z" fill="#37474F"/>
<path d="M68.3365 51.9321L61.3838 48.8163C60.7896 48.5821 60.1326 48.46 59.4662 48.46C58.7997 48.46 58.1427 48.5821 57.5484 48.8163L16.3056 67.2961V78.0622C16.9731 78.0712 17.6327 77.9492 18.2233 77.7076L68.3365 55.2506C68.5589 55.1763 68.7517 55.0573 68.8951 54.9059C69.0385 54.7545 69.1274 54.5762 69.1526 54.3893V52.7808C69.1263 52.5957 69.0368 52.4195 68.8933 52.2703C68.7499 52.1211 68.5576 52.0043 68.3365 51.9321Z" fill="#263238"/>
<path d="M57.5482 48.8163L7.42679 71.2732C7.20357 71.3448 7.00966 71.4622 6.8659 71.6128C6.72213 71.7635 6.63393 71.9416 6.61075 72.1282C6.63509 72.3153 6.72364 72.4939 6.86717 72.6454C7.0107 72.7968 7.20395 72.9157 7.42679 72.9895L14.4121 76.1054C15.0063 76.3395 15.6634 76.4616 16.3298 76.4616C16.9963 76.4616 17.6533 76.3395 18.2475 76.1054L68.3608 53.6484C68.5922 53.5878 68.7933 53.4724 68.9357 53.3185C69.0782 53.1645 69.1548 52.9798 69.1548 52.7903C69.1548 52.6007 69.0782 52.416 68.9357 52.262C68.7933 52.1081 68.5922 51.9927 68.3608 51.9321L61.4081 48.8163C60.8107 48.579 60.1493 48.4552 59.4782 48.4552C58.8071 48.4552 58.1456 48.579 57.5482 48.8163Z" fill="#455A64"/>
<path d="M124.333 87.7138L69.6584 63.2113C69.4401 63.1327 69.1988 63.1007 68.9593 63.1185C68.7198 63.1363 68.4907 63.2033 68.2956 63.3126L16.2646 86.6372C15.7151 86.9269 15.2611 87.3129 14.9393 87.764C14.6175 88.215 14.4369 88.7185 14.4122 89.2337V95.4591C14.3864 95.644 14.4251 95.8308 14.5241 96.0002C14.6232 96.1695 14.779 96.3151 14.9753 96.4217L69.6502 120.924C69.8673 121.002 70.1072 121.034 70.3452 121.016C70.5833 120.998 70.811 120.932 71.0049 120.823L122.946 97.4667C123.502 97.1909 123.966 96.8183 124.304 96.3785C124.641 95.9387 124.841 95.4439 124.888 94.9335V88.7081C124.921 88.5189 124.886 88.3264 124.789 88.1512C124.691 87.976 124.533 87.8248 124.333 87.7138Z" fill="#006466"/>
<path opacity="0.15" d="M69.5766 120.899L14.9506 96.3963C14.7547 96.2891 14.5987 96.1436 14.4984 95.9746C14.3981 95.8056 14.3571 95.619 14.3794 95.4337V89.2337C14.4108 88.6741 14.6363 88.1314 15.0322 87.6631L69.6582 112.172C69.2727 112.641 69.0531 113.18 69.0217 113.736V119.962C69.0018 120.142 69.0425 120.323 69.1397 120.487C69.237 120.651 69.3875 120.793 69.5766 120.899Z" fill="black"/>
<path opacity="0.25" d="M69.0219 119.943V113.717C69.0577 113.201 69.2501 112.698 69.5833 112.25C69.9165 111.803 70.3812 111.422 70.9396 111.14L122.946 87.8215C123.129 87.6959 123.358 87.618 123.601 87.5988C123.844 87.5796 124.089 87.6201 124.301 87.7145C124.512 87.809 124.681 87.9526 124.782 88.1251C124.883 88.2977 124.911 88.4905 124.864 88.6764V94.9335C124.819 95.4422 124.623 95.936 124.29 96.3756C123.957 96.8153 123.497 97.1888 122.946 97.4667L70.9152 120.791C70.7303 120.914 70.5011 120.989 70.2591 121.006C70.0171 121.023 69.7743 120.981 69.564 120.887C69.3537 120.792 69.1863 120.65 69.0848 120.478C68.9834 120.307 68.9528 120.115 68.9974 119.93L69.0219 119.943Z" fill="black"/>
<path d="M127.769 53.8384L80.3242 32.5657C80.1278 32.5057 79.9147 32.4864 79.7058 32.5097C79.4969 32.5331 79.2994 32.5982 79.1327 32.6987L72.1719 35.8145C71.0137 36.3967 70.1917 37.3048 69.8788 38.3477L63.4402 67.1947C63.3341 67.6824 63.4402 68.018 63.7748 68.1637L111.22 89.4554C111.417 89.5172 111.632 89.5374 111.842 89.5141C112.053 89.4907 112.252 89.4246 112.419 89.3224L119.38 86.2065C120.533 85.6205 121.354 84.7141 121.673 83.6733L128.112 54.8263C128.218 54.3133 128.079 53.9777 127.769 53.8384Z" fill="#006466"/>
<path opacity="0.15" d="M110.877 88.4927C110.771 88.9867 110.877 89.316 111.22 89.4617L63.7749 68.1763C63.4648 68.037 63.3342 67.7013 63.4403 67.2137L69.9034 38.3667C70.0491 37.8328 70.3414 37.3295 70.7602 36.8911L118.172 58.1638C117.754 58.6022 117.461 59.1055 117.316 59.6394L110.877 88.4927Z" fill="black"/>
<path opacity="0.25" d="M112.419 89.3224L119.38 86.2065C120.533 85.6205 121.354 84.7141 121.673 83.6733L128.112 54.8263C128.218 54.3323 128.112 53.9967 127.769 53.8574C127.571 53.7993 127.357 53.781 127.147 53.8042C126.937 53.8275 126.739 53.8915 126.569 53.9904L119.617 57.1125C118.459 57.6964 117.635 58.6034 117.315 59.6458L110.885 88.4927C110.771 88.9804 110.885 89.316 111.22 89.4554C111.417 89.5172 111.632 89.5374 111.842 89.5141C112.053 89.4907 112.252 89.4246 112.419 89.3224Z" fill="black"/>
<path d="M51.2566 116.257C54.7982 115.953 57.7849 118.201 58.0297 118.91C58.3888 119.867 58.2011 121.786 56.6914 124.129C55.3617 126.464 54.7498 129.007 54.9043 131.557C55.1001 133.73 56.2671 139.157 53.3701 141.83C50.4732 144.502 44.1407 146.75 42.0271 142.989C41.3335 141.76 42.9248 137.567 43.6592 134.496C45.1444 128.385 46.3358 122.311 46.3358 122.311L51.2566 116.257Z" fill="#263238"/>
<path d="M52.2195 121.178C51.5359 124.143 51.1458 127.146 51.0525 130.158C51.0525 133.451 50.057 135.598 48.5554 137.042C46.9234 138.631 42.8431 139.461 43.398 136.079C43.8061 133.73 46.344 122.311 46.344 122.311L52.2195 121.178Z" fill="#FFA8A7"/>
<path opacity="0.15" d="M56.8466 117.808C56.9526 119.835 55.3777 125.193 51.7136 129.632C48.0496 134.072 42.884 139.1 41.8232 142.235C41.7742 140.785 42.6392 138.144 43.2839 135.794L43.3329 135.642C43.3329 135.503 43.4063 135.37 43.439 135.231L43.4879 135.047C43.5369 134.87 43.5777 134.699 43.6185 134.534V134.496C44.0836 132.596 44.5161 130.696 44.8997 128.961C45.2016 127.587 45.4709 126.333 45.7157 125.294C45.83 124.775 45.9197 124.306 46.0013 123.907C46.0421 123.704 46.0829 123.521 46.1156 123.356C46.2543 122.723 46.3277 122.311 46.3277 122.311L51.224 116.257C51.4607 116.257 51.6892 116.257 51.9095 116.257C53.7392 116.307 55.4875 116.856 56.8466 117.808Z" fill="black"/>
<path d="M37.1635 80.2281C48.9472 73.7748 62.3058 66.4728 62.3058 66.4728L99.3379 68.968L62.0692 89.4364L46.0502 97.3843C46.0502 97.3843 43.0472 97.1374 44.7609 100.823C45.3076 101.988 46.1155 104.325 46.9642 106.966L39.122 122.438C39.122 122.438 34.6827 117.131 29.9823 106.928C25.2248 96.599 25.0208 93.2172 25.6165 91.197C26.3917 88.5624 27.5342 85.5036 37.1635 80.2281Z" fill="#006466"/>
<path opacity="0.7" d="M37.1635 80.2281C48.9472 73.7748 62.3058 66.4728 62.3058 66.4728L99.3379 68.968L62.0692 89.4364L46.0502 97.3843C46.0502 97.3843 43.0472 97.1374 44.7609 100.823C45.3076 101.988 46.1155 104.325 46.9642 106.966L39.122 122.438C39.122 122.438 34.6827 117.131 29.9823 106.928C25.2248 96.599 25.0208 93.2172 25.6165 91.197C26.3917 88.5624 27.5342 85.5036 37.1635 80.2281Z" fill="white"/>
<path opacity="0.2" d="M43.9612 80.6904C40.9147 82.3949 38.0042 84.2412 35.2458 86.2192C33.8716 87.1925 32.6025 88.2515 31.4512 89.3857C30.8987 89.8973 30.4777 90.4863 30.2108 91.1209C30.0085 91.8133 29.8694 92.5159 29.7947 93.2235C29.6758 94.6457 29.7689 96.0737 30.0721 97.4793C30.3332 98.8979 30.7331 100.317 31.1656 101.729C32.0633 104.566 32.8875 107.429 33.7035 110.272C32.4305 107.524 31.2554 104.731 30.2353 101.925C29.6899 100.511 29.2513 99.0727 28.9215 97.6186C28.5659 96.1432 28.459 94.6381 28.6032 93.1412C28.6981 92.3926 28.859 91.6499 29.0847 90.9183C29.4014 90.1613 29.9153 89.4628 30.5944 88.8664C31.8274 87.7263 33.1933 86.677 34.6746 85.7315C37.564 83.8334 40.6727 82.1459 43.9612 80.6904Z" fill="#006466"/>
<path opacity="0.3" d="M65.9373 83.4707C65.464 83.705 63.3749 84.7753 62.82 85.0603C55.4103 88.9044 42.8677 96.3901 41.3743 99.7529C40.4522 101.83 37.0085 107.878 34.9602 115.769C34.9602 115.769 35.3682 110.519 35.7763 105.377C36.3801 98.1823 38.1265 96.1874 41.2274 93.5909C44.2223 91.0893 59.9475 84.0913 61.041 83.61C58.4215 81.9127 57.2219 78.5056 57.2872 76.7957C57.3035 76.7957 61.0492 82.0457 65.9373 83.4707Z" fill="#006466"/>
<path d="M43.2922 137.89C44.1735 137.802 44.3449 139.049 45.0385 140.614C45.8543 142.107 46.1116 143.749 45.7811 145.351C45.2507 147.384 41.4561 147.954 39.8321 150.69C38.2082 153.425 35.9641 158.289 29.3378 160.189C22.7115 162.089 17.1543 160.702 15.5712 159.144C13.988 157.586 14.8449 155.87 18.8353 153.368C23.0869 150.715 24.2865 149.942 24.2865 149.942L43.2922 137.89Z" fill="#263238"/>
<path d="M32.8548 129.48C32.169 132.886 31.2207 136.257 30.0149 139.575C28.4726 143.28 25.6491 146.928 22.4094 150.398C21.7076 151.152 20.0755 152.577 19.4961 153.185C19.3572 153.307 19.2546 153.451 19.1955 153.607C19.1364 153.763 19.1224 153.927 19.1543 154.088C19.1862 154.249 19.2634 154.402 19.3803 154.537C19.4972 154.672 19.651 154.786 19.8307 154.869C21.5689 155.946 28.3747 155.769 31.9245 153.305C35.4743 150.842 38.4039 145.902 40.4685 143.976C41.2437 143.248 41.97 142.514 42.6473 141.735C43.3088 141.035 43.6271 140.175 43.5449 139.309C43.2764 138.183 43.2461 137.03 43.4552 135.896C43.7711 134.38 44.2044 132.881 44.7527 131.405L32.8548 129.48Z" fill="#FFA8A7"/>
<path d="M98.677 68.93C102.406 78.6259 101.345 83.7683 98.9708 87.8531C96.9878 91.254 93.3646 94.7498 83.1477 98.3216C73.4612 101.703 64.3787 105.288 61.9305 106.13C59.4824 106.973 58.6664 108.974 57.4586 112.596C56.2917 116.035 55.5246 119.778 50.4162 127.029C45.0221 134.686 44.0184 136.054 44.0184 136.054C44.0184 136.054 36.6005 137.51 31.7124 133.78C31.7124 133.78 36.5026 106.954 37.792 102.166C38.657 98.9549 39.8321 97.1944 43.235 94.9398C51.1506 89.7087 65.668 83.5023 65.668 83.5023C65.668 83.5023 64.9336 73.6735 67.5857 68.303L98.677 68.93Z" fill="#006466"/>
<path opacity="0.7" d="M98.677 68.93C102.406 78.6259 101.345 83.7683 98.9708 87.8531C96.9878 91.254 93.3646 94.7498 83.1477 98.3216C73.4612 101.703 64.3787 105.288 61.9305 106.13C59.4824 106.973 58.6664 108.974 57.4586 112.596C56.2917 116.035 55.5246 119.778 50.4162 127.029C45.0221 134.686 44.0184 136.054 44.0184 136.054C44.0184 136.054 36.6005 137.51 31.7124 133.78C31.7124 133.78 36.5026 106.954 37.792 102.166C38.657 98.9549 39.8321 97.1944 43.235 94.9398C51.1506 89.7087 65.668 83.5023 65.668 83.5023C65.668 83.5023 64.9336 73.6735 67.5857 68.303L98.677 68.93Z" fill="white"/>
<path opacity="0.2" d="M35.2214 130.607C35.8688 126.288 36.6332 121.986 37.5145 117.701C38.404 113.407 39.3424 109.132 40.591 104.876C40.7542 104.344 40.9419 103.812 41.1214 103.28L41.456 102.476L41.864 101.691C42.4511 100.661 43.2112 99.6967 44.1245 98.8219C45.9699 97.1388 48.1064 95.6619 50.4733 94.4332C52.7745 93.1665 55.19 92.0519 57.5892 90.9373C59.9884 89.8227 62.3875 88.7144 64.8193 87.6315C62.5344 88.8981 60.2005 90.0887 57.8911 91.311C55.5817 92.5332 53.2397 93.7175 51.02 95.0158C48.7854 96.2599 46.7691 97.7246 45.0221 99.3729C44.1827 100.195 43.4833 101.097 42.9412 102.058L42.574 102.786L42.272 103.534C42.1007 104.047 41.9293 104.566 41.7743 105.092C41.1296 107.188 40.5828 109.316 40.0442 111.425L38.453 117.815C37.4084 122.087 36.3312 126.352 35.2214 130.607Z" fill="#006466"/>
<path d="M70.9314 34.7126C63.2769 35.6499 60.3228 35.6499 53.8679 44.6491C48.8574 51.6471 42.019 61.0264 42.019 61.0264L56.1447 66.4728C60.4126 60.507 61.3266 59.2911 68.2711 50.5452L70.9314 34.7126Z" fill="#455A64"/>
<path d="M60.4129 56.3019C56.0471 50.9822 57.8832 47.1507 59.3765 44.9025C62.3796 40.4693 70.9317 34.7253 70.9317 34.7253C75.0357 33.9631 79.2468 33.6035 83.4661 33.655C87.3713 33.7059 91.2508 34.1552 95.005 34.9913L100.464 36.7772C97.9183 39.2344 96.8329 43.6929 96.9227 46.5364C97.1594 53.9714 101.125 55.789 101.125 55.789C101.125 55.789 100.309 62.2677 100.097 63.9712C99.8849 65.6748 100.048 67.4291 100.677 70.2093C101.308 72.967 101.682 75.7566 101.794 78.5562C101.852 79.7088 101.794 80.7601 100.978 80.9628C85.2533 85.1236 62.0613 77.7076 55.2229 69.804C55.688 67.7521 59.0256 64.3702 59.6132 62.2043C60.315 59.5888 60.7638 60.1904 60.4129 56.3019Z" fill="#37474F"/>
<path d="M73.2979 58.1322C73.2979 58.1322 76.66 61.381 83.9065 60.4438C91.153 59.5065 92.5484 55.276 92.5484 55.276C92.5484 55.276 92.9809 60.7224 84.3472 61.818C75.8195 62.8946 73.2979 58.1322 73.2979 58.1322Z" fill="#263238"/>
<path d="M91.5692 28.5632C91.2104 28.8159 90.9718 29.155 90.8919 29.5258C90.8919 29.5258 88.8926 28.5569 88.7131 28.4809L82.046 25.764C78.9287 24.4974 75.8169 23.2308 72.7104 21.9642L69.0219 20.4379C68.5892 20.2147 68.1302 20.0239 67.651 19.868C66.6554 19.64 65.5374 19.659 64.7051 19.1333C64.3201 18.8921 64.0174 18.5811 63.8237 18.2277C63.7829 18.1454 63.5055 17.1828 63.6279 17.1954C63.1512 17.1293 62.6967 16.989 62.2919 16.7828C61.8871 16.5765 61.5404 16.3088 61.2726 15.9956C61.0049 15.6825 60.8218 15.3305 60.7343 14.9609C60.6468 14.5913 60.6567 14.2118 60.7636 13.8452C60.8609 13.9653 60.9922 14.0665 61.1476 14.1412C61.303 14.2158 61.4783 14.262 61.6602 14.276C61.842 14.2901 62.0256 14.2717 62.1969 14.2223C62.3682 14.1729 62.5227 14.0937 62.6486 13.9909C62.8807 13.7627 63.0352 13.4929 63.098 13.2063C63.1607 12.9197 63.1297 12.6255 63.0077 12.3506C62.7496 11.8072 62.4554 11.2745 62.1264 10.7547C61.8493 10.2258 61.7109 9.65937 61.7193 9.08847C61.7277 8.51758 61.8827 7.95371 62.1753 7.42987C63.1382 5.80228 65.4395 4.89666 67.651 4.42168C69.8625 3.9467 72.229 3.61105 74.1304 2.6041C75.5095 1.8758 76.5785 1.02717 78.1535 0.577525C79.6603 0.151723 81.2597 -0.0418821 82.862 0.00755284C85.0063 0.166991 87.0625 0.749044 88.8355 1.69847C90.541 2.5281 92.1486 3.66172 92.7035 5.16898C92.7396 5.32424 92.8299 5.46882 92.9647 5.58696C93.1101 5.66478 93.2785 5.71272 93.4543 5.72629C95.3144 6.01565 96.9928 6.78669 98.2144 7.91311C99.4361 9.03953 100.129 10.4545 100.178 11.9263C100.219 13.2436 99.6725 14.5102 99.8031 15.8338C99.8602 16.4165 100.04 16.9928 100.121 17.5691C100.288 19.7274 99.5215 21.8673 97.9425 23.6488C96.9814 24.7439 95.8121 25.7197 94.4743 26.543C93.4532 27.1692 92.4829 27.8439 91.5692 28.5632Z" fill="#E0E0E0"/>
<path opacity="0.1" d="M91.5692 28.5632C91.2104 28.8159 90.9718 29.155 90.8919 29.5258C90.8919 29.5258 88.8926 28.5569 88.7131 28.4809L82.046 25.764C78.9287 24.4974 75.8169 23.2308 72.7104 21.9642L69.0219 20.4379C68.5892 20.2147 68.1302 20.0239 67.651 19.868C66.6554 19.64 65.5374 19.659 64.7051 19.1333C64.3201 18.8921 64.0174 18.5811 63.8237 18.2277C63.7829 18.1454 63.5055 17.1828 63.6279 17.1954C63.1512 17.1293 62.6967 16.989 62.2919 16.7828C61.8871 16.5765 61.5404 16.3088 61.2726 15.9956C61.0049 15.6825 60.8218 15.3305 60.7343 14.9609C60.6468 14.5913 60.6567 14.2118 60.7636 13.8452C60.8609 13.9653 60.9922 14.0665 61.1476 14.1412C61.303 14.2158 61.4783 14.262 61.6602 14.276C61.842 14.2901 62.0256 14.2717 62.1969 14.2223C62.3682 14.1729 62.5227 14.0937 62.6486 13.9909C62.8807 13.7627 63.0352 13.4929 63.098 13.2063C63.1607 12.9197 63.1297 12.6255 63.0077 12.3506C62.7496 11.8072 62.4554 11.2745 62.1264 10.7547C61.8493 10.2258 61.7109 9.65937 61.7193 9.08847C61.7277 8.51758 61.8827 7.95371 62.1753 7.42987C63.1382 5.80228 65.4395 4.89666 67.651 4.42168C69.8625 3.9467 72.229 3.61105 74.1304 2.6041C75.5095 1.8758 76.5785 1.02717 78.1535 0.577525C79.6603 0.151723 81.2597 -0.0418821 82.862 0.00755284C85.0063 0.166991 87.0625 0.749044 88.8355 1.69847C90.541 2.5281 92.1486 3.66172 92.7035 5.16898C92.7396 5.32424 92.8299 5.46882 92.9647 5.58696C93.1101 5.66478 93.2785 5.71272 93.4543 5.72629C95.3144 6.01565 96.9928 6.78669 98.2144 7.91311C99.4361 9.03953 100.129 10.4545 100.178 11.9263C100.219 13.2436 99.6725 14.5102 99.8031 15.8338C99.8602 16.4165 100.04 16.9928 100.121 17.5691C100.288 19.7274 99.5215 21.8673 97.9425 23.6488C96.9814 24.7439 95.8121 25.7197 94.4743 26.543C93.4532 27.1692 92.4829 27.8439 91.5692 28.5632Z" fill="black"/>
<path d="M68.8587 9.62744C67.3246 10.2607 63.9625 15.3272 65.3987 23.5601C66.3045 28.8166 69.226 30.3681 70.7275 30.9761C72.7431 31.7931 75.6237 31.6981 77.6639 31.3878V33.921C80.2344 36.4542 84.7145 36.2895 90.9001 34.2566C91.2589 31.1758 91.1576 28.0731 90.5982 25.0104C90.5982 25.0104 93.6094 26.0743 95.7311 24.2124C96.6975 23.3678 97.2895 22.3049 97.4202 21.1799C97.551 20.0548 97.2135 18.9269 96.4574 17.9617C96.0024 17.4662 95.3824 17.076 94.6637 16.8328C93.945 16.5896 93.1546 16.5026 92.3771 16.5811C91.5499 16.6124 90.7618 16.8636 90.1451 17.2926C89.5284 17.7216 89.1207 18.3023 88.9905 18.937C88.7947 20.3493 87.8154 20.5899 86.8117 19.5703C85.808 18.5507 85.6937 17.2461 85.7182 15.4222C79.6224 15.9288 70.8336 13.7819 68.8587 9.62744Z" fill="#FFA8A7"/>
<path d="M75.2891 26.3403C75.3793 26.5612 75.5744 26.7472 75.8349 26.8605C76.0953 26.9738 76.4016 27.0059 76.6915 26.9503C76.9813 26.8946 77.2331 26.7555 77.3955 26.561C77.5579 26.3666 77.6188 26.1314 77.5659 25.9033C77.4027 25.4157 76.9375 25.631 76.3092 25.7514C75.6808 25.8717 75.1341 25.8527 75.2891 26.3403Z" fill="#B16668"/>
<path d="M77.6638 31.3877C81.948 30.8621 87.644 29.4435 89.0884 25.593C89.0884 25.593 89.0884 28.2022 87.5542 29.7285C85.4162 31.8817 77.6556 33.3003 77.6556 33.3003L77.6638 31.3877Z" fill="#F28F8F"/>
<path d="M76.6765 19.1586C76.5683 19.429 76.6029 19.7217 76.7728 19.9723C76.9427 20.2229 77.2339 20.4109 77.5823 20.4949C77.9308 20.5789 78.3079 20.552 78.6308 20.4201C78.9538 20.2883 79.196 20.0623 79.3042 19.7919C79.3645 19.67 79.3894 19.5393 79.3771 19.4091C79.3647 19.2788 79.3155 19.1523 79.2328 19.0386C79.1502 18.9248 79.0362 18.8267 78.899 18.7511C78.7618 18.6755 78.6048 18.6243 78.4392 18.6013C78.2769 18.5446 78.1014 18.514 77.9235 18.5115C77.7455 18.509 77.5687 18.5346 77.4039 18.5867C77.239 18.6388 77.0896 18.7164 76.9645 18.8147C76.8395 18.913 76.7415 19.03 76.6765 19.1586Z" fill="#263238"/>
<path d="M67.2024 19.7476C67.2473 20.0338 67.4366 20.2945 67.7288 20.4726C68.021 20.6507 68.3922 20.7316 68.7611 20.6976C69.1321 20.6495 69.4634 20.4891 69.6821 20.2516C69.9009 20.0142 69.9894 19.719 69.928 19.431C69.8138 18.7977 69.112 18.6204 68.3857 18.7027C67.6594 18.785 67.0963 19.1397 67.2024 19.7476Z" fill="#263238"/>
<path d="M66.378 15.9984L69.3647 15.1878C69.3057 15.0343 69.2072 14.8917 69.0751 14.7686C68.943 14.6456 68.7801 14.5445 68.5962 14.4717C68.4124 14.3989 68.2114 14.3558 68.0055 14.345C67.7995 14.3342 67.5929 14.3559 67.3981 14.4089C66.9934 14.5171 66.6598 14.7444 66.469 15.0417C66.2782 15.339 66.2455 15.6826 66.378 15.9984Z" fill="#455A64"/>
<path d="M80.7811 16.0935L77.7863 15.3145C77.8405 15.1628 77.9335 15.021 78.0596 14.8976C78.1857 14.7743 78.3424 14.6717 78.5204 14.5962C78.6984 14.5206 78.8942 14.4735 79.096 14.4576C79.2979 14.4418 79.5019 14.4575 79.6958 14.5039C79.9021 14.5523 80.094 14.632 80.2603 14.7383C80.4267 14.8446 80.5644 14.9754 80.6653 15.1232C80.7662 15.271 80.8284 15.4328 80.8483 15.5993C80.8681 15.7659 80.8453 15.9338 80.7811 16.0935Z" fill="#455A64"/>
<path d="M40.4687 52.0144C40.4687 52.0144 40.5993 51.0392 38.9753 50.0322C37.3514 49.0253 35.2215 48.1893 34.6258 45.7891L32.2756 46.7517L35.8988 51.9194L40.4687 52.0144Z" fill="#006466"/>
<path opacity="0.85" d="M40.4687 52.0144C40.4687 52.0144 40.5993 51.0392 38.9753 50.0322C37.3514 49.0253 35.2215 48.1893 34.6258 45.7891L32.2756 46.7517L35.8988 51.9194L40.4687 52.0144Z" fill="white"/>
<path d="M40.4687 52.0144C40.4687 52.0144 43.0311 51.1151 48.4822 52.1664C53.9334 53.2177 58.3809 54.4907 68.9568 54.63L66.1496 55.7763L38.7713 53.7054L40.4687 52.0144Z" fill="#006466"/>
<path opacity="0.85" d="M40.4687 52.0144C40.4687 52.0144 43.0311 51.1151 48.4822 52.1664C53.9334 53.2177 58.3809 54.4907 68.9568 54.63L66.1496 55.7763L38.7713 53.7054L40.4687 52.0144Z" fill="white"/>
<path d="M68.9568 54.63L77.5334 79.4238L74.7263 80.5701L66.1496 55.7763L68.9568 54.63Z" fill="#006466"/>
<path opacity="0.8" d="M68.9568 54.63L77.5334 79.4238L74.7263 80.5701L66.1496 55.7763L68.9568 54.63Z" fill="white"/>
<path opacity="0.2" d="M68.9568 54.63L77.5334 79.4238L74.7263 80.5701L66.1496 55.7763L68.9568 54.63Z" fill="#006466"/>
<g opacity="0.3">
<path d="M34.5688 47.1064C34.799 47.6287 35.1595 48.1107 35.6296 48.525C36.1029 48.9323 36.6099 49.3152 37.1475 49.6713C37.6879 50.0116 38.1852 50.3912 38.6327 50.8049C38.8409 51.0149 39.0137 51.2448 39.1468 51.4888C39.2736 51.7184 39.3295 51.9678 39.31 52.2172L39.6364 52.2678C39.6623 51.9686 39.5863 51.6694 39.4161 51.4002C39.263 51.1435 39.0683 50.903 38.8367 50.6846C38.355 50.2754 37.825 49.9023 37.2536 49.5699C36.7048 49.2305 36.1817 48.8668 35.6868 48.4807C35.2028 48.0831 34.8231 47.6164 34.5688 47.1064Z" fill="#006466"/>
<path d="M34.9359 48.4996C35.1594 48.8145 35.4336 49.1061 35.752 49.3673C36.0539 49.6333 36.3722 49.8929 36.6659 50.1652C36.9672 50.4304 37.2401 50.7142 37.482 51.0139C37.7023 51.308 37.8334 51.6372 37.8655 51.9765H38.2083C38.1436 51.6069 37.9705 51.2537 37.7023 50.9442C37.4423 50.6431 37.1473 50.3612 36.821 50.1019C36.5027 49.8422 36.1681 49.6016 35.8499 49.3483C35.4983 49.0979 35.191 48.8125 34.9359 48.4996Z" fill="#006466"/>
<path d="M58.3809 54.4907C56.885 54.3407 55.4004 54.1293 53.9334 53.8574C52.4645 53.5788 51.012 53.2241 49.5594 52.9391C48.0981 52.6171 46.5958 52.4196 45.0793 52.3501C44.3186 52.309 43.5551 52.309 42.7944 52.3501C42.4098 52.3723 42.028 52.4167 41.652 52.4831C41.2575 52.5498 40.8852 52.6792 40.5584 52.8631L40.7788 53.0595C41.0616 52.8988 41.3837 52.7846 41.7254 52.7238C42.0845 52.6533 42.4501 52.6046 42.8189 52.5781C43.566 52.5369 44.3159 52.5369 45.063 52.5781C46.5652 52.6272 48.0562 52.8013 49.5105 53.0974C50.9712 53.3888 52.4319 53.6991 53.9089 53.9524C55.3859 54.1947 56.8787 54.3744 58.3809 54.4907Z" fill="#006466"/>
<path d="M51.1343 54.1614C50.3182 54.0474 49.4532 53.889 48.6209 53.737C47.7885 53.5851 46.9398 53.4394 46.0911 53.3254C45.243 53.202 44.3833 53.1321 43.5206 53.1164C42.6397 53.0867 41.7595 53.1856 40.9256 53.4077L41.048 53.6484C41.8315 53.4237 42.6608 53.31 43.4961 53.3127C44.3481 53.3087 45.1993 53.3553 46.0422 53.4521C46.8582 53.5471 47.7314 53.6737 48.5801 53.8004C49.4287 53.927 50.2774 54.0727 51.1343 54.1614Z" fill="#006466"/>
</g>
<path d="M32.3327 45.5231L36.5598 51.6472L45.7566 78.2396L44.3612 78.8096L40.2075 71.3366L30.9372 46.0931L32.3327 45.5231Z" fill="#006466"/>
<path opacity="0.2" d="M35.1561 52.2235L30.9372 46.0931L40.2074 71.3366L44.3611 78.8096L35.1561 52.2235Z" fill="black"/>
<path d="M40.9665 53.8067L67.9613 55.9726L77.1663 82.5587L75.7627 83.135L48.7679 80.9691L39.563 54.3767L40.9665 53.8067Z" fill="#006466"/>
<path opacity="0.2" d="M66.5575 56.5426L75.7625 83.135L48.7677 80.9691L39.5628 54.3767L66.5575 56.5426Z" fill="black"/>
<path opacity="0.35" d="M67.9613 55.9727L66.5577 56.5426L75.7627 83.1351L77.1663 82.5588L67.9613 55.9727Z" fill="black"/>
<path d="M39.5628 54.402L35.1562 52.2488L44.3612 78.8475C44.9895 80.2851 46.4992 80.9691 48.7678 81.0071L39.5628 54.402Z" fill="#006466"/>
<path opacity="0.35" d="M39.5628 54.402L35.1562 52.2488L44.3612 78.8475C45.0711 80.3738 46.6298 80.9944 48.7678 81.0071L39.5628 54.402Z" fill="black"/>
<path d="M36.7148 51.5838C37.5309 51.2291 39.2446 51.4191 40.4686 52.0144C41.6927 52.6097 41.9702 53.3824 41.1133 53.737L39.5628 54.3703L35.1562 52.2171L36.5598 51.6408L36.7148 51.5838Z" fill="#455A64"/>
<path d="M36.5597 51.6471C36.7718 52.6667 38.4039 53.3444 40.9663 53.8067L39.5627 54.3766C37.3512 54.1107 35.9232 53.3697 35.1561 52.2234L36.5597 51.6471Z" fill="#006466"/>
<path d="M100.415 36.9861C107.082 38.6327 109.392 39.7664 110.436 45.5991C111.66 52.1601 112.395 57.2962 112.754 68.17C112.835 70.7476 113.831 73.8698 106.421 75.2567C96.9144 77.0046 83.0171 77.9546 79.549 78.1826C77.3293 78.3219 72.4331 78.6575 70.7112 78.4992C65.3008 77.9926 62.4202 75.491 60.7228 74.1864C59.7925 73.4644 58.8786 72.5842 58.8949 71.5582C58.952 71.2325 58.952 70.9023 58.8949 70.5766C58.7327 70.2747 58.5274 69.9879 58.2828 69.7216C58.0675 69.3959 57.9932 69.0251 58.0707 68.664C58.1895 68.3498 58.2687 68.0274 58.3073 67.7014C58.3073 67.0681 57.4913 66.5614 57.1649 65.9598C57.1051 65.8722 57.0769 65.7738 57.0833 65.6748C57.1241 65.4595 57.4178 65.3328 57.6953 65.2822C58.9716 65.1591 60.2634 65.3829 61.3512 65.9155C64.7622 67.5367 66.7207 69.5443 71.5191 69.652C72.6615 69.652 74.0407 69.3226 73.7469 68.4613L73.1593 66.7641C75.9012 67.2011 77.3783 69.2973 79.6306 69.652C81.638 69.9749 97.8773 65.7698 97.8773 65.7698L96.49 52.8314C96.49 52.8314 93.8216 41.1026 100.415 36.9861Z" fill="#FFA8A7"/>
<path d="M36.3312 60.7794C36.8037 61.7256 37.3998 62.6317 38.1102 63.4836C38.6243 64.1739 38.5427 64.9845 37.947 65.1809L39.5791 69.5823C39.5791 69.5823 38.7631 69.652 37.131 68.1574C35.4989 66.6628 34.3564 63.8763 34.0463 62.369C33.7362 60.8617 33.4996 58.1639 35.148 57.5179L36.3312 60.7794Z" fill="#FFA8A7"/>
<path d="M91.1203 29.8678C91.1203 30.2858 91.1203 30.7291 91.1203 30.7291C91.1203 30.7291 90.1166 31.9957 86.8769 32.914C81.9806 34.2946 78.3656 33.6423 77.6719 32.6924V32.0971C77.4276 32.1123 77.1921 32.1748 76.9868 32.2788C76.7816 32.3827 76.6131 32.5249 76.4968 32.6924C76.0855 33.4737 75.5362 34.2069 74.8647 34.8709C74.1058 35.5042 76.7253 38.7214 82.3887 38.7214C88.2968 38.7214 93.6174 35.3206 95.6983 35.2066L96.2288 35.3839C96.2288 35.3839 96.2288 34.8266 95.0618 33.9146C93.5685 32.7557 93.4052 29.7412 91.1203 29.8678Z" fill="#455A64"/>
<path d="M91.9365 31.603C91.6969 31.2979 91.3402 31.0588 90.9165 30.9191C90.9721 30.8687 91.0239 30.8158 91.0715 30.7607C91.3874 30.8647 91.6671 31.0253 91.8876 31.2294C92.3347 31.743 92.648 32.3196 92.8097 32.9266C92.9232 33.2513 93.0876 33.564 93.2993 33.8576C93.5394 34.1365 93.8126 34.3973 94.1154 34.6366C94.3739 34.8617 94.5611 35.1306 94.6621 35.4219L94.4581 35.4852C94.2197 35.1078 93.8995 34.7651 93.5115 34.4719C93.1019 34.0842 92.8042 33.6329 92.6383 33.1483C92.4962 32.6108 92.2601 32.0909 91.9365 31.603ZM87.9787 32.5593L88.4275 32.3757C88.6822 32.4999 88.886 32.6778 89.0151 32.8886C89.156 33.172 89.2519 33.4676 89.3007 33.7689C89.3895 34.1091 89.5858 34.4268 89.8719 34.6936C90.3732 35.0793 90.753 35.5496 90.9818 36.0678C91.0604 36.3012 91.0907 36.5427 91.0715 36.7835L90.843 36.8721C90.856 36.5663 90.7952 36.2613 90.6635 35.9728C90.3891 35.5352 90.0284 35.1335 89.5945 34.7822C89.2595 34.4037 89.0417 33.9702 88.958 33.5156C88.9285 33.3016 88.8228 33.0982 88.6527 32.9282C88.4826 32.7581 88.2549 32.6282 87.995 32.553L87.9787 32.5593ZM86.2895 33.066L86.7383 32.952C86.976 33.0997 87.166 33.2883 87.2932 33.5029C87.6197 34.0476 87.5381 34.6936 87.9216 35.2255C88.093 35.4599 88.3459 35.6625 88.5255 35.8968C88.6933 36.1055 88.8147 36.3346 88.8845 36.5745C88.971 36.8982 88.971 37.2323 88.8845 37.5561L88.6152 37.6448C88.651 37.53 88.6783 37.4137 88.6968 37.2964C88.7299 37.0364 88.6966 36.7739 88.5989 36.5238C88.3229 36.082 88.0009 35.6584 87.636 35.2572C87.4372 34.8061 87.2791 34.3447 87.1627 33.8766C87.0978 33.7028 86.9885 33.5409 86.8412 33.4005C86.694 33.2602 86.512 33.1442 86.3058 33.0596L86.2895 33.066ZM89.5537 31.8437C89.6374 31.8024 89.7165 31.7558 89.7903 31.7044C90.5411 32.2363 90.7288 33.3826 91.2511 33.9653C91.7733 34.5479 92.4261 34.8139 92.7689 35.4029C92.8762 35.606 92.9502 35.8187 92.9892 36.0362L92.7607 36.1248C92.7256 35.8626 92.6229 35.6084 92.4588 35.3775C92.0997 34.8899 91.4551 34.5922 91.0634 34.1109C90.5574 33.5029 90.4187 32.3313 89.5945 31.8374L89.5537 31.8437ZM79.9488 36.0362C80.01 35.6789 80.01 35.3169 79.9488 34.9595C79.9424 34.6762 79.9808 34.3933 80.0631 34.1173C80.1294 33.9414 80.2255 33.7732 80.3487 33.6169H80.569C80.339 33.8723 80.1959 34.1685 80.1528 34.4782C80.0876 34.9722 80.2671 35.4852 80.1528 35.9728C80.0873 36.173 80.0055 36.3697 79.908 36.5618C79.7922 36.8507 79.7371 37.1522 79.7448 37.4548C79.7443 37.7027 79.7854 37.9497 79.8672 38.1894C79.9022 38.2825 79.9458 38.3735 79.9978 38.4617L79.7203 38.4111C79.6424 38.1807 79.5905 37.9455 79.5653 37.7081C79.5366 37.4247 79.5531 37.1397 79.6143 36.8595C79.6959 36.6125 79.8509 36.3465 79.9488 36.0362ZM75.4198 35.1875C75.788 34.81 76.2126 34.4678 76.6847 34.1679C77.1743 33.7436 77.0111 33.142 77.4436 32.705C77.5086 32.6418 77.5825 32.5845 77.6639 32.534V32.667C77.6938 32.7043 77.7265 32.7403 77.7618 32.7746C77.5767 32.9015 77.441 33.066 77.3701 33.2496C77.304 33.6556 77.1045 34.0416 76.7908 34.3706C76.3825 34.6326 76.0005 34.9184 75.6483 35.2255C75.42 35.51 75.2881 35.8346 75.2648 36.1692L75.0852 35.9602C75.142 35.6983 75.2551 35.4456 75.4198 35.2129V35.1875ZM77.6966 35.4092C77.9724 35.1531 78.148 34.841 78.2025 34.5099C78.2292 34.2484 78.2893 33.9896 78.382 33.7373C78.4652 33.5742 78.5933 33.4272 78.7574 33.3066L78.9533 33.3636C78.7356 33.526 78.5802 33.7321 78.5044 33.9589C78.4506 34.392 78.3244 34.8178 78.1291 35.2255C77.7781 35.5952 77.4824 35.9946 77.2477 36.4161C77.1006 36.8113 77.1006 37.2306 77.2477 37.6258L76.9703 37.4738C76.9176 37.2306 76.9176 36.9823 76.9703 36.7391C77.047 36.2594 77.299 35.8067 77.6966 35.4345V35.4092ZM83.1722 34.6746C83.1987 35.2666 83.2915 35.8556 83.4497 36.4351C83.7194 36.8729 83.8984 37.341 83.9801 37.8221C83.9962 38.0907 83.9604 38.3596 83.874 38.62H83.6292C83.789 38.2663 83.8228 37.8856 83.7271 37.5181C83.6047 37.0621 83.2293 36.6758 83.0906 36.2135C82.9519 35.7512 83.0416 35.3079 82.9437 34.8582C82.8275 34.431 82.6381 34.0178 82.3806 33.6296H82.6418C82.9138 33.9534 83.0946 34.3181 83.1722 34.6999V34.6746ZM85.3919 34.0413C85.653 34.6746 85.5714 35.3079 86.061 35.8842C86.5139 36.2978 86.8602 36.7751 87.0811 37.2901C87.137 37.5282 87.1589 37.7703 87.1463 38.0121L86.9015 38.0691C86.9703 37.8036 86.9703 37.5302 86.9015 37.2648C86.637 36.7759 86.2824 36.3193 85.8488 35.9095C85.5826 35.4778 85.4195 35.0121 85.3674 34.5352C85.3282 34.2825 85.2286 34.0376 85.0736 33.8133C84.9403 33.6426 84.7589 33.4975 84.5432 33.389L84.8941 33.3256C85.1401 33.5489 85.3161 33.8133 85.4082 34.0983L85.3919 34.0413Z" fill="#37474F"/>
<path d="M62.8773 16.5685L63.4649 16.5242C65.4459 16.3385 67.4535 16.4221 69.3975 16.7712C71.3071 17.2525 71.9926 17.7718 73.0453 17.7908C74.098 17.8098 74.8487 17.3095 76.848 16.8915C78.9388 16.6084 81.0753 16.5934 83.1724 16.8472L83.8089 16.9105C84.033 16.9682 84.2267 17.081 84.3607 17.2319C84.4947 17.3827 84.5617 17.5634 84.5515 17.7465C84.4907 18.1016 84.2946 18.4346 83.9884 18.7027C83.8915 18.8182 83.8249 18.9473 83.7926 19.0827C83.6692 19.9755 83.4509 20.8588 83.1397 21.7236C82.9607 22.0701 82.7006 22.3878 82.3726 22.6609C82.2444 22.7604 82.1081 22.8535 81.9646 22.9396L81.7361 23.0599C81.516 23.1656 81.2804 23.2507 81.0343 23.3132H80.9201L80.7324 23.3512L80.5365 23.3892C80.3292 23.4213 80.1192 23.4424 79.9082 23.4525H79.6389H79.3043C78.3981 23.4993 77.4944 23.3357 76.7083 22.9827C75.9221 22.6298 75.289 22.1033 74.8895 21.4703C74.1959 20.457 74.302 19.0384 73.1024 19.0257H72.9881H72.882C72.0007 19.1714 72.1721 20.476 71.6498 21.407C71.4536 21.7781 71.1777 22.1207 70.8338 22.4202L70.6461 22.5722L70.54 22.6482L70.4258 22.7179L70.3278 22.7749L70.2136 22.8319L70.132 22.8762H70.0667C69.7498 23.0206 69.4055 23.1253 69.0466 23.1865H68.9569C68.5408 23.2518 68.1163 23.2794 67.692 23.2689C66.8905 23.2901 66.1001 23.119 65.4284 22.779C64.7567 22.4391 64.2364 21.9467 63.9382 21.369C63.5747 20.4986 63.3018 19.607 63.1222 18.7027C63.0738 18.5737 62.9934 18.4532 62.8855 18.3481C62.5668 18.071 62.3597 17.7276 62.2898 17.3601C62.2652 17.1967 62.3091 17.0315 62.4149 16.889C62.5208 16.7464 62.6829 16.634 62.8773 16.5685ZM75.5179 20.5267C75.6817 21.0525 76.0128 21.538 76.4808 21.9389C76.8574 22.2274 77.3074 22.4518 77.8019 22.598C78.2965 22.7441 78.8248 22.8086 79.3533 22.7876C79.8722 22.8197 80.393 22.746 80.8639 22.5739C81.3348 22.4017 81.7396 22.137 82.0381 21.8059L82.1197 21.7109L82.1931 21.6096C82.1931 21.6096 82.2339 21.5463 82.2584 21.521L82.3073 21.4323C82.3073 21.4323 82.3074 21.388 82.3482 21.369C82.3495 21.3479 82.3495 21.3267 82.3482 21.3056L82.3971 21.2106C82.4461 21.1093 82.4869 21.008 82.5195 20.913C82.5195 20.856 82.5603 20.799 82.5848 20.742C82.6093 20.685 82.6419 20.5393 82.6583 20.457C82.6746 20.3747 82.6583 20.419 82.6583 20.4063V20.3493C82.8296 19.6527 83.0092 18.2784 82.544 17.9554C82.0789 17.6325 80.9119 17.3221 78.9616 17.4108H78.7576C78.4613 17.4333 78.1671 17.4693 77.8762 17.5185L77.5335 17.5818C77.2567 17.6371 76.9842 17.7048 76.7175 17.7845L76.4563 17.8668L76.1707 17.9681H76.1217L76.0157 18.0124C75.7963 18.0995 75.6041 18.2227 75.4526 18.3734C75.1098 18.8294 75.2649 19.7414 75.5179 20.5267ZM64.1912 20.0454C64.2827 20.5111 64.5029 20.956 64.8368 21.3495C65.1706 21.743 65.6101 22.0759 66.1252 22.3252C66.5784 22.4954 67.0743 22.5862 67.5778 22.5912C68.1254 22.6464 68.682 22.582 69.1851 22.4052C69.6882 22.2285 70.1178 21.9464 70.4258 21.5906L70.4747 21.5273L70.5237 21.4513C70.526 21.4387 70.526 21.4259 70.5237 21.4133L70.589 21.3056L70.6624 21.1726C70.6655 21.1537 70.6655 21.1346 70.6624 21.1156C70.6624 21.1156 70.6624 21.1156 70.6624 21.0776V21.027C70.6651 21.0123 70.6651 20.9974 70.6624 20.9826C70.7343 20.8131 70.7889 20.6395 70.8256 20.4633C70.9888 19.6844 71.0541 18.7787 70.6706 18.3418C70.287 17.9048 68.8426 17.4045 67.4554 17.2525C67.161 17.2152 66.8639 17.1919 66.5659 17.1828H65.7498H65.505C65.3567 17.1946 65.2095 17.2136 65.0643 17.2398H64.9583H64.8848H64.7787H64.6563L64.4441 17.3031C64.2714 17.3578 64.1136 17.4373 63.979 17.5375C63.6934 17.9491 63.9953 19.3361 64.1912 20.0454Z" fill="#455A64"/>
<path opacity="0.4" d="M78.9695 22.1605C78.2813 22.1605 77.6212 21.9483 77.1346 21.5706C76.6479 21.1929 76.3745 20.6807 76.3745 20.1466H81.5564C81.5564 20.6796 81.2841 21.1909 80.7992 21.5684C80.3143 21.9459 79.6564 22.1588 78.9695 22.1605ZM70.1236 20.0262C70.0865 20.54 69.7973 21.0233 69.3155 21.3768C68.8336 21.7303 68.1957 21.9273 67.5327 21.9273C66.8696 21.9273 66.2317 21.7303 65.7499 21.3768C65.2681 21.0233 64.9789 20.54 64.9417 20.0262H70.1236Z" fill="white"/>
<path d="M74.4978 20.685L74.3999 24.3645L69.7647 23.6678C69.8953 23.3892 70.034 23.1232 70.1728 22.8635C70.6832 21.7626 71.3598 20.7125 72.1884 19.735C72.4239 19.4709 72.6977 19.2287 73.0044 19.0131H73.1187C73.9837 19.0194 74.1714 19.849 74.4978 20.685Z" fill="#F28F8F"/>
<path d="M83.9149 17.0371L89.7415 17.5881C89.401 17.88 89.1648 18.2358 89.056 18.6204L83.8823 18.1834L83.9149 17.0371Z" fill="#455A64"/>
<path d="M87.7501 116.466C87.6234 116.466 87.4972 116.453 87.3747 116.428C87.0412 116.35 86.7604 116.174 86.5925 115.937C86.4247 115.7 86.3832 115.421 86.477 115.161L91.8711 100.83C91.9085 100.69 91.9827 100.558 92.0889 100.442C92.1952 100.326 92.3312 100.228 92.4885 100.155C92.6458 100.082 92.8209 100.035 93.0028 100.016C93.1848 99.9981 93.3696 100.009 93.5457 100.049C93.7218 100.089 93.8854 100.157 94.0262 100.248C94.167 100.339 94.2819 100.452 94.3637 100.58C94.4456 100.707 94.4926 100.846 94.5017 100.988C94.5109 101.131 94.4821 101.273 94.4171 101.406L89.0231 115.737C88.9393 115.949 88.7704 116.133 88.5412 116.264C88.3121 116.396 88.0348 116.466 87.7501 116.466Z" fill="#37474F"/>
<path d="M112.933 105.193C112.806 105.191 112.68 105.176 112.558 105.149C112.224 105.071 111.943 104.895 111.774 104.658C111.604 104.422 111.561 104.143 111.652 103.882L117.054 89.5504C117.171 89.3046 117.404 89.1025 117.705 88.9849C118.007 88.8674 118.355 88.8432 118.679 88.9173C119.002 88.9914 119.278 89.1582 119.449 89.3839C119.62 89.6096 119.674 89.8774 119.6 90.133L114.206 104.433C114.129 104.65 113.963 104.841 113.733 104.978C113.504 105.115 113.223 105.19 112.933 105.193Z" fill="#37474F"/>
<path d="M134.558 82.1217C134.535 81.9351 134.447 81.7569 134.303 81.6063C134.159 81.4557 133.965 81.3383 133.742 81.2667L126.781 78.1509C126.187 77.9167 125.53 77.7946 124.864 77.7946C124.197 77.7946 123.54 77.9167 122.946 78.1509L72.8572 100.633C72.6345 100.705 72.4411 100.823 72.2974 100.973C72.1537 101.124 72.0652 101.302 72.0411 101.488V103.103C72.0652 103.289 72.1537 103.467 72.2974 103.618C72.4411 103.768 72.6345 103.886 72.8572 103.958L79.8099 107.074C80.4041 107.308 81.0611 107.43 81.7276 107.43C82.394 107.43 83.0511 107.308 83.6453 107.074L133.767 84.5979C133.99 84.5241 134.183 84.4052 134.326 84.2538C134.47 84.1023 134.558 83.9237 134.583 83.7366L134.558 82.1217Z" fill="#37474F"/>
<path d="M133.767 81.2667L126.806 78.1509C126.212 77.9167 125.555 77.7946 124.888 77.7946C124.222 77.7946 123.565 77.9167 122.97 78.1509L81.7276 96.6307V107.397C82.3963 107.407 83.0569 107.283 83.6453 107.036L133.767 84.5979C133.99 84.5241 134.183 84.4052 134.326 84.2538C134.47 84.1023 134.558 83.9237 134.583 83.7366V82.1217C134.56 81.9351 134.471 81.7569 134.328 81.6063C134.184 81.4557 133.99 81.3383 133.767 81.2667Z" fill="#263238"/>
<path d="M122.946 78.1509L72.8573 100.633C72.6346 100.705 72.4411 100.823 72.2975 100.973C72.1538 101.124 72.0653 101.302 72.0412 101.488C72.0664 101.675 72.1553 101.853 72.2987 102.005C72.4421 102.156 72.6349 102.275 72.8573 102.349L79.81 105.465C80.4042 105.7 81.0612 105.822 81.7277 105.822C82.3941 105.822 83.0512 105.7 83.6454 105.465L133.767 82.9831C133.998 82.9225 134.199 82.8071 134.342 82.6531C134.484 82.4992 134.561 82.3144 134.561 82.1249C134.561 81.9354 134.484 81.7507 134.342 81.5967C134.199 81.4428 133.998 81.3274 133.767 81.2668L126.806 78.1509C126.209 77.9136 125.547 77.7899 124.876 77.7899C124.205 77.7899 123.543 77.9136 122.946 78.1509Z" fill="#455A64"/>
<path d="M100.464 36.7645C106.364 38.3477 108.763 39.1204 110.118 43.0975C111.472 47.0746 112.329 54.497 112.835 61.0073C113.341 67.5177 113.774 71.5518 112.313 73.0781C110.852 74.6044 107.368 75.89 98.2689 76.6689C99.1828 74.56 99.2726 69.12 93.8459 66.7894L97.2651 65.7128C97.2651 65.7128 96.0166 54.706 95.7718 51.8688C95.527 49.0316 94.4335 38.8417 100.464 36.7645Z" fill="#455A64"/>
</svg>
