<svg width="345" height="158" viewBox="0 0 345 158" fill="none" xmlns="http://www.w3.org/2000/svg">
<rect x="34" y="31" width="277" height="120" rx="8" fill="#DBECED"/>
<path d="M77.392 79.952C77.048 80.048 76.712 80.096 76.384 80.096C75.536 80.096 74.848 79.768 74.32 79.112C73.888 78.56 73.672 77.908 73.672 77.156C73.672 76.332 73.916 75.664 74.404 75.152C74.908 74.608 75.592 74.336 76.456 74.336C77.096 74.336 77.632 74.5 78.064 74.828C78.608 75.22 78.88 75.796 78.88 76.556V79.712C78.88 80.744 78.552 81.536 77.896 82.088C77.52 82.408 77.052 82.632 76.492 82.76C76.212 82.824 75.9 82.856 75.556 82.856C75.468 82.856 75.328 82.848 75.136 82.832L74.548 82.1V81.584C74.804 81.624 75.056 81.644 75.304 81.644C76.592 81.644 77.288 81.08 77.392 79.952ZM77.416 76.556C77.416 76.212 77.3 75.948 77.068 75.764C76.908 75.628 76.704 75.56 76.456 75.56C76.04 75.56 75.712 75.704 75.472 75.992C75.24 76.28 75.124 76.676 75.124 77.18C75.124 77.7 75.256 78.112 75.52 78.416C75.792 78.712 76.16 78.86 76.624 78.86C76.88 78.86 77.144 78.812 77.416 78.716V76.556ZM81.2311 74.408C81.5031 74.36 81.8191 74.336 82.1791 74.336C83.0991 74.336 83.8431 74.632 84.4111 75.224C84.9151 75.76 85.1671 76.424 85.1671 77.216V78.368C85.1671 78.552 85.1631 78.688 85.1551 78.776H85.4671V80H85.3111L84.9151 79.508H84.8791C84.8151 79.58 84.7471 79.648 84.6751 79.712C84.4351 79.904 84.1671 80 83.8711 80H80.0191V78.776H83.4031C83.6031 78.776 83.7031 78.676 83.7031 78.476V77.36C83.7031 76.808 83.5351 76.364 83.1991 76.028C82.8871 75.716 82.4351 75.548 81.8431 75.524C81.5711 75.524 81.3671 75.54 81.2311 75.572V74.408ZM86.9819 74.684C87.7739 74.452 88.4659 74.336 89.0579 74.336C90.0259 74.336 90.8059 74.64 91.3979 75.248C91.9339 75.8 92.2019 76.488 92.2019 77.312V78.68C92.2019 79.008 92.0899 79.304 91.8659 79.568C91.6019 79.856 91.2819 80 90.9059 80H85.3859V78.776H90.4379C90.6379 78.776 90.7379 78.676 90.7379 78.476V77.396C90.7379 76.836 90.5539 76.396 90.1859 76.076C89.8259 75.756 89.3259 75.596 88.6859 75.596C88.3179 75.596 87.7499 75.68 86.9819 75.848V74.684ZM88.6619 80.876C88.8779 80.876 89.0619 80.952 89.2139 81.104C89.3659 81.256 89.4419 81.44 89.4419 81.656C89.4419 81.872 89.3659 82.056 89.2139 82.208C89.0619 82.36 88.8779 82.436 88.6619 82.436C88.4539 82.436 88.2739 82.36 88.1219 82.208C87.9699 82.056 87.8939 81.872 87.8939 81.656C87.8939 81.44 87.9699 81.256 88.1219 81.104C88.2739 80.952 88.4539 80.876 88.6619 80.876ZM100.562 71.84C100.778 71.84 100.962 71.916 101.114 72.068C101.266 72.22 101.342 72.404 101.342 72.62C101.342 72.828 101.266 73.008 101.114 73.16C100.962 73.312 100.778 73.388 100.562 73.388C100.354 73.388 100.174 73.312 100.022 73.16C99.8704 73.008 99.7944 72.828 99.7944 72.62C99.7944 72.404 99.8704 72.22 100.022 72.068C100.174 71.916 100.354 71.84 100.562 71.84ZM102.398 71.84C102.614 71.84 102.794 71.916 102.938 72.068C103.09 72.22 103.166 72.404 103.166 72.62C103.166 72.836 103.09 73.02 102.938 73.172C102.794 73.316 102.614 73.388 102.398 73.388C102.182 73.388 101.998 73.312 101.846 73.16C101.694 73.008 101.618 72.828 101.618 72.62C101.618 72.404 101.694 72.22 101.846 72.068C101.998 71.916 102.182 71.84 102.398 71.84ZM101.39 80C100.518 80 99.8224 79.688 99.3024 79.064C98.8864 78.544 98.6784 77.872 98.6784 77.048C98.6784 76.296 98.9184 75.66 99.3984 75.14C99.9344 74.604 100.622 74.336 101.462 74.336C102.078 74.336 102.602 74.484 103.034 74.78C103.61 75.196 103.898 75.788 103.898 76.556V78.776H104.282V80H103.886C103.83 80.896 103.498 81.596 102.89 82.1C102.29 82.612 101.49 82.868 100.49 82.868H99.3024C98.1984 82.868 97.3424 82.56 96.7344 81.944C96.1744 81.4 95.8944 80.656 95.8944 79.712V78.38L96.6384 77.78H97.3584V79.58C97.3584 80.332 97.5464 80.86 97.9224 81.164C98.3064 81.476 98.9624 81.632 99.8904 81.632C100.698 81.632 101.278 81.532 101.63 81.332C102.078 81.076 102.334 80.632 102.398 80H101.39ZM102.434 76.556C102.434 76.244 102.326 75.992 102.11 75.8C101.926 75.64 101.71 75.56 101.462 75.56C101.078 75.56 100.77 75.688 100.538 75.944C100.266 76.216 100.13 76.628 100.13 77.18C100.13 77.628 100.246 77.992 100.478 78.272C100.734 78.608 101.11 78.776 101.606 78.776H102.434V76.556ZM107.806 74.48V78.596V78.776H108.418V80H107.998L107.554 79.508H107.53C107.258 79.836 106.918 80 106.51 80H104.194V78.776H106.006C106.118 78.776 106.198 78.744 106.246 78.68C106.318 78.616 106.354 78.536 106.354 78.44V74.48H107.806ZM105.202 80.876C105.418 80.876 105.602 80.952 105.754 81.104C105.906 81.256 105.982 81.44 105.982 81.656C105.982 81.872 105.906 82.056 105.754 82.208C105.602 82.36 105.418 82.436 105.202 82.436C104.986 82.436 104.802 82.36 104.65 82.208C104.498 82.056 104.422 81.872 104.422 81.656C104.422 81.44 104.498 81.256 104.65 81.104C104.802 80.952 104.986 80.876 105.202 80.876ZM107.026 80.876C107.242 80.876 107.426 80.952 107.578 81.104C107.73 81.256 107.806 81.44 107.806 81.656C107.806 81.872 107.73 82.056 107.578 82.208C107.426 82.36 107.242 82.436 107.026 82.436C106.818 82.436 106.638 82.36 106.486 82.208C106.334 82.056 106.258 81.872 106.258 81.656C106.258 81.44 106.334 81.256 106.486 81.104C106.638 80.952 106.818 80.876 107.026 80.876ZM111.943 74.48V78.596V78.776H112.555V80H112.135L111.691 79.508H111.667C111.395 79.836 111.055 80 110.647 80H108.331V78.776H110.143C110.255 78.776 110.335 78.744 110.383 78.68C110.455 78.616 110.491 78.536 110.491 78.44V74.48H111.943ZM111.175 80.876C111.383 80.876 111.563 80.952 111.715 81.104C111.867 81.256 111.943 81.44 111.943 81.656C111.943 81.872 111.867 82.056 111.715 82.208C111.563 82.36 111.383 82.436 111.175 82.436C110.959 82.436 110.775 82.36 110.623 82.208C110.471 82.056 110.395 81.872 110.395 81.656C110.395 81.44 110.471 81.256 110.623 81.104C110.775 80.952 110.959 80.876 111.175 80.876ZM116.08 71.408V76.496C117.168 75.048 118.496 74.324 120.064 74.324C121.024 74.324 121.812 74.628 122.428 75.236C122.996 75.78 123.28 76.464 123.28 77.288V78.428C123.28 78.46 123.276 78.52 123.268 78.608C123.268 78.688 123.268 78.744 123.268 78.776H123.664V80H123.424L123.028 79.508H122.992C122.728 79.836 122.392 80 121.984 80H112.468V78.776H114.628V71.408H116.08ZM121.816 77.36C121.808 76.752 121.572 76.288 121.108 75.968C120.756 75.712 120.328 75.584 119.824 75.584C119.232 75.584 118.66 75.768 118.108 76.136C117.3 76.672 116.624 77.552 116.08 78.776H121.516C121.716 78.776 121.816 78.676 121.816 78.476V77.36ZM124.729 71.84C124.945 71.84 125.129 71.916 125.281 72.068C125.433 72.22 125.509 72.404 125.509 72.62C125.509 72.828 125.433 73.008 125.281 73.16C125.129 73.312 124.945 73.388 124.729 73.388C124.513 73.388 124.329 73.312 124.177 73.16C124.025 73.008 123.949 72.828 123.949 72.62C123.949 72.404 124.025 72.22 124.177 72.068C124.329 71.916 124.513 71.84 124.729 71.84ZM126.553 71.84C126.769 71.84 126.953 71.916 127.105 72.068C127.257 72.22 127.333 72.404 127.333 72.62C127.333 72.828 127.257 73.008 127.105 73.16C126.953 73.312 126.769 73.388 126.553 73.388C126.345 73.388 126.165 73.312 126.013 73.16C125.861 73.008 125.785 72.828 125.785 72.62C125.785 72.404 125.861 72.22 126.013 72.068C126.165 71.916 126.345 71.84 126.553 71.84ZM127.177 74.48V78.68C127.177 78.992 127.073 79.28 126.865 79.544C126.601 79.848 126.273 80 125.881 80H123.565V78.776H125.413C125.501 78.776 125.577 78.744 125.641 78.68C125.697 78.624 125.725 78.556 125.725 78.476V74.48H127.177ZM132.655 77.912V79.58C132.655 80.34 132.843 80.872 133.219 81.176C133.603 81.488 134.259 81.644 135.187 81.644C135.995 81.644 136.579 81.54 136.939 81.332C137.379 81.084 137.631 80.64 137.695 80H136.951L136.327 79.232V78.776H139.639V80H139.183C139.119 81 138.719 81.752 137.983 82.256C137.407 82.664 136.675 82.868 135.787 82.868H134.599C133.591 82.868 132.787 82.608 132.187 82.088C131.523 81.544 131.191 80.752 131.191 79.712V78.5L131.935 77.912H132.655ZM134.239 83.564C134.455 83.564 134.639 83.64 134.791 83.792C134.943 83.944 135.019 84.128 135.019 84.344C135.019 84.56 134.943 84.744 134.791 84.896C134.639 85.048 134.455 85.124 134.239 85.124C134.023 85.124 133.839 85.048 133.687 84.896C133.535 84.744 133.459 84.56 133.459 84.344C133.459 84.128 133.535 83.944 133.687 83.792C133.839 83.64 134.023 83.564 134.239 83.564ZM136.063 83.564C136.279 83.564 136.463 83.64 136.615 83.792C136.767 83.944 136.843 84.128 136.843 84.344C136.843 84.56 136.767 84.744 136.615 84.896C136.463 85.048 136.279 85.124 136.063 85.124C135.855 85.124 135.675 85.048 135.523 84.896C135.371 84.744 135.295 84.56 135.295 84.344C135.295 84.128 135.371 83.944 135.523 83.792C135.675 83.64 135.855 83.564 136.063 83.564ZM143.257 71.84C143.473 71.84 143.657 71.916 143.809 72.068C143.961 72.22 144.037 72.404 144.037 72.62C144.037 72.828 143.961 73.008 143.809 73.16C143.657 73.312 143.473 73.388 143.257 73.388C143.049 73.388 142.869 73.312 142.717 73.16C142.565 73.008 142.489 72.828 142.489 72.62C142.489 72.404 142.565 72.22 142.717 72.068C142.869 71.916 143.049 71.84 143.257 71.84ZM141.013 78.776C140.829 78.544 140.685 78.268 140.581 77.948C140.493 77.644 140.449 77.34 140.449 77.036C140.449 76.332 140.653 75.744 141.061 75.272C141.581 74.648 142.313 74.336 143.257 74.336C143.929 74.336 144.489 74.516 144.937 74.876C145.425 75.292 145.669 75.852 145.669 76.556V78.68C145.669 79.008 145.561 79.3 145.345 79.556C145.089 79.852 144.765 80 144.373 80H138.601V78.776H141.013ZM144.205 76.556C144.205 76.228 144.093 75.964 143.869 75.764C143.693 75.628 143.489 75.56 143.257 75.56C142.737 75.56 142.361 75.764 142.129 76.172C141.977 76.428 141.901 76.752 141.901 77.144C141.901 77.68 142.069 78.1 142.405 78.404C142.677 78.652 143.033 78.776 143.473 78.776H143.905C144.105 78.776 144.205 78.676 144.205 78.476V76.556ZM150.615 78.776C150.279 78.304 150.111 77.736 150.111 77.072C150.119 76.2 150.415 75.512 150.999 75.008C151.503 74.568 152.135 74.344 152.895 74.336C153.719 74.336 154.351 74.588 154.791 75.092C155.143 75.468 155.319 75.956 155.319 76.556V78.68C155.319 79.088 155.167 79.42 154.863 79.676C154.623 79.892 154.343 80 154.023 80H150.951C150.751 80 150.651 80.1 150.651 80.3V83.888L149.907 84.476H149.187V80.096C149.187 79.736 149.307 79.428 149.547 79.172C149.795 78.908 150.087 78.776 150.423 78.776H150.615ZM153.855 76.556C153.855 76.228 153.747 75.976 153.531 75.8C153.355 75.64 153.139 75.56 152.883 75.56C152.483 75.56 152.163 75.708 151.923 76.004C151.683 76.292 151.563 76.676 151.563 77.156C151.563 77.652 151.687 78.048 151.935 78.344C152.191 78.632 152.539 78.776 152.979 78.776H153.555C153.755 78.776 153.855 78.676 153.855 78.476V76.556ZM157.672 74.408C157.944 74.36 158.26 74.336 158.62 74.336C159.54 74.336 160.284 74.632 160.852 75.224C161.356 75.76 161.608 76.424 161.608 77.216V78.368C161.608 78.552 161.604 78.688 161.596 78.776H161.908V80H161.752L161.356 79.508H161.32C161.256 79.58 161.188 79.648 161.116 79.712C160.876 79.904 160.608 80 160.312 80H156.46V78.776H159.844C160.044 78.776 160.144 78.676 160.144 78.476V77.36C160.144 76.808 159.976 76.364 159.64 76.028C159.328 75.716 158.876 75.548 158.284 75.524C158.012 75.524 157.808 75.54 157.672 75.572V74.408ZM165.607 71.84C165.823 71.84 166.007 71.916 166.159 72.068C166.311 72.22 166.387 72.404 166.387 72.62C166.387 72.828 166.311 73.008 166.159 73.16C166.007 73.312 165.823 73.388 165.607 73.388C165.399 73.388 165.219 73.312 165.067 73.16C164.915 73.008 164.839 72.828 164.839 72.62C164.839 72.404 164.915 72.22 165.067 72.068C165.219 71.916 165.399 71.84 165.607 71.84ZM163.411 74.684C164.171 74.452 164.863 74.336 165.487 74.336C166.455 74.336 167.235 74.64 167.827 75.248C168.363 75.792 168.631 76.48 168.631 77.312V78.596V78.776H169.027V80H168.775L168.379 79.508H168.355C168.083 79.836 167.743 80 167.335 80H161.815V78.776H166.867C167.067 78.776 167.167 78.676 167.167 78.476V77.396C167.167 76.852 166.983 76.416 166.615 76.088C166.255 75.752 165.779 75.584 165.187 75.584C164.795 75.584 164.203 75.672 163.411 75.848V74.684ZM170.105 71.84C170.321 71.84 170.505 71.916 170.657 72.068C170.809 72.22 170.885 72.404 170.885 72.62C170.885 72.828 170.809 73.008 170.657 73.16C170.505 73.312 170.321 73.388 170.105 73.388C169.889 73.388 169.705 73.312 169.553 73.16C169.401 73.008 169.325 72.828 169.325 72.62C169.325 72.404 169.401 72.22 169.553 72.068C169.705 71.916 169.889 71.84 170.105 71.84ZM171.929 71.84C172.145 71.84 172.329 71.916 172.481 72.068C172.633 72.22 172.709 72.404 172.709 72.62C172.709 72.828 172.633 73.008 172.481 73.16C172.329 73.312 172.145 73.388 171.929 73.388C171.721 73.388 171.541 73.312 171.389 73.16C171.237 73.008 171.161 72.828 171.161 72.62C171.161 72.404 171.237 72.22 171.389 72.068C171.541 71.916 171.721 71.84 171.929 71.84ZM172.553 74.48V78.596V78.776H173.165V80H172.745L172.301 79.508H172.277C172.005 79.836 171.665 80 171.257 80H168.941V78.776H170.753C170.865 78.776 170.945 78.744 170.993 78.68C171.065 78.616 171.101 78.536 171.101 78.44V74.48H172.553ZM185.809 74.48V78.404V78.776H186.421V80H185.953L185.557 79.508H185.533C185.261 79.836 184.921 80 184.513 80H181.945L181.549 79.508H181.513C181.249 79.836 180.913 80 180.505 80H177.925L177.529 79.508H177.493C177.229 79.836 176.893 80 176.485 80H173.077V78.776H176.017C176.217 78.776 176.317 78.676 176.317 78.476V75.86H177.781V78.404C177.781 78.572 177.777 78.696 177.769 78.776H180.037C180.237 78.776 180.337 78.676 180.337 78.476V75.164H181.801V78.368C181.801 78.416 181.797 78.488 181.789 78.584C181.789 78.672 181.789 78.736 181.789 78.776H184.045C184.245 78.776 184.345 78.676 184.345 78.476V74.48H185.809ZM188.479 78.776C188.287 78.312 188.191 77.792 188.191 77.216C188.191 76.272 188.483 75.54 189.067 75.02C189.555 74.58 190.179 74.356 190.939 74.348C191.619 74.348 192.175 74.508 192.607 74.828C193.135 75.228 193.399 75.804 193.399 76.556V78.476C193.399 78.548 193.419 78.616 193.459 78.68C193.523 78.744 193.595 78.776 193.675 78.776H193.783V80H193.255C192.895 80 192.587 79.872 192.331 79.616C191.939 80.112 191.419 80.36 190.771 80.36C190.075 80.36 189.483 80.104 188.995 79.592H188.971L188.635 80H186.343V78.776H188.479ZM191.935 76.556C191.935 76.26 191.843 76.02 191.659 75.836C191.491 75.652 191.251 75.56 190.939 75.56C190.547 75.56 190.231 75.712 189.991 76.016C189.759 76.32 189.643 76.728 189.643 77.24C189.643 77.8 189.763 78.256 190.003 78.608C190.243 78.96 190.551 79.136 190.927 79.136C191.271 79.136 191.607 78.972 191.935 78.644V76.556ZM197.314 71.408V78.68C197.314 79.016 197.206 79.304 196.99 79.544C196.742 79.848 196.418 80 196.018 80H193.702V78.776H195.55C195.638 78.776 195.714 78.744 195.778 78.68C195.834 78.624 195.862 78.556 195.862 78.476V71.408H197.314ZM200.437 71.408V79.7L199.693 80.3H198.973V71.408H200.437ZM205.157 74.408C205.429 74.36 205.745 74.336 206.105 74.336C207.025 74.336 207.769 74.632 208.337 75.224C208.841 75.76 209.093 76.424 209.093 77.216V78.368C209.093 78.552 209.089 78.688 209.081 78.776H209.393V80H209.237L208.841 79.508H208.805C208.741 79.58 208.673 79.648 208.601 79.712C208.361 79.904 208.093 80 207.797 80H203.945V78.776H207.329C207.529 78.776 207.629 78.676 207.629 78.476V77.36C207.629 76.808 207.461 76.364 207.125 76.028C206.813 75.716 206.361 75.548 205.769 75.524C205.497 75.524 205.293 75.54 205.157 75.572V74.408ZM217.316 70.4C217.516 70.4 217.684 70.472 217.82 70.616C217.964 70.752 218.036 70.92 218.036 71.12C218.036 71.32 217.964 71.488 217.82 71.624C217.684 71.76 217.516 71.828 217.316 71.828C217.116 71.828 216.948 71.76 216.812 71.624C216.676 71.488 216.608 71.32 216.608 71.12C216.608 70.92 216.676 70.752 216.812 70.616C216.948 70.472 217.116 70.4 217.316 70.4ZM216.404 71.84C216.62 71.84 216.804 71.916 216.956 72.068C217.108 72.22 217.184 72.404 217.184 72.62C217.184 72.828 217.108 73.008 216.956 73.16C216.804 73.312 216.62 73.388 216.404 73.388C216.196 73.388 216.016 73.312 215.864 73.16C215.712 73.008 215.636 72.828 215.636 72.62C215.636 72.404 215.712 72.22 215.864 72.068C216.016 71.916 216.196 71.84 216.404 71.84ZM218.228 71.84C218.444 71.84 218.628 71.916 218.78 72.068C218.932 72.22 219.008 72.404 219.008 72.62C219.008 72.828 218.932 73.008 218.78 73.16C218.628 73.312 218.444 73.388 218.228 73.388C218.012 73.388 217.828 73.312 217.676 73.16C217.524 73.008 217.448 72.828 217.448 72.62C217.448 72.404 217.524 72.22 217.676 72.068C217.828 71.916 218.012 71.84 218.228 71.84ZM222.044 74.48V78.68C222.044 79.04 221.916 79.352 221.66 79.616C221.412 79.872 221.108 80 220.748 80H218.228L217.784 79.508H217.748C217.484 79.836 217.148 80 216.74 80H214.22L213.764 79.508H213.728C213.464 79.836 213.128 80 212.72 80H209.312V78.776H212.252C212.452 78.776 212.552 78.676 212.552 78.476V75.86H214.016V78.26C214.016 78.492 214.012 78.664 214.004 78.776H216.272C216.472 78.776 216.572 78.676 216.572 78.476V75.164H218.036V78.368C218.036 78.416 218.032 78.488 218.024 78.584C218.024 78.672 218.024 78.736 218.024 78.776H220.28C220.48 78.776 220.58 78.676 220.58 78.476V74.48H222.044ZM226.227 74.48V78.776H226.839V80H226.215C226.151 80.96 225.771 81.696 225.075 82.208C224.499 82.632 223.791 82.844 222.951 82.844C222.807 82.844 222.651 82.84 222.483 82.832L221.895 82.1V81.584C222.151 81.624 222.399 81.644 222.639 81.644C224.055 81.644 224.763 80.956 224.763 79.58V74.48H226.227ZM228.909 76.556C228.909 75.796 229.173 75.22 229.701 74.828C230.117 74.508 230.685 74.348 231.405 74.348C232.109 74.348 232.705 74.556 233.193 74.972C233.809 75.5 234.117 76.248 234.117 77.216C234.117 78.128 233.873 78.884 233.385 79.484C232.913 80.068 232.301 80.36 231.549 80.36C230.885 80.36 230.361 80.112 229.977 79.616C229.721 79.872 229.409 80 229.041 80H226.749V78.776H228.597C228.685 78.776 228.761 78.744 228.825 78.68C228.881 78.624 228.909 78.556 228.909 78.476V76.556ZM230.361 78.644C230.657 78.964 230.997 79.124 231.381 79.124C231.757 79.124 232.065 78.96 232.305 78.632C232.545 78.296 232.665 77.864 232.665 77.336C232.665 76.76 232.533 76.308 232.269 75.98C232.029 75.7 231.717 75.56 231.333 75.56C231.045 75.56 230.817 75.652 230.649 75.836C230.457 76.012 230.361 76.252 230.361 76.556V78.644Z" fill="black"/>
<g clip-path="url(#clip0_3378_9804)">
<path d="M334 65.4171L305.108 79.0235L298.787 82L285.113 76.3144L273.444 71.4623L272.475 71.0596L271.055 66.7676L265.407 49.7047L262.572 41.1388L261.72 38.564L261.103 36.7005L259.729 32.5487L257.504 25.8272L262.364 23.5389L267.005 21.3528L270.342 19.7819L312.347 0L334 65.4171Z" fill="white"/>
<path d="M245.095 43.7072C245.446 43.6166 245.812 43.696 246.114 43.9278C246.416 44.1597 246.628 44.525 246.704 44.9435C246.78 45.362 246.713 45.7993 246.519 46.1593C246.325 46.5193 246.018 46.7724 245.668 46.863C244.937 47.0517 243 45.9 243 45.9C243 45.9 244.364 43.8959 245.095 43.7072Z" fill="#006466"/>
<path d="M245.418 76.8539C245.648 76.5248 245.978 76.3181 246.335 76.2792C246.693 76.2402 247.049 76.3722 247.324 76.6462C247.6 76.9202 247.774 77.3137 247.806 77.7401C247.839 78.1665 247.728 78.5909 247.499 78.92C247.02 79.6052 244.899 80.1202 244.899 80.1202C244.899 80.1202 244.94 77.5391 245.418 76.8539Z" fill="#006466"/>
<path d="M304.119 24.2897C301.939 19.8951 297.625 19.6903 297.625 19.6903C297.625 19.6903 293.421 19.0491 290.725 25.7421C288.211 31.9806 284.742 38.0039 290.166 39.4643L291.146 35.8272L291.753 39.7351C292.525 39.8013 293.299 39.8171 294.073 39.7824C299.882 39.5587 305.413 39.8479 305.235 37.3617C304.998 34.0567 306.217 28.5182 304.119 24.2897Z" fill="#2F2E41"/>
<path d="M295.169 33.4872C295.921 35.4696 296.394 37.8326 296.677 40.4574L302.709 40.0077C301.322 37.6637 300.862 34.9733 301.39 31.9133L295.169 33.4872Z" fill="#FFB8B8"/>
<path opacity="0.2" d="M295.169 33.4872C295.921 35.4696 296.394 37.8326 296.677 40.4574L302.709 40.0077C301.322 37.6637 300.862 34.9733 301.39 31.9133L295.169 33.4872Z" fill="black"/>
<path d="M267.182 71.2312C267.182 71.2312 264.06 73.2259 265.645 74.9288C267.229 76.6318 269.322 72.6746 269.322 72.6746L267.182 71.2312Z" fill="#FFB8B8"/>
<path d="M305.348 65.415L305.3 68.1401L305.195 74.0281L305.108 79.0234L298.787 82L285.113 76.3144L286.013 70.3563L286.74 65.5453L287.064 63.3913L303.463 60.6932L305.348 65.415Z" fill="#2F2E41"/>
<path d="M305.348 65.415L305.299 68.14C299.497 67.9624 290.504 66.2918 286.739 65.5453L287.064 63.3914L303.463 60.6932L305.348 65.415Z" fill="#3F3D56"/>
<path d="M298.091 35.3984C300.694 35.3984 302.804 32.8818 302.804 29.7773C302.804 26.6729 300.694 24.1562 298.091 24.1562C295.488 24.1562 293.378 26.6729 293.378 29.7773C293.378 32.8818 295.488 35.3984 298.091 35.3984Z" fill="#FFB8B8"/>
<path d="M307.139 68.4504C307.139 68.4504 307.705 74.5211 304.312 74.0714L303.746 68.0007L300.73 64.4032L292.247 64.1783L286.027 71.1485C286.027 71.1485 285.838 63.9535 286.592 63.279C287.346 62.6044 289.043 61.0305 289.043 61.0305V59.9063L283.953 47.5399C283.953 47.5399 286.969 40.1201 289.42 39.8953L292.624 39.6704C292.624 39.6704 293.755 38.9959 293.755 38.771C293.755 38.5462 293.567 36.7474 294.509 37.1971C294.509 37.1971 294.594 34.8902 295.588 35.594C295.588 35.594 298.715 38.517 301.889 35.7222C301.889 35.7222 303.369 35.3984 303.181 36.2978C302.992 37.1971 303.181 37.8717 303.558 37.8717C303.935 37.8717 305.631 38.5462 305.631 38.9959C305.631 39.0926 305.754 40.0234 305.946 41.4242V41.4264C306.645 46.5326 308.27 57.8827 308.27 57.8827C308.27 57.8827 309.967 60.8057 307.139 68.4504Z" fill="#006466"/>
<path d="M285.273 46.4158L283.953 47.54L271.889 65.9771L265.48 72.0479C265.48 72.0479 269.062 71.3734 268.308 74.9709L290.362 59.9064L285.273 46.4158Z" fill="#006466"/>
<path d="M305.946 41.4242V41.4265C305.695 43.1848 297.525 42.8183 296.394 42.8183C295.263 42.8183 294.321 42.5934 293.19 41.694C292.059 40.7947 292.624 39.6705 292.624 39.6705C292.624 39.6705 293.587 38.7956 293.587 38.5707C293.587 38.3459 293.399 36.5471 294.341 36.9968C294.341 36.9968 294.426 34.6899 295.42 35.3937C295.42 35.3937 298.715 38.517 301.889 35.7222C301.889 35.7222 303.369 35.3984 303.181 36.2978C302.992 37.1972 303.181 37.8717 303.558 37.8717C303.935 37.8717 305.631 38.5462 305.631 38.9959C305.631 39.0926 305.754 40.0235 305.946 41.4242Z" fill="#3F3D56"/>
<path d="M304.971 33.0376C304.971 33.0376 303.463 29.2153 301.955 31.014C300.447 32.8128 303.652 35.5109 303.652 35.5109L304.971 33.0376Z" fill="#FFB8B8"/>
<path d="M304.971 32.1382C304.971 32.1382 302.643 35.6483 301.922 35.9169C301.922 35.9169 304.029 45.8536 306.668 48.5517L308.176 57.7703C308.176 57.7703 314.585 54.6225 313.077 49.4511C313.062 49.3994 313.047 49.348 313.032 49.2969C311.773 44.9902 310.035 40.9044 307.865 37.1488L304.971 32.1382Z" fill="#006466"/>
<path opacity="0.2" d="M303.727 42.5491L308.364 57.7703L306.668 48.5517L303.727 42.5491Z" fill="black"/>
<path d="M303.155 23.866L298.893 21.2032L293.008 22.2926L291.79 28.7076L294.821 28.5685L295.668 26.2117V28.5296L297.067 28.4654L297.878 24.7133L298.386 28.7076L303.358 28.5865L303.155 23.866Z" fill="#2F2E41"/>
<path d="M266.593 73.9837C263.664 72.0356 261.84 69.376 261.172 66.0787C260.677 63.6306 260.819 60.8757 261.596 57.8907C262.171 55.6898 263.034 53.611 264.152 51.7307C270.085 41.7134 270.621 35.1861 270.025 31.4743C269.372 27.4044 267.251 25.7141 267.23 25.6975L267.321 25.5295C267.343 25.5465 269.52 27.2761 270.189 31.4285C270.575 33.8225 270.393 36.5522 269.65 39.5418C268.725 43.2625 266.922 47.4023 264.29 51.8464C263.181 53.7094 262.326 55.7692 261.756 57.9499C260.483 62.8458 260.303 69.5713 266.675 73.8087L266.593 73.9837Z" fill="#2F2E41"/>
<path d="M261.243 55.4348C258.933 53.8991 258.997 51.4653 259.458 49.694C259.662 48.9128 259.968 48.1749 260.365 47.5074C262.444 43.998 262.632 41.7183 262.423 40.4238C262.197 39.0181 261.471 38.441 261.463 38.4353L261.555 38.2673C261.587 38.2923 262.349 38.8974 262.588 40.386C262.9 42.3245 262.199 44.7593 260.503 47.6231C260.116 48.2733 259.817 48.9922 259.618 49.7533C259.176 51.4539 259.113 53.7896 261.324 55.2599L261.243 55.4348Z" fill="#2F2E41"/>
<path d="M271.634 33.1935L271.552 33.0184C273.763 31.5481 273.7 29.2123 273.258 27.5119C273.059 26.7508 272.761 26.0318 272.374 25.3816C270.678 22.5179 269.976 20.083 270.288 18.1446C270.528 16.6559 271.289 16.0509 271.322 16.0259L271.413 16.1938C271.406 16.1995 270.676 16.7842 270.452 18.1903C270.246 19.484 270.436 21.7618 272.511 25.266C272.908 25.9334 273.214 26.6713 273.419 27.4525C273.879 29.2238 273.944 31.6576 271.634 33.1935Z" fill="#2F2E41"/>
<path d="M276.565 23.2246C276.385 23.5553 276.151 23.8404 275.878 24.0634C275.605 24.2864 275.297 24.4431 274.974 24.5244C274.65 24.6057 274.316 24.6102 273.99 24.5374C273.665 24.4647 273.355 24.3163 273.078 24.1005C272.8 23.8848 272.561 23.6061 272.375 23.2802C272.188 22.9544 272.057 22.5878 271.988 22.2014C271.92 21.8151 271.917 21.4165 271.978 21.0285C272.039 20.6405 272.164 20.2706 272.344 19.9401C273.105 18.5498 276.933 17.0513 276.933 17.0513C276.933 17.0513 277.326 21.8344 276.565 23.2246Z" fill="#006466"/>
<path d="M275.641 13.9072C275.461 14.238 275.227 14.523 274.954 14.746C274.681 14.969 274.373 15.1257 274.05 15.207C273.726 15.2884 273.392 15.2928 273.066 15.2201C272.741 15.1473 272.431 14.9989 272.154 14.7832C271.876 14.5674 271.638 14.2887 271.451 13.9628C271.264 13.637 271.133 13.2704 271.065 12.8841C270.996 12.4977 270.993 12.0991 271.054 11.7111C271.115 11.3231 271.24 10.9532 271.421 10.6227C272.181 9.23243 276.009 7.73389 276.009 7.73389C276.009 7.73389 276.402 12.517 275.641 13.9072Z" fill="#006466"/>
<path d="M271.58 48.0426C270.989 48.0437 270.415 47.8049 269.953 47.3653C269.49 46.9257 269.167 46.3116 269.037 45.624C268.906 44.9363 268.975 44.216 269.233 43.5816C269.491 42.9471 269.922 42.4363 270.456 42.133C271.724 41.4122 275.528 42.4674 275.69 42.5127L275.792 42.5414L275.746 42.6539C275.674 42.8318 273.964 47.0201 272.696 47.7408C272.347 47.9394 271.966 48.0425 271.58 48.0426ZM271.792 42.0824C271.276 42.0824 270.824 42.146 270.528 42.3139C269.945 42.6453 269.496 43.2395 269.28 43.9657C269.064 44.692 269.099 45.4908 269.377 46.1865C269.655 46.8822 270.153 47.4177 270.762 47.6753C271.37 47.9329 272.04 47.8914 272.623 47.5601C273.727 46.933 275.262 43.3645 275.548 42.6799C275.09 42.5584 273.203 42.0824 271.792 42.0824Z" fill="#2F2E41"/>
<path d="M266.445 20.467C266.69 20.7329 266.888 21.0537 267.028 21.411C267.169 21.7683 267.249 22.1551 267.264 22.5494C267.28 22.9437 267.23 23.3377 267.117 23.7089C267.005 24.0802 266.832 24.4214 266.609 24.713C266.386 25.0047 266.117 25.2411 265.818 25.4088C265.518 25.5765 265.194 25.6721 264.863 25.6903C264.533 25.7085 264.203 25.6489 263.891 25.5148C263.58 25.3807 263.294 25.1748 263.05 24.9089C262.021 23.7904 261.396 19.0427 261.396 19.0427C261.396 19.0427 265.417 19.3485 266.445 20.467Z" fill="#006466"/>
<path d="M260.566 33.0905C261.059 33.6276 261.354 34.3767 261.385 35.173C261.416 35.9693 261.18 36.7475 260.73 37.3366C260.279 37.9256 259.651 38.2771 258.984 38.3139C258.316 38.3506 257.664 38.0695 257.17 37.5324C256.142 36.414 255.516 31.6663 255.516 31.6663C255.516 31.6663 259.537 31.9721 260.566 33.0905Z" fill="#006466"/>
<path d="M267.156 34.8608C266.315 34.8608 264.707 33.9109 264.633 33.867L264.539 33.8112L264.605 33.7142C264.662 33.6313 265.996 31.6805 266.747 31.4866C267.12 31.3904 267.509 31.4746 267.83 31.7209C268.15 31.9671 268.376 32.3552 268.456 32.7996C268.537 33.2441 268.466 33.7086 268.26 34.0909C268.054 34.4732 267.728 34.7421 267.356 34.8383C267.29 34.8542 267.223 34.8617 267.156 34.8608ZM264.803 33.7429C265.2 33.9685 266.717 34.7984 267.32 34.6424C267.649 34.5572 267.936 34.3197 268.118 33.9822C268.3 33.6446 268.363 33.2346 268.291 32.8422C268.22 32.4499 268.021 32.1073 267.738 31.8898C267.455 31.6724 267.112 31.5978 266.783 31.6824C266.179 31.8384 265.086 33.3422 264.803 33.7429Z" fill="#2F2E41"/>
<path d="M258.136 75.6234C258.312 75.2511 258.606 74.9779 258.952 74.8637C259.298 74.7495 259.667 74.8038 259.98 75.0146C260.292 75.2253 260.521 75.5754 260.617 75.9877C260.713 76.4001 260.668 76.8411 260.492 77.2137C260.123 77.9897 258.114 78.9477 258.114 78.9477C258.114 78.9477 257.767 76.3995 258.136 75.6234Z" fill="#006466"/>
<path d="M253.739 58.4328C253.159 58.4217 252.581 58.3622 252.008 58.2548L251.905 58.2347L251.944 58.1187C251.977 58.0195 252.766 55.684 253.435 55.233C253.599 55.1222 253.78 55.0511 253.968 55.0237C254.155 54.9963 254.345 55.0132 254.527 55.0735C254.709 55.1337 254.879 55.2361 255.028 55.3748C255.177 55.5135 255.301 55.6857 255.394 55.8817C255.487 56.0777 255.546 56.2937 255.569 56.5171C255.592 56.7406 255.578 56.9673 255.528 57.1843C255.477 57.4013 255.391 57.6042 255.275 57.7816C255.159 57.959 255.014 58.1074 254.85 58.2182C254.61 58.3802 254.187 58.4328 253.739 58.4328ZM252.14 58.0758C252.575 58.1509 254.23 58.4062 254.767 58.0438C255.061 57.8462 255.276 57.5177 255.366 57.1308C255.456 56.7438 255.413 56.33 255.248 55.9803C255.082 55.6307 254.807 55.374 254.482 55.2665C254.158 55.159 253.811 55.2097 253.518 55.4074C252.98 55.7699 252.31 57.5932 252.14 58.0758Z" fill="#2F2E41"/>
</g>
<path d="M56.59 92.2C56.69 92.2 56.7767 92.2367 56.85 92.31C56.93 92.3833 56.97 92.4733 56.97 92.58C56.97 92.68 56.93 92.77 56.85 92.85C56.7767 92.9233 56.69 92.96 56.59 92.96C56.4833 92.96 56.3933 92.9233 56.32 92.85C56.2467 92.77 56.21 92.68 56.21 92.58C56.21 92.4733 56.2467 92.3833 56.32 92.31C56.3933 92.2367 56.4833 92.2 56.59 92.2ZM57.57 92.2C57.6767 92.2 57.7667 92.2367 57.84 92.31C57.9133 92.3833 57.95 92.4733 57.95 92.58C57.95 92.68 57.9133 92.77 57.84 92.85C57.7667 92.9233 57.6767 92.96 57.57 92.96C57.47 92.96 57.3833 92.9233 57.31 92.85C57.2367 92.77 57.2 92.68 57.2 92.58C57.2 92.4733 57.2367 92.3833 57.31 92.31C57.3833 92.2367 57.47 92.2 57.57 92.2ZM57.05 99C56.3167 99 55.7533 98.7833 55.36 98.35C54.9867 97.93 54.8 97.3533 54.8 96.62C54.8 95.8733 55 95.2967 55.4 94.89C55.7933 94.4833 56.35 94.28 57.07 94.28C57.6167 94.28 58.05 94.42 58.37 94.7C58.7433 95.0133 58.93 95.47 58.93 96.07V98.47H59.25V99H58.93C58.93 99.7667 58.71 100.357 58.27 100.77C57.83 101.183 57.21 101.39 56.41 101.39H55.21C54.4567 101.39 53.8633 101.207 53.43 100.84C52.9367 100.427 52.69 99.82 52.69 99.02V97.39L52.98 97.15H53.27V99.03C53.27 99.7233 53.4533 100.203 53.82 100.47C54.1867 100.737 54.85 100.87 55.81 100.87C56.69 100.87 57.3167 100.75 57.69 100.51C58.13 100.223 58.35 99.72 58.35 99H57.05ZM58.35 96.08C58.35 95.68 58.2433 95.37 58.03 95.15C57.7967 94.9233 57.48 94.81 57.08 94.81C56.5 94.81 56.0633 94.9833 55.77 95.33C55.51 95.6433 55.38 96.0733 55.38 96.62C55.38 97.0267 55.4533 97.38 55.6 97.68C55.8667 98.2067 56.3033 98.47 56.91 98.47H58.35V96.08ZM61.557 94.4V98.17C61.557 98.2633 61.537 98.3633 61.497 98.47H62.047V99H61.617L61.397 98.69H61.367C61.1937 98.8967 60.987 99 60.747 99H59.167V98.47H60.517C60.677 98.47 60.797 98.4233 60.877 98.33C60.9504 98.25 60.987 98.14 60.987 98V94.4H61.557ZM60.197 100.27C60.3037 100.27 60.3937 100.307 60.467 100.38C60.5404 100.453 60.577 100.543 60.577 100.65C60.577 100.75 60.5404 100.837 60.467 100.91C60.3937 100.99 60.3037 101.03 60.197 101.03C60.097 101.03 60.007 100.99 59.927 100.91C59.8537 100.837 59.817 100.75 59.817 100.65C59.817 100.543 59.8537 100.453 59.927 100.38C60.007 100.307 60.097 100.27 60.197 100.27ZM61.187 100.27C61.287 100.27 61.3737 100.307 61.447 100.38C61.5204 100.453 61.557 100.543 61.557 100.65C61.557 100.75 61.5204 100.837 61.447 100.91C61.3737 100.99 61.287 101.03 61.187 101.03C61.0804 101.03 60.9904 100.99 60.917 100.91C60.8437 100.837 60.807 100.75 60.807 100.65C60.807 100.543 60.8437 100.453 60.917 100.38C60.9904 100.307 61.0804 100.27 61.187 100.27ZM64.3695 94.4V98.17C64.3695 98.2633 64.3495 98.3633 64.3095 98.47H64.8595V99H64.4295L64.2095 98.69H64.1795C64.0062 98.8967 63.7995 99 63.5595 99H61.9795V98.47H63.3295C63.4895 98.47 63.6095 98.4233 63.6895 98.33C63.7629 98.25 63.7995 98.14 63.7995 98V94.4H64.3695ZM64.0195 100.27C64.1195 100.27 64.2062 100.307 64.2795 100.38C64.3595 100.453 64.3995 100.543 64.3995 100.65C64.3995 100.75 64.3595 100.837 64.2795 100.91C64.2062 100.99 64.1195 101.03 64.0195 101.03C63.9129 101.03 63.8229 100.99 63.7495 100.91C63.6762 100.837 63.6395 100.75 63.6395 100.65C63.6395 100.543 63.6762 100.453 63.7495 100.38C63.8229 100.307 63.9129 100.27 64.0195 100.27ZM67.162 91.84V97.09C67.7287 95.9767 68.3687 95.2033 69.082 94.77C69.6287 94.4433 70.2854 94.28 71.052 94.28C71.7454 94.28 72.3187 94.4933 72.772 94.92C73.2387 95.3733 73.472 95.9667 73.472 96.7V98.17C73.472 98.2633 73.452 98.3633 73.412 98.47H73.952V99H73.522L73.302 98.69H73.282C73.1087 98.8967 72.902 99 72.662 99H64.792V98.47H66.592V91.84H67.162ZM72.892 96.51C72.892 95.99 72.7354 95.58 72.422 95.28C72.0687 94.94 71.5954 94.77 71.002 94.77C70.3754 94.77 69.8254 94.9233 69.352 95.23C68.4387 95.8167 67.7154 96.8967 67.182 98.47H72.422C72.7354 98.47 72.892 98.3133 72.892 98V96.51ZM75.0038 92.2C75.1105 92.2 75.2005 92.2367 75.2738 92.31C75.3472 92.3833 75.3838 92.4733 75.3838 92.58C75.3838 92.68 75.3472 92.77 75.2738 92.85C75.2005 92.9233 75.1105 92.96 75.0038 92.96C74.9038 92.96 74.8172 92.9233 74.7438 92.85C74.6705 92.77 74.6338 92.68 74.6338 92.58C74.6338 92.4733 74.6705 92.3833 74.7438 92.31C74.8172 92.2367 74.9038 92.2 75.0038 92.2ZM75.9938 92.2C76.0938 92.2 76.1805 92.2367 76.2538 92.31C76.3338 92.3833 76.3738 92.4733 76.3738 92.58C76.3738 92.68 76.3338 92.77 76.2538 92.85C76.1805 92.9233 76.0938 92.96 75.9938 92.96C75.8872 92.96 75.7972 92.9233 75.7238 92.85C75.6505 92.77 75.6138 92.68 75.6138 92.58C75.6138 92.4733 75.6505 92.3833 75.7238 92.31C75.7972 92.2367 75.8872 92.2 75.9938 92.2ZM76.2738 94.4V98.17C76.2738 98.2633 76.2538 98.3633 76.2138 98.47H76.7638V99H76.3338L76.1138 98.69H76.0838C75.9105 98.8967 75.7038 99 75.4638 99H73.8838V98.47H75.2338C75.3938 98.47 75.5138 98.4233 75.5938 98.33C75.6672 98.25 75.7038 98.14 75.7038 98V94.4H76.2738ZM79.0863 91.84V98.17C79.0863 98.3967 79.003 98.5933 78.8363 98.76C78.6763 98.92 78.4897 99 78.2763 99H76.6963V98.47H78.0463C78.193 98.47 78.3063 98.4333 78.3863 98.36C78.473 98.2733 78.5163 98.1533 78.5163 98V91.84H79.0863ZM81.0532 91.84V99.01L80.7532 99.25H80.4732V91.84H81.0532ZM85.612 98.47C85.1587 98.0367 84.932 97.4633 84.932 96.75C84.932 95.9633 85.152 95.3467 85.592 94.9C85.9854 94.4933 86.5087 94.29 87.162 94.29C87.7354 94.29 88.182 94.4267 88.502 94.7C88.8554 95.0067 89.032 95.4667 89.032 96.08V98.17C89.032 98.3967 88.9454 98.5933 88.772 98.76C88.6187 98.92 88.4354 99 88.222 99H85.172C84.8654 99 84.712 99.1567 84.712 99.47V102.49L84.412 102.73H84.132V99.3C84.132 99.0867 84.212 98.8967 84.372 98.73C84.5387 98.5567 84.7287 98.47 84.942 98.47H85.612ZM88.452 96.08C88.452 95.6867 88.3187 95.3633 88.052 95.11C87.8187 94.9167 87.522 94.82 87.162 94.82C86.622 94.82 86.1954 95.04 85.882 95.48C85.6287 95.8333 85.502 96.2533 85.502 96.74C85.502 97.2933 85.652 97.7267 85.952 98.04C86.2187 98.3267 86.5787 98.47 87.032 98.47H87.992C88.2987 98.47 88.452 98.3133 88.452 98V96.08ZM90.8579 91.84V99.01L90.5579 99.25H90.2779V91.84H90.8579ZM92.9508 94.34C93.2174 94.2933 93.4841 94.27 93.7508 94.27C94.4441 94.27 95.0108 94.4833 95.4508 94.91C95.8508 95.3033 96.0508 95.8033 96.0508 96.41V98.17C96.0508 98.27 96.0308 98.37 95.9908 98.47H96.5308V99H96.1008L95.8808 98.69H95.8608C95.8408 98.7033 95.8174 98.7267 95.7908 98.76C95.6374 98.92 95.4541 99 95.2408 99H91.9408V98.47H95.0008C95.3141 98.47 95.4708 98.3133 95.4708 98V96.53C95.4708 95.91 95.2541 95.4433 94.8208 95.13C94.4741 94.87 94.0241 94.74 93.4708 94.74C93.2841 94.74 93.1108 94.7533 92.9508 94.78V94.34ZM99.6122 92.2C99.7189 92.2 99.8089 92.2367 99.8822 92.31C99.9555 92.3833 99.9922 92.4733 99.9922 92.58C99.9922 92.68 99.9555 92.77 99.8822 92.85C99.8089 92.9233 99.7189 92.96 99.6122 92.96C99.5122 92.96 99.4222 92.9233 99.3422 92.85C99.2689 92.77 99.2322 92.68 99.2322 92.58C99.2322 92.4733 99.2689 92.3833 99.3422 92.31C99.4222 92.2367 99.5122 92.2 99.6122 92.2ZM97.7822 94.55C98.3755 94.3633 98.9122 94.27 99.3922 94.27C100.106 94.27 100.682 94.5 101.122 94.96C101.516 95.3667 101.712 95.8767 101.712 96.49V98.17C101.712 98.2633 101.692 98.3633 101.652 98.47H102.032V99H101.772L101.542 98.69H101.522C101.342 98.8967 101.136 99 100.902 99H96.4522V98.47H100.662C100.976 98.47 101.132 98.3133 101.132 98V96.68C101.132 95.4133 100.502 94.78 99.2422 94.78C98.7889 94.78 98.3022 94.8567 97.7822 95.01V94.55ZM103.08 92.2C103.187 92.2 103.277 92.2367 103.35 92.31C103.423 92.3833 103.46 92.4733 103.46 92.58C103.46 92.68 103.423 92.77 103.35 92.85C103.277 92.9233 103.187 92.96 103.08 92.96C102.98 92.96 102.893 92.9233 102.82 92.85C102.747 92.77 102.71 92.68 102.71 92.58C102.71 92.4733 102.747 92.3833 102.82 92.31C102.893 92.2367 102.98 92.2 103.08 92.2ZM104.07 92.2C104.17 92.2 104.257 92.2367 104.33 92.31C104.41 92.3833 104.45 92.4733 104.45 92.58C104.45 92.68 104.41 92.77 104.33 92.85C104.257 92.9233 104.17 92.96 104.07 92.96C103.963 92.96 103.873 92.9233 103.8 92.85C103.727 92.77 103.69 92.68 103.69 92.58C103.69 92.4733 103.727 92.3833 103.8 92.31C103.873 92.2367 103.963 92.2 104.07 92.2ZM104.35 94.4V98.17C104.35 98.2633 104.33 98.3633 104.29 98.47H104.84V99H104.41L104.19 98.69H104.16C103.987 98.8967 103.78 99 103.54 99H101.96V98.47H103.31C103.47 98.47 103.59 98.4233 103.67 98.33C103.743 98.25 103.78 98.14 103.78 98V94.4H104.35ZM113.453 94.4V98.17C113.453 98.39 113.373 98.5833 113.213 98.75C113.053 98.9167 112.863 99 112.643 99H110.813L110.583 98.69H110.563C110.389 98.8967 110.183 99 109.943 99H108.113L107.883 98.69H107.863C107.689 98.8967 107.483 99 107.243 99H104.772V98.47H107.003C107.316 98.47 107.473 98.3133 107.473 98V95.55H108.053V98.17C108.053 98.27 108.033 98.37 107.993 98.47H109.703C110.016 98.47 110.173 98.3133 110.173 98V94.97H110.753V98.17C110.753 98.2633 110.733 98.3633 110.692 98.47H112.413C112.726 98.47 112.883 98.3133 112.883 98V94.4H113.453ZM115.418 91.84V99.01L115.118 99.25H114.838V91.84H115.418ZM121.247 92.2C121.347 92.2 121.434 92.2367 121.507 92.31C121.587 92.3833 121.627 92.4733 121.627 92.58C121.627 92.68 121.587 92.77 121.507 92.85C121.434 92.9233 121.347 92.96 121.247 92.96C121.141 92.96 121.051 92.9233 120.977 92.85C120.904 92.77 120.867 92.68 120.867 92.58C120.867 92.4733 120.904 92.3833 120.977 92.31C121.051 92.2367 121.141 92.2 121.247 92.2ZM122.227 92.2C122.334 92.2 122.424 92.2367 122.497 92.31C122.571 92.3833 122.607 92.4733 122.607 92.58C122.607 92.68 122.571 92.77 122.497 92.85C122.424 92.9233 122.334 92.96 122.227 92.96C122.127 92.96 122.041 92.9233 121.967 92.85C121.894 92.77 121.857 92.68 121.857 92.58C121.857 92.4733 121.894 92.3833 121.967 92.31C122.041 92.2367 122.127 92.2 122.227 92.2ZM122.617 94.21V98C122.617 98.14 122.657 98.25 122.737 98.33C122.831 98.4233 122.941 98.47 123.067 98.47H123.077V99H122.837C122.564 99 122.337 98.8833 122.157 98.65C121.664 98.9633 121.164 99.12 120.657 99.12C119.957 99.12 119.404 98.86 118.997 98.34C118.664 97.9133 118.497 97.39 118.497 96.77C118.497 95.99 118.751 95.3567 119.257 94.87C119.704 94.4433 120.257 94.23 120.917 94.23C121.297 94.23 121.667 94.3067 122.027 94.46L122.327 94.21H122.617ZM122.027 94.99C121.694 94.8167 121.351 94.73 120.997 94.73C120.404 94.73 119.921 94.9567 119.547 95.41C119.241 95.79 119.087 96.2433 119.087 96.77C119.087 97.3433 119.257 97.8 119.597 98.14C119.897 98.4333 120.281 98.58 120.747 98.58C121.114 98.58 121.544 98.4467 122.037 98.18L122.027 94.99ZM125.395 94.4V98.17C125.395 98.2633 125.375 98.3633 125.335 98.47H125.885V99H125.455L125.235 98.69H125.205C125.032 98.8967 124.825 99 124.585 99H123.005V98.47H124.355C124.515 98.47 124.635 98.4233 124.715 98.33C124.788 98.25 124.825 98.14 124.825 98V94.4H125.395ZM124.035 100.27C124.142 100.27 124.232 100.307 124.305 100.38C124.378 100.453 124.415 100.543 124.415 100.65C124.415 100.75 124.378 100.837 124.305 100.91C124.232 100.99 124.142 101.03 124.035 101.03C123.935 101.03 123.845 100.99 123.765 100.91C123.692 100.837 123.655 100.75 123.655 100.65C123.655 100.543 123.692 100.453 123.765 100.38C123.845 100.307 123.935 100.27 124.035 100.27ZM125.025 100.27C125.125 100.27 125.212 100.307 125.285 100.38C125.358 100.453 125.395 100.543 125.395 100.65C125.395 100.75 125.358 100.837 125.285 100.91C125.212 100.99 125.125 101.03 125.025 101.03C124.918 101.03 124.828 100.99 124.755 100.91C124.682 100.837 124.645 100.75 124.645 100.65C124.645 100.543 124.682 100.453 124.755 100.38C124.828 100.307 124.918 100.27 125.025 100.27ZM129.557 92.2C129.657 92.2 129.744 92.2367 129.817 92.31C129.897 92.3833 129.937 92.4733 129.937 92.58C129.937 92.68 129.897 92.77 129.817 92.85C129.744 92.9233 129.657 92.96 129.557 92.96C129.451 92.96 129.361 92.9233 129.287 92.85C129.214 92.77 129.177 92.68 129.177 92.58C129.177 92.4733 129.214 92.3833 129.287 92.31C129.361 92.2367 129.451 92.2 129.557 92.2ZM128.127 98.47C127.627 97.97 127.377 97.3567 127.377 96.63C127.377 95.87 127.591 95.2767 128.017 94.85C128.391 94.47 128.874 94.28 129.467 94.28C130.034 94.28 130.504 94.4567 130.877 94.81C131.337 95.2433 131.567 95.85 131.567 96.63C131.567 97.35 131.314 97.9633 130.807 98.47H131.817V99H130.427C130.394 99 130.341 99 130.267 99C130.207 99 130.164 99 130.137 99C129.831 99 129.611 98.9833 129.477 98.95H129.457C129.324 98.9833 129.101 99 128.787 99H128.637C128.577 99 128.531 99 128.497 99H125.817V98.47H128.127ZM129.467 94.81C128.934 94.81 128.534 95.01 128.267 95.41C128.054 95.7233 127.947 96.1267 127.947 96.62C127.947 97.1467 128.094 97.5867 128.387 97.94C128.667 98.2733 129.027 98.4533 129.467 98.48C129.967 98.4467 130.361 98.2167 130.647 97.79C130.874 97.45 130.987 97.06 130.987 96.62C130.987 96.0267 130.841 95.57 130.547 95.25C130.281 94.9567 129.921 94.81 129.467 94.81ZM134.135 94.4V98.17C134.135 98.2633 134.115 98.3633 134.075 98.47H134.625V99H134.195L133.975 98.69H133.945C133.772 98.8967 133.565 99 133.325 99H131.745V98.47H133.095C133.255 98.47 133.375 98.4233 133.455 98.33C133.528 98.25 133.565 98.14 133.565 98V94.4H134.135ZM132.775 100.27C132.882 100.27 132.972 100.307 133.045 100.38C133.118 100.453 133.155 100.543 133.155 100.65C133.155 100.75 133.118 100.837 133.045 100.91C132.972 100.99 132.882 101.03 132.775 101.03C132.675 101.03 132.585 100.99 132.505 100.91C132.432 100.837 132.395 100.75 132.395 100.65C132.395 100.543 132.432 100.453 132.505 100.38C132.585 100.307 132.675 100.27 132.775 100.27ZM133.765 100.27C133.865 100.27 133.952 100.307 134.025 100.38C134.098 100.453 134.135 100.543 134.135 100.65C134.135 100.75 134.098 100.837 134.025 100.91C133.952 100.99 133.865 101.03 133.765 101.03C133.658 101.03 133.568 100.99 133.495 100.91C133.422 100.837 133.385 100.75 133.385 100.65C133.385 100.543 133.422 100.453 133.495 100.38C133.568 100.307 133.658 100.27 133.765 100.27ZM138.808 91.68V92.19L136.138 93.72C137.198 93.9 138.088 94.4333 138.808 95.32C139.441 96.0933 139.758 96.94 139.758 97.86C139.758 98.1333 139.728 98.3367 139.668 98.47H139.998V99H139.798L139.578 98.69H139.548C139.394 98.8967 139.184 99 138.918 99H134.558V98.47H138.688C139.021 98.47 139.188 98.25 139.188 97.81C139.188 96.87 138.801 96.0267 138.028 95.28C137.374 94.6533 136.641 94.2933 135.828 94.2C135.794 94.1933 135.778 94.1733 135.778 94.14V93.42L138.808 91.68ZM142.319 91.84V98.17C142.319 98.3967 142.235 98.5933 142.069 98.76C141.909 98.92 141.722 99 141.509 99H139.929V98.47H141.279C141.425 98.47 141.539 98.4333 141.619 98.36C141.705 98.2733 141.749 98.1533 141.749 98V91.84H142.319ZM153.552 91.84V98.17C153.552 98.2633 153.532 98.3633 153.492 98.47H154.042V99H153.612L153.382 98.69H153.362C153.182 98.8967 152.972 99 152.732 99H146.972C146.598 99 146.272 98.86 145.992 98.58C145.692 98.2733 145.542 97.9033 145.542 97.47V95.36L145.832 95.12H146.122V97.42C146.122 97.7133 146.205 97.95 146.372 98.13C146.572 98.3567 146.852 98.47 147.212 98.47H152.502C152.662 98.47 152.782 98.4267 152.862 98.34C152.935 98.26 152.972 98.1467 152.972 98V91.84H153.552ZM148.912 95.12C148.705 94.8267 148.602 94.5 148.602 94.14C148.602 93.76 148.715 93.4533 148.942 93.22C149.168 92.9867 149.468 92.87 149.842 92.87C150.075 92.87 150.265 92.8933 150.412 92.94V93.33C150.252 93.2767 150.088 93.25 149.922 93.25C149.342 93.25 149.052 93.54 149.052 94.12C149.052 94.4133 149.115 94.6533 149.242 94.84C149.375 95.0267 149.548 95.12 149.762 95.12H150.972V95.31L150.822 95.5H148.092V95.12H148.912ZM155.082 92.2C155.189 92.2 155.279 92.2367 155.352 92.31C155.425 92.3833 155.462 92.4733 155.462 92.58C155.462 92.68 155.425 92.77 155.352 92.85C155.279 92.9233 155.189 92.96 155.082 92.96C154.982 92.96 154.895 92.9233 154.822 92.85C154.749 92.77 154.712 92.68 154.712 92.58C154.712 92.4733 154.749 92.3833 154.822 92.31C154.895 92.2367 154.982 92.2 155.082 92.2ZM156.072 92.2C156.172 92.2 156.259 92.2367 156.332 92.31C156.412 92.3833 156.452 92.4733 156.452 92.58C156.452 92.68 156.412 92.77 156.332 92.85C156.259 92.9233 156.172 92.96 156.072 92.96C155.965 92.96 155.875 92.9233 155.802 92.85C155.729 92.77 155.692 92.68 155.692 92.58C155.692 92.4733 155.729 92.3833 155.802 92.31C155.875 92.2367 155.965 92.2 156.072 92.2ZM156.352 94.4V98.17C156.352 98.3967 156.265 98.5933 156.092 98.76C155.939 98.92 155.755 99 155.542 99H153.962V98.47H155.302C155.449 98.47 155.562 98.4333 155.642 98.36C155.729 98.2733 155.772 98.1533 155.772 98V94.4H156.352ZM158.546 94.34C158.813 94.2933 159.08 94.27 159.346 94.27C160.04 94.27 160.606 94.4833 161.046 94.91C161.446 95.3033 161.646 95.8033 161.646 96.41V98.17C161.646 98.27 161.626 98.37 161.586 98.47H162.126V99H161.696L161.476 98.69H161.456C161.436 98.7033 161.413 98.7267 161.386 98.76C161.233 98.92 161.05 99 160.836 99H157.536V98.47H160.596C160.91 98.47 161.066 98.3133 161.066 98V96.53C161.066 95.91 160.85 95.4433 160.416 95.13C160.07 94.87 159.62 94.74 159.066 94.74C158.88 94.74 158.706 94.7533 158.546 94.78V94.34ZM164.378 98.47C163.851 97.9767 163.588 97.3567 163.588 96.61C163.588 95.8567 163.821 95.2667 164.288 94.84C164.695 94.4667 165.221 94.28 165.868 94.28C166.208 94.28 166.568 94.3367 166.948 94.45V94.94C166.575 94.8333 166.225 94.78 165.898 94.78C165.311 94.78 164.865 94.9667 164.558 95.34C164.298 95.66 164.168 96.08 164.168 96.6C164.168 97.1 164.321 97.54 164.628 97.92C164.921 98.2867 165.275 98.47 165.688 98.47H167.758V98.71L167.518 99H162.048V98.47H164.378ZM169.452 91.84V98C169.452 98.1467 169.488 98.26 169.562 98.34C169.642 98.4267 169.758 98.47 169.912 98.47H169.962V99H169.682C169.468 99 169.285 98.92 169.132 98.76C168.958 98.5933 168.872 98.3967 168.872 98.17V91.84H169.452ZM178.56 94.4V98.17C178.56 98.2633 178.54 98.3633 178.5 98.47H179.05V99H178.62L178.4 98.69H178.37C178.197 98.8967 177.99 99 177.75 99H175.92L175.69 98.69H175.67C175.497 98.8967 175.29 99 175.05 99H173.22L172.99 98.69H172.97C172.797 98.8967 172.59 99 172.35 99H169.88V98.47H172.11C172.423 98.47 172.58 98.3133 172.58 98V95.55H173.16V98.17C173.16 98.27 173.14 98.37 173.1 98.47H174.81C175.123 98.47 175.28 98.3133 175.28 98V94.97H175.86V98.17C175.86 98.2633 175.84 98.3633 175.8 98.47H177.52C177.833 98.47 177.99 98.3133 177.99 98V94.4H178.56ZM181.011 98.47C180.685 98.03 180.521 97.48 180.521 96.82C180.521 95.9933 180.738 95.3533 181.171 94.9C181.565 94.4933 182.091 94.29 182.751 94.29C183.291 94.29 183.718 94.41 184.031 94.65C184.425 94.9567 184.621 95.4333 184.621 96.08V98C184.621 98.14 184.661 98.25 184.741 98.33C184.835 98.4233 184.938 98.47 185.051 98.47H185.091V99H184.841C184.561 99 184.338 98.8833 184.171 98.65C183.765 99.0833 183.285 99.3 182.731 99.3C182.105 99.3 181.595 99.0967 181.201 98.69H181.181L180.951 99H178.981V98.47H181.011ZM184.041 96.08C184.041 95.6867 183.908 95.3633 183.641 95.11C183.408 94.9167 183.111 94.82 182.751 94.82C182.191 94.82 181.758 95.0467 181.451 95.5C181.211 95.86 181.091 96.3 181.091 96.82C181.091 97.4067 181.255 97.8867 181.581 98.26C181.881 98.6 182.261 98.77 182.721 98.77C183.215 98.77 183.655 98.5633 184.041 98.15V96.08ZM187.397 94.4V98.17C187.397 98.3967 187.31 98.5933 187.137 98.76C186.984 98.92 186.8 99 186.587 99H185.007V98.47H186.347C186.494 98.47 186.607 98.4333 186.687 98.36C186.774 98.2733 186.817 98.1533 186.817 98V94.4H187.397ZM186.837 100.27C186.944 100.27 187.034 100.307 187.107 100.38C187.18 100.453 187.217 100.543 187.217 100.65C187.217 100.75 187.18 100.837 187.107 100.91C187.034 100.99 186.944 101.03 186.837 101.03C186.737 101.03 186.647 100.99 186.567 100.91C186.494 100.837 186.457 100.75 186.457 100.65C186.457 100.543 186.494 100.453 186.567 100.38C186.647 100.307 186.737 100.27 186.837 100.27ZM194.02 98.86C193.633 99.0267 193.223 99.11 192.79 99.11C192.037 99.11 191.453 98.8667 191.04 98.38C190.66 97.94 190.47 97.3533 190.47 96.62C190.47 95.8067 190.707 95.1967 191.18 94.79C191.573 94.45 192.093 94.28 192.74 94.28C193.28 94.28 193.713 94.42 194.04 94.7C194.407 95.0133 194.59 95.47 194.59 96.07V99.02C194.59 99.8533 194.317 100.473 193.77 100.88C193.33 101.213 192.747 101.38 192.02 101.38C191.873 101.38 191.74 101.377 191.62 101.37L191.33 101.01V100.84C191.51 100.853 191.683 100.86 191.85 100.86C192.723 100.86 193.323 100.667 193.65 100.28C193.897 100 194.02 99.5267 194.02 98.86ZM194.02 96.08C194.02 95.68 193.91 95.37 193.69 95.15C193.463 94.9233 193.147 94.81 192.74 94.81C192.2 94.81 191.783 94.9667 191.49 95.28C191.197 95.5933 191.05 96.04 191.05 96.62C191.05 97.2867 191.247 97.7967 191.64 98.15C191.973 98.4433 192.407 98.59 192.94 98.59C193.28 98.59 193.64 98.5133 194.02 98.36V96.08ZM196.554 94.34C196.821 94.2933 197.088 94.27 197.354 94.27C198.048 94.27 198.614 94.4833 199.054 94.91C199.454 95.3033 199.654 95.8033 199.654 96.41V98.17C199.654 98.27 199.634 98.37 199.594 98.47H200.134V99H199.704L199.484 98.69H199.464C199.444 98.7033 199.421 98.7267 199.394 98.76C199.241 98.92 199.058 99 198.844 99H195.544V98.47H198.604C198.918 98.47 199.074 98.3133 199.074 98V96.53C199.074 95.91 198.858 95.4433 198.424 95.13C198.078 94.87 197.628 94.74 197.074 94.74C196.888 94.74 196.714 94.7533 196.554 94.78V94.34ZM201.386 94.55C201.979 94.3633 202.516 94.27 202.996 94.27C203.709 94.27 204.286 94.5 204.726 94.96C205.119 95.3667 205.316 95.8767 205.316 96.49V98.17C205.316 98.4167 205.219 98.6267 205.026 98.8C204.866 98.9333 204.692 99 204.506 99H200.056V98.47H204.266C204.579 98.47 204.736 98.3133 204.736 98V96.68C204.736 95.4133 204.106 94.78 202.846 94.78C202.392 94.78 201.906 94.8567 201.386 95.01V94.55ZM202.576 100.27C202.682 100.27 202.772 100.307 202.846 100.38C202.919 100.453 202.956 100.543 202.956 100.65C202.956 100.75 202.919 100.837 202.846 100.91C202.772 100.99 202.682 101.03 202.576 101.03C202.476 101.03 202.389 100.99 202.316 100.91C202.242 100.837 202.206 100.75 202.206 100.65C202.206 100.543 202.242 100.453 202.316 100.38C202.389 100.307 202.476 100.27 202.576 100.27ZM209.103 94.34C209.37 94.2933 209.636 94.27 209.903 94.27C210.596 94.27 211.163 94.4833 211.603 94.91C212.003 95.3033 212.203 95.8033 212.203 96.41V98.17C212.203 98.27 212.183 98.37 212.143 98.47H212.683V99H212.253L212.033 98.69H212.013C211.993 98.7033 211.97 98.7267 211.943 98.76C211.79 98.92 211.606 99 211.393 99H208.093V98.47H211.153C211.466 98.47 211.623 98.3133 211.623 98V96.53C211.623 95.91 211.406 95.4433 210.973 95.13C210.626 94.87 210.176 94.74 209.623 94.74C209.436 94.74 209.263 94.7533 209.103 94.78V94.34ZM218.305 91.42C218.405 91.42 218.491 91.4567 218.565 91.53C218.638 91.6033 218.675 91.69 218.675 91.79C218.675 91.8967 218.638 91.9867 218.565 92.06C218.491 92.1333 218.405 92.17 218.305 92.17C218.198 92.17 218.108 92.1333 218.035 92.06C217.961 91.9867 217.925 91.8967 217.925 91.79C217.925 91.69 217.961 91.6033 218.035 91.53C218.108 91.4567 218.198 91.42 218.305 91.42ZM217.805 92.2C217.911 92.2 218.001 92.2367 218.075 92.31C218.148 92.3833 218.185 92.4733 218.185 92.58C218.185 92.68 218.148 92.77 218.075 92.85C218.001 92.9233 217.911 92.96 217.805 92.96C217.705 92.96 217.615 92.9233 217.535 92.85C217.461 92.77 217.425 92.68 217.425 92.58C217.425 92.4733 217.461 92.3833 217.535 92.31C217.615 92.2367 217.705 92.2 217.805 92.2ZM218.795 92.2C218.901 92.2 218.991 92.2367 219.065 92.31C219.138 92.3833 219.175 92.4733 219.175 92.58C219.175 92.68 219.138 92.77 219.065 92.85C218.991 92.9233 218.901 92.96 218.795 92.96C218.695 92.96 218.605 92.9233 218.525 92.85C218.451 92.77 218.415 92.68 218.415 92.58C218.415 92.4733 218.451 92.3833 218.525 92.31C218.605 92.2367 218.695 92.2 218.795 92.2ZM221.285 94.4V98.17C221.285 98.39 221.205 98.5833 221.045 98.75C220.885 98.9167 220.695 99 220.475 99H218.645L218.415 98.69H218.395C218.221 98.8967 218.015 99 217.775 99H215.945L215.715 98.69H215.695C215.521 98.8967 215.315 99 215.075 99H212.605V98.47H214.835C215.148 98.47 215.305 98.3133 215.305 98V95.55H215.885V98.17C215.885 98.27 215.865 98.37 215.825 98.47H217.535C217.848 98.47 218.005 98.3133 218.005 98V94.97H218.585V98.17C218.585 98.2633 218.565 98.3633 218.525 98.47H220.245C220.558 98.47 220.715 98.3133 220.715 98V94.4H221.285ZM224.427 94.4V98.47H224.937V99H224.427C224.42 100.587 223.53 101.38 221.757 101.38C221.637 101.38 221.537 101.377 221.457 101.37L221.167 101.01V100.84C221.347 100.853 221.52 100.86 221.687 100.86C222.427 100.86 222.97 100.72 223.317 100.44C223.677 100.147 223.857 99.6867 223.857 99.06V94.4H224.427ZM226.67 96.08C226.67 95.4667 226.843 95.0067 227.19 94.7C227.517 94.4267 227.963 94.29 228.53 94.29C229.183 94.29 229.707 94.49 230.1 94.89C230.547 95.3433 230.77 95.9867 230.77 96.82C230.77 97.4867 230.597 98.0467 230.25 98.5C229.83 99.04 229.263 99.31 228.55 99.31C228.003 99.31 227.527 99.09 227.12 98.65C226.947 98.8833 226.72 99 226.44 99H224.87V98.47H226.2C226.333 98.47 226.447 98.4233 226.54 98.33C226.627 98.25 226.67 98.14 226.67 98V96.08ZM227.24 98.15C227.64 98.57 228.083 98.78 228.57 98.78C229.097 98.78 229.513 98.56 229.82 98.12C230.067 97.76 230.19 97.3267 230.19 96.82C230.19 96.3133 230.073 95.88 229.84 95.52C229.54 95.0533 229.103 94.82 228.53 94.82C228.17 94.82 227.877 94.9167 227.65 95.11C227.377 95.3633 227.24 95.6867 227.24 96.08V98.15ZM235.094 98.47C234.641 98.0367 234.414 97.4633 234.414 96.75C234.414 95.9633 234.634 95.3467 235.074 94.9C235.468 94.4933 235.991 94.29 236.644 94.29C237.218 94.29 237.664 94.4267 237.984 94.7C238.338 95.0067 238.514 95.4667 238.514 96.08V98.17C238.514 98.3967 238.428 98.5933 238.254 98.76C238.101 98.92 237.918 99 237.704 99H234.654C234.348 99 234.194 99.1567 234.194 99.47V102.49L233.894 102.73H233.614V99.3C233.614 99.0867 233.694 98.8967 233.854 98.73C234.021 98.5567 234.211 98.47 234.424 98.47H235.094ZM237.934 96.08C237.934 95.6867 237.801 95.3633 237.534 95.11C237.301 94.9167 237.004 94.82 236.644 94.82C236.104 94.82 235.678 95.04 235.364 95.48C235.111 95.8333 234.984 96.2533 234.984 96.74C234.984 97.2933 235.134 97.7267 235.434 98.04C235.701 98.3267 236.061 98.47 236.514 98.47H237.474C237.781 98.47 237.934 98.3133 237.934 98V96.08ZM241.87 99C241.09 99 240.507 98.76 240.12 98.28C239.787 97.8667 239.62 97.3133 239.62 96.62C239.62 95.8733 239.817 95.2967 240.21 94.89C240.61 94.4833 241.17 94.28 241.89 94.28C242.43 94.28 242.864 94.42 243.19 94.7C243.557 95.0133 243.74 95.47 243.74 96.07V98.47H244.07V99H243.74C243.74 99.84 243.47 100.467 242.93 100.88C242.49 101.213 241.904 101.38 241.17 101.38C241.024 101.38 240.89 101.377 240.77 101.37L240.48 101.01V100.84C240.66 100.853 240.834 100.86 241 100.86C241.774 100.86 242.324 100.717 242.65 100.43C242.984 100.137 243.157 99.66 243.17 99H241.87ZM243.17 96.08C243.17 95.68 243.06 95.37 242.84 95.15C242.614 94.9233 242.297 94.81 241.89 94.81C241.35 94.81 240.934 94.9667 240.64 95.28C240.347 95.5933 240.2 96.04 240.2 96.62C240.2 97.1933 240.334 97.6467 240.6 97.98C240.867 98.3067 241.244 98.47 241.73 98.47H243.17V96.08ZM247.241 92.2C247.348 92.2 247.438 92.2367 247.511 92.31C247.585 92.3833 247.621 92.4733 247.621 92.58C247.621 92.68 247.585 92.77 247.511 92.85C247.438 92.9233 247.348 92.96 247.241 92.96C247.141 92.96 247.055 92.9233 246.981 92.85C246.908 92.77 246.871 92.68 246.871 92.58C246.871 92.4733 246.908 92.3833 246.981 92.31C247.055 92.2367 247.141 92.2 247.241 92.2ZM248.231 92.2C248.338 92.2 248.428 92.2367 248.501 92.31C248.575 92.3833 248.611 92.4733 248.611 92.58C248.611 92.68 248.575 92.77 248.501 92.85C248.428 92.9233 248.338 92.96 248.231 92.96C248.125 92.96 248.035 92.9233 247.961 92.85C247.888 92.77 247.851 92.68 247.851 92.58C247.851 92.4733 247.888 92.3833 247.961 92.31C248.035 92.2367 248.125 92.2 248.231 92.2ZM246.301 98.47C245.801 97.97 245.551 97.3567 245.551 96.63C245.551 95.87 245.765 95.2767 246.191 94.85C246.565 94.47 247.048 94.28 247.641 94.28C248.208 94.28 248.678 94.4567 249.051 94.81C249.511 95.2433 249.741 95.85 249.741 96.63C249.741 97.35 249.488 97.9633 248.981 98.47H249.991V99H248.601C248.568 99 248.515 99 248.441 99C248.381 99 248.338 99 248.311 99C248.005 99 247.785 98.9833 247.651 98.95H247.631C247.498 98.9833 247.275 99 246.961 99H246.811C246.751 99 246.705 99 246.671 99H243.991V98.47H246.301ZM247.641 94.81C247.108 94.81 246.708 95.01 246.441 95.41C246.228 95.7233 246.121 96.1267 246.121 96.62C246.121 97.1467 246.268 97.5867 246.561 97.94C246.841 98.2733 247.201 98.4533 247.641 98.48C248.141 98.4467 248.535 98.2167 248.821 97.79C249.048 97.45 249.161 97.06 249.161 96.62C249.161 96.0267 249.015 95.57 248.721 95.25C248.455 94.9567 248.095 94.81 247.641 94.81ZM252.309 94.4V98.17C252.309 98.3967 252.222 98.5933 252.049 98.76C251.896 98.92 251.712 99 251.499 99H249.919V98.47H251.259C251.406 98.47 251.519 98.4333 251.599 98.36C251.686 98.2733 251.729 98.1533 251.729 98V94.4H252.309ZM250.859 100.27C250.966 100.27 251.056 100.307 251.129 100.38C251.202 100.453 251.239 100.543 251.239 100.65C251.239 100.75 251.202 100.837 251.129 100.91C251.056 100.99 250.966 101.03 250.859 101.03C250.759 101.03 250.672 100.99 250.599 100.91C250.526 100.837 250.489 100.75 250.489 100.65C250.489 100.543 250.526 100.453 250.599 100.38C250.672 100.307 250.759 100.27 250.859 100.27ZM251.849 100.27C251.949 100.27 252.036 100.307 252.109 100.38C252.189 100.453 252.229 100.543 252.229 100.65C252.229 100.75 252.189 100.837 252.109 100.91C252.036 100.99 251.949 101.03 251.849 101.03C251.742 101.03 251.652 100.99 251.579 100.91C251.506 100.837 251.469 100.75 251.469 100.65C251.469 100.543 251.506 100.453 251.579 100.38C251.652 100.307 251.742 100.27 251.849 100.27Z" fill="black"/>
<defs>
<clipPath id="clip0_3378_9804">
<rect width="91" height="82" fill="white" transform="translate(243)"/>
</clipPath>
</defs>
</svg>
