<svg width="312" height="248" viewBox="0 0 312 248" fill="none" xmlns="http://www.w3.org/2000/svg">
<path opacity="0.1" d="M217.302 -0.0345345C193.325 -1.0232 170.471 -10.2072 148.681 -20.2532C126.891 -30.2993 105.294 -41.432 81.8783 -46.7553C66.8237 -50.183 49.6065 -50.6651 37.4787 -41.0889C25.8055 -31.8762 22.0349 -15.9717 20.0067 -1.21522C18.4813 9.88894 17.5963 21.5732 21.7663 31.9706C24.6691 39.1854 29.8205 45.2523 33.3845 52.1648C45.7808 76.2156 37.0173 105.876 23.581 129.379C17.2795 140.41 9.96911 150.905 5.10698 162.634C0.244847 174.364 -2.00716 187.8 2.24893 199.763C6.46714 211.61 16.5151 220.525 27.4032 226.788C49.517 239.497 75.5734 243.133 100.983 245.217C157.228 249.78 213.776 247.803 270.169 245.826C291.039 245.09 312.003 244.351 332.533 240.515C343.934 238.386 355.707 235.012 363.985 226.865C374.491 216.521 377.098 199.011 370.056 186.04C358.245 164.289 325.591 158.884 317.333 135.54C312.792 122.691 317.457 108.376 324.062 96.4588C338.225 70.8964 361.971 48.4675 363.221 19.2445C364.082 -0.827103 352.667 -20.9233 335.016 -30.4218C316.517 -40.3862 290.864 -39.1279 277.217 -22.6596C263.165 -5.69283 238.469 0.835659 217.302 -0.0345345Z" fill="#006466"/>
</svg>
