<svg width="85" height="101" viewBox="0 0 85 101" fill="none" xmlns="http://www.w3.org/2000/svg">
<path d="M71.4961 100.493L29.6068 100.481C27.1897 100.481 24.8716 99.7016 23.1625 98.3149C21.4533 96.9282 20.4932 95.0475 20.4932 93.0865L20.5114 7.88701C20.5114 6.91476 20.7477 5.95206 21.2069 5.054C21.666 4.15595 22.3389 3.34017 23.1872 2.65337C24.0354 1.96658 25.0422 1.42224 26.15 1.05153C27.2578 0.680809 28.4449 0.49099 29.6432 0.492935L71.5295 0.512653C73.9466 0.512653 76.2647 1.29167 77.9738 2.67833C79.6829 4.06499 80.6431 5.9457 80.6431 7.90673L80.6249 93.0865C80.6269 94.0596 80.3921 95.0234 79.9341 95.9227C79.476 96.822 78.8037 97.6392 77.9556 98.3272C77.1075 99.0153 76.1004 99.5608 74.9919 99.9324C73.8834 100.304 72.6955 100.495 71.4961 100.493Z" fill="#263238"/>
<path d="M71.484 3.49981H63.3607C62.8276 3.51016 62.3211 3.69113 61.9517 4.00325C61.5824 4.31538 61.3802 4.73332 61.3891 5.16594V6.36132C61.3952 6.57613 61.349 6.7898 61.2531 6.9901C61.1572 7.19039 61.0136 7.37339 60.8305 7.5286C60.6474 7.68382 60.4283 7.80821 60.1859 7.89465C59.9434 7.9811 59.6823 8.0279 59.4176 8.03238H43.5872C43.3223 8.02758 43.0611 7.98048 42.8186 7.89377C42.5762 7.80706 42.3571 7.68244 42.174 7.52702C41.9909 7.37161 41.8474 7.18845 41.7516 6.98802C41.6557 6.78758 41.6095 6.57379 41.6156 6.35886V5.15609C41.6262 4.72238 41.4248 4.30291 41.0553 3.98932C40.6859 3.67574 40.1785 3.49355 39.644 3.48256H36.7823H29.6767C28.8377 3.48094 28.0065 3.61362 27.2307 3.87301C26.455 4.13239 25.7499 4.51338 25.1559 4.99417C24.5619 5.47495 24.0906 6.04608 23.7691 6.67485C23.4475 7.30362 23.282 7.97767 23.282 8.65841L23.2607 91.8196C23.2607 93.1923 23.9329 94.5088 25.1293 95.4795C26.3257 96.4501 27.9483 96.9955 29.6403 96.9955L71.4475 97.0152C72.2853 97.0152 73.1149 96.8813 73.8889 96.6212C74.6629 96.3611 75.3662 95.9798 75.9586 95.4992C76.551 95.0186 77.0209 94.448 77.3415 93.82C77.6621 93.1921 77.8271 92.519 77.8271 91.8393L77.8484 8.67567C77.8484 7.30508 77.1783 5.99044 75.9852 5.02014C74.7921 4.04983 73.1733 3.50307 71.484 3.49981Z" fill="white"/>
<path d="M55.3132 78.153C55.1675 78.1715 55.0201 78.1798 54.8727 78.1776L53.6758 78.1973C52.6672 78.2096 51.2698 78.217 49.7265 78.217C48.1833 78.217 46.7859 78.217 45.7773 78.1973L44.5804 78.1776C44.433 78.1796 44.2856 78.1714 44.1399 78.153C44.2854 78.133 44.4329 78.1247 44.5804 78.1283L45.7773 78.1061C46.7859 78.1061 48.1833 78.0889 49.7265 78.0889C51.2698 78.0889 52.6642 78.0889 53.6758 78.1061L54.8727 78.1283C55.0202 78.1245 55.1678 78.1328 55.3132 78.153Z" fill="#455A64"/>
<path d="M72.8631 80.381C72.8631 80.4179 66.4319 80.4451 58.5 80.4451C50.5681 80.4451 44.137 80.4179 44.137 80.381C44.137 80.344 50.5681 80.3169 58.5 80.3169C66.4319 80.3169 72.8631 80.3465 72.8631 80.381Z" fill="#455A64"/>
<path d="M63.8862 82.4883C63.8862 82.5252 59.4661 82.5524 54.0131 82.5524C48.5601 82.5524 44.137 82.5252 44.137 82.4883C44.137 82.4513 48.5571 82.4242 54.0131 82.4242C59.4691 82.4242 63.8862 82.4439 63.8862 82.4883Z" fill="#455A64"/>
<path d="M75.2599 88.4035C75.2599 88.4035 75.2599 88.3222 75.2599 88.1719C75.2599 88.0215 75.2599 87.7923 75.2599 87.4965C75.2599 86.9025 75.2599 86.0177 75.2448 84.8938C75.2448 82.6288 75.2296 79.3335 75.2174 75.2002L75.2691 75.2421L26.6904 75.2643L26.7694 75.2002C26.7694 79.7894 26.7694 84.2382 26.7694 88.4035L26.6934 88.3419L61.4558 88.369L71.6023 88.3863H74.3364H75.0412H75.2842H75.0503H74.3547H71.6479L61.5166 88.4035L26.7025 88.4331H26.6235V88.4035C26.6235 84.2382 26.6235 79.7894 26.6235 75.2002V75.1361H26.7086L75.2873 75.1583H75.3389V75.2002C75.3389 79.3433 75.3177 82.6485 75.3116 84.9209C75.3116 86.0498 75.3116 86.9198 75.3116 87.5138C75.3116 87.8046 75.3116 88.0264 75.3116 88.1793C75.3116 88.3321 75.2599 88.4035 75.2599 88.4035Z" fill="#263238"/>
<path d="M28.7021 77.4078L28.6401 86.1376L42.0977 86.2005L42.1597 77.4707L28.7021 77.4078Z" fill="#EBEBEB"/>
<path d="M42.1562 77.4653H41.898H41.1628H38.4014L28.6802 77.448L28.7531 77.3914C28.7379 79.9916 28.7197 82.969 28.7014 86.1188C28.7166 86.1361 28.5526 85.9981 28.6224 86.0547H29.549H30.4604H32.2831L35.7766 86.072L42.0772 86.109L42.0134 86.1632C42.0438 83.5408 42.0711 81.3669 42.0924 79.8388C42.0924 79.0797 42.1137 78.4832 42.1197 78.0667C42.1197 77.867 42.1197 77.7118 42.1197 77.5984C42.1197 77.485 42.1197 77.4333 42.1197 77.4333C42.1197 77.4333 42.1197 77.4825 42.1197 77.5861C42.1197 77.6896 42.1197 77.8498 42.1197 78.047C42.1197 78.4586 42.1197 79.0526 42.1197 79.8068C42.1197 81.3423 42.1197 83.5284 42.1197 86.1632V86.215H42.0529L35.7523 86.1952L32.2588 86.1804H30.4361H29.5247H28.5981L28.5161 86.1139C28.5435 82.9616 28.5647 79.9842 28.586 77.3864V77.3273H28.6589L38.4105 77.3987L41.1446 77.4283H41.8645H42.0468L42.1562 77.4653Z" fill="#263238"/>
<path d="M29.1631 77.9596L29.1089 85.5902L41.6217 85.6487L41.6759 78.0181L29.1631 77.9596Z" fill="#E0E0E0"/>
<path d="M29.1025 85.5839L33.5075 80.8616L36.1929 83.8414L38.04 82.264L41.6156 85.6431L29.1025 85.5839Z" fill="#F5F5F5"/>
<path d="M37.3687 80.2997C37.3681 80.4583 37.3095 80.6131 37.2004 80.7446C37.0912 80.8761 36.9365 80.9784 36.7557 81.0385C36.5748 81.0986 36.3761 81.1138 36.1846 81.0822C35.9932 81.0506 35.8175 80.9736 35.68 80.861C35.5425 80.7484 35.4492 80.6052 35.4121 80.4496C35.3749 80.2939 35.3955 80.1329 35.4712 79.9867C35.547 79.8406 35.6745 79.716 35.8376 79.6287C36.0007 79.5414 36.192 79.4953 36.3874 79.4962C36.5169 79.4966 36.6451 79.5176 36.7646 79.5582C36.884 79.5988 36.9924 79.6581 37.0836 79.7327C37.1748 79.8074 37.2469 79.8959 37.2958 79.9932C37.3447 80.0905 37.3695 80.1946 37.3687 80.2997Z" fill="#F5F5F5"/>
<path d="M32.5079 66.4678C32.462 66.2791 32.335 66.1098 32.1494 65.9901C31.9639 65.8704 31.732 65.808 31.495 65.8143C31.2581 65.8205 31.0316 65.8948 30.856 66.024C30.6804 66.1532 30.5671 66.3288 30.5363 66.5195C30.5015 66.3296 30.3847 66.1559 30.2068 66.0293C30.0289 65.9027 29.8013 65.8314 29.5647 65.8282C29.3281 65.8249 29.0977 65.8899 28.9146 66.0115C28.7315 66.1332 28.6075 66.3036 28.5648 66.4924C28.5191 66.7712 28.6072 67.0535 28.8108 67.2811C29.0147 67.5057 29.2525 67.7085 29.5186 67.885C29.8802 68.1315 30.2113 68.3779 30.5728 68.6416C30.9252 68.3804 31.229 68.1339 31.5844 67.8702C31.847 67.6909 32.0807 67.4856 32.2801 67.2589C32.4778 67.0285 32.5593 66.7454 32.5079 66.4678Z" fill="#006466"/>
<path d="M70.4451 58.8889C70.4451 58.9259 61.2525 58.9555 49.9151 58.9555C38.5777 58.9555 29.3821 58.9259 29.3821 58.8889C29.3821 58.8519 38.5747 58.8248 49.9151 58.8248C61.2555 58.8248 70.4451 58.8544 70.4451 58.8889Z" fill="#455A64"/>
<path d="M70.4451 56.1161C70.4451 56.1506 61.2525 56.1802 49.9151 56.1802C38.5777 56.1802 29.3821 56.1506 29.3821 56.1161C29.3821 56.0816 38.5747 56.052 49.9151 56.052C61.2555 56.052 70.4451 56.0816 70.4451 56.1161Z" fill="#455A64"/>
<path d="M51.7317 61.701C51.7317 61.7356 46.7284 61.7651 40.5584 61.7651C34.3885 61.7651 29.3821 61.7356 29.3821 61.701C29.3821 61.6665 34.3855 61.637 40.5584 61.637C46.7314 61.637 51.7317 61.6665 51.7317 61.701Z" fill="#455A64"/>
<path d="M48.9762 91.9257C48.9732 92.0657 48.9192 92.2019 48.821 92.3171C48.7228 92.4323 48.5848 92.5214 48.4243 92.5731C48.2639 92.6247 48.0882 92.6368 47.9193 92.6076C47.7504 92.5784 47.596 92.5094 47.4754 92.4092C47.3548 92.3089 47.2734 92.182 47.2416 92.0443C47.2097 91.9066 47.2288 91.7644 47.2964 91.6355C47.3639 91.5066 47.477 91.3968 47.6213 91.3199C47.7656 91.2431 47.9348 91.2026 48.1074 91.2035C48.223 91.2045 48.3372 91.2239 48.4434 91.2608C48.5497 91.2976 48.6459 91.3511 48.7266 91.4182C48.8074 91.4853 48.871 91.5647 48.9138 91.6518C48.9566 91.7388 48.9779 91.8319 48.9762 91.9257Z" fill="#263238"/>
<path d="M51.6679 91.9355C51.6643 92.0749 51.61 92.2103 51.5119 92.3247C51.4138 92.4391 51.2763 92.5274 51.1165 92.5786C50.9567 92.6298 50.7819 92.6416 50.6139 92.6125C50.4459 92.5833 50.2923 92.5146 50.1723 92.4148C50.0523 92.3151 49.9713 92.1888 49.9394 92.0519C49.9076 91.9149 49.9263 91.7734 49.9933 91.645C50.0602 91.5167 50.1724 91.4072 50.3158 91.3304C50.4591 91.2537 50.6273 91.2129 50.799 91.2134C50.9147 91.214 51.0291 91.2333 51.1355 91.27C51.242 91.3067 51.3384 91.3602 51.4192 91.4274C51.5 91.4945 51.5636 91.574 51.6062 91.6613C51.6489 91.7485 51.6699 91.8417 51.6679 91.9355Z" fill="#263238"/>
<path d="M54.3808 91.9453C54.3772 92.0846 54.3229 92.22 54.2248 92.3344C54.1267 92.4488 53.9892 92.5372 53.8294 92.5884C53.6696 92.6396 53.4948 92.6514 53.3268 92.6222C53.1588 92.5931 53.0052 92.5243 52.8852 92.4246C52.7652 92.3249 52.6842 92.1986 52.6523 92.0616C52.6205 91.9247 52.6392 91.7832 52.7062 91.6548C52.7731 91.5265 52.8853 91.417 53.0287 91.3402C53.172 91.2634 53.3401 91.2227 53.5119 91.2231C53.6275 91.2241 53.7417 91.2436 53.8479 91.2804C53.9542 91.3173 54.0504 91.3708 54.1312 91.4379C54.2119 91.505 54.2755 91.5843 54.3183 91.6714C54.3611 91.7585 54.3824 91.8516 54.3808 91.9453Z" fill="#263238"/>
<path d="M75.5516 24.3585H26.9668V48.4632H75.5516V24.3585Z" fill="#E0E0E0"/>
<path d="M31.4539 48.4706L45.3734 33.3522L54.0071 42.8067L59.855 37.7492L71.329 48.4607L31.4539 48.4706Z" fill="#F5F5F5"/>
<path d="M57.6646 31.4963C57.6652 32.0005 57.4815 32.4935 57.1367 32.9129C56.792 33.3323 56.3016 33.6593 55.7277 33.8526C55.1537 34.0459 54.5221 34.0967 53.9125 33.9986C53.303 33.9006 52.743 33.6581 52.3034 33.3017C51.8638 32.9454 51.5644 32.4913 51.4429 31.9969C51.3215 31.5025 51.3835 30.9899 51.6211 30.5241C51.8588 30.0583 52.2614 29.6601 52.778 29.38C53.2947 29.0998 53.9021 28.9503 54.5235 28.9503C55.356 28.9503 56.1546 29.2185 56.7436 29.6959C57.3325 30.1733 57.6638 30.8209 57.6646 31.4963Z" fill="#F5F5F5"/>
<path d="M75.4209 70.8673C75.4209 70.3522 75.3905 48.5766 75.348 16.3384L75.4209 16.3976H26.8422L26.9212 16.3335C26.9212 36.7264 26.9212 55.5985 26.9212 70.8623L26.8544 70.8106L75.4391 70.8623L26.8544 70.9166H26.7906V70.8623C26.7906 55.5985 26.7906 36.7264 26.7754 16.3335V16.2694H26.8605H75.4391H75.5121V16.3261C75.4969 32.4624 75.4847 46.0996 75.4756 55.707C75.4756 60.5032 75.4604 64.2915 75.4574 66.8843C75.4574 68.1758 75.4574 69.1691 75.4574 69.842C75.4574 70.1747 75.4574 70.4286 75.4574 70.6011C75.4574 70.7736 75.4209 70.8673 75.4209 70.8673Z" fill="#263238"/>
<path d="M52.3792 75.7245L53.4546 72.794C53.643 72.1581 53.8921 71.4088 54.2263 70.5536C54.5301 69.7846 55.3017 68.9762 56.0065 68.3945C57.1031 67.4899 57.6257 67.485 58.3608 67.0044C58.4277 66.9699 58.5036 66.9181 58.5674 66.891C58.7064 66.8296 58.8284 66.7457 58.9259 66.6446C59.5608 66.0875 58.9502 65.2224 57.6591 65.3062C56.69 65.3678 55.1042 65.5921 52.5281 67.7487C52.4947 67.7832 52.4613 67.8104 52.4309 67.8424C51.079 69.2695 49.8092 65.1978 49.5783 63.682C49.5335 63.4471 49.4242 63.2233 49.2584 63.0274C49.0925 62.8314 48.8745 62.6682 48.6204 62.5498C48.3663 62.4315 48.0826 62.361 47.7904 62.3437C47.4982 62.3264 47.205 62.3626 46.9323 62.4497L40.6561 64.8305C40.0574 64.6897 39.4191 64.7069 38.8333 64.8798C38.3941 65.0049 38.0282 65.2583 37.8068 65.5905C37.5855 65.9228 37.5248 66.31 37.6364 66.6766L40.1852 74.9111L32.709 95.097H48.8249L52.3792 75.7245Z" fill="#FFBE9D"/>
<path d="M64.7737 57.185L59.7916 65.1066L57.3006 64.5446L44.7845 72.8087C44.2737 73.1478 43.6199 73.3118 42.9623 73.2658C42.3048 73.2197 41.6953 72.9673 41.2636 72.5622L36.4941 68.0691C36.4941 68.0691 46.109 64.7097 47.8862 61.9296C49.6633 59.1494 47.6097 58.516 47.6097 58.516L52.1331 54.3457L64.7737 57.185Z" fill="#006466"/>
<path d="M58.3122 41.0068C58.3122 41.0068 51.0213 39.6981 40.7563 31.6927C30.4913 23.6874 25.6732 13.0474 24.4307 13.1065C23.1882 13.1657 17.6897 11.0928 7.25761 29.5016C-3.17446 47.9104 0.935784 52.1768 3.00458 52.1522C5.07337 52.1275 19.1722 48.9308 27.9759 49.7417C36.7797 50.5526 48.0958 54.2767 48.0958 54.2767L58.3122 41.0068Z" fill="#006466"/>
<path d="M73.8023 51.0406L71.3143 54.8781L70.1994 56.6034C69.4636 57.7391 68.2186 58.6023 66.7212 59.0151C65.2239 59.4278 63.5884 59.3586 62.1521 58.8216L46.5222 54.4024L55.6358 37.5439L71.2505 44.2947C72.687 44.9184 73.7614 45.9775 74.2394 47.2411C74.7175 48.5048 74.5603 49.8705 73.8023 51.0406Z" fill="#006466"/>
<g opacity="0.4">
<path d="M73.8023 51.0406L71.3143 54.8781L70.1994 56.6034C69.4636 57.7391 68.2186 58.6023 66.7212 59.0151C65.2239 59.4278 63.5884 59.3586 62.1521 58.8216L46.5222 54.4024L55.6358 37.5439L71.2505 44.2947C72.687 44.9184 73.7614 45.9775 74.2394 47.2411C74.7175 48.5048 74.5603 49.8705 73.8023 51.0406Z" fill="black"/>
</g>
<path d="M8.09005 29.8368C2.53985 39.8089 0.228022 48.6966 2.92566 49.6849C5.62329 50.6733 12.3157 43.3926 17.8659 33.418C23.4161 23.4434 25.728 14.5606 23.0303 13.5698C20.3327 12.579 13.6403 19.8646 8.09005 29.8368Z" fill="#006466"/>
<g opacity="0.5">
<path d="M8.09005 29.8368C2.53985 39.8089 0.228022 48.6966 2.92566 49.6849C5.62329 50.6733 12.3157 43.3926 17.8659 33.418C23.4161 23.4434 25.728 14.5606 23.0303 13.5698C20.3327 12.579 13.6403 19.8646 8.09005 29.8368Z" fill="black"/>
</g>
<path d="M75.1451 56.5861L70.9072 55.5066L73.5289 51.4645L76.7065 53.0665L75.1451 56.5861Z" fill="#006466"/>
<g opacity="0.6">
<path d="M73.5289 51.4645L70.9072 55.5066L71.7791 55.7284L73.9087 51.6543L73.5289 51.4645Z" fill="black"/>
</g>
<path d="M70.6064 52.3962C70.5457 52.5071 68.4313 51.8416 65.8856 50.9174C63.3398 49.9931 61.3287 49.1354 61.3865 49.0245C61.4442 48.9136 63.5616 49.5815 66.1104 50.5156C68.6591 51.4497 70.6702 52.2853 70.6064 52.3962Z" fill="#006466"/>
<path d="M71.9128 49.9882C71.846 50.0966 69.9321 49.4435 67.6385 48.5266C65.3449 47.6098 63.5404 46.7792 63.6073 46.6682C63.6741 46.5573 65.5849 47.2129 67.8785 48.1298C70.1721 49.0467 71.9797 49.8773 71.9128 49.9882Z" fill="#006466"/>
<path d="M68.966 54.9225C68.9448 54.9817 68.4405 54.888 67.6385 54.676C67.2375 54.575 66.7605 54.4468 66.235 54.3014C65.7094 54.156 65.1717 53.9243 64.5915 53.7099C62.2736 52.8374 60.5025 51.9846 60.5602 51.8811C60.6179 51.7776 62.5227 52.4455 64.8132 53.3106C65.3904 53.5226 65.9251 53.7543 66.4294 53.9243C66.9337 54.0944 67.3863 54.2447 67.7661 54.3827C68.5255 54.6662 68.9873 54.8634 68.966 54.9225Z" fill="#006466"/>
<path d="M19.4061 27.621C19.4061 27.621 13.0691 24.4317 9.60292 31.3797C6.1367 38.3277 12.8018 39.4688 12.8018 39.4688C15.68 35.7916 17.9034 31.8029 19.4061 27.621Z" fill="#006466"/>
<g opacity="0.5">
<path d="M26.1472 19.3397C26.1867 19.3397 26.0955 19.8179 25.9011 20.6682C25.7067 21.5185 25.4151 22.7484 25.008 24.2617L24.127 26.6944C23.967 27.1298 23.8019 27.5808 23.6318 28.0475L23.3736 28.7548C23.2794 29.0013 23.1549 29.2256 23.0455 29.4647L21.6147 32.4617C21.4901 32.723 21.3625 32.9843 21.238 33.248C21.1134 33.5117 20.9342 33.7631 20.7914 34.0244L19.8497 35.6018L18.9049 37.1767C18.7439 37.4232 18.6011 37.6992 18.4279 37.9408C18.2548 38.1823 18.0725 38.4337 17.8994 38.6678L15.8792 41.4357C15.7151 41.6526 15.5754 41.8769 15.3931 42.0839L14.8676 42.6878L13.859 43.8412L12.0362 45.9042C10.8211 47.0946 9.80645 48.0337 9.10774 48.6868C8.76455 49.0405 8.38552 49.3703 7.97461 49.6727C8.26021 49.288 8.58541 48.9235 8.94673 48.5833C9.62114 47.8858 10.572 46.9098 11.7385 45.7095L13.4853 43.6317L14.4635 42.4758C14.6336 42.2786 14.8038 42.0765 14.9769 41.8719C15.1501 41.6674 15.2807 41.4431 15.4478 41.2237L17.4437 38.4583L17.9632 37.7337C18.1424 37.4873 18.2669 37.2408 18.434 36.9746L19.3697 35.4095C19.6735 34.8796 19.9985 34.3596 20.3084 33.8444C20.4542 33.598 20.6304 33.3367 20.7519 33.0755L21.1317 32.2966L22.5838 29.339C22.6962 29.0925 22.8238 28.8732 22.921 28.6365C23.0182 28.3999 23.1002 28.1683 23.1883 27.9366L23.7047 26.5982L24.6374 24.1952L25.6915 20.646C25.7972 20.2008 25.9497 19.7638 26.1472 19.3397Z" fill="black"/>
</g>
<g opacity="0.4">
<path d="M38.0071 67.5171C38.5873 68.3699 39.1767 69.2424 40.0303 69.9152C40.884 70.5881 42.0505 71.0662 43.2656 70.9676C44.4808 70.8691 45.5896 70.0656 45.6018 69.0945C46.1729 69.442 47.0508 69.2547 47.5247 68.8184C47.9987 68.3822 48.1536 67.7783 48.2083 67.1991C48.986 67.5713 50.0675 67.278 50.5869 66.6791C50.8255 66.3671 50.9763 66.0163 51.0288 65.6517C51.0813 65.287 51.0342 64.9175 50.8907 64.5693C50.5947 63.8763 50.174 63.2227 49.6421 62.6296C50.2497 62.669 50.8755 62.7035 51.4102 62.4842C51.9449 62.2648 52.3216 61.6881 51.9965 61.274C51.783 61.0428 51.4731 60.8825 51.1246 60.823C50.1859 60.5765 49.5297 60.3941 48.5515 60.4853C48.3267 60.4853 48.9434 62.5754 42.816 65.4295C39.1797 67.1178 38.0071 67.5171 38.0071 67.5171Z" fill="black"/>
</g>
<path d="M51.8051 70.5239C51.8051 70.5461 51.3949 70.482 50.7327 70.4968C49.8721 70.5135 49.0256 70.6783 48.2495 70.9804C47.4733 71.2825 46.7851 71.715 46.2306 72.2492C45.8022 72.6584 45.623 72.9566 45.5835 72.9443C45.6087 72.8674 45.6487 72.7942 45.702 72.7274C45.8321 72.5396 45.9793 72.36 46.1425 72.1901C46.6886 71.6277 47.3863 71.1745 48.182 70.8652C48.9778 70.5558 49.8504 70.3986 50.7327 70.4056C50.9976 70.407 51.2618 70.4267 51.5225 70.4648C51.6203 70.4708 51.7159 70.4908 51.8051 70.5239Z" fill="#EB996E"/>
<path d="M38.405 66.1837C39.3923 66.9527 40.0667 67.803 41.1027 68.5769C41.5735 68.9294 42.3178 69.5948 42.9254 69.6836C43.533 69.7723 43.9583 69.7057 44.2074 69.2276C44.4109 68.8406 44.0464 68.3107 43.7973 67.9952C43.138 67.1548 42.5062 66.4992 42.014 65.846C41.7801 65.5404 42.0809 65.4763 42.1902 65.6193C42.6641 66.0186 43.375 66.3587 43.8003 66.7999C44.3836 67.3939 44.4869 68.185 46.0119 67.9336C46.2158 67.9068 46.4093 67.8418 46.5769 67.7438C47.1511 67.3865 47.1845 66.758 46.9354 66.265C46.7203 65.8845 46.4333 65.5336 46.0848 65.2249C46.7349 65.8189 47.4427 66.4573 48.4756 66.5115C48.7674 66.5402 49.0629 66.4946 49.3214 66.3812C49.5799 66.2677 49.7886 66.0919 49.9186 65.8781C50.2224 65.3161 49.788 64.7714 49.3475 64.3327C48.5677 63.5526 47.7002 62.8331 46.7562 62.1835C46.4036 61.9432 45.9589 61.8099 45.4985 61.8064C44.9638 61.8064 44.2833 61.8853 43.9795 62.2599C43.806 62.4406 43.6796 62.6481 43.6081 62.8697C43.5365 63.0913 43.5213 63.3224 43.5633 63.5489C43.5633 63.5489 42.2267 62.9993 41.1513 63.5736C40.4893 63.9508 40.0136 64.5062 39.8085 65.1411L38.405 66.1837Z" fill="#FFBE9D"/>
<path d="M45.5287 61.5697C45.3149 61.3683 45.1823 61.1187 45.1486 60.8543C45.115 60.5899 45.1819 60.3235 45.3404 60.0909C45.5682 59.7286 45.8538 59.3762 46.1454 59.2973C47.4183 58.9498 52.9837 59.7311 52.932 60.7317C52.8804 61.7324 52.4733 62.2106 49.4567 61.8581C48.9251 61.7965 48.0927 61.7127 48.0927 61.7127L47.3636 62.6L45.5287 61.5697Z" fill="#FFBE9D"/>
<path d="M46.5252 65.7647C45.7948 64.7876 44.7298 64.004 43.46 63.5095C43.6671 63.5366 43.8667 63.5933 44.0493 63.6771C44.9637 64.0358 45.7315 64.6005 46.2609 65.3038C46.3835 65.4428 46.4731 65.5991 46.5252 65.7647Z" fill="#EB996E"/>
<path d="M47.4608 62.6862C47.4335 62.7059 47.0659 62.4644 46.5646 62.2154C46.355 62.1077 46.1379 62.0098 45.9145 61.9221C45.7414 61.8581 45.6259 61.8408 45.629 61.8211C45.632 61.8014 45.7596 61.7915 45.951 61.8383C46.1974 61.9026 46.4323 61.9929 46.6497 62.107C47.1631 62.3609 47.5003 62.6591 47.4608 62.6862Z" fill="#EB996E"/>
<path d="M48.3964 61.7546C48.0344 61.7888 47.6675 61.7551 47.3241 61.656C47.0729 61.5937 46.8395 61.4915 46.6375 61.3553C46.4856 61.2493 46.4218 61.1631 46.437 61.1508C46.7292 61.3041 47.0421 61.4298 47.3696 61.5254C47.7178 61.5832 48.0608 61.6598 48.3964 61.7546Z" fill="#EB996E"/>
<path d="M42.9892 67.0044C42.7974 66.8411 42.6273 66.6619 42.4819 66.4696C42.135 66.0143 41.6966 65.6094 41.1847 65.2718C40.6542 64.9569 39.9967 64.816 39.3438 64.8774C39.0759 64.9163 38.8155 64.9834 38.5691 65.077C38.5691 65.077 38.6238 65.0253 38.7483 64.9637C38.9257 64.8764 39.1214 64.8162 39.3255 64.7862C39.6656 64.7416 40.0132 64.7525 40.348 64.8181C40.6829 64.8837 40.9983 65.0027 41.2758 65.1682C41.8045 65.5129 42.246 65.9372 42.5761 66.4178C42.7339 66.6036 42.8721 66.7998 42.9892 67.0044Z" fill="#EB996E"/>
<path d="M47.2451 76.9865C46.4959 77.1158 45.7367 77.2039 44.9728 77.2502C44.2132 77.3395 43.4468 77.3856 42.6792 77.3882C43.4295 77.259 44.1897 77.1709 44.9546 77.1245C45.7134 77.0367 46.4786 76.9905 47.2451 76.9865Z" fill="#EB996E"/>
</svg>
