<svg width="250" height="216" viewBox="0 0 250 216" fill="none" xmlns="http://www.w3.org/2000/svg">
<path d="M235.118 91.0903C244.043 108.39 242.527 130.48 232.229 146.857C240.162 129.411 241.601 109.227 235.118 91.0903Z" fill="#006466" fill-opacity="0.05"/>
<path d="M235.436 24.6251C242.232 32.4436 243.786 44.2335 239.887 53.7414C241.208 43.2476 240.103 34.1815 235.436 24.6251Z" fill="#006466" fill-opacity="0.05"/>
<path d="M175.265 11.3456C182.591 4.02029 194.244 1.64863 204 4.87622C193.439 4.28906 184.472 6.02395 175.265 11.3456Z" fill="#006466" fill-opacity="0.05"/>
<path d="M178.678 5.12728C180.63 2.4449 184.468 0.958109 187.618 2.23757C184.407 2.66169 181.615 3.82419 178.678 5.12728Z" fill="#006466" fill-opacity="0.05"/>
<path d="M39.63 51.8423C38.5862 62.4288 40.711 71.3106 45.6061 80.6845C38.637 73.1323 35.9842 61.5387 39.63 51.8423Z" fill="#006466" fill-opacity="0.05"/>
<path d="M91.0216 16.627C80.5809 14.5903 71.5379 15.8686 61.7446 19.8588C69.9205 13.6328 81.7121 12.084 91.0216 16.627Z" fill="#006466" fill-opacity="0.05"/>
<path d="M79.5447 10.9374C76.3414 11.1819 73.3312 11.482 70.3032 12.6315C72.4705 10.0112 76.554 9.50081 79.5447 10.9374Z" fill="#006466" fill-opacity="0.05"/>
<path d="M128.789 14.686C126.622 17.0583 124.634 19.3384 123.215 22.25C123 18.8558 125.626 15.6873 128.789 14.686Z" fill="#006466" fill-opacity="0.05"/>
<path d="M246.216 125.486C247.049 134.986 242.924 145.174 236.16 151.819C236.697 150.727 237.348 149.734 237.887 148.672C241.879 141.425 244.695 133.631 246.216 125.486Z" fill="#006466" fill-opacity="0.05"/>
<path d="M59.7668 91.2279C52.4409 109.043 52.9336 129.27 60.0421 147.069C50.5211 130.228 50.0409 108.091 59.7668 91.2279Z" fill="#006466" fill-opacity="0.05"/>
<path d="M49.8457 101.434C47.9921 109.51 47.4646 117.781 48.2348 126.019C48.3069 127.208 48.5072 128.378 48.5645 129.593C45.012 120.804 45.2926 109.814 49.8457 101.434Z" fill="#006466" fill-opacity="0.05"/>
<path d="M199.436 55.4705L195.625 52.5955L221.535 18.2457C222.329 17.193 223.825 16.9839 224.878 17.7772C225.93 18.5711 226.14 20.0674 225.346 21.12L199.436 55.4705Z" fill="#006466" fill-opacity="0.05"/>
<path opacity="0.1" d="M196.481 51.4631L199.972 54.761L199.437 55.471L195.626 52.5961L196.481 51.4631Z" fill="black" fill-opacity="0.05"/>
<path opacity="0.1" d="M200.807 53.6523L197.315 50.3544L197.851 49.645L201.662 52.5199L200.807 53.6523Z" fill="black" fill-opacity="0.05"/>
<path d="M229.504 73.4662L170.061 28.6278C182.443 12.2122 205.788 8.94446 222.202 21.325C238.618 33.7072 241.887 57.0506 229.504 73.4662Z" fill="#006466" fill-opacity="0.05"/>
<path opacity="0.5" d="M229.504 73.4662L170.061 28.6278C182.443 12.2122 205.788 8.94446 222.202 21.325C238.618 33.7072 241.887 57.0506 229.504 73.4662Z" fill="white"/>
<path opacity="0.5" d="M223.362 22.3256C209.405 13.5496 189.369 18.5906 177.542 34.2708L173.821 31.4644C186.204 15.0488 207.579 10.2948 221.562 20.8424C222.188 21.3149 222.786 21.8093 223.362 22.3256Z" fill="white"/>
<path d="M82.041 66.8615L85.2296 63.3091L53.2113 34.5685C52.2301 33.6878 50.7214 33.7693 49.8407 34.7504C48.96 35.7316 49.0415 37.2402 50.0226 38.121L82.041 66.8615Z" fill="#006466" fill-opacity="0.05"/>
<path opacity="0.1" d="M84.1734 62.3616L81.3794 66.2685L82.041 66.8621L85.2296 63.3096L84.1734 62.3616Z" fill="black" fill-opacity="0.05"/>
<path opacity="0.1" d="M80.3467 65.3405L83.1407 61.4336L82.4797 60.84L79.2905 64.3924L80.3467 65.3405Z" fill="black" fill-opacity="0.05"/>
<path d="M55.9836 90.2918L105.721 34.8822C90.4197 21.1472 66.8809 22.419 53.1476 37.7181C39.4127 53.0197 40.6821 76.5562 55.9836 90.2918Z" fill="#006466" fill-opacity="0.05"/>
<path opacity="0.5" d="M55.9836 90.2918L105.721 34.8822C90.4197 21.1472 66.8809 22.419 53.1476 37.7181C39.4127 53.0197 40.6821 76.5562 55.9836 90.2918Z" fill="white"/>
<path opacity="0.5" d="M52.2021 38.9226C64.2158 27.6319 84.8467 28.7353 99.4624 41.8554L102.575 38.3868C87.2739 24.6518 65.3836 24.0865 53.6836 37.1209C53.1597 37.7051 52.667 38.3053 52.2021 38.9226Z" fill="white"/>
<path d="M97.7973 190.61L92.9482 214.528L101.284 213.721L115.482 199.473L97.7973 190.61Z" fill="#006466" fill-opacity="0.05"/>
<path opacity="0.1" d="M97.7973 190.61L92.9482 214.528L101.284 213.721L115.482 199.473L97.7973 190.61Z" fill="black" fill-opacity="0.05"/>
<path d="M206.666 180.069L216.014 202.612L207.679 203.419L191.011 192.161L206.666 180.069Z" fill="#006466" fill-opacity="0.05"/>
<path opacity="0.1" d="M206.666 180.069L216.014 202.612L207.679 203.419L191.011 192.161L206.666 180.069Z" fill="black" fill-opacity="0.05"/>
<path d="M145.689 22.644L127.431 24.4124L128.178 32.1201L146.435 30.3517L145.689 22.644Z" fill="#37474F" fill-opacity="0.1"/>
<path d="M141.78 30.8015L132.833 31.6682L133.533 38.9049L142.481 38.0383L141.78 30.8015Z" fill="#37474F" fill-opacity="0.1"/>
<path d="M141.912 32.1124L133.021 33.5643L132.837 31.6747L141.786 30.8087L141.912 32.1124Z" fill="#263238" fill-opacity="0.1"/>
<path d="M206.5 181.5C239.913 148.087 239.913 93.9132 206.5 60.5C173.087 27.0868 118.913 27.0868 85.5 60.5C52.0868 93.9132 52.0868 148.087 85.5 181.5C118.913 214.913 173.087 214.913 206.5 181.5Z" fill="#006466" fill-opacity="0.05"/>
<path opacity="0.1" d="M203.594 177.333C235.477 145.45 235.477 93.7573 203.594 61.8744C171.711 29.9916 120.019 29.9916 88.1358 61.8744C56.2529 93.7573 56.2529 145.45 88.1358 177.333C120.019 209.215 171.711 209.215 203.594 177.333Z" fill="black" fill-opacity="0.05"/>
<path d="M145.967 196.948C188.112 196.948 222.277 162.783 222.277 120.638C222.277 78.4931 188.112 44.3281 145.967 44.3281C103.822 44.3281 69.6572 78.4931 69.6572 120.638C69.6572 162.783 103.822 196.948 145.967 196.948Z" fill="white"/>
<g opacity="0.05">
<path d="M220.161 102.764L82.4485 162.949C79.4093 158.403 76.8474 153.502 74.8267 148.31L184.799 54.9489C202.154 65.2223 215.245 82.2322 220.161 102.764Z" fill="black" fill-opacity="0.05"/>
<path d="M222.277 119.843C222.352 126.059 221.662 132.132 220.304 137.977L91.9746 174.564C90.6325 173.227 89.3383 171.833 88.1025 170.395L222.277 119.843Z" fill="black" fill-opacity="0.05"/>
</g>
<path d="M193.581 64.149L190.034 68.4558L188.719 67.3731L192.266 63.0663C192.49 63.2352 192.712 63.4177 192.933 63.6003C193.155 63.7828 193.372 63.9612 193.581 64.149Z" fill="#263238" fill-opacity="0.1"/>
<path d="M158.042 53.4189L156.362 53.1348L157.284 47.6165C157.843 47.6968 158.407 47.7895 158.959 47.8964L158.042 53.4189Z" fill="#263238" fill-opacity="0.1"/>
<path d="M122.81 56.3837L121.22 56.9797L119.259 51.736C119.786 51.5287 120.317 51.3255 120.849 51.14L122.81 56.3837Z" fill="#263238" fill-opacity="0.1"/>
<path d="M93.7903 76.5697L92.7075 77.884L88.396 74.3339C88.5649 74.1094 88.7475 73.8879 88.93 73.6664C89.1125 73.4449 89.2909 73.2281 89.4788 73.019L93.7903 76.5697Z" fill="#263238" fill-opacity="0.1"/>
<path d="M78.4643 110.238L72.9507 109.319C73.0263 108.757 73.1196 108.202 73.2224 107.645L78.7449 108.563L78.4643 110.238Z" fill="#263238" fill-opacity="0.1"/>
<path d="M82.3143 145.384L77.0706 147.345C76.8597 146.823 76.6601 146.287 76.4746 145.754L81.7135 143.79L82.3143 145.384Z" fill="#263238" fill-opacity="0.1"/>
<path d="M103.214 173.892L99.6635 178.204C99.4391 178.035 99.2223 177.857 99.0008 177.674C98.7793 177.492 98.5577 177.309 98.3486 177.121L101.899 172.81L103.214 173.892Z" fill="#263238" fill-opacity="0.1"/>
<path d="M134.649 193.658C134.091 193.578 133.526 193.485 132.974 193.378L133.892 187.855L135.571 188.14L134.649 193.658Z" fill="#263238" fill-opacity="0.1"/>
<path d="M172.675 189.538C172.148 189.745 171.621 189.944 171.084 190.126L169.125 184.891L170.715 184.295L172.675 189.538Z" fill="#263238" fill-opacity="0.1"/>
<path d="M203.008 167.603C202.826 167.825 202.644 168.046 202.456 168.255L198.145 164.705L199.227 163.391L203.539 166.941C203.369 167.165 203.19 167.382 203.008 167.603Z" fill="#263238" fill-opacity="0.1"/>
<path d="M218.711 133.63L213.189 132.712L213.469 131.037L218.991 131.955C218.911 132.513 218.814 133.073 218.711 133.63Z" fill="#263238" fill-opacity="0.1"/>
<path d="M215.46 95.5206L210.221 97.4847L209.62 95.8909L214.864 93.9304C215.075 94.452 215.274 94.9878 215.46 95.5206Z" fill="#263238" fill-opacity="0.1"/>
<path d="M211.424 128.912L141.938 124.109L142.742 116.897L211.642 126.953L211.424 128.912Z" fill="#006466" fill-opacity="0.05"/>
<path d="M141.504 68.6578L150.137 124.542L142.905 125.143L139.54 68.8215L141.504 68.6578Z" fill="#263238" fill-opacity="0.1"/>
<path d="M125.074 156.591L144.556 115.752L150.887 119.297L126.794 157.554L125.074 156.591Z" fill="#263238" fill-opacity="0.1"/>
<path d="M148.432 120.399C148.564 121.76 147.567 122.97 146.206 123.102C144.845 123.234 143.634 122.237 143.502 120.876C143.37 119.514 144.367 118.304 145.728 118.172C147.09 118.04 148.3 119.037 148.432 120.399Z" fill="#006466" fill-opacity="0.05"/>
<path d="M137.223 51.6551L137.895 58.5988C137.931 58.9639 137.652 59.2758 137.299 59.31C136.934 59.3455 136.625 59.0903 136.589 58.7252L136.029 52.9352L135.584 53.2518C135.485 53.3327 135.37 53.3676 135.263 53.3776C135.04 53.3995 134.817 53.302 134.679 53.1017C134.45 52.8271 134.516 52.4047 134.805 52.1986L136.169 51.1991C136.18 51.1861 136.204 51.1843 136.214 51.1713C136.238 51.169 136.247 51.1442 136.27 51.13C136.293 51.1276 136.316 51.114 136.34 51.1117C136.35 51.0987 136.374 51.0963 136.386 51.0951C136.408 51.081 136.444 51.0774 136.467 51.0756C136.478 51.0745 136.49 51.0733 136.502 51.0721L136.514 51.0709C136.549 51.0674 136.573 51.065 136.597 51.0632C136.61 51.0739 136.633 51.0715 136.645 51.0703C136.68 51.0668 136.693 51.0774 136.718 51.0869C136.73 51.0857 136.753 51.0833 136.767 51.094C136.804 51.114 136.817 51.1247 136.84 51.1229C136.853 51.1335 136.866 51.1442 136.891 51.1536C136.904 51.1642 136.929 51.1737 136.941 51.1843C136.966 51.1938 136.98 51.2162 136.993 51.2269C137.006 51.2375 137.018 51.2481 137.032 51.2706C137.045 51.2812 137.071 51.3025 137.084 51.3131L137.098 51.3355C137.099 51.3474 137.112 51.358 137.113 51.3698C137.128 51.3923 137.14 51.4029 137.142 51.4259C137.157 51.4484 137.159 51.472 137.172 51.4826C137.174 51.5063 137.188 51.5287 137.19 51.5405C137.193 51.576 137.195 51.5996 137.221 51.6209C137.221 51.6321 137.222 51.6433 137.223 51.6551Z" fill="#263238" fill-opacity="0.1"/>
<path d="M144.709 57.939C144.744 58.304 144.489 58.6135 144.125 58.649L139.958 59.0524C139.958 59.0524 139.958 59.0524 139.947 59.0536L139.935 59.0548C139.758 59.0719 139.563 59.0194 139.431 58.89C139.158 58.6431 139.143 58.2408 139.378 57.9685L142.556 54.4775C142.868 54.1384 142.982 53.7237 142.941 53.2996C142.904 52.9227 142.741 52.5825 142.453 52.3131C142.114 52.0012 141.687 51.8884 141.276 51.928C140.911 51.9634 140.559 52.1282 140.29 52.4159L139.957 52.7804C139.71 53.0539 139.307 53.0692 139.034 52.8223C138.773 52.5742 138.746 52.1731 138.992 51.8996L139.325 51.5352C139.807 50.9894 140.478 50.6869 141.149 50.6219C141.914 50.5481 142.722 50.7903 143.334 51.3491C143.879 51.8305 144.182 52.5021 144.247 53.1732C144.321 53.9381 144.078 54.7456 143.52 55.3582L141.491 57.5857L143.998 57.3429C144.363 57.3075 144.674 57.5745 144.709 57.939Z" fill="#263238" fill-opacity="0.1"/>
<path d="M173.694 56.8734L174.366 63.8171C174.401 64.1815 174.122 64.494 173.769 64.5283C173.404 64.5637 173.094 64.3085 173.059 63.9435L172.499 58.1534L172.055 58.4694C171.955 58.5504 171.84 58.5852 171.734 58.5953C171.51 58.6171 171.287 58.5196 171.148 58.3194C170.92 58.0447 170.986 57.6224 171.275 57.4162L172.639 56.4168C172.651 56.4038 172.674 56.402 172.684 56.389C172.708 56.3866 172.717 56.3618 172.74 56.3476C172.763 56.3453 172.786 56.3317 172.809 56.3293C172.82 56.3163 172.843 56.314 172.855 56.3128C172.877 56.2986 172.913 56.2951 172.937 56.2933C172.948 56.2921 172.96 56.2909 172.972 56.2898L172.984 56.2886C173.019 56.285 173.043 56.2827 173.066 56.2809C173.079 56.2915 173.103 56.2892 173.114 56.288C173.15 56.2844 173.163 56.2951 173.188 56.3045C173.199 56.3033 173.223 56.301 173.235 56.3116C173.273 56.3317 173.286 56.3423 173.31 56.34C173.322 56.3506 173.335 56.3612 173.36 56.3707C173.373 56.3813 173.397 56.3908 173.411 56.4014C173.436 56.4108 173.45 56.4333 173.462 56.4439C173.475 56.4546 173.488 56.4652 173.502 56.4876C173.515 56.4983 173.541 56.5195 173.554 56.5302L173.568 56.5526C173.569 56.5644 173.582 56.5751 173.583 56.5869C173.596 56.6093 173.61 56.62 173.612 56.643C173.626 56.6654 173.628 56.6891 173.641 56.6997C173.644 56.7233 173.658 56.7458 173.659 56.7576C173.663 56.793 173.665 56.8167 173.691 56.8379C173.691 56.8503 173.693 56.8615 173.694 56.8734Z" fill="#263238" fill-opacity="0.1"/>
<path d="M105.53 63.4733L106.202 70.417C106.238 70.782 105.959 71.0939 105.606 71.1282C105.241 71.1636 104.932 70.9084 104.896 70.5434L104.336 64.7533L103.891 65.0699C103.792 65.1503 103.676 65.1857 103.571 65.1958C103.347 65.2176 103.124 65.1201 102.986 64.9199C102.757 64.6452 102.823 64.2229 103.112 64.0167L104.477 63.0173C104.487 63.0043 104.511 63.0025 104.522 62.9895C104.545 62.9871 104.555 62.9623 104.577 62.9481C104.601 62.9458 104.623 62.9322 104.647 62.9298C104.658 62.9168 104.681 62.9145 104.693 62.9133C104.715 62.8991 104.751 62.8956 104.774 62.8938C104.786 62.8926 104.797 62.8914 104.809 62.8903L104.821 62.8891C104.857 62.8855 104.88 62.8832 104.904 62.8808C104.917 62.8914 104.94 62.8891 104.952 62.8879C104.988 62.8843 105.001 62.895 105.026 62.9044C105.037 62.9033 105.061 62.9009 105.074 62.9115C105.111 62.9316 105.124 62.9422 105.148 62.9399C105.161 62.9505 105.174 62.9611 105.199 62.9706C105.211 62.9812 105.236 62.9907 105.249 63.0013C105.274 63.0108 105.287 63.0332 105.3 63.0438C105.313 63.0545 105.326 63.0651 105.34 63.0875C105.353 63.0982 105.378 63.1194 105.391 63.1301L105.405 63.1525C105.407 63.1643 105.42 63.175 105.421 63.1868C105.435 63.2092 105.447 63.2199 105.45 63.2429C105.464 63.2653 105.466 63.289 105.479 63.2996C105.482 63.3232 105.496 63.3457 105.497 63.3575C105.5 63.3929 105.503 63.4166 105.528 63.4378C105.528 63.4502 105.529 63.4615 105.53 63.4733Z" fill="#263238" fill-opacity="0.1"/>
<path d="M109.472 63.0917L110.145 70.0354C110.18 70.4004 109.901 70.7123 109.549 70.7466C109.184 70.782 108.874 70.5268 108.839 70.1618L108.278 64.3717L107.833 64.6877C107.734 64.7687 107.619 64.8035 107.513 64.8136C107.289 64.8354 107.066 64.738 106.928 64.5377C106.699 64.263 106.765 63.8407 107.054 63.6345L108.419 62.635C108.429 62.6226 108.453 62.6203 108.464 62.6073C108.487 62.6049 108.497 62.5801 108.519 62.5659C108.543 62.5636 108.565 62.55 108.589 62.5476C108.599 62.5346 108.623 62.5323 108.635 62.5311C108.657 62.5169 108.693 62.5134 108.716 62.5116C108.728 62.5104 108.739 62.5092 108.751 62.5081L108.763 62.5069C108.798 62.5033 108.822 62.501 108.846 62.4986C108.859 62.5092 108.882 62.5069 108.894 62.5057C108.93 62.5021 108.943 62.5128 108.967 62.5222C108.979 62.521 109.002 62.5187 109.015 62.5293C109.052 62.5494 109.065 62.56 109.089 62.5577C109.102 62.5683 109.115 62.5789 109.14 62.5884C109.152 62.599 109.177 62.6085 109.19 62.6191C109.215 62.6286 109.229 62.651 109.241 62.6616C109.254 62.6723 109.267 62.6829 109.281 62.7053C109.294 62.716 109.319 62.7372 109.332 62.7479L109.347 62.7703C109.348 62.7821 109.361 62.7928 109.362 62.8046C109.376 62.827 109.389 62.8377 109.391 62.8607C109.405 62.8831 109.407 62.9068 109.42 62.9174C109.423 62.941 109.437 62.9635 109.438 62.9753C109.442 63.0107 109.444 63.0344 109.47 63.0556C109.47 63.0686 109.471 63.0799 109.472 63.0917Z" fill="#263238" fill-opacity="0.1"/>
<path d="M203.225 85.751C203.26 86.1161 203.005 86.4256 202.64 86.461L198.474 86.8645C198.474 86.8645 198.474 86.8645 198.462 86.8656L198.449 86.8668C198.273 86.884 198.078 86.8314 197.946 86.702C197.673 86.4551 197.658 86.0528 197.893 85.7805L201.071 82.2895C201.383 81.9504 201.497 81.5352 201.456 81.1116C201.419 80.7348 201.255 80.3945 200.968 80.1252C200.629 79.8133 200.202 79.7004 199.79 79.74C199.426 79.7755 199.073 79.9403 198.804 80.2273L198.471 80.5924C198.224 80.8653 197.821 80.8807 197.549 80.6337C197.287 80.3857 197.26 79.9846 197.507 79.7111L197.84 79.3466C198.322 78.8008 198.993 78.4984 199.664 78.4334C200.429 78.359 201.236 78.6017 201.849 79.1605C202.394 79.6425 202.697 80.3136 202.762 80.9846C202.836 81.7496 202.593 82.5571 202.035 83.1696L200.005 85.3972L202.512 85.1544C202.878 85.1195 203.189 85.3865 203.225 85.751Z" fill="#263238" fill-opacity="0.1"/>
<path d="M83.1022 90.3732L83.7744 97.3169C83.8098 97.6819 83.531 97.9938 83.1784 98.0281C82.8133 98.0635 82.5038 97.8083 82.4683 97.4433L81.9078 91.6532L81.463 91.9698C81.3637 92.0502 81.2485 92.0856 81.1422 92.0957C80.9189 92.1175 80.6956 92.02 80.5574 91.8198C80.3288 91.5451 80.395 91.1228 80.6838 90.9166L82.0484 89.9172C82.059 89.9042 82.0826 89.9024 82.0933 89.8894C82.1169 89.887 82.1263 89.8622 82.1488 89.848C82.1724 89.8457 82.1949 89.8321 82.2185 89.8297C82.2291 89.8167 82.2527 89.8144 82.2645 89.8132C82.287 89.799 82.3224 89.7955 82.3455 89.7937C82.3573 89.7925 82.3691 89.7913 82.3809 89.7902L82.3927 89.789C82.4282 89.7854 82.4518 89.7831 82.4754 89.7807C82.4884 89.7913 82.5121 89.789 82.5239 89.7878C82.5593 89.7843 82.5723 89.7949 82.5971 89.8043C82.6089 89.8032 82.6326 89.8008 82.6456 89.8114C82.6828 89.8315 82.6958 89.8421 82.7194 89.8398C82.7324 89.8504 82.7454 89.861 82.7702 89.8705C82.7826 89.8811 82.8074 89.8906 82.8204 89.9012C82.8446 89.9107 82.8588 89.9331 82.8718 89.9437C82.8848 89.9544 82.8978 89.965 82.9114 89.9874C82.9244 89.9981 82.9498 90.0193 82.9628 90.03L82.9769 90.0524C82.9781 90.0642 82.9911 90.0749 82.9923 90.0867C83.0065 90.1091 83.0189 90.1198 83.0212 90.1428C83.0354 90.1653 83.0378 90.1889 83.0508 90.1995C83.0531 90.2231 83.0673 90.2456 83.0685 90.2574C83.072 90.2928 83.0744 90.3165 83.0998 90.3377C83.1004 90.3496 83.1016 90.3614 83.1022 90.3732Z" fill="#263238" fill-opacity="0.1"/>
<path d="M84.9327 93.7006C84.84 92.6167 85.016 91.6137 85.4608 90.8103C85.8825 90.0093 86.5937 89.382 87.5235 89.2916C88.4296 89.2042 89.2602 89.6821 89.8273 90.3874C90.4061 91.0915 90.783 92.0413 90.8881 93.1241C90.9921 94.195 90.8049 95.211 90.3719 96.0132C89.9495 96.8024 89.2271 97.4427 88.321 97.5307C87.3912 97.6205 86.5713 97.1296 86.0054 96.4361C85.4147 95.7326 85.0479 94.7704 84.9327 93.7006ZM89.5815 93.2505C89.4994 92.4028 89.1922 91.684 88.8142 91.2102C88.4249 90.7489 88.0138 90.551 87.6499 90.5982C87.2837 90.6219 86.9068 90.896 86.6014 91.4246C86.3208 91.9622 86.1572 92.7265 86.2393 93.5742C86.3203 94.4094 86.6286 95.1402 87.0061 95.6027C87.4077 96.0746 87.8301 96.2595 88.1945 96.2241C88.5596 96.1886 88.9264 95.9276 89.2188 95.3882C89.5 94.8619 89.6619 94.0858 89.5815 93.2505Z" fill="#263238" fill-opacity="0.1"/>
<path d="M77.3841 126.113C77.2317 124.536 78.3912 123.141 79.9678 122.988C81.451 122.845 82.7713 123.845 83.0518 125.268C83.053 125.28 83.053 125.28 83.0654 125.29C83.0991 125.513 83.1322 125.735 83.154 125.959C83.2302 126.747 83.1948 127.606 82.9756 128.411C82.7565 129.217 82.346 130.005 81.6525 130.571C81.19 130.948 80.6093 131.207 79.9406 131.295C79.5767 131.342 79.2566 131.1 79.1975 130.737C79.152 130.385 79.4054 130.064 79.767 129.993C80.2129 129.938 80.5538 129.774 80.8414 129.556C81.1161 129.328 81.337 129.033 81.503 128.661C81.5526 128.561 81.5893 128.45 81.6265 128.34C81.3004 128.526 80.92 128.646 80.5195 128.684C78.9423 128.837 77.5365 127.69 77.3841 126.113ZM78.6901 125.986C78.7722 126.833 79.5348 127.472 80.3943 127.389C81.2532 127.306 81.8675 126.534 81.786 125.686C81.7027 124.827 80.9537 124.21 80.0948 124.294C79.2347 124.378 78.6068 125.127 78.6901 125.986Z" fill="#263238" fill-opacity="0.1"/>
<path d="M213.505 113.325C214.137 113.833 214.492 114.559 214.564 115.301C214.637 116.043 214.427 116.824 213.906 117.456C213.396 118.075 212.671 118.442 211.918 118.515C211.176 118.587 210.395 118.366 209.775 117.856C209.492 117.622 209.45 117.198 209.684 116.914C209.918 116.63 210.342 116.589 210.626 116.823C210.962 117.099 211.376 117.213 211.789 117.173C212.2 117.134 212.586 116.942 212.874 116.605C213.161 116.257 213.276 115.841 213.235 115.43C213.195 115.017 213.004 114.632 212.656 114.357C212.319 114.069 211.906 113.966 211.492 113.994C211.305 114.024 211.121 113.959 210.989 113.829C210.977 113.83 210.977 113.83 210.977 113.818C210.681 113.585 210.641 113.174 210.862 112.879L211.944 111.539L210.037 111.724C209.672 111.759 209.35 111.493 209.314 111.116C209.278 110.751 209.544 110.429 209.909 110.393L213.381 110.057C213.757 110.021 214.08 110.286 214.115 110.651C214.126 110.769 214.101 110.879 214.063 110.977C214.033 111.039 214.004 111.102 213.961 111.153L212.627 112.826C212.945 112.94 213.247 113.1 213.505 113.325Z" fill="#263238" fill-opacity="0.1"/>
<path d="M209.185 149.665C209.221 150.03 208.954 150.341 208.589 150.376L208.472 150.387L208.559 151.282C208.594 151.646 208.338 151.956 207.974 151.992C207.609 152.027 207.299 151.772 207.264 151.407L207.177 150.513L203.493 150.87L203.481 150.871L203.47 150.872C203.328 150.886 203.183 150.865 203.056 150.769C202.74 150.575 202.666 150.178 202.862 149.873L206.693 144.038C206.704 144.037 206.704 144.025 206.714 144.012C206.724 143.999 206.735 143.986 206.745 143.962C206.779 143.947 206.789 143.933 206.8 143.921C206.811 143.908 206.833 143.894 206.844 143.881C206.866 143.867 206.877 143.854 206.912 143.851C206.922 143.826 206.932 143.813 206.955 143.811C206.966 143.798 206.99 143.796 207.023 143.781C207.035 143.78 207.059 143.777 207.069 143.765C207.092 143.763 207.128 143.759 207.151 143.757C207.151 143.757 207.164 143.756 207.175 143.755C207.187 143.754 207.187 143.754 207.199 143.753C207.222 143.75 207.258 143.747 207.269 143.745C207.294 143.755 207.305 143.754 207.329 143.751C207.342 143.761 207.378 143.758 207.403 143.768C207.414 143.767 207.439 143.776 207.45 143.775C207.476 143.796 207.501 143.806 207.514 143.816C207.538 143.826 207.551 143.836 207.576 143.846C207.576 143.846 207.587 143.845 207.588 143.856C207.6 143.855 207.625 143.865 207.626 143.877C207.652 143.898 207.665 143.908 207.678 143.919C207.691 143.93 207.705 143.952 207.717 143.962C207.73 143.973 207.743 143.983 207.771 144.017C207.772 144.028 207.785 144.051 207.799 144.062C207.812 144.084 207.814 144.096 207.829 144.13C207.83 144.142 207.844 144.164 207.846 144.176C207.859 144.198 207.86 144.21 207.864 144.245C207.866 144.269 207.879 144.279 207.882 144.303C207.883 144.315 207.884 144.327 207.885 144.338L208.345 149.094L208.463 149.082C208.829 149.046 209.152 149.312 209.185 149.665ZM206.77 146.311L204.71 149.445L207.052 149.218L206.77 146.311Z" fill="#263238" fill-opacity="0.1"/>
<path d="M95.3595 160.068C95.5089 161.61 94.3712 162.991 92.8295 163.141C91.276 163.291 89.8831 162.155 89.7336 160.613C89.6391 159.637 90.0502 158.729 90.7662 158.149C90.488 157.855 90.3072 157.457 90.2647 157.021C90.1619 155.962 90.9487 155.007 92.0315 154.902C93.0912 154.799 94.0463 155.586 94.1485 156.646C94.1905 157.081 94.0895 157.507 93.8727 157.848C94.6754 158.281 95.265 159.092 95.3595 160.068ZM94.0765 160.192C93.9955 159.357 93.2459 158.729 92.4101 158.81C91.563 158.892 90.9475 159.652 91.0166 160.489C91.1094 161.324 91.8578 161.94 92.7055 161.858C93.5407 161.777 94.1574 161.028 94.0765 160.192ZM91.5483 156.897C91.5837 157.262 91.9074 157.54 92.2837 157.503C92.6369 157.469 92.9016 157.135 92.8661 156.77C92.8319 156.417 92.5093 156.151 92.1561 156.185C91.7792 156.221 91.514 156.544 91.5483 156.897Z" fill="#263238" fill-opacity="0.1"/>
<path d="M185.869 174.104C186.5 174.613 186.855 175.339 186.928 176.092C187 176.834 186.779 177.616 186.269 178.235C185.76 178.867 185.034 179.222 184.292 179.294C184.269 179.296 184.269 179.296 184.269 179.296C183.539 179.367 182.747 179.159 182.137 178.635C181.843 178.414 181.802 177.991 182.046 177.694C182.269 177.411 182.704 177.369 182.989 177.603C183.325 177.891 183.74 178.006 184.164 177.964C184.563 177.925 184.961 177.733 185.236 177.385C185.513 177.049 185.638 176.621 185.599 176.221C185.558 175.798 185.366 175.412 185.019 175.137C184.682 174.849 184.269 174.746 183.856 174.786C183.456 174.825 183.047 175.007 182.771 175.354C182.537 175.638 182.114 175.679 181.829 175.445C181.778 175.402 181.737 175.347 181.685 175.305C181.683 175.281 181.681 175.269 181.67 175.27C181.668 175.247 181.654 175.225 181.641 175.213C181.637 175.178 181.624 175.155 181.621 175.132C181.62 175.12 181.608 175.122 181.607 175.11C181.589 175.041 181.582 174.97 181.587 174.91L181.645 171.827C181.661 171.624 181.752 171.449 181.894 171.328C181.916 171.314 181.928 171.313 181.938 171.3C181.949 171.286 181.961 171.286 181.971 171.273C182.061 171.216 182.153 171.184 182.271 171.173L185.742 170.837C186.119 170.8 186.442 171.065 186.478 171.442C186.512 171.796 186.248 172.13 185.871 172.166L182.976 172.447L182.948 173.625C183.2 173.53 183.468 173.468 183.726 173.444C184.467 173.373 185.247 173.582 185.869 174.104Z" fill="#263238" fill-opacity="0.1"/>
<path d="M121.179 177.992L118.91 185.233C118.84 185.489 118.618 185.653 118.348 185.679C118.277 185.686 118.182 185.684 118.096 185.656C117.752 185.535 117.562 185.173 117.661 184.843L119.619 178.56L116.582 178.854C116.229 178.888 115.905 178.61 115.871 178.257C115.835 177.892 116.102 177.581 116.456 177.547L120.492 177.156C120.528 177.153 120.563 177.149 120.611 177.156C120.695 177.16 120.782 177.199 120.868 177.226C120.881 177.237 120.894 177.248 120.906 177.258C120.931 177.268 120.944 177.278 120.958 177.301C120.972 177.323 120.996 177.333 121.009 177.343C121.024 177.365 121.036 177.376 121.049 177.386C121.062 177.397 121.077 177.431 121.078 177.443C121.092 177.466 121.105 177.476 121.131 177.498C121.132 177.509 121.148 177.543 121.149 177.555C121.162 177.578 121.164 177.59 121.178 177.612C121.197 177.693 121.207 177.788 121.203 177.871C121.195 177.919 121.187 177.955 121.179 177.992Z" fill="#263238" fill-opacity="0.1"/>
<path d="M155.344 187.336C155.497 188.913 154.337 190.309 152.759 190.462C151.276 190.605 149.956 189.605 149.675 188.182C149.674 188.17 149.674 188.17 149.662 188.16C149.628 187.938 149.595 187.716 149.573 187.491C149.497 186.702 149.532 185.844 149.752 185.038C149.971 184.233 150.381 183.445 151.075 182.879C151.537 182.501 152.118 182.243 152.787 182.155C153.15 182.109 153.471 182.351 153.53 182.713C153.575 183.064 153.322 183.386 152.96 183.457C152.514 183.512 152.173 183.676 151.886 183.893C151.611 184.122 151.39 184.416 151.224 184.789C151.175 184.889 151.137 184.999 151.101 185.11C151.427 184.924 151.807 184.804 152.208 184.765C153.785 184.613 155.191 185.76 155.344 187.336ZM154.037 187.463C153.955 186.616 153.192 185.976 152.334 186.06C151.475 186.143 150.86 186.915 150.942 187.762C151.025 188.622 151.774 189.238 152.633 189.155C153.492 189.072 154.12 188.322 154.037 187.463Z" fill="#263238" fill-opacity="0.1"/>
<path d="M29.3469 82.889C29.3469 82.889 28.0732 79.2082 21.1375 75.8379C14.2009 72.4685 9.86914 70.6696 9.86914 70.6696C9.86914 70.6696 10.2225 80.027 16.7903 83.5247C23.3582 87.0216 31.6395 89.5142 31.6395 89.5142L29.3469 82.889Z" fill="#B2D1D1" fill-opacity="0.5"/>
<path d="M29.8227 108.464C29.8227 108.464 28.5489 104.783 21.6132 101.413C14.6775 98.0431 10.3457 96.2442 10.3457 96.2442C10.3457 96.2442 10.6982 105.602 17.2669 109.099C23.8348 112.596 32.116 115.089 32.116 115.089L29.8227 108.464Z" fill="#B2D1D1" fill-opacity="0.5"/>
<path d="M31.1926 89.2698C31.1926 89.2698 30.3149 85.4752 34.3991 78.9339C38.4832 72.3927 41.1961 68.5667 41.1961 68.5667C41.1961 68.5667 45.8707 76.6801 42.1665 83.1334C38.4623 89.5868 32.772 96.0998 32.772 96.0998L31.1926 89.2698Z" fill="#B2D1D1" fill-opacity="0.5"/>
<path d="M31.5517 119.544C31.5517 119.544 31.0774 115.678 35.8262 109.602C40.5751 103.526 43.6743 100.006 43.6743 100.006C43.6743 100.006 47.4713 108.565 43.1088 114.594C38.7472 120.622 32.4044 126.502 32.4044 126.502L31.5517 119.544Z" fill="#B2D1D1" fill-opacity="0.5"/>
<path d="M43.4924 148.555C43.4924 148.555 42.2187 144.874 45.5889 137.938C48.9592 131.001 51.2525 126.91 51.2525 126.91C51.2525 126.91 56.758 134.484 53.7564 141.293C50.7548 148.102 45.7849 155.18 45.7849 155.18L43.4924 148.555Z" fill="#B2D1D1" fill-opacity="0.5"/>
<path d="M45.906 155.809C45.906 155.809 45.1687 151.985 38.7815 147.664C32.3943 143.342 28.3626 140.946 28.3626 140.946C28.3626 140.946 27.3825 150.259 33.3865 154.654C39.3905 159.049 47.2338 162.693 47.2338 162.693L45.906 155.809Z" fill="#B2D1D1" fill-opacity="0.5"/>
<path d="M48.2341 178.979C48.2341 178.979 46.9604 175.298 50.3306 168.363C53.7009 161.426 55.9942 157.336 55.9942 157.336C55.9942 157.336 61.5005 164.909 58.4981 171.718C55.4965 178.527 50.5266 185.605 50.5266 185.605L48.2341 178.979Z" fill="#B2D1D1" fill-opacity="0.5"/>
<path d="M58.3924 197.201C58.3924 197.201 56.2281 193.963 57.7317 186.399C59.2353 178.836 60.4179 174.296 60.4179 174.296C60.4179 174.296 67.6626 180.229 66.4832 187.577C65.3039 194.924 62.2886 203.029 62.2886 203.029L58.3924 197.201Z" fill="#B2D1D1" fill-opacity="0.5"/>
<path d="M29.4883 81.7839C30.5482 85.8229 31.5098 90.0482 32.0317 93.7008C33.6362 104.93 30.8935 113.482 32.1463 123.693C33.3982 133.904 43.484 144.127 46.1427 156.879C48.8015 169.631 46.3984 178.065 50.5762 185.743C54.7539 193.421 69.5191 213.021 69.5191 213.021" stroke="#263238" stroke-opacity="0.1" stroke-width="0.5" stroke-miterlimit="10" stroke-linecap="round" stroke-linejoin="round"/>
<path d="M31.9878 91.7341L36.0663 85.551" stroke="#263238" stroke-opacity="0.1" stroke-width="0.5" stroke-miterlimit="10" stroke-linecap="round" stroke-linejoin="round"/>
<path d="M30.549 86.7368L26.7939 83.4085" stroke="#263238" stroke-opacity="0.1" stroke-width="0.5" stroke-miterlimit="10" stroke-linecap="round" stroke-linejoin="round"/>
<path d="M32.3027 123.15C32.3027 123.15 35.7456 118.054 39.3175 112.914" stroke="#263238" stroke-opacity="0.1" stroke-width="0.5" stroke-miterlimit="10" stroke-linecap="round" stroke-linejoin="round"/>
<path d="M32.1156 115.09C32.1156 115.09 25.6139 108.835 19.48 105.318" stroke="#263238" stroke-opacity="0.1" stroke-width="0.5" stroke-miterlimit="10" stroke-linecap="round" stroke-linejoin="round"/>
<path d="M45.4868 153.728C45.4868 153.728 46.6452 145.373 50.8278 136.985" stroke="#263238" stroke-opacity="0.1" stroke-width="0.5" stroke-miterlimit="10" stroke-linecap="round" stroke-linejoin="round"/>
<path d="M46.3698 159.207C46.3698 159.207 42.1235 154.458 38.0265 151.393C33.9286 148.327 33.3623 147.945 33.3623 147.945" stroke="#263238" stroke-opacity="0.1" stroke-width="0.5" stroke-miterlimit="10" stroke-linecap="round" stroke-linejoin="round"/>
<path d="M50.5752 185.743C50.5752 185.743 50.8035 180.376 51.832 175.827C52.8605 171.277 54.7981 166.847 54.7981 166.847" stroke="#263238" stroke-opacity="0.1" stroke-width="0.5" stroke-miterlimit="10" stroke-linecap="round" stroke-linejoin="round"/>
<path d="M62.2879 203.029C62.2879 203.029 60.2189 198.81 60.8593 194.395C61.5006 189.979 61.9975 184.312 62.2315 182.062" stroke="#263238" stroke-opacity="0.1" stroke-width="0.5" stroke-miterlimit="10" stroke-linecap="round" stroke-linejoin="round"/>
<path d="M12.6182 143.738C12.6182 143.738 11.4194 141.568 12.7803 136.853C14.1403 132.138 15.135 129.323 15.135 129.323C15.135 129.323 19.4095 133.475 18.2664 138.071C17.1234 142.666 14.7752 147.644 14.7752 147.644L12.6182 143.738Z" fill="#B2D1D1" fill-opacity="0.5"/>
<path d="M24.5109 154.855C24.5109 154.855 23.313 152.685 24.673 147.969C26.033 143.254 27.0277 140.44 27.0277 140.44C27.0277 140.44 31.303 144.592 30.1591 149.187C29.0161 153.783 26.6679 158.761 26.6679 158.761L24.5109 154.855Z" fill="#B2D1D1" fill-opacity="0.5"/>
<path d="M14.8503 147.329C14.8503 147.329 13.4298 145.298 8.59704 144.443C3.7643 143.589 0.799805 143.243 0.799805 143.243C0.799805 143.243 2.64626 148.909 7.27572 149.906C11.9052 150.902 17.4083 150.985 17.4083 150.985L14.8503 147.329Z" fill="#B2D1D1" fill-opacity="0.5"/>
<path d="M29.0136 160.391C29.0136 160.391 27.3873 158.52 22.4917 158.178C17.596 157.836 14.6113 157.803 14.6113 157.803C14.6113 157.803 17.0426 163.244 21.7511 163.748C26.4596 164.253 31.9409 163.757 31.9409 163.757L29.0136 160.391Z" fill="#B2D1D1" fill-opacity="0.5"/>
<path d="M37.6491 178.394C37.6491 178.394 36.4512 176.224 31.7354 174.864C27.0197 173.504 24.1084 172.846 24.1084 172.846C24.1084 172.846 25.345 178.676 29.8438 180.155C34.3418 181.636 39.8061 182.299 39.8061 182.299L37.6491 178.394Z" fill="#B2D1D1" fill-opacity="0.5"/>
<path d="M40.0514 182.625C40.0514 182.625 38.5567 180.647 39.2335 175.786C39.9095 170.925 40.4943 167.999 40.4943 167.999C40.4943 167.999 45.3158 171.501 44.8374 176.212C44.3591 180.924 42.7417 186.184 42.7417 186.184L40.0514 182.625Z" fill="#B2D1D1" fill-opacity="0.5"/>
<path d="M52.9623 199.005C52.9623 199.005 52.4242 196.585 55.058 192.444C57.6926 188.303 59.439 185.883 59.439 185.883C59.439 185.883 62.3704 191.072 59.9778 195.159C57.5861 199.246 53.9295 203.361 53.9295 203.361L52.9623 199.005Z" fill="#B2D1D1" fill-opacity="0.5"/>
<path d="M50.0178 193.593C50.0178 193.593 48.8199 191.423 44.1041 190.063C39.3891 188.703 36.4771 188.045 36.4771 188.045C36.4771 188.045 37.7145 193.875 42.2125 195.354C46.7104 196.835 52.1748 197.499 52.1748 197.499L50.0178 193.593Z" fill="#B2D1D1" fill-opacity="0.5"/>
<path d="M54.3084 206.157C54.3084 206.157 53.6985 203.753 49.4813 201.244C45.264 198.734 42.6141 197.361 42.6141 197.361C42.6141 197.361 42.3342 203.313 46.3111 205.885C50.2879 208.456 55.4054 210.482 55.4054 210.482L54.3084 206.157Z" fill="#B2D1D1" fill-opacity="0.5"/>
<path d="M12.0356 143.334C13.4941 145.555 15.0832 147.81 16.5885 149.612C21.2155 155.153 26.4282 157.498 30.7237 162.438C35.0192 167.379 35.5589 176.503 40.4569 183.191C45.355 189.879 50.3676 192.334 52.2197 197.579C54.0718 202.825 57.0525 218.155 57.0525 218.155" stroke="#263238" stroke-opacity="0.1" stroke-width="0.5" stroke-miterlimit="10" stroke-linecap="round" stroke-linejoin="round"/>
<path d="M15.6765 148.754L11.0156 148.05" stroke="#263238" stroke-opacity="0.1" stroke-width="0.5" stroke-miterlimit="10" stroke-linecap="round" stroke-linejoin="round"/>
<path d="M13.9268 145.945L13.9518 142.752" stroke="#263238" stroke-opacity="0.1" stroke-width="0.5" stroke-miterlimit="10" stroke-linecap="round" stroke-linejoin="round"/>
<path d="M30.3997 162.282C30.3997 162.282 26.5236 161.74 22.5718 161.24" stroke="#263238" stroke-opacity="0.1" stroke-width="0.5" stroke-miterlimit="10" stroke-linecap="round" stroke-linejoin="round"/>
<path d="M26.6678 158.761C26.6678 158.761 26.4782 153.022 27.4277 148.623" stroke="#263238" stroke-opacity="0.1" stroke-width="0.5" stroke-miterlimit="10" stroke-linecap="round" stroke-linejoin="round"/>
<path d="M39.2463 181.54C39.2463 181.54 34.8023 178.529 29.0532 176.935" stroke="#263238" stroke-opacity="0.1" stroke-width="0.5" stroke-miterlimit="10" stroke-linecap="round" stroke-linejoin="round"/>
<path d="M41.4607 184.29C41.4607 184.29 41.0234 180.26 41.3187 177.017C41.6139 173.774 41.6744 173.343 41.6744 173.343" stroke="#263238" stroke-opacity="0.1" stroke-width="0.5" stroke-miterlimit="10" stroke-linecap="round" stroke-linejoin="round"/>
<path d="M53.4204 201.63C53.4204 201.63 54.9265 197.52 56.1389 195.757C57.3513 193.994 58.0652 192.409 58.0652 192.409" stroke="#263238" stroke-opacity="0.1" stroke-width="0.5" stroke-miterlimit="10" stroke-linecap="round" stroke-linejoin="round"/>
<path d="M52.219 197.58C52.219 197.58 49.5836 195.403 46.9942 193.952C44.4048 192.501 41.4839 191.53 41.4839 191.53" stroke="#263238" stroke-opacity="0.1" stroke-width="0.5" stroke-miterlimit="10" stroke-linecap="round" stroke-linejoin="round"/>
<path d="M55.4053 210.481C55.4053 210.481 54.2913 207.705 51.9302 206.128C49.5691 204.551 46.6772 202.373 45.5132 201.525" stroke="#263238" stroke-opacity="0.1" stroke-width="0.5" stroke-miterlimit="10" stroke-linecap="round" stroke-linejoin="round"/>
</svg>
