<svg width="211" height="249" viewBox="0 0 211 249" fill="none" xmlns="http://www.w3.org/2000/svg">
<g clip-path="url(#clip0_1243_22126)">
<path d="M45 123.75C47.8674 123.753 50.6254 124.851 52.7104 126.82C54.7954 128.788 56.0501 131.478 56.2182 134.341C56.3862 137.203 55.4549 140.022 53.6145 142.221C51.7741 144.419 49.1636 145.833 46.3162 146.171L45 146.25H33.75C30.8826 146.247 28.1246 145.149 26.0396 143.18C23.9546 141.212 22.6998 138.522 22.5318 135.659C22.3638 132.797 23.2951 129.978 25.1355 127.779C26.9759 125.581 29.5864 124.167 32.4337 123.829L33.75 123.75H45ZM135 22.5C137.755 22.5004 140.415 23.512 142.474 25.343C144.533 27.1741 145.849 29.6972 146.171 32.4337L146.25 33.75V45C146.247 47.8674 145.149 50.6254 143.18 52.7104C141.212 54.7954 138.522 56.0501 135.659 56.2182C132.797 56.3862 129.978 55.4549 127.779 53.6145C125.581 51.7741 124.167 49.1636 123.829 46.3163L123.75 45V33.75C123.75 30.7663 124.935 27.9048 127.045 25.795C129.155 23.6853 132.016 22.5 135 22.5ZM236.25 123.75C239.117 123.753 241.875 124.851 243.96 126.82C246.045 128.788 247.3 131.478 247.468 134.341C247.636 137.203 246.705 140.022 244.865 142.221C243.024 144.419 240.414 145.833 237.566 146.171L236.25 146.25H225C222.133 146.247 219.375 145.149 217.29 143.18C215.205 141.212 213.95 138.522 213.782 135.659C213.614 132.797 214.545 129.978 216.385 127.779C218.226 125.581 220.836 124.167 223.684 123.829L225 123.75H236.25ZM55.0462 55.0463C56.9834 53.1093 59.5608 51.9457 62.2948 51.7737C65.0289 51.6018 67.7317 52.4334 69.8962 54.1125L70.9537 55.0463L78.8287 62.9212C80.8464 64.9458 82.0178 67.6624 82.1051 70.5193C82.1923 73.3763 81.1888 76.1593 79.2984 78.3031C77.4081 80.447 74.7725 81.7909 71.9272 82.062C69.0818 82.333 66.2399 81.5109 63.9787 79.7625L62.9212 78.8288L55.0462 70.9538C52.9372 68.8441 51.7524 65.9831 51.7524 63C51.7524 60.0169 52.9372 57.1559 55.0462 55.0463ZM199.046 55.0463C201.071 53.0286 203.787 51.8572 206.644 51.7699C209.501 51.6827 212.284 52.6862 214.428 54.5765C216.572 56.4669 217.916 59.1025 218.187 61.9478C218.458 64.7932 217.636 67.6351 215.887 69.8962L214.954 70.9538L207.079 78.8288C205.054 80.8464 202.338 82.0178 199.481 82.1051C196.624 82.1923 193.841 81.1888 191.697 79.2985C189.553 77.4081 188.209 74.7725 187.938 71.9272C187.667 69.0818 188.489 66.2399 190.237 63.9787L191.171 62.9212L199.046 55.0463ZM157.5 202.5C160.484 202.5 163.345 203.685 165.455 205.795C167.565 207.905 168.75 210.766 168.75 213.75C168.75 222.701 165.194 231.286 158.865 237.615C152.535 243.944 143.951 247.5 135 247.5C126.049 247.5 117.464 243.944 111.135 237.615C104.806 231.286 101.25 222.701 101.25 213.75C101.25 210.995 102.262 208.335 104.093 206.276C105.924 204.217 108.447 202.901 111.184 202.579L112.5 202.5H157.5ZM135 67.5C149.167 67.5 162.975 71.9575 174.468 80.2412C185.961 88.5248 194.556 100.215 199.036 113.655C203.516 127.095 203.654 141.604 199.43 155.126C195.205 168.649 186.834 180.5 175.5 189C173.949 190.165 172.124 190.909 170.201 191.16L168.75 191.25H101.25C98.8158 191.25 96.4473 190.46 94.5 189C83.1663 180.5 74.7945 168.649 70.5703 155.126C66.3462 141.604 66.4838 127.095 70.9639 113.655C75.4439 100.215 84.0391 88.5248 95.532 80.2412C107.025 71.9575 120.833 67.5 135 67.5Z" fill="#006466" fill-opacity="0.05"/>
</g>
<defs>
<clipPath id="clip0_1243_22126">
<rect width="270" height="270" fill="white"/>
</clipPath>
</defs>
</svg>
