<svg width="24" height="24" viewBox="0 0 24 24" fill="none" xmlns="http://www.w3.org/2000/svg">
<path d="M6.96912 6.969C7.03879 6.89915 7.12155 6.84374 7.21267 6.80593C7.30379 6.76812 7.40147 6.74866 7.50012 6.74866C7.59877 6.74866 7.69645 6.76812 7.78757 6.80593C7.87869 6.84374 7.96145 6.89915 8.03112 6.969L12.0001 10.9395L15.9691 6.969C16.0389 6.89927 16.1216 6.84395 16.2127 6.80621C16.3039 6.76847 16.4015 6.74905 16.5001 6.74905C16.5987 6.74905 16.6964 6.76847 16.7875 6.80621C16.8786 6.84395 16.9614 6.89927 17.0311 6.969C17.1009 7.03873 17.1562 7.12151 17.1939 7.21262C17.2316 7.30373 17.2511 7.40138 17.2511 7.5C17.2511 7.59861 17.2316 7.69626 17.1939 7.78737C17.1562 7.87848 17.1009 7.96127 17.0311 8.031L13.0606 12L17.0311 15.969C17.1009 16.0387 17.1562 16.1215 17.1939 16.2126C17.2316 16.3037 17.2511 16.4014 17.2511 16.5C17.2511 16.5986 17.2316 16.6963 17.1939 16.7874C17.1562 16.8785 17.1009 16.9613 17.0311 17.031C16.9614 17.1007 16.8786 17.156 16.7875 17.1938C16.6964 17.2315 16.5987 17.2509 16.5001 17.2509C16.4015 17.2509 16.3039 17.2315 16.2127 17.1938C16.1216 17.156 16.0389 17.1007 15.9691 17.031L12.0001 13.0605L8.03112 17.031C7.96139 17.1007 7.8786 17.156 7.7875 17.1938C7.69639 17.2315 7.59874 17.2509 7.50012 17.2509C7.4015 17.2509 7.30385 17.2315 7.21274 17.1938C7.12164 17.156 7.03885 17.1007 6.96912 17.031C6.89939 16.9613 6.84407 16.8785 6.80633 16.7874C6.7686 16.6963 6.74917 16.5986 6.74917 16.5C6.74917 16.4014 6.7686 16.3037 6.80633 16.2126C6.84407 16.1215 6.89939 16.0387 6.96912 15.969L10.9396 12L6.96912 8.031C6.89927 7.96133 6.84386 7.87857 6.80605 7.78745C6.76824 7.69633 6.74878 7.59865 6.74878 7.5C6.74878 7.40135 6.76824 7.30366 6.80605 7.21255C6.84386 7.12143 6.89927 7.03867 6.96912 6.969Z" fill="#006466"/>
</svg>
