<svg width="32" height="32" viewBox="0 0 32 32" fill="none" xmlns="http://www.w3.org/2000/svg">
<rect x="0.5" y="0.5" width="31" height="31" rx="7.5" stroke="#C4DEDF"/>
<path d="M10.969 10.969C11.0387 10.8992 11.1214 10.8437 11.2125 10.8059C11.3037 10.7681 11.4013 10.7487 11.5 10.7487C11.5986 10.7487 11.6963 10.7681 11.7874 10.8059C11.8786 10.8437 11.9613 10.8992 12.031 10.969L16 14.9395L19.969 10.969C20.0387 10.8993 20.1215 10.844 20.2126 10.8062C20.3037 10.7685 20.4014 10.749 20.5 10.749C20.5986 10.749 20.6963 10.7685 20.7874 10.8062C20.8785 10.844 20.9613 10.8993 21.031 10.969C21.1007 11.0387 21.156 11.1215 21.1938 11.2126C21.2315 11.3037 21.2509 11.4014 21.2509 11.5C21.2509 11.5986 21.2315 11.6963 21.1938 11.7874C21.156 11.8785 21.1007 11.9613 21.031 12.031L17.0605 16L21.031 19.969C21.1007 20.0387 21.156 20.1215 21.1938 20.2126C21.2315 20.3037 21.2509 20.4014 21.2509 20.5C21.2509 20.5986 21.2315 20.6963 21.1938 20.7874C21.156 20.8785 21.1007 20.9613 21.031 21.031C20.9613 21.1007 20.8785 21.156 20.7874 21.1938C20.6963 21.2315 20.5986 21.2509 20.5 21.2509C20.4014 21.2509 20.3037 21.2315 20.2126 21.1938C20.1215 21.156 20.0387 21.1007 19.969 21.031L16 17.0605L12.031 21.031C11.9613 21.1007 11.8785 21.156 11.7874 21.1938C11.6963 21.2315 11.5986 21.2509 11.5 21.2509C11.4014 21.2509 11.3037 21.2315 11.2126 21.1938C11.1215 21.156 11.0387 21.1007 10.969 21.031C10.8993 20.9613 10.844 20.8785 10.8062 20.7874C10.7685 20.6963 10.749 20.5986 10.749 20.5C10.749 20.4014 10.7685 20.3037 10.8062 20.2126C10.844 20.1215 10.8993 20.0387 10.969 19.969L14.9395 16L10.969 12.031C10.8992 11.9613 10.8437 11.8786 10.8059 11.7874C10.7681 11.6963 10.7487 11.5986 10.7487 11.5C10.7487 11.4013 10.7681 11.3037 10.8059 11.2125C10.8437 11.1214 10.8992 11.0387 10.969 10.969Z" fill="#006466"/>
</svg>
