<svg width="32" height="32" viewBox="0 0 32 32" fill="none" xmlns="http://www.w3.org/2000/svg">
<rect width="32" height="32" rx="8" fill="#C4DCDC"/>
<g clip-path="url(#clip0_1195_20981)">
<path d="M19 6C19.5046 5.99984 19.9906 6.19041 20.3605 6.5335C20.7305 6.87659 20.9572 7.34684 20.995 7.85L21 8C21 8.24493 21.09 8.48134 21.2527 8.66437C21.4155 8.84741 21.6397 8.96434 21.883 8.993L22 9H23C23.7652 8.99996 24.5015 9.29233 25.0583 9.81728C25.615 10.3422 25.9501 11.0601 25.995 11.824L26 12V21C26 21.7652 25.7077 22.5015 25.1827 23.0583C24.6578 23.615 23.9399 23.9501 23.176 23.995L23 24H9C8.23479 24 7.49849 23.7077 6.94174 23.1827C6.38499 22.6578 6.04989 21.9399 6.005 21.176L6 21V12C5.99996 11.2348 6.29233 10.4985 6.81728 9.94174C7.34224 9.38499 8.06011 9.04989 8.824 9.005L9 9H10C10.2652 9 10.5196 8.89464 10.7071 8.70711C10.8946 8.51957 11 8.26522 11 8C10.9998 7.49542 11.1904 7.00943 11.5335 6.63945C11.8766 6.26947 12.3468 6.04284 12.85 6.005L13 6H19ZM16 13C15.2566 12.9999 14.5396 13.2759 13.9881 13.7744C13.4366 14.2729 13.0898 14.9584 13.015 15.698L13.004 15.85L13 16L13.004 16.15C13.0333 16.7362 13.234 17.301 13.5812 17.7743C13.9283 18.2476 14.4067 18.6087 14.957 18.8128C15.5074 19.0169 16.1055 19.0551 16.6773 18.9226C17.2491 18.7901 17.7695 18.4928 18.174 18.0675C18.5786 17.6422 18.8494 17.1076 18.9531 16.5298C19.0568 15.9521 18.9887 15.3566 18.7572 14.8172C18.5258 14.2778 18.1412 13.8181 17.6511 13.4951C17.1611 13.1721 16.587 13 16 13Z" fill="#0E4041"/>
</g>
<defs>
<clipPath id="clip0_1195_20981">
<rect width="24" height="24" fill="white" transform="translate(4 3)"/>
</clipPath>
</defs>
</svg>
