<svg width="120" height="120" viewBox="0 0 120 120" fill="none" xmlns="http://www.w3.org/2000/svg">
<path d="M97.5 26.25H84.5062L78.1172 16.6688C77.7749 16.1557 77.3113 15.735 76.7676 15.4439C76.2239 15.1529 75.6167 15.0004 75 15H45C44.3833 15.0004 43.7761 15.1529 43.2324 15.4439C42.6887 15.735 42.2251 16.1557 41.8828 16.6688L35.4891 26.25H22.5C19.5163 26.25 16.6548 27.4353 14.545 29.545C12.4353 31.6548 11.25 34.5163 11.25 37.5V90C11.25 92.9837 12.4353 95.8452 14.545 97.955C16.6548 100.065 19.5163 101.25 22.5 101.25H97.5C100.484 101.25 103.345 100.065 105.455 97.955C107.565 95.8452 108.75 92.9837 108.75 90V37.5C108.75 34.5163 107.565 31.6548 105.455 29.545C103.345 27.4353 100.484 26.25 97.5 26.25ZM101.25 90C101.25 90.9946 100.855 91.9484 100.152 92.6517C99.4484 93.3549 98.4946 93.75 97.5 93.75H22.5C21.5054 93.75 20.5516 93.3549 19.8484 92.6517C19.1451 91.9484 18.75 90.9946 18.75 90V37.5C18.75 36.5054 19.1451 35.5516 19.8484 34.8484C20.5516 34.1451 21.5054 33.75 22.5 33.75H37.5C38.1175 33.7504 38.7256 33.5983 39.2702 33.3072C39.8148 33.0161 40.2791 32.595 40.6219 32.0813L47.0062 22.5H72.9891L79.3781 32.0813C79.7209 32.595 80.1852 33.0161 80.7298 33.3072C81.2744 33.5983 81.8825 33.7504 82.5 33.75H97.5C98.4946 33.75 99.4484 34.1451 100.152 34.8484C100.855 35.5516 101.25 36.5054 101.25 37.5V90ZM60 41.25C55.9208 41.25 51.9331 42.4596 48.5414 44.7259C45.1496 46.9922 42.506 50.2134 40.945 53.9822C39.3839 57.7509 38.9755 61.8979 39.7713 65.8987C40.5671 69.8996 42.5315 73.5746 45.4159 76.4591C48.3004 79.3435 51.9754 81.3079 55.9763 82.1037C59.9771 82.8995 64.1241 82.4911 67.8928 80.93C71.6616 79.369 74.8828 76.7254 77.1491 73.3336C79.4154 69.9419 80.625 65.9542 80.625 61.875C80.6188 56.4068 78.4438 51.1644 74.5772 47.2978C70.7106 43.4312 65.4682 41.2562 60 41.25ZM60 75C57.4041 75 54.8665 74.2302 52.7081 72.788C50.5497 71.3458 48.8675 69.296 47.8741 66.8977C46.8807 64.4994 46.6208 61.8604 47.1272 59.3144C47.6336 56.7684 48.8837 54.4298 50.7192 52.5942C52.5548 50.7587 54.8934 49.5086 57.4394 49.0022C59.9854 48.4958 62.6244 48.7557 65.0227 49.7491C67.421 50.7425 69.4708 52.4247 70.913 54.5831C72.3552 56.7415 73.125 59.2791 73.125 61.875C73.125 65.356 71.7422 68.6944 69.2808 71.1558C66.8194 73.6172 63.481 75 60 75Z" fill="white"/>
</svg>
