<svg width="140" height="152" viewBox="0 0 140 152" fill="none" xmlns="http://www.w3.org/2000/svg">
<g clip-path="url(#clip0_182_2934)">
<path d="M3.70691 151.465C3.70691 151.651 3.80564 151.8 3.92858 151.8H139.778C139.901 151.8 140 151.651 140 151.465C140 151.279 139.901 151.13 139.778 151.13H3.92858C3.80564 151.13 3.70691 151.279 3.70691 151.465Z" fill="#3F3D58"/>
<path d="M47.2081 26.7765H3.63798C1.97639 26.7765 0.624023 24.7334 0.624023 22.2232C0.624023 19.713 1.97639 17.6699 3.63798 17.6699H47.2081C48.8697 17.6699 50.2221 19.713 50.2221 22.2232C50.2221 24.7334 48.8697 26.7765 47.2081 26.7765ZM3.63798 18.2327C2.1813 18.2327 0.996577 20.0225 0.996577 22.2232C0.996577 24.4238 2.1813 26.2136 3.63798 26.2136H47.2081C48.6648 26.2136 49.8495 24.4238 49.8495 22.2232C49.8495 20.0225 48.6648 18.2327 47.2081 18.2327H3.63798Z" fill="#E2E3E4"/>
<path d="M47.2081 80.0621H3.63798C2.02669 80.0621 0.717163 78.0838 0.717163 75.6496C0.717163 73.2153 2.02669 71.237 3.63798 71.237H47.2081C48.8194 71.237 50.1289 73.2153 50.1289 75.6496C50.1289 78.0838 48.8194 80.0621 47.2081 80.0621Z" fill="#FFC727"/>
<path d="M32.93 8.82512H2.92082C1.30953 8.82512 0 6.84679 0 4.41256C0 1.97834 1.30953 0 2.92082 0H32.93C34.5413 0 35.8508 1.97834 35.8508 4.41256C35.8508 6.84679 34.5413 8.82512 32.93 8.82512Z" fill="#E2E3E4"/>
<path d="M47.2081 44.5843H3.63798C1.97639 44.5843 0.624023 42.5413 0.624023 40.0311C0.624023 37.5208 1.97639 35.4778 3.63798 35.4778H47.2081C48.8697 35.4778 50.2221 37.5208 50.2221 40.0311C50.2221 42.5413 48.8697 44.5843 47.2081 44.5843ZM3.63798 36.0406C2.1813 36.0406 0.996577 37.8304 0.996577 40.0311C0.996577 42.2317 2.1813 44.0215 3.63798 44.0215H47.2081C48.6648 44.0215 49.8495 42.2317 49.8495 40.0311C49.8495 37.8304 48.6648 36.0406 47.2081 36.0406H3.63798Z" fill="#E2E3E4"/>
<path d="M47.2081 62.395H3.63798C1.97639 62.395 0.624023 60.3519 0.624023 57.8417C0.624023 55.3315 1.97639 53.2885 3.63798 53.2885H47.2081C48.8697 53.2885 50.2221 55.3315 50.2221 57.8417C50.2221 60.3519 48.8697 62.395 47.2081 62.395ZM3.63798 53.8513C2.1813 53.8513 0.996577 55.6411 0.996577 57.8417C0.996577 60.0424 2.1813 61.8322 3.63798 61.8322H47.2081C48.6648 61.8322 49.8495 60.0424 49.8495 57.8417C49.8495 55.6411 48.6648 53.8513 47.2081 53.8513H3.63798Z" fill="#E2E3E4"/>
<path d="M2.14036 14.3999H13.5591C13.8311 14.3999 14.0528 14.732 14.0528 15.1456C14.0528 15.5565 13.8311 15.8914 13.5591 15.8914H2.14036C1.8684 15.8914 1.64673 15.5593 1.64673 15.1456C1.64673 14.7348 1.8684 14.3999 2.14036 14.3999Z" fill="#E2E3E4"/>
<path d="M2.14036 32.6299H13.5591C13.8311 32.6299 14.0528 32.962 14.0528 33.3728C14.0528 33.7837 13.8311 34.1186 13.5591 34.1186H2.14036C1.8684 34.1186 1.64673 33.7865 1.64673 33.3756C1.64673 32.9648 1.8684 32.6299 2.14036 32.6299Z" fill="#E2E3E4"/>
<path d="M2.14036 50.8627H13.5591C13.8311 50.8627 14.0528 51.1947 14.0528 51.6084C14.0528 52.0193 13.8311 52.3513 13.5591 52.3513H2.14036C1.8684 52.3513 1.64673 52.0193 1.64673 51.6056C1.64673 51.1947 1.8684 50.8627 2.14036 50.8627Z" fill="#E2E3E4"/>
<path d="M83.2806 37.2197L79.1155 39.2909V30.2322H82.895L83.2806 37.2197Z" fill="#9F616A"/>
<path d="M79.6314 32.7397C81.9236 32.7397 83.7817 29.9325 83.7817 26.4698C83.7817 23.007 81.9236 20.1999 79.6314 20.1999C77.3393 20.1999 75.4812 23.007 75.4812 26.4698C75.4812 29.9325 77.3393 32.7397 79.6314 32.7397Z" fill="#9F616A"/>
<path d="M80.7715 25.8478C80.0767 25.8169 79.6203 24.756 79.3502 23.7879C79.0801 22.8198 78.8025 21.7083 78.158 21.3086C77.6309 20.9822 76.7013 23.1913 76.2859 22.6031C75.8519 21.9897 76.2748 18.8407 76.7349 18.275C77.195 17.7094 77.8246 17.5996 78.4169 17.5574C79.8625 17.4561 81.3173 17.6334 82.7348 18.0808C83.6122 18.3566 84.5138 18.7731 85.1471 19.7299C85.9481 20.9456 86.153 22.7776 86.2108 24.4914C86.2704 26.2446 86.2033 28.0795 85.6389 29.6132C85.0745 31.1469 83.8935 32.2781 82.7609 31.887C82.6473 30.9583 82.7628 30.0043 82.8075 29.0588C82.8503 28.116 82.8056 27.0973 82.4238 26.3459C82.0438 25.5946 81.2279 25.2963 80.7845 25.9632" fill="#2F2E43"/>
<path d="M85.8773 28.0203C86.2927 27.5616 86.7901 27.1761 87.3005 27.2718C87.8518 27.3731 88.3194 28.0597 88.461 28.873C88.6025 29.6863 88.4442 30.5812 88.1014 31.2453C87.7606 31.9095 87.252 32.3485 86.7155 32.568C86.4045 32.6946 86.0636 32.7481 85.7674 32.5567C85.3315 32.2725 85.0949 31.4311 85.2663 30.7613" fill="#2F2E43"/>
<path d="M69.9954 87.013C69.7178 89.0729 70.2264 90.9556 71.1279 91.2173C72.0295 91.479 72.9851 90.0185 73.2608 87.9585C73.3782 87.1368 73.3595 86.2869 73.2068 85.4765L76.6399 53.1843L72.3462 51.963L70.6883 84.7476C70.3363 85.4117 70.0997 86.1884 69.9954 87.0158V87.013Z" fill="#9F616A"/>
<path d="M79.0708 35.1345H76.1407C74.0693 35.61 73.5067 37.2788 73.0355 40.3631C72.3164 45.0684 71.3981 51.3326 71.5806 51.4255C71.8731 51.5718 76.8616 55.1176 79.4043 54.3072L79.0708 35.1345Z" fill="#FFC727"/>
<path d="M81.9041 137.994H78.0034V146.355H81.9041V137.994Z" fill="#9F616A"/>
<path d="M74.2052 151.414C73.7954 151.414 73.4303 151.4 73.1546 151.361C72.1189 151.218 71.1297 150.061 70.6324 149.386C70.4088 149.082 70.3381 148.598 70.4536 148.181C70.5374 147.883 70.7032 147.658 70.9099 147.57L73.6482 146.388L78.0816 141.869L78.1319 142.004C78.1505 142.055 78.5864 143.239 78.7317 144.039C78.7876 144.343 78.7727 144.596 78.6888 144.793C78.6311 144.928 78.5491 145.007 78.4839 145.052C78.564 145.178 78.8155 145.437 79.5904 145.623C80.7211 145.893 80.9596 144.123 80.9689 144.05L80.9763 143.991L81.0099 143.957C81.5482 143.434 81.8798 143.194 81.9934 143.245C82.0642 143.276 82.1834 143.332 82.5057 148.153C82.5373 148.305 82.7627 149.414 82.61 150.475C82.4442 151.628 79.1061 151.232 78.4374 151.142C78.4187 151.144 75.9189 151.414 74.207 151.414H74.2052Z" fill="#2F2E43"/>
<path d="M93.011 131.425L89.7013 134.543L92.6299 141.638L95.9396 138.519L93.011 131.425Z" fill="#9F616A"/>
<path d="M88.6156 150.269C88.1573 150.269 87.7363 150.185 87.4364 150.106C87.1421 150.027 86.9111 149.673 86.8627 149.228C86.8292 148.907 86.8906 148.583 87.0359 148.344L88.9453 145.153L91.1247 137.774L91.2141 137.848C91.2477 137.876 92.0319 138.531 92.4361 139.094C92.5907 139.308 92.6671 139.536 92.6634 139.77C92.6615 139.933 92.6205 140.062 92.5795 140.155C92.6913 140.2 92.9949 140.217 93.7177 139.756C94.772 139.083 94.3547 137.389 94.3361 137.318L94.3212 137.262L94.338 137.209C94.6118 136.334 94.8074 135.866 94.9229 135.819C94.9955 135.788 95.1148 135.74 97.0763 139.575C97.1564 139.677 97.7357 140.439 97.9778 141.461C98.2405 142.572 95.2694 144.905 94.6714 145.361C94.6528 145.384 91.5438 148.797 90.266 149.768C89.7593 150.154 89.1595 150.272 88.6137 150.272L88.6156 150.269Z" fill="#2F2E43"/>
<path d="M84.7764 68.0767H73.855L72.864 83.425L77.2005 140.135H82.7758L80.5461 107.382L89.5898 136.953L94.5448 131.713L87.483 104.106C87.483 104.106 90.0052 80.0565 88.0232 74.0652C86.0412 68.0767 84.7764 68.0767 84.7764 68.0767Z" fill="#2F2E43"/>
<path d="M90.2101 69.011H72.864L78.0686 35.1345H85.6258L90.2101 69.011Z" fill="#FFC727"/>
<path d="M91.7711 87.0131C92.0486 89.073 91.5401 90.9557 90.6385 91.2174C89.7369 91.4791 88.7813 90.0185 88.5056 87.9586C88.3883 87.1369 88.4069 86.287 88.5597 85.4765L85.1266 53.1844L89.4203 51.963L91.0781 84.7477C91.4302 85.4118 91.6668 86.1885 91.7711 87.0159V87.0131Z" fill="#9F616A"/>
<path d="M82.6957 35.1345H85.6259C87.6973 35.61 88.2598 37.2788 88.7311 40.3631C89.4501 45.0684 90.3685 51.3326 90.1859 51.4255C89.8935 51.5718 84.905 55.1176 82.3623 54.3072L82.6957 35.1345Z" fill="#FFC727"/>
</g>
<defs>
<clipPath id="clip0_182_2934">
<rect width="140" height="151.8" fill="white"/>
</clipPath>
</defs>
</svg>
