<svg width="182" height="162" viewBox="0 0 182 162" fill="none" xmlns="http://www.w3.org/2000/svg">
<path d="M177.94 62.388C177.944 58.0004 176.868 53.6813 174.81 49.8241C172.752 45.9669 169.776 42.6942 166.154 40.3041C162.533 37.9139 158.38 36.4823 154.074 36.1397C149.769 35.797 145.447 36.5541 141.503 38.3421C139.811 34.9713 137.422 32.0114 134.5 29.6643C131.579 27.3172 128.193 25.6383 124.574 24.7422C120.955 23.846 117.189 23.7538 113.532 24.4717C109.875 25.1896 106.414 26.7008 103.384 28.9021C102.119 25.5026 100.175 22.4062 97.6734 19.8084C95.1719 17.2106 92.1676 15.1676 88.85 13.8085C85.5324 12.4493 81.9735 11.8035 78.3979 11.9116C74.8223 12.0198 71.3076 12.8797 68.0755 14.437C64.0896 10.3408 58.8903 7.68735 53.2761 6.88406C47.662 6.08078 41.9436 7.17213 36.9991 9.99049C32.0547 12.8088 28.1576 17.1983 25.9065 22.4848C23.6555 27.7713 23.1748 33.6623 24.5385 39.2532C18.6956 41.4327 13.5105 45.1175 9.49146 49.9461C5.47245 54.7747 2.75748 60.5815 1.61272 66.7972C0.467962 73.0129 0.932709 79.4242 2.9614 85.4024C4.99009 91.3807 8.51309 96.7208 13.185 100.899C11.4284 106.322 11.4561 112.178 13.2638 117.583C15.0716 122.988 18.5613 127.649 23.206 130.861C27.8507 134.074 33.3982 135.664 39.0108 135.391C44.6234 135.119 49.9963 132.999 54.3182 129.35C56.9027 135.758 61.2278 141.286 66.7887 145.29C72.3495 149.294 78.9166 151.608 85.7234 151.962C92.5302 152.317 99.2958 150.697 105.231 147.292C111.165 143.887 116.024 138.837 119.24 132.732C125.024 135.142 131.423 135.571 137.468 133.954C143.514 132.338 148.876 128.764 152.742 123.774C156.609 118.783 158.77 112.649 158.897 106.299C159.025 99.9498 157.112 93.731 153.448 88.585C160.052 88.2227 166.268 85.3067 170.823 80.4353C175.377 75.5639 177.923 69.1065 177.94 62.388Z" fill="#006466" stroke="#006466" stroke-miterlimit="10"/>
<path d="M160.198 144.866C165.81 142.083 168.679 136.331 166.607 132.019C164.535 127.707 158.306 126.467 152.694 129.25C147.083 132.034 144.213 137.786 146.285 142.098C148.357 146.41 154.586 147.649 160.198 144.866Z" fill="#006466" stroke="#006466" stroke-miterlimit="10"/>
<path d="M159.412 157.811C160.965 161.042 165.634 161.972 169.841 159.887C174.047 157.802 176.192 153.49 174.639 150.259C173.086 147.028 168.417 146.098 164.21 148.183C160.004 150.269 157.859 154.58 159.412 157.811Z" fill="#006466" stroke="#006466" stroke-miterlimit="10"/>
<path d="M181 56.7522C181.005 52.3646 179.929 48.0455 177.87 44.1883C175.812 40.3311 172.836 37.0584 169.215 34.6683C165.593 32.2782 161.44 30.8465 157.135 30.5039C152.829 30.1612 148.507 30.9183 144.563 32.7063C142.867 29.3379 140.475 26.3812 137.55 24.0379C134.626 21.6947 131.239 20.0201 127.619 19.1284C124 18.2367 120.233 18.149 116.577 18.8712C112.921 19.5935 109.462 21.1086 106.435 23.3133C105.17 19.9186 103.227 16.8267 100.728 14.2323C98.2289 11.6379 95.2285 9.59706 91.9153 8.23831C88.6022 6.87956 85.048 6.23229 81.4766 6.33724C77.9052 6.44219 74.3938 7.29709 71.1635 8.84814C67.1803 4.73808 61.9777 2.0723 56.3567 1.26131C50.7358 0.450316 45.0083 1.53909 40.0562 4.35998C35.1042 7.18086 31.2022 11.5774 28.9512 16.8726C26.7002 22.1677 26.225 28.0678 27.5988 33.6643C21.7514 35.8427 16.5619 39.528 12.5393 44.3585C8.51671 49.1891 5.79919 54.9991 4.65334 61.2185C3.5075 67.4379 3.97268 73.853 6.00327 79.8347C8.03385 85.8163 11.5601 91.159 16.236 95.3385C14.4764 100.763 14.5024 106.621 16.31 112.029C18.1177 117.436 21.6088 122.099 26.2558 125.313C30.9028 128.526 36.4531 130.116 42.068 129.841C47.6828 129.566 53.057 127.442 57.3785 123.79C59.9613 130.196 64.2841 135.724 69.8424 139.729C75.4008 143.733 81.9655 146.05 88.7706 146.407C95.5756 146.764 102.34 145.148 108.276 141.747C114.211 138.347 119.072 133.301 122.291 127.199C128.075 129.609 134.474 130.038 140.519 128.422C146.565 126.805 151.927 123.231 155.793 118.241C159.66 113.251 161.821 107.117 161.948 100.767C162.076 94.4174 160.163 88.1986 156.499 83.0525C163.122 82.6916 169.356 79.7621 173.914 74.8684C178.473 69.9747 181.01 63.4901 181 56.7522Z" fill="white" stroke="#006466" stroke-miterlimit="10"/>
<path d="M163.245 139.282C168.856 136.499 171.726 130.747 169.654 126.435C167.582 122.123 161.353 120.884 155.741 123.667C150.129 126.45 147.26 132.202 149.332 136.514C151.404 140.826 157.633 142.066 163.245 139.282Z" fill="white" stroke="#006466" stroke-miterlimit="10"/>
<path d="M162.472 152.222C164.026 155.453 168.695 156.383 172.892 154.307C177.09 152.232 179.244 147.911 177.69 144.67C176.137 141.43 171.478 140.509 167.271 142.594C163.064 144.68 160.919 148.991 162.472 152.222Z" fill="white" stroke="#006466" stroke-miterlimit="10"/>
</svg>
