<svg width="18" height="18" viewBox="0 0 18 18" fill="none" xmlns="http://www.w3.org/2000/svg">
<path d="M9.62907 14.7365C9.66393 14.7714 9.69159 14.8127 9.71046 14.8583C9.72933 14.9038 9.73905 14.9526 9.73905 15.0019C9.73905 15.0511 9.72933 15.0999 9.71046 15.1455C9.69159 15.191 9.66393 15.2323 9.62907 15.2672L8.69719 16.199C7.78269 17.1135 6.54236 17.6273 5.24906 17.6273C3.95577 17.6273 2.71544 17.1135 1.80094 16.199C0.886441 15.2845 0.372681 14.0442 0.372681 12.7509C0.372681 11.4576 0.886441 10.2173 1.80094 9.30279L4.06219 7.04154C4.94135 6.16219 6.12331 5.65203 7.36622 5.61543C8.60914 5.57884 9.81906 6.01857 10.7484 6.84467C10.7854 6.87742 10.8155 6.91712 10.8371 6.96151C10.8587 7.0059 10.8713 7.05411 10.8743 7.10338C10.8772 7.15265 10.8705 7.20203 10.8543 7.24868C10.8382 7.29534 10.8131 7.33836 10.7803 7.37529C10.7476 7.41223 10.7079 7.44235 10.6635 7.46394C10.6191 7.48553 10.5709 7.49817 10.5216 7.50113C10.4723 7.50409 10.423 7.49731 10.3763 7.48119C10.3296 7.46507 10.2866 7.43992 10.2497 7.40717C9.46359 6.70844 8.44027 6.33638 7.38897 6.36705C6.33767 6.39772 5.33779 6.8288 4.59375 7.57217L2.33157 9.83342C1.5578 10.6072 1.1231 11.6566 1.1231 12.7509C1.1231 13.8452 1.5578 14.8946 2.33157 15.6684C3.10533 16.4422 4.15479 16.8769 5.24906 16.8769C6.34334 16.8769 7.3928 16.4422 8.16656 15.6684L9.09844 14.7365C9.13327 14.7017 9.17463 14.674 9.22015 14.6551C9.26567 14.6363 9.31447 14.6266 9.36375 14.6266C9.41303 14.6266 9.46183 14.6363 9.50735 14.6551C9.55288 14.674 9.59424 14.7017 9.62907 14.7365ZM16.1991 1.79904C15.2839 0.885811 14.0438 0.372925 12.7509 0.372925C11.4581 0.372925 10.218 0.885811 9.30281 1.79904L8.37094 2.73092C8.33598 2.76607 8.30828 2.80776 8.28942 2.85361C8.27057 2.89947 8.26094 2.94859 8.26107 2.99816C8.2612 3.04774 8.27109 3.09681 8.29019 3.14256C8.30928 3.18832 8.3372 3.22986 8.37235 3.26483C8.4075 3.29979 8.44919 3.32749 8.49504 3.34634C8.5409 3.36519 8.59001 3.37483 8.63959 3.3747C8.68917 3.37457 8.73823 3.36467 8.78399 3.34558C8.82974 3.32649 8.87129 3.29857 8.90625 3.26342L9.83813 2.33154C10.6119 1.55778 11.6614 1.12308 12.7556 1.12308C13.8499 1.12308 14.8994 1.55778 15.6731 2.33154C16.4469 3.10531 16.8816 4.15477 16.8816 5.24904C16.8816 6.34332 16.4469 7.39277 15.6731 8.16654L13.4063 10.4278C12.6623 11.1713 11.6625 11.6025 10.6112 11.6334C9.55992 11.6642 8.53654 11.2923 7.75031 10.5937C7.71338 10.561 7.67036 10.5358 7.6237 10.5197C7.57705 10.5036 7.52767 10.4968 7.4784 10.4998C7.37889 10.5057 7.28583 10.551 7.21969 10.6256C7.15355 10.7002 7.11975 10.798 7.12573 10.8975C7.13171 10.997 7.17697 11.0901 7.25156 11.1562C8.18094 11.9823 9.39087 12.4221 10.6338 12.3855C11.8767 12.3489 13.0587 11.8387 13.9378 10.9594L16.1991 8.69811C17.1126 7.7829 17.6257 6.54262 17.6257 5.24951C17.6257 3.95641 17.1126 2.71613 16.1991 1.80092V1.79904Z" fill="#006466"/>
</svg>
