<svg width="89" height="134" viewBox="0 0 89 134" fill="none" xmlns="http://www.w3.org/2000/svg">
<path d="M8 107.709V57.9482C8.04528 57.1463 8.28321 56.366 8.69457 55.6705C9.10592 54.975 9.67914 54.3838 10.3679 53.9447L34.5147 40.3159C35.8233 39.5786 36.886 40.1758 36.886 41.6504V91.4379C36.8406 92.2402 36.6022 93.0207 36.1903 93.7163C35.7783 94.4119 35.2042 95.0029 34.5147 95.4414L10.3679 109.043C9.05922 109.794 8 109.197 8 107.709Z" fill="#E0E0E0"/>
<path d="M9.10034 108.35V58.5755C9.14454 57.7733 9.38202 56.9926 9.79347 56.297C10.2049 55.6013 10.7787 55.0103 11.4682 54.5719L35.615 40.9565C36.9237 40.2192 37.9863 40.8164 37.9863 42.2911V92.0652C37.9409 92.8675 37.7026 93.648 37.2906 94.3436C36.8786 95.0392 36.3046 95.6302 35.615 96.0687L11.4921 109.684C10.1698 110.421 9.10034 109.824 9.10034 108.35Z" fill="#F5F5F5"/>
<path d="M11.4923 54.572L33.2678 42.2944C26.7997 46.3747 13.7918 53.7212 12.1654 54.9723C10.539 56.2234 9.69844 57.0408 9.69844 61.0777C9.69844 65.1147 9.1005 105.607 9.1005 105.607V58.5655C9.14893 57.763 9.39082 56.983 9.80645 56.289C10.2221 55.595 10.7997 55.0067 11.4923 54.572Z" fill="#FAFAFA"/>
<path d="M24.3873 49.6773C24.3018 49.7337 24.2312 49.809 24.1814 49.8972C24.1315 49.9853 24.1037 50.0838 24.1003 50.1844V99.7984C24.1003 99.9885 24.2267 100.069 24.3873 99.9819C24.4718 99.9247 24.5414 99.8492 24.5906 99.7611C24.6399 99.6731 24.6674 99.575 24.6709 99.4748V49.8608C24.6709 49.6573 24.5445 49.5906 24.3873 49.6773Z" fill="#E0E0E0"/>
<g style="mix-blend-mode:hard-light" opacity="0.7">
<path d="M26.8679 91.074C26.8677 90.9164 26.8814 90.759 26.9089 90.6036C26.9089 90.5669 26.9328 90.4501 26.9397 90.4268C27.2427 89.1071 28.0698 87.9588 29.2392 87.234L33.3873 84.8986L33.4248 84.8819C33.8721 84.6022 34.3883 84.4452 34.9191 84.4275C35.45 84.4097 35.9759 84.5318 36.4418 84.7809C36.9077 85.03 37.2963 85.397 37.5668 85.8433C37.8374 86.2896 37.9799 86.7987 37.9795 87.3174C37.9786 87.4751 37.9637 87.6325 37.9351 87.7878C37.9268 87.8473 37.9154 87.9063 37.9009 87.9646C37.6007 89.2828 36.7774 90.431 35.6116 91.1574L31.4602 93.4928L31.426 93.5095C30.9786 93.7901 30.4621 93.9478 29.9308 93.966C29.3994 93.9842 28.8729 93.8623 28.4064 93.6131C27.94 93.3639 27.551 92.9965 27.2803 92.5497C27.0095 92.1029 26.8671 91.5932 26.8679 91.074Z" fill="#FAFAFA"/>
</g>
<path d="M35.7759 86.0632C35.7759 87.4478 34.7132 89.166 33.4046 89.9033L29.2565 92.2387C27.9479 92.976 26.8853 92.4522 26.8853 91.0676C26.8853 89.6831 27.9479 87.9649 29.2565 87.2276L33.4046 84.8922C34.7269 84.1582 35.7759 84.6887 35.7759 86.0632Z" fill="#E0E0E0"/>
<path d="M35.1572 84.4282C35.9205 84.4584 36.6422 84.7756 37.1714 85.3135C37.7007 85.8513 37.9963 86.5682 37.9966 87.3141C37.9957 87.4719 37.9808 87.6293 37.9522 87.7845C37.9439 87.844 37.9325 87.903 37.918 87.9614C37.6537 89.0921 37.0119 90.105 36.0934 90.8406C37.238 89.2925 37.8838 88.305 37.6071 86.7703C37.4927 86.1823 37.1965 85.6426 36.7585 85.2239C36.3205 84.8051 35.7617 84.5275 35.1572 84.4282Z" fill="white"/>
<path d="M33.1857 91.6447C33.3617 91.5216 33.5012 91.3552 33.59 91.1625C33.6788 90.9697 33.7138 90.7574 33.6914 90.5471C33.6589 89.9602 33.4851 89.3891 33.1841 88.8801C32.8831 88.3711 32.4634 87.9387 31.9591 87.6178C31.784 87.4933 31.578 87.4165 31.3624 87.3953C31.1468 87.3742 30.9294 87.4096 30.7324 87.4977L28.5046 88.7589C27.941 89.0778 27.5302 89.6024 27.3626 90.2171C27.1951 90.8318 27.2844 91.4864 27.6111 92.0368C27.9378 92.5871 28.475 92.9882 29.1046 93.1519C29.7342 93.3155 30.4045 93.2282 30.9682 92.9092L33.1857 91.6447Z" fill="#F5F5F5"/>
<path d="M36.2576 89.9097C36.8077 89.5848 37.2054 89.0622 37.3653 88.4542C37.5253 87.8462 37.4349 87.2012 37.1133 86.6576C36.7918 86.114 36.2649 85.7152 35.6456 85.5466C35.0263 85.378 34.3641 85.4532 33.8009 85.756L30.7257 87.4976C30.9227 87.4094 31.1402 87.3741 31.3557 87.3952C31.5713 87.4163 31.7773 87.4931 31.9524 87.6177C32.4567 87.9385 32.8764 88.371 33.1775 88.8799C33.4785 89.3889 33.6523 89.96 33.6847 90.5469C33.7071 90.7572 33.6721 90.9695 33.5833 91.1623C33.4945 91.3551 33.355 91.5215 33.179 91.6446L36.2576 89.9097Z" fill="#006466"/>
<path opacity="0.4" d="M35.7039 86.3935C35.8279 86.6037 35.8617 86.8534 35.7976 87.0879C35.7336 87.3224 35.577 87.5225 35.3622 87.6446L31.6515 89.7464C31.3387 89.242 31.1634 88.6677 31.1424 88.0783C31.1424 88.0182 31.1424 87.9649 31.1424 87.9115L34.4157 86.0565C34.5227 85.9951 34.6412 85.9552 34.7641 85.9389C34.8871 85.9227 35.0121 85.9305 35.132 85.9618C35.2519 85.9932 35.3641 86.0475 35.4623 86.1216C35.5605 86.1957 35.6426 86.2881 35.7039 86.3935Z" fill="white"/>
<path d="M33.1857 91.6447C33.3617 91.5216 33.5012 91.3552 33.59 91.1625C33.6788 90.9697 33.7138 90.7574 33.6914 90.5471C33.6589 89.9602 33.4851 89.3891 33.1841 88.8801C32.8831 88.3711 32.4634 87.9387 31.9591 87.6178C31.784 87.4933 31.578 87.4165 31.3624 87.3953C31.1468 87.3742 30.9294 87.4096 30.7324 87.4977L28.5046 88.7589C27.941 89.0778 27.5302 89.6024 27.3626 90.2171C27.1951 90.8318 27.2844 91.4864 27.6111 92.0368C27.9378 92.5871 28.475 92.9882 29.1046 93.1519C29.7342 93.3155 30.4045 93.2282 30.9682 92.9092L33.1857 91.6447Z" fill="#F5F5F5"/>
<path opacity="0.1" d="M31.9588 87.6175C32.4631 87.9383 32.8829 88.3708 33.1839 88.8798C33.4849 89.3887 33.6587 89.9599 33.6911 90.5468C33.7135 90.757 33.6786 90.9693 33.5897 91.1621C33.5009 91.3549 33.3614 91.5213 33.1854 91.6444L33.3597 91.5443L33.493 91.4709C33.6695 91.3483 33.8094 91.182 33.8982 90.9891C33.9871 90.7961 34.0218 90.5836 33.9986 90.3733C33.9662 89.7864 33.7924 89.2153 33.4914 88.7063C33.1904 88.1973 32.7706 87.7648 32.2663 87.444C32.0912 87.3194 31.8853 87.2426 31.6697 87.2215C31.4541 87.2004 31.2366 87.2357 31.0397 87.3239L30.7321 87.4974C30.9291 87.4092 31.1466 87.3739 31.3622 87.395C31.5777 87.4161 31.7837 87.4929 31.9588 87.6175Z" fill="black"/>
<path d="M27.2951 90.5803C27.2443 91.0209 27.3199 91.4665 27.5134 91.8676C27.7069 92.2686 28.0107 92.6092 28.391 92.8514C28.7713 93.0937 29.213 93.228 29.6668 93.2393C30.1207 93.2507 30.5689 93.1386 30.9614 92.9157L33.1857 91.6513C33.3617 91.5282 33.5012 91.3618 33.59 91.169C33.6788 90.9762 33.7138 90.7639 33.6914 90.5536C33.689 90.3066 33.6534 90.061 33.5855 89.823L29.8645 91.9249C28.6413 92.6055 27.3087 91.361 27.2951 90.5803Z" fill="#E0E0E0"/>
<path d="M28.1423 90.6706C28.2038 90.7748 28.2859 90.8661 28.3836 90.9393C28.4814 91.0125 28.593 91.0661 28.712 91.0971C28.8311 91.1281 28.9552 91.1359 29.0773 91.1199C29.1994 91.104 29.3171 91.0647 29.4236 91.0042L33.1821 88.879C32.8898 88.3627 32.4676 87.9276 31.9555 87.6146C31.9068 87.5864 31.8566 87.5608 31.8051 87.5378L28.4806 89.4162C28.2654 89.5388 28.1089 89.7398 28.0454 89.975C27.982 90.2102 28.0168 90.4604 28.1423 90.6706Z" fill="white"/>
<path opacity="0.1" d="M36.9818 86.3831C36.9545 86.3464 36.9238 86.3131 36.893 86.2764L36.8281 86.203C36.8042 86.1763 36.7768 86.1529 36.7495 86.1263L36.6675 86.0462L36.6197 86.0095C36.4904 85.9015 36.3495 85.8075 36.1994 85.7292L36.032 85.6492C36.7153 86.0562 37.1561 87.8011 35.9329 88.4917C35.516 88.7286 34.8907 89.0922 33.5958 89.8262C33.6637 90.0642 33.6993 90.3098 33.7017 90.5568C33.7241 90.7671 33.6891 90.9794 33.6003 91.1722C33.5115 91.365 33.372 91.5314 33.196 91.6545L36.2711 89.9196C36.8345 89.6008 37.2454 89.0769 37.4138 88.4628C37.5822 87.8487 37.4945 87.1944 37.1698 86.6434C37.1288 86.58 37.0878 86.5166 37.0433 86.4565L36.9818 86.3831Z" fill="black"/>
<g style="mix-blend-mode:hard-light" opacity="0.7">
<path d="M11.335 99.7618C11.3353 99.6043 11.3479 99.447 11.3725 99.2914C11.3725 99.2547 11.3999 99.1379 11.4067 99.1145C11.7082 97.7951 12.5342 96.6466 13.7028 95.9217L17.8543 93.5863L17.8919 93.5696C18.3392 93.2899 18.8553 93.133 19.3862 93.1152C19.917 93.0975 20.443 93.2195 20.9088 93.4686C21.3747 93.7178 21.7633 94.0847 22.0339 94.531C22.3044 94.9773 22.447 95.4865 22.4465 96.0051C22.4456 96.1629 22.4307 96.3203 22.4021 96.4755C22.4021 96.5089 22.3782 96.599 22.3679 96.6524C22.0684 97.9708 21.245 99.1193 20.0787 99.8452L15.9272 102.181H15.893C15.4457 102.461 14.9292 102.619 14.3978 102.637C13.8665 102.655 13.3399 102.533 12.8735 102.284C12.4071 102.035 12.0181 101.668 11.7473 101.221C11.4766 100.774 11.3341 100.264 11.335 99.7451V99.7618Z" fill="#FAFAFA"/>
</g>
<path d="M20.2224 94.7507C20.2224 96.1353 19.1632 97.8568 17.8545 98.5942L13.7031 100.93C12.3978 101.667 11.3352 101.143 11.3352 99.7585C11.3352 98.374 12.3978 96.6558 13.7031 95.9185L17.8545 93.583C19.1632 92.8457 20.2224 93.3629 20.2224 94.7507Z" fill="#E0E0E0"/>
<path d="M19.6071 93.1162C20.3701 93.1472 21.0914 93.4646 21.6204 94.0023C22.1495 94.54 22.4454 95.2565 22.4465 96.0021C22.4456 96.1599 22.4307 96.3173 22.4021 96.4725C22.4021 96.5059 22.3782 96.596 22.3679 96.6493C22.1037 97.7801 21.4618 98.793 20.5433 99.5286C21.6846 97.9805 22.3338 96.993 22.057 95.4616C21.9423 94.8734 21.6462 94.3334 21.2083 93.9142C20.7704 93.495 20.2117 93.2166 19.6071 93.1162Z" fill="white"/>
<path d="M17.6424 100.332C17.8181 100.21 17.9575 100.044 18.0463 99.8516C18.1351 99.6594 18.1702 99.4477 18.1481 99.2379C18.1156 98.6506 17.9418 98.079 17.6409 97.5695C17.3399 97.06 16.9202 96.6269 16.4158 96.3053C16.2406 96.1808 16.0347 96.104 15.8191 96.0828C15.6035 96.0617 15.3861 96.0971 15.1891 96.1852L12.9613 97.4464C12.6822 97.6039 12.4376 97.8135 12.2415 98.0633C12.0454 98.3131 11.9016 98.5982 11.8183 98.9023C11.735 99.2063 11.7139 99.5234 11.7561 99.8355C11.7983 100.148 11.9031 100.448 12.0644 100.721C12.2257 100.993 12.4404 101.232 12.6963 101.424C12.9521 101.615 13.244 101.756 13.5555 101.837C13.8669 101.918 14.1916 101.939 14.5112 101.898C14.8308 101.856 15.1389 101.754 15.418 101.597L17.6424 100.332Z" fill="#F5F5F5"/>
<path d="M20.7177 98.5975C21.2814 98.2794 21.6925 97.7557 21.8607 97.1416C22.0289 96.5275 21.9404 95.8733 21.6146 95.3229C21.2889 94.7726 20.7525 94.3711 20.1236 94.2069C19.4947 94.0426 18.8247 94.1291 18.261 94.4472L15.1859 96.1854C15.3828 96.0972 15.6003 96.0619 15.8159 96.083C16.0315 96.1041 16.2374 96.1809 16.4125 96.3055C16.9169 96.627 17.3366 97.0601 17.6376 97.5696C17.9386 98.0792 18.1124 98.6507 18.1448 99.2381C18.167 99.4478 18.1319 99.6596 18.043 99.8518C17.9542 100.044 17.8149 100.21 17.6391 100.332L20.7177 98.5975Z" fill="#006466"/>
<path opacity="0.4" d="M20.154 95.0809C20.2159 95.1849 20.2562 95.2998 20.2725 95.419C20.2888 95.5383 20.2809 95.6595 20.2492 95.7757C20.2174 95.8919 20.1625 96.0009 20.0875 96.0964C20.0126 96.1918 19.9191 96.2719 19.8123 96.332L16.1017 98.4372C15.7898 97.9323 15.6146 97.3583 15.5925 96.7691C15.5925 96.7123 15.5925 96.6556 15.5925 96.6022L18.8659 94.7473C18.9727 94.6858 19.0909 94.6456 19.2138 94.6291C19.3366 94.6126 19.4615 94.6201 19.5814 94.6512C19.7012 94.6822 19.8136 94.7362 19.9119 94.8099C20.0102 94.8837 20.0925 94.9758 20.154 95.0809Z" fill="white"/>
<path d="M17.6424 100.332C17.8181 100.21 17.9575 100.044 18.0463 99.8516C18.1351 99.6594 18.1702 99.4477 18.1481 99.2379C18.1156 98.6506 17.9418 98.079 17.6409 97.5695C17.3399 97.06 16.9202 96.6269 16.4158 96.3053C16.2406 96.1808 16.0347 96.104 15.8191 96.0828C15.6035 96.0617 15.3861 96.0971 15.1891 96.1852L12.9613 97.4464C12.6822 97.6039 12.4376 97.8135 12.2415 98.0633C12.0454 98.3131 11.9016 98.5982 11.8183 98.9023C11.735 99.2063 11.7139 99.5234 11.7561 99.8355C11.7983 100.148 11.9031 100.448 12.0644 100.721C12.2257 100.993 12.4404 101.232 12.6963 101.424C12.9521 101.615 13.244 101.756 13.5555 101.837C13.8669 101.918 14.1916 101.939 14.5112 101.898C14.8308 101.856 15.1389 101.754 15.418 101.597L17.6424 100.332Z" fill="#F5F5F5"/>
<path opacity="0.1" d="M16.4091 96.3057C16.9136 96.6273 17.3333 97.0604 17.6342 97.5699C17.9352 98.0794 18.109 98.651 18.1415 99.2383C18.1636 99.4481 18.1285 99.6598 18.0397 99.852C17.9508 100.044 17.8115 100.21 17.6358 100.333L17.81 100.236L17.9433 100.159C18.1195 100.037 18.2593 99.8713 18.3482 99.679C18.4371 99.4866 18.4718 99.2747 18.449 99.0648C18.4165 98.4775 18.2427 97.9059 17.9418 97.3964C17.6408 96.8869 17.2211 96.4538 16.7167 96.1322C16.5415 96.0077 16.3356 95.9309 16.12 95.9098C15.9044 95.8886 15.687 95.924 15.49 96.0121L15.1825 96.1856C15.3794 96.0975 15.5969 96.0621 15.8125 96.0832C16.0281 96.1043 16.234 96.1811 16.4091 96.3057Z" fill="black"/>
<path d="M11.7449 99.2682C11.6941 99.7087 11.7697 100.154 11.9632 100.555C12.1567 100.956 12.4606 101.297 12.8408 101.539C13.2211 101.782 13.6628 101.916 14.1167 101.927C14.5706 101.938 15.0187 101.826 15.4112 101.604L17.6424 100.332C17.8181 100.21 17.9575 100.044 18.0463 99.8518C18.1351 99.6596 18.1702 99.4479 18.1481 99.2381C18.1457 98.99 18.1101 98.7432 18.0422 98.5042C16.7404 99.2348 15.1515 100.136 14.3212 100.606C13.0912 101.297 11.7586 100.052 11.7449 99.2682Z" fill="#E0E0E0"/>
<path d="M12.5922 99.3681C12.6538 99.4723 12.7358 99.5636 12.8336 99.6368C12.9313 99.71 13.0429 99.7636 13.162 99.7946C13.281 99.8256 13.4051 99.8334 13.5272 99.8174C13.6493 99.8015 13.767 99.7622 13.8736 99.7018L17.6321 97.5765C17.3397 97.0603 16.9176 96.6251 16.4054 96.3121C16.3542 96.2821 16.3029 96.2587 16.2551 96.2354L12.9305 98.1137C12.716 98.2369 12.5601 98.4379 12.4967 98.6729C12.4334 98.9079 12.4677 99.1578 12.5922 99.3681Z" fill="white"/>
<path opacity="0.1" d="M21.4316 95.0747C21.4039 95.0377 21.3743 95.002 21.3428 94.968C21.323 94.942 21.3013 94.9175 21.2779 94.8946L21.1993 94.8145C21.1725 94.7872 21.144 94.7616 21.1139 94.7378C21.0977 94.7219 21.0793 94.7084 21.0592 94.6977C20.93 94.5886 20.7891 94.4935 20.6389 94.4141C20.5877 94.3874 20.533 94.3608 20.4749 94.3374C21.1583 94.7411 21.5991 96.4893 20.3758 97.1766C19.959 97.4135 19.3303 97.7771 18.0387 98.5111C18.1067 98.7502 18.1423 98.997 18.1446 99.2451C18.1668 99.4548 18.1317 99.6666 18.0428 99.8588C17.954 100.051 17.8147 100.217 17.6389 100.339L20.7141 98.6045C21.2775 98.2858 21.6883 97.7616 21.8562 97.1473C22.024 96.533 21.9352 95.8787 21.6093 95.3283C21.5715 95.264 21.5305 95.2017 21.4863 95.1414L21.4316 95.0747Z" fill="black"/>
<g style="mix-blend-mode:hard-light" opacity="0.7">
<path d="M26.8679 78.5499C26.8677 78.3912 26.8814 78.2327 26.9089 78.0762C26.9089 78.0428 26.9328 77.9227 26.9397 77.9027C27.0891 77.2486 27.3692 76.6296 27.7637 76.0812C28.1583 75.5328 28.6597 75.0657 29.2392 74.7065L33.3873 72.3711H33.4248C33.8721 72.0915 34.3883 71.9345 34.9191 71.9167C35.45 71.899 35.9759 72.021 36.4418 72.2702C36.9077 72.5193 37.2963 72.8862 37.5668 73.3325C37.8374 73.7788 37.9799 74.288 37.9795 74.8066C37.9786 74.9644 37.9637 75.1218 37.9351 75.277C37.9274 75.3366 37.916 75.3957 37.9009 75.4539C37.6008 76.773 36.7777 77.9223 35.6116 78.65L31.4602 80.9854H31.426C30.9786 81.266 30.4621 81.4237 29.9308 81.4419C29.3994 81.4601 28.8729 81.3382 28.4064 81.089C27.94 80.8398 27.551 80.4725 27.2803 80.0257C27.0095 79.5789 26.8671 79.0691 26.8679 78.5499Z" fill="#FAFAFA"/>
</g>
<path d="M35.7759 73.5388C35.7759 74.92 34.7132 76.6416 33.4046 77.3789L29.2565 79.7143C27.9479 80.4516 26.8853 79.9278 26.8853 78.5466C26.8853 77.1654 27.9479 75.4438 29.2565 74.7032L33.4046 72.3678C34.7269 71.6305 35.7759 72.1542 35.7759 73.5388Z" fill="#E0E0E0"/>
<path d="M35.1572 71.9004C35.9202 71.9314 36.6414 72.2488 37.1705 72.7865C37.6995 73.3242 37.9955 74.0406 37.9966 74.7863C37.9957 74.944 37.9808 75.1014 37.9522 75.2567C37.9445 75.3163 37.9331 75.3753 37.918 75.4335C37.6537 76.5643 37.0119 77.5772 36.0934 78.3127C37.238 76.7647 37.8838 75.7772 37.6071 74.2458C37.4924 73.6576 37.1962 73.1176 36.7584 72.6984C36.3205 72.2792 35.7618 72.0007 35.1572 71.9004Z" fill="white"/>
<path d="M33.1857 79.1169C33.3647 78.9952 33.5069 78.8289 33.5976 78.6352C33.6884 78.4416 33.7243 78.2277 33.7017 78.016C33.6692 77.4286 33.4954 76.857 33.1944 76.3475C32.8934 75.838 32.4737 75.4049 31.9693 75.0834C31.794 74.959 31.5879 74.8826 31.3723 74.8621C31.1566 74.8415 30.9393 74.8776 30.7427 74.9666L28.5149 76.2244C28.2351 76.3817 27.9898 76.5912 27.793 76.8411C27.5962 77.0909 27.4517 77.3762 27.3677 77.6806C27.2838 77.9849 27.2621 78.3025 27.3039 78.615C27.3457 78.9276 27.45 79.2291 27.6111 79.5023C27.7722 79.7754 27.9868 80.015 28.2427 80.2071C28.4986 80.3993 28.7908 80.5404 29.1025 80.6224C29.4142 80.7043 29.7394 80.7255 30.0595 80.6847C30.3797 80.644 30.6884 80.542 30.9682 80.3847L33.1857 79.1169Z" fill="#F5F5F5"/>
<path d="M36.2575 77.3819C36.5366 77.2244 36.7812 77.0148 36.9773 76.765C37.1734 76.5152 37.3173 76.2301 37.4005 75.926C37.4838 75.622 37.505 75.3048 37.4627 74.9928C37.4205 74.6808 37.3158 74.3799 37.1544 74.1074C36.9931 73.8349 36.7784 73.596 36.5226 73.4045C36.2668 73.213 35.9748 73.0726 35.6634 72.9913C35.352 72.91 35.0272 72.8893 34.7076 72.9306C34.388 72.9718 34.0799 73.0741 33.8008 73.2316L30.7257 74.9731C30.9222 74.8842 31.1396 74.8481 31.3552 74.8686C31.5709 74.8891 31.777 74.9655 31.9523 75.0899C32.459 75.4089 32.8815 75.8402 33.1854 76.3486C33.4894 76.8569 33.6663 77.4282 33.7017 78.0158C33.7242 78.2256 33.6893 78.4375 33.6004 78.6297C33.5116 78.822 33.372 78.9878 33.196 79.1101L36.2575 77.3819Z" fill="#006466"/>
<path opacity="0.4" d="M35.7039 73.8655C35.8281 74.0763 35.8619 74.3265 35.7979 74.5615C35.7339 74.7965 35.5773 74.9973 35.3622 75.12L31.6515 77.2218C31.3391 76.7172 31.1639 76.143 31.1424 75.5537C31.1424 75.497 31.1424 75.4436 31.1424 75.3902L34.4157 73.5352C34.5223 73.4736 34.6404 73.4333 34.7631 73.4165C34.8858 73.3998 35.0106 73.407 35.1305 73.4377C35.2503 73.4684 35.3626 73.522 35.4611 73.5955C35.5595 73.6689 35.642 73.7607 35.7039 73.8655Z" fill="white"/>
<path d="M33.1857 79.1169C33.3647 78.9952 33.5069 78.8289 33.5976 78.6352C33.6884 78.4416 33.7243 78.2277 33.7017 78.016C33.6692 77.4286 33.4954 76.857 33.1944 76.3475C32.8934 75.838 32.4737 75.4049 31.9693 75.0834C31.794 74.959 31.5879 74.8826 31.3723 74.8621C31.1566 74.8415 30.9393 74.8776 30.7427 74.9666L28.5149 76.2244C28.2351 76.3817 27.9898 76.5912 27.793 76.8411C27.5962 77.0909 27.4517 77.3762 27.3677 77.6806C27.2838 77.9849 27.2621 78.3025 27.3039 78.615C27.3457 78.9276 27.45 79.2291 27.6111 79.5023C27.7722 79.7754 27.9868 80.015 28.2427 80.2071C28.4986 80.3993 28.7908 80.5404 29.1025 80.6224C29.4142 80.7043 29.7394 80.7255 30.0595 80.6847C30.3797 80.644 30.6884 80.542 30.9682 80.3847L33.1857 79.1169Z" fill="#F5F5F5"/>
<path opacity="0.1" d="M31.9587 75.0903C32.4642 75.41 32.8853 75.8416 33.1881 76.3499C33.4908 76.8583 33.6667 77.4291 33.7013 78.0162C33.7238 78.226 33.6889 78.4378 33.6 78.6301C33.5112 78.8224 33.3716 78.9881 33.1956 79.1105L33.3596 79.0171L33.4929 78.9403C33.6694 78.8185 33.8094 78.6528 33.8983 78.4604C33.9872 78.268 34.0218 78.0559 33.9986 77.846C33.9661 77.2587 33.7923 76.6871 33.4914 76.1776C33.1904 75.6681 32.7707 75.235 32.2663 74.9134C32.091 74.7891 31.8849 74.7127 31.6692 74.6921C31.4536 74.6716 31.2362 74.7077 31.0396 74.7967L30.7321 74.9702C30.929 74.8816 31.1465 74.8461 31.3622 74.8672C31.5778 74.8884 31.7838 74.9654 31.9587 75.0903Z" fill="black"/>
<path d="M27.295 78.0527C27.2442 78.4932 27.3198 78.9389 27.5133 79.3399C27.7068 79.7409 28.0106 80.0816 28.3909 80.3238C28.7712 80.566 29.2129 80.7003 29.6667 80.7116C30.1206 80.723 30.5688 80.611 30.9613 80.3881L33.1856 79.1203C33.3651 78.9983 33.5077 78.8314 33.5985 78.6371C33.6892 78.4428 33.7248 78.2283 33.7016 78.016C33.699 77.7679 33.6634 77.5211 33.5956 77.282L29.8747 79.3839C28.6412 80.0811 27.3087 78.84 27.295 78.0527Z" fill="#E0E0E0"/>
<path d="M28.1423 78.1461C28.2673 78.3559 28.4722 78.5088 28.7124 78.5713C28.9525 78.6338 29.2083 78.6009 29.4236 78.4798L33.1821 76.3545C32.8908 75.8366 32.4685 75.4001 31.9555 75.0867L31.8051 75.01L28.4806 76.8883C28.2651 77.0116 28.1086 77.2132 28.0452 77.449C27.9817 77.6847 28.0167 77.9355 28.1423 78.1461Z" fill="white"/>
<path opacity="0.1" d="M36.9818 73.8587C36.9541 73.8217 36.9245 73.7861 36.893 73.752C36.8732 73.726 36.8515 73.7015 36.8281 73.6786C36.8036 73.6514 36.7774 73.6257 36.7495 73.6018L36.6675 73.5218L36.6196 73.4851C36.4905 73.376 36.3496 73.2809 36.1994 73.2015L36.0319 73.1248C36.7153 73.5284 37.1561 75.2767 35.9329 75.9673C35.516 76.2008 34.8907 76.5645 33.5957 77.3018C33.6617 77.5345 33.6973 77.7744 33.7017 78.0158C33.7242 78.2255 33.6892 78.4374 33.6003 78.6297C33.5115 78.8219 33.3719 78.9877 33.196 79.1101L36.2711 77.3752C36.8342 77.057 37.245 76.5337 37.4135 75.9202C37.582 75.3066 37.4943 74.6528 37.1698 74.1023C37.1288 74.0356 37.0878 73.9755 37.0433 73.9155C37.0247 73.8947 37.0041 73.8757 36.9818 73.8587Z" fill="black"/>
<g style="mix-blend-mode:hard-light" opacity="0.7">
<path d="M11.335 87.2378C11.3353 87.0792 11.3479 86.9208 11.3725 86.764C11.3725 86.7307 11.3999 86.6139 11.4067 86.5905C11.5557 85.9371 11.8351 85.3187 12.2291 84.7709C12.6231 84.223 13.1239 83.7564 13.7028 83.3977L17.8543 81.0623L17.8919 81.0456C18.3397 80.767 18.8559 80.6109 19.3866 80.5939C19.9173 80.5768 20.443 80.6993 20.9085 80.9486C21.3741 81.1979 21.7625 81.5648 22.0331 82.0109C22.3037 82.4571 22.4465 82.966 22.4465 83.4845C22.4456 83.6411 22.4308 83.7974 22.4021 83.9515C22.4021 83.9882 22.3782 84.0783 22.3679 84.1284C22.0686 85.4478 21.2452 86.5973 20.0787 87.3245L15.9272 89.6599L15.893 89.6766C15.4457 89.9572 14.9292 90.1149 14.3978 90.1331C13.8665 90.1513 13.3399 90.0294 12.8735 89.7802C12.4071 89.531 12.0181 89.1636 11.7473 88.7168C11.4766 88.27 11.3341 87.7603 11.335 87.2411V87.2378Z" fill="#FAFAFA"/>
</g>
<path d="M20.2224 82.2267C20.2224 83.6112 19.1632 85.3294 17.8545 86.0667L13.7031 88.4021C12.3978 89.1395 11.3352 88.6157 11.3352 87.2344C11.3352 85.8532 12.3978 84.1317 13.7031 83.3944L17.8545 81.059C19.1632 80.3183 20.2224 80.8421 20.2224 82.2267Z" fill="#E0E0E0"/>
<path d="M19.6071 80.5913C20.3704 80.6215 21.0922 80.9387 21.6214 81.4765C22.1506 82.0144 22.4463 82.7313 22.4465 83.4772C22.4456 83.6339 22.4308 83.7901 22.4021 83.9443C22.4021 83.981 22.3782 84.0711 22.3679 84.1211C22.1047 85.2523 21.4626 86.2655 20.5433 87.0003C21.6846 85.4523 22.3338 84.4681 22.057 82.9334C21.9426 82.3454 21.6465 81.8057 21.2085 81.3869C20.7705 80.9682 20.2116 80.6905 19.6071 80.5913Z" fill="white"/>
<path d="M17.6423 87.8079C17.8183 87.6848 17.9577 87.5184 18.0466 87.3256C18.1354 87.1329 18.1704 86.9206 18.148 86.7103C18.1152 86.123 17.9413 85.5515 17.6403 85.042C17.3394 84.5326 16.9198 84.0994 16.4156 83.7777C16.2403 83.6533 16.0342 83.5769 15.8185 83.5564C15.6029 83.5359 15.3855 83.572 15.189 83.6609L12.9612 84.9187C12.6749 85.0726 12.4229 85.2808 12.2201 85.531C12.0172 85.7812 11.8675 86.0684 11.7797 86.3758C11.692 86.6832 11.6679 87.0047 11.7089 87.3213C11.75 87.6379 11.8553 87.9433 12.0188 88.2196C12.1822 88.496 12.4005 88.7377 12.6608 88.9307C12.9212 89.1236 13.2183 89.2639 13.5349 89.3433C13.8514 89.4227 14.181 89.4397 14.5043 89.3932C14.8277 89.3466 15.1383 89.2376 15.4179 89.0724L17.6423 87.8079Z" fill="#F5F5F5"/>
<path d="M20.7177 86.0699C21.2814 85.7518 21.6925 85.2281 21.8607 84.614C22.0289 83.9999 21.9404 83.3457 21.6146 82.7954C21.2889 82.245 20.7525 81.8435 20.1236 81.6793C19.4947 81.515 18.8247 81.6015 18.261 81.9196L15.1859 83.6611C15.3824 83.5722 15.5998 83.5361 15.8154 83.5566C16.0311 83.5771 16.2372 83.6535 16.4125 83.7779C16.9167 84.0996 17.3363 84.5328 17.6372 85.0422C17.9382 85.5517 18.1121 86.1232 18.1448 86.7105C18.1672 86.9208 18.1323 87.1331 18.0435 87.3258C17.9546 87.5186 17.8151 87.685 17.6391 87.8081L20.7177 86.0699Z" fill="#006466"/>
<path opacity="0.4" d="M20.1538 82.5532C20.2781 82.764 20.3119 83.0142 20.2479 83.2492C20.1838 83.4843 20.0272 83.685 19.8121 83.8077L16.1015 85.9095C15.7891 85.4049 15.6138 84.8307 15.5923 84.2414C15.5923 84.1847 15.5923 84.1313 15.5923 84.0779L18.8657 82.2229C18.9724 82.1618 19.0904 82.1218 19.213 82.1053C19.3356 82.0888 19.4603 82.0961 19.58 82.1268C19.6997 82.1575 19.812 82.2109 19.9105 82.2841C20.009 82.3573 20.0917 82.4488 20.1538 82.5532Z" fill="white"/>
<path d="M17.6423 87.8079C17.8183 87.6848 17.9577 87.5184 18.0466 87.3256C18.1354 87.1329 18.1704 86.9206 18.148 86.7103C18.1152 86.123 17.9413 85.5515 17.6403 85.042C17.3394 84.5326 16.9198 84.0994 16.4156 83.7777C16.2403 83.6533 16.0342 83.5769 15.8185 83.5564C15.6029 83.5359 15.3855 83.572 15.189 83.6609L12.9612 84.9187C12.6749 85.0726 12.4229 85.2808 12.2201 85.531C12.0172 85.7812 11.8675 86.0684 11.7797 86.3758C11.692 86.6832 11.6679 87.0047 11.7089 87.3213C11.75 87.6379 11.8553 87.9433 12.0188 88.2196C12.1822 88.496 12.4005 88.7377 12.6608 88.9307C12.9212 89.1236 13.2183 89.2639 13.5349 89.3433C13.8514 89.4227 14.181 89.4397 14.5043 89.3932C14.8277 89.3466 15.1383 89.2376 15.4179 89.0724L17.6423 87.8079Z" fill="#F5F5F5"/>
<path opacity="0.1" d="M16.409 83.7778C16.9132 84.0996 17.3328 84.5327 17.6337 85.0422C17.9347 85.5517 18.1086 86.1232 18.1413 86.7104C18.1637 86.9207 18.1288 87.133 18.0399 87.3258C17.9511 87.5186 17.8116 87.685 17.6356 87.8081L17.8099 87.708L17.9432 87.6313C18.1199 87.5096 18.2601 87.344 18.349 87.1515C18.438 86.9591 18.4724 86.7468 18.4488 86.537C18.4161 85.9497 18.2422 85.3782 17.9412 84.8687C17.6403 84.3592 17.2207 83.9261 16.7165 83.6044C16.5412 83.48 16.3351 83.4036 16.1194 83.383C15.9038 83.3625 15.6864 83.3986 15.4899 83.4876L15.1823 83.6611C15.3789 83.5721 15.5963 83.536 15.8119 83.5565C16.0276 83.5771 16.2337 83.6535 16.409 83.7778Z" fill="black"/>
<path d="M11.7448 86.7439C11.6872 87.2477 11.7961 87.7562 12.0557 88.1952C12.3816 88.7459 12.9181 89.1477 13.5473 89.3123C14.1765 89.4768 14.8469 89.3906 15.4111 89.0726L17.6423 87.8082C17.8183 87.6851 17.9577 87.5187 18.0466 87.3259C18.1354 87.1331 18.1704 86.9208 18.148 86.7106C18.1454 86.4624 18.1098 86.2157 18.042 85.9766L14.3211 88.0784C13.091 88.769 11.7585 87.5279 11.7448 86.7439Z" fill="#E0E0E0"/>
<path d="M12.5922 86.8339C12.6538 86.9381 12.7358 87.0295 12.8336 87.1026C12.9313 87.1758 13.0429 87.2295 13.162 87.2604C13.281 87.2914 13.4051 87.2992 13.5272 87.2833C13.6493 87.2673 13.767 87.228 13.8736 87.1676L17.6321 85.0424C17.3398 84.5251 16.9177 84.0889 16.4054 83.7746L16.2551 83.7012L12.9305 85.5795C12.8236 85.6399 12.73 85.7203 12.6551 85.8162C12.5802 85.912 12.5255 86.0214 12.494 86.138C12.4626 86.2546 12.4551 86.3761 12.4719 86.4955C12.4888 86.615 12.5297 86.73 12.5922 86.8339Z" fill="white"/>
<path opacity="0.1" d="M21.4318 82.547C21.4041 82.5099 21.3745 82.4743 21.343 82.4402C21.3225 82.4169 21.302 82.3902 21.2781 82.3668L21.1995 82.2901L21.1141 82.21L21.0697 82.1733C20.9404 82.0653 20.7995 81.9713 20.6494 81.8931C20.5968 81.8624 20.542 81.8356 20.4854 81.813C21.1688 82.2167 21.6095 83.9649 20.3863 84.6555C19.9694 84.8924 19.3407 85.256 18.0492 85.99C18.1169 86.2292 18.1525 86.4759 18.1551 86.724C18.1775 86.9343 18.1425 87.1466 18.0537 87.3393C17.9649 87.5321 17.8254 87.6985 17.6494 87.8216L20.7246 86.0834C21.0038 85.9262 21.2485 85.7168 21.4446 85.4671C21.6408 85.2174 21.7846 84.9324 21.8677 84.6284C21.9509 84.3243 21.9718 84.0073 21.9292 83.6953C21.8867 83.3834 21.7815 83.0827 21.6198 82.8105C21.582 82.7463 21.5409 82.6839 21.4968 82.6237L21.4318 82.547Z" fill="black"/>
<g style="mix-blend-mode:hard-light" opacity="0.7">
<path d="M26.8679 66.022C26.8677 65.8644 26.8814 65.707 26.9089 65.5516C26.9089 65.5149 26.9328 65.3981 26.9397 65.3748C27.2427 64.0551 28.0698 62.9068 29.2392 62.182L33.3873 59.8466L33.4248 59.8299C33.8721 59.5502 34.3883 59.3932 34.9191 59.3755C35.45 59.3577 35.9759 59.4798 36.4418 59.7289C36.9077 59.978 37.2963 60.345 37.5668 60.7913C37.8374 61.2376 37.9799 61.7467 37.9795 62.2654C37.9786 62.4231 37.9637 62.5805 37.9351 62.7358C37.9268 62.7953 37.9154 62.8543 37.9009 62.9126C37.6007 64.2308 36.7774 65.379 35.6116 66.1054L31.4602 68.4408H31.426C30.9786 68.7214 30.4621 68.8791 29.9308 68.8973C29.3994 68.9155 28.8729 68.7936 28.4064 68.5444C27.94 68.2952 27.551 67.9279 27.2803 67.4811C27.0095 67.0343 26.8671 66.5245 26.8679 66.0053V66.022Z" fill="#FAFAFA"/>
</g>
<path d="M35.7759 61.0008C35.7759 62.3853 34.7132 64.1035 33.4046 64.8408L29.2565 67.1762C27.9479 67.9135 26.8853 67.3898 26.8853 66.0052C26.8853 64.6206 27.9479 62.9024 29.2565 62.1651L33.4046 59.8297C34.7269 59.1058 35.7759 59.6295 35.7759 61.0008Z" fill="#E0E0E0"/>
<path d="M35.1572 59.376C35.9205 59.4061 36.6422 59.7233 37.1714 60.2612C37.7007 60.7991 37.9963 61.516 37.9966 62.2619C37.9957 62.4196 37.9808 62.577 37.9522 62.7323C37.9439 62.7918 37.9325 62.8508 37.918 62.9091C37.6537 64.0399 37.0119 65.0528 36.0934 65.7883C37.238 64.2403 37.8838 63.2527 37.6071 61.718C37.4927 61.13 37.1965 60.5903 36.7585 60.1716C36.3205 59.7529 35.7617 59.4752 35.1572 59.376Z" fill="white"/>
<path d="M33.1857 66.5925C33.3617 66.4694 33.5012 66.303 33.59 66.1102C33.6788 65.9174 33.7138 65.7051 33.6914 65.4949C33.6589 64.908 33.4851 64.3368 33.1841 63.8279C32.8831 63.3189 32.4634 62.8864 31.9591 62.5656C31.784 62.441 31.578 62.3642 31.3624 62.3431C31.1468 62.322 30.9294 62.3573 30.7324 62.4455L28.5046 63.7066C28.2255 63.8646 27.981 64.0746 27.7851 64.3248C27.5891 64.575 27.4456 64.8605 27.3626 65.1649C27.2796 65.4693 27.2589 65.7866 27.3015 66.0988C27.3442 66.411 27.4494 66.712 27.6111 66.9845C27.7729 67.257 27.988 67.4958 28.2443 67.6871C28.5005 67.8784 28.7929 68.0186 29.1046 68.0996C29.4163 68.1806 29.7414 68.2009 30.0611 68.1593C30.3809 68.1176 30.6891 68.0149 30.9682 67.857L33.1857 66.5925Z" fill="#F5F5F5"/>
<path d="M36.2576 64.8575C36.8077 64.5325 37.2054 64.01 37.3653 63.402C37.5253 62.794 37.4349 62.149 37.1133 61.6054C36.7918 61.0618 36.2649 60.6629 35.6456 60.4944C35.0263 60.3258 34.3641 60.401 33.8009 60.7038L30.7257 62.4453C30.9227 62.3572 31.1402 62.3218 31.3557 62.3429C31.5713 62.364 31.7773 62.4408 31.9524 62.5654C32.4567 62.8862 32.8764 63.3187 33.1775 63.8277C33.4785 64.3367 33.6523 64.9078 33.6847 65.4947C33.7071 65.7049 33.6721 65.9172 33.5833 66.11C33.4945 66.3028 33.355 66.4692 33.179 66.5923L36.2576 64.8575Z" fill="#006466"/>
<path opacity="0.4" d="M35.7039 61.3348C35.8279 61.5451 35.8617 61.7948 35.7976 62.0293C35.7336 62.2637 35.577 62.4639 35.3622 62.5859L31.6515 64.6878C31.3387 64.1833 31.1634 63.609 31.1424 63.0196C31.1424 62.9596 31.1424 62.9062 31.1424 62.8528L34.4225 61.0012C34.5291 60.9408 34.6468 60.9014 34.7689 60.8855C34.891 60.8696 35.0151 60.8773 35.1341 60.9083C35.2532 60.9393 35.3648 60.9929 35.4625 61.0661C35.5603 61.1393 35.6423 61.2306 35.7039 61.3348Z" fill="white"/>
<path d="M33.1857 66.5925C33.3617 66.4694 33.5012 66.303 33.59 66.1102C33.6788 65.9174 33.7138 65.7051 33.6914 65.4949C33.6589 64.908 33.4851 64.3368 33.1841 63.8279C32.8831 63.3189 32.4634 62.8864 31.9591 62.5656C31.784 62.441 31.578 62.3642 31.3624 62.3431C31.1468 62.322 30.9294 62.3573 30.7324 62.4455L28.5046 63.7066C28.2255 63.8646 27.981 64.0746 27.7851 64.3248C27.5891 64.575 27.4456 64.8605 27.3626 65.1649C27.2796 65.4693 27.2589 65.7866 27.3015 66.0988C27.3442 66.411 27.4494 66.712 27.6111 66.9845C27.7729 67.257 27.988 67.4958 28.2443 67.6871C28.5005 67.8784 28.7929 68.0186 29.1046 68.0996C29.4163 68.1806 29.7414 68.2009 30.0611 68.1593C30.3809 68.1176 30.6891 68.0149 30.9682 67.857L33.1857 66.5925Z" fill="#F5F5F5"/>
<path opacity="0.1" d="M31.9588 62.5655C32.4631 62.8863 32.8829 63.3188 33.1839 63.8278C33.4849 64.3368 33.6587 64.9079 33.6911 65.4948C33.7135 65.705 33.6786 65.9173 33.5897 66.1101C33.5009 66.3029 33.3614 66.4693 33.1854 66.5924L33.3597 66.4923L33.493 66.4189C33.6695 66.2963 33.8094 66.13 33.8982 65.9371C33.9871 65.7441 34.0218 65.5316 33.9986 65.3213C33.9662 64.7344 33.7924 64.1633 33.4914 63.6543C33.1904 63.1453 32.7706 62.7128 32.2663 62.392C32.0912 62.2674 31.8853 62.1906 31.6697 62.1695C31.4541 62.1484 31.2366 62.1838 31.0397 62.2719L30.7321 62.4454C30.9291 62.3572 31.1466 62.3219 31.3622 62.343C31.5777 62.3641 31.7837 62.4409 31.9588 62.5655Z" fill="black"/>
<path d="M27.2951 65.5281C27.2443 65.9686 27.3199 66.4143 27.5134 66.8153C27.7069 67.2163 28.0107 67.557 28.391 67.7992C28.7713 68.0414 29.213 68.1757 29.6668 68.1871C30.1207 68.1984 30.5689 68.0864 30.9614 67.8635L33.1857 66.599C33.3617 66.4759 33.5012 66.3095 33.59 66.1167C33.6788 65.924 33.7138 65.7117 33.6914 65.5014C33.689 65.2544 33.6534 65.0087 33.5855 64.7708L29.8645 66.8726C28.6413 67.5532 27.3087 66.3121 27.2951 65.5281Z" fill="#E0E0E0"/>
<path d="M28.1423 65.6184C28.2038 65.7226 28.2859 65.8139 28.3836 65.8871C28.4814 65.9603 28.593 66.0139 28.712 66.0449C28.8311 66.0759 28.9552 66.0836 29.0773 66.0677C29.1994 66.0517 29.3171 66.0124 29.4236 65.952L33.1821 63.8268C32.8898 63.3105 32.4676 62.8754 31.9555 62.5623C31.9068 62.5341 31.8566 62.5085 31.8051 62.4856L28.4806 64.3639C28.2654 64.4865 28.1089 64.6875 28.0454 64.9228C27.982 65.158 28.0168 65.4082 28.1423 65.6184Z" fill="white"/>
<path opacity="0.1" d="M36.9818 61.3343L36.893 61.2276L36.8281 61.1542L36.7495 61.0774L36.6675 60.9974L36.6197 60.9607C36.4896 60.8537 36.3488 60.7598 36.1994 60.6804L36.032 60.6003C36.7153 61.0074 37.1561 62.7522 35.9329 63.4429C35.516 63.6797 34.8907 64.0434 33.5958 64.7774C33.6637 65.0153 33.6993 65.261 33.7017 65.508C33.7241 65.7183 33.6891 65.9306 33.6003 66.1234C33.5115 66.3162 33.372 66.4826 33.196 66.6057L36.2711 64.8708C36.8345 64.552 37.2454 64.0281 37.4138 63.414C37.5822 62.7999 37.4945 62.1456 37.1698 61.5946C37.1288 61.5312 37.0878 61.4678 37.0433 61.4077L36.9818 61.3343Z" fill="black"/>
<g style="mix-blend-mode:hard-light" opacity="0.7">
<path d="M11.335 74.7097C11.3353 74.5522 11.3479 74.3949 11.3725 74.2393C11.3725 74.2026 11.3999 74.0858 11.4067 74.0625C11.7082 72.743 12.5342 71.5945 13.7028 70.8696L17.8543 68.5342H17.8919C18.3392 68.2545 18.8553 68.0976 19.3862 68.0798C19.917 68.0621 20.443 68.1841 20.9088 68.4332C21.3747 68.6824 21.7633 69.0493 22.0339 69.4956C22.3044 69.9419 22.447 70.4511 22.4465 70.9697C22.4456 71.1275 22.4307 71.2849 22.4021 71.4401C22.4021 71.4735 22.3782 71.5636 22.3679 71.617C22.0684 72.9354 21.245 74.0839 20.0787 74.8098L15.9272 77.1452H15.893C15.4457 77.4257 14.9292 77.5834 14.3978 77.6016C13.8665 77.6199 13.3399 77.498 12.8735 77.2487C12.4071 76.9995 12.0181 76.6322 11.7473 76.1854C11.4766 75.7386 11.3341 75.2288 11.335 74.7097Z" fill="#FAFAFA"/>
</g>
<path d="M20.2224 69.7021C20.2224 71.0834 19.1632 72.8049 17.8545 73.5422L13.7031 75.8776C12.3978 76.6149 11.3352 76.0911 11.3352 74.7066C11.3352 73.322 12.3978 71.6038 13.7031 70.8665L17.8545 68.5311C19.1632 67.7938 20.2224 68.3176 20.2224 69.7021Z" fill="#E0E0E0"/>
<path d="M19.6071 68.0637C20.3701 68.0947 21.0914 68.4121 21.6204 68.9498C22.1495 69.4876 22.4454 70.204 22.4465 70.9496C22.4456 71.1074 22.4307 71.2648 22.4021 71.42C22.4021 71.4534 22.3782 71.5435 22.3679 71.5968C22.1037 72.7276 21.4618 73.7405 20.5433 74.4761C21.6846 72.928 22.3338 71.9405 22.057 70.4091C21.9423 69.8209 21.6462 69.281 21.2083 68.8618C20.7704 68.4425 20.2117 68.1641 19.6071 68.0637Z" fill="white"/>
<path d="M17.6424 75.2802C17.8181 75.1577 17.9575 74.9918 18.0463 74.7996C18.1351 74.6074 18.1702 74.3957 18.1481 74.1859C18.1156 73.5986 17.9418 73.027 17.6409 72.5175C17.3399 72.008 16.9202 71.5749 16.4158 71.2533C16.2406 71.1288 16.0347 71.052 15.8191 71.0308C15.6035 71.0097 15.3861 71.0451 15.1891 71.1332L12.9613 72.3943C12.3977 72.7124 11.9865 73.2362 11.8183 73.8503C11.6501 74.4644 11.7386 75.1185 12.0644 75.6689C12.3902 76.2193 12.9265 76.6207 13.5555 76.785C14.1844 76.9492 14.8544 76.8628 15.418 76.5447L17.6424 75.2802Z" fill="#F5F5F5"/>
<path d="M20.7177 73.5455C21.2814 73.2274 21.6925 72.7037 21.8607 72.0896C22.0289 71.4755 21.9404 70.8213 21.6146 70.2709C21.2889 69.7206 20.7525 69.3191 20.1236 69.1549C19.4947 68.9906 18.8247 69.0771 18.261 69.3952L15.1859 71.1334C15.3828 71.0452 15.6003 71.0099 15.8159 71.031C16.0315 71.0521 16.2374 71.1289 16.4125 71.2535C16.9169 71.575 17.3366 72.0081 17.6376 72.5176C17.9386 73.0271 18.1124 73.5987 18.1448 74.1861C18.1674 74.3955 18.1328 74.6071 18.0445 74.7992C17.9563 74.9914 17.8177 75.1574 17.6426 75.2804L20.7177 73.5455Z" fill="#006466"/>
<path opacity="0.4" d="M20.1538 70.0289C20.2781 70.2397 20.3119 70.4899 20.2479 70.7249C20.1838 70.9599 20.0272 71.1607 19.8121 71.2833L16.1015 73.3852C15.7896 72.8803 15.6144 72.3063 15.5923 71.7171C15.5923 71.6603 15.5923 71.6036 15.5923 71.5502L18.8657 69.6953C18.9725 69.6338 19.0907 69.5936 19.2136 69.5771C19.3364 69.5606 19.4613 69.5681 19.5812 69.5992C19.701 69.6302 19.8134 69.6842 19.9117 69.7579C20.01 69.8317 20.0923 69.9238 20.1538 70.0289Z" fill="white"/>
<path d="M17.6424 75.2802C17.8181 75.1577 17.9575 74.9918 18.0463 74.7996C18.1351 74.6074 18.1702 74.3957 18.1481 74.1859C18.1156 73.5986 17.9418 73.027 17.6409 72.5175C17.3399 72.008 16.9202 71.5749 16.4158 71.2533C16.2406 71.1288 16.0347 71.052 15.8191 71.0308C15.6035 71.0097 15.3861 71.0451 15.1891 71.1332L12.9613 72.3943C12.3977 72.7124 11.9865 73.2362 11.8183 73.8503C11.6501 74.4644 11.7386 75.1185 12.0644 75.6689C12.3902 76.2193 12.9265 76.6207 13.5555 76.785C14.1844 76.9492 14.8544 76.8628 15.418 76.5447L17.6424 75.2802Z" fill="#F5F5F5"/>
<path opacity="0.1" d="M16.4089 71.2535C16.9133 71.575 17.333 72.0081 17.634 72.5176C17.935 73.0272 18.1087 73.5988 18.1412 74.1861C18.1641 74.3952 18.13 74.6066 18.0424 74.7987C17.9548 74.9909 17.8168 75.157 17.6424 75.2804L17.8166 75.1836L17.9499 75.1069C18.1261 74.9848 18.2659 74.8191 18.3548 74.6267C18.4436 74.4344 18.4784 74.2224 18.4556 74.0126C18.4231 73.4253 18.2493 72.8537 17.9483 72.3442C17.6474 71.8346 17.2276 71.4016 16.7232 71.08C16.5481 70.9554 16.3422 70.8786 16.1266 70.8575C15.911 70.8364 15.6936 70.8717 15.4966 70.9599L15.1891 71.1334C15.3852 71.0465 15.6013 71.0118 15.8156 71.0329C16.0298 71.054 16.2345 71.1301 16.4089 71.2535Z" fill="black"/>
<path d="M11.7449 74.2162C11.6941 74.6567 11.7697 75.1023 11.9632 75.5034C12.1567 75.9044 12.4606 76.245 12.8408 76.4873C13.2211 76.7295 13.6628 76.8638 14.1167 76.8751C14.5706 76.8865 15.0187 76.7745 15.4112 76.5516L17.6424 75.2804C17.8181 75.1578 17.9575 74.992 18.0463 74.7998C18.1351 74.6076 18.1702 74.3959 18.1481 74.1861C18.1457 73.938 18.1101 73.6912 18.0422 73.4521C16.7404 74.1828 15.1515 75.0869 14.3212 75.554C13.0912 76.2446 11.7586 75.0135 11.7449 74.2162Z" fill="#E0E0E0"/>
<path d="M12.5922 74.3095C12.6538 74.4137 12.7358 74.505 12.8336 74.5782C12.9313 74.6514 13.0429 74.705 13.162 74.736C13.281 74.767 13.4051 74.7748 13.5272 74.7588C13.6493 74.7429 13.767 74.7036 13.8736 74.6432L17.6321 72.5179C17.3397 72.0017 16.9176 71.5665 16.4054 71.2535C16.3542 71.2235 16.3029 71.2001 16.2551 71.1768L12.9305 73.0551C12.716 73.1783 12.5601 73.3793 12.4967 73.6143C12.4334 73.8493 12.4677 74.0992 12.5922 74.3095Z" fill="white"/>
<path opacity="0.1" d="M21.4319 70.0091C21.4042 69.9721 21.3745 69.9364 21.343 69.9024C21.3232 69.8764 21.3016 69.8519 21.2781 69.829L21.1995 69.7489C21.1727 69.7216 21.1442 69.696 21.1141 69.6722C21.1009 69.6582 21.086 69.6459 21.0697 69.6355C20.9405 69.5264 20.7996 69.4313 20.6494 69.3519C20.5982 69.3252 20.5435 69.2985 20.4854 69.2751C21.1688 69.6788 21.6096 71.4271 20.3863 72.1143C19.9695 72.3512 19.3408 72.7149 18.0492 73.4488C18.1172 73.6879 18.1528 73.9347 18.1551 74.1828C18.1771 74.3937 18.1413 74.6066 18.0512 74.7995C17.9611 74.9924 17.8201 75.1584 17.6426 75.2805L20.7178 73.5456C21.281 73.2275 21.6917 72.704 21.8595 72.0902C22.0274 71.4764 21.9387 70.8226 21.613 70.2727C21.576 70.2069 21.5349 70.1434 21.49 70.0825L21.4319 70.0091Z" fill="black"/>
<g style="mix-blend-mode:hard-light" opacity="0.7">
<path d="M26.8679 53.4975C26.8677 53.3387 26.8814 53.1802 26.9089 53.0237C26.9089 52.9904 26.9328 52.8702 26.9397 52.8502C27.092 52.1951 27.3754 51.5758 27.7735 51.0279C28.1717 50.4799 28.6767 50.0142 29.2597 49.6574L33.4078 47.322H33.4454C33.8929 47.0435 34.4088 46.8875 34.9392 46.8702C35.4696 46.853 35.995 46.9753 36.4605 47.2242C36.926 47.4731 37.3145 47.8395 37.5853 48.2852C37.8561 48.7308 37.9993 49.2393 38 49.7575C37.9991 49.9153 37.9842 50.0726 37.9556 50.2279C37.9479 50.2875 37.9365 50.3465 37.9214 50.4047C37.6213 51.7239 36.7982 52.8731 35.6321 53.6009L31.4807 55.9363L31.4465 55.953C30.9991 56.2335 30.4826 56.3912 29.9513 56.4094C29.4199 56.4277 28.8934 56.3058 28.427 56.0565C27.9605 55.8073 27.5715 55.44 27.3008 54.9932C27.03 54.5464 26.8876 54.0366 26.8884 53.5175L26.8679 53.4975Z" fill="#FAFAFA"/>
</g>
<path d="M35.7759 48.4862C35.7759 49.8707 34.7132 51.5889 33.4046 52.3263L29.26 54.6617C27.9513 55.399 26.8887 54.8752 26.8887 53.494C26.8887 52.1127 27.9513 50.3912 29.26 49.6539L33.408 47.3185C34.7269 46.5778 35.7759 47.1016 35.7759 48.4862Z" fill="#E0E0E0"/>
<path d="M35.1572 46.8484C35.9202 46.8793 36.6414 47.1968 37.1705 47.7345C37.6995 48.2722 37.9955 48.9886 37.9966 49.7343C37.9957 49.892 37.9808 50.0494 37.9522 50.2047C37.9445 50.2643 37.9331 50.3233 37.918 50.3815C37.6547 51.5127 37.0126 52.5259 36.0934 53.2607C37.238 51.7127 37.8838 50.7252 37.6071 49.1938C37.4924 48.6056 37.1962 48.0656 36.7584 47.6464C36.3205 47.2272 35.7618 46.9487 35.1572 46.8484Z" fill="white"/>
<path d="M33.1857 54.0648C33.3616 53.9425 33.5012 53.7767 33.5901 53.5845C33.6789 53.3922 33.7139 53.1803 33.6914 52.9705C33.6589 52.3832 33.4851 51.8116 33.1841 51.3021C32.8831 50.7926 32.4634 50.3595 31.959 50.0379C31.7837 49.9136 31.5776 49.8372 31.362 49.8166C31.1463 49.7961 30.929 49.8322 30.7324 49.9212L28.5046 51.179C28.2204 51.3343 27.9706 51.5433 27.7698 51.7937C27.5691 52.0442 27.4213 52.3311 27.3352 52.6378C27.249 52.9446 27.2262 53.2649 27.2681 53.5804C27.3099 53.8958 27.4156 54.1999 27.5789 54.4751C27.7422 54.7502 27.96 54.991 28.2195 55.1832C28.479 55.3754 28.775 55.5154 29.0904 55.5949C29.4058 55.6744 29.7342 55.6918 30.0566 55.6462C30.379 55.6006 30.6888 55.4929 30.9681 55.3293L33.1857 54.0648Z" fill="#F5F5F5"/>
<path d="M36.2575 52.3268C36.5366 52.1693 36.7812 51.9596 36.9773 51.7098C37.1734 51.46 37.3173 51.1749 37.4005 50.8709C37.4838 50.5668 37.505 50.2497 37.4627 49.9376C37.4205 49.6256 37.3158 49.3247 37.1544 49.0522C36.9931 48.7797 36.7784 48.5409 36.5226 48.3494C36.2668 48.1579 35.9748 48.0174 35.6634 47.9361C35.352 47.8548 35.0272 47.8342 34.7076 47.8754C34.388 47.9166 34.0799 48.0189 33.8008 48.1764L30.7257 49.918C30.9222 49.829 31.1396 49.7929 31.3552 49.8134C31.5709 49.834 31.777 49.9104 31.9523 50.0347C32.4567 50.3563 32.8764 50.7894 33.1774 51.2989C33.4784 51.8084 33.6522 52.38 33.6846 52.9673C33.7071 53.1771 33.6722 53.389 33.5833 53.5812C33.4945 53.7735 33.3549 53.9393 33.179 54.0616L36.2575 52.3268Z" fill="#006466"/>
<path opacity="0.4" d="M35.7039 48.8133C35.8281 49.024 35.8619 49.2743 35.7979 49.5093C35.7339 49.7443 35.5773 49.9451 35.3622 50.0677L31.6515 52.1696C31.3391 51.6649 31.1639 51.0907 31.1424 50.5014C31.1424 50.4447 31.1424 50.3913 31.1424 50.338L34.4157 48.483C34.5223 48.4214 34.6404 48.381 34.7631 48.3643C34.8858 48.3475 35.0106 48.3547 35.1305 48.3854C35.2503 48.4162 35.3626 48.4698 35.4611 48.5432C35.5595 48.6167 35.642 48.7085 35.7039 48.8133Z" fill="white"/>
<path d="M33.1857 54.0648C33.3616 53.9425 33.5012 53.7767 33.5901 53.5845C33.6789 53.3922 33.7139 53.1803 33.6914 52.9705C33.6589 52.3832 33.4851 51.8116 33.1841 51.3021C32.8831 50.7926 32.4634 50.3595 31.959 50.0379C31.7837 49.9136 31.5776 49.8372 31.362 49.8166C31.1463 49.7961 30.929 49.8322 30.7324 49.9212L28.5046 51.179C28.2204 51.3343 27.9706 51.5433 27.7698 51.7937C27.5691 52.0442 27.4213 52.3311 27.3352 52.6378C27.249 52.9446 27.2262 53.2649 27.2681 53.5804C27.3099 53.8958 27.4156 54.1999 27.5789 54.4751C27.7422 54.7502 27.96 54.991 28.2195 55.1832C28.479 55.3754 28.775 55.5154 29.0904 55.5949C29.4058 55.6744 29.7342 55.6918 30.0566 55.6462C30.379 55.6006 30.6888 55.4929 30.9681 55.3293L33.1857 54.0648Z" fill="#F5F5F5"/>
<path opacity="0.1" d="M31.9587 50.0376C32.4632 50.3592 32.8829 50.7922 33.1838 51.3018C33.4848 51.8113 33.6586 52.3829 33.6911 52.9702C33.7136 53.18 33.6786 53.3919 33.5898 53.5841C33.5009 53.7764 33.3614 53.9422 33.1854 54.0645L33.3596 53.9678L33.4929 53.891C33.6694 53.7692 33.8094 53.6035 33.8983 53.4111C33.9872 53.2187 34.0218 53.0066 33.9986 52.7967C33.9661 52.2094 33.7923 51.6378 33.4914 51.1283C33.1904 50.6188 32.7707 50.1857 32.2663 49.8641C32.091 49.7397 31.8849 49.6633 31.6692 49.6428C31.4536 49.6223 31.2362 49.6584 31.0396 49.7474L30.7321 49.9208C30.9287 49.8319 31.146 49.7958 31.3617 49.8163C31.5773 49.8368 31.7835 49.9132 31.9587 50.0376Z" fill="black"/>
<path d="M27.2948 52.9938C27.2372 53.4976 27.3462 54.0061 27.6057 54.4451C27.7669 54.7189 27.9817 54.959 28.2379 55.1517C28.4942 55.3443 28.7868 55.4857 29.0991 55.5679C29.4114 55.65 29.7371 55.6712 30.0578 55.6302C30.3785 55.5893 30.6878 55.487 30.9679 55.3292L33.1923 54.0614C33.3682 53.9391 33.5078 53.7733 33.5966 53.5811C33.6855 53.3888 33.7205 53.1769 33.698 52.9671C33.6954 52.719 33.6598 52.4723 33.592 52.2332L29.8711 54.335C28.641 55.029 27.3085 53.7879 27.2948 52.9938Z" fill="#E0E0E0"/>
<path d="M28.1423 53.0941C28.2673 53.3039 28.4722 53.4568 28.7124 53.5193C28.9525 53.5818 29.2083 53.5489 29.4236 53.4278L33.1821 51.3025C32.8908 50.7846 32.4685 50.3481 31.9555 50.0347L31.8051 49.958L28.4806 51.8363C28.2651 51.9596 28.1086 52.1612 28.0452 52.397C27.9817 52.6327 28.0167 52.8835 28.1423 53.0941Z" fill="white"/>
<path opacity="0.1" d="M36.9818 48.8067C36.9541 48.7696 36.9245 48.734 36.893 48.6999C36.8732 48.6739 36.8515 48.6494 36.8281 48.6265L36.7495 48.5498L36.6675 48.4697L36.6196 48.433C36.4905 48.3239 36.3496 48.2288 36.1994 48.1494C36.1453 48.1194 36.0894 48.0926 36.0319 48.0693C36.7153 48.473 37.1561 50.2212 35.9329 50.9119C35.516 51.1454 34.8907 51.5124 33.5957 52.2464C33.6635 52.4855 33.6991 52.7322 33.7017 52.9804C33.7242 53.1901 33.6892 53.402 33.6003 53.5943C33.5115 53.7865 33.3719 53.9523 33.196 54.0747L36.2711 52.3398C36.8342 52.0216 37.245 51.4983 37.4135 50.8848C37.582 50.2712 37.4943 49.6174 37.1698 49.0669C37.1288 49.0002 37.0878 48.9401 37.0433 48.8801C37.0256 48.8535 37.005 48.8289 36.9818 48.8067Z" fill="black"/>
<g style="mix-blend-mode:hard-light" opacity="0.7">
<path d="M11.335 62.1853C11.3353 62.0267 11.3479 61.8683 11.3725 61.7115C11.3725 61.6782 11.3999 61.5614 11.4067 61.538C11.5557 60.8846 11.8351 60.2662 12.2291 59.7184C12.6231 59.1705 13.1239 58.7039 13.7028 58.3452L17.8543 56.0098L17.8919 55.9931C18.3397 55.7145 18.8559 55.5584 19.3866 55.5414C19.9173 55.5243 20.443 55.6468 20.9085 55.8961C21.3741 56.1454 21.7625 56.5123 22.0331 56.9584C22.3037 57.4046 22.4465 57.9135 22.4465 58.432C22.4456 58.5886 22.4308 58.7449 22.4021 58.899C22.4021 58.9357 22.3782 59.0258 22.3679 59.0759C22.0686 60.3953 21.2452 61.5448 20.0787 62.272L15.9272 64.6074H15.893C15.4457 64.888 14.9292 65.0457 14.3978 65.0639C13.8665 65.0821 13.3399 64.9602 12.8735 64.711C12.4071 64.4618 12.0181 64.0945 11.7473 63.6477C11.4766 63.2009 11.3341 62.6911 11.335 62.1719V62.1853Z" fill="#FAFAFA"/>
</g>
<path d="M20.2224 57.1743C20.2224 58.5589 19.1632 60.2771 17.8545 61.0144L13.7031 63.3498C12.3978 64.0871 11.3352 63.5633 11.3352 62.1787C11.3352 60.7942 12.3978 59.076 13.7031 58.3387L17.8545 56.0033C19.1632 55.2659 20.2224 55.7897 20.2224 57.1743Z" fill="#E0E0E0"/>
<path d="M19.6071 55.5393C20.3704 55.5695 21.0922 55.8867 21.6214 56.4245C22.1506 56.9624 22.4463 57.6793 22.4465 58.4252C22.4456 58.5819 22.4308 58.7381 22.4021 58.8923C22.4021 58.929 22.3782 59.0191 22.3679 59.0691C22.1047 60.2003 21.4626 61.2135 20.5433 61.9483C21.6846 60.4003 22.3338 59.4161 22.057 57.8814C21.9426 57.2934 21.6465 56.7537 21.2085 56.3349C20.7705 55.9162 20.2116 55.6385 19.6071 55.5393Z" fill="white"/>
<path d="M17.6423 62.7556C17.8183 62.6325 17.9577 62.4661 18.0466 62.2733C18.1354 62.0805 18.1704 61.8682 18.148 61.658C18.1152 61.0707 17.9413 60.4992 17.6403 59.9897C17.3394 59.4803 16.9198 59.0471 16.4156 58.7254C16.2399 58.602 16.0338 58.5262 15.8184 58.5057C15.603 58.4851 15.3858 58.5207 15.189 58.6086L12.9612 59.8697C12.6821 60.0272 12.4375 60.2369 12.2414 60.4867C12.0453 60.7365 11.9014 61.0216 11.8182 61.3256C11.7349 61.6297 11.7137 61.9468 11.756 62.2589C11.7982 62.5709 11.9029 62.8718 12.0643 63.1443C12.2256 63.4168 12.4403 63.6556 12.6961 63.8471C12.9519 64.0386 13.2439 64.179 13.5553 64.2604C13.8667 64.3417 14.1915 64.3623 14.5111 64.3211C14.8307 64.2799 15.1388 64.1776 15.4179 64.0201L17.6423 62.7556Z" fill="#F5F5F5"/>
<path d="M20.7177 61.0177C21.2814 60.6996 21.6925 60.1759 21.8607 59.5618C22.0289 58.9477 21.9404 58.2935 21.6146 57.7431C21.2889 57.1927 20.7525 56.7913 20.1236 56.627C19.4947 56.4628 18.8247 56.5492 18.261 56.8673L15.1859 58.6089C15.3827 58.5209 15.5999 58.4854 15.8153 58.5059C16.0307 58.5264 16.2368 58.6022 16.4125 58.7257C16.9167 59.0474 17.3363 59.4805 17.6372 59.99C17.9382 60.4995 18.1121 61.071 18.1448 61.6583C18.1672 61.8685 18.1323 62.0808 18.0435 62.2736C17.9546 62.4664 17.8151 62.6328 17.6391 62.7559L20.7177 61.0177Z" fill="#006466"/>
<path opacity="0.4" d="M20.1538 57.5012C20.2781 57.712 20.3119 57.9622 20.2479 58.1972C20.1838 58.4323 20.0272 58.633 19.8121 58.7557L16.1015 60.8575C15.7891 60.3529 15.6138 59.7787 15.5923 59.1894C15.5923 59.1327 15.5923 59.0793 15.5923 59.0259L18.8657 57.1709C18.9724 57.1098 19.0904 57.0698 19.213 57.0533C19.3356 57.0368 19.4603 57.0441 19.58 57.0748C19.6997 57.1055 19.812 57.1589 19.9105 57.2321C20.009 57.3053 20.0917 57.3968 20.1538 57.5012Z" fill="white"/>
<path d="M17.6423 62.7556C17.8183 62.6325 17.9577 62.4661 18.0466 62.2733C18.1354 62.0805 18.1704 61.8682 18.148 61.658C18.1152 61.0707 17.9413 60.4992 17.6403 59.9897C17.3394 59.4803 16.9198 59.0471 16.4156 58.7254C16.2399 58.602 16.0338 58.5262 15.8184 58.5057C15.603 58.4851 15.3858 58.5207 15.189 58.6086L12.9612 59.8697C12.6821 60.0272 12.4375 60.2369 12.2414 60.4867C12.0453 60.7365 11.9014 61.0216 11.8182 61.3256C11.7349 61.6297 11.7137 61.9468 11.756 62.2589C11.7982 62.5709 11.9029 62.8718 12.0643 63.1443C12.2256 63.4168 12.4403 63.6556 12.6961 63.8471C12.9519 64.0386 13.2439 64.179 13.5553 64.2604C13.8667 64.3417 14.1915 64.3623 14.5111 64.3211C14.8307 64.2799 15.1388 64.1776 15.4179 64.0201L17.6423 62.7556Z" fill="#F5F5F5"/>
<path opacity="0.1" d="M16.409 58.7258C16.9132 59.0476 17.3328 59.4807 17.6337 59.9902C17.9347 60.4997 18.1086 61.0712 18.1413 61.6584C18.1637 61.8687 18.1288 62.081 18.0399 62.2738C17.9511 62.4666 17.8116 62.633 17.6356 62.7561L17.8099 62.656L17.9432 62.5826C18.1197 62.46 18.2596 62.2936 18.3484 62.1007C18.4373 61.9078 18.472 61.6953 18.4488 61.4849C18.4161 60.8977 18.2422 60.3262 17.9412 59.8167C17.6403 59.3072 17.2207 58.8741 16.7165 58.5524C16.5412 58.428 16.3351 58.3516 16.1194 58.331C15.9038 58.3105 15.6864 58.3466 15.4899 58.4356L15.1823 58.6091C15.3792 58.5211 15.5963 58.4856 15.8118 58.5061C16.0272 58.5266 16.2333 58.6024 16.409 58.7258Z" fill="black"/>
<path d="M11.7448 61.6914C11.6872 62.1952 11.7961 62.7037 12.0557 63.1427C12.3816 63.6934 12.9181 64.0952 13.5473 64.2598C14.1765 64.4243 14.8469 64.3381 15.4111 64.0201L17.6423 62.7557C17.8183 62.6326 17.9577 62.4662 18.0466 62.2734C18.1354 62.0806 18.1704 61.8683 18.148 61.6581C18.1454 61.4099 18.1098 61.1632 18.042 60.9241L14.3211 63.0259C13.091 63.7165 11.7585 62.4754 11.7448 61.6914Z" fill="#E0E0E0"/>
<path d="M12.5922 61.7817C12.6538 61.8859 12.7358 61.9772 12.8336 62.0504C12.9313 62.1236 13.0429 62.1772 13.162 62.2082C13.281 62.2392 13.4051 62.247 13.5272 62.231C13.6494 62.2151 13.767 62.1758 13.8736 62.1153L17.6423 60.0001C17.3501 59.4829 16.928 59.0466 16.4157 58.7323L16.2653 58.6589L12.9408 60.5373C12.7266 60.6581 12.5699 60.8566 12.5047 61.0896C12.4394 61.3225 12.4709 61.5712 12.5922 61.7817Z" fill="white"/>
<path opacity="0.1" d="M21.4318 57.4942C21.4041 57.4572 21.3745 57.4216 21.343 57.3875C21.3225 57.3641 21.302 57.3374 21.2781 57.3141L21.1995 57.2373L21.1141 57.1573L21.0697 57.1206C20.9404 57.0125 20.7995 56.9186 20.6494 56.8403C20.5968 56.8097 20.542 56.7829 20.4854 56.7603C21.1688 57.1673 21.6095 58.9122 20.3863 59.6028C19.9694 59.8396 19.3407 60.2033 18.0492 60.9373C18.1169 61.1764 18.1525 61.4232 18.1551 61.6713C18.1775 61.8815 18.1425 62.0938 18.0537 62.2866C17.9649 62.4794 17.8254 62.6458 17.6494 62.7689L20.7246 61.0307C21.0038 60.8735 21.2485 60.6641 21.4446 60.4144C21.6408 60.1647 21.7846 59.8797 21.8677 59.5756C21.9509 59.2716 21.9718 58.9545 21.9292 58.6426C21.8867 58.3307 21.7815 58.03 21.6198 57.7578C21.582 57.6936 21.5409 57.6312 21.4968 57.571L21.4318 57.4942Z" fill="black"/>
<path d="M59.5988 23.0525H11.4023C9.52379 23.0525 8.00105 24.5481 8.00105 26.3932C8.00105 28.2382 9.52379 29.7338 11.4023 29.7338H59.5988C61.4773 29.7338 63 28.2382 63 26.3932C63 24.5481 61.4773 23.0525 59.5988 23.0525Z" fill="#006466"/>
<path d="M18.4387 19.6838H8.43234C8.19307 19.6838 7.99996 19.8735 7.99996 20.1075C7.99996 20.3415 8.19307 20.5311 8.43234 20.5311H18.4387C18.678 20.5311 18.8711 20.3415 18.8711 20.1075C18.8711 19.8735 18.678 19.6838 18.4387 19.6838Z" fill="#DFDFE0"/>
<path d="M62.5676 10H52.5612C52.322 10 52.1289 10.1897 52.1289 10.4236C52.1289 10.6576 52.322 10.8473 52.5612 10.8473H62.5676C62.8069 10.8483 63 10.6586 63 10.4236C63 10.1897 62.8069 10 62.5676 10Z" fill="#DFDFE0"/>
<path d="M62.5676 13.7014H33.197C32.9577 13.7014 32.7646 13.8911 32.7646 14.1261C32.7646 14.3601 32.9577 14.5497 33.197 14.5497H62.5676C62.8069 14.5497 63 14.3601 63 14.1261C63 13.8921 62.8069 13.7014 62.5676 13.7014Z" fill="#DFDFE0"/>
<path d="M38.4673 36.8903C38.4673 39.1126 36.6329 40.9143 34.3703 40.9143C33.685 40.9143 33.0396 40.7494 32.4729 40.4577L28.5029 46.6422C28.2594 47.0205 27.7399 47.1153 27.3747 46.8473C27.0337 46.5968 26.9602 46.1248 27.2089 45.7846L31.5756 39.832C30.7749 39.0971 30.2733 38.0509 30.2733 36.8903C30.2733 34.668 32.1077 32.8662 34.3703 32.8662C36.6329 32.8662 38.4673 34.668 38.4673 36.8903ZM37.9048 36.8903C37.9048 34.9731 36.3222 33.4177 34.3692 33.4177C32.4162 33.4177 30.8337 34.972 30.8337 36.8903C30.8337 38.8075 32.4162 40.3629 34.3692 40.3629C36.3212 40.3629 37.9048 38.8085 37.9048 36.8903Z" fill="#484662"/>
</svg>
