<svg width="24" height="24" viewBox="0 0 24 24" fill="none" xmlns="http://www.w3.org/2000/svg">
<path d="M5 9L9.5 12L14 9" stroke="#006466" stroke-width="1.5" stroke-linecap="round" stroke-linejoin="round"/>
<path d="M17 19H3C2.46957 19 1.96086 18.7893 1.58579 18.4142C1.21071 18.0391 1 17.5304 1 17V7C1 6.46957 1.21071 5.96086 1.58579 5.58579C1.96086 5.21071 2.46957 5 3 5H16C16.5304 5 17.0391 5.21071 17.4142 5.58579C17.7893 5.96086 18 6.46957 18 7V9" stroke="#006466" stroke-width="1.5" stroke-linecap="round"/>
<path d="M17 14H23M23 14L20 11M23 14L20 17" stroke="#006466" stroke-width="1.5" stroke-linecap="round" stroke-linejoin="round"/>
</svg>
