<svg width="24" height="24" viewBox="0 0 24 24" fill="none" xmlns="http://www.w3.org/2000/svg">
<path d="M10.5 4.49995C10.5 3.62474 10.1523 2.78537 9.53347 2.1665C8.9146 1.54763 8.07523 1.19995 7.20001 1.19995C6.3248 1.19995 5.48543 1.54763 4.86656 2.1665C4.24769 2.78537 3.90001 3.62474 3.90001 4.49995C3.90001 5.37517 4.24769 6.21453 4.86656 6.8334C5.48543 7.45227 6.3248 7.79995 7.20001 7.79995C8.07523 7.79995 8.9146 7.45227 9.53347 6.8334C10.1523 6.21453 10.5 5.37517 10.5 4.49995ZM5.10001 4.49995C5.10001 4.22418 5.15433 3.9511 5.25987 3.69632C5.3654 3.44153 5.52009 3.21003 5.71509 3.01503C5.91009 2.82002 6.14159 2.66534 6.39638 2.5598C6.65116 2.45427 6.92424 2.39995 7.20001 2.39995C7.47579 2.39995 7.74886 2.45427 8.00365 2.5598C8.25843 2.66534 8.48993 2.82002 8.68494 3.01503C8.87994 3.21003 9.03463 3.44153 9.14016 3.69632C9.24569 3.9511 9.30001 4.22418 9.30001 4.49995C9.30001 5.05691 9.07876 5.59105 8.68494 5.98488C8.29111 6.3787 7.75697 6.59995 7.20001 6.59995C6.64306 6.59995 6.10891 6.3787 5.71509 5.98488C5.32126 5.59105 5.10001 5.05691 5.10001 4.49995ZM3.00001 8.99995H8.01961C7.82281 9.37195 7.67641 9.77515 7.59001 10.2H3.00001C2.84088 10.2 2.68827 10.2632 2.57575 10.3757C2.46323 10.4882 2.40001 10.6408 2.40001 10.8V11.4C2.40001 12.912 3.71881 14.5368 6.11521 14.916C5.72881 15.18 5.40721 15.5316 5.17801 15.9408C2.64601 15.2556 1.20001 13.3044 1.20001 11.4V10.8C1.20001 10.3226 1.38965 9.86472 1.72722 9.52716C2.06479 9.18959 2.52262 8.99995 3.00001 8.99995ZM9.45481 8.99995C10.0596 8.26795 10.9752 7.79995 12 7.79995C12.7187 7.7987 13.418 8.03258 13.9913 8.46591C14.5646 8.89924 14.9804 9.50823 15.1752 10.2C15.3489 10.8173 15.3391 11.472 15.147 12.0839C14.955 12.6958 14.5889 13.2386 14.0936 13.646C13.5983 14.0534 12.9951 14.3078 12.3576 14.3782C11.7201 14.4486 11.0759 14.3319 10.5036 14.0424C10.063 13.8181 9.67839 13.4977 9.37822 13.1048C9.07806 12.712 8.87001 12.2567 8.76944 11.7726C8.66887 11.2885 8.67835 10.7881 8.79719 10.3082C8.91603 9.82824 9.13998 9.38116 9.45481 8.99995ZM10.104 10.2C9.98582 10.4493 9.91789 10.7194 9.90411 10.9949C9.89032 11.2705 9.93093 11.5461 10.0236 11.8059C10.2109 12.3307 10.5989 12.7597 11.1024 12.9984C11.6059 13.237 12.1836 13.266 12.7084 13.0787C13.2332 12.8915 13.6621 12.5034 13.9008 12C14.1395 11.4963 14.1684 10.9185 13.981 10.3936C13.7937 9.86864 13.4055 9.43965 12.9018 9.20095C12.3982 8.96226 11.8203 8.93341 11.2954 9.12076C10.7705 9.30811 10.3415 9.69631 10.1028 10.2M18.822 15.9408C18.5934 15.5313 18.2725 15.1808 17.8848 14.9172C20.28 14.5368 21.6 12.9108 21.6 11.4V10.8C21.6 10.6408 21.5368 10.4882 21.4243 10.3757C21.3118 10.2632 21.1591 10.2 21 10.2H16.41C16.3252 9.78155 16.181 9.37745 15.9816 8.99995H21C21.4774 8.99995 21.9352 9.18959 22.2728 9.52716C22.6104 9.86472 22.8 10.3226 22.8 10.8V11.4C22.8 13.3044 21.3528 15.2544 18.822 15.9408ZM17.3844 16.0452C17.0569 15.7576 16.6358 15.5994 16.2 15.6H7.80001C7.56346 15.5993 7.32911 15.6454 7.11043 15.7357C6.89176 15.8259 6.69308 15.9585 6.52581 16.1257C6.35854 16.293 6.22597 16.4917 6.13574 16.7104C6.04551 16.929 5.99938 17.1634 6.00001 17.4V18C6.00001 20.3652 8.23201 22.8 12 22.8C15.768 22.8 18 20.3652 18 18V17.4C18 16.86 17.7624 16.3752 17.3844 16.044M7.20001 17.4C7.20001 17.2408 7.26323 17.0882 7.37575 16.9757C7.48827 16.8632 7.64088 16.8 7.80001 16.8H16.2C16.3591 16.8 16.5118 16.8632 16.6243 16.9757C16.7368 17.0882 16.8 17.2408 16.8 17.4V18C16.8 19.7256 15.0816 21.6 12 21.6C8.91841 21.6 7.20001 19.7256 7.20001 18V17.4ZM16.8 1.19995C17.6752 1.19995 18.5146 1.54763 19.1335 2.1665C19.7523 2.78537 20.1 3.62474 20.1 4.49995C20.1 5.37517 19.7523 6.21453 19.1335 6.8334C18.5146 7.45227 17.6752 7.79995 16.8 7.79995C15.9248 7.79995 15.0854 7.45227 14.4666 6.8334C13.8477 6.21453 13.5 5.37517 13.5 4.49995C13.5 3.62474 13.8477 2.78537 14.4666 2.1665C15.0854 1.54763 15.9248 1.19995 16.8 1.19995ZM16.8 2.39995C16.2431 2.39995 15.7089 2.6212 15.3151 3.01503C14.9213 3.40885 14.7 3.943 14.7 4.49995C14.7 5.05691 14.9213 5.59105 15.3151 5.98488C15.7089 6.3787 16.2431 6.59995 16.8 6.59995C17.357 6.59995 17.8911 6.3787 18.2849 5.98488C18.6788 5.59105 18.9 5.05691 18.9 4.49995C18.9 3.943 18.6788 3.40885 18.2849 3.01503C17.8911 2.6212 17.357 2.39995 16.8 2.39995Z" fill="#BBBFC0"/>
</svg>
