<svg width="190" height="190" viewBox="0 0 190 190" fill="none" xmlns="http://www.w3.org/2000/svg">
<g clip-path="url(#clip0_992_9179)">
<path d="M121.185 42.5911H111.076V131.041C111.076 132.428 110.809 133.803 110.292 135.085C109.774 136.367 109.016 137.532 108.059 138.513C107.103 139.494 105.968 140.273 104.719 140.804C103.469 141.335 102.13 141.608 100.778 141.608H23.4872V141.709C23.4872 143.097 23.7535 144.471 24.271 145.753C24.7885 147.035 25.547 148.2 26.5032 149.182C27.4594 150.163 28.5946 150.941 29.8439 151.472C31.0933 152.004 32.4323 152.277 33.7846 152.277H121.185C122.537 152.277 123.876 152.004 125.126 151.472C126.375 150.941 127.51 150.163 128.466 149.182C129.423 148.2 130.181 147.035 130.699 145.753C131.216 144.471 131.482 143.097 131.482 141.709V53.1587C131.482 50.356 130.397 47.6681 128.466 45.6863C126.535 43.7045 123.916 42.5911 121.185 42.5911Z" fill="#F2F2F2"/>
<path d="M169.108 183.151C169.287 183.16 169.465 183.111 169.616 183.013C169.767 182.915 169.886 182.771 169.955 182.601C170.024 182.432 170.04 182.244 170.002 182.065C169.964 181.885 169.873 181.722 169.742 181.597L169.682 181.353C169.69 181.333 169.698 181.314 169.706 181.294C169.886 180.857 170.188 180.484 170.574 180.223C170.96 179.962 171.413 179.823 171.875 179.825C172.338 179.827 172.789 179.969 173.173 180.233C173.557 180.497 173.857 180.872 174.034 181.311C174.742 183.06 175.643 184.813 175.865 186.663C175.963 187.481 175.922 188.31 175.743 189.113C177.406 185.391 178.269 181.345 178.275 177.251C178.275 176.223 178.22 175.197 178.108 174.175C178.016 173.338 177.889 172.507 177.725 171.682C176.834 167.205 174.921 163.008 172.142 159.437C170.797 158.684 169.71 157.526 169.026 156.119C168.778 155.613 168.603 155.074 168.506 154.516C168.658 154.537 169.078 152.166 168.964 152.02C169.175 151.691 169.554 151.528 169.785 151.206C170.933 149.609 172.515 149.888 173.341 152.059C175.105 152.973 175.122 154.488 174.04 155.946C173.351 156.873 173.256 158.128 172.652 159.12C172.714 159.202 172.779 159.281 172.841 159.363C173.978 160.863 174.968 162.473 175.798 164.171C175.597 162.269 175.838 160.345 176.502 158.556C177.175 156.89 178.436 155.487 179.547 154.046C179.841 153.659 180.24 153.37 180.694 153.216C181.148 153.062 181.636 153.049 182.097 153.179C182.558 153.31 182.971 153.577 183.284 153.948C183.596 154.32 183.795 154.777 183.854 155.264C183.856 155.286 183.858 155.307 183.86 155.328C183.695 155.424 183.534 155.525 183.376 155.632C183.177 155.768 183.023 155.963 182.934 156.19C182.845 156.418 182.825 156.667 182.877 156.907C182.929 157.146 183.05 157.364 183.224 157.531C183.398 157.699 183.618 157.808 183.854 157.846L183.878 157.85C183.819 158.46 183.715 159.065 183.567 159.659C184.992 165.316 181.915 167.376 177.521 167.468C177.424 167.519 177.33 167.571 177.233 167.619C178.067 170.045 178.59 172.573 178.79 175.138C178.902 176.651 178.896 178.171 178.77 179.683L178.777 179.629C179.096 177.948 179.97 176.431 181.252 175.334C183.156 173.729 185.846 173.138 187.901 171.847C188.119 171.703 188.373 171.627 188.632 171.626C188.892 171.625 189.146 171.701 189.365 171.844C189.584 171.986 189.759 172.19 189.868 172.432C189.978 172.673 190.018 172.941 189.984 173.205L189.976 173.262C189.669 173.39 189.371 173.537 189.083 173.703C188.918 173.799 188.756 173.9 188.598 174.008C188.4 174.144 188.246 174.338 188.157 174.566C188.068 174.793 188.048 175.043 188.1 175.282C188.151 175.521 188.272 175.739 188.446 175.906C188.621 176.074 188.84 176.184 189.076 176.221L189.1 176.225C189.118 176.227 189.133 176.23 189.15 176.232C188.627 177.515 187.892 178.695 186.979 179.721C186.088 184.659 182.26 185.128 178.165 183.69H178.163C177.714 185.693 177.063 187.643 176.221 189.509H169.282C169.257 189.429 169.235 189.348 169.213 189.269C169.855 189.31 170.5 189.271 171.133 189.151C170.618 188.503 170.103 187.85 169.588 187.202C169.577 187.189 169.566 187.177 169.556 187.163C169.295 186.831 169.031 186.502 168.77 186.17L168.77 186.17C168.756 185.153 168.87 184.138 169.108 183.151Z" fill="#F2F2F2"/>
<path d="M92.6874 30.5595C92.9407 30.9534 93.2744 31.2861 93.6653 31.5346C94.0563 31.7831 94.4951 31.9415 94.9516 31.9988C95.408 32.0562 95.8712 32.0111 96.309 31.8667C96.7468 31.7222 97.1488 31.4819 97.4872 31.1624L111.913 37.8413L114.694 34.2008L97.504 26.3967C96.9375 25.8522 96.196 25.5398 95.4201 25.5188C94.6442 25.4977 93.8877 25.7695 93.294 26.2827C92.7003 26.7958 92.3106 27.5146 92.1988 28.3028C92.087 29.0911 92.2609 29.894 92.6874 30.5595Z" fill="#A0616A"/>
<path d="M154.595 34.7242L156.026 43.0442C156.092 43.4324 156.079 43.8306 155.987 44.2132C155.895 44.5959 155.726 44.9546 155.491 45.2662C155.256 45.5779 154.96 45.8357 154.622 46.023C154.284 46.2103 153.911 46.323 153.529 46.3539L129.218 48.3158L100.642 35.1912L104.055 28.5422L128.862 36.6038L154.595 34.7242Z" fill="#006466"/>
<path d="M97.6978 28.7614H10.2974C4.61031 28.7614 0 33.4927 0 39.3289V127.88C0 133.716 4.61031 138.447 10.2974 138.447H97.6978C103.385 138.447 107.995 133.716 107.995 127.88V39.3289C107.995 33.4927 103.385 28.7614 97.6978 28.7614Z" fill="#F2F2F2"/>
<path d="M10.2975 30.9346C9.22336 30.9346 8.1597 31.1517 7.16729 31.5736C6.17487 31.9955 5.27315 32.6138 4.51359 33.3933C3.75403 34.1727 3.15151 35.0981 2.74044 36.1166C2.32937 37.135 2.1178 38.2266 2.1178 39.3289V127.88C2.1178 130.106 2.97959 132.241 4.51359 133.815C6.04759 135.39 8.12814 136.274 10.2975 136.274H66.0786C71.305 136.274 76.4803 135.218 81.309 133.165C86.1376 131.112 90.525 128.104 94.2207 124.311C97.9163 120.519 100.848 116.016 102.848 111.061C104.848 106.106 105.877 100.795 105.877 95.4311V39.3289C105.877 38.2266 105.666 37.135 105.255 36.1166C104.844 35.0981 104.241 34.1727 103.482 33.3933C102.722 32.6138 101.82 31.9955 100.828 31.5736C99.8356 31.1517 98.7719 30.9346 97.6977 30.9346H10.2975Z" fill="white"/>
<path d="M78.43 57.8082H29.3741C28.9239 57.8082 28.4922 57.6247 28.1739 57.2981C27.8556 56.9714 27.6768 56.5284 27.6768 56.0665C27.6768 55.6045 27.8556 55.1615 28.1739 54.8349C28.4922 54.5082 28.9239 54.3247 29.3741 54.3247H78.43C78.8802 54.3247 79.3119 54.5082 79.6302 54.8349C79.9485 55.1615 80.1273 55.6045 80.1273 56.0665C80.1273 56.5284 79.9485 56.9714 79.6302 57.2981C79.3119 57.6247 78.8802 57.8082 78.43 57.8082Z" fill="#F2F2F2"/>
<path d="M78.43 94.9509H29.3741C28.9239 94.9509 28.4922 94.7674 28.1739 94.4408C27.8556 94.1141 27.6768 93.6711 27.6768 93.2092C27.6768 92.7472 27.8556 92.3042 28.1739 91.9776C28.4922 91.6509 28.9239 91.4674 29.3741 91.4674H78.43C78.8802 91.4674 79.3119 91.6509 79.6302 91.9776C79.9485 92.3042 80.1273 92.7472 80.1273 93.2092C80.1273 93.6711 79.9485 94.1141 79.6302 94.4408C79.3119 94.7674 78.8802 94.9509 78.43 94.9509Z" fill="#F2F2F2"/>
<path d="M98.3506 76.3918H9.45347C9.00333 76.3918 8.57163 76.2083 8.25334 75.8817C7.93504 75.555 7.75623 75.112 7.75623 74.65C7.75623 74.1881 7.93504 73.7451 8.25334 73.4184C8.57163 73.0918 9.00333 72.9083 9.45347 72.9083H98.3506C98.8008 72.9083 99.2325 73.0918 99.5508 73.4184C99.8691 73.7451 100.048 74.1881 100.048 74.65C100.048 75.112 99.8691 75.555 99.5508 75.8817C99.2325 76.2083 98.8008 76.3918 98.3506 76.3918Z" fill="#F2F2F2"/>
<path d="M151.523 71.3958L142.668 90.7574L176.734 87.2166L169.623 68.6298L151.523 71.3958Z" fill="#A0616A"/>
<path d="M159.444 182.679L156.213 182.651L154.784 169.568L159.551 169.609L159.444 182.679Z" fill="#A0616A"/>
<path d="M149.098 187.95C149.095 188.343 149.244 188.721 149.512 189.001C149.781 189.281 150.146 189.441 150.529 189.444L156.951 189.499L158.075 187.161L158.488 189.511L160.911 189.534L160.3 181.15L159.456 181.093L156.018 180.85L154.909 180.773L154.889 183.145L149.73 186.736C149.537 186.871 149.379 187.052 149.268 187.263C149.158 187.474 149.1 187.71 149.098 187.95Z" fill="#2F2E41"/>
<path d="M123.699 182.694L120.619 181.693L122.998 168.756L127.543 170.233L123.699 182.694Z" fill="#A0616A"/>
<path d="M112.3 184.612C112.185 184.987 112.22 185.394 112.396 185.742C112.572 186.091 112.876 186.354 113.241 186.473L119.364 188.462L121.108 186.566L120.83 188.937L123.139 189.689L124.955 181.491L124.165 181.182L120.948 179.913L119.909 179.505L119.212 181.767L113.253 183.643C113.029 183.714 112.826 183.839 112.66 184.008C112.494 184.176 112.371 184.384 112.3 184.612Z" fill="#2F2E41"/>
<path d="M175.183 81.7718L144.208 87.5964C144.208 87.5964 139.24 91.4102 140.569 92.7761C141.898 94.1419 142.104 93.9303 141.231 94.8264C140.357 95.7225 138.47 96.9203 138.451 97.7044C138.432 98.4884 124.571 133.655 124.571 133.655C124.571 133.655 126.111 132.865 124.956 134.051C123.801 135.236 123.801 136.215 123.801 136.215L118.41 173.564L127.165 174.093L135.737 140.043L154.858 108.233C154.858 108.233 156.755 136.599 156.834 138.486C156.914 140.373 158.069 138.002 156.914 140.373C155.759 142.744 154.989 141.163 155.759 142.744C156.529 144.324 152.985 176.502 152.985 176.502H160.975L178.113 109.806C178.113 109.806 184.211 90.739 175.183 81.7718Z" fill="#2F2E41"/>
<path d="M166.058 28.4239L153.65 27.1008L150.436 31.3838L146.691 33.4307C145.106 34.2969 143.798 35.6133 142.923 37.2223C142.048 38.8313 141.643 40.665 141.757 42.5039L146.133 68.6299C146.133 68.6299 142.436 77.1724 144.978 79.2985C147.52 81.4247 143.013 86.6904 148.443 84.0401C153.874 81.3899 177.321 84.4353 177.321 84.4353L172.315 69.8153L176.055 55.4491L176.466 43.4033C176.543 41.1524 175.892 38.9386 174.615 37.1069C173.338 35.2753 171.506 33.9288 169.405 33.2773L168.882 33.1151L166.058 28.4239Z" fill="#006466"/>
<path d="M183.14 18.6623C183.221 22.2513 181.914 25.7265 180.036 28.7789C179.479 26.997 178.476 25.3752 177.43 23.8291C177.957 27.1736 177.395 30.6033 175.832 33.5872C175.777 33.6277 175.72 33.6652 175.661 33.6998C174.13 34.6446 172.19 35.0272 170.534 34.3449C173.955 30.5608 174.39 24.2911 171.523 20.0466C170.711 18.8423 169.66 17.7771 169.158 16.4065C168.364 14.2196 169.127 11.8118 169.608 9.53173C170.059 7.40969 170.137 4.88444 168.75 3.32925C168.898 3.11192 169.1 2.93892 169.335 2.82798C169.57 2.71705 169.829 2.67217 170.086 2.69793C170.942 2.82192 171.564 3.58487 171.961 4.37067C172.357 5.15644 172.619 6.02734 173.171 6.70605C174.195 7.97641 175.938 8.27675 177.406 8.94626C180.963 10.5721 183.055 14.6687 183.14 18.6623Z" fill="#2F2E41"/>
<path d="M91.504 189.53C91.5039 189.592 91.5156 189.653 91.5385 189.71C91.5615 189.767 91.5953 189.819 91.6378 189.863C91.6804 189.906 91.731 189.941 91.7867 189.965C91.8423 189.988 91.902 190 91.9622 190H189.488C189.609 190 189.726 189.95 189.812 189.862C189.898 189.774 189.946 189.654 189.946 189.53C189.946 189.405 189.898 189.285 189.812 189.197C189.726 189.109 189.609 189.06 189.488 189.06H91.9622C91.902 189.059 91.8423 189.071 91.7867 189.095C91.731 189.119 91.6804 189.153 91.6378 189.197C91.5953 189.241 91.5615 189.292 91.5386 189.35C91.5156 189.407 91.5039 189.468 91.504 189.53Z" fill="#CCCCCC"/>
<path d="M183.908 101.845C185.822 101.845 187.373 100.253 187.373 98.289C187.373 96.325 185.822 94.7328 183.908 94.7328C181.994 94.7328 180.442 96.325 180.442 98.289C180.442 100.253 181.994 101.845 183.908 101.845Z" fill="#006466"/>
<path d="M153.2 16.6102C153.403 15.8802 152.003 20.3428 152.679 20.4234C155.758 20.7859 159.984 22.673 162.129 23.5533C162.225 23.5418 162.322 23.5303 162.416 23.5159C162.646 23.49 162.87 23.4526 163.092 23.4095C168.085 22.4399 170.005 14.5683 170.005 14.4964C170.005 14.1425 169.178 4.4232 167.874 4.27937C167.531 4.24124 167.187 4.22203 166.843 4.22183H163.608C162.938 4.07378 162.26 3.97285 161.577 3.91974H161.571C155.058 3.4105 149.923 7.48435 150.403 12.4415C150.406 12.4472 150.411 12.453 150.414 12.4587C150.553 12.6716 150.675 12.873 150.783 13.0658C150.888 13.247 150.976 13.4196 151.053 13.5836C151.647 14.8495 150.121 16.4424 151.133 16.7397C152.478 17.1352 147.593 30.1323 152.92 30.1323C150.329 30.8882 152.64 18.6242 153.2 16.6102Z" fill="#2F2E41"/>
<path d="M159.014 24.2364C163.245 24.2364 166.674 20.7171 166.674 16.3758C166.674 12.0345 163.245 8.51514 159.014 8.51514C154.784 8.51514 151.355 12.0345 151.355 16.3758C151.355 20.7171 154.784 24.2364 159.014 24.2364Z" fill="#A0616A"/>
<path d="M150.403 12.8701C150.531 12.9392 150.656 13.0024 150.783 13.0657C150.917 13.1319 151.05 13.1981 151.184 13.2585C153.749 14.4525 155.836 14.5848 157.103 12.8701C157.137 11.9679 157.335 11.08 157.685 10.252C157.623 11.1773 157.861 12.0977 158.361 12.8701H160.912C163.539 14.6596 164.889 14.8466 163.065 20.7215C162.557 22.3585 160.535 31.8843 161.33 33.297C161.56 33.2711 164.008 22.8373 164.23 22.7942C169.223 21.8246 172.396 13.3822 171.99 12.9046C171.992 11.5465 171.687 10.2063 171.101 8.98901C170.358 7.44672 169.201 6.15484 167.766 5.26615C166.91 4.84047 166.019 4.49665 165.102 4.23905C165.079 4.23329 165.059 4.22753 165.036 4.22179C164.755 4.1441 164.468 4.07218 164.181 4.01176C163.589 3.88334 162.989 3.79016 162.386 3.73269C162.344 3.72981 162.301 3.72693 162.261 3.72693C162.02 3.72751 161.784 3.79406 161.577 3.9197C161.574 3.9197 161.574 3.92257 161.571 3.92257C161.423 4.01144 161.293 4.12979 161.19 4.27068C161.009 4.50774 160.911 4.80072 160.912 5.10214H158.072C157.967 5.10214 157.862 5.10502 157.756 5.11076C155.861 5.17725 154.057 5.96731 152.699 7.32634C151.341 8.68537 150.526 10.5155 150.414 12.4587C150.406 12.5968 150.403 12.732 150.403 12.8701Z" fill="#2F2E41"/>
<path d="M167.15 10.3573C169.937 10.3573 172.197 8.03872 172.197 5.17864C172.197 2.31855 169.937 0 167.15 0C164.363 0 162.104 2.31855 162.104 5.17864C162.104 8.03872 164.363 10.3573 167.15 10.3573Z" fill="#2F2E41"/>
<path d="M183.947 99.7554C184.193 99.3568 184.352 98.9082 184.413 98.4404C184.473 97.9726 184.434 97.4968 184.298 97.0461C184.162 96.5953 183.932 96.1802 183.624 95.8296C183.317 95.4789 182.938 95.2011 182.516 95.0153L182.541 78.7747L178.165 77.6631L178.273 96.9526C178.021 97.706 178.047 98.5281 178.346 99.2631C178.646 99.998 179.197 100.595 179.897 100.94C180.596 101.286 181.394 101.356 182.141 101.138C182.887 100.919 183.53 100.427 183.947 99.7554Z" fill="#A0616A"/>
<path d="M162.278 40.0972L169.087 35.3483C169.405 35.1267 169.764 34.9758 170.142 34.9052C170.52 34.8346 170.908 34.8458 171.282 34.9382C171.655 35.0306 172.005 35.2021 172.31 35.4416C172.615 35.6812 172.868 35.9836 173.052 36.3294L184.759 58.2825L184.804 90.4111L177.495 89.941L174.495 63.4158L162.278 40.0972Z" fill="#006466"/>
<path d="M109.984 112.96H37.2119C35.6291 112.96 34.1111 113.606 32.9919 114.754C31.8727 115.903 31.2439 117.461 31.2439 119.085C31.2439 120.709 31.8727 122.267 32.9919 123.416C34.1111 124.564 35.6291 125.209 37.2119 125.209H109.984C111.566 125.209 113.084 124.564 114.204 123.416C115.323 122.267 115.952 120.709 115.952 119.085C115.952 117.461 115.323 115.903 114.204 114.754C113.084 113.606 111.566 112.96 109.984 112.96Z" fill="white"/>
<path d="M109.984 125.605H37.212C35.527 125.605 33.9111 124.918 32.7197 123.695C31.5282 122.472 30.8589 120.814 30.8589 119.085C30.8589 117.356 31.5282 115.697 32.7197 114.475C33.9111 113.252 35.527 112.565 37.212 112.565H109.984C111.669 112.565 113.285 113.252 114.476 114.475C115.667 115.697 116.337 117.356 116.337 119.085C116.337 120.814 115.667 122.472 114.476 123.695C113.285 124.918 111.669 125.605 109.984 125.605ZM37.212 113.355C35.7313 113.355 34.3112 113.959 33.2642 115.034C32.2172 116.108 31.629 117.565 31.629 119.085C31.629 120.604 32.2172 122.062 33.2642 123.136C34.3112 124.211 35.7313 124.814 37.212 124.814H109.984C111.464 124.814 112.884 124.211 113.931 123.136C114.978 122.062 115.567 120.604 115.567 119.085C115.567 117.565 114.978 116.108 113.931 115.034C112.884 113.959 111.464 113.355 109.984 113.355H37.212Z" fill="#006466"/>
<path d="M114.275 139.688H82.1603C81.7102 139.688 81.2785 139.505 80.9602 139.178C80.6419 138.851 80.4631 138.408 80.4631 137.946C80.4631 137.485 80.6419 137.042 80.9602 136.715C81.2785 136.388 81.7102 136.205 82.1603 136.205H114.275C114.725 136.205 115.157 136.388 115.475 136.715C115.793 137.042 115.972 137.485 115.972 137.946C115.972 138.408 115.793 138.851 115.475 139.178C115.157 139.505 114.725 139.688 114.275 139.688Z" fill="#006466"/>
</g>
<defs>
<clipPath id="clip0_992_9179">
<rect width="190" height="190" fill="white"/>
</clipPath>
</defs>
</svg>
