<svg width="375" height="155" viewBox="0 0 375 155" fill="none" xmlns="http://www.w3.org/2000/svg">
<path d="M365.344 -66.7228C358.048 -65.8533 349.162 -63.1822 345.203 -62.5492C324.38 -59.3635 303.51 -56.5973 282.595 -54.2509C248.592 -50.453 214.42 -47.6289 180.248 -47.6289C129.391 -47.6289 79.2968 -59.586 29.0027 -66.3541C17.0397 -67.9609 -18.9943 -76.9966 -24.7492 -58.7027C-32.2147 -34.9623 -31.4893 -6.24154 -32.0031 18.723C-32.5592 45.357 -33.0852 71.9632 -32.9884 98.5763C-32.9522 107.689 -32.0877 117.072 -28.364 125.113C-23.7094 135.185 -15.2465 139.644 -5.84655 141.237C11.164 144.109 28.4163 143.671 45.5356 143.4C68.6999 143.024 91.8401 141.494 114.956 139.832C154.968 136.959 195.62 131.54 235.746 133.738C263.916 135.282 291.681 141.056 319.379 146.843C330.592 149.187 341.618 152.679 352.97 154.133C362.171 155.308 376.213 156.553 383.649 148.659C389.899 142.002 389.941 126.198 390.624 117.378C392.099 98.3746 392.051 79.1903 391.67 60.1382C390.957 24.4268 389.99 -12.7244 383.769 -47.8446C381.66 -59.753 376.775 -68.0931 365.344 -66.7228Z" fill="#006466"/>
<path opacity="0.7" d="M365.344 -66.7228C358.048 -65.8533 349.162 -63.1822 345.203 -62.5492C324.38 -59.3635 303.51 -56.5973 282.595 -54.2509C248.592 -50.453 214.42 -47.6289 180.248 -47.6289C129.391 -47.6289 79.2968 -59.586 29.0027 -66.3541C17.0397 -67.9609 -18.9943 -76.9966 -24.7492 -58.7027C-32.2147 -34.9623 -31.4893 -6.24154 -32.0031 18.7231C-32.5592 45.3571 -33.0852 71.9632 -32.9884 98.5764C-32.9522 107.689 -32.0877 117.072 -28.364 125.113C-23.7094 135.185 -15.2465 139.644 -5.84655 141.237C11.164 144.109 28.4163 143.671 45.5356 143.4C68.6999 143.024 91.8401 141.494 114.956 139.832C154.968 136.959 195.62 131.54 235.746 133.738C263.916 135.282 291.681 141.056 319.379 146.843C330.592 149.187 341.618 152.679 352.97 154.133C362.171 155.308 376.213 156.553 383.649 148.659C389.899 142.002 389.941 126.198 390.624 117.378C392.099 98.3746 392.051 79.1904 391.67 60.1383C390.957 24.4269 389.99 -12.7244 383.769 -47.8446C381.66 -59.753 376.775 -68.0931 365.344 -66.7228Z" fill="white"/>
</svg>
