<svg width="327" height="250" viewBox="0 0 327 250" fill="none" xmlns="http://www.w3.org/2000/svg">
<rect width="323" height="250" rx="12" fill="#EBEDED"/>
<path d="M215.638 165V85L114.399 85L114.399 165H215.638Z" fill="white" stroke="#C7C7C7" stroke-width="0.5" stroke-miterlimit="10"/>
<path d="M118.807 159.811H211.229V90.1886L118.807 90.1886L118.807 159.811Z" fill="#F8F9F9"/>
<path d="M127.768 107.858C126.975 112.776 130.571 117.007 134.75 116.075C137.085 115.554 138.968 113.339 139.411 110.591C140.202 105.673 136.607 101.442 132.428 102.375C130.093 102.895 128.21 105.11 127.768 107.858Z" fill="white"/>
<path d="M149.298 147.099H211.23L180.264 102.188L149.298 147.099Z" fill="#F8F9F9"/>
<g opacity="0.2">
<path d="M149.298 147.099H211.23L180.264 102.188L149.298 147.099Z" fill="black"/>
</g>
<path d="M118.808 147.099H173.729L146.269 117.853L118.808 147.099Z" fill="#F8F9F9"/>
<g opacity="0.1">
<path d="M118.808 147.099H173.729L146.269 117.853L118.808 147.099Z" fill="black"/>
</g>
<path d="M211.23 147.099H118.808V159.812H211.23V147.099Z" fill="#F8F9F9"/>
<g opacity="0.1">
<path d="M211.23 147.099H118.808V159.812H211.23V147.099Z" fill="black"/>
</g>
<rect width="323" height="250" rx="12" fill="#E5EFEF"/>
<path d="M215.638 165V85L114.399 85L114.399 165H215.638Z" fill="white" stroke="#E5EFEF" stroke-width="0.5" stroke-miterlimit="10"/>
<path d="M118.807 159.811H211.229V90.1886L118.807 90.1886L118.807 159.811Z" fill="#F8F9F9"/>
<path d="M127.768 107.858C126.975 112.776 130.571 117.007 134.75 116.075C137.085 115.554 138.968 113.339 139.411 110.591C140.202 105.673 136.607 101.442 132.428 102.375C130.093 102.895 128.21 105.11 127.768 107.858Z" fill="white"/>
<path d="M149.298 147.099H211.23L180.264 102.188L149.298 147.099Z" fill="#F8F9F9"/>
<g opacity="0.2">
<path d="M149.298 147.099H211.23L180.264 102.188L149.298 147.099Z" fill="#006466"/>
</g>
<path d="M118.808 147.099H173.729L146.269 117.853L118.808 147.099Z" fill="#F8F9F9"/>
<g opacity="0.1">
<path d="M118.808 147.099H173.729L146.269 117.853L118.808 147.099Z" fill="#006466"/>
</g>
<path d="M211.23 147.099H118.808V159.812H211.23V147.099Z" fill="#F8F9F9"/>
<g opacity="0.1">
<path d="M211.23 147.099H118.808V159.812H211.23V147.099Z" fill="#006466"/>
</g>
</svg>
