<svg width="95" height="95" viewBox="0 0 95 95" fill="none" xmlns="http://www.w3.org/2000/svg">
<rect x="18" y="17" width="60" height="60" rx="30" fill="#006466"/>
<path d="M33.82 47.996C34.892 46.548 36.212 45.824 37.78 45.824C38.74 45.824 39.532 46.124 40.156 46.724C40.732 47.268 41.02 47.956 41.02 48.788V49.688C41.02 49.752 41.016 49.856 41.008 50C41.008 50.12 41.008 50.212 41.008 50.276H41.404V51.5H41.164L40.768 51.008H40.732C40.468 51.336 40.132 51.5 39.724 51.5H33.82C33.756 52.412 33.416 53.116 32.8 53.612C32.192 54.116 31.4 54.368 30.424 54.368H29.236C28.26 54.368 27.468 54.12 26.86 53.624C26.172 53.072 25.828 52.268 25.828 51.212V49.064L26.572 48.464H27.292V51.08C27.292 51.84 27.48 52.372 27.856 52.676C28.24 52.988 28.9 53.144 29.836 53.144C30.74 53.144 31.376 53.004 31.744 52.724C32.16 52.404 32.368 51.856 32.368 51.08V45.98H33.832L33.82 47.996ZM39.556 48.86C39.548 48.196 39.28 47.708 38.752 47.396C38.408 47.188 38.012 47.084 37.564 47.084C36.988 47.084 36.44 47.256 35.92 47.6C35.064 48.152 34.364 49.044 33.82 50.276H39.256C39.456 50.276 39.556 50.176 39.556 49.976V48.86ZM44.9354 45.98V50.096V50.276H45.5474V51.5H45.1274L44.6834 51.008H44.6594C44.3874 51.336 44.0474 51.5 43.6394 51.5H41.3234V50.276H43.1354C43.2474 50.276 43.3274 50.244 43.3754 50.18C43.4474 50.116 43.4834 50.036 43.4834 49.94V45.98H44.9354ZM42.3314 52.376C42.5474 52.376 42.7314 52.452 42.8834 52.604C43.0354 52.756 43.1114 52.94 43.1114 53.156C43.1114 53.372 43.0354 53.556 42.8834 53.708C42.7314 53.86 42.5474 53.936 42.3314 53.936C42.1154 53.936 41.9314 53.86 41.7794 53.708C41.6274 53.556 41.5514 53.372 41.5514 53.156C41.5514 52.94 41.6274 52.756 41.7794 52.604C41.9314 52.452 42.1154 52.376 42.3314 52.376ZM44.1554 52.376C44.3714 52.376 44.5554 52.452 44.7074 52.604C44.8594 52.756 44.9354 52.94 44.9354 53.156C44.9354 53.372 44.8594 53.556 44.7074 53.708C44.5554 53.86 44.3714 53.936 44.1554 53.936C43.9474 53.936 43.7674 53.86 43.6154 53.708C43.4634 53.556 43.3874 53.372 43.3874 53.156C43.3874 52.94 43.4634 52.756 43.6154 52.604C43.7674 52.452 43.9474 52.376 44.1554 52.376ZM49.2401 43.34C49.4561 43.34 49.6401 43.416 49.7921 43.568C49.9441 43.72 50.0201 43.904 50.0201 44.12C50.0201 44.328 49.9441 44.508 49.7921 44.66C49.6401 44.812 49.4561 44.888 49.2401 44.888C49.0321 44.888 48.8521 44.812 48.7001 44.66C48.5481 44.508 48.4721 44.328 48.4721 44.12C48.4721 43.904 48.5481 43.72 48.7001 43.568C48.8521 43.416 49.0321 43.34 49.2401 43.34ZM47.0441 46.184C47.8041 45.952 48.4961 45.836 49.1201 45.836C50.0881 45.836 50.8681 46.14 51.4601 46.748C51.9961 47.292 52.2641 47.98 52.2641 48.812V50.096V50.276H52.6601V51.5H52.4081L52.0121 51.008H51.9881C51.7161 51.336 51.3761 51.5 50.9681 51.5H45.4481V50.276H50.5001C50.7001 50.276 50.8001 50.176 50.8001 49.976V48.896C50.8001 48.352 50.6161 47.916 50.2481 47.588C49.8881 47.252 49.4121 47.084 48.8201 47.084C48.4281 47.084 47.8361 47.172 47.0441 47.348V46.184ZM60.5774 41.9C60.7774 41.9 60.9454 41.972 61.0814 42.116C61.2174 42.252 61.2854 42.42 61.2854 42.62C61.2854 42.82 61.2174 42.988 61.0814 43.124C60.9454 43.26 60.7774 43.328 60.5774 43.328C60.3774 43.328 60.2054 43.26 60.0614 43.124C59.9254 42.988 59.8574 42.82 59.8574 42.62C59.8574 42.42 59.9254 42.252 60.0614 42.116C60.2054 41.972 60.3774 41.9 60.5774 41.9ZM59.6654 43.34C59.8814 43.34 60.0614 43.416 60.2054 43.568C60.3574 43.72 60.4334 43.904 60.4334 44.12C60.4334 44.336 60.3574 44.52 60.2054 44.672C60.0614 44.816 59.8814 44.888 59.6654 44.888C59.4494 44.888 59.2654 44.816 59.1134 44.672C58.9694 44.52 58.8974 44.336 58.8974 44.12C58.8974 43.904 58.9694 43.72 59.1134 43.568C59.2654 43.416 59.4494 43.34 59.6654 43.34ZM61.4774 43.34C61.6934 43.34 61.8774 43.416 62.0294 43.568C62.1814 43.72 62.2574 43.904 62.2574 44.12C62.2574 44.328 62.1814 44.508 62.0294 44.66C61.8774 44.812 61.6934 44.888 61.4774 44.888C61.2694 44.888 61.0894 44.812 60.9374 44.66C60.7854 44.508 60.7094 44.328 60.7094 44.12C60.7094 43.904 60.7854 43.72 60.9374 43.568C61.0894 43.416 61.2694 43.34 61.4774 43.34ZM65.3054 45.98V49.904V50.276H65.9174V51.5H65.4494L65.0534 51.008H65.0294C64.7574 51.336 64.4174 51.5 64.0094 51.5H61.4414L61.0454 51.008H61.0094C60.7454 51.336 60.4094 51.5 60.0014 51.5H57.4214L57.0254 51.008H56.9894C56.7254 51.336 56.3894 51.5 55.9814 51.5H52.5734V50.276H55.5134C55.7134 50.276 55.8134 50.176 55.8134 49.976V47.36H57.2774V49.904C57.2774 50.072 57.2734 50.196 57.2654 50.276H59.5334C59.7334 50.276 59.8334 50.176 59.8334 49.976V46.664H61.2974V49.868C61.2974 49.916 61.2934 49.988 61.2854 50.084C61.2854 50.172 61.2854 50.236 61.2854 50.276H63.5414C63.7414 50.276 63.8414 50.176 63.8414 49.976V45.98H65.3054ZM66.991 43.34C67.207 43.34 67.391 43.416 67.543 43.568C67.695 43.72 67.771 43.904 67.771 44.12C67.771 44.328 67.695 44.508 67.543 44.66C67.391 44.812 67.207 44.888 66.991 44.888C66.775 44.888 66.591 44.812 66.439 44.66C66.287 44.508 66.211 44.328 66.211 44.12C66.211 43.904 66.287 43.72 66.439 43.568C66.591 43.416 66.775 43.34 66.991 43.34ZM68.815 43.34C69.031 43.34 69.215 43.416 69.367 43.568C69.519 43.72 69.595 43.904 69.595 44.12C69.595 44.328 69.519 44.508 69.367 44.66C69.215 44.812 69.031 44.888 68.815 44.888C68.607 44.888 68.427 44.812 68.275 44.66C68.123 44.508 68.047 44.328 68.047 44.12C68.047 43.904 68.123 43.72 68.275 43.568C68.427 43.416 68.607 43.34 68.815 43.34ZM69.439 45.98V50.18C69.439 50.492 69.335 50.78 69.127 51.044C68.863 51.348 68.535 51.5 68.143 51.5H65.827V50.276H67.675C67.763 50.276 67.839 50.244 67.903 50.18C67.959 50.124 67.987 50.056 67.987 49.976V45.98H69.439Z" fill="white"/>
<path d="M40.0853 10.2219C44.9813 9.27286 50.014 9.27286 54.91 10.2219C55.5271 10.3451 56.07 10.708 56.4197 11.2311C56.7694 11.7541 56.8972 12.3945 56.7751 13.0118C56.6531 13.629 56.2911 14.1726 55.7686 14.5231C55.2462 14.8737 54.606 15.0027 53.9885 14.8817C49.7011 14.0519 45.2943 14.0519 41.0068 14.8817C40.4021 14.9738 39.7852 14.829 39.2846 14.4775C38.784 14.126 38.4383 13.595 38.3195 12.995C38.2007 12.3949 38.318 11.7722 38.647 11.2565C38.9759 10.7408 39.4911 10.3719 40.0853 10.2267M65.3173 16.5584C65.4909 16.2992 65.714 16.0766 65.9736 15.9036C66.2333 15.7306 66.5245 15.6104 66.8307 15.5499C67.1368 15.4895 67.4519 15.49 67.7578 15.5514C68.0638 15.6128 68.3546 15.7338 68.6138 15.9077C72.7594 18.6838 76.321 22.2453 79.097 26.3909C79.277 26.65 79.4035 26.9422 79.4692 27.2507C79.535 27.5591 79.5386 27.8775 79.48 28.1874C79.4213 28.4973 79.3016 28.7924 79.1277 29.0554C78.9538 29.3185 78.7292 29.5444 78.4671 29.7197C78.205 29.8951 77.9106 30.0165 77.601 30.0769C77.2915 30.1372 76.9731 30.1354 76.6643 30.0713C76.3554 30.0073 76.0625 29.8824 75.8025 29.704C75.5424 29.5255 75.3206 29.2971 75.1498 29.0319C72.7193 25.4031 69.6016 22.2855 65.9728 19.8549C65.7131 19.6817 65.4902 19.4589 65.3167 19.1994C65.1432 18.9399 65.0225 18.6487 64.9617 18.3426C64.9008 18.0364 64.9008 17.7212 64.9619 17.4151C65.0229 17.109 65.1437 16.8179 65.3173 16.5584ZM29.678 16.5584C29.8519 16.8176 29.973 17.1084 30.0343 17.4144C30.0957 17.7203 30.0962 18.0354 30.0358 18.3415C29.9753 18.6477 29.8552 18.9389 29.6821 19.1986C29.5091 19.4583 29.2866 19.6813 29.0273 19.8549C25.3976 22.2821 22.2783 25.3965 19.8455 29.0224C19.4829 29.515 18.9443 29.8487 18.3417 29.954C17.7392 30.0593 17.1192 29.9281 16.6111 29.5877C16.1029 29.2473 15.7456 28.7239 15.6137 28.1266C15.4818 27.5293 15.5855 26.9042 15.903 26.3814C18.6778 22.2363 22.2377 18.6749 26.3815 15.8982C26.6407 15.7243 26.9315 15.6033 27.2375 15.5419C27.5434 15.4805 27.8585 15.48 28.1646 15.5404C28.4708 15.6009 28.762 15.7211 29.0217 15.8941C29.2814 16.0671 29.5044 16.2897 29.678 16.5489M13.0103 38.2089C13.3167 38.2692 13.6082 38.3892 13.8682 38.5623C14.1282 38.7353 14.3515 38.9579 14.5253 39.2173C14.6991 39.4767 14.8201 39.7679 14.8813 40.0741C14.9424 40.3803 14.9426 40.6956 14.8818 41.0019C14.0514 45.291 14.0514 49.6994 14.8818 53.9884C15.0028 54.6059 14.8738 55.2461 14.5232 55.7685C14.1727 56.291 13.6291 56.653 13.0119 56.775C12.3946 56.8971 11.7542 56.7692 11.2311 56.4196C10.7081 56.0699 10.3452 55.527 10.222 54.9099C9.27234 50.0124 9.27234 44.978 10.222 40.0804C10.3448 39.4635 10.7073 38.9204 11.2301 38.5704C11.7528 38.2204 12.3931 38.0921 13.0103 38.2137M81.9803 38.2137C82.2866 38.1529 82.6019 38.153 82.9081 38.2142C83.2143 38.2754 83.5055 38.3964 83.7649 38.5702C84.0244 38.744 84.247 38.9673 84.42 39.2273C84.593 39.4872 84.7131 39.7788 84.7733 40.0852C85.7233 44.8827 85.7233 50.1124 84.7733 54.9147C84.725 55.2318 84.613 55.5358 84.444 55.8084C84.275 56.0811 84.0526 56.3166 83.7901 56.5009C83.5275 56.6853 83.2304 56.8145 82.9166 56.8808C82.6028 56.9472 82.2788 56.9493 81.9641 56.887C81.6495 56.8247 81.3507 56.6993 81.0859 56.5184C80.821 56.3375 80.5955 56.1048 80.423 55.8344C80.2505 55.564 80.1346 55.2614 80.0822 54.945C80.0299 54.6285 80.0421 54.3048 80.1183 53.9932C80.9485 49.7042 80.9485 45.2957 80.1183 41.0067C79.9967 40.3895 80.125 39.7492 80.475 39.2265C80.825 38.7037 81.3681 38.3412 81.985 38.2184M16.5585 65.3267C17.0815 64.9771 17.7219 64.8493 18.339 64.9713C18.9561 65.0933 19.4997 65.4551 19.8503 65.9774C22.282 69.6068 25.4014 72.7246 29.032 75.1544C29.5555 75.5053 29.9181 76.0497 30.0401 76.6679C30.1622 77.2861 30.0336 77.9275 29.6828 78.4509C29.3319 78.9744 28.7875 79.337 28.1693 79.459C27.5511 79.5811 26.9097 79.4525 26.3863 79.1017C22.2407 76.3255 18.6792 72.764 15.903 68.6184C15.5539 68.0949 15.4268 67.4541 15.5497 66.8369C15.6726 66.2197 16.0355 65.6766 16.5585 65.3267ZM78.451 65.3267C78.9734 65.6773 79.3352 66.2208 79.4572 66.838C79.5792 67.4551 79.4514 68.0954 79.1018 68.6184C76.3257 72.7641 72.7642 76.3256 68.6185 79.1017C68.0958 79.4193 67.4706 79.5229 66.8734 79.391C66.2761 79.2591 65.7527 78.9018 65.4123 78.3937C65.0719 77.8855 64.9406 77.2655 65.0459 76.663C65.1512 76.0605 65.4849 75.5218 65.9775 75.1592C69.6068 72.7273 72.7245 69.6079 75.1545 65.9774C75.3282 65.7182 75.5512 65.4956 75.8109 65.3226C76.0706 65.1496 76.3618 65.0294 76.6679 64.9689C76.9741 64.9085 77.2891 64.909 77.5951 64.9704C77.901 65.0318 78.1919 65.1528 78.451 65.3267ZM38.2185 81.9897C38.2793 81.6837 38.3998 81.3927 38.573 81.1332C38.7463 80.8738 38.9689 80.6511 39.2283 80.4777C39.4877 80.3044 39.7787 80.1838 40.0846 80.1229C40.3906 80.0621 40.7056 80.0621 41.0115 80.1229C45.299 80.9529 49.7058 80.9529 53.9933 80.1229C54.598 80.0309 55.2149 80.1756 55.7155 80.5271C56.2161 80.8786 56.5618 81.4096 56.6806 82.0097C56.7994 82.6097 56.6821 83.2324 56.3531 83.7481C56.0242 84.2638 55.509 84.6327 54.9148 84.7779C50.0188 85.727 44.986 85.727 40.09 84.7779C39.4722 84.6562 38.9279 84.2942 38.577 83.7713C38.226 83.2484 38.0971 82.6076 38.2185 81.9897Z" fill="#B2D1D1"/>
</svg>
