<svg width="328" height="239" viewBox="0 0 328 239" fill="none" xmlns="http://www.w3.org/2000/svg">
<path d="M328 94.1511H326.885V65.5522C326.885 63.3786 326.428 61.2262 325.54 59.218C324.652 57.2098 323.35 55.3851 321.709 53.848C320.068 52.311 318.12 51.0918 315.976 50.26C313.832 49.4281 311.534 49 309.213 49H244.521C242.2 49 239.902 49.4281 237.758 50.26C235.614 51.0918 233.666 52.311 232.025 53.848C230.384 55.385 229.082 57.2097 228.194 59.2179C227.306 61.2261 226.849 63.3785 226.849 65.5522V222.448C226.849 226.838 228.711 231.048 232.025 234.152C235.339 237.256 239.834 239 244.521 239H309.213C313.9 239 318.395 237.256 321.709 234.152C325.023 231.048 326.885 226.838 326.885 222.448V114.508H328L328 94.1511Z" fill="#3F3D56"/>
<path d="M309.926 53.3067H301.482C301.87 54.1984 302.018 55.1658 301.913 56.1239C301.808 57.0819 301.453 58.001 300.88 58.8003C300.306 59.5996 299.532 60.2546 298.624 60.7075C297.717 61.1603 296.704 61.3972 295.676 61.3973H258.615C257.587 61.3972 256.575 61.1603 255.667 60.7075C254.76 60.2546 253.985 59.5996 253.412 58.8003C252.838 58.001 252.483 57.0819 252.378 56.1239C252.273 55.1658 252.422 54.1984 252.81 53.3066H244.923C241.423 53.3066 238.066 54.609 235.591 56.9271C233.116 59.2452 231.725 62.3893 231.725 65.6677V222.333C231.725 223.956 232.066 225.564 232.73 227.063C233.393 228.563 234.365 229.926 235.591 231.074C236.816 232.221 238.271 233.132 239.872 233.753C241.473 234.374 243.19 234.694 244.923 234.694H309.926C311.659 234.694 313.375 234.374 314.976 233.753C316.578 233.132 318.033 232.221 319.258 231.074C320.484 229.926 321.456 228.563 322.119 227.063C322.782 225.564 323.124 223.956 323.124 222.333V65.6677C323.124 64.0444 322.782 62.437 322.119 60.9373C321.456 59.4376 320.484 58.0749 319.258 56.9271C318.033 55.7793 316.578 54.8688 314.976 54.2476C313.375 53.6264 311.659 53.3066 309.926 53.3067Z" fill="white"/>
<path d="M314.854 84.1104H239.994V203.889H314.854V84.1104Z" fill="#E6E6E6"/>
<path d="M277.535 225.939C281.538 225.939 284.783 222.9 284.783 219.151C284.783 215.402 281.538 212.363 277.535 212.363C273.533 212.363 270.288 215.402 270.288 219.151C270.288 222.9 273.533 225.939 277.535 225.939Z" fill="#E6E6E6"/>
<path d="M181.815 188.088L170.074 186.753L165.101 174.356L161.238 175.462C161.238 175.462 164.092 188.563 167.287 190.593C170.481 192.622 181.394 192.987 181.394 192.987L181.815 188.088Z" fill="#006466"/>
<path d="M188.056 194.393C189.966 192.032 189.773 188.417 187.623 186.319C185.474 184.221 182.183 184.434 180.272 186.795C178.362 189.155 178.556 192.77 180.705 194.869C182.855 196.967 186.146 196.754 188.056 194.393Z" fill="#263238"/>
<path d="M184.164 196.318C182.957 196.318 181.788 195.859 180.855 195.018C179.923 194.177 179.284 193.007 179.049 191.707C178.814 190.407 178.996 189.058 179.565 187.889C180.133 186.721 181.053 185.805 182.168 185.297C183.283 184.79 184.523 184.723 185.678 185.108C186.832 185.493 187.83 186.305 188.5 187.407C189.171 188.509 189.472 189.832 189.354 191.151C189.236 192.47 188.705 193.703 187.852 194.64C187.368 195.174 186.794 195.597 186.161 195.885C185.528 196.173 184.849 196.32 184.164 196.318ZM184.164 184.88C182.961 184.878 181.794 185.335 180.863 186.173C179.932 187.01 179.294 188.176 179.058 189.472C178.822 190.768 179.003 192.114 179.569 193.281C180.135 194.447 181.052 195.362 182.163 195.869C183.274 196.376 184.511 196.444 185.663 196.062C186.815 195.679 187.811 194.87 188.48 193.772C189.15 192.674 189.452 191.355 189.335 190.039C189.219 188.724 188.69 187.493 187.84 186.558C187.359 186.025 186.786 185.602 186.155 185.314C185.524 185.026 184.847 184.878 184.164 184.88Z" fill="#263238"/>
<path d="M169.021 191.572C171.119 191.019 172.41 188.703 171.907 186.4C171.404 184.096 169.295 182.677 167.198 183.23C165.101 183.783 163.809 186.099 164.313 188.402C164.816 190.706 166.924 192.125 169.021 191.572Z" fill="#263238"/>
<path d="M165.144 175.359C166.39 173.99 166.39 171.77 165.144 170.401C163.898 169.032 161.877 169.032 160.631 170.401C159.384 171.77 159.384 173.99 160.631 175.359C161.877 176.728 163.898 176.728 165.144 175.359Z" fill="#263238"/>
<path d="M167.862 170.983L165.234 173.421L164.287 172.188L166.915 169.75C167.053 169.622 167.232 169.559 167.413 169.576C167.593 169.593 167.76 169.687 167.877 169.839L167.942 169.924C168 169.999 168.044 170.086 168.072 170.18C168.099 170.274 168.11 170.373 168.102 170.471C168.095 170.57 168.07 170.666 168.029 170.753C167.988 170.841 167.931 170.919 167.862 170.983Z" fill="#263238"/>
<path d="M164.524 166.519V170.193C164.524 170.221 164.514 170.248 164.496 170.268C164.477 170.289 164.452 170.3 164.427 170.3H163.156C163.13 170.3 163.105 170.289 163.087 170.268C163.068 170.248 163.058 170.221 163.058 170.193V166.519C163.058 166.32 163.13 166.129 163.258 165.988C163.386 165.848 163.56 165.769 163.741 165.769H163.841C164.022 165.769 164.196 165.848 164.324 165.988C164.452 166.129 164.524 166.32 164.524 166.519Z" fill="#263238"/>
<path d="M162.157 166.533L162.888 170.118C162.893 170.146 162.889 170.175 162.875 170.199C162.861 170.223 162.839 170.24 162.814 170.246L161.573 170.551C161.548 170.557 161.522 170.552 161.5 170.537C161.478 170.522 161.462 170.498 161.457 170.47L160.727 166.884C160.687 166.69 160.719 166.487 160.816 166.319C160.913 166.151 161.067 166.032 161.244 165.989L161.342 165.965C161.519 165.921 161.704 165.957 161.857 166.063C162.01 166.17 162.118 166.339 162.157 166.533Z" fill="#263238"/>
<path d="M159.611 167.431L161.284 170.613C161.297 170.637 161.3 170.667 161.293 170.694C161.287 170.721 161.27 170.745 161.248 170.759L160.147 171.457C160.125 171.471 160.098 171.475 160.073 171.468C160.048 171.46 160.027 171.442 160.014 171.418L158.341 168.236C158.251 168.064 158.226 167.859 158.273 167.667C158.32 167.475 158.435 167.311 158.591 167.211L158.678 167.156C158.835 167.057 159.022 167.03 159.197 167.081C159.372 167.133 159.521 167.259 159.611 167.431Z" fill="#263238"/>
<path d="M232.84 220.202L236.354 218.561L226.214 192.372L222.7 194.014L232.84 220.202Z" fill="#006466"/>
<path d="M226.718 194.875C228.576 192.465 228.305 188.856 226.11 186.814C223.916 184.772 220.631 185.071 218.772 187.481C216.913 189.891 217.185 193.5 219.379 195.542C221.573 197.583 224.859 197.285 226.718 194.875Z" fill="#263238"/>
<path d="M222.755 196.918C221.939 196.919 221.133 196.709 220.404 196.305C219.674 195.901 219.041 195.314 218.556 194.593C218.071 193.871 217.746 193.034 217.609 192.15C217.472 191.265 217.526 190.358 217.766 189.5C218.051 188.489 218.586 187.584 219.311 186.886C220.036 186.189 220.923 185.725 221.874 185.548C222.824 185.371 223.8 185.487 224.694 185.883C225.588 186.279 226.365 186.94 226.938 187.791C227.511 188.643 227.857 189.652 227.939 190.707C228.021 191.762 227.835 192.821 227.401 193.767C226.968 194.713 226.304 195.508 225.484 196.064C224.664 196.621 223.719 196.916 222.755 196.918ZM222.755 185.474C221.793 185.475 220.85 185.769 220.031 186.324C219.212 186.879 218.549 187.672 218.116 188.616C217.683 189.56 217.497 190.618 217.578 191.671C217.66 192.724 218.006 193.732 218.577 194.582C219.149 195.432 219.925 196.091 220.817 196.486C221.71 196.881 222.685 196.996 223.633 196.819C224.582 196.642 225.467 196.179 226.191 195.482C226.914 194.785 227.447 193.881 227.731 192.871C228.136 191.423 228.001 189.859 227.357 188.52C226.713 187.182 225.611 186.178 224.294 185.731C223.79 185.56 223.266 185.473 222.739 185.474H222.755Z" fill="#263238"/>
<path d="M233.287 208.278C233.865 205.996 232.649 203.631 230.571 202.997C228.492 202.363 226.34 203.699 225.762 205.981C225.185 208.264 226.401 210.628 228.479 211.263C230.557 211.897 232.71 210.561 233.287 208.278Z" fill="#263238"/>
<path d="M235.413 223.987C237.176 223.987 238.605 222.417 238.605 220.481C238.605 218.545 237.176 216.976 235.413 216.976C233.651 216.976 232.222 218.545 232.222 220.481C232.222 222.417 233.651 223.987 235.413 223.987Z" fill="#263238"/>
<path d="M231.239 224.012L233.026 220.791L234.28 221.631L232.493 224.851C232.399 225.021 232.247 225.143 232.071 225.19C231.895 225.237 231.709 225.205 231.555 225.102L231.469 225.044C231.392 224.993 231.325 224.926 231.272 224.846C231.219 224.767 231.18 224.676 231.159 224.581C231.137 224.485 231.133 224.385 231.147 224.287C231.161 224.19 231.192 224.096 231.239 224.012Z" fill="#263238"/>
<path d="M235.688 227.083L234.629 223.598C234.621 223.571 234.623 223.542 234.635 223.516C234.646 223.491 234.666 223.472 234.691 223.463L235.897 223.021C235.921 223.012 235.948 223.014 235.971 223.026C235.994 223.039 236.012 223.061 236.02 223.088L237.079 226.573C237.107 226.667 237.117 226.766 237.109 226.864C237.102 226.962 237.077 227.058 237.036 227.146C236.995 227.233 236.939 227.311 236.87 227.375C236.802 227.438 236.723 227.487 236.637 227.517L236.542 227.551C236.372 227.611 236.188 227.596 236.028 227.508C235.869 227.421 235.747 227.268 235.688 227.083Z" fill="#263238"/>
<path d="M237.932 226.248L236.206 223.101C236.199 223.089 236.195 223.076 236.193 223.062C236.191 223.048 236.192 223.034 236.195 223.02C236.198 223.006 236.203 222.994 236.211 222.982C236.218 222.971 236.228 222.961 236.239 222.954L237.328 222.234C237.339 222.226 237.351 222.222 237.363 222.219C237.376 222.217 237.389 222.218 237.401 222.221C237.414 222.225 237.426 222.231 237.436 222.239C237.446 222.248 237.455 222.258 237.462 222.27L239.188 225.417C239.281 225.587 239.309 225.792 239.266 225.985C239.222 226.178 239.11 226.344 238.955 226.447L238.869 226.504C238.714 226.606 238.528 226.637 238.353 226.589C238.177 226.541 238.025 226.419 237.932 226.248Z" fill="#263238"/>
<path d="M240.086 224.513L237.583 222.077C237.564 222.058 237.552 222.032 237.55 222.003C237.549 221.975 237.557 221.947 237.575 221.926L238.416 220.883C238.433 220.862 238.457 220.849 238.483 220.847C238.509 220.845 238.534 220.855 238.553 220.874L241.057 223.31C241.192 223.442 241.275 223.628 241.286 223.826C241.297 224.025 241.235 224.22 241.115 224.369L241.049 224.452C240.928 224.6 240.76 224.689 240.579 224.701C240.399 224.712 240.222 224.645 240.086 224.513Z" fill="#263238"/>
<path d="M182.617 184.641C182.617 184.641 182.993 224.792 203.506 225.576C224.018 226.36 224.88 184.929 224.88 184.641C224.88 184.641 222.457 178.656 203.748 178.888C185.039 179.121 182.617 184.641 182.617 184.641Z" fill="#006466"/>
<path d="M194.135 177.574H211.472C212.604 177.574 213.521 176.567 213.521 175.324V174.996C213.521 173.753 212.604 172.746 211.472 172.746H194.135C193.003 172.746 192.086 173.753 192.086 174.996V175.324C192.086 176.567 193.003 177.574 194.135 177.574Z" fill="#263238"/>
<path d="M202.057 141.872H203.553V133.56H202.057V141.872Z" fill="#263238"/>
<path d="M225.692 166.619C228.055 166.002 229.516 163.397 228.954 160.801C228.392 158.205 226.021 156.601 223.658 157.218C221.294 157.835 219.834 160.439 220.396 163.035C220.957 165.631 223.329 167.236 225.692 166.619Z" fill="#006466"/>
<path d="M181.247 166.305C183.617 165.715 185.101 163.127 184.564 160.524C184.027 157.922 181.671 156.291 179.302 156.881C176.932 157.472 175.448 160.06 175.985 162.662C176.522 165.264 178.878 166.895 181.247 166.305Z" fill="#006466"/>
<path d="M201.934 140.069C201.934 140.069 184.05 139.833 181.223 156.859C178.397 173.885 193.516 174.191 197.867 174.513C199.838 174.66 204.058 174.675 207.782 174.601C216.027 174.445 221.852 172.694 223.834 164.293C224.07 163.308 224.219 162.3 224.277 161.283C224.799 152.061 219.132 139.616 201.934 140.069Z" fill="#006466"/>
<path d="M214.906 165.983L188.925 166.427C188.277 166.439 187.633 166.311 187.029 166.05C186.426 165.789 185.876 165.4 185.41 164.905C184.944 164.41 184.571 163.818 184.314 163.165C184.056 162.511 183.918 161.809 183.908 161.096C183.897 160.384 184.013 159.677 184.252 159.014C184.49 158.352 184.844 157.747 185.295 157.235C185.746 156.723 186.285 156.314 186.88 156.031C187.475 155.748 188.115 155.597 188.763 155.585L214.745 155.142C215.393 155.129 216.037 155.256 216.641 155.517C217.244 155.778 217.794 156.168 218.261 156.663C218.727 157.158 219.099 157.749 219.357 158.403C219.614 159.057 219.752 159.76 219.762 160.472C219.773 161.184 219.657 161.892 219.419 162.555C219.181 163.217 218.826 163.822 218.375 164.334C217.924 164.846 217.385 165.255 216.79 165.538C216.195 165.821 215.555 165.972 214.906 165.983Z" fill="#263238"/>
<path d="M194.324 160.505C194.264 160.843 194.114 161.153 193.893 161.397C193.672 161.64 193.39 161.807 193.083 161.875C192.776 161.942 192.458 161.909 192.168 161.778C191.879 161.647 191.631 161.425 191.456 161.139C191.282 160.854 191.188 160.518 191.188 160.174C191.187 159.83 191.279 159.494 191.452 159.207C191.625 158.921 191.872 158.697 192.161 158.565C192.45 158.432 192.768 158.397 193.075 158.463C193.28 158.507 193.474 158.595 193.647 158.721C193.82 158.848 193.969 159.01 194.085 159.2C194.201 159.39 194.282 159.603 194.323 159.827C194.364 160.051 194.364 160.281 194.324 160.505Z" fill="white"/>
<path d="M212.467 160.187C212.407 160.525 212.258 160.835 212.037 161.079C211.816 161.324 211.535 161.49 211.228 161.559C210.921 161.627 210.602 161.594 210.312 161.463C210.022 161.332 209.774 161.11 209.6 160.825C209.425 160.539 209.331 160.203 209.33 159.859C209.329 159.515 209.421 159.179 209.595 158.892C209.768 158.605 210.015 158.382 210.304 158.249C210.593 158.117 210.911 158.082 211.219 158.148C211.63 158.237 211.993 158.501 212.227 158.884C212.461 159.266 212.548 159.735 212.467 160.187Z" fill="white"/>
<path d="M209.855 200.586C209.754 202.118 209.24 203.583 208.381 204.794C207.521 206.006 206.354 206.911 205.026 207.394C203.699 207.877 202.27 207.917 200.922 207.508C199.574 207.1 198.366 206.261 197.452 205.099C196.537 203.937 195.957 202.502 195.785 200.978C195.612 199.453 195.856 197.907 196.483 196.534C197.111 195.161 198.095 194.024 199.311 193.266C200.528 192.507 201.921 192.162 203.316 192.273C205.187 192.424 206.926 193.384 208.152 194.943C209.379 196.501 209.991 198.531 209.855 200.586Z" fill="#263238"/>
<path d="M207.941 200.434C207.866 201.55 207.492 202.618 206.865 203.501C206.239 204.384 205.388 205.043 204.42 205.395C203.452 205.747 202.411 205.775 201.429 205.477C200.446 205.179 199.566 204.568 198.9 203.72C198.233 202.873 197.811 201.828 197.686 200.716C197.56 199.605 197.738 198.478 198.196 197.478C198.653 196.477 199.371 195.649 200.258 195.096C201.144 194.544 202.16 194.293 203.177 194.375C203.852 194.428 204.511 194.628 205.116 194.962C205.721 195.295 206.26 195.757 206.702 196.32C207.144 196.882 207.481 197.535 207.694 198.241C207.907 198.947 207.99 199.692 207.941 200.434Z" fill="white"/>
<path d="M205.457 201.462C205.418 201.153 205.402 200.84 205.41 200.528C205.396 199.943 205.385 199.108 205.385 198.079L205.44 198.192L202.79 196.493H202.937L200.261 198.143C200.189 198.278 200.359 197.963 200.342 197.996V198.431V198.869C200.342 199.157 200.342 199.444 200.328 199.726C200.328 200.289 200.309 200.834 200.3 201.361L200.228 201.22L202.848 202.978H202.731C203.548 202.494 204.222 202.108 204.682 201.845C204.93 201.69 205.188 201.557 205.454 201.447C205.246 201.633 205.022 201.796 204.785 201.934C204.334 202.24 203.67 202.671 202.834 203.201L202.776 203.238L202.717 203.201L200.063 201.502L199.991 201.456V201.358C199.991 200.831 199.997 200.286 200.008 199.723C200.008 199.441 200.008 199.157 200.008 198.866V198.431V198.008C199.991 198.042 200.161 197.73 200.089 197.862L202.773 196.227L202.851 196.181L202.923 196.23L205.541 197.987L205.599 198.027V198.1C205.569 199.16 205.538 200.011 205.51 200.589C205.517 200.882 205.499 201.174 205.457 201.462Z" fill="#006466"/>
<path d="M204.551 135.308C205.514 134.249 205.514 132.534 204.551 131.476C203.587 130.417 202.025 130.417 201.062 131.476C200.099 132.534 200.099 134.249 201.062 135.308C202.025 136.366 203.587 136.366 204.551 135.308Z" fill="#006466"/>
<path d="M198.865 159.704C198.982 159.719 198.923 160.316 199.269 161.133C199.465 161.603 199.75 162.02 200.105 162.358C200.522 162.76 201.04 163.014 201.591 163.084C202.145 163.123 202.697 162.978 203.174 162.667C203.578 162.409 203.928 162.059 204.2 161.642C204.674 160.916 204.716 160.307 204.833 160.316C204.88 160.316 204.927 160.469 204.927 160.757C204.917 161.167 204.822 161.569 204.649 161.932C204.389 162.482 204.005 162.949 203.534 163.289C202.951 163.74 202.241 163.948 201.531 163.877C200.822 163.806 200.158 163.459 199.659 162.9C199.252 162.472 198.953 161.937 198.79 161.345C198.673 160.95 198.643 160.53 198.7 160.12C198.748 159.835 198.82 159.694 198.865 159.704Z" fill="white"/>
<path d="M222.677 167.636C222.65 167.636 222.97 167.085 223.28 166.121C223.664 164.858 223.908 163.548 224.004 162.22C224.116 160.897 224.144 159.567 224.088 158.24C224.068 157.729 224.046 157.322 224.024 157.015C224.005 156.867 224 156.717 224.01 156.568C224.046 156.713 224.069 156.86 224.08 157.009C224.119 157.294 224.158 157.707 224.191 158.234C224.278 159.572 224.264 160.915 224.149 162.251C224.051 163.591 223.791 164.911 223.377 166.176C223.246 166.557 223.087 166.927 222.903 167.281C222.837 167.406 222.762 167.525 222.677 167.636Z" fill="#263238"/>
<path d="M181.257 156.29C181.241 156.439 181.212 156.585 181.171 156.728C181.134 156.866 181.095 157.034 181.059 157.236C181.023 157.438 180.967 157.659 180.934 157.913C180.836 158.503 180.771 159.099 180.739 159.698C180.701 160.43 180.71 161.165 180.766 161.896C180.829 162.626 180.937 163.35 181.09 164.064C181.218 164.647 181.378 165.222 181.569 165.784C181.644 166.026 181.731 166.237 181.801 166.427C181.87 166.617 181.937 166.776 181.993 166.905C182.056 167.037 182.109 167.175 182.149 167.318C182.07 167.197 182.001 167.068 181.943 166.932C181.864 166.779 181.792 166.622 181.728 166.461C181.65 166.277 181.555 166.066 181.474 165.824C181.267 165.263 181.096 164.687 180.962 164.1C180.798 163.38 180.685 162.647 180.621 161.908C180.565 161.17 180.559 160.428 180.605 159.689C180.644 159.084 180.72 158.484 180.833 157.891C180.875 157.637 180.934 157.414 180.981 157.215C181.028 157.016 181.073 156.847 181.115 156.709C181.152 156.566 181.199 156.425 181.257 156.29Z" fill="#263238"/>
<path d="M182.522 184.607L182.628 184.641L182.941 184.757L184.128 185.217L184.987 185.553C185.301 185.67 185.65 185.78 186.021 185.906C186.765 186.147 187.604 186.463 188.557 186.708L190.043 187.127C190.561 187.271 191.108 187.378 191.671 187.513C192.786 187.795 194.009 187.988 195.294 188.214C198.073 188.633 200.874 188.853 203.679 188.872C206.484 188.854 209.284 188.634 212.063 188.214C213.34 187.988 214.555 187.798 215.687 187.513C216.244 187.381 216.802 187.274 217.315 187.13L218.803 186.711C219.754 186.466 220.593 186.151 221.337 185.909C221.708 185.783 222.056 185.673 222.371 185.557L223.23 185.22L224.417 184.761L224.729 184.644C224.764 184.629 224.801 184.618 224.838 184.61L224.735 184.659L224.428 184.791L223.249 185.278L222.371 185.639C222.059 185.759 221.71 185.872 221.34 186.004C220.595 186.255 219.759 186.576 218.806 186.83L217.317 187.259C216.802 187.406 216.253 187.516 215.69 187.654C214.575 187.942 213.348 188.138 212.066 188.37C209.281 188.799 206.474 189.023 203.662 189.041C200.851 189.021 198.045 188.796 195.261 188.367C193.981 188.138 192.752 187.939 191.637 187.651C191.08 187.513 190.522 187.403 190.009 187.256L188.521 186.827C187.568 186.573 186.731 186.252 185.987 186C185.616 185.869 185.271 185.756 184.956 185.636L184.1 185.284L182.921 184.797L182.614 184.666C182.582 184.649 182.551 184.63 182.522 184.607Z" fill="#263238"/>
<g opacity="0.3">
<path d="M182.617 184.641C182.617 184.641 185.039 179.13 203.748 178.888C222.457 178.646 224.88 184.641 224.88 184.641C224.88 184.641 205.998 194.864 182.617 184.641Z" fill="black"/>
</g>
<path d="M199.668 141.342C199.646 141.345 199.625 141.345 199.604 141.342L199.417 141.364C199.25 141.382 199.004 141.388 198.689 141.428C197.801 141.523 196.919 141.683 196.05 141.909C191.555 143.039 187.59 145.933 184.9 150.047C183.6 152.023 182.616 154.229 181.99 156.568C181.892 156.899 181.84 157.162 181.792 157.337L181.739 157.539C181.734 157.562 181.727 157.585 181.717 157.606C181.713 157.583 181.713 157.559 181.717 157.536C181.717 157.48 181.739 157.413 181.756 157.33C181.795 157.153 181.837 156.886 181.926 156.55C182.159 155.598 182.457 154.668 182.818 153.767C184.009 150.771 185.823 148.123 188.114 146.036C190.415 143.964 193.125 142.513 196.027 141.799C196.901 141.58 197.79 141.436 198.684 141.367C199.001 141.336 199.241 141.339 199.414 141.33H199.604C199.648 141.336 199.668 141.339 199.668 141.342Z" fill="white"/>
<path d="M182.171 164.911C182.06 164.722 181.973 164.516 181.915 164.299C181.584 163.276 181.43 162.194 181.461 161.109C181.453 160.884 181.477 160.658 181.533 160.441C181.578 160.441 181.516 161.464 181.695 162.701C181.873 163.938 182.213 164.893 182.171 164.911Z" fill="white"/>
<path d="M177.48 163.328C177.48 163.328 177.416 163.279 177.329 163.163C177.206 162.998 177.1 162.819 177.014 162.627C176.717 161.994 176.603 161.277 176.688 160.57C176.773 159.864 177.053 159.204 177.491 158.678C177.619 158.517 177.764 158.373 177.923 158.249C177.977 158.199 178.04 158.159 178.107 158.133C178.124 158.157 177.873 158.344 177.569 158.745C177.17 159.27 176.915 159.908 176.833 160.585C176.751 161.263 176.846 161.952 177.106 162.572C177.301 163.059 177.499 163.31 177.48 163.328Z" fill="white"/>
<path d="M202.965 131.503C202.748 131.476 202.528 131.471 202.31 131.487C202.05 131.512 201.799 131.603 201.575 131.751C201.352 131.899 201.163 132.102 201.022 132.343C200.881 132.584 200.792 132.858 200.762 133.142C200.732 133.427 200.762 133.716 200.849 133.986C200.925 134.21 201.018 134.426 201.128 134.632C201.128 134.632 201.072 134.595 200.994 134.497C200.887 134.355 200.803 134.195 200.744 134.022C200.637 133.737 200.595 133.427 200.621 133.119C200.647 132.812 200.739 132.515 200.891 132.256C201.044 131.996 201.25 131.78 201.494 131.627C201.738 131.473 202.012 131.387 202.293 131.374C202.46 131.361 202.628 131.379 202.789 131.426C202.915 131.448 202.965 131.494 202.965 131.503Z" fill="white"/>
<path d="M227.26 159.615C227.229 159.651 226.797 159.195 226.145 158.852C225.493 158.509 224.899 158.408 224.905 158.359C225.359 158.347 225.808 158.467 226.206 158.708C226.625 158.901 226.989 159.214 227.26 159.615Z" fill="white"/>
<path d="M189.028 213.215C189.015 213.197 189.004 213.177 188.995 213.157L188.903 212.976C188.819 212.802 188.708 212.569 188.563 212.272C188.49 212.119 188.412 211.948 188.323 211.764L188.061 211.152C187.871 210.708 187.659 210.202 187.45 209.621C187.344 209.336 187.233 209.036 187.116 208.727C186.999 208.417 186.898 208.081 186.784 207.741C186.544 207.064 186.341 206.32 186.104 205.549C185.666 203.987 185.237 202.257 184.861 200.42C184.485 198.583 184.211 196.811 183.988 195.197C183.765 193.584 183.621 192.135 183.531 190.892C183.478 190.28 183.445 189.723 183.417 189.233C183.389 188.743 183.364 188.314 183.356 187.978C183.347 187.641 183.339 187.381 183.331 187.185V186.98C183.328 186.956 183.328 186.933 183.331 186.909C183.334 186.933 183.334 186.956 183.331 186.98L183.347 187.185C183.347 187.378 183.378 187.644 183.398 187.975C183.417 188.305 183.445 188.74 183.484 189.227C183.523 189.714 183.559 190.271 183.621 190.883C183.721 192.108 183.899 193.565 184.108 195.17C184.317 196.774 184.621 198.537 184.989 200.374C185.357 202.211 185.789 203.938 186.216 205.497C186.453 206.268 186.65 207.009 186.885 207.686C186.996 208.029 187.102 208.356 187.208 208.672L187.531 209.572C187.732 210.144 187.938 210.652 188.122 211.103L188.373 211.715C188.454 211.902 188.532 212.073 188.602 212.229L188.914 212.946L188.992 213.132C189.009 213.157 189.021 213.185 189.028 213.215Z" fill="white"/>
<path d="M178.121 188.254C177.441 188.282 176.76 188.256 176.084 188.174C175.404 188.148 174.727 188.069 174.057 187.939C174.737 187.91 175.418 187.937 176.095 188.018C176.774 188.044 177.452 188.123 178.121 188.254Z" fill="white"/>
<path d="M167.635 181.717C167.24 181.085 166.885 180.423 166.573 179.736C166.22 179.075 165.909 178.387 165.642 177.679C166.036 178.313 166.39 178.975 166.701 179.663C167.056 180.322 167.369 181.009 167.635 181.717Z" fill="white"/>
<path d="M198.923 222.869C198.814 222.867 198.704 222.852 198.597 222.826C198.302 222.768 198.011 222.691 197.725 222.593C197.3 222.451 196.884 222.276 196.482 222.07C195.991 221.81 195.52 221.509 195.071 221.17C194.628 220.822 194.21 220.436 193.823 220.015C193.508 219.67 193.218 219.299 192.953 218.907C192.771 218.645 192.607 218.37 192.459 218.084C192.399 217.983 192.35 217.875 192.312 217.762C192.334 217.747 192.568 218.191 193.034 218.84C193.307 219.217 193.602 219.575 193.917 219.911C194.689 220.735 195.574 221.419 196.54 221.938C196.935 222.148 197.341 222.331 197.756 222.486C198.469 222.75 198.929 222.838 198.923 222.869Z" fill="white"/>
<path d="M203.199 208.705C203.135 208.718 203.069 208.725 203.004 208.727C202.819 208.744 202.632 208.75 202.447 208.745C201.753 208.728 201.066 208.606 200.403 208.381C199.946 208.224 199.5 208.028 199.071 207.793C198.579 207.515 198.112 207.186 197.677 206.81C196.67 205.96 195.876 204.842 195.369 203.562C194.863 202.282 194.662 200.882 194.784 199.493C194.829 198.89 194.927 198.293 195.077 197.711C195.21 197.206 195.383 196.714 195.592 196.241C195.895 195.555 196.283 194.92 196.746 194.352C196.871 194.197 197.003 194.05 197.142 193.911C197.188 193.861 197.238 193.814 197.29 193.771C197.29 193.771 197.106 193.988 196.788 194.383C196.342 194.959 195.967 195.597 195.673 196.281C195.235 197.289 194.974 198.379 194.904 199.493C194.791 200.857 194.992 202.231 195.489 203.488C195.986 204.744 196.762 205.844 197.747 206.685C198.169 207.058 198.623 207.386 199.102 207.664C199.521 207.908 199.959 208.112 200.409 208.277C201.061 208.509 201.739 208.646 202.424 208.684C202.929 208.705 203.199 208.687 203.199 208.705Z" fill="white"/>
<path d="M169.452 184.595C169.452 184.619 169.238 184.506 168.895 184.417C168.436 184.307 167.961 184.312 167.504 184.432C167.047 184.553 166.621 184.785 166.258 185.112C165.979 185.366 165.845 185.568 165.826 185.553C165.902 185.35 166.021 185.17 166.172 185.026C166.533 184.662 166.974 184.405 167.451 184.279C167.929 184.154 168.428 184.164 168.9 184.31C169.102 184.357 169.291 184.454 169.452 184.595Z" fill="white"/>
<path d="M210.614 154.153C210.614 154.196 207.191 154.232 202.971 154.232C198.751 154.232 195.325 154.196 195.325 154.153C195.325 154.11 198.748 154.073 202.971 154.073C207.194 154.073 210.614 154.104 210.614 154.153Z" fill="white"/>
<path d="M197.569 173.297C197.527 173.31 197.484 173.317 197.441 173.319L197.067 173.355C196.905 173.371 196.707 173.383 196.476 173.389C196.245 173.395 195.983 173.407 195.693 173.389C195.11 173.389 194.419 173.343 193.652 173.254C192.823 173.148 191.999 172.992 191.186 172.786C190.374 172.572 189.573 172.308 188.788 171.996C188.149 171.739 187.522 171.445 186.91 171.117C186.631 170.983 186.416 170.842 186.213 170.722C186.009 170.603 185.837 170.496 185.697 170.416L185.377 170.202C185.339 170.179 185.303 170.151 185.271 170.119C185.271 170.119 185.315 170.119 185.391 170.174L185.725 170.361C185.867 170.447 186.043 170.548 186.249 170.667C186.455 170.787 186.69 170.909 186.954 171.038C187.478 171.307 188.117 171.595 188.836 171.88C190.399 172.495 192.02 172.914 193.669 173.129C194.427 173.227 195.116 173.282 195.693 173.297C195.972 173.316 196.25 173.297 196.476 173.297C196.702 173.297 196.903 173.297 197.064 173.297H197.438C197.481 173.289 197.525 173.289 197.569 173.297Z" fill="white"/>
<path d="M219.821 187.094C219.8 187.109 219.777 187.12 219.754 187.127L219.553 187.21L218.778 187.516C218.441 187.651 218.028 187.807 217.541 187.963C217.053 188.119 216.504 188.321 215.882 188.493L214.912 188.775C214.575 188.87 214.218 188.949 213.853 189.044C213.123 189.237 212.331 189.39 211.5 189.565C207.882 190.257 204.205 190.504 200.537 190.302C199.701 190.244 198.89 190.198 198.143 190.103C197.77 190.061 197.407 190.03 197.062 189.978L196.066 189.828C195.431 189.745 194.862 189.62 194.363 189.522C193.864 189.424 193.432 189.332 193.084 189.243L192.281 189.047L192.072 188.992C192.048 188.988 192.024 188.979 192.002 188.967C192.027 188.965 192.053 188.965 192.078 188.967L192.287 189.007L193.095 189.176C193.446 189.252 193.876 189.341 194.377 189.424C194.879 189.506 195.445 189.626 196.08 189.702L197.073 189.84C197.418 189.889 197.781 189.917 198.154 189.956C198.898 190.045 199.701 190.085 200.543 190.14C202.229 190.217 204.083 190.22 206.029 190.094C207.974 189.969 209.811 189.702 211.475 189.402C212.311 189.234 213.097 189.096 213.828 188.9C214.193 188.808 214.55 188.732 214.887 188.64L215.857 188.367C216.479 188.205 217.028 188.015 217.515 187.862C218.003 187.709 218.421 187.556 218.759 187.443L219.542 187.167L219.748 187.1L219.821 187.094Z" fill="white"/>
<path d="M177.94 62.388C177.944 58.0003 176.868 53.6812 174.81 49.824C172.752 45.9668 169.776 42.6941 166.154 40.304C162.533 37.9139 158.38 36.4823 154.074 36.1396C149.769 35.7969 145.447 36.554 141.503 38.342C139.811 34.9713 137.422 32.0113 134.5 29.6643C131.579 27.3172 128.193 25.6383 124.574 24.7421C120.955 23.846 117.189 23.7537 113.532 24.4716C109.875 25.1896 106.414 26.7008 103.384 28.9021C102.119 25.5025 100.175 22.4062 97.6734 19.8083C95.1719 17.2105 92.1676 15.1676 88.85 13.8084C85.5324 12.4493 81.9735 11.8034 78.3979 11.9116C74.8223 12.0198 71.3076 12.8796 68.0755 14.4369C64.0896 10.3408 58.8903 7.68728 53.2761 6.884C47.662 6.08072 41.9436 7.17207 36.9991 9.99042C32.0547 12.8088 28.1576 17.1983 25.9065 22.4847C23.6555 27.7712 23.1748 33.6623 24.5385 39.2531C18.6956 41.4327 13.5105 45.1174 9.49146 49.946C5.47245 54.7747 2.75748 60.5815 1.61272 66.7972C0.467962 73.0129 0.932709 79.4241 2.9614 85.4024C4.99009 91.3806 8.51309 96.7207 13.185 100.899C11.4284 106.322 11.4561 112.177 13.2638 117.583C15.0716 122.988 18.5613 127.648 23.206 130.861C27.8507 134.074 33.3982 135.664 39.0108 135.391C44.6234 135.119 49.9963 132.998 54.3182 129.35C56.9027 135.758 61.2278 141.286 66.7887 145.29C72.3495 149.294 78.9166 151.608 85.7234 151.962C92.5302 152.317 99.2958 150.697 105.231 147.292C111.165 143.887 116.024 138.837 119.24 132.732C125.024 135.142 131.423 135.571 137.468 133.954C143.514 132.338 148.876 128.764 152.742 123.774C156.609 118.783 158.77 112.649 158.897 106.299C159.025 99.9498 157.112 93.731 153.448 88.5849C160.052 88.2226 166.268 85.3066 170.823 80.4352C175.377 75.5638 177.923 69.1065 177.94 62.388Z" fill="#006466" stroke="#006466" stroke-miterlimit="10"/>
<path d="M160.198 144.866C165.81 142.083 168.679 136.331 166.607 132.019C164.535 127.707 158.306 126.467 152.694 129.251C147.083 132.034 144.213 137.786 146.285 142.098C148.357 146.41 154.586 147.649 160.198 144.866Z" fill="#006466" stroke="#006466" stroke-miterlimit="10"/>
<path d="M159.412 157.811C160.965 161.042 165.634 161.972 169.841 159.887C174.047 157.802 176.192 153.49 174.639 150.259C173.086 147.028 168.417 146.098 164.21 148.183C160.004 150.269 157.859 154.58 159.412 157.811Z" fill="#006466" stroke="#006466" stroke-miterlimit="10"/>
<path d="M181 56.7522C181.005 52.3646 179.929 48.0455 177.87 44.1883C175.812 40.3311 172.836 37.0584 169.215 34.6683C165.593 32.2782 161.44 30.8466 157.135 30.5039C152.829 30.1612 148.507 30.9183 144.563 32.7063C142.867 29.3379 140.475 26.3812 137.55 24.0379C134.626 21.6947 131.239 20.0201 127.619 19.1284C124 18.2367 120.233 18.149 116.577 18.8712C112.921 19.5935 109.462 21.1086 106.435 23.3133C105.17 19.9186 103.227 16.8267 100.728 14.2323C98.2289 11.6379 95.2285 9.59706 91.9153 8.23831C88.6022 6.87956 85.048 6.23229 81.4766 6.33724C77.9052 6.44219 74.3938 7.29709 71.1635 8.84814C67.1803 4.73808 61.9777 2.0723 56.3567 1.26131C50.7358 0.450316 45.0083 1.53909 40.0562 4.35998C35.1042 7.18086 31.2022 11.5774 28.9512 16.8726C26.7002 22.1677 26.225 28.0678 27.5988 33.6643C21.7514 35.8427 16.5619 39.528 12.5393 44.3585C8.51671 49.1891 5.79919 54.9991 4.65334 61.2185C3.5075 67.4379 3.97268 73.853 6.00327 79.8347C8.03385 85.8163 11.5601 91.159 16.236 95.3385C14.4764 100.763 14.5024 106.621 16.31 112.029C18.1177 117.436 21.6088 122.099 26.2558 125.313C30.9028 128.526 36.4531 130.116 42.068 129.841C47.6828 129.566 53.057 127.442 57.3785 123.79C59.9613 130.196 64.2841 135.724 69.8424 139.729C75.4008 143.733 81.9655 146.05 88.7706 146.407C95.5756 146.764 102.34 145.148 108.276 141.747C114.211 138.347 119.072 133.301 122.291 127.199C128.075 129.609 134.474 130.038 140.519 128.422C146.565 126.805 151.927 123.231 155.793 118.241C159.66 113.251 161.821 107.117 161.948 100.767C162.076 94.4174 160.163 88.1986 156.499 83.0525C163.122 82.6916 169.356 79.7621 173.914 74.8684C178.473 69.9747 181.01 63.4901 181 56.7522Z" fill="white" stroke="#006466" stroke-miterlimit="10"/>
<path d="M163.245 139.282C168.856 136.499 171.726 130.747 169.654 126.435C167.582 122.123 161.353 120.883 155.741 123.667C150.129 126.45 147.26 132.202 149.332 136.514C151.404 140.826 157.633 142.065 163.245 139.282Z" fill="white" stroke="#006466" stroke-miterlimit="10"/>
<path d="M162.472 152.223C164.026 155.454 168.695 156.384 172.892 154.308C177.09 152.232 179.244 147.911 177.69 144.671C176.137 141.43 171.478 140.51 167.271 142.595C163.064 144.68 160.919 148.992 162.472 152.223Z" fill="white" stroke="#006466" stroke-miterlimit="10"/>
<path d="M28.4886 63.912V65.868C28.4886 66.66 28.6966 67.216 29.1126 67.536C29.5286 67.856 30.2526 68.016 31.2846 68.016C32.2766 68.016 32.9686 67.892 33.3606 67.644C33.8646 67.34 34.1286 66.792 34.1526 66H33.2406L32.8206 65.484V65.148H35.4966V66H35.1726C35.1486 66.968 34.8166 67.704 34.1766 68.208C33.6166 68.648 32.8886 68.868 31.9926 68.868H30.6606C29.6606 68.868 28.8726 68.6 28.2966 68.064C27.7446 67.544 27.4686 66.82 27.4686 65.892V64.332L27.9846 63.912H28.4886ZM30.5886 69.564C30.7486 69.564 30.8846 69.62 30.9966 69.732C31.1166 69.852 31.1766 69.996 31.1766 70.164C31.1766 70.324 31.1166 70.46 30.9966 70.572C30.8846 70.692 30.7486 70.752 30.5886 70.752C30.4286 70.752 30.2886 70.692 30.1686 70.572C30.0566 70.46 30.0006 70.324 30.0006 70.164C30.0006 69.996 30.0566 69.852 30.1686 69.732C30.2886 69.62 30.4286 69.564 30.5886 69.564ZM32.0526 69.564C32.2126 69.564 32.3486 69.62 32.4606 69.732C32.5806 69.852 32.6406 69.996 32.6406 70.164C32.6406 70.324 32.5806 70.46 32.4606 70.572C32.3486 70.692 32.2126 70.752 32.0526 70.752C31.8846 70.752 31.7406 70.692 31.6206 70.572C31.5086 70.46 31.4526 70.324 31.4526 70.164C31.4526 69.996 31.5086 69.852 31.6206 69.732C31.7406 69.62 31.8846 69.564 32.0526 69.564ZM37.248 65.148C36.728 64.612 36.468 63.924 36.468 63.084C36.468 62.188 36.764 61.484 37.356 60.972C37.852 60.548 38.492 60.336 39.276 60.336C39.7 60.336 40.144 60.404 40.608 60.54V61.344C40.136 61.224 39.724 61.164 39.372 61.164C38.78 61.164 38.316 61.348 37.98 61.716C37.652 62.076 37.488 62.576 37.488 63.216C37.488 63.736 37.664 64.196 38.016 64.596C38.344 64.964 38.724 65.148 39.156 65.148H41.58V65.484L41.16 66H34.62V65.148H37.248ZM43.9339 57.408V64.692C43.9339 64.82 43.9739 64.928 44.0539 65.016C44.1419 65.104 44.2539 65.148 44.3899 65.148H44.5459V66H43.9939C43.7379 66 43.5139 65.916 43.3219 65.748C43.0499 65.516 42.9139 65.22 42.9139 64.86V57.408H43.9339ZM47.1277 57.84C47.2957 57.84 47.4357 57.9 47.5477 58.02C47.6677 58.132 47.7277 58.268 47.7277 58.428C47.7277 58.596 47.6677 58.74 47.5477 58.86C47.4357 58.972 47.2957 59.028 47.1277 59.028C46.9677 59.028 46.8277 58.972 46.7077 58.86C46.5957 58.74 46.5397 58.596 46.5397 58.428C46.5397 58.268 46.5957 58.132 46.7077 58.02C46.8277 57.9 46.9677 57.84 47.1277 57.84ZM47.6437 60.48V64.86C47.6437 64.956 47.6317 65.052 47.6077 65.148H48.2437V66H47.7757L47.4277 65.58H47.3917C47.1757 65.86 46.8957 66 46.5517 66H44.4637V65.148H46.1677C46.2957 65.148 46.3997 65.108 46.4797 65.028C46.5757 64.94 46.6237 64.828 46.6237 64.692V60.48H47.6437ZM51.3231 57.408V63.12C52.4111 61.264 53.8471 60.336 55.6311 60.336C56.5911 60.336 57.3631 60.628 57.9471 61.212C58.4751 61.748 58.7391 62.432 58.7391 63.264V64.86C58.7391 64.964 58.7271 65.06 58.7031 65.148H59.1231V66H58.8711L58.5231 65.58H58.4871C58.2631 65.86 57.9831 66 57.6471 66H48.1551V65.148H50.3151V57.408H51.3231ZM57.7071 63.156C57.7071 62.492 57.4591 61.984 56.9631 61.632C56.5791 61.352 56.0871 61.212 55.4871 61.212C54.8071 61.212 54.1671 61.42 53.5671 61.836C52.6391 62.492 51.8911 63.596 51.3231 65.148H57.2631C57.5591 65.148 57.7071 64.996 57.7071 64.692V63.156ZM62.2101 63.108C63.3061 61.252 64.7341 60.324 66.4941 60.324C67.4621 60.324 68.2381 60.624 68.8221 61.224C69.3501 61.76 69.6141 62.44 69.6141 63.264V64.86C69.6141 65.196 69.4981 65.476 69.2661 65.7C69.0581 65.9 68.8141 66 68.5341 66H59.0301V65.148H61.1901V60.48H62.2101V63.108ZM68.5941 63.156C68.5861 62.508 68.3461 62.008 67.8741 61.656C67.4741 61.36 66.9741 61.212 66.3741 61.212C65.7261 61.212 65.1141 61.4 64.5381 61.776C63.5781 62.416 62.8021 63.54 62.2101 65.148H68.1381C68.4421 65.148 68.5941 64.996 68.5941 64.692V63.156ZM72.1293 57.408V65.88L71.6133 66.3H71.1093V57.408H72.1293ZM70.7373 69.12C70.5693 68.904 70.4853 68.64 70.4853 68.328C70.4853 68.016 70.5773 67.764 70.7613 67.572C70.9453 67.388 71.1893 67.296 71.4933 67.296C71.6773 67.296 71.8693 67.328 72.0693 67.392V67.884C71.9253 67.844 71.7853 67.824 71.6493 67.824C71.2333 67.824 71.0253 68.036 71.0253 68.46C71.0253 68.612 71.0773 68.752 71.1813 68.88C71.3093 69.04 71.4813 69.12 71.6973 69.12H72.4653V69.324L72.2253 69.612H70.2092V69.12H70.7373ZM76.7358 65.628C76.5198 65.476 76.3358 65.296 76.1838 65.088C75.8318 64.592 75.6558 63.964 75.6558 63.204C75.6558 62.324 75.9118 61.64 76.4238 61.152C76.8798 60.72 77.4918 60.504 78.2598 60.504C78.5798 60.504 78.9198 60.544 79.2798 60.624V61.464C78.9358 61.384 78.6318 61.344 78.3678 61.344C77.2478 61.344 76.6878 61.984 76.6878 63.264C76.6878 63.824 76.8278 64.26 77.1078 64.572C77.3958 64.884 77.7958 65.04 78.3078 65.04C78.3638 65.04 78.4238 65.04 78.4878 65.04C79.3038 64.928 79.9478 64.872 80.4198 64.872C80.4518 64.872 80.4918 64.872 80.5398 64.872V65.232L80.1198 65.748C79.4398 65.748 78.7278 65.86 77.9838 66.084C77.2158 66.316 76.5358 66.632 75.9438 67.032L75.4998 66.324C75.7718 66.124 76.1838 65.892 76.7358 65.628ZM82.641 57.408V64.692C82.641 64.82 82.681 64.928 82.761 65.016C82.849 65.104 82.961 65.148 83.097 65.148H83.253V66H82.701C82.445 66 82.221 65.916 82.029 65.748C81.757 65.516 81.621 65.22 81.621 64.86V57.408H82.641ZM88.5948 57.228V58.164L85.5828 59.952C86.8308 60.288 87.8148 60.912 88.5348 61.824C89.1908 62.656 89.5188 63.616 89.5188 64.704C89.5188 65.088 89.4188 65.4 89.2188 65.64C89.0188 65.88 88.7588 66 88.4388 66H83.1707V65.148H88.0428C88.3548 65.148 88.5108 64.988 88.5108 64.668C88.4708 63.836 88.2268 63.104 87.7788 62.472C87.1388 61.544 86.1148 60.984 84.7068 60.792C84.6588 60.792 84.6348 60.764 84.6348 60.708V59.52L88.5948 57.228ZM92.4717 57.84C92.6317 57.84 92.7677 57.9 92.8797 58.02C92.9997 58.132 93.0597 58.268 93.0597 58.428C93.0597 58.596 92.9997 58.74 92.8797 58.86C92.7677 58.972 92.6317 59.028 92.4717 59.028C92.3117 59.028 92.1717 58.972 92.0517 58.86C91.9397 58.74 91.8837 58.596 91.8837 58.428C91.8837 58.268 91.9397 58.132 92.0517 58.02C92.1717 57.9 92.3117 57.84 92.4717 57.84ZM91.8597 60.408C92.1477 60.36 92.4557 60.336 92.7837 60.336C93.6717 60.336 94.3877 60.604 94.9317 61.14C95.4197 61.636 95.6637 62.264 95.6637 63.024V64.86C95.6637 65.172 95.5637 65.436 95.3637 65.652C95.1557 65.884 94.8997 66 94.5957 66H90.6477V65.148H94.1997C94.4957 65.148 94.6437 64.996 94.6437 64.692V63.168C94.6437 62.6 94.4717 62.128 94.1277 61.752C93.7597 61.368 93.1917 61.172 92.4237 61.164C92.1997 61.164 92.0117 61.18 91.8597 61.212V60.408ZM103.61 60.156C103.77 60.156 103.906 60.216 104.018 60.336C104.138 60.448 104.198 60.588 104.198 60.756C104.198 60.916 104.138 61.056 104.018 61.176C103.906 61.288 103.77 61.344 103.61 61.344C103.442 61.344 103.302 61.288 103.19 61.176C103.078 61.056 103.022 60.916 103.022 60.756C103.022 60.588 103.078 60.448 103.19 60.336C103.302 60.216 103.442 60.156 103.61 60.156ZM105.062 60.156C105.23 60.156 105.37 60.216 105.482 60.336C105.602 60.448 105.662 60.588 105.662 60.756C105.662 60.916 105.602 61.056 105.482 61.176C105.37 61.288 105.23 61.344 105.062 61.344C104.902 61.344 104.762 61.288 104.642 61.176C104.53 61.056 104.474 60.916 104.474 60.756C104.474 60.588 104.53 60.448 104.642 60.336C104.762 60.216 104.902 60.156 105.062 60.156ZM109.238 60.48V64.86C109.238 65.148 109.15 65.396 108.974 65.604C108.75 65.868 108.478 66 108.158 66H101.294C100.83 66 100.43 65.848 100.094 65.544C99.638 65.152 99.41 64.644 99.41 64.02V61.764L99.926 61.344H100.43V64.02C100.43 64.332 100.542 64.596 100.766 64.812C100.982 65.036 101.254 65.148 101.582 65.148H107.762C108.066 65.148 108.218 64.996 108.218 64.692V60.48H109.238ZM113.438 66C112.526 66 111.826 65.696 111.338 65.088C110.93 64.584 110.726 63.936 110.726 63.144C110.726 62.24 110.998 61.536 111.542 61.032C112.03 60.568 112.674 60.336 113.474 60.336C114.098 60.336 114.618 60.492 115.034 60.804C115.538 61.196 115.79 61.768 115.79 62.52V65.148H116.174V66H115.79C115.758 66.84 115.506 67.5 115.034 67.98C114.674 68.348 114.206 68.6 113.63 68.736C113.302 68.816 112.958 68.856 112.598 68.856C112.406 68.856 112.222 68.852 112.046 68.844L111.65 68.352V67.968C111.89 68 112.142 68.016 112.406 68.016C113.934 68.016 114.718 67.344 114.758 66H113.438ZM114.758 62.52C114.758 62.112 114.638 61.788 114.398 61.548C114.166 61.316 113.858 61.2 113.474 61.2C112.938 61.2 112.514 61.38 112.202 61.74C111.898 62.1 111.746 62.6 111.746 63.24C111.746 63.808 111.902 64.268 112.214 64.62C112.526 64.972 112.93 65.148 113.426 65.148H114.758V62.52ZM119.257 60.48V64.86C119.257 65.156 119.161 65.412 118.969 65.628C118.753 65.876 118.485 66 118.165 66H116.077V65.148H117.781C117.917 65.148 118.029 65.1 118.117 65.004C118.197 64.924 118.237 64.82 118.237 64.692V60.48H119.257ZM118.441 67.248C118.601 67.248 118.737 67.304 118.849 67.416C118.969 67.536 119.029 67.676 119.029 67.836C119.029 68.004 118.969 68.144 118.849 68.256C118.737 68.376 118.601 68.436 118.441 68.436C118.281 68.436 118.141 68.376 118.021 68.256C117.909 68.144 117.853 68.004 117.853 67.836C117.853 67.676 117.909 67.536 118.021 67.416C118.141 67.304 118.281 67.248 118.441 67.248ZM124.778 65.88C124.362 66.032 123.926 66.108 123.47 66.108C122.606 66.108 121.922 65.804 121.418 65.196C120.97 64.66 120.746 63.976 120.746 63.144C120.746 62.304 120.982 61.632 121.454 61.128C121.958 60.6 122.638 60.336 123.494 60.336C124.142 60.336 124.67 60.5 125.078 60.828C125.566 61.22 125.81 61.784 125.81 62.52V65.892C125.802 66.916 125.466 67.688 124.802 68.208C124.466 68.472 124.062 68.656 123.59 68.76C123.278 68.824 122.954 68.856 122.618 68.856C122.426 68.856 122.242 68.852 122.066 68.844L121.67 68.352V67.968C121.91 68 122.162 68.016 122.426 68.016C123.986 68.016 124.77 67.304 124.778 65.88ZM124.778 62.52C124.778 62.024 124.602 61.652 124.25 61.404C124.05 61.268 123.798 61.2 123.494 61.2C122.958 61.2 122.534 61.38 122.222 61.74C121.918 62.1 121.766 62.6 121.766 63.24C121.766 63.848 121.942 64.328 122.294 64.68C122.606 65.008 123.022 65.172 123.542 65.172C123.998 65.172 124.41 65.1 124.778 64.956V62.52ZM130.457 60.48V65.892C130.457 66.78 130.205 67.48 129.701 67.992C129.309 68.392 128.781 68.656 128.117 68.784C127.861 68.832 127.581 68.856 127.277 68.856C127.085 68.856 126.901 68.852 126.725 68.844L126.329 68.352V67.968C126.561 68 126.813 68.016 127.085 68.016C128.653 68.016 129.437 67.296 129.437 65.856V60.48H130.457ZM135.352 57.408V64.692C135.352 64.82 135.392 64.928 135.472 65.016C135.56 65.104 135.672 65.148 135.808 65.148H135.964V66H135.412C135.156 66 134.932 65.916 134.74 65.748C134.468 65.516 134.332 65.22 134.332 64.86V57.408H135.352ZM138.546 57.84C138.714 57.84 138.854 57.9 138.966 58.02C139.086 58.132 139.146 58.268 139.146 58.428C139.146 58.596 139.086 58.74 138.966 58.86C138.854 58.972 138.714 59.028 138.546 59.028C138.386 59.028 138.246 58.972 138.126 58.86C138.014 58.74 137.958 58.596 137.958 58.428C137.958 58.268 138.014 58.132 138.126 58.02C138.246 57.9 138.386 57.84 138.546 57.84ZM139.062 60.48V64.86C139.062 65.156 138.966 65.412 138.774 65.628C138.558 65.876 138.29 66 137.97 66H135.882V65.148H137.586C137.722 65.148 137.834 65.1 137.922 65.004C138.002 64.924 138.042 64.82 138.042 64.692V60.48H139.062ZM140.503 56.016C140.335 55.8 140.251 55.536 140.251 55.224C140.251 54.912 140.343 54.664 140.527 54.48C140.711 54.288 140.955 54.192 141.259 54.192C141.451 54.192 141.643 54.224 141.835 54.288V54.78C141.691 54.74 141.551 54.72 141.415 54.72C140.999 54.72 140.791 54.932 140.791 55.356C140.791 55.508 140.843 55.648 140.947 55.776C141.075 55.936 141.247 56.016 141.463 56.016H142.231V56.22L141.991 56.508H139.975V56.016H140.503ZM141.739 57.408V65.88L141.223 66.3H140.719V57.408H141.739ZM17.2328 78.868C17.2328 79.66 17.4408 80.212 17.8568 80.524C18.2808 80.844 19.0168 81.004 20.0648 81.004C20.9608 81.004 21.6128 80.92 22.0208 80.752C22.6128 80.504 22.9088 80.068 22.9088 79.444C22.9088 79.028 22.8008 78.72 22.5848 78.52C22.3688 78.32 21.9408 78.128 21.3008 77.944C20.4928 77.712 19.9328 77.452 19.6208 77.164C19.2448 76.812 19.0568 76.308 19.0568 75.652C19.0568 74.844 19.3008 74.24 19.7888 73.84C20.1968 73.504 20.7528 73.336 21.4568 73.336C21.9128 73.336 22.3888 73.412 22.8848 73.564V74.356C22.3488 74.228 21.9168 74.164 21.5888 74.164C20.5648 74.164 20.0528 74.66 20.0528 75.652C20.0528 76.044 20.1648 76.34 20.3888 76.54C20.6128 76.74 21.0408 76.936 21.6728 77.128C22.4648 77.368 23.0208 77.644 23.3408 77.956C23.7008 78.324 23.8808 78.828 23.8808 79.468C23.8808 80.348 23.5088 80.996 22.7648 81.412C22.2208 81.716 21.5448 81.868 20.7368 81.868H19.4048C18.4048 81.868 17.6168 81.6 17.0408 81.064C16.4888 80.552 16.2128 79.828 16.2128 78.892V77.332L16.7288 76.912H17.2328V78.868ZM25.0436 69.016C24.8756 68.8 24.7916 68.536 24.7916 68.224C24.7916 67.912 24.8836 67.664 25.0676 67.48C25.2516 67.288 25.4956 67.192 25.7996 67.192C25.9916 67.192 26.1836 67.224 26.3756 67.288V67.78C26.2316 67.74 26.0916 67.72 25.9556 67.72C25.5396 67.72 25.3316 67.932 25.3316 68.356C25.3316 68.508 25.3836 68.648 25.4876 68.776C25.6156 68.936 25.7876 69.016 26.0036 69.016H26.7716V69.22L26.5316 69.508H24.5156V69.016H25.0436ZM26.2796 70.408V78.88L25.7636 79.3H25.2596V70.408H26.2796ZM28.7835 73.408C29.0715 73.36 29.3795 73.336 29.7075 73.336C30.5955 73.336 31.3115 73.604 31.8555 74.14C32.3435 74.636 32.5875 75.264 32.5875 76.024V77.86C32.5875 77.964 32.5795 78.06 32.5635 78.148H32.8995V79H32.7195L32.3835 78.58H32.3475C32.2835 78.66 32.2115 78.732 32.1315 78.796C31.9395 78.932 31.7315 79 31.5075 79H27.5715V78.148H31.1235C31.4195 78.148 31.5675 77.996 31.5675 77.692V76.168C31.5675 75.6 31.3955 75.128 31.0515 74.752C30.6835 74.368 30.1155 74.172 29.3475 74.164C29.1235 74.164 28.9355 74.18 28.7835 74.212V73.408ZM35.9777 73.48V77.86C35.9777 77.956 35.9657 78.052 35.9417 78.148H36.5777V79H36.1097L35.7617 78.58H35.7257C35.5097 78.86 35.2297 79 34.8857 79H32.7977V78.148H34.5017C34.6297 78.148 34.7337 78.108 34.8137 78.028C34.9097 77.94 34.9577 77.828 34.9577 77.692V73.48H35.9777ZM35.3777 80.248C35.5457 80.248 35.6857 80.304 35.7977 80.416C35.9177 80.536 35.9777 80.676 35.9777 80.836C35.9777 81.004 35.9177 81.144 35.7977 81.256C35.6857 81.376 35.5457 81.436 35.3777 81.436C35.2177 81.436 35.0777 81.376 34.9577 81.256C34.8457 81.144 34.7897 81.004 34.7897 80.836C34.7897 80.676 34.8457 80.536 34.9577 80.416C35.0777 80.304 35.2177 80.248 35.3777 80.248ZM38.8531 78.148C38.5251 77.612 38.3611 77 38.3611 76.312C38.3611 75.344 38.6331 74.596 39.1771 74.068C39.6651 73.604 40.3091 73.364 41.1091 73.348C41.6851 73.348 42.1611 73.472 42.5371 73.72C43.1131 74.104 43.4011 74.704 43.4011 75.52V77.692C43.4011 77.804 43.4291 77.9 43.4851 77.98C43.5571 78.084 43.6531 78.14 43.7731 78.148H43.7971V79H43.4971C43.1371 79 42.8491 78.86 42.6331 78.58C42.2011 79.1 41.6531 79.36 40.9891 79.36C40.2931 79.36 39.6891 79.1 39.1771 78.58H39.1531L38.8171 79H36.4891V78.148H38.8531ZM42.3811 75.52C42.3811 75.104 42.2491 74.772 41.9851 74.524C41.7531 74.308 41.4531 74.2 41.0851 74.2C40.5731 74.2 40.1611 74.392 39.8491 74.776C39.5371 75.152 39.3811 75.648 39.3811 76.264C39.3811 76.912 39.5451 77.452 39.8731 77.884C40.1851 78.3 40.5771 78.508 41.0491 78.508C41.5131 78.508 41.9571 78.296 42.3811 77.872V75.52ZM46.8761 70.408V77.86C46.8761 78.172 46.7721 78.436 46.5641 78.652C46.3481 78.884 46.0881 79 45.7841 79H43.6961V78.148H45.4001C45.5521 78.148 45.6681 78.096 45.7481 77.992C45.8201 77.904 45.8561 77.804 45.8561 77.692V70.408H46.8761ZM49.5531 70.408V78.88L49.0371 79.3H48.5331V70.408H49.5531ZM61.1001 76.12C62.1881 74.264 63.6321 73.336 65.4321 73.336C66.3761 73.336 67.1401 73.632 67.7241 74.224C68.2521 74.76 68.5161 75.44 68.5161 76.264V77.86C68.5161 77.964 68.5041 78.06 68.4801 78.148H68.9001V79H68.6481L68.3001 78.58H68.2641C68.0401 78.86 67.7601 79 67.4241 79H61.1121C61.0881 79.904 60.7961 80.608 60.2361 81.112C59.6681 81.616 58.9001 81.868 57.9321 81.868H56.6001C55.6481 81.868 54.8881 81.624 54.3201 81.136C53.7121 80.616 53.4081 79.868 53.4081 78.892V76.384L53.9241 75.964H54.4281V78.868C54.4281 79.668 54.6361 80.224 55.0521 80.536C55.4761 80.856 56.2161 81.016 57.2721 81.016C58.2641 81.016 58.9641 80.88 59.3721 80.608C59.8521 80.28 60.0921 79.7 60.0921 78.868L60.0801 73.48H61.1001V76.12ZM67.4841 76.156C67.4841 75.476 67.2241 74.96 66.7041 74.608C66.3201 74.344 65.8401 74.212 65.2641 74.212C64.5281 74.212 63.8481 74.452 63.2241 74.932C62.3521 75.604 61.6441 76.676 61.1001 78.148H67.0401C67.3361 78.148 67.4841 77.996 67.4841 77.692V76.156ZM71.9894 73.48V77.86C71.9894 77.956 71.9774 78.052 71.9534 78.148H72.5894V79H72.1214L71.7734 78.58H71.7374C71.5214 78.86 71.2414 79 70.8974 79H68.8094V78.148H70.5134C70.6414 78.148 70.7454 78.108 70.8254 78.028C70.9214 77.94 70.9694 77.828 70.9694 77.692V73.48H71.9894ZM69.9374 80.248C70.0974 80.248 70.2334 80.304 70.3454 80.416C70.4654 80.536 70.5254 80.676 70.5254 80.836C70.5254 81.004 70.4654 81.144 70.3454 81.256C70.2334 81.376 70.0974 81.436 69.9374 81.436C69.7774 81.436 69.6374 81.376 69.5174 81.256C69.4054 81.144 69.3494 81.004 69.3494 80.836C69.3494 80.676 69.4054 80.536 69.5174 80.416C69.6374 80.304 69.7774 80.248 69.9374 80.248ZM71.3894 80.248C71.5574 80.248 71.6974 80.304 71.8094 80.416C71.9294 80.536 71.9894 80.676 71.9894 80.836C71.9894 81.004 71.9294 81.144 71.8094 81.256C71.6974 81.376 71.5574 81.436 71.3894 81.436C71.2294 81.436 71.0894 81.376 70.9694 81.256C70.8574 81.144 70.8014 81.004 70.8014 80.836C70.8014 80.676 70.8574 80.536 70.9694 80.416C71.0894 80.304 71.2294 80.248 71.3894 80.248ZM76.2928 70.84C76.4608 70.84 76.6008 70.9 76.7128 71.02C76.8248 71.132 76.8808 71.268 76.8808 71.428C76.8808 71.596 76.8248 71.74 76.7128 71.86C76.6008 71.972 76.4608 72.028 76.2928 72.028C76.1328 72.028 75.9928 71.972 75.8728 71.86C75.7608 71.74 75.7048 71.596 75.7048 71.428C75.7048 71.268 75.7608 71.132 75.8728 71.02C75.9928 70.9 76.1328 70.84 76.2928 70.84ZM74.0968 73.684C74.8328 73.452 75.5208 73.336 76.1608 73.336C77.1528 73.336 77.9088 73.644 78.4288 74.26C78.8768 74.788 79.1008 75.48 79.1008 76.336V77.86C79.1008 77.956 79.0888 78.052 79.0648 78.148H79.4848V79H79.2328L78.8968 78.58H78.8608C78.6368 78.86 78.3568 79 78.0208 79H72.5008V78.148H77.6248C77.9288 78.148 78.0808 77.996 78.0808 77.692V76.3C78.0808 75.676 77.9168 75.184 77.5888 74.824C77.2288 74.424 76.7048 74.224 76.0168 74.224C75.6008 74.224 74.9608 74.312 74.0968 74.488V73.684ZM86.7352 69.688C86.8952 69.688 87.0272 69.744 87.1312 69.856C87.2432 69.968 87.2992 70.1 87.2992 70.252C87.2992 70.404 87.2432 70.536 87.1312 70.648C87.0272 70.76 86.8952 70.816 86.7352 70.816C86.5832 70.816 86.4512 70.76 86.3392 70.648C86.2272 70.536 86.1712 70.404 86.1712 70.252C86.1712 70.1 86.2272 69.968 86.3392 69.856C86.4512 69.744 86.5832 69.688 86.7352 69.688ZM86.0152 70.84C86.1752 70.84 86.3112 70.9 86.4232 71.02C86.5432 71.132 86.6032 71.268 86.6032 71.428C86.6032 71.596 86.5432 71.74 86.4232 71.86C86.3112 71.972 86.1752 72.028 86.0152 72.028C85.8472 72.028 85.7032 71.972 85.5832 71.86C85.4712 71.74 85.4152 71.596 85.4152 71.428C85.4152 71.268 85.4712 71.132 85.5832 71.02C85.7032 70.9 85.8472 70.84 86.0152 70.84ZM87.4672 70.84C87.6272 70.84 87.7632 70.9 87.8752 71.02C87.9952 71.132 88.0552 71.268 88.0552 71.428C88.0552 71.596 87.9952 71.74 87.8752 71.86C87.7632 71.972 87.6272 72.028 87.4672 72.028C87.3072 72.028 87.1672 71.972 87.0472 71.86C86.9352 71.74 86.8792 71.596 86.8792 71.428C86.8792 71.268 86.9352 71.132 87.0472 71.02C87.1672 70.9 87.3072 70.84 87.4672 70.84ZM90.8152 73.48V77.86C90.8152 77.964 90.8032 78.06 90.7792 78.148H91.4272V79H90.9472L90.6112 78.58H90.5752C90.3512 78.86 90.0712 79 89.7352 79H87.3712L87.0352 78.58H86.9992C86.7752 78.86 86.4952 79 86.1592 79H83.7952L83.4592 78.58H83.4232C83.1992 78.86 82.9192 79 82.5832 79H79.4032V78.148H82.1872C82.4912 78.148 82.6432 77.996 82.6432 77.692V74.86H83.6632V77.86C83.6632 77.964 83.6552 78.06 83.6392 78.148H85.7632C86.0672 78.148 86.2192 77.996 86.2192 77.692V74.164H87.2392V77.86C87.2392 77.964 87.2272 78.06 87.2032 78.148H89.3392C89.6432 78.148 89.7952 77.996 89.7952 77.692V73.48H90.8152ZM92.5689 70.84C92.7369 70.84 92.8769 70.9 92.9889 71.02C93.1009 71.132 93.1569 71.268 93.1569 71.428C93.1569 71.596 93.1009 71.74 92.9889 71.86C92.8769 71.972 92.7369 72.028 92.5689 72.028C92.4089 72.028 92.2689 71.972 92.1489 71.86C92.0369 71.74 91.9809 71.596 91.9809 71.428C91.9809 71.268 92.0369 71.132 92.1489 71.02C92.2689 70.9 92.4089 70.84 92.5689 70.84ZM94.0329 70.84C94.1929 70.84 94.3289 70.9 94.4409 71.02C94.5609 71.132 94.6209 71.268 94.6209 71.428C94.6209 71.596 94.5609 71.74 94.4409 71.86C94.3289 71.972 94.1929 72.028 94.0329 72.028C93.8649 72.028 93.7209 71.972 93.6009 71.86C93.4889 71.74 93.4329 71.596 93.4329 71.428C93.4329 71.268 93.4889 71.132 93.6009 71.02C93.7209 70.9 93.8649 70.84 94.0329 70.84ZM94.5129 73.48V77.86C94.5129 77.956 94.5009 78.052 94.4769 78.148H95.1129V79H94.6449L94.2969 78.58H94.2609C94.0449 78.86 93.7649 79 93.4209 79H91.3329V78.148H93.0369C93.1649 78.148 93.2689 78.108 93.3489 78.028C93.4449 77.94 93.4929 77.828 93.4929 77.692V73.48H94.5129ZM98.2043 70.408V77.86C98.2043 77.956 98.1923 78.052 98.1683 78.148H98.8043V79H98.3843L97.9883 78.58H97.9523C97.7363 78.86 97.4563 79 97.1123 79H95.0243V78.148H96.7283C96.8803 78.148 97.0003 78.088 97.0883 77.968C97.1523 77.888 97.1843 77.796 97.1843 77.692V70.408H98.2043ZM101.896 70.408V77.86C101.896 78.172 101.792 78.436 101.584 78.652C101.368 78.884 101.108 79 100.804 79H98.7157V78.148H100.42C100.572 78.148 100.688 78.096 100.768 77.992C100.84 77.904 100.876 77.804 100.876 77.692V70.408H101.896ZM110.64 73.156V76.936C110.64 77.584 110.456 78.096 110.088 78.472C109.68 78.896 109.064 79.108 108.24 79.108C107.52 79.108 106.936 78.924 106.488 78.556C105.888 78.06 105.588 77.312 105.588 76.312C105.588 75.408 105.864 74.664 106.416 74.08C106.928 73.544 107.568 73.276 108.336 73.276C108.76 73.276 109.188 73.372 109.62 73.564L110.136 73.156H110.64ZM109.62 74.404C109.268 74.228 108.912 74.14 108.552 74.14C107.92 74.14 107.424 74.388 107.064 74.884C106.76 75.284 106.608 75.764 106.608 76.324C106.608 76.94 106.752 77.416 107.04 77.752C107.328 78.088 107.728 78.256 108.24 78.256C108.72 78.256 109.072 78.132 109.296 77.884C109.512 77.644 109.62 77.324 109.62 76.924V74.404ZM114.147 71.86C113.979 71.644 113.895 71.384 113.895 71.08C113.895 70.768 113.987 70.516 114.171 70.324C114.355 70.132 114.599 70.036 114.903 70.036C115.095 70.036 115.287 70.072 115.479 70.144V70.636C115.335 70.596 115.195 70.576 115.059 70.576C114.643 70.576 114.435 70.784 114.435 71.2C114.435 71.36 114.487 71.504 114.591 71.632C114.719 71.784 114.891 71.86 115.107 71.86H115.875V72.064L115.647 72.352H113.619V71.86H114.147ZM115.995 78.88C115.579 79.032 115.143 79.108 114.687 79.108C113.823 79.108 113.139 78.804 112.635 78.196C112.187 77.66 111.963 76.976 111.963 76.144C111.963 75.304 112.199 74.632 112.671 74.128C113.175 73.6 113.855 73.336 114.711 73.336C115.359 73.336 115.887 73.5 116.295 73.828C116.783 74.22 117.027 74.784 117.027 75.52V78.892C117.019 79.916 116.683 80.688 116.019 81.208C115.683 81.472 115.279 81.656 114.807 81.76C114.495 81.824 114.171 81.856 113.835 81.856C113.643 81.856 113.459 81.852 113.283 81.844L112.887 81.352V80.968C113.127 81 113.379 81.016 113.643 81.016C115.203 81.016 115.987 80.304 115.995 78.88ZM115.995 75.52C115.995 75.024 115.819 74.652 115.467 74.404C115.267 74.268 115.015 74.2 114.711 74.2C114.175 74.2 113.751 74.38 113.439 74.74C113.135 75.1 112.983 75.6 112.983 76.24C112.983 76.848 113.159 77.328 113.511 77.68C113.823 78.008 114.239 78.172 114.759 78.172C115.215 78.172 115.627 78.1 115.995 77.956V75.52ZM119.537 70.408V77.692C119.537 77.82 119.577 77.928 119.657 78.016C119.745 78.104 119.857 78.148 119.993 78.148H120.149V79H119.597C119.341 79 119.117 78.916 118.925 78.748C118.653 78.516 118.517 78.22 118.517 77.86V70.408H119.537ZM127.399 69.688C127.559 69.688 127.691 69.744 127.795 69.856C127.907 69.968 127.963 70.1 127.963 70.252C127.963 70.404 127.907 70.536 127.795 70.648C127.691 70.76 127.559 70.816 127.399 70.816C127.247 70.816 127.115 70.76 127.003 70.648C126.891 70.536 126.835 70.404 126.835 70.252C126.835 70.1 126.891 69.968 127.003 69.856C127.115 69.744 127.247 69.688 127.399 69.688ZM126.679 70.84C126.839 70.84 126.975 70.9 127.087 71.02C127.207 71.132 127.267 71.268 127.267 71.428C127.267 71.596 127.207 71.74 127.087 71.86C126.975 71.972 126.839 72.028 126.679 72.028C126.511 72.028 126.367 71.972 126.247 71.86C126.135 71.74 126.079 71.596 126.079 71.428C126.079 71.268 126.135 71.132 126.247 71.02C126.367 70.9 126.511 70.84 126.679 70.84ZM128.131 70.84C128.291 70.84 128.427 70.9 128.539 71.02C128.659 71.132 128.719 71.268 128.719 71.428C128.719 71.596 128.659 71.74 128.539 71.86C128.427 71.972 128.291 72.028 128.131 72.028C127.971 72.028 127.831 71.972 127.711 71.86C127.599 71.74 127.543 71.596 127.543 71.428C127.543 71.268 127.599 71.132 127.711 71.02C127.831 70.9 127.971 70.84 128.131 70.84ZM131.479 73.48V77.86C131.479 77.964 131.467 78.06 131.443 78.148H132.091V79H131.611L131.275 78.58H131.239C131.015 78.86 130.735 79 130.399 79H128.035L127.699 78.58H127.663C127.439 78.86 127.159 79 126.823 79H124.459L124.123 78.58H124.087C123.863 78.86 123.583 79 123.247 79H120.067V78.148H122.851C123.155 78.148 123.307 77.996 123.307 77.692V74.86H124.327V77.86C124.327 77.964 124.319 78.06 124.303 78.148H126.427C126.731 78.148 126.883 77.996 126.883 77.692V74.164H127.903V77.86C127.903 77.964 127.891 78.06 127.867 78.148H130.003C130.307 78.148 130.459 77.996 130.459 77.692V73.48H131.479ZM134.661 70.84C134.829 70.84 134.969 70.9 135.081 71.02C135.201 71.132 135.261 71.268 135.261 71.428C135.261 71.596 135.201 71.74 135.081 71.86C134.969 71.972 134.829 72.028 134.661 72.028C134.501 72.028 134.361 71.972 134.241 71.86C134.129 71.74 134.073 71.596 134.073 71.428C134.073 71.268 134.129 71.132 134.241 71.02C134.361 70.9 134.501 70.84 134.661 70.84ZM135.177 73.48V77.86C135.177 78.156 135.081 78.412 134.889 78.628C134.673 78.876 134.405 79 134.085 79H131.997V78.148H133.701C133.837 78.148 133.949 78.1 134.037 78.004C134.117 77.924 134.157 77.82 134.157 77.692V73.48H135.177ZM137.854 70.408V78.88L137.338 79.3H136.834V70.408H137.854ZM136.462 82.12C136.294 81.904 136.21 81.64 136.21 81.328C136.21 81.016 136.302 80.764 136.486 80.572C136.67 80.388 136.914 80.296 137.218 80.296C137.402 80.296 137.594 80.328 137.794 80.392V80.884C137.65 80.844 137.51 80.824 137.374 80.824C136.958 80.824 136.75 81.036 136.75 81.46C136.75 81.612 136.802 81.752 136.906 81.88C137.034 82.04 137.206 82.12 137.422 82.12H138.19V82.324L137.95 82.612H135.934V82.12H136.462ZM142.808 78.148C142.376 77.692 142.16 77.048 142.16 76.216C142.184 75.272 142.468 74.544 143.012 74.032C143.492 73.592 144.124 73.364 144.908 73.348C145.564 73.348 146.092 73.512 146.492 73.84C146.972 74.224 147.212 74.784 147.212 75.52V77.692C147.212 77.836 147.252 77.948 147.332 78.028C147.396 78.1 147.472 78.14 147.56 78.148H147.596V79H147.296C147.16 79 147.032 78.976 146.912 78.928C146.736 78.872 146.576 78.756 146.432 78.58C146.216 78.724 145.964 78.832 145.676 78.904C145.404 78.968 144.996 79 144.452 79H142.7C142.396 79 142.244 79.152 142.244 79.456V83.056L141.728 83.476H141.224V79.276C141.224 78.948 141.34 78.672 141.572 78.448C141.788 78.248 142.036 78.148 142.316 78.148H142.808ZM146.18 75.52C146.18 75.16 146.08 74.856 145.88 74.608C145.64 74.336 145.308 74.2 144.884 74.2C144.38 74.2 143.968 74.384 143.648 74.752C143.336 75.112 143.18 75.584 143.18 76.168C143.18 76.8 143.336 77.292 143.648 77.644C143.96 77.988 144.404 78.16 144.98 78.16C145.468 78.16 145.868 78.064 146.18 77.872V75.52ZM148.737 70.84C148.905 70.84 149.045 70.9 149.157 71.02C149.269 71.132 149.325 71.268 149.325 71.428C149.325 71.596 149.269 71.74 149.157 71.86C149.045 71.972 148.905 72.028 148.737 72.028C148.577 72.028 148.437 71.972 148.317 71.86C148.205 71.74 148.149 71.596 148.149 71.428C148.149 71.268 148.205 71.132 148.317 71.02C148.437 70.9 148.577 70.84 148.737 70.84ZM150.201 70.84C150.361 70.84 150.497 70.9 150.609 71.02C150.729 71.132 150.789 71.268 150.789 71.428C150.789 71.596 150.729 71.74 150.609 71.86C150.497 71.972 150.361 72.028 150.201 72.028C150.033 72.028 149.889 71.972 149.769 71.86C149.657 71.74 149.601 71.596 149.601 71.428C149.601 71.268 149.657 71.132 149.769 71.02C149.889 70.9 150.033 70.84 150.201 70.84ZM150.681 73.48V77.86C150.681 78.156 150.585 78.412 150.393 78.628C150.177 78.876 149.909 79 149.589 79H147.501V78.148H149.205C149.341 78.148 149.453 78.1 149.541 78.004C149.621 77.924 149.661 77.82 149.661 77.692V73.48H150.681ZM20.178 86.336C20.338 86.336 20.474 86.396 20.586 86.516C20.706 86.628 20.766 86.764 20.766 86.924C20.766 87.092 20.706 87.236 20.586 87.356C20.474 87.468 20.338 87.524 20.178 87.524C20.018 87.524 19.878 87.468 19.758 87.356C19.646 87.236 19.59 87.092 19.59 86.924C19.59 86.764 19.646 86.628 19.758 86.516C19.878 86.396 20.018 86.336 20.178 86.336ZM24.138 86.48V91.148H24.75V92H24.138C24.114 92.952 23.794 93.68 23.178 94.184C22.61 94.64 21.87 94.868 20.958 94.868H19.626C18.738 94.868 18.014 94.656 17.454 94.232C16.774 93.712 16.434 92.932 16.434 91.892V89.384L16.95 88.964H17.454V91.868C17.454 92.668 17.662 93.224 18.078 93.536C18.502 93.856 19.238 94.016 20.286 94.016C21.286 94.016 21.99 93.88 22.398 93.608C22.878 93.28 23.118 92.7 23.118 91.868V86.48H24.138ZM30.1358 83.228V84.164L27.1238 85.952C28.3718 86.288 29.3558 86.912 30.0758 87.824C30.7318 88.656 31.0598 89.616 31.0598 90.704C31.0598 90.888 31.0478 91.036 31.0238 91.148H31.4318V92H31.1918L30.8438 91.58H30.8198C30.5798 91.86 30.2998 92 29.9798 92H24.7118V91.148H29.5838C29.8958 91.148 30.0518 90.988 30.0518 90.668C30.0118 89.836 29.7678 89.104 29.3198 88.472C28.6798 87.544 27.6558 86.984 26.2478 86.792C26.1998 86.792 26.1758 86.764 26.1758 86.708V85.52L30.1358 83.228ZM34.5129 83.408V90.86C34.5129 91.172 34.4089 91.436 34.2009 91.652C33.9849 91.884 33.7249 92 33.4209 92H31.3329V91.148H33.0369C33.1889 91.148 33.3049 91.096 33.3849 90.992C33.4569 90.904 33.4929 90.804 33.4929 90.692V83.408H34.5129ZM42.2369 91.88C41.8209 92.032 41.3849 92.108 40.9289 92.108C40.0649 92.108 39.3809 91.804 38.8769 91.196C38.4289 90.66 38.2049 89.976 38.2049 89.144C38.2049 88.304 38.4409 87.632 38.9129 87.128C39.4169 86.6 40.0969 86.336 40.9529 86.336C41.6009 86.336 42.1289 86.5 42.5369 86.828C43.0249 87.22 43.2689 87.784 43.2689 88.52V91.892C43.2609 92.916 42.9249 93.688 42.2609 94.208C41.9249 94.472 41.5209 94.656 41.0489 94.76C40.7369 94.824 40.4129 94.856 40.0769 94.856C39.8849 94.856 39.7009 94.852 39.5249 94.844L39.1289 94.352V93.968C39.3689 94 39.6209 94.016 39.8849 94.016C41.4449 94.016 42.2289 93.304 42.2369 91.88ZM42.2369 88.52C42.2369 88.024 42.0609 87.652 41.7089 87.404C41.5089 87.268 41.2569 87.2 40.9529 87.2C40.4169 87.2 39.9929 87.38 39.6809 87.74C39.3769 88.1 39.2249 88.6 39.2249 89.24C39.2249 89.848 39.4009 90.328 39.7529 90.68C40.0649 91.008 40.4809 91.172 41.0009 91.172C41.4569 91.172 41.8689 91.1 42.2369 90.956V88.52ZM48.3788 91.148C47.9468 90.692 47.7308 90.048 47.7308 89.216C47.7548 88.272 48.0388 87.544 48.5828 87.032C49.0628 86.592 49.6948 86.364 50.4788 86.348C51.1348 86.348 51.6628 86.512 52.0628 86.84C52.5428 87.224 52.7828 87.784 52.7828 88.52V90.692C52.7828 90.836 52.8228 90.948 52.9028 91.028C52.9668 91.1 53.0428 91.14 53.1308 91.148H53.1668V92H52.8668C52.7308 92 52.6028 91.976 52.4828 91.928C52.3068 91.872 52.1468 91.756 52.0028 91.58C51.7868 91.724 51.5348 91.832 51.2468 91.904C50.9748 91.968 50.5668 92 50.0228 92H48.2708C47.9668 92 47.8148 92.152 47.8148 92.456V96.056L47.2988 96.476H46.7948V92.276C46.7948 91.948 46.9108 91.672 47.1428 91.448C47.3588 91.248 47.6068 91.148 47.8868 91.148H48.3788ZM51.7508 88.52C51.7508 88.16 51.6508 87.856 51.4508 87.608C51.2108 87.336 50.8788 87.2 50.4548 87.2C49.9508 87.2 49.5388 87.384 49.2188 87.752C48.9068 88.112 48.7508 88.584 48.7508 89.168C48.7508 89.8 48.9068 90.292 49.2188 90.644C49.5308 90.988 49.9748 91.16 50.5508 91.16C51.0388 91.16 51.4388 91.064 51.7508 90.872V88.52ZM56.2511 83.408V90.86C56.2511 90.956 56.2391 91.052 56.2151 91.148H56.8511V92H56.4311L56.0351 91.58H55.9991C55.7831 91.86 55.5031 92 55.1591 92H53.0711V91.148H54.7751C54.9271 91.148 55.0471 91.088 55.1351 90.968C55.1991 90.888 55.2311 90.796 55.2311 90.692V83.408H56.2511ZM58.4305 88.436C58.7105 87.732 59.1785 87.184 59.8345 86.792C60.3625 86.488 60.9105 86.336 61.4785 86.336C62.0465 86.336 62.5905 86.488 63.1105 86.792C63.7745 87.184 64.2425 87.732 64.5145 88.436L64.4065 88.724C63.8545 88.956 63.4025 89.272 63.0505 89.672C62.6905 90.088 62.4625 90.58 62.3665 91.148H64.6345V92H62.1985C61.9585 92 61.7265 91.884 61.5025 91.652H61.4665C61.2505 91.884 61.0185 92 60.7705 92H56.7625V91.148H60.5905C60.5025 90.66 60.3025 90.2 59.9905 89.768C59.6305 89.32 59.1505 88.972 58.5505 88.724L58.4305 88.436ZM63.4105 88.316C63.1465 87.932 62.8465 87.644 62.5105 87.452C62.1905 87.284 61.8465 87.2 61.4785 87.2C61.1105 87.2 60.7785 87.276 60.4825 87.428C60.1305 87.604 59.8185 87.9 59.5465 88.316C59.9625 88.5 60.3185 88.76 60.6145 89.096C60.9825 89.512 61.2625 90.032 61.4545 90.656H61.4905C61.6905 90.008 61.9785 89.476 62.3545 89.06C62.6585 88.74 63.0105 88.492 63.4105 88.316ZM65.7915 83.84C65.9595 83.84 66.0995 83.9 66.2115 84.02C66.3235 84.132 66.3795 84.268 66.3795 84.428C66.3795 84.596 66.3235 84.74 66.2115 84.86C66.0995 84.972 65.9595 85.028 65.7915 85.028C65.6315 85.028 65.4915 84.972 65.3715 84.86C65.2595 84.74 65.2035 84.596 65.2035 84.428C65.2035 84.268 65.2595 84.132 65.3715 84.02C65.4915 83.9 65.6315 83.84 65.7915 83.84ZM67.2555 83.84C67.4155 83.84 67.5515 83.9 67.6635 84.02C67.7835 84.132 67.8435 84.268 67.8435 84.428C67.8435 84.596 67.7835 84.74 67.6635 84.86C67.5515 84.972 67.4155 85.028 67.2555 85.028C67.0875 85.028 66.9435 84.972 66.8235 84.86C66.7115 84.74 66.6555 84.596 66.6555 84.428C66.6555 84.268 66.7115 84.132 66.8235 84.02C66.9435 83.9 67.0875 83.84 67.2555 83.84ZM67.7355 86.48V90.86C67.7355 90.956 67.7235 91.052 67.6995 91.148H68.3355V92H67.8675L67.5195 91.58H67.4835C67.2675 91.86 66.9875 92 66.6435 92H64.5555V91.148H66.2595C66.3875 91.148 66.4915 91.108 66.5715 91.028C66.6675 90.94 66.7155 90.828 66.7155 90.692V86.48H67.7355ZM71.4269 83.408V90.86C71.4269 91.172 71.3229 91.436 71.1149 91.652C70.8989 91.884 70.6389 92 70.3349 92H68.2469V91.148H69.9509C70.1029 91.148 70.2189 91.096 70.2989 90.992C70.3709 90.904 70.4069 90.804 70.4069 90.692V83.408H71.4269ZM74.1039 83.408V91.88L73.5879 92.3H73.0839V83.408H74.1039ZM81.8229 91.88C81.4069 92.032 80.9709 92.108 80.5149 92.108C79.6509 92.108 78.9669 91.804 78.4629 91.196C78.0149 90.66 77.7909 89.976 77.7909 89.144C77.7909 88.304 78.0269 87.632 78.4989 87.128C79.0029 86.6 79.6829 86.336 80.5389 86.336C81.1869 86.336 81.7149 86.5 82.1229 86.828C82.6109 87.22 82.8549 87.784 82.8549 88.52V91.892C82.8469 92.916 82.5109 93.688 81.8469 94.208C81.5109 94.472 81.1069 94.656 80.6349 94.76C80.3229 94.824 79.9989 94.856 79.6629 94.856C79.4709 94.856 79.2869 94.852 79.1109 94.844L78.7149 94.352V93.968C78.9549 94 79.2069 94.016 79.4709 94.016C81.0309 94.016 81.8149 93.304 81.8229 91.88ZM81.8229 88.52C81.8229 88.024 81.6469 87.652 81.2949 87.404C81.0949 87.268 80.8429 87.2 80.5389 87.2C80.0029 87.2 79.5789 87.38 79.2669 87.74C78.9629 88.1 78.8109 88.6 78.8109 89.24C78.8109 89.848 78.9869 90.328 79.3389 90.68C79.6509 91.008 80.0669 91.172 80.5869 91.172C81.0429 91.172 81.4549 91.1 81.8229 90.956V88.52ZM89.7047 86.48V91.148H90.3167V92H89.7047C89.6807 93 89.3247 93.748 88.6367 94.244C88.0847 94.652 87.3687 94.856 86.4887 94.856C86.3527 94.856 86.1807 94.852 85.9727 94.844L85.5767 94.352V93.968C85.8087 94 86.0607 94.016 86.3327 94.016C87.9007 94.016 88.6847 93.296 88.6847 91.856V86.48H89.7047ZM93.4113 86.48V90.86C93.4113 90.956 93.3993 91.052 93.3753 91.148H94.0113V92H93.5433L93.1953 91.58H93.1593C92.9433 91.86 92.6633 92 92.3193 92H90.2313V91.148H91.9353C92.0633 91.148 92.1673 91.108 92.2473 91.028C92.3433 90.94 92.3913 90.828 92.3913 90.692V86.48H93.4113ZM91.3593 93.248C91.5193 93.248 91.6553 93.304 91.7673 93.416C91.8873 93.536 91.9473 93.676 91.9473 93.836C91.9473 94.004 91.8873 94.144 91.7673 94.256C91.6553 94.376 91.5193 94.436 91.3593 94.436C91.1993 94.436 91.0593 94.376 90.9393 94.256C90.8273 94.144 90.7713 94.004 90.7713 93.836C90.7713 93.676 90.8273 93.536 90.9393 93.416C91.0593 93.304 91.1993 93.248 91.3593 93.248ZM92.8113 93.248C92.9793 93.248 93.1193 93.304 93.2313 93.416C93.3513 93.536 93.4113 93.676 93.4113 93.836C93.4113 94.004 93.3513 94.144 93.2313 94.256C93.1193 94.376 92.9793 94.436 92.8113 94.436C92.6513 94.436 92.5113 94.376 92.3913 94.256C92.2793 94.144 92.2233 94.004 92.2233 93.836C92.2233 93.676 92.2793 93.536 92.3913 93.416C92.5113 93.304 92.6513 93.248 92.8113 93.248ZM99.3467 83.228V84.164L96.3347 85.952C97.5827 86.288 98.5667 86.912 99.2867 87.824C99.9427 88.656 100.271 89.616 100.271 90.704C100.271 90.888 100.259 91.036 100.235 91.148H100.643V92H100.403L100.055 91.58H100.031C99.7907 91.86 99.5107 92 99.1907 92H93.9227V91.148H98.7947C99.1067 91.148 99.2627 90.988 99.2627 90.668C99.2227 89.836 98.9787 89.104 98.5307 88.472C97.8907 87.544 96.8667 86.984 95.4587 86.792C95.4107 86.792 95.3867 86.764 95.3867 86.708V85.52L99.3467 83.228ZM105.032 83.84C105.192 83.84 105.328 83.9 105.44 84.02C105.56 84.132 105.62 84.268 105.62 84.428C105.62 84.596 105.56 84.74 105.44 84.86C105.328 84.972 105.192 85.028 105.032 85.028C104.864 85.028 104.724 84.972 104.612 84.86C104.5 84.74 104.444 84.596 104.444 84.428C104.444 84.268 104.5 84.132 104.612 84.02C104.724 83.9 104.864 83.84 105.032 83.84ZM103.148 91.148C102.644 90.596 102.392 89.916 102.392 89.108C102.392 88.332 102.604 87.696 103.028 87.2C103.516 86.624 104.164 86.336 104.972 86.336C105.62 86.336 106.172 86.528 106.628 86.912C107.252 87.432 107.564 88.164 107.564 89.108C107.564 89.908 107.312 90.588 106.808 91.148H107.852V92H106.124H105.992C105.52 92 105.188 91.968 104.996 91.904H104.948C104.756 91.968 104.424 92 103.952 92H103.808H100.544V91.148H103.148ZM104.972 87.2C104.484 87.2 104.1 87.372 103.82 87.716C103.548 88.06 103.412 88.536 103.412 89.144C103.412 89.696 103.56 90.164 103.856 90.548C104.16 90.932 104.532 91.132 104.972 91.148C105.412 91.132 105.78 90.932 106.076 90.548C106.38 90.164 106.532 89.696 106.532 89.144C106.532 88.536 106.392 88.06 106.112 87.716C105.84 87.372 105.46 87.2 104.972 87.2ZM108.999 83.84C109.167 83.84 109.307 83.9 109.419 84.02C109.531 84.132 109.587 84.268 109.587 84.428C109.587 84.596 109.531 84.74 109.419 84.86C109.307 84.972 109.167 85.028 108.999 85.028C108.839 85.028 108.699 84.972 108.579 84.86C108.467 84.74 108.411 84.596 108.411 84.428C108.411 84.268 108.467 84.132 108.579 84.02C108.699 83.9 108.839 83.84 108.999 83.84ZM110.463 83.84C110.623 83.84 110.759 83.9 110.871 84.02C110.991 84.132 111.051 84.268 111.051 84.428C111.051 84.596 110.991 84.74 110.871 84.86C110.759 84.972 110.623 85.028 110.463 85.028C110.295 85.028 110.151 84.972 110.031 84.86C109.919 84.74 109.863 84.596 109.863 84.428C109.863 84.268 109.919 84.132 110.031 84.02C110.151 83.9 110.295 83.84 110.463 83.84ZM110.943 86.48V90.86C110.943 90.956 110.931 91.052 110.907 91.148H111.543V92H111.075L110.727 91.58H110.691C110.475 91.86 110.195 92 109.851 92H107.763V91.148H109.467C109.595 91.148 109.699 91.108 109.779 91.028C109.875 90.94 109.923 90.828 109.923 90.692V86.48H110.943ZM114.634 83.408V90.86C114.634 91.172 114.53 91.436 114.322 91.652C114.106 91.884 113.846 92 113.542 92H111.454V91.148H113.158C113.31 91.148 113.426 91.096 113.506 90.992C113.578 90.904 113.614 90.804 113.614 90.692V83.408H114.634ZM117.311 83.408V91.88L116.795 92.3H116.291V83.408H117.311ZM122.186 89.912V91.868C122.186 92.66 122.394 93.216 122.81 93.536C123.226 93.856 123.95 94.016 124.982 94.016C125.974 94.016 126.666 93.892 127.058 93.644C127.562 93.34 127.826 92.792 127.85 92H126.938L126.518 91.484V91.148H129.194V92H128.87C128.846 92.968 128.514 93.704 127.874 94.208C127.314 94.648 126.586 94.868 125.69 94.868H124.358C123.358 94.868 122.57 94.6 121.994 94.064C121.442 93.544 121.166 92.82 121.166 91.892V90.332L121.682 89.912H122.186ZM124.286 95.564C124.446 95.564 124.582 95.62 124.694 95.732C124.814 95.852 124.874 95.996 124.874 96.164C124.874 96.324 124.814 96.46 124.694 96.572C124.582 96.692 124.446 96.752 124.286 96.752C124.126 96.752 123.986 96.692 123.866 96.572C123.754 96.46 123.698 96.324 123.698 96.164C123.698 95.996 123.754 95.852 123.866 95.732C123.986 95.62 124.126 95.564 124.286 95.564ZM125.75 95.564C125.91 95.564 126.046 95.62 126.158 95.732C126.278 95.852 126.338 95.996 126.338 96.164C126.338 96.324 126.278 96.46 126.158 96.572C126.046 96.692 125.91 96.752 125.75 96.752C125.582 96.752 125.438 96.692 125.318 96.572C125.206 96.46 125.15 96.324 125.15 96.164C125.15 95.996 125.206 95.852 125.318 95.732C125.438 95.62 125.582 95.564 125.75 95.564ZM130.981 83.84C131.149 83.84 131.289 83.9 131.401 84.02C131.521 84.132 131.581 84.268 131.581 84.428C131.581 84.596 131.521 84.74 131.401 84.86C131.289 84.972 131.149 85.028 130.981 85.028C130.821 85.028 130.681 84.972 130.561 84.86C130.449 84.74 130.393 84.596 130.393 84.428C130.393 84.268 130.449 84.132 130.561 84.02C130.681 83.9 130.821 83.84 130.981 83.84ZM131.497 86.48V90.86C131.497 90.956 131.485 91.052 131.461 91.148H132.097V92H131.629L131.281 91.58H131.245C131.029 91.86 130.749 92 130.405 92H128.317V91.148H130.021C130.149 91.148 130.253 91.108 130.333 91.028C130.429 90.94 130.477 90.828 130.477 90.692V86.48H131.497ZM134.673 83.84C134.841 83.84 134.981 83.9 135.093 84.02C135.213 84.132 135.273 84.268 135.273 84.428C135.273 84.596 135.213 84.74 135.093 84.86C134.981 84.972 134.841 85.028 134.673 85.028C134.513 85.028 134.373 84.972 134.253 84.86C134.141 84.74 134.085 84.596 134.085 84.428C134.085 84.268 134.141 84.132 134.253 84.02C134.373 83.9 134.513 83.84 134.673 83.84ZM135.189 86.48V90.86C135.189 90.956 135.177 91.052 135.153 91.148H135.789V92H135.321L134.973 91.58H134.937C134.721 91.86 134.441 92 134.097 92H132.009V91.148H133.713C133.841 91.148 133.945 91.108 134.025 91.028C134.121 90.94 134.169 90.828 134.169 90.692V86.48H135.189ZM141.124 83.228V84.164L138.112 85.952C139.36 86.288 140.344 86.912 141.064 87.824C141.72 88.656 142.048 89.616 142.048 90.704C142.048 90.888 142.036 91.036 142.012 91.148H142.42V92H142.18L141.832 91.58H141.808C141.568 91.86 141.288 92 140.968 92H135.7V91.148H140.572C140.884 91.148 141.04 90.988 141.04 90.668C141 89.836 140.756 89.104 140.308 88.472C139.668 87.544 138.644 86.984 137.236 86.792C137.188 86.792 137.164 86.764 137.164 86.708V85.52L141.124 83.228ZM144.685 91.148C144.357 90.612 144.193 90 144.193 89.312C144.193 88.344 144.465 87.596 145.009 87.068C145.497 86.604 146.141 86.364 146.941 86.348C147.517 86.348 147.993 86.472 148.369 86.72C148.945 87.104 149.233 87.704 149.233 88.52V90.692C149.233 90.804 149.261 90.9 149.317 90.98C149.389 91.084 149.485 91.14 149.605 91.148H149.629V92H149.329C148.969 92 148.681 91.86 148.465 91.58C148.033 92.1 147.485 92.36 146.821 92.36C146.125 92.36 145.521 92.1 145.009 91.58H144.985L144.649 92H142.321V91.148H144.685ZM148.213 88.52C148.213 88.104 148.081 87.772 147.817 87.524C147.585 87.308 147.285 87.2 146.917 87.2C146.405 87.2 145.993 87.392 145.681 87.776C145.369 88.152 145.213 88.648 145.213 89.264C145.213 89.912 145.377 90.452 145.705 90.884C146.017 91.3 146.409 91.508 146.881 91.508C147.345 91.508 147.789 91.296 148.213 90.872V88.52ZM152.708 86.48V90.86C152.708 91.156 152.612 91.412 152.42 91.628C152.204 91.876 151.936 92 151.616 92H149.528V91.148H151.232C151.368 91.148 151.48 91.1 151.568 91.004C151.648 90.924 151.688 90.82 151.688 90.692V86.48H152.708ZM150.548 93.248C150.708 93.248 150.844 93.304 150.956 93.416C151.076 93.536 151.136 93.676 151.136 93.836C151.136 94.004 151.076 94.144 150.956 94.256C150.844 94.376 150.708 94.436 150.548 94.436C150.38 94.436 150.236 94.376 150.116 94.256C150.004 94.144 149.948 94.004 149.948 93.836C149.948 93.676 150.004 93.536 150.116 93.416C150.236 93.304 150.38 93.248 150.548 93.248ZM152 93.248C152.168 93.248 152.308 93.304 152.42 93.416C152.532 93.536 152.588 93.676 152.588 93.836C152.588 94.004 152.532 94.144 152.42 94.256C152.308 94.376 152.168 94.436 152 94.436C151.84 94.436 151.7 94.376 151.58 94.256C151.468 94.144 151.412 94.004 151.412 93.836C151.412 93.676 151.468 93.536 151.58 93.416C151.7 93.304 151.84 93.248 152 93.248ZM33.4725 104.148C33.0405 103.7 32.8245 103.08 32.8245 102.288C32.8245 101.36 33.0965 100.628 33.6405 100.092C34.1285 99.612 34.7725 99.364 35.5725 99.348C36.2445 99.348 36.7805 99.516 37.1805 99.852C37.6445 100.236 37.8765 100.792 37.8765 101.52V103.86C37.8765 104.18 37.7645 104.452 37.5405 104.676C37.3325 104.892 37.0845 105 36.7965 105H33.3645C33.0605 105 32.9085 105.152 32.9085 105.456V109.056L32.3925 109.476H31.8885V105.276C31.8885 104.972 31.9965 104.708 32.2125 104.484C32.4285 104.26 32.6845 104.148 32.9805 104.148H33.4725ZM36.8445 101.52C36.8445 101.16 36.7445 100.856 36.5445 100.608C36.3045 100.336 35.9725 100.2 35.5485 100.2C35.0445 100.2 34.6325 100.384 34.3125 100.752C34.0005 101.112 33.8445 101.584 33.8445 102.168C33.8445 102.792 34.0005 103.288 34.3125 103.656C34.5925 103.984 34.9365 104.148 35.3445 104.148H36.4005C36.6965 104.148 36.8445 103.996 36.8445 103.692V101.52ZM40.221 99.408C40.509 99.36 40.817 99.336 41.145 99.336C42.033 99.336 42.749 99.604 43.293 100.14C43.781 100.636 44.025 101.264 44.025 102.024V103.86C44.025 103.964 44.017 104.06 44.001 104.148H44.337V105H44.157L43.821 104.58H43.785C43.721 104.66 43.649 104.732 43.569 104.796C43.377 104.932 43.169 105 42.945 105H39.009V104.148H42.561C42.857 104.148 43.005 103.996 43.005 103.692V102.168C43.005 101.6 42.833 101.128 42.489 100.752C42.121 100.368 41.553 100.172 40.785 100.164C40.561 100.164 40.373 100.18 40.221 100.212V99.408ZM48.0032 96.84C48.1632 96.84 48.2992 96.9 48.4112 97.02C48.5312 97.132 48.5912 97.268 48.5912 97.428C48.5912 97.596 48.5312 97.74 48.4112 97.86C48.2992 97.972 48.1632 98.028 48.0032 98.028C47.8432 98.028 47.7032 97.972 47.5832 97.86C47.4712 97.74 47.4152 97.596 47.4152 97.428C47.4152 97.268 47.4712 97.132 47.5832 97.02C47.7032 96.9 47.8432 96.84 48.0032 96.84ZM49.4552 96.84C49.6232 96.84 49.7632 96.9 49.8752 97.02C49.9952 97.132 50.0552 97.268 50.0552 97.428C50.0552 97.596 49.9952 97.74 49.8752 97.86C49.7632 97.972 49.6232 98.028 49.4552 98.028C49.2952 98.028 49.1552 97.972 49.0352 97.86C48.9232 97.74 48.8672 97.596 48.8672 97.428C48.8672 97.268 48.9232 97.132 49.0352 97.02C49.1552 96.9 49.2952 96.84 49.4552 96.84ZM46.8392 104.148C46.3352 103.596 46.0832 102.916 46.0832 102.108C46.0832 101.332 46.2952 100.696 46.7192 100.2C47.2072 99.624 47.8552 99.336 48.6632 99.336C49.3112 99.336 49.8632 99.528 50.3192 99.912C50.9432 100.432 51.2552 101.164 51.2552 102.108C51.2552 102.908 51.0032 103.588 50.4992 104.148H51.5432V105H49.8152H49.6832C49.2112 105 48.8792 104.968 48.6872 104.904H48.6392C48.4472 104.968 48.1152 105 47.6432 105H47.4992H44.2352V104.148H46.8392ZM48.6632 100.2C48.1752 100.2 47.7912 100.372 47.5112 100.716C47.2392 101.06 47.1032 101.536 47.1032 102.144C47.1032 102.696 47.2512 103.164 47.5472 103.548C47.8512 103.932 48.2232 104.132 48.6632 104.148C49.1032 104.132 49.4712 103.932 49.7672 103.548C50.0712 103.164 50.2232 102.696 50.2232 102.144C50.2232 101.536 50.0832 101.06 49.8032 100.716C49.5312 100.372 49.1512 100.2 48.6632 100.2ZM52.69 96.84C52.858 96.84 52.998 96.9 53.11 97.02C53.222 97.132 53.278 97.268 53.278 97.428C53.278 97.596 53.222 97.74 53.11 97.86C52.998 97.972 52.858 98.028 52.69 98.028C52.53 98.028 52.39 97.972 52.27 97.86C52.158 97.74 52.102 97.596 52.102 97.428C52.102 97.268 52.158 97.132 52.27 97.02C52.39 96.9 52.53 96.84 52.69 96.84ZM54.154 96.84C54.314 96.84 54.45 96.9 54.562 97.02C54.682 97.132 54.742 97.268 54.742 97.428C54.742 97.596 54.682 97.74 54.562 97.86C54.45 97.972 54.314 98.028 54.154 98.028C53.986 98.028 53.842 97.972 53.722 97.86C53.61 97.74 53.554 97.596 53.554 97.428C53.554 97.268 53.61 97.132 53.722 97.02C53.842 96.9 53.986 96.84 54.154 96.84ZM54.634 99.48V103.86C54.634 103.956 54.622 104.052 54.598 104.148H55.234V105H54.766L54.418 104.58H54.382C54.166 104.86 53.886 105 53.542 105H51.454V104.148H53.158C53.286 104.148 53.39 104.108 53.47 104.028C53.566 103.94 53.614 103.828 53.614 103.692V99.48H54.634ZM58.3254 96.408V103.86C58.3254 104.172 58.2214 104.436 58.0134 104.652C57.7974 104.884 57.5374 105 57.2334 105H55.1454V104.148H56.8494C57.0014 104.148 57.1174 104.096 57.1974 103.992C57.2694 103.904 57.3054 103.804 57.3054 103.692V96.408H58.3254ZM61.0023 96.408V104.88L60.4863 105.3H59.9823V96.408H61.0023ZM68.0133 99.48V104.892C68.0133 105.78 67.7613 106.48 67.2573 106.992C66.8653 107.392 66.3373 107.656 65.6733 107.784C65.4173 107.832 65.1373 107.856 64.8333 107.856C64.6413 107.856 64.4573 107.852 64.2813 107.844L63.8853 107.352V106.968C64.1173 107 64.3693 107.016 64.6413 107.016C66.2093 107.016 66.9933 106.296 66.9933 104.856V99.48H68.0133ZM72.2294 105C71.3174 105 70.6174 104.696 70.1294 104.088C69.7214 103.584 69.5174 102.936 69.5174 102.144C69.5174 101.24 69.7894 100.536 70.3334 100.032C70.8214 99.568 71.4654 99.336 72.2654 99.336C72.8894 99.336 73.4094 99.492 73.8254 99.804C74.3294 100.196 74.5814 100.768 74.5814 101.52V104.148H74.9654V105H74.5814C74.5494 105.84 74.2974 106.5 73.8254 106.98C73.4654 107.348 72.9974 107.6 72.4214 107.736C72.0934 107.816 71.7494 107.856 71.3894 107.856C71.1974 107.856 71.0134 107.852 70.8374 107.844L70.4414 107.352V106.968C70.6814 107 70.9334 107.016 71.1974 107.016C72.7254 107.016 73.5094 106.344 73.5494 105H72.2294ZM73.5494 101.52C73.5494 101.112 73.4294 100.788 73.1894 100.548C72.9574 100.316 72.6494 100.2 72.2654 100.2C71.7294 100.2 71.3054 100.38 70.9934 100.74C70.6894 101.1 70.5374 101.6 70.5374 102.24C70.5374 102.808 70.6934 103.268 71.0054 103.62C71.3174 103.972 71.7214 104.148 72.2174 104.148H73.5494V101.52ZM78.036 96.408V102.108C79.124 100.26 80.568 99.336 82.368 99.336C83.312 99.336 84.076 99.632 84.66 100.224C85.18 100.76 85.44 101.44 85.44 102.264V103.86C85.44 104.132 85.356 104.376 85.188 104.592C84.964 104.864 84.688 105 84.36 105H74.868V104.148H77.028V96.408H78.036ZM84.42 102.156C84.412 101.516 84.176 101.02 83.712 100.668C83.312 100.364 82.808 100.212 82.2 100.212C81.472 100.212 80.796 100.444 80.172 100.908C79.3 101.564 78.588 102.644 78.036 104.148H83.964C84.268 104.148 84.42 103.996 84.42 103.692V102.156ZM90.1585 102.912V104.868C90.1585 105.66 90.3665 106.216 90.7825 106.536C91.1985 106.856 91.9225 107.016 92.9545 107.016C93.9465 107.016 94.6385 106.892 95.0305 106.644C95.5345 106.34 95.7985 105.792 95.8225 105H94.9105L94.4905 104.484V104.148H97.1665V105H96.8425C96.8185 105.968 96.4865 106.704 95.8465 107.208C95.2865 107.648 94.5585 107.868 93.6625 107.868H92.3305C91.3305 107.868 90.5425 107.6 89.9665 107.064C89.4145 106.544 89.1385 105.82 89.1385 104.892V103.332L89.6545 102.912H90.1585ZM92.2585 108.564C92.4185 108.564 92.5545 108.62 92.6665 108.732C92.7865 108.852 92.8465 108.996 92.8465 109.164C92.8465 109.324 92.7865 109.46 92.6665 109.572C92.5545 109.692 92.4185 109.752 92.2585 109.752C92.0985 109.752 91.9585 109.692 91.8385 109.572C91.7265 109.46 91.6705 109.324 91.6705 109.164C91.6705 108.996 91.7265 108.852 91.8385 108.732C91.9585 108.62 92.0985 108.564 92.2585 108.564ZM93.7225 108.564C93.8825 108.564 94.0185 108.62 94.1305 108.732C94.2505 108.852 94.3105 108.996 94.3105 109.164C94.3105 109.324 94.2505 109.46 94.1305 109.572C94.0185 109.692 93.8825 109.752 93.7225 109.752C93.5545 109.752 93.4105 109.692 93.2905 109.572C93.1785 109.46 93.1225 109.324 93.1225 109.164C93.1225 108.996 93.1785 108.852 93.2905 108.732C93.4105 108.62 93.5545 108.564 93.7225 108.564ZM100.958 96.84C101.126 96.84 101.266 96.9 101.378 97.02C101.498 97.132 101.558 97.268 101.558 97.428C101.558 97.596 101.498 97.74 101.378 97.86C101.266 97.972 101.126 98.028 100.958 98.028C100.798 98.028 100.658 97.972 100.538 97.86C100.426 97.74 100.37 97.596 100.37 97.428C100.37 97.268 100.426 97.132 100.538 97.02C100.658 96.9 100.798 96.84 100.958 96.84ZM98.9779 104.148C98.6739 103.868 98.4499 103.52 98.3059 103.104C98.1939 102.768 98.1379 102.436 98.1379 102.108C98.1379 101.252 98.3939 100.572 98.9059 100.068C99.4099 99.58 100.094 99.336 100.958 99.336C101.614 99.336 102.138 99.504 102.53 99.84C102.986 100.224 103.222 100.784 103.238 101.52V103.86C103.238 104.172 103.13 104.44 102.914 104.664C102.706 104.888 102.454 105 102.158 105H96.2899V104.148H98.9779ZM102.206 101.52C102.206 101.072 102.074 100.728 101.81 100.488C101.602 100.296 101.318 100.2 100.958 100.2C100.294 100.2 99.8059 100.432 99.4939 100.896C99.2699 101.216 99.1579 101.632 99.1579 102.144C99.1659 102.688 99.3419 103.152 99.6859 103.536C100.046 103.944 100.522 104.148 101.114 104.148H101.762C102.058 104.148 102.206 103.996 102.206 103.692V101.52ZM111.128 99.156C111.288 99.156 111.424 99.216 111.536 99.336C111.656 99.448 111.716 99.588 111.716 99.756C111.716 99.916 111.656 100.056 111.536 100.176C111.424 100.288 111.288 100.344 111.128 100.344C110.96 100.344 110.82 100.288 110.708 100.176C110.596 100.056 110.54 99.916 110.54 99.756C110.54 99.588 110.596 99.448 110.708 99.336C110.82 99.216 110.96 99.156 111.128 99.156ZM112.58 99.156C112.748 99.156 112.888 99.216 113 99.336C113.12 99.448 113.18 99.588 113.18 99.756C113.18 99.916 113.12 100.056 113 100.176C112.888 100.288 112.748 100.344 112.58 100.344C112.42 100.344 112.28 100.288 112.16 100.176C112.048 100.056 111.992 99.916 111.992 99.756C111.992 99.588 112.048 99.448 112.16 99.336C112.28 99.216 112.42 99.156 112.58 99.156ZM116.756 99.48V103.86C116.756 103.964 116.744 104.06 116.72 104.148H117.368V105H116.936L116.54 104.58H116.516C116.292 104.86 116.012 105 115.676 105H108.812C108.364 105 107.968 104.852 107.624 104.556C107.16 104.172 106.928 103.66 106.928 103.02V100.764L107.444 100.344H107.948V103.02C107.948 103.332 108.056 103.596 108.272 103.812C108.504 104.036 108.78 104.148 109.1 104.148H115.28C115.416 104.148 115.532 104.1 115.628 104.004C115.7 103.924 115.736 103.82 115.736 103.692V99.48H116.756ZM120.446 96.408V103.86C120.446 104.172 120.342 104.436 120.134 104.652C119.918 104.884 119.658 105 119.354 105H117.266V104.148H118.97C119.122 104.148 119.238 104.096 119.318 103.992C119.39 103.904 119.426 103.804 119.426 103.692V96.408H120.446ZM124.205 96.84C124.365 96.84 124.501 96.9 124.613 97.02C124.733 97.132 124.793 97.268 124.793 97.428C124.793 97.596 124.733 97.74 124.613 97.86C124.501 97.972 124.365 98.028 124.205 98.028C124.045 98.028 123.905 97.972 123.785 97.86C123.673 97.74 123.617 97.596 123.617 97.428C123.617 97.268 123.673 97.132 123.785 97.02C123.905 96.9 124.045 96.84 124.205 96.84ZM124.709 99.48V104.892C124.709 105.852 124.417 106.588 123.833 107.1C123.401 107.492 122.837 107.732 122.141 107.82C121.949 107.844 121.745 107.856 121.529 107.856C121.337 107.856 121.153 107.852 120.977 107.844L120.581 107.352V106.968C120.813 107 121.065 107.016 121.337 107.016C122.905 107.016 123.689 106.296 123.689 104.856V99.48H124.709ZM127.483 96.408V103.692C127.483 103.82 127.523 103.928 127.603 104.016C127.691 104.104 127.803 104.148 127.939 104.148H128.095V105H127.543C127.287 105 127.063 104.916 126.871 104.748C126.599 104.516 126.463 104.22 126.463 103.86V96.408H127.483ZM130.173 101.52C130.173 100.704 130.461 100.104 131.037 99.72C131.413 99.472 131.913 99.348 132.537 99.348C133.297 99.348 133.933 99.608 134.445 100.128C134.957 100.648 135.213 101.376 135.213 102.312C135.213 103.184 134.957 103.92 134.445 104.52C133.965 105.08 133.357 105.36 132.621 105.36C131.933 105.36 131.373 105.1 130.941 104.58C130.725 104.86 130.437 105 130.077 105H128.013V104.148H129.717C129.845 104.148 129.953 104.104 130.041 104.016C130.129 103.928 130.173 103.82 130.173 103.692V101.52ZM131.193 103.872C131.609 104.296 132.069 104.508 132.573 104.508C133.053 104.508 133.441 104.312 133.737 103.92C134.041 103.52 134.193 103.004 134.193 102.372C134.193 101.668 134.017 101.112 133.665 100.704C133.369 100.368 132.977 100.2 132.489 100.2C132.121 100.2 131.821 100.308 131.589 100.524C131.325 100.772 131.193 101.104 131.193 101.52V103.872Z" fill="black"/>
</svg>
