<svg width="140" height="230" viewBox="0 0 140 230" fill="none" xmlns="http://www.w3.org/2000/svg">
<path d="M140 54.6566H138.457V20.0369C138.457 17.4056 137.825 14.8001 136.595 12.3691C135.366 9.93814 133.564 7.72929 131.293 5.86869C129.022 4.00809 126.325 2.53218 123.358 1.52522C120.39 0.518274 117.209 2.07514e-06 113.997 0H24.46C21.2479 -6.22521e-06 18.0672 0.518259 15.0996 1.5252C12.132 2.53215 9.43553 4.00805 7.16421 5.86864C4.89288 7.72924 3.09116 9.93809 1.86192 12.3691C0.63269 14.8001 6.58619e-06 17.4056 0 20.0369V209.963C-3.06956e-06 215.277 2.57703 220.374 7.16416 224.131C11.7513 227.889 17.9728 230 24.46 230H113.997C120.484 230 126.706 227.889 131.293 224.131C135.88 220.374 138.457 215.277 138.457 209.963V79.2995H140L140 54.6566Z" fill="#3F3D56"/>
<path d="M114.985 5.21291H103.297C103.835 6.29235 104.04 7.46351 103.895 8.62321C103.75 9.78292 103.258 10.8956 102.465 11.8632C101.671 12.8307 100.599 13.6236 99.3428 14.1718C98.0868 14.72 96.6855 15.0068 95.2624 15.0069H43.9676C42.5445 15.0068 41.1432 14.72 39.8873 14.1718C38.6313 13.6236 37.5592 12.8307 36.7654 11.8632C35.9716 10.8956 35.4805 9.78291 35.3352 8.62321C35.19 7.4635 35.3952 6.29234 35.9327 5.21289H25.0164C20.1719 5.21289 15.5257 6.78938 12.1001 9.59554C8.67449 12.4017 6.75001 16.2077 6.75 20.1762V209.824C6.75 211.789 7.22247 213.735 8.14044 215.55C9.05842 217.365 10.4039 219.015 12.1001 220.404C13.7963 221.794 15.81 222.896 18.0262 223.648C20.2424 224.4 22.6176 224.787 25.0164 224.787H114.985C117.384 224.787 119.759 224.4 121.975 223.648C124.191 222.896 126.205 221.794 127.901 220.404C129.597 219.015 130.943 217.365 131.861 215.55C132.779 213.735 133.251 211.789 133.251 209.824V20.1762C133.251 18.2112 132.779 16.2654 131.861 14.45C130.943 12.6346 129.597 10.985 127.901 9.59555C126.205 8.20607 124.191 7.10389 121.975 6.35191C119.759 5.59994 117.384 5.2129 114.985 5.21291Z" fill="white"/>
<path d="M121.805 42.5023H18.1943V187.498H121.805V42.5023Z" fill="#E6E6E6"/>
<path d="M73.9937 71.0526C73.9937 71.0526 74.1559 68.2227 73.0965 66.5072C72.037 64.7917 69.5785 64.7854 68.5342 65.2925C67.49 65.7997 66.4052 66.7075 66.1619 68.2227C66.0093 69.3244 65.9549 70.4434 65.9997 71.5598C65.8868 71.5847 65.7798 71.6399 65.6862 71.7217C65.5926 71.8034 65.5147 71.9096 65.4581 72.0328C65.4015 72.1559 65.3675 72.2929 65.3586 72.434C65.3497 72.5752 65.3661 72.7171 65.4066 72.8495C65.5363 73.4879 65.7884 74.0784 66.1416 74.5713C66.1416 74.5713 66.3849 75.9863 66.5522 76.5936C66.8438 77.2809 67.1994 77.9239 67.6117 78.5094C67.6117 78.5094 67.7789 80.0246 67.2061 80.5317C66.6333 81.0388 65.2393 81.4395 63.2775 82.2472C62.246 82.6585 61.319 83.3943 60.5875 84.3823C59.856 85.3703 59.3453 86.5764 59.1056 87.8821C58.8582 89.5145 58.8035 91.1827 58.9434 92.8345L58.2033 98.5946C57.6993 100.19 57.4165 101.879 57.3669 103.591C57.2858 106.421 56.86 112.074 56.86 112.074C56.86 112.074 57.3669 112.481 56.2061 113.189C55.0453 113.896 54.9794 114.397 54.8172 114.904C54.655 115.411 54.5688 116.419 54.2444 116.726C53.9199 117.033 52.8504 116.726 53.0176 117.734C53.1849 118.742 54.3255 118.141 54.3255 118.141L55.0605 117.935V123.087C55.0605 123.595 55.3089 124.302 55.7144 123.714C55.7144 123.714 56.125 124.421 56.3683 124.12L56.7688 123.832C56.9907 123.958 57.2357 124.007 57.4785 123.976C57.7066 123.87 58.1628 123.1 58.1628 123.1C58.1628 123.1 58.2743 123.519 58.7001 122.887C59.0234 122.311 59.2286 121.648 59.2983 120.952C59.4149 120.427 59.8052 117.546 59.8964 117.058C59.953 116.028 59.953 114.995 59.8964 113.965L59.8103 112.844C59.8103 112.844 61.6605 106.627 61.9748 105.15C62.3059 103.745 62.5616 102.314 62.7402 100.867C62.8517 99.6151 63.3384 97.1107 63.3384 97.1107L63.5361 97.0043C63.5361 97.0043 63.5665 102.946 63.4499 103.716C63.3333 104.486 62.4868 105.926 62.5679 107.754C62.649 109.583 62.1421 112.669 62.0001 113.727C61.2326 117.128 60.9851 120.676 61.2702 124.189C61.7213 130.056 62.6743 133.343 63.2268 135.954C63.7794 138.564 63.6324 140.236 63.3789 142.722C63.1255 145.207 63.531 146.322 64.2356 149.49C64.9402 152.658 66.1923 156.008 66.3444 157.247C66.4964 158.487 66.0453 158.612 65.7918 159.357C65.5384 160.102 64.1849 162.031 64.1342 162.838C64.0835 163.646 64.5347 164.266 65.7918 164.716C67.049 165.167 67.9513 165.148 68.5545 164.159C68.7847 163.841 68.9575 163.466 69.0615 163.059C69.1655 162.652 69.1983 162.223 69.1577 161.799C69.1121 161.054 68.96 160.929 69.1577 160.246C69.4651 159.567 69.5726 158.777 69.4619 158.011C69.3098 156.834 69.4112 157.886 69.0107 155.463C68.6102 153.04 69.0614 149.878 69.0614 148.513C69.0985 146.438 69.0138 144.362 68.808 142.302C68.5545 140.687 68.5089 141.432 68.3568 139.172C68.2047 136.912 68.4582 136.667 68.4582 135.077C68.4599 134.117 68.3749 133.159 68.2047 132.222C68.2047 132.222 69.2186 125.767 69.2591 125.517C69.2997 125.266 70.0651 120.984 70.0651 120.984C70.151 121.003 70.232 121.047 70.3016 121.113C70.3711 121.178 70.4273 121.262 70.4656 121.359C70.567 121.666 71.8748 132.16 71.8748 132.16C71.6047 133.055 71.4523 133.997 71.4236 134.952C71.4743 136.073 72.0268 139.234 72.0268 139.234C72.0268 139.234 71.6213 141.225 71.2715 144.325C70.9218 147.424 71.4743 150.661 71.4236 152.583C71.4115 153.847 71.2926 155.106 71.0688 156.339C70.9218 157.21 70.6683 158.449 70.9218 159.382L71.1702 160.315C71.0541 161.157 71.0032 162.01 71.0181 162.863C71.0688 163.978 71.4743 164.742 72.0776 164.848C72.2711 164.871 72.4663 164.832 72.6439 164.734C72.8216 164.637 72.9758 164.484 73.0914 164.291C73.3246 164.457 73.5824 164.564 73.8496 164.606C74.1168 164.648 74.3881 164.624 74.6476 164.535C75.5043 164.228 76.1075 163.79 75.9047 162.92C75.7446 162.045 75.4371 161.221 75.0024 160.503C74.4499 159.57 74.0951 159.445 73.943 158.33C73.7839 157.187 73.8535 156.014 74.1457 154.912C75.1383 152.339 75.8803 149.63 76.3559 146.841C76.9591 142.809 76.8628 142.559 76.7107 141.131C76.5777 139.121 76.6458 137.098 76.9135 135.108C77.1619 133.556 78.9411 127.971 78.9411 123.438C78.878 119.695 78.5489 115.966 77.9577 112.294C77.7967 111.33 77.6782 110.356 77.6029 109.376C77.776 108.455 77.776 107.498 77.6029 106.577C77.3038 105.275 77.096 104.78 76.8527 103.353C76.6464 102.101 76.4941 100.837 76.3964 99.565V97.142C76.3964 97.142 77.3545 99.997 77.8057 101.988C78.2568 103.979 78.2568 105.15 78.7587 106.997C79.2605 108.844 80.3199 112.337 80.5227 113.082C80.7255 113.827 80.2693 115.13 80.472 117.114C80.6748 119.099 80.8725 122.518 81.2222 123.012C81.572 123.507 81.9775 122.95 81.9775 122.95C81.9775 122.95 82.1296 123.945 82.4287 124.07C82.7278 124.196 83.1333 123.82 83.1333 123.82C83.1435 123.901 83.1691 123.977 83.208 124.043C83.2468 124.109 83.2979 124.162 83.3569 124.199C83.4158 124.236 83.481 124.255 83.547 124.254C83.6131 124.253 83.678 124.233 83.7365 124.196C83.871 124.142 83.9945 124.054 84.0987 123.936C84.2028 123.818 84.2851 123.674 84.3398 123.513C84.3398 123.513 85.0951 123.883 84.9937 122.643C84.8923 121.403 84.6439 119.725 84.6439 119.35C84.6439 118.974 84.6946 117.797 84.6946 117.797C84.9586 118.063 85.2666 118.256 85.5969 118.36C85.9974 118.417 86.4029 118.918 86.702 118.36C87.001 117.803 86.7527 117.615 86.1951 117.177C85.7608 116.875 85.4082 116.423 85.1812 115.875C84.7757 115.13 85.1306 114.942 84.2739 113.997C83.4172 113.051 82.8697 112.632 82.8697 111.824C82.8697 111.016 83.5186 105.989 82.9153 102.389C82.3121 98.7886 82.013 97.8558 81.9015 97.2985C81.79 96.7413 80.8877 92.5152 80.8877 92.5152C80.8877 92.5152 81.6937 88.6083 80.2845 85.3151C78.8753 82.0218 76.9642 82.2723 75.5093 81.4646C74.0545 80.6569 72.8937 80.4754 72.696 79.9745C72.5481 79.5373 72.4459 79.0787 72.3918 78.6096C72.3918 78.6096 73.6997 76.3744 73.7504 75.6294L73.801 74.8843C73.801 74.8843 74.602 74.5149 74.8149 72.5866C75.0278 70.6582 73.9937 71.0526 73.9937 71.0526Z" fill="#006466"/>
<path d="M70.1537 214.189C75.6934 214.189 80.1843 210.51 80.1843 205.972C80.1843 201.434 75.6934 197.755 70.1537 197.755C64.6139 197.755 60.123 201.434 60.123 205.972C60.123 210.51 64.6139 214.189 70.1537 214.189Z" fill="#E6E6E6"/>
</svg>
