<svg width="110" height="100" viewBox="0 0 110 100" fill="none" xmlns="http://www.w3.org/2000/svg">
<path d="M56.4776 6.05262C56.4776 6.05262 56.6398 3.22268 55.5803 1.50718C54.5209 -0.208325 52.0624 -0.214588 51.0181 0.292549C49.9739 0.799686 48.8891 1.70752 48.6457 3.22268C48.4932 4.32438 48.4388 5.44342 48.4836 6.55976C48.3707 6.58465 48.2637 6.63994 48.1701 6.72169C48.0765 6.80343 47.9986 6.90964 47.942 7.03276C47.8854 7.15587 47.8514 7.29288 47.8425 7.43404C47.8336 7.57521 47.85 7.71706 47.8905 7.84952C48.0202 8.48789 48.2723 9.07839 48.6255 9.57128C48.6255 9.57128 48.8688 10.9863 49.0361 11.5936C49.3277 12.2809 49.6833 12.9239 50.0955 13.5094C50.0955 13.5094 50.2628 15.0246 49.69 15.5317C49.1172 16.0388 47.7232 16.4395 45.7614 17.2472C44.7299 17.6585 43.8028 18.3943 43.0714 19.3823C42.3399 20.3703 41.8292 21.5764 41.5895 22.8821C41.3421 24.5145 41.2874 26.1827 41.4273 27.8345L40.6872 33.5946C40.1832 35.1901 39.9004 36.8792 39.8508 38.5908C39.7697 41.4207 39.3439 47.0744 39.3439 47.0744C39.3439 47.0744 39.8508 47.4813 38.69 48.1888C37.5292 48.8963 37.4633 49.3972 37.3011 49.9043C37.1388 50.4115 37.0527 51.4195 36.7282 51.7263C36.4038 52.0331 35.3342 51.7263 35.5015 52.7343C35.6688 53.7423 36.8094 53.1412 36.8094 53.1412L37.5444 52.9346V58.0874C37.5444 58.5945 37.7928 59.302 38.1983 58.7135C38.1983 58.7135 38.6089 59.421 38.8522 59.1205L39.2527 58.8325C39.4746 58.9577 39.7196 59.0075 39.9623 58.9765C40.1905 58.87 40.6467 58.0999 40.6467 58.0999C40.6467 58.0999 40.7582 58.5194 41.184 57.8871C41.5073 57.3115 41.7125 56.6476 41.7822 55.9524C41.8988 55.4265 42.2891 52.5465 42.3803 52.0581C42.4369 51.0283 42.4369 49.995 42.3803 48.9652L42.2941 47.8445C42.2941 47.8445 44.1444 41.6274 44.4587 40.1498C44.7898 38.7446 45.0455 37.314 45.2241 35.8673C45.3356 34.6151 45.8223 32.1107 45.8223 32.1107L46.0199 32.0043C46.0199 32.0043 46.0504 37.9459 45.9338 38.716C45.8172 39.4861 44.9706 40.9261 45.0518 42.7543C45.1329 44.5825 44.626 47.6692 44.484 48.7273C43.7165 52.1283 43.469 55.6763 43.7541 59.1893C44.2052 65.0558 45.1582 68.3428 45.7107 70.9537C46.2633 73.5645 46.1163 75.2362 45.8628 77.7217C45.6093 80.2074 46.0149 81.3218 46.7195 84.4898C47.4241 87.6579 48.6762 91.0075 48.8283 92.2472C48.9803 93.4868 48.5292 93.612 48.2757 94.3571C48.0223 95.1021 46.6688 97.0305 46.6181 97.8382C46.5674 98.6459 47.0186 99.2657 48.2757 99.7165C49.5329 100.167 50.4352 100.148 51.0384 99.1592C51.2686 98.8411 51.4414 98.4661 51.5454 98.0591C51.6494 97.6522 51.6822 97.2226 51.6416 96.7989C51.596 96.0538 51.4439 95.9286 51.6416 95.2462C51.949 94.5669 52.0565 93.7771 51.9458 93.011C51.7937 91.8339 51.8951 92.8858 51.4946 90.4628C51.0941 88.0398 51.5453 84.878 51.5453 83.5131C51.5824 81.438 51.4977 79.3623 51.2918 77.3023C51.0384 75.6869 50.9928 76.432 50.8407 74.1718C50.6886 71.9116 50.9421 71.6674 50.9421 70.0771C50.9438 69.1168 50.8588 68.1592 50.6886 67.2221C50.6886 67.2221 51.7025 60.7671 51.743 60.5166C51.7836 60.2662 52.549 55.9837 52.549 55.9837C52.6349 56.0032 52.7159 56.0474 52.7855 56.1126C52.855 56.1779 52.9112 56.2624 52.9495 56.3594C53.0508 56.6662 54.3587 67.1595 54.3587 67.1595C54.0886 68.0546 53.9362 68.9973 53.9075 69.9519C53.9582 71.0726 54.5107 74.2344 54.5107 74.2344C54.5107 74.2344 54.1052 76.2254 53.7554 79.3246C53.4057 82.4237 53.9582 85.6606 53.9075 87.5827C53.8954 88.8468 53.7765 90.1058 53.5527 91.3393C53.4057 92.2096 53.1522 93.4493 53.4057 94.3821L53.654 95.315C53.538 96.1565 53.4871 97.0098 53.502 97.8632C53.5527 98.9777 53.9582 99.7415 54.5614 99.848C54.755 99.8712 54.9501 99.8321 55.1278 99.7344C55.3055 99.6368 55.4597 99.4839 55.5753 99.2907C55.8085 99.4571 56.0663 99.5643 56.3335 99.6062C56.6007 99.6482 56.872 99.6239 57.1315 99.5349C57.9882 99.2281 58.5914 98.7899 58.3886 97.9196C58.2285 97.0447 57.921 96.2213 57.4863 95.5029C56.9338 94.57 56.5789 94.4447 56.4269 93.3303C56.2678 92.1874 56.3374 91.0139 56.6296 89.9118C57.6222 87.3392 58.3642 84.6301 58.8398 81.8415C59.443 77.8094 59.3467 77.559 59.1946 76.1315C59.0615 74.1211 59.1297 72.0982 59.3974 70.1084C59.6458 68.5557 61.425 62.9709 61.425 58.438C61.3619 54.6948 61.0328 50.9657 60.4416 47.2935C60.2806 46.3297 60.1621 45.3557 60.0868 44.3759C60.2599 43.4553 60.2599 42.4979 60.0868 41.5773C59.7877 40.275 59.5799 39.7804 59.3365 38.3529C59.1303 37.1011 58.978 35.8367 58.8803 34.565V32.142C58.8803 32.142 59.8384 34.997 60.2895 36.988C60.7407 38.979 60.7407 40.1498 61.2425 41.9967C61.7444 43.8437 62.8038 47.3373 63.0066 48.0824C63.2094 48.8274 62.7531 50.1297 62.9559 52.1145C63.1587 54.0992 63.3564 57.5177 63.7061 58.0123C64.0559 58.5069 64.4614 57.9497 64.4614 57.9497C64.4614 57.9497 64.6135 58.9452 64.9126 59.0704C65.2117 59.1956 65.6172 58.8199 65.6172 58.8199C65.6274 58.9005 65.653 58.9769 65.6919 59.0428C65.7307 59.1088 65.7818 59.1623 65.8407 59.199C65.8997 59.2357 65.9649 59.2546 66.0309 59.254C66.097 59.2534 66.1619 59.2334 66.2204 59.1956C66.3549 59.1423 66.4784 59.0538 66.5825 58.936C66.6867 58.8182 66.7689 58.6739 66.8237 58.5131C66.8237 58.5131 67.5789 58.8825 67.4776 57.6429C67.3762 56.4032 67.1278 54.7253 67.1278 54.3496C67.1278 53.974 67.1785 52.7969 67.1785 52.7969C67.4425 53.0635 67.7504 53.2558 68.0808 53.3604C68.4813 53.4167 68.8868 53.9176 69.1859 53.3604C69.4849 52.8032 69.2365 52.6153 68.6789 52.1771C68.2447 51.8755 67.8921 51.4225 67.6651 50.8748C67.2596 50.1297 67.6144 49.9419 66.7578 48.9965C65.9011 48.0511 65.3536 47.6316 65.3536 46.8239C65.3536 46.0163 66.0025 40.9887 65.3992 37.3887C64.796 33.7886 64.4969 32.8558 64.3854 32.2985C64.2739 31.7413 63.3716 27.5152 63.3716 27.5152C63.3716 27.5152 64.1776 23.6083 62.7684 20.3151C61.3591 17.0218 59.4481 17.2723 57.9932 16.4646C56.5384 15.6569 55.3776 15.4754 55.1799 14.9745C55.032 14.5373 54.9298 14.0786 54.8757 13.6096C54.8757 13.6096 56.1836 11.3744 56.2342 10.6294L56.2849 9.88433C56.2849 9.88433 57.0858 9.51493 57.2987 7.58656C57.5117 5.65819 56.4776 6.05262 56.4776 6.05262Z" fill="#006466"/>
<path d="M58.891 24.2022C59.5001 24.2022 59.9939 23.5923 59.9939 22.84C59.9939 22.0877 59.5001 21.4778 58.891 21.4778C58.2819 21.4778 57.7881 22.0877 57.7881 22.84C57.7881 23.5923 58.2819 24.2022 58.891 24.2022Z" fill="#FF9A6C"/>
<path d="M78.2212 39.2906H61.1414C60.5445 39.2906 59.9721 38.9977 59.55 38.4765C59.128 37.9552 58.8909 37.2482 58.8909 36.511V24.3924H59.1393V36.511C59.1393 37.1668 59.3502 37.7958 59.7257 38.2595C60.1011 38.7233 60.6104 38.9838 61.1414 38.9838H78.2212V39.2906Z" fill="#FF9A6C"/>
<path d="M91.3716 63.7763C100.434 63.7763 107.781 54.7023 107.781 43.5091C107.781 32.3158 100.434 23.2419 91.3716 23.2419C82.309 23.2419 74.9624 32.3158 74.9624 43.5091C74.9624 54.7023 82.309 63.7763 91.3716 63.7763Z" fill="#FF9A6C"/>
<path d="M107.783 43.5091C107.783 43.5091 107.783 43.3956 107.768 43.1808C107.753 42.9661 107.768 42.6378 107.733 42.2175C107.664 40.9836 107.506 39.7597 107.261 38.5604C106.346 34.1206 104.238 30.1956 101.282 27.4267C99.2552 25.5208 96.8958 24.2255 94.3919 23.6438C92.271 23.1627 90.0946 23.194 87.9833 23.7359C87.2416 23.9335 86.5113 24.1918 85.7974 24.509C82.7565 25.8779 80.1118 28.3278 78.1964 31.55C77.6964 32.3893 77.2504 33.2756 76.8625 34.2008C76.4662 35.1375 76.1338 36.1135 75.8689 37.1185C74.7544 41.2562 74.7544 45.7283 75.8689 49.866C76.1319 50.8729 76.4643 51.85 76.8625 52.7867C77.2496 53.7129 77.6947 54.6002 78.1939 55.4406C80.1088 58.6682 82.7545 61.1235 85.7974 62.4969C86.5118 62.8117 87.2419 63.069 87.9833 63.267C90.0946 63.8089 92.271 63.8402 94.3919 63.3591C96.8958 62.7846 99.2558 61.4932 101.282 59.5885C104.238 56.8196 106.346 52.8946 107.261 48.4547C107.506 47.2564 107.664 46.0336 107.733 44.8007C107.763 44.3773 107.758 44.0521 107.768 43.8374C107.778 43.6226 107.783 43.5091 107.783 43.5091C107.783 43.5091 107.783 43.954 107.758 44.8007C107.612 48.0105 106.84 51.1292 105.508 53.8912C104.428 56.1292 103.014 58.0929 101.34 59.6775C99.3027 61.5985 96.9303 62.9045 94.4118 63.491C93.0135 63.82 91.5865 63.9232 90.1667 63.7978C89.4246 63.7332 88.6868 63.6071 87.9584 63.4204C87.2111 63.2224 86.4751 62.9641 85.7551 62.6473C81.8674 60.9043 78.6524 57.4196 76.7482 52.8849C76.3454 51.9411 76.008 50.9568 75.7397 49.9427C74.6154 45.7723 74.6154 41.2643 75.7397 37.0939C76.008 36.0798 76.3454 35.0955 76.7482 34.1517C77.1386 33.2197 77.588 32.3272 78.0921 31.4826C80.0228 28.2368 82.6883 25.7698 85.7526 24.3924C86.473 24.077 87.2089 23.8187 87.9559 23.6193C88.6844 23.4325 89.4221 23.3065 90.1642 23.2419C91.584 23.1166 93.011 23.2197 94.4093 23.5487C96.9256 24.1226 99.2981 25.416 101.337 27.3254C103.012 28.9099 104.427 30.8736 105.508 33.1117C106.84 35.8737 107.612 38.9923 107.758 42.2021C107.793 43.0612 107.783 43.5091 107.783 43.5091Z" fill="#263238"/>
<path d="M96.7608 59.8692C104.073 56.2771 107.642 46.0442 104.734 37.0132C101.826 27.9822 93.5409 23.5731 86.229 27.1651C78.9172 30.7571 75.3474 40.9901 78.2556 50.0211C81.1639 59.0521 89.4489 63.4612 96.7608 59.8692Z" fill="#FFBF9D"/>
<path d="M105.744 43.5091C105.744 43.5091 105.744 43.4109 105.731 43.2238C105.719 43.0366 105.731 42.7544 105.699 42.3862C105.639 41.3158 105.502 40.2542 105.289 39.2139C104.49 35.3617 102.66 31.9566 100.095 29.5528C98.3365 27.8996 96.2888 26.7785 94.1161 26.2792C92.067 25.8055 89.9584 25.8953 87.9405 26.5422C85.9226 27.189 84.0449 28.3771 82.4409 30.0219C80.8369 31.6666 79.546 33.7277 78.6599 36.0585C77.7739 38.3893 77.3146 40.9326 77.3146 43.5076C77.3146 46.0825 77.7739 48.6258 78.6599 50.9566C79.546 53.2874 80.8369 55.3485 82.4409 56.9932C84.0449 58.638 85.9226 59.8261 87.9405 60.4729C89.9584 61.1198 92.067 61.2096 94.1161 60.7359C96.2898 60.2374 98.3384 59.1162 100.098 57.4623C102.661 55.0571 104.49 51.6525 105.289 47.8012C105.502 46.7609 105.639 45.6993 105.699 44.6289C105.726 44.2638 105.721 43.9816 105.731 43.7944C105.741 43.6073 105.744 43.5091 105.744 43.5091C105.744 43.5091 105.744 43.8957 105.724 44.632C105.597 47.419 104.927 50.1271 103.771 52.5259C102.834 54.4702 101.606 56.1766 100.152 57.5544C99.3065 58.3543 98.3898 59.0326 97.4198 59.5762C96.3715 60.1745 95.2667 60.6085 94.131 60.8678C92.0655 61.3471 89.9398 61.2583 87.9053 60.6075C85.8707 59.9567 83.9773 58.76 82.3598 57.1026C80.7423 55.4452 79.4405 53.3678 78.547 51.0183C77.6534 48.6688 77.1902 46.1049 77.1902 43.5091C77.1902 40.9133 77.6534 38.3494 78.547 35.9999C79.4405 33.6503 80.7423 31.573 82.3598 29.9156C83.9773 28.2582 85.8707 27.0615 87.9053 26.4107C89.9398 25.7599 92.0655 25.671 94.131 26.1504C96.3205 26.6624 98.3826 27.8003 100.152 29.473C101.606 30.8501 102.834 32.5567 103.771 34.5014C104.927 36.9003 105.597 39.6083 105.724 42.3954C105.754 43.1194 105.744 43.5091 105.744 43.5091Z" fill="#263238"/>
<path d="M99.0692 32.4735C98.7291 31.7891 98.2797 31.1973 97.7484 30.7342C97.2172 30.2711 96.6152 29.9464 95.9791 29.7798C95.3934 29.5591 94.7741 29.5102 94.1704 29.637C93.5667 29.7637 92.9953 30.0626 92.5016 30.51C91.947 31.0508 91.5573 31.8079 91.3962 32.6576C91.1472 33.62 91.0776 34.6394 91.1925 35.6397C91.3031 36.4226 91.5675 37.16 91.9625 37.7873C92.472 38.49 93.1197 39.0184 93.8429 39.3213C94.7073 39.7324 95.6413 39.5943 96.5529 39.3949C97.8148 39.1219 98.9351 38.3641 99.4393 36.9098C99.9435 35.4556 99.7051 33.8541 99.0692 32.4735Z" fill="#FFBF9D"/>
<path d="M99.0694 32.4735C99.4733 33.2701 99.7035 34.1822 99.7376 35.1212C99.76 35.7973 99.6492 36.47 99.4147 37.0816C99.124 37.8239 98.6499 38.433 98.0609 38.8212C97.7374 39.0391 97.3938 39.208 97.0375 39.3243C96.6606 39.4409 96.2782 39.528 95.8924 39.5851C95.4867 39.655 95.0761 39.6694 94.6678 39.6281C94.2365 39.5709 93.8164 39.4225 93.4258 39.1894C93.0186 38.9693 92.6382 38.6801 92.2956 38.3303C91.946 37.9578 91.6633 37.499 91.466 36.9835C91.2696 36.4716 91.1388 35.9251 91.0785 35.3636C91.0322 34.8175 91.0472 34.2662 91.1232 33.7252C91.189 33.2031 91.2938 32.6896 91.4362 32.1912C91.5718 31.707 91.7837 31.2608 92.0596 30.8781C92.5893 30.1881 93.2872 29.7313 94.0468 29.5773C94.6992 29.436 95.3691 29.4832 96.0042 29.7154C96.937 29.9834 97.7879 30.5765 98.4559 31.4242C98.6351 31.6541 98.7949 31.906 98.9328 32.1759C98.98 32.2679 99.0123 32.3416 99.0346 32.3907C99.0463 32.4151 99.0563 32.4408 99.0645 32.4674C99.0479 32.4474 99.0337 32.4247 99.0222 32.3999L98.9129 32.1943C98.7642 31.9351 98.598 31.6918 98.4161 31.4672C97.7444 30.6473 96.8989 30.0784 95.9769 29.8258C95.3535 29.6047 94.6972 29.5648 94.0592 29.7092C93.3273 29.8637 92.6564 30.3098 92.1491 30.9794C91.6175 31.6881 91.3914 32.7128 91.2474 33.7406C91.1749 34.2676 91.1606 34.8042 91.2051 35.3359C91.2661 35.8801 91.3934 36.4097 91.5827 36.9068C91.7722 37.4016 92.0439 37.8417 92.3801 38.1984C92.7122 38.5411 93.0818 38.8241 93.478 39.039C93.8528 39.2641 94.2561 39.4084 94.6703 39.4655C95.0692 39.5087 95.4709 39.4963 95.8676 39.4287C96.2483 39.3761 96.6258 39.2931 96.9978 39.1802C97.343 39.0677 97.6764 38.906 97.9914 38.6985C98.5639 38.3252 99.027 37.7392 99.3153 37.0233C99.5481 36.4292 99.6622 35.7749 99.6482 35.1151C99.6392 34.6157 99.5714 34.1207 99.447 33.6455C99.3692 33.3447 99.2754 33.0505 99.1663 32.765C99.129 32.6729 99.1017 32.5993 99.0769 32.541C99.0727 32.5188 99.0703 32.4962 99.0694 32.4735Z" fill="#263238"/>
<path d="M98.1155 34.1854C98.107 34.0238 98.0709 33.8661 98.0097 33.7229C97.9485 33.5796 97.8635 33.4539 97.7602 33.354C97.7957 33.2075 97.8051 33.0533 97.788 32.9019C97.7708 32.7505 97.7275 32.6054 97.6609 32.4766C97.5914 32.3495 97.5002 32.2428 97.3938 32.1638C97.2874 32.0849 97.1683 32.0356 97.0449 32.0194C96.9531 32.0164 96.8617 32.0041 96.7716 31.9826L96.7145 31.9458L96.6201 31.8722C96.5746 31.809 96.5323 31.7424 96.4934 31.6727C96.3618 31.4636 96.1718 31.3225 95.9605 31.2772C95.7492 31.2318 95.5318 31.2853 95.3508 31.4273C95.2598 31.4212 95.1686 31.4212 95.0775 31.4273C94.8575 31.2733 94.5985 31.2272 94.3522 31.2985C94.1038 31.3844 93.8753 31.9121 93.8679 32.2189C93.6988 32.2374 93.5357 32.3055 93.3923 32.4175C93.2489 32.5296 93.1292 32.6824 93.0432 32.8631C92.9706 33.023 92.9267 33.2001 92.9143 33.3827C92.9018 33.5653 92.9212 33.749 92.9711 33.9216C92.9711 33.8387 92.9711 34.0044 92.9711 33.9216C92.7227 34.3143 92.8892 34.7898 92.8668 34.9494C92.8632 35.1209 92.8888 35.2914 92.9418 35.4499C92.9949 35.6084 93.0742 35.7515 93.1748 35.8698C93.3224 36.0188 93.4776 36.1562 93.6393 36.2809C93.8877 36.5386 94.0194 36.9712 94.3174 37.1276C94.6155 37.2841 94.8987 37.1276 95.1868 37.1982C95.3682 37.2381 95.5321 37.3516 95.711 37.413C95.9652 37.4881 96.2328 37.4502 96.4667 37.306C96.7006 37.1619 96.8859 36.9206 96.9902 36.6245C97.2633 36.5454 97.502 36.3415 97.6584 36.0538C97.8134 35.7614 97.8737 35.4077 97.8273 35.0629C97.9234 34.9506 97.9988 34.8142 98.0485 34.6628C98.0982 34.5114 98.1211 34.3486 98.1155 34.1854Z" fill="#006466"/>
<g opacity="0.3">
<path d="M98.1155 34.1854C98.1132 34.1105 98.1032 34.0363 98.0857 33.9645C98.0755 34.2547 97.976 34.5291 97.8074 34.7315C97.856 35.0747 97.7963 35.4278 97.6407 35.7182C97.485 36.0087 97.2451 36.2144 96.9703 36.2931C96.8656 36.5895 96.6798 36.8308 96.4455 36.975C96.2111 37.1191 95.9432 37.1569 95.6886 37.0816C95.5122 37.0203 95.3458 36.9067 95.1645 36.8669C94.8764 36.8055 94.5634 36.9405 94.2951 36.7963C94.0268 36.6521 93.8679 36.2072 93.617 35.9495C93.4552 35.8248 93.3001 35.6875 93.1525 35.5384C93.0237 35.3622 92.9287 35.1525 92.8743 34.9248V34.9463C92.8825 35.2892 92.9921 35.6166 93.1823 35.8667C93.3299 36.0158 93.485 36.1531 93.6468 36.2778C93.8952 36.5355 94.0268 36.9681 94.3249 37.1246C94.623 37.281 94.9062 37.1246 95.1943 37.1951C95.3756 37.235 95.5396 37.3485 95.7184 37.4099C95.9727 37.485 96.2402 37.4471 96.4741 37.303C96.708 37.1588 96.8934 36.9175 96.9977 36.6214C97.2708 36.5423 97.5095 36.3384 97.6659 36.0508C97.8208 35.7583 97.8811 35.4046 97.8348 35.0598C97.9292 34.9471 98.003 34.8108 98.0514 34.66C98.0998 34.5092 98.1217 34.3474 98.1155 34.1854Z" fill="black"/>
</g>
<path d="M93.905 34.3174C93.905 34.3174 93.8553 34.2713 93.8181 34.1578C93.7678 34.0116 93.7556 33.8497 93.7833 33.6946C93.8128 33.5401 93.8816 33.4014 93.9795 33.2988C94.0541 33.219 94.1112 33.1945 94.1137 33.2006C93.9815 33.3319 93.8846 33.5094 93.8355 33.7099C93.806 33.9164 93.8304 34.1291 93.905 34.3174Z" fill="#263238"/>
<path d="M93.858 34.8083C93.8295 34.7708 93.8098 34.7244 93.801 34.6741C93.7922 34.6238 93.7948 34.5716 93.8083 34.5229C93.8357 34.3511 93.9425 34.2744 93.9474 34.2898C93.9524 34.3051 93.8829 34.391 93.858 34.5383C93.8493 34.6279 93.8493 34.7186 93.858 34.8083Z" fill="#263238"/>
<path d="M96.2276 35.8176C96.209 35.8917 96.1736 35.9577 96.1257 36.0078C96.0189 36.1433 95.8774 36.2289 95.7253 36.2501C95.5731 36.2714 95.4198 36.227 95.2911 36.1244C95.2364 36.0872 95.1902 36.0333 95.157 35.968C95.157 35.968 95.2141 36.0232 95.311 36.0845C95.4355 36.1702 95.5786 36.2057 95.7203 36.1858C95.8619 36.166 95.995 36.092 96.1009 35.9741C96.1704 35.8851 96.2077 35.8115 96.2276 35.8176Z" fill="#263238"/>
<path d="M96.5282 35.701C96.5455 35.701 96.5455 35.879 96.4015 35.9772C96.3633 36.0062 96.3187 36.0194 96.274 36.015C96.2294 36.0106 96.187 35.9887 96.1531 35.9526C96.231 35.9651 96.3101 35.9546 96.3841 35.9219C96.4934 35.8452 96.5157 35.6949 96.5282 35.701Z" fill="#263238"/>
<path d="M96.9231 34.3818C96.995 34.21 97.0186 34.0136 96.9902 33.8234C96.9458 33.6392 96.8521 33.4791 96.7244 33.3694C96.7244 33.3694 96.784 33.3694 96.856 33.443C96.953 33.5307 97.0224 33.6572 97.0523 33.801C97.0822 33.9448 97.0708 34.0969 97.02 34.2315C96.9728 34.3327 96.928 34.3818 96.9231 34.3818Z" fill="#263238"/>
<path d="M95.9941 33.2497C95.9817 33.2497 95.9345 33.127 95.8153 33.0534C95.7406 33.0174 95.6618 32.9956 95.5818 32.9889C95.6195 32.962 95.6624 32.9478 95.706 32.9478C95.7496 32.9478 95.7924 32.962 95.8302 32.9889C95.9792 33.084 96.009 33.2497 95.9941 33.2497Z" fill="#263238"/>
<path d="M94.7796 34.7254C94.7914 34.8236 94.8157 34.9189 94.8516 35.0077C94.9211 35.1488 95.028 35.1948 95.023 35.2132C95.018 35.2316 94.8889 35.2132 94.8069 35.0414C94.7794 34.9968 94.7623 34.9438 94.7575 34.8881C94.7527 34.8324 94.7603 34.7761 94.7796 34.7254Z" fill="#263238"/>
<path d="M95.8227 32.2772C95.8227 32.2772 95.783 32.2189 95.7109 32.1391C95.6187 32.0342 95.5006 31.9705 95.3756 31.9581C95.3143 31.9564 95.2534 31.9702 95.1966 31.9987C95.1397 32.0272 95.0882 32.0698 95.0452 32.1238C95.0114 32.1733 94.9815 32.2267 94.9558 32.2833C94.9561 32.2133 94.9784 32.1462 95.0179 32.0961C95.0615 32.0307 95.1166 31.9784 95.179 31.9433C95.2414 31.9082 95.3095 31.8912 95.3781 31.8937C95.5146 31.9064 95.6422 31.9819 95.7358 32.1053C95.777 32.1517 95.8071 32.2111 95.8227 32.2772Z" fill="#263238"/>
<g opacity="0.3">
<path d="M93.853 34.7929C93.7799 34.7369 93.727 34.6484 93.7053 34.5456C93.6835 34.4428 93.6946 34.3336 93.7362 34.2407C93.6728 34.0839 93.652 33.906 93.6771 33.7335C93.7022 33.561 93.7717 33.4032 93.8753 33.2835C93.9424 33.2098 94.0194 33.1546 94.0864 33.081C94.1535 33.0073 94.2131 32.9184 94.2852 32.8539C94.319 32.8186 94.3592 32.7937 94.4024 32.7814C94.4456 32.7692 94.4906 32.7698 94.5336 32.7834C94.4484 32.7884 94.367 32.8286 94.3026 32.8976C94.2382 32.9666 94.1944 33.0604 94.1784 33.1638C94.0923 33.2053 94.0155 33.2715 93.9541 33.3568C93.8928 33.4421 93.8488 33.5442 93.8256 33.6547C93.7975 33.7659 93.7908 33.8837 93.8059 33.9987C93.821 34.1137 93.8575 34.2228 93.9126 34.3174C93.8708 34.3868 93.8433 34.4678 93.8325 34.5533C93.8216 34.6389 93.8278 34.7263 93.8505 34.8082" fill="black"/>
</g>
<g opacity="0.4">
<path d="M95.1917 38.2966C95.0501 38.0604 94.7396 38.2138 94.5185 38.1064C94.2975 37.999 94.2155 37.6186 94.0217 37.4222C93.828 37.2259 93.4728 37.2535 93.2095 37.1154C92.8493 36.9191 92.6829 36.4128 92.5537 35.9526C92.3924 35.489 92.3152 34.9874 92.3277 34.4831C92.3591 34.2804 92.3798 34.0754 92.3898 33.8695C92.392 33.7633 92.3699 33.6586 92.326 33.5674C92.282 33.4761 92.218 33.4022 92.1414 33.354C92.0945 33.3367 92.0451 33.3318 91.9966 33.3398C91.9481 33.3478 91.9015 33.3684 91.8599 33.4003C91.8183 33.4322 91.7827 33.4747 91.7554 33.5249C91.7282 33.5751 91.7098 33.6319 91.7017 33.6915C91.5763 34.8805 91.7747 36.0872 92.2656 37.1215C92.5143 37.6319 92.8574 38.0622 93.2667 38.3774C93.676 38.6925 94.1399 38.8835 94.6204 38.9347C94.7792 38.9612 94.9407 38.9224 95.0799 38.8243C95.1155 38.7989 95.1466 38.7651 95.1715 38.7247C95.1964 38.6844 95.2146 38.6383 95.225 38.5893C95.2354 38.5402 95.2378 38.489 95.2321 38.4388C95.2264 38.3886 95.2126 38.3402 95.1917 38.2966Z" fill="white"/>
</g>
<g opacity="0.4">
<path d="M96.6821 31.0622C97.0854 31.2997 97.4545 31.6168 97.7751 32.0011C98.0881 32.4214 98.2719 32.9644 98.6122 33.3602C98.7215 33.4921 98.8904 33.6118 99.022 33.5105C99.0575 33.4803 99.0859 33.4393 99.1047 33.3914C99.1234 33.3436 99.1317 33.2905 99.1288 33.2375C99.1237 33.1302 99.1 33.0256 99.0593 32.9307C98.7339 32.0471 98.0657 31.4488 97.4124 30.9027C97.3167 30.8091 97.2057 30.7421 97.087 30.7064C97.0277 30.6886 96.9654 30.6938 96.9085 30.7213C96.8516 30.7487 96.803 30.7971 96.7691 30.8598" fill="white"/>
</g>
<g opacity="0.4">
<path d="M99.2805 34.4922C99.2763 34.427 99.2608 34.3637 99.2351 34.3066C99.2093 34.2494 99.174 34.1997 99.1314 34.1609L99.0917 34.1762C99.0562 34.1634 99.0188 34.1612 98.9826 34.1698C98.9463 34.1783 98.9122 34.1973 98.883 34.2253C98.8267 34.2839 98.7875 34.3637 98.7712 34.4524C98.7583 34.5134 98.7586 34.5776 98.7721 34.6385C98.7856 34.6993 98.8119 34.7547 98.8482 34.799C98.8886 34.8423 98.9391 34.8683 98.9923 34.8733C99.0456 34.8782 99.0987 34.8619 99.1438 34.8266C99.1882 34.7904 99.2242 34.7405 99.2481 34.6819C99.2721 34.6232 99.2832 34.5578 99.2805 34.4922Z" fill="white"/>
</g>
<path d="M95.3583 42.5366C93.8902 40.4196 91.523 39.2385 89.2676 39.1618C87.1289 38.9439 84.8684 39.8705 83.4724 41.8831C82.5956 43.1471 82.2776 44.4234 82.1609 46.0801C82.0442 47.7368 82.1187 49.7617 82.6353 51.311C83.044 52.6119 83.703 53.7702 84.5555 54.6858C85.5888 55.732 86.9078 56.2597 88.2243 56.5266C89.8289 56.8672 91.4013 56.2198 92.919 55.5111C95.0229 54.5079 96.7443 52.7285 97.2113 50.0041C97.6783 47.2797 96.8263 44.6504 95.3583 42.5366Z" fill="#FFBF9D"/>
<path d="M95.3583 42.5366C95.3583 42.5366 95.3881 42.5703 95.4403 42.6439C95.4924 42.7176 95.5694 42.828 95.6663 42.9784C95.9483 43.4163 96.2032 43.8799 96.4289 44.3651C96.7894 45.1303 97.0556 45.9575 97.2188 46.8195C97.4402 47.9706 97.4317 49.1709 97.194 50.317C96.8984 51.7116 96.2511 52.9537 95.3459 53.8636C94.851 54.3731 94.308 54.8068 93.7288 55.1552C93.1118 55.5088 92.478 55.8162 91.831 56.0756C91.1526 56.3647 90.4503 56.5602 89.7371 56.6586C89.3661 56.7016 88.9927 56.7016 88.6218 56.6586C88.2463 56.6077 87.8738 56.5278 87.5064 56.4193C86.7474 56.2112 86.0157 55.8725 85.333 55.4129C84.6319 54.926 84.0223 54.2609 83.5445 53.4617C83.0685 52.6655 82.694 51.784 82.4342 50.8478C82.2055 49.9304 82.0793 48.9787 82.0591 48.0191C82.0298 47.0961 82.0698 46.1718 82.1783 45.2579C82.2764 44.3742 82.5153 43.5233 82.8813 42.7544C83.5935 41.3485 84.66 40.2705 85.9167 39.6864C86.9979 39.1668 88.1619 38.9641 89.3173 39.0943C90.2694 39.1326 91.2104 39.3594 92.1043 39.7662C92.7806 40.0714 93.4218 40.4839 94.012 40.9934C94.3838 41.3136 94.7299 41.6773 95.0453 42.0794C95.1546 42.2175 95.2291 42.331 95.2813 42.4016L95.3583 42.5182L95.2714 42.4138C95.2167 42.3433 95.1372 42.2359 95.023 42.107C94.6997 41.7186 94.3498 41.3655 93.9772 41.0517C93.3867 40.557 92.7472 40.158 92.0745 39.8643C91.1853 39.4715 90.2513 39.2551 89.3073 39.2231C88.1653 39.1039 87.0165 39.314 85.9515 39.8367C84.7177 40.4126 83.6707 41.4719 82.9707 42.8526C82.6114 43.6058 82.3783 44.4404 82.2851 45.307C82.1793 46.2119 82.141 47.127 82.1709 48.0405C82.1921 48.9845 82.3166 49.9205 82.541 50.8232C82.7956 51.7439 83.1643 52.6101 83.6339 53.3911C84.0973 54.1733 84.69 54.8248 85.3727 55.3025C86.0442 55.7558 86.7642 56.0894 87.5114 56.2935C87.873 56.4014 88.2397 56.4814 88.6093 56.5328C88.972 56.5742 89.3371 56.5742 89.6998 56.5328C90.4043 56.435 91.0982 56.2426 91.7689 55.9591C92.4118 55.6994 93.0414 55.392 93.6543 55.0387C94.2265 54.6966 94.7636 54.2712 95.254 53.7716C96.1444 52.8808 96.7843 51.6653 97.0822 50.2986C97.32 49.1689 97.3345 47.9852 97.1244 46.8471C96.9673 45.9874 96.7095 45.1606 96.3593 44.3927C96.1386 43.9058 95.8895 43.4392 95.6141 42.9968L95.398 42.6531C95.3807 42.5795 95.3583 42.5366 95.3583 42.5366Z" fill="#263238"/>
<path d="M94.1883 45.8899C94.1286 45.6147 94.0225 45.3582 93.877 45.1372C93.7315 44.9162 93.5497 44.7357 93.3438 44.6075C93.3677 44.3393 93.3429 44.0679 93.2712 43.8131C93.1994 43.5582 93.0825 43.3264 92.929 43.1344C92.7755 42.9425 92.5892 42.7953 92.3838 42.7035C92.1784 42.6118 91.959 42.5778 91.7416 42.6041C91.5825 42.6397 91.4214 42.6602 91.2597 42.6654L91.1504 42.6225L90.9691 42.5396C90.8735 42.4491 90.7823 42.3518 90.6958 42.2482C90.4103 41.9424 90.0429 41.7787 89.6651 41.7889C89.2872 41.7991 88.926 41.9825 88.6515 42.3034C88.495 42.3402 88.341 42.3832 88.187 42.4384C87.7646 42.2625 87.3039 42.291 86.8978 42.5182C86.4954 42.7697 86.2421 43.7638 86.3116 44.2915C85.934 44.5308 85.3876 44.6658 85.0696 45.7518C84.992 46.056 84.9667 46.377 84.9953 46.694C85.024 47.011 85.106 47.3171 85.2361 47.5926C85.2162 47.4484 85.2485 47.7399 85.2361 47.5926C84.9156 48.378 85.3379 49.1266 85.3404 49.412C85.3404 50.0777 85.8372 50.6392 86.1303 50.8877C86.4234 51.1362 86.7513 51.1945 87.0469 51.4C87.5437 51.7375 87.8939 52.4309 88.4503 52.5781C88.9471 52.7101 89.4563 52.345 89.9705 52.3296C90.2959 52.3296 90.6114 52.4523 90.9343 52.4769C91.3927 52.4976 91.8425 52.3192 92.2056 51.9728C92.5686 51.6265 92.8219 51.1339 92.9215 50.5809L92.9339 50.5594C93.3857 50.3073 93.7421 49.8511 93.9301 49.2846C94.1181 48.718 94.1234 48.0841 93.9449 47.5129C94.0759 47.2789 94.1653 47.0133 94.2073 46.7336C94.2492 46.4538 94.2428 46.1663 94.1883 45.8899Z" fill="#006466"/>
<g opacity="0.3">
<path d="M94.1883 45.8899C94.1602 45.7628 94.1219 45.6395 94.074 45.5217C94.1368 46.0271 94.0408 46.5429 93.8057 46.9637C93.9838 47.5354 93.9783 48.1695 93.7903 48.7363C93.6024 49.3032 93.2463 49.76 92.7947 50.0133L92.7823 50.0317C92.6828 50.5851 92.4296 51.0779 92.0666 51.4248C91.7037 51.7717 91.2538 51.9507 90.7951 51.9308C90.4722 51.9032 90.1568 51.7743 89.8314 51.7835C89.3172 51.7835 88.8154 52.1609 88.3112 52.0289C87.7548 51.8817 87.4095 51.1883 86.9077 50.8539C86.6121 50.6545 86.2644 50.5839 85.9911 50.3385C85.7174 50.0855 85.4947 49.758 85.3403 49.3813C85.3403 49.3813 85.3403 49.4058 85.3403 49.4181C85.4501 50.012 85.7308 50.5364 86.1302 50.8938C86.4035 51.1362 86.7512 51.2006 87.0468 51.4061C87.5436 51.7436 87.8939 52.437 88.4503 52.5843C88.9471 52.7162 89.4563 52.3511 89.9705 52.3357C90.2959 52.3357 90.6113 52.4585 90.9342 52.483C91.3927 52.5037 91.8425 52.3254 92.2055 51.979C92.5686 51.6326 92.8219 51.1401 92.9214 50.587L92.9338 50.5655C93.3856 50.3134 93.7421 49.8572 93.9301 49.2907C94.1181 48.7241 94.1234 48.0902 93.9448 47.519C94.0765 47.2843 94.1663 47.0176 94.2083 46.7368C94.2503 46.4559 94.2434 46.1672 94.1883 45.8899Z" fill="black"/>
</g>
<path d="M86.9575 47.8963C86.9361 47.8819 86.9168 47.8633 86.9004 47.8411C86.8536 47.7833 86.812 47.7196 86.7762 47.6509C86.6531 47.4217 86.5908 47.1509 86.598 46.8761C86.6051 46.6012 86.6812 46.3359 86.8159 46.1169C86.8559 46.0505 86.9017 45.9898 86.9525 45.9359C86.9873 45.8991 87.0096 45.8837 87.0121 45.8868C87.0146 45.8899 86.9376 45.9758 86.8457 46.1445C86.7255 46.3611 86.6575 46.6154 86.6495 46.8778C86.6447 47.1413 86.6988 47.4014 86.806 47.6294C86.8904 47.8012 86.9649 47.881 86.9575 47.8963Z" fill="#263238"/>
<path d="M87.0122 48.7646C86.961 48.7041 86.9213 48.6304 86.896 48.5487C86.8706 48.467 86.8603 48.3794 86.8656 48.2921C86.862 48.2048 86.8747 48.1176 86.9027 48.0373C86.9307 47.9569 86.9732 47.8856 87.0271 47.8289C86.9653 47.9735 86.9281 48.1322 86.9178 48.2952C86.9257 48.4575 86.9577 48.6166 87.0122 48.7646Z" fill="#263238"/>
<path d="M91.359 49.507C91.359 49.507 91.359 49.5469 91.3366 49.6113C91.3074 49.7022 91.2699 49.7887 91.2248 49.869C91.0771 50.141 90.8593 50.3433 90.6068 50.443C90.3543 50.5427 90.0818 50.534 89.8338 50.4182C89.7591 50.3858 89.6881 50.3414 89.6227 50.2863C89.5755 50.2495 89.5531 50.2219 89.5556 50.2188C89.6496 50.2787 89.7467 50.331 89.8462 50.3753C90.0878 50.4751 90.3488 50.4771 90.5914 50.3811C90.834 50.2851 91.0454 50.0961 91.195 49.8414C91.2556 49.7346 91.3104 49.6229 91.359 49.507Z" fill="#263238"/>
<path d="M91.8683 49.1757C91.8683 49.1757 91.8907 49.2401 91.8683 49.3413C91.8497 49.4775 91.7914 49.6007 91.7046 49.6876C91.6177 49.7746 91.5081 49.8195 91.3963 49.8138C91.3119 49.8138 91.2647 49.777 91.2672 49.7709C91.4105 49.7866 91.5537 49.7399 91.6721 49.6389C91.7806 49.5188 91.8503 49.3543 91.8683 49.1757Z" fill="#263238"/>
<path d="M92.1812 46.7213C92.1812 46.7213 92.216 46.6109 92.2408 46.4145C92.275 46.1741 92.2474 45.9264 92.1619 45.7063C92.0764 45.4862 91.9372 45.3047 91.7639 45.1873C91.6322 45.0922 91.5378 45.0707 91.5403 45.0585C91.5624 45.0524 91.5853 45.0524 91.6074 45.0585C91.6676 45.0768 91.7259 45.1036 91.7813 45.1382C91.9676 45.2511 92.1178 45.4379 92.2078 45.6688C92.2979 45.8996 92.3226 46.1612 92.2781 46.4114C92.2655 46.4854 92.2463 46.5574 92.2209 46.6262C92.1986 46.6998 92.1837 46.7244 92.1812 46.7213Z" fill="#263238"/>
<path d="M90.2661 45.1719C90.1723 45.0348 90.0474 44.9355 89.9075 44.8869C89.7676 44.8382 89.6192 44.8424 89.4812 44.8989C89.5442 44.8435 89.6171 44.8079 89.6937 44.7951C89.7703 44.7822 89.8482 44.7926 89.9209 44.8253C89.9963 44.8459 90.0668 44.888 90.1267 44.9482C90.1866 45.0084 90.2344 45.085 90.2661 45.1719Z" fill="#263238"/>
<path d="M88.5794 48.2308C88.6094 48.4053 88.6743 48.5677 88.7682 48.7032C88.8715 48.8276 88.9976 48.9192 89.1359 48.9702C89.0589 48.9741 88.9823 48.956 88.9121 48.9171C88.8418 48.8782 88.7798 48.8197 88.731 48.7462C88.6751 48.6807 88.6323 48.6 88.606 48.5106C88.5797 48.4211 88.5706 48.3253 88.5794 48.2308Z" fill="#263238"/>
<path d="M89.7023 43.5674C89.7023 43.5674 89.6253 43.4723 89.4787 43.3618C89.2897 43.211 89.0638 43.147 88.8404 43.1808C88.731 43.2032 88.6268 43.2542 88.5346 43.3304C88.4425 43.4065 88.3647 43.5062 88.3063 43.6226C88.2627 43.7242 88.2301 43.8326 88.2094 43.9447C88.2046 43.9133 88.2046 43.8811 88.2094 43.8496C88.219 43.7624 88.2418 43.6781 88.2765 43.6011C88.3332 43.4733 88.4129 43.3632 88.5093 43.2792C88.6057 43.1952 88.7164 43.1395 88.8329 43.1164C89.0678 43.0811 89.3048 43.1543 89.4986 43.3219C89.5557 43.372 89.609 43.4285 89.6576 43.4907C89.6899 43.5367 89.7048 43.5643 89.7023 43.5674Z" fill="#263238"/>
<g opacity="0.3">
<path d="M86.9997 48.737C86.8581 48.6718 86.7424 48.5415 86.6767 48.3735C86.6109 48.2054 86.6003 48.0125 86.647 47.835C86.4942 47.591 86.4092 47.2925 86.4047 46.9841C86.4003 46.6757 86.4765 46.3737 86.6221 46.123C86.714 45.9666 86.8333 45.8377 86.9301 45.6874C87.027 45.5371 87.1015 45.353 87.2108 45.2088C87.2607 45.1315 87.3248 45.0703 87.3979 45.0302C87.471 44.9902 87.5508 44.9725 87.6306 44.9787C87.3947 45.0615 87.0767 45.3867 87.1338 45.7856C86.997 45.8945 86.8826 46.0413 86.7998 46.2144C86.717 46.3875 86.6681 46.5821 86.6569 46.7827C86.6406 46.9859 86.6621 47.1911 86.7198 47.3825C86.7775 47.5739 86.8698 47.7465 86.9898 47.8871C86.9377 48.0257 86.9132 48.1777 86.9184 48.3303C86.9236 48.483 86.9583 48.6319 87.0196 48.7646" fill="black"/>
</g>
<path d="M90.8547 42.8372C90.8373 42.8372 90.7727 42.7298 90.6361 42.5795C90.4633 42.3816 90.2488 42.2479 90.0173 42.1937C89.7858 42.1394 89.5466 42.1668 89.3271 42.2727C89.1582 42.3524 89.0613 42.4353 89.0489 42.4169C89.0364 42.3985 89.1159 42.2849 89.2973 42.1684C89.5273 42.0249 89.7888 41.9775 90.0425 42.0334C90.2975 42.0917 90.5297 42.2524 90.7032 42.4905C90.8299 42.6838 90.8696 42.831 90.8547 42.8372Z" fill="white"/>
<path d="M92.2656 43.1686C92.2531 43.2115 92.1041 43.1839 91.9277 43.1993C91.7514 43.2146 91.6073 43.2545 91.5924 43.2146C91.5775 43.1747 91.7166 43.052 91.9203 43.0397C92.124 43.0274 92.278 43.1287 92.2656 43.1686Z" fill="white"/>
<path d="M93.602 45.5278C93.5722 45.5524 93.5077 45.5002 93.4207 45.4818C93.3338 45.4634 93.2593 45.4818 93.2394 45.4358C93.2195 45.3898 93.3065 45.2885 93.448 45.3253C93.5896 45.3622 93.6343 45.5094 93.602 45.5278Z" fill="white"/>
<path d="M89.9855 45.1535C89.9731 45.1934 89.8762 45.1873 89.762 45.1904C89.6477 45.1934 89.5508 45.1904 89.5384 45.1535C89.526 45.1167 89.6229 45.0308 89.762 45.0308C89.9011 45.0308 89.998 45.1198 89.9855 45.1535Z" fill="white"/>
<path d="M91.7069 45.7518C91.6721 45.7518 91.6398 45.6168 91.5727 45.4788C91.5057 45.3407 91.4237 45.2425 91.4411 45.2026C91.4585 45.1627 91.5951 45.2026 91.6895 45.3959C91.7839 45.5892 91.7416 45.7549 91.7069 45.7518Z" fill="white"/>
<path d="M88.9024 43.6717C88.9024 43.7177 88.8428 43.7699 88.7832 43.8466C88.7236 43.9233 88.6789 44.0061 88.6441 44C88.6093 43.9938 88.5969 43.8527 88.6888 43.7361C88.7807 43.6195 88.8975 43.6287 88.9024 43.6717Z" fill="white"/>
<path d="M87.0717 46.9606C87.0369 46.9606 86.9872 46.8164 87.0121 46.6201C87.0369 46.4237 87.1164 46.2949 87.1462 46.3133C87.176 46.3317 87.1586 46.4728 87.1462 46.6415C87.1338 46.8103 87.109 46.9606 87.0717 46.9606Z" fill="white"/>
<path d="M86.6619 43.6748C86.6271 43.6748 86.5799 43.506 86.6619 43.3066C86.7439 43.1072 86.8755 43.0335 86.8929 43.0734C86.9103 43.1133 86.8358 43.2176 86.7811 43.3802C86.7265 43.5428 86.6992 43.6686 86.6619 43.6748Z" fill="white"/>
<path d="M85.2807 46.4912C85.2484 46.4912 85.1838 46.212 85.2807 45.8776C85.3775 45.5432 85.5887 45.3867 85.6085 45.4235C85.6284 45.4604 85.4893 45.6475 85.4024 45.9359C85.3154 46.2243 85.3179 46.4851 85.2807 46.4912Z" fill="white"/>
<g opacity="0.4">
<path d="M90.2786 54.2194C89.9681 53.8728 89.4762 54.2685 89.0664 54.1734C88.6565 54.0783 88.4056 53.4586 88.0132 53.2039C87.5685 52.9155 87.0196 53.1426 86.5228 53.0107C85.8447 52.8296 85.4199 52.0197 85.0696 51.2803C84.7194 50.5409 84.3245 49.7218 84.2723 48.8412C84.2699 48.4716 84.2475 48.1027 84.2052 47.7368C84.1819 47.5541 84.1176 47.3832 84.0197 47.2433C83.9218 47.1035 83.7942 47.0002 83.6513 46.9452C83.5658 46.9356 83.4795 46.9485 83.3983 46.9832C83.3171 47.0179 83.2428 47.0734 83.1804 47.1463C83.1179 47.2191 83.0687 47.3075 83.0359 47.4056C83.0032 47.5037 82.9877 47.6092 82.9906 47.7153C83.1346 49.7985 83.7507 51.8694 84.9082 53.3942C86.0657 54.9189 87.7995 55.8271 89.4737 55.5418C89.7551 55.5181 90.0227 55.3825 90.2363 55.1552C90.3407 55.0367 90.4035 54.8727 90.4113 54.6979C90.4192 54.5231 90.3716 54.3515 90.2786 54.2194Z" fill="white"/>
</g>
<g opacity="0.4">
<path d="M90.8499 41.1068C91.595 41.3983 92.3626 41.6959 92.996 42.2696C93.6294 42.8433 94.1337 43.7146 94.8168 44.2577C95.0428 44.4418 95.3682 44.5645 95.562 44.3436C95.6137 44.2765 95.6506 44.1942 95.6693 44.1046C95.688 44.0149 95.6878 43.9208 95.6688 43.8312C95.6311 43.6522 95.5634 43.485 95.4701 43.3403C94.6628 41.9536 93.3388 41.1927 92.0645 40.5331C91.8723 40.4149 91.6628 40.3461 91.4485 40.3306C91.343 40.3287 91.2394 40.3656 91.1509 40.4366C91.0625 40.5077 90.9931 40.6096 90.9517 40.7295" fill="white"/>
</g>
<g opacity="0.4">
<path d="M96.2797 45.9328C96.2556 45.8215 96.212 45.7182 96.1519 45.6302C96.0918 45.5421 96.0167 45.4716 95.9319 45.4235L95.8698 45.4634C95.8051 45.4565 95.7401 45.4687 95.68 45.4991C95.62 45.5296 95.5666 45.5773 95.5245 45.6383C95.4397 45.7605 95.393 45.9161 95.3929 46.077C95.3879 46.188 95.4063 46.2986 95.4464 46.3981C95.4865 46.4976 95.5468 46.5826 95.6214 46.6446C95.7035 46.6996 95.7975 46.7215 95.8901 46.7072C95.9828 46.6929 96.0695 46.6431 96.1381 46.5648C96.2049 46.4844 96.2532 46.3835 96.2781 46.2725C96.303 46.1614 96.3035 46.0442 96.2797 45.9328Z" fill="white"/>
</g>
<g opacity="0.2">
<path d="M81.8852 29.3779C82.113 29.3779 82.2976 29.1499 82.2976 28.8686C82.2976 28.5873 82.113 28.3593 81.8852 28.3593C81.6575 28.3593 81.4729 28.5873 81.4729 28.8686C81.4729 29.1499 81.6575 29.3779 81.8852 29.3779Z" fill="white"/>
</g>
<g opacity="0.2">
<path d="M101.168 58.4963C101.168 58.597 101.144 58.6955 101.099 58.7792C101.053 58.863 100.989 58.9283 100.914 58.9668C100.838 59.0054 100.755 59.0154 100.675 58.9958C100.595 58.9761 100.522 58.9276 100.464 58.8564C100.407 58.7852 100.367 58.6944 100.351 58.5956C100.336 58.4969 100.344 58.3945 100.375 58.3014C100.406 58.2083 100.459 58.1288 100.527 58.0728C100.595 58.0169 100.674 57.987 100.756 57.987C100.81 57.987 100.864 58.0002 100.914 58.0258C100.964 58.0514 101.009 58.0889 101.047 58.1362C101.086 58.1835 101.116 58.2396 101.137 58.3014C101.158 58.3632 101.168 58.4294 101.168 58.4963Z" fill="white"/>
</g>
<g opacity="0.2">
<path d="M86.4036 61.7299C86.6313 61.7299 86.8159 61.5019 86.8159 61.2207C86.8159 60.9394 86.6313 60.7114 86.4036 60.7114C86.1758 60.7114 85.9912 60.9394 85.9912 61.2207C85.9912 61.5019 86.1758 61.7299 86.4036 61.7299Z" fill="white"/>
</g>
<g opacity="0.2">
<path d="M87.8269 62.7945C88.1808 62.7945 88.4678 62.4401 88.4678 62.003C88.4678 61.5658 88.1808 61.2114 87.8269 61.2114C87.473 61.2114 87.186 61.5658 87.186 62.003C87.186 62.4401 87.473 62.7945 87.8269 62.7945Z" fill="white"/>
</g>
<g opacity="0.2">
<path d="M83.5867 27.7427C83.5867 27.8925 83.5507 28.039 83.4833 28.1637C83.4159 28.2883 83.3201 28.3854 83.208 28.4428C83.0958 28.5001 82.9725 28.5151 82.8535 28.4859C82.7345 28.4567 82.6251 28.3845 82.5393 28.2785C82.4535 28.1725 82.3951 28.0375 82.3714 27.8905C82.3477 27.7435 82.3599 27.5911 82.4063 27.4527C82.4528 27.3142 82.5314 27.1958 82.6323 27.1126C82.7332 27.0293 82.8518 26.9849 82.9732 26.9849C83.1359 26.9849 83.2919 27.0647 83.407 27.2068C83.5221 27.3489 83.5867 27.5417 83.5867 27.7427Z" fill="white"/>
</g>
<g opacity="0.3">
<path d="M82.4141 34.9739C82.4141 35.0892 82.3865 35.2019 82.3346 35.2978C82.2827 35.3936 82.209 35.4683 82.1228 35.5125C82.0365 35.5566 81.9416 35.5681 81.8501 35.5456C81.7585 35.5231 81.6745 35.4676 81.6084 35.3861C81.5424 35.3046 81.4975 35.2007 81.4793 35.0876C81.4611 34.9746 81.4704 34.8574 81.5061 34.7508C81.5419 34.6443 81.6024 34.5533 81.68 34.4892C81.7576 34.4252 81.8488 34.391 81.9422 34.391C82.0673 34.391 82.1874 34.4524 82.2759 34.5617C82.3644 34.671 82.4141 34.8193 82.4141 34.9739Z" fill="white"/>
</g>
<g opacity="0.3">
<path d="M97.6038 41.5578C97.6038 41.6733 97.5761 41.7861 97.5241 41.882C97.4721 41.9779 97.3983 42.0526 97.3119 42.0967C97.2255 42.1407 97.1305 42.1521 97.0389 42.1293C96.9473 42.1066 96.8632 42.0508 96.7973 41.9689C96.7314 41.8871 96.6866 41.783 96.6687 41.6697C96.6508 41.5564 96.6605 41.4391 96.6966 41.3326C96.7327 41.2262 96.7935 41.1353 96.8715 41.0717C96.9494 41.008 97.0409 40.9743 97.1344 40.9749C97.1962 40.9749 97.2575 40.99 97.3146 41.0194C97.3717 41.0487 97.4236 41.0917 97.4672 41.1458C97.5108 41.2 97.5454 41.2643 97.5688 41.335C97.5923 41.4057 97.6042 41.4814 97.6038 41.5578Z" fill="white"/>
</g>
<g opacity="0.3">
<path d="M100.242 50.3354C100.242 50.4508 100.214 50.5636 100.162 50.6595C100.11 50.7555 100.036 50.8302 99.9498 50.8742C99.8635 50.9182 99.7684 50.9296 99.6768 50.9069C99.5852 50.8841 99.5011 50.8283 99.4352 50.7465C99.3693 50.6646 99.3245 50.5605 99.3066 50.4472C99.2887 50.3339 99.2984 50.2166 99.3345 50.1102C99.3706 50.0037 99.4315 49.9129 99.5094 49.8492C99.5874 49.7855 99.6788 49.7518 99.7723 49.7524C99.8342 49.7524 99.8954 49.7675 99.9525 49.7969C100.01 49.8262 100.062 49.8692 100.105 49.9234C100.149 49.9775 100.183 50.0418 100.207 50.1125C100.23 50.1832 100.242 50.259 100.242 50.3354Z" fill="white"/>
</g>
<g opacity="0.3">
<path d="M102.239 37.2013C102.239 37.3651 102.199 37.5253 102.126 37.6615C102.052 37.7977 101.947 37.9039 101.825 37.9666C101.702 38.0293 101.567 38.0457 101.437 38.0137C101.307 37.9818 101.188 37.9029 101.094 37.787C101 37.6712 100.936 37.5236 100.91 37.3629C100.884 37.2022 100.898 37.0357 100.949 36.8843C100.999 36.7329 101.085 36.6036 101.196 36.5125C101.306 36.4215 101.435 36.3729 101.568 36.3729C101.656 36.3725 101.744 36.3937 101.825 36.4352C101.907 36.4767 101.981 36.5376 102.043 36.6146C102.105 36.6917 102.155 36.7831 102.188 36.8838C102.222 36.9845 102.239 37.0924 102.239 37.2013Z" fill="white"/>
</g>
<g opacity="0.3">
<path d="M82.0688 38.1923C82.0688 38.4411 82.0091 38.6842 81.8972 38.8911C81.7853 39.098 81.6262 39.2592 81.4401 39.3544C81.2541 39.4496 81.0493 39.4745 80.8517 39.426C80.6542 39.3774 80.4727 39.2576 80.3303 39.0817C80.1878 38.9058 80.0908 38.6817 80.0516 38.4377C80.0123 38.1937 80.0324 37.9407 80.1095 37.7109C80.1866 37.4811 80.3171 37.2846 80.4846 37.1464C80.6521 37.0082 80.849 36.9344 81.0504 36.9344C81.3203 36.9352 81.579 37.068 81.7698 37.3037C81.9607 37.5394 82.0682 37.8589 82.0688 38.1923Z" fill="white"/>
</g>
<path d="M86.3538 35.3268C86.4371 35.2986 86.5253 35.3015 86.6073 35.3351C86.6893 35.3688 86.7614 35.4317 86.8144 35.5159C86.8675 35.6001 86.8991 35.7018 86.9054 35.8082C86.9117 35.9146 86.8923 36.021 86.8497 36.1138C86.8071 36.2066 86.7432 36.2818 86.6661 36.3298C86.5889 36.3778 86.502 36.3965 86.4162 36.3835C86.3305 36.3705 86.2498 36.3264 86.1843 36.2569C86.1188 36.1873 86.0715 36.0953 86.0483 35.9925C86.0328 35.924 86.0285 35.8524 86.0355 35.7819C86.0425 35.7113 86.0607 35.6431 86.0891 35.5813C86.1175 35.5194 86.1555 35.4651 86.2009 35.4214C86.2463 35.3777 86.2983 35.3456 86.3538 35.3268Z" fill="#E0E0E0"/>
<path d="M85.216 33.8019C85.2994 33.7737 85.3876 33.7766 85.4695 33.8103C85.5515 33.8439 85.6236 33.9068 85.6766 33.991C85.7297 34.0752 85.7614 34.177 85.7677 34.2834C85.7739 34.3898 85.7546 34.4961 85.712 34.5889C85.6694 34.6818 85.6055 34.7569 85.5283 34.8049C85.4512 34.8529 85.3642 34.8716 85.2785 34.8586C85.1927 34.8457 85.112 34.8016 85.0465 34.732C84.981 34.6625 84.9337 34.5705 84.9105 34.4677C84.88 34.3294 84.895 34.1818 84.9522 34.057C85.0094 33.9323 85.1043 33.8406 85.216 33.8019Z" fill="#E0E0E0"/>
<path d="M85.8371 36.2441C85.9205 36.2157 86.0088 36.2185 86.0909 36.2521C86.1731 36.2858 86.2452 36.3487 86.2984 36.4331C86.3515 36.5174 86.3832 36.6193 86.3894 36.7259C86.3956 36.8325 86.376 36.939 86.3332 37.0318C86.2904 37.1247 86.2262 37.1998 86.1489 37.2476C86.0715 37.2954 85.9844 37.3137 85.8985 37.3003C85.8127 37.287 85.732 37.2424 85.6667 37.1724C85.6013 37.1023 85.5543 37.0099 85.5315 36.9068C85.5011 36.7689 85.5161 36.6217 85.5734 36.4974C85.6307 36.3732 85.7255 36.2821 85.8371 36.2441Z" fill="#E0E0E0"/>
<path d="M85.6483 32.949C85.7317 32.9208 85.8199 32.9237 85.9018 32.9574C85.9838 32.991 86.0559 33.0539 86.1089 33.1381C86.162 33.2223 86.1937 33.3241 86.2 33.4305C86.2062 33.5369 86.1869 33.6432 86.1443 33.736C86.1017 33.8289 86.0378 33.904 85.9606 33.952C85.8835 34 85.7965 34.0187 85.7108 34.0057C85.625 33.9928 85.5443 33.9487 85.4788 33.8791C85.4133 33.8095 85.366 33.7176 85.3428 33.6148C85.313 33.4765 85.3282 33.3293 85.3854 33.2047C85.4425 33.0802 85.5369 32.9884 85.6483 32.949Z" fill="#E0E0E0"/>
<path d="M86.893 34.5997C86.9763 34.5714 87.0645 34.5744 87.1465 34.608C87.2284 34.6417 87.3005 34.7046 87.3536 34.7888C87.4066 34.873 87.4383 34.9747 87.4446 35.0811C87.4509 35.1875 87.4315 35.2939 87.3889 35.3867C87.3463 35.4795 87.2824 35.5547 87.2052 35.6027C87.1281 35.6507 87.0412 35.6693 86.9554 35.6564C86.8697 35.6434 86.789 35.5993 86.7235 35.5298C86.658 35.4602 86.6106 35.3682 86.5874 35.2654C86.5576 35.1271 86.5729 34.9799 86.63 34.8554C86.6871 34.7309 86.7816 34.639 86.893 34.5997Z" fill="#E0E0E0"/>
<path d="M86.2917 34.3818C86.3751 34.3534 86.4634 34.3562 86.5455 34.3898C86.6276 34.4235 86.6998 34.4865 86.753 34.5708C86.8061 34.6551 86.8377 34.7571 86.8439 34.8636C86.8501 34.9702 86.8306 35.0767 86.7878 35.1695C86.745 35.2624 86.6808 35.3375 86.6034 35.3853C86.5261 35.4331 86.4389 35.4514 86.3531 35.438C86.2673 35.4247 86.1866 35.3801 86.1213 35.3101C86.0559 35.24 86.0089 35.1476 85.9861 35.0445C85.9557 34.9066 85.9707 34.7594 86.028 34.6351C86.0853 34.5109 86.1801 34.4198 86.2917 34.3818Z" fill="#E0E0E0"/>
<path d="M87.9212 34.8267C88.0045 34.7984 88.0927 34.8013 88.1747 34.835C88.2567 34.8687 88.3287 34.9316 88.3818 35.0158C88.4349 35.1 88.4665 35.2017 88.4728 35.3081C88.4791 35.4145 88.4597 35.5208 88.4171 35.6137C88.3745 35.7065 88.3106 35.7816 88.2335 35.8296C88.1563 35.8776 88.0694 35.8963 87.9836 35.8834C87.8979 35.8704 87.8172 35.8263 87.7517 35.7568C87.6862 35.6872 87.6389 35.5952 87.6157 35.4924C87.6002 35.4239 87.5959 35.3523 87.6029 35.2817C87.6099 35.2112 87.6281 35.143 87.6565 35.0811C87.6848 35.0193 87.7228 34.965 87.7683 34.9213C87.8137 34.8776 87.8657 34.8455 87.9212 34.8267Z" fill="#E0E0E0"/>
<path d="M85.9017 34.4984C85.985 34.4702 86.0732 34.4731 86.1552 34.5068C86.2371 34.5404 86.3092 34.6033 86.3623 34.6875C86.4153 34.7717 86.447 34.8734 86.4533 34.9799C86.4596 35.0863 86.4402 35.1926 86.3976 35.2854C86.355 35.3782 86.2911 35.4534 86.2139 35.5014C86.1368 35.5494 86.0498 35.5681 85.9641 35.5551C85.8784 35.5421 85.7976 35.4981 85.7322 35.4285C85.6667 35.3589 85.6193 35.2669 85.5961 35.1642C85.5807 35.0957 85.5763 35.0241 85.5833 34.9535C85.5903 34.8829 85.6085 34.8147 85.6369 34.7529C85.6653 34.691 85.7033 34.6367 85.7488 34.593C85.7942 34.5494 85.8461 34.5172 85.9017 34.4984Z" fill="#EBEBEB"/>
<path d="M87.3226 35.3176C87.4059 35.2893 87.4941 35.2923 87.5761 35.3259C87.658 35.3596 87.7301 35.4225 87.7832 35.5067C87.8362 35.5909 87.8679 35.6926 87.8742 35.799C87.8805 35.9054 87.8611 36.0118 87.8185 36.1046C87.7759 36.1974 87.712 36.2726 87.6348 36.3206C87.5577 36.3686 87.4707 36.3872 87.385 36.3743C87.2993 36.3613 87.2185 36.3172 87.1531 36.2477C87.0876 36.1781 87.0402 36.0861 87.017 35.9833C87.0016 35.9148 86.9972 35.8432 87.0042 35.7727C87.0112 35.7021 87.0294 35.6339 87.0578 35.572C87.0862 35.5102 87.1242 35.4559 87.1696 35.4122C87.2151 35.3685 87.267 35.3364 87.3226 35.3176Z" fill="#EBEBEB"/>
<path d="M87.4047 34.2837C87.4881 34.2552 87.5765 34.258 87.6586 34.2917C87.7407 34.3253 87.8129 34.3883 87.866 34.4726C87.9191 34.557 87.9508 34.6589 87.957 34.7655C87.9632 34.8721 87.9436 34.9785 87.9008 35.0714C87.858 35.1642 87.7939 35.2393 87.7165 35.2871C87.6391 35.3349 87.552 35.3533 87.4661 35.3399C87.3803 35.3265 87.2996 35.282 87.2343 35.2119C87.169 35.1419 87.1219 35.0494 87.0992 34.9463C87.0687 34.8084 87.0837 34.6612 87.141 34.537C87.1983 34.4128 87.2931 34.3217 87.4047 34.2837Z" fill="#EBEBEB"/>
<path d="M86.9002 33.7099C86.9835 33.6817 87.0717 33.6846 87.1537 33.7182C87.2357 33.7519 87.3077 33.8148 87.3608 33.899C87.4139 33.9832 87.4455 34.0849 87.4518 34.1913C87.4581 34.2978 87.4387 34.4041 87.3961 34.4969C87.3535 34.5897 87.2896 34.6649 87.2125 34.7129C87.1353 34.7609 87.0484 34.7796 86.9626 34.7666C86.8769 34.7536 86.7962 34.7096 86.7307 34.64C86.6652 34.5704 86.6179 34.4784 86.5947 34.3757C86.5792 34.3072 86.5749 34.2356 86.5819 34.165C86.5889 34.0944 86.6071 34.0262 86.6355 33.9644C86.6639 33.9025 86.7019 33.8482 86.7473 33.8045C86.7927 33.7608 86.8447 33.7287 86.9002 33.7099Z" fill="#EBEBEB"/>
<path d="M87.8194 36.0968C87.9027 36.0686 87.9909 36.0715 88.0729 36.1051C88.1549 36.1388 88.2269 36.2017 88.28 36.2859C88.333 36.3701 88.3647 36.4718 88.371 36.5782C88.3773 36.6847 88.3579 36.791 88.3153 36.8838C88.2727 36.9766 88.2088 37.0518 88.1317 37.0998C88.0545 37.1478 87.9676 37.1665 87.8818 37.1535C87.7961 37.1405 87.7154 37.0965 87.6499 37.0269C87.5844 36.9573 87.5371 36.8653 87.5139 36.7626C87.4984 36.6941 87.494 36.6225 87.501 36.5519C87.508 36.4813 87.5263 36.4131 87.5546 36.3513C87.583 36.2894 87.621 36.2351 87.6665 36.1914C87.7119 36.1478 87.7639 36.1156 87.8194 36.0968Z" fill="#EBEBEB"/>
<path d="M85.728 35.4157C85.8112 35.3869 85.8995 35.3892 85.9817 35.4224C86.0639 35.4556 86.1363 35.5181 86.1897 35.6021C86.2431 35.6861 86.2751 35.7877 86.2818 35.8942C86.2884 36.0007 86.2693 36.1072 86.227 36.2003C86.1846 36.2934 86.1208 36.3688 86.0437 36.4172C85.9666 36.4655 85.8796 36.4845 85.7938 36.4718C85.708 36.4591 85.6271 36.4152 85.5614 36.3457C85.4958 36.2762 85.4483 36.1843 85.4249 36.0815C85.4094 36.0132 85.405 35.9418 85.4118 35.8713C85.4186 35.8009 85.4366 35.7329 85.4648 35.671C85.4929 35.6092 85.5307 35.5548 85.5758 35.511C85.621 35.4672 85.6727 35.4348 85.728 35.4157Z" fill="#EBEBEB"/>
<path d="M85.0921 35.8729C85.1754 35.8446 85.2636 35.8476 85.3456 35.8812C85.4276 35.9149 85.4996 35.9778 85.5527 36.062C85.6057 36.1462 85.6374 36.2479 85.6437 36.3543C85.65 36.4607 85.6306 36.567 85.588 36.6599C85.5454 36.7527 85.4815 36.8278 85.4044 36.8758C85.3272 36.9238 85.2403 36.9425 85.1545 36.9296C85.0688 36.9166 84.9881 36.8725 84.9226 36.803C84.8571 36.7334 84.8098 36.6414 84.7866 36.5386C84.7711 36.4701 84.7668 36.3985 84.7738 36.3279C84.7808 36.2574 84.799 36.1892 84.8274 36.1273C84.8557 36.0655 84.8937 36.0112 84.9392 35.9675C84.9846 35.9238 85.0366 35.8917 85.0921 35.8729Z" fill="#EBEBEB"/>
<path d="M85.8768 33.489C85.9601 33.4608 86.0483 33.4637 86.1303 33.4974C86.2122 33.531 86.2843 33.5939 86.3374 33.6781C86.3904 33.7623 86.4221 33.864 86.4284 33.9705C86.4347 34.0769 86.4153 34.1832 86.3727 34.276C86.3301 34.3688 86.2662 34.444 86.189 34.492C86.1119 34.54 86.0249 34.5587 85.9392 34.5457C85.8535 34.5327 85.7727 34.4887 85.7073 34.4191C85.6418 34.3495 85.5944 34.2575 85.5712 34.1548C85.5558 34.0863 85.5514 34.0147 85.5584 33.9441C85.5654 33.8735 85.5836 33.8054 85.612 33.7435C85.6404 33.6816 85.6784 33.6273 85.7238 33.5836C85.7693 33.54 85.8212 33.5078 85.8768 33.489Z" fill="#EBEBEB"/>
<path d="M101.297 44.5799C101.26 44.4839 101.246 44.3763 101.257 44.2706C101.269 44.1649 101.306 44.0659 101.363 43.986C101.42 43.9061 101.496 43.8489 101.579 43.8217C101.663 43.7945 101.751 43.7985 101.833 43.8331C101.914 43.8678 101.986 43.9315 102.038 44.0163C102.091 44.1011 102.121 44.2032 102.127 44.3097C102.132 44.4162 102.112 44.5223 102.069 44.6146C102.026 44.7069 101.961 44.7813 101.884 44.8284C101.779 44.8909 101.659 44.8999 101.549 44.8534C101.439 44.8068 101.349 44.7085 101.297 44.5799Z" fill="#E0E0E0"/>
<path d="M100.296 46.2427C100.259 46.1467 100.245 46.0391 100.256 45.9334C100.268 45.8277 100.305 45.7287 100.362 45.6488C100.42 45.5689 100.495 45.5118 100.578 45.4846C100.662 45.4574 100.75 45.4613 100.832 45.496C100.913 45.5306 100.985 45.5944 101.037 45.6792C101.09 45.764 101.12 45.8661 101.126 45.9725C101.131 46.079 101.111 46.1851 101.068 46.2774C101.025 46.3697 100.96 46.4441 100.883 46.4912C100.778 46.553 100.658 46.5615 100.548 46.5151C100.439 46.4686 100.348 46.3708 100.296 46.2427Z" fill="#E0E0E0"/>
<path d="M102.122 45.0339C102.084 44.9379 102.07 44.8303 102.082 44.7246C102.094 44.6189 102.131 44.5199 102.188 44.44C102.245 44.3601 102.32 44.303 102.404 44.2758C102.487 44.2486 102.576 44.2525 102.657 44.2872C102.739 44.3218 102.81 44.3856 102.863 44.4704C102.915 44.5552 102.946 44.6573 102.952 44.7637C102.957 44.8702 102.937 44.9763 102.894 45.0686C102.85 45.1609 102.786 45.2353 102.708 45.2824C102.657 45.3138 102.6 45.3323 102.543 45.3368C102.485 45.3413 102.428 45.3317 102.373 45.3086C102.319 45.2855 102.269 45.2494 102.226 45.2022C102.182 45.1551 102.147 45.0979 102.122 45.0339Z" fill="#E0E0E0"/>
<path d="M99.5388 45.8776C99.5011 45.7816 99.4872 45.674 99.4989 45.5683C99.5106 45.4626 99.5474 45.3636 99.6047 45.2837C99.6619 45.2038 99.7371 45.1467 99.8206 45.1195C99.9041 45.0923 99.9923 45.0962 100.074 45.1309C100.156 45.1655 100.227 45.2293 100.28 45.3141C100.332 45.3989 100.363 45.501 100.368 45.6074C100.374 45.7139 100.354 45.82 100.31 45.9123C100.267 46.0046 100.203 46.079 100.125 46.1261C100.073 46.1575 100.017 46.176 99.9597 46.1805C99.9022 46.185 99.8446 46.1754 99.7901 46.1523C99.7357 46.1292 99.6854 46.0931 99.6423 46.0459C99.5992 45.9988 99.564 45.9416 99.5388 45.8776Z" fill="#E0E0E0"/>
<path d="M100.619 44.0582C100.582 43.9623 100.568 43.8547 100.579 43.749C100.591 43.6433 100.628 43.5443 100.685 43.4644C100.743 43.3845 100.818 43.3273 100.901 43.3001C100.985 43.2729 101.073 43.2769 101.155 43.3115C101.236 43.3462 101.308 43.4099 101.36 43.4947C101.413 43.5795 101.443 43.6816 101.449 43.7881C101.454 43.8946 101.434 44.0006 101.391 44.0929C101.348 44.1853 101.283 44.2597 101.206 44.3068C101.154 44.3382 101.098 44.3566 101.04 44.3611C100.983 44.3656 100.925 44.3561 100.871 44.333C100.816 44.3099 100.766 44.2737 100.723 44.2266C100.68 44.1794 100.645 44.1222 100.619 44.0582Z" fill="#E0E0E0"/>
<path d="M100.545 44.8345C100.507 44.7385 100.493 44.6309 100.505 44.5252C100.517 44.4195 100.554 44.3205 100.611 44.2406C100.668 44.1607 100.743 44.1036 100.827 44.0764C100.91 44.0492 100.998 44.0531 101.08 44.0878C101.162 44.1224 101.233 44.1862 101.286 44.271C101.338 44.3558 101.369 44.4579 101.374 44.5643C101.38 44.6708 101.36 44.7769 101.316 44.8692C101.273 44.9615 101.209 45.0359 101.131 45.083C101.079 45.1144 101.023 45.1329 100.966 45.1374C100.908 45.1419 100.851 45.1323 100.796 45.1092C100.742 45.0861 100.692 45.05 100.648 45.0028C100.605 44.9557 100.57 44.8985 100.545 44.8345Z" fill="#E0E0E0"/>
<path d="M100.609 42.7697C100.572 42.6738 100.558 42.5662 100.569 42.4605C100.581 42.3548 100.618 42.2557 100.675 42.1759C100.733 42.096 100.808 42.0388 100.891 42.0116C100.975 41.9844 101.063 41.9884 101.145 42.023C101.226 42.0577 101.298 42.1214 101.35 42.2062C101.403 42.291 101.433 42.3931 101.439 42.4996C101.444 42.606 101.424 42.7121 101.381 42.8044C101.338 42.8967 101.273 42.9711 101.196 43.0182C101.091 43.0808 100.971 43.0898 100.861 43.0433C100.751 42.9967 100.661 42.8984 100.609 42.7697Z" fill="#E0E0E0"/>
<path d="M100.724 45.2824C100.685 45.1866 100.671 45.079 100.682 44.9732C100.694 44.8674 100.73 44.7681 100.787 44.6878C100.844 44.6076 100.919 44.55 101.003 44.5224C101.086 44.4947 101.174 44.4983 101.256 44.5326C101.338 44.5668 101.41 44.6303 101.463 44.7149C101.515 44.7996 101.546 44.9016 101.552 45.0081C101.558 45.1146 101.538 45.2208 101.495 45.3133C101.452 45.4058 101.387 45.4805 101.31 45.5278C101.206 45.5906 101.086 45.6001 100.976 45.5541C100.866 45.5082 100.775 45.4105 100.724 45.2824Z" fill="#EBEBEB"/>
<path d="M101.111 43.4048C101.073 43.309 101.059 43.2014 101.07 43.0956C101.081 42.9898 101.118 42.8905 101.175 42.8102C101.232 42.73 101.307 42.6724 101.39 42.6448C101.474 42.6171 101.562 42.6207 101.644 42.6549C101.726 42.6892 101.797 42.7527 101.85 42.8373C101.903 42.9219 101.934 43.0239 101.94 43.1305C101.945 43.237 101.925 43.3432 101.882 43.4357C101.839 43.5282 101.775 43.6028 101.697 43.6502C101.646 43.6817 101.59 43.7004 101.532 43.7051C101.475 43.7098 101.417 43.7005 101.363 43.6777C101.309 43.6549 101.258 43.6191 101.215 43.5722C101.172 43.5254 101.136 43.4685 101.111 43.4048Z" fill="#EBEBEB"/>
<path d="M100.272 43.4968C100.234 43.4009 100.22 43.2933 100.232 43.1876C100.243 43.0819 100.28 42.9828 100.337 42.903C100.395 42.8231 100.47 42.7659 100.553 42.7387C100.637 42.7115 100.725 42.7155 100.807 42.7501C100.888 42.7848 100.96 42.8485 101.012 42.9333C101.065 43.0181 101.096 43.1202 101.101 43.2267C101.106 43.3332 101.086 43.4392 101.043 43.5316C101 43.6239 100.935 43.6983 100.858 43.7454C100.806 43.7768 100.75 43.7952 100.692 43.7997C100.635 43.8042 100.577 43.7947 100.523 43.7716C100.468 43.7485 100.418 43.7123 100.375 43.6652C100.332 43.618 100.297 43.5608 100.272 43.4968Z" fill="#EBEBEB"/>
<path d="M99.9114 44.2178C99.8732 44.1221 99.8589 44.0145 99.8702 43.9086C99.8815 43.8028 99.918 43.7035 99.975 43.6233C100.032 43.543 100.107 43.4854 100.19 43.4578C100.274 43.4302 100.362 43.4337 100.444 43.468C100.526 43.5022 100.598 43.5657 100.65 43.6503C100.703 43.735 100.734 43.837 100.74 43.9435C100.746 44.05 100.726 44.1562 100.683 44.2487C100.639 44.3412 100.575 44.4159 100.498 44.4633C100.393 44.5261 100.273 44.5355 100.164 44.4895C100.054 44.4436 99.9632 44.3459 99.9114 44.2178Z" fill="#EBEBEB"/>
<path d="M101.638 42.6654C101.6 42.5695 101.586 42.4619 101.598 42.3562C101.61 42.2505 101.646 42.1514 101.704 42.0715C101.761 41.9917 101.836 41.9345 101.919 41.9073C102.003 41.8801 102.091 41.8841 102.173 41.9187C102.255 41.9533 102.326 42.0171 102.379 42.1019C102.431 42.1867 102.462 42.2888 102.467 42.3953C102.473 42.5017 102.453 42.6078 102.409 42.7001C102.366 42.7924 102.301 42.8668 102.224 42.9139C102.172 42.9453 102.116 42.9638 102.059 42.9683C102.001 42.9728 101.943 42.9633 101.889 42.9402C101.835 42.9171 101.784 42.8809 101.741 42.8338C101.698 42.7866 101.663 42.7294 101.638 42.6654Z" fill="#EBEBEB"/>
<path d="M101.484 45.3223C101.445 45.226 101.43 45.1176 101.441 45.0109C101.452 44.9041 101.489 44.8039 101.546 44.7228C101.603 44.6417 101.679 44.5834 101.763 44.5554C101.847 44.5274 101.936 44.5309 102.018 44.5654C102.101 44.6 102.173 44.664 102.226 44.7494C102.279 44.8349 102.31 44.9378 102.316 45.0452C102.321 45.1526 102.301 45.2596 102.257 45.3526C102.213 45.4457 102.148 45.5205 102.07 45.5677C101.966 45.6305 101.846 45.64 101.736 45.594C101.626 45.548 101.536 45.4504 101.484 45.3223Z" fill="#EBEBEB"/>
<path d="M101.966 46.0095C101.928 45.9136 101.914 45.806 101.926 45.7003C101.937 45.5946 101.974 45.4955 102.031 45.4157C102.089 45.3358 102.164 45.2786 102.247 45.2514C102.331 45.2242 102.419 45.2282 102.501 45.2628C102.582 45.2975 102.654 45.3612 102.706 45.446C102.759 45.5308 102.79 45.6329 102.795 45.7394C102.801 45.8459 102.78 45.9519 102.737 46.0442C102.694 46.1366 102.629 46.2109 102.552 46.258C102.5 46.2894 102.444 46.3079 102.386 46.3124C102.329 46.3169 102.271 46.3074 102.217 46.2843C102.162 46.2612 102.112 46.225 102.069 46.1779C102.026 46.1307 101.991 46.0735 101.966 46.0095Z" fill="#EBEBEB"/>
<path d="M99.9237 45.5003C99.8848 45.404 99.8699 45.2956 99.881 45.1889C99.892 45.0821 99.9285 44.9818 99.9858 44.9007C100.043 44.8196 100.119 44.7614 100.203 44.7334C100.287 44.7054 100.376 44.7089 100.458 44.7434C100.541 44.778 100.613 44.842 100.666 44.9274C100.719 45.0128 100.75 45.1158 100.756 45.2232C100.761 45.3306 100.741 45.4376 100.697 45.5306C100.653 45.6236 100.588 45.6985 100.51 45.7457C100.458 45.7772 100.402 45.7959 100.345 45.8006C100.288 45.8053 100.23 45.796 100.176 45.7732C100.121 45.7504 100.071 45.7145 100.028 45.6677C99.9844 45.6209 99.9491 45.564 99.9237 45.5003Z" fill="#EBEBEB"/>
<path d="M98.4283 53.6519C98.127 53.6692 97.8366 53.7962 97.5937 54.017C96.7752 54.6404 95.9864 55.3216 95.2314 56.0572C94.9532 56.3149 94.6452 56.6954 94.7545 57.1003C94.7939 57.2176 94.8589 57.319 94.9422 57.3932C95.0256 57.4674 95.124 57.5116 95.2265 57.5207C95.432 57.5538 95.6409 57.5123 95.8276 57.401C97.0472 56.6616 97.8148 56.2382 98.7637 54.919C98.8934 54.7322 98.9793 54.5052 99.0121 54.2624C99.027 53.9771 98.7264 53.6673 98.4283 53.6519Z" fill="#006466"/>
<g opacity="0.3">
<path d="M96.1159 56.3732C96.1383 56.4745 96.2575 56.5297 96.3419 56.5266C96.3961 56.5237 96.448 56.499 96.4897 56.4563C96.5315 56.4135 96.5607 56.3551 96.573 56.2899C96.5854 56.2247 96.5801 56.1563 96.558 56.0952C96.536 56.034 96.4983 55.9835 96.4508 55.9512C96.4033 55.919 96.3485 55.9068 96.2949 55.9166C96.2413 55.9264 96.1917 55.9576 96.1538 56.0054C96.1158 56.0532 96.0916 56.115 96.0847 56.1815C96.0779 56.2479 96.0889 56.3152 96.1159 56.3732Z" fill="black"/>
</g>
<g opacity="0.2">
<path d="M95.3284 56.634C95.3433 56.7045 95.4252 56.7413 95.4824 56.7383C95.5283 56.7359 95.5716 56.7115 95.6031 56.6702C95.6347 56.629 95.652 56.5741 95.6513 56.5174C95.6462 56.461 95.6238 56.4091 95.5887 56.3725C95.5535 56.336 95.5084 56.3175 95.4625 56.321C95.4349 56.3247 95.4084 56.3367 95.3853 56.3558C95.3623 56.375 95.3434 56.4007 95.3302 56.4309C95.317 56.4611 95.3099 56.4948 95.3096 56.5291C95.3093 56.5634 95.3157 56.5973 95.3284 56.6278" fill="black"/>
</g>
<g opacity="0.2">
<path d="M97.8149 55.4467C97.8149 55.4927 97.8745 55.5142 97.9093 55.5142C97.9376 55.5142 97.9648 55.5003 97.9848 55.4755C98.0048 55.4508 98.0161 55.4172 98.0161 55.3822C98.0161 55.3472 98.0048 55.3137 97.9848 55.2889C97.9648 55.2642 97.9376 55.2503 97.9093 55.2503C97.8917 55.2528 97.8748 55.2606 97.8602 55.2729C97.8456 55.2852 97.8336 55.3018 97.8253 55.3211C97.817 55.3404 97.8126 55.3619 97.8125 55.3838C97.8124 55.4057 97.8166 55.4272 97.8248 55.4467" fill="black"/>
</g>
<g opacity="0.2">
<path d="M98.18 54.3759C98.18 54.4219 98.2397 54.4434 98.2769 54.4434C98.3061 54.4418 98.3337 54.4262 98.3536 54.3998C98.3736 54.3734 98.3844 54.3384 98.3837 54.3023C98.38 54.2671 98.3657 54.2348 98.3436 54.2121C98.3215 54.1893 98.2932 54.1777 98.2645 54.1796C98.2469 54.1821 98.2301 54.1898 98.2154 54.2022C98.2008 54.2145 98.1888 54.231 98.1805 54.2503C98.1722 54.2697 98.1678 54.2912 98.1677 54.3131C98.1676 54.3349 98.1719 54.3565 98.18 54.3759Z" fill="black"/>
</g>
<g opacity="0.2">
<path d="M97.025 55.2595C97.0399 55.3301 97.1218 55.3669 97.179 55.3638C97.2017 55.363 97.2241 55.3567 97.2448 55.3451C97.2655 55.3335 97.2842 55.317 97.2997 55.2964C97.3151 55.2759 97.3272 55.2517 97.335 55.2254C97.3429 55.199 97.3464 55.171 97.3454 55.1429C97.3439 55.1112 97.3365 55.0802 97.324 55.0524C97.3114 55.0246 97.2939 55.0007 97.2728 54.9824C97.2517 54.9641 97.2275 54.9519 97.2021 54.9468C97.1767 54.9416 97.1506 54.9436 97.1259 54.9526C97.1012 54.9616 97.0784 54.9774 97.0593 54.9987C97.0402 55.0201 97.0252 55.0465 97.0155 55.076C97.0058 55.1055 97.0016 55.1373 97.0033 55.1691C97.0049 55.2009 97.0123 55.2318 97.025 55.2595Z" fill="black"/>
</g>
<g opacity="0.3">
<path d="M96.881 55.9775C96.8959 56.045 96.9754 56.0818 97.0325 56.0818C97.0786 56.0786 97.122 56.0535 97.1535 56.0118C97.185 55.97 97.2021 55.9148 97.2014 55.8578C97.1964 55.8019 97.1744 55.7505 97.1398 55.7141C97.1051 55.6776 97.0606 55.6588 97.0151 55.6614C96.988 55.6664 96.9623 55.6791 96.9398 55.6986C96.9174 55.718 96.8989 55.7436 96.8859 55.7734C96.8729 55.8032 96.8657 55.8363 96.8648 55.8701C96.864 55.9039 96.8695 55.9375 96.881 55.9682" fill="black"/>
</g>
<g opacity="0.3">
<path d="M97.4697 54.9619C97.4895 55.0509 97.5939 55.1 97.6709 55.1C97.7302 55.0959 97.7857 55.0629 97.8253 55.0082C97.8649 54.9536 97.8853 54.8817 97.882 54.8085C97.8787 54.7353 97.852 54.6667 97.8078 54.6178C97.7635 54.5688 97.7053 54.5437 97.646 54.5477C97.6091 54.5535 97.5739 54.5701 97.5433 54.5963C97.5127 54.6224 97.4877 54.6573 97.4704 54.698C97.4531 54.7387 97.444 54.7839 97.4438 54.8298C97.4437 54.8758 97.4526 54.9211 97.4697 54.9619Z" fill="black"/>
</g>
<path d="M87.8096 30.102C88.0602 30.1604 88.3192 30.1274 88.5548 30.0069C89.3244 29.6834 90.0783 29.3054 90.8127 28.8748C91.081 28.7275 91.394 28.4851 91.3642 28.1262C91.3495 28.0207 91.3116 27.9223 91.2547 27.8416C91.1977 27.761 91.1239 27.7013 91.0413 27.6691C90.8723 27.5944 90.6894 27.5816 90.5147 27.6322C89.3969 27.9574 88.6989 28.1293 87.7177 28.9944C87.5818 29.1165 87.4753 29.2819 87.4097 29.473C87.3675 29.697 87.5687 30.0191 87.8096 30.102Z" fill="#006466"/>
<g opacity="0.3">
<path d="M90.1295 28.3992C90.1295 28.3102 90.0376 28.2366 89.9681 28.2182C89.9395 28.2092 89.9097 28.2077 89.8807 28.2136C89.8516 28.2196 89.8238 28.2329 89.7991 28.2527C89.7744 28.2725 89.7533 28.2984 89.7371 28.3288C89.7209 28.3592 89.71 28.3934 89.705 28.4293C89.7 28.4652 89.7011 28.5019 89.7081 28.5373C89.7152 28.5726 89.7281 28.6057 89.7461 28.6346C89.764 28.6635 89.7866 28.6874 89.8124 28.705C89.8382 28.7226 89.8667 28.7334 89.896 28.7367C89.9313 28.7419 89.9671 28.7362 90.0002 28.7202C90.0333 28.7042 90.0627 28.6784 90.0858 28.645C90.1089 28.6117 90.125 28.5718 90.1326 28.5289C90.1402 28.486 90.1392 28.4415 90.1295 28.3992Z" fill="black"/>
</g>
<g opacity="0.2">
<path d="M90.8175 28.3655C90.8175 28.3072 90.7554 28.2581 90.7082 28.2458C90.6772 28.2383 90.645 28.2436 90.6166 28.2609C90.5883 28.2782 90.5653 28.3065 90.5513 28.3415C90.5373 28.3765 90.533 28.4163 90.5391 28.4546C90.5451 28.4929 90.5612 28.5277 90.5849 28.5536C90.6085 28.5795 90.6384 28.5951 90.67 28.5979C90.7015 28.6007 90.7329 28.5907 90.7594 28.5693C90.7858 28.5479 90.8058 28.5164 90.8163 28.4795C90.8268 28.4427 90.8272 28.4026 90.8175 28.3655Z" fill="black"/>
</g>
<g opacity="0.2">
<path d="M88.5893 28.7643C88.5893 28.7275 88.5496 28.6968 88.5198 28.6876C88.5 28.6827 88.4795 28.686 88.4614 28.697C88.4433 28.708 88.4286 28.726 88.4196 28.7483C88.4106 28.7705 88.4078 28.7959 88.4116 28.8203C88.4154 28.8448 88.4256 28.867 88.4406 28.8836C88.4557 28.9002 88.4747 28.9102 88.4948 28.9121C88.5149 28.914 88.535 28.9077 88.5519 28.8941C88.5688 28.8806 88.5816 28.8605 88.5884 28.8371C88.5952 28.8136 88.5955 28.788 88.5893 28.7643Z" fill="black"/>
</g>
<g opacity="0.2">
<path d="M88.1249 29.562C88.1249 29.5252 88.0851 29.4945 88.0553 29.4853C88.0427 29.4799 88.0293 29.478 88.016 29.4797C88.0027 29.4814 87.9899 29.4867 87.9784 29.4951C87.967 29.5036 87.9571 29.515 87.9496 29.5286C87.9421 29.5422 87.937 29.5577 87.9348 29.574C87.9326 29.5902 87.9334 29.6069 87.9369 29.6228C87.9404 29.6387 87.9468 29.6534 87.9554 29.666C87.964 29.6786 87.9747 29.6887 87.9869 29.6956C87.999 29.7026 88.0122 29.7062 88.0255 29.7062C88.0404 29.7077 88.0554 29.7048 88.0693 29.6977C88.0831 29.6907 88.0954 29.6796 88.1051 29.6655C88.1148 29.6514 88.1217 29.6347 88.1251 29.6167C88.1285 29.5987 88.1285 29.5799 88.1249 29.562Z" fill="black"/>
</g>
<g opacity="0.2">
<path d="M89.2104 29.1018C89.2104 29.0435 89.1483 28.9944 89.1011 28.9821C89.0627 28.9739 89.0232 28.9843 88.9908 29.0111C88.9584 29.038 88.9356 29.0793 88.9273 29.1263C88.9235 29.1735 88.9341 29.2208 88.9571 29.2588C88.9801 29.2969 89.0137 29.3229 89.0515 29.3319C89.0756 29.3356 89.1 29.3319 89.1227 29.321C89.1453 29.3102 89.1654 29.2926 89.1812 29.2698C89.197 29.247 89.2079 29.2197 89.213 29.1903C89.2181 29.161 89.2172 29.1306 89.2104 29.1018Z" fill="black"/>
</g>
<g opacity="0.3">
<path d="M89.4391 28.5526C89.4391 28.4943 89.377 28.4452 89.3298 28.433C89.2987 28.4254 89.2666 28.4307 89.2382 28.448C89.2099 28.4653 89.1869 28.4937 89.1729 28.5287C89.1589 28.5637 89.1546 28.6034 89.1606 28.6417C89.1667 28.68 89.1828 28.7148 89.2065 28.7407C89.2301 28.7666 89.26 28.7822 89.2916 28.785C89.3231 28.7879 89.3545 28.7778 89.381 28.7564C89.4074 28.735 89.4274 28.7035 89.4379 28.6667C89.4484 28.6298 89.4488 28.5897 89.4391 28.5526Z" fill="black"/>
</g>
<g opacity="0.3">
<path d="M88.8081 29.249C88.8081 29.1692 88.7261 29.1048 88.664 29.0895C88.6395 29.0844 88.6145 29.0854 88.5904 29.0923C88.5662 29.0992 88.5434 29.112 88.5232 29.1298C88.503 29.1476 88.4859 29.1701 88.4727 29.1961C88.4596 29.2221 88.4507 29.251 88.4467 29.2812C88.4426 29.3114 88.4434 29.3424 88.449 29.3722C88.4546 29.4021 88.4649 29.4302 88.4793 29.4552C88.4937 29.4801 88.5119 29.5013 88.533 29.5175C88.554 29.5337 88.5774 29.5446 88.6019 29.5497C88.6338 29.5547 88.6663 29.5497 88.6962 29.5351C88.7262 29.5205 88.7526 29.4968 88.7732 29.4662C88.7938 29.4356 88.8077 29.3991 88.8138 29.3601C88.8199 29.321 88.818 29.2807 88.8081 29.2429" fill="black"/>
</g>
<path d="M81.4702 42.6992C81.3262 42.1623 80.802 42.2267 80.5412 42.555C80.4277 42.7405 80.3395 42.9478 80.2804 43.1686C80.254 43.2466 80.2144 43.3168 80.1643 43.3743C80.1141 43.4319 80.0545 43.4755 79.9896 43.5023C79.9246 43.529 79.8558 43.5382 79.7877 43.5294C79.7196 43.5205 79.6538 43.4937 79.5948 43.4508C79.5355 43.4087 79.4798 43.3594 79.4284 43.3036C79.2992 43.1471 79.18 42.9968 79.0558 42.8434C78.9733 42.7332 78.8591 42.6676 78.7378 42.6607C78.6164 42.6538 78.4978 42.7062 78.4075 42.8066C78.2038 43.0244 78.4348 43.595 78.5888 43.8681C78.7665 44.1187 78.9591 44.3525 79.1651 44.5676C79.6495 45.1812 79.7463 46.1353 79.7563 47.0036C79.7662 47.8718 79.7165 48.7769 79.9923 49.5776C80.0376 49.7395 80.1089 49.8885 80.202 50.0155C80.295 50.1426 80.4079 50.2451 80.5338 50.317C80.6187 50.3557 80.7095 50.3703 80.7996 50.36C81.192 50.3017 81.3088 49.8139 81.2417 49.4212C81.1724 49.1203 81.0704 48.8324 80.9387 48.5652C80.6494 47.8353 80.5155 47.0264 80.5494 46.2148C80.5833 45.4032 80.7839 44.6157 81.1324 43.9264C81.3048 43.661 81.4278 43.352 81.4926 43.0213C81.5044 42.9132 81.4967 42.8032 81.4702 42.6992Z" fill="#006466"/>
<g opacity="0.3">
<path d="M79.9253 44.1258C79.8583 44.1258 79.8011 44.224 79.7862 44.3037C79.7792 44.336 79.7775 44.3696 79.7812 44.4027C79.785 44.4358 79.7941 44.4676 79.808 44.4962C79.8219 44.5249 79.8403 44.5498 79.8622 44.5694C79.8841 44.589 79.9089 44.603 79.9353 44.6105C79.9872 44.6205 80.0402 44.6053 80.0832 44.5681C80.1262 44.531 80.156 44.4747 80.1663 44.4111C80.1711 44.3708 80.1678 44.3296 80.1565 44.2913C80.1453 44.253 80.1265 44.2188 80.1018 44.1917C80.0772 44.1646 80.0475 44.1455 80.0153 44.1361C79.9832 44.1268 79.9497 44.1274 79.9179 44.1381" fill="black"/>
</g>
<g opacity="0.3">
<path d="M80.1589 47.6079C80.0943 47.6079 80.0372 47.7061 80.0198 47.7859C80.0131 47.8181 80.0117 47.8517 80.0156 47.8846C80.0195 47.9175 80.0286 47.9491 80.0425 47.9777C80.0563 48.0062 80.0746 48.0311 80.0963 48.0508C80.118 48.0705 80.1427 48.0848 80.1688 48.0927C80.1976 48.1008 80.2274 48.1008 80.2562 48.0928C80.285 48.0847 80.3119 48.0687 80.335 48.046C80.358 48.0233 80.3767 47.9945 80.3895 47.9616C80.4023 47.9288 80.4089 47.8929 80.4089 47.8564C80.4089 47.82 80.4023 47.784 80.3895 47.7512C80.3767 47.7184 80.358 47.6895 80.335 47.6668C80.3119 47.6441 80.285 47.6282 80.2562 47.6201C80.2274 47.612 80.1976 47.612 80.1688 47.6202" fill="black"/>
</g>
<g opacity="0.3">
<path d="M80.3301 44.902C80.2854 44.902 80.2482 44.9664 80.2358 45.0216C80.2289 45.0646 80.2357 45.1092 80.2546 45.1463C80.2735 45.1834 80.3032 45.2101 80.3376 45.221C80.3727 45.2274 80.4085 45.217 80.4375 45.1919C80.4666 45.1668 80.4869 45.129 80.4941 45.0861C80.4971 45.0594 80.4948 45.0321 80.4874 45.0068C80.48 44.9814 80.4676 44.9587 80.4515 44.9405C80.4353 44.9224 80.4158 44.9094 80.3947 44.9027C80.3735 44.896 80.3514 44.8957 80.3301 44.902Z" fill="black"/>
</g>
<g opacity="0.3">
<path d="M79.3638 43.8619C79.3042 43.8619 79.2545 43.9509 79.2421 44.0184C79.2341 44.0468 79.2312 44.0769 79.2334 44.1069C79.2356 44.1368 79.243 44.1658 79.255 44.192C79.267 44.2181 79.2834 44.2408 79.303 44.2585C79.3227 44.2762 79.3452 44.2886 79.369 44.2947C79.3928 44.3009 79.4174 44.3007 79.4412 44.2942C79.465 44.2877 79.4873 44.275 79.5068 44.2569C79.5263 44.2389 79.5424 44.216 79.5542 44.1897C79.5659 44.1633 79.573 44.1342 79.5749 44.1043C79.5793 44.0695 79.5767 44.034 79.5674 44.0008C79.5581 43.9676 79.5424 43.9377 79.5215 43.9138C79.5007 43.8898 79.4754 43.8726 79.4479 43.8636C79.4204 43.8545 79.3915 43.8539 79.3638 43.8619Z" fill="black"/>
</g>
<g opacity="0.2">
<path d="M80.1291 46.7827C80.0843 46.7827 80.0471 46.8501 80.0347 46.9023C80.0254 46.9246 80.0204 46.9492 80.02 46.9742C80.0197 46.9992 80.0241 47.024 80.0328 47.0467C80.0415 47.0693 80.0543 47.0891 80.0702 47.1046C80.0862 47.1201 80.1048 47.1308 80.1246 47.136C80.1445 47.1411 80.165 47.1405 80.1846 47.1343C80.2043 47.128 80.2224 47.1162 80.2378 47.0998C80.2531 47.0835 80.2652 47.0629 80.273 47.0398C80.2809 47.0167 80.2843 46.9917 80.2831 46.9667C80.2861 46.94 80.2838 46.9128 80.2764 46.8875C80.2689 46.8621 80.2566 46.8394 80.2404 46.8212C80.2243 46.8031 80.2048 46.7901 80.1837 46.7834C80.1625 46.7766 80.1404 46.7764 80.1191 46.7827" fill="black"/>
</g>
<g opacity="0.2">
<path d="M80.6282 49.688C80.5835 49.688 80.5437 49.7555 80.5338 49.8077C80.5245 49.8298 80.5195 49.8543 80.5191 49.8792C80.5187 49.9042 80.5229 49.9289 80.5315 49.9515C80.54 49.9741 80.5527 49.9939 80.5685 50.0095C80.5842 50.0251 80.6027 50.036 80.6224 50.0413C80.6421 50.0467 80.6626 50.0464 80.6822 50.0404C80.7018 50.0344 80.72 50.023 80.7355 50.0069C80.7509 49.9909 80.7632 49.9706 80.7713 49.9478C80.7794 49.9249 80.7831 49.9001 80.7822 49.8752C80.7856 49.8486 80.7836 49.8213 80.7765 49.7959C80.7694 49.7704 80.7573 49.7474 80.7414 49.729C80.7255 49.7106 80.7062 49.6972 80.6852 49.6901C80.6642 49.6829 80.6421 49.6822 80.6208 49.688" fill="black"/>
</g>
<g opacity="0.2">
<path d="M80.8767 43.3987C80.8319 43.3987 80.7922 43.4662 80.7823 43.5183C80.7753 43.5609 80.7817 43.6052 80.8002 43.6422C80.8186 43.6792 80.8477 43.7062 80.8816 43.7177C80.9015 43.7264 80.9227 43.729 80.9435 43.7254C80.9644 43.7218 80.9842 43.7121 81.0014 43.697C81.0186 43.682 81.0326 43.6621 81.0422 43.639C81.0519 43.6159 81.0569 43.5903 81.0569 43.5643C81.0569 43.5384 81.0519 43.5127 81.0422 43.4897C81.0326 43.4666 81.0186 43.4467 81.0014 43.4317C80.9842 43.4166 80.9644 43.4069 80.9435 43.4033C80.9227 43.3997 80.9015 43.4023 80.8816 43.4109" fill="black"/>
</g>
<g opacity="0.2">
<path d="M78.9566 43.4539C78.9144 43.4539 78.8746 43.5214 78.8647 43.5735C78.8582 43.6083 78.8611 43.6448 78.8731 43.6773C78.885 43.7098 78.9052 43.7365 78.9307 43.7534C78.9561 43.7703 78.9853 43.7764 79.0139 43.7707C79.0424 43.7651 79.0686 43.748 79.0885 43.7221C79.1084 43.6962 79.1208 43.663 79.1239 43.6275C79.127 43.592 79.1205 43.5563 79.1055 43.5258C79.0905 43.4953 79.0678 43.4717 79.0409 43.4587C79.014 43.4457 78.9844 43.444 78.9566 43.4539Z" fill="black"/>
</g>
<g opacity="0.2">
<path d="M80.4669 44.1656C80.4222 44.1656 80.3849 44.2301 80.375 44.2853C80.3674 44.328 80.3736 44.3726 80.3921 44.4098C80.4106 44.4469 80.4401 44.4738 80.4743 44.4847C80.5094 44.4911 80.5452 44.4807 80.5743 44.4556C80.6034 44.4305 80.6236 44.3926 80.6308 44.3497C80.6338 44.323 80.6315 44.2958 80.6241 44.2704C80.6167 44.2451 80.6044 44.2224 80.5882 44.2042C80.5721 44.1861 80.5526 44.1731 80.5314 44.1664C80.5103 44.1596 80.4881 44.1594 80.4669 44.1656Z" fill="black"/>
</g>
<g opacity="0.2">
<path d="M80.1066 45.4849C80.0793 45.4849 80.0545 45.5248 80.047 45.5585C80.0431 45.5857 80.0476 45.6136 80.0596 45.6369C80.0715 45.6602 80.0901 45.6771 80.1116 45.6843C80.1336 45.688 80.1558 45.6811 80.1738 45.6651C80.1919 45.6491 80.2042 45.6253 80.2085 45.5984C80.2106 45.5818 80.2093 45.5648 80.2047 45.549C80.2002 45.5331 80.1925 45.5189 80.1824 45.5077C80.1723 45.4964 80.1601 45.4884 80.1469 45.4844C80.1336 45.4805 80.1198 45.4806 80.1066 45.4849Z" fill="black"/>
</g>
<g opacity="0.2">
<path d="M80.3054 49.2064C80.278 49.2064 80.2532 49.2463 80.2457 49.28C80.2435 49.2931 80.2433 49.3066 80.2452 49.3198C80.2472 49.333 80.2512 49.3455 80.2571 49.3568C80.263 49.3681 80.2706 49.3778 80.2795 49.3854C80.2884 49.393 80.2985 49.3984 80.3091 49.4012C80.3197 49.404 80.3306 49.4042 80.3413 49.4018C80.352 49.3994 80.3622 49.3944 80.3713 49.3872C80.3804 49.3799 80.3882 49.3705 80.3944 49.3595C80.4006 49.3485 80.4049 49.3361 80.4072 49.323C80.4091 49.3063 80.4078 49.2892 80.4032 49.2734C80.3986 49.2575 80.391 49.2432 80.381 49.2317C80.371 49.2203 80.3589 49.212 80.3457 49.2076C80.3325 49.2031 80.3187 49.2027 80.3054 49.2064Z" fill="black"/>
</g>
<g opacity="0.2">
<path d="M79.7789 43.8036C79.7516 43.8036 79.7292 43.8466 79.7218 43.8772C79.7175 43.8989 79.7192 43.9216 79.7265 43.9419C79.7338 43.9623 79.7463 43.9791 79.7621 43.9898C79.7779 44.0004 79.7962 44.0044 79.814 44.001C79.8318 43.9976 79.8482 43.987 79.8606 43.971C79.8731 43.9549 79.8809 43.9342 79.8829 43.9121C79.8849 43.89 79.881 43.8677 79.8716 43.8486C79.8623 43.8296 79.8482 43.8148 79.8314 43.8067C79.8147 43.7986 79.7962 43.7975 79.7789 43.8036Z" fill="black"/>
</g>
<g opacity="0.2">
<path d="M80.4917 48.4946C80.447 48.4946 80.4098 48.5591 80.3973 48.6112C80.388 48.6334 80.383 48.6578 80.3826 48.6828C80.3822 48.7077 80.3864 48.7324 80.395 48.755C80.4036 48.7776 80.4162 48.7974 80.432 48.813C80.4478 48.8286 80.4662 48.8395 80.4859 48.8449C80.5057 48.8502 80.5261 48.8499 80.5457 48.8439C80.5653 48.838 80.5836 48.8265 80.599 48.8104C80.6145 48.7944 80.6267 48.7742 80.6348 48.7513C80.6429 48.7285 80.6466 48.7036 80.6457 48.6787C80.6488 48.652 80.6465 48.6248 80.639 48.5994C80.6316 48.5741 80.6193 48.5513 80.6031 48.5332C80.587 48.5151 80.5675 48.5021 80.5463 48.4953C80.5252 48.4886 80.503 48.4884 80.4818 48.4946" fill="black"/>
</g>
<g opacity="0.2">
<path d="M79.816 44.9234C79.7713 44.9234 79.734 44.9909 79.7241 45.0431C79.7176 45.0779 79.7205 45.1143 79.7324 45.1468C79.7443 45.1793 79.7646 45.2061 79.79 45.223C79.8155 45.2398 79.8447 45.2459 79.8732 45.2403C79.9018 45.2346 79.928 45.2175 79.9479 45.1916C79.9677 45.1657 79.9802 45.1325 79.9833 45.097C79.9863 45.0616 79.9799 45.0258 79.9649 44.9953C79.9499 44.9648 79.9272 44.9413 79.9003 44.9283C79.8734 44.9153 79.8438 44.9136 79.816 44.9234Z" fill="black"/>
</g>
<g opacity="0.3">
<path d="M80.1265 48.3934C80.0818 48.3934 80.0446 48.4578 80.0346 48.5099C80.0264 48.5527 80.0323 48.5977 80.0509 48.6351C80.0695 48.6724 80.0994 48.6992 80.134 48.7094C80.1688 48.7166 80.2046 48.707 80.2338 48.6824C80.2629 48.6578 80.2833 48.6202 80.2905 48.5774C80.2935 48.5507 80.2912 48.5235 80.2838 48.4982C80.2763 48.4728 80.264 48.4501 80.2479 48.4319C80.2317 48.4138 80.2122 48.4008 80.1911 48.3941C80.1699 48.3874 80.1478 48.3871 80.1265 48.3934Z" fill="black"/>
</g>
<g opacity="0.3">
<path d="M80.6705 48.9763C80.6109 48.9763 80.5612 49.0622 80.5463 49.1327C80.537 49.1881 80.546 49.2456 80.5712 49.2928C80.5963 49.34 80.6356 49.3729 80.6804 49.3843C80.7252 49.3957 80.7718 49.3846 80.81 49.3536C80.8482 49.3225 80.8749 49.274 80.8841 49.2186C80.888 49.1837 80.885 49.1482 80.8754 49.115C80.8657 49.0819 80.8497 49.0521 80.8287 49.0283C80.8077 49.0045 80.7823 48.9873 80.7548 48.9782C80.7272 48.9692 80.6983 48.9685 80.6705 48.9763Z" fill="black"/>
</g>
<path d="M84.5854 60.7113L84.5333 60.6807L84.3842 60.5825C84.255 60.4904 84.0613 60.3677 83.8228 60.1837C83.1389 59.6789 82.4803 59.1236 81.8506 58.5208C80.9103 57.633 80.0501 56.6229 79.2846 55.508C78.8339 54.8468 78.4245 54.1443 78.06 53.4064C77.6713 52.6119 77.3388 51.7774 77.0664 50.9122C76.5485 49.2361 76.2144 47.482 76.0728 45.6966C76.0114 44.9197 75.9856 44.1392 75.9958 43.3588C76.0132 42.6255 76.0455 41.9413 76.1101 41.3247C76.203 40.3462 76.3566 39.3779 76.5696 38.4285C76.6416 38.0941 76.7187 37.8394 76.7609 37.6645L76.8155 37.4682C76.8213 37.4444 76.8297 37.4217 76.8404 37.4007C76.8374 37.4245 76.8332 37.4481 76.8279 37.4713C76.8279 37.5265 76.8031 37.594 76.7857 37.6738C76.7509 37.8517 76.6814 38.1063 76.6193 38.4469C76.4244 39.3967 76.2849 40.3625 76.202 41.3369C76.1424 41.9505 76.1151 42.6316 76.1026 43.3588C76.0993 44.1343 76.1291 44.9095 76.192 45.6812C76.3387 47.4517 76.6727 49.1907 77.1856 50.8539C77.4599 51.7102 77.7923 52.5364 78.1792 53.3236C78.5408 54.0545 78.9451 54.7517 79.3889 55.4098C80.1448 56.5217 80.9923 57.5334 81.9176 58.4288C82.5408 59.0366 83.1891 59.6039 83.8601 60.1284C84.0961 60.3186 84.2848 60.4506 84.4115 60.5518L84.5531 60.6653C84.573 60.6929 84.5879 60.7083 84.5854 60.7113Z" fill="white"/>
<path d="M102.934 30.7739C102.888 30.7279 102.845 30.6777 102.805 30.6235C102.723 30.5254 102.609 30.3658 102.452 30.1787C102.015 29.6347 101.552 29.1225 101.066 28.6447C99.47 27.0639 97.6333 25.8943 95.6648 25.205C93.6963 24.5158 91.6359 24.3208 89.6053 24.6317C88.9901 24.7215 88.3796 24.8557 87.7771 25.0336C87.5635 25.0919 87.3996 25.1533 87.2803 25.184C87.2237 25.2057 87.1655 25.2201 87.1064 25.2269C87.1594 25.1943 87.2152 25.1696 87.2729 25.1533C87.3822 25.1103 87.5436 25.0398 87.7572 24.9723C88.3577 24.7703 88.9685 24.6187 89.5855 24.5182C91.6303 24.1729 93.7109 24.353 95.6968 25.0472C97.6826 25.7415 99.531 26.9349 101.126 28.5526C101.608 29.0382 102.062 29.563 102.487 30.1234C102.641 30.3167 102.748 30.4824 102.825 30.5898C102.865 30.6475 102.902 30.709 102.934 30.7739Z" fill="white"/>
<path d="M104.104 32.903C104.075 32.9276 103.958 32.7496 103.856 32.5103C103.754 32.271 103.675 32.0563 103.707 32.0348C103.739 32.0133 103.854 32.1882 103.968 32.4306C104.082 32.6729 104.137 32.8816 104.104 32.903Z" fill="white"/>
<path d="M90.3679 40.211C90.2444 40.2081 90.1214 40.1917 90.0003 40.1619C89.7643 40.119 89.4215 40.0699 89.0067 40.0423C87.9032 39.9417 86.7961 40.1679 85.7775 40.7019C85.0562 41.0746 84.4306 41.6826 83.9676 42.4608C83.5047 43.2391 83.2219 44.1582 83.1495 45.1198C83.1495 45.1198 83.1495 45.0768 83.1495 45.0001C83.1442 44.8867 83.1442 44.773 83.1495 44.6596C83.1799 44.237 83.2637 43.8229 83.3979 43.4324C83.853 42.1455 84.6789 41.1133 85.7154 40.5362C86.7504 39.9875 87.8809 39.7711 89.0017 39.9073C89.3355 39.9392 89.6673 39.9966 89.9953 40.0791C90.1228 40.1075 90.2476 40.1517 90.3679 40.211Z" fill="white"/>
<path d="M94.7647 42.8495C93.8963 41.7392 92.8404 40.8792 91.6721 40.3306C91.8573 40.3536 92.0384 40.4126 92.2087 40.5055C92.6281 40.6949 93.0282 40.9441 93.401 41.248C93.7747 41.5508 94.1182 41.9071 94.4244 42.3095C94.5602 42.4662 94.675 42.6484 94.7647 42.8495Z" fill="white"/>
<path d="M51.1981 8.13927C50.6382 8.13927 50.1843 7.57864 50.1843 6.88708C50.1843 6.19551 50.6382 5.63489 51.1981 5.63489C51.758 5.63489 52.2119 6.19551 52.2119 6.88708C52.2119 7.57864 51.758 8.13927 51.1981 8.13927Z" fill="#FF9A6C"/>
<path d="M34.977 23.1655H49.3097C49.8106 23.1655 50.2909 22.8824 50.6451 22.3786C50.9993 21.8747 51.1982 21.1914 51.1982 20.4788V8.76532H50.9898V20.4788C50.9898 21.1127 50.8128 21.7207 50.4977 22.1689C50.1826 22.6171 49.7553 22.869 49.3097 22.869L25.8526 23.1655H34.977Z" fill="#FF9A6C"/>
<path d="M12.9283 32.0159C5.23998 32.0159 0.219196 23.5726 0.169567 23.4916L0 23.202L0.169567 22.9067C0.219196 22.8198 5.23998 14.2202 12.9283 14.2202C20.6167 14.2202 25.6334 22.8024 25.683 22.9067L25.8525 23.202L25.683 23.4916C25.6334 23.5726 20.6125 32.0159 12.9283 32.0159ZM0.86023 23.1962C1.80732 24.6498 6.35663 31.0952 12.9283 31.0952C19.5 31.0952 24.0452 24.6498 24.9923 23.1962C24.0494 21.7195 19.4959 15.1583 12.9283 15.1583C6.36077 15.1583 1.80318 21.7195 0.86023 23.1962Z" fill="#006466"/>
<path d="M24.5539 16.8666C23.776 15.7817 22.9288 14.799 22.0228 13.9305C21.1326 13.0469 20.1839 12.2848 19.1898 11.6547C17.2351 10.3409 15.0945 9.65886 12.9262 9.65886C10.758 9.65886 8.6174 10.3409 6.66265 11.6547C5.67018 12.2893 4.7218 13.0511 3.82966 13.9305C2.92371 14.799 2.07648 15.7817 1.29858 16.8666C2.70396 14.4403 4.45833 12.4553 6.44759 11.0408C8.44039 9.54696 10.6658 8.76532 12.9262 8.76532C15.1867 8.76532 17.4121 9.54696 19.4049 11.0408C21.3934 12.4569 23.1475 14.4416 24.5539 16.8666Z" fill="#006466"/>
<path d="M17.7796 23.1267C17.7804 24.4716 17.4963 25.7866 16.9633 26.9054C16.4303 28.0242 15.6723 28.8965 14.7852 29.412C13.898 29.9274 12.9216 30.0629 11.9795 29.8012C11.0374 29.5396 10.1719 28.8925 9.49242 27.9419C8.81297 26.9914 8.35013 25.78 8.16245 24.461C7.97477 23.142 8.07068 21.7748 8.43805 20.5321C8.80542 19.2895 9.42774 18.2273 10.2263 17.48C11.0248 16.7327 11.9637 16.3339 12.9242 16.3339C14.2112 16.3339 15.4456 17.0494 16.356 18.3231C17.2665 19.5968 17.7785 21.3246 17.7796 23.1267Z" fill="#006466"/>
<path d="M15.269 23.1268C15.269 23.7762 15.1315 24.411 14.8738 24.951C14.6162 25.491 14.2499 25.9118 13.8214 26.1603C13.393 26.4088 12.9215 26.4739 12.4666 26.3472C12.0117 26.2205 11.5939 25.9078 11.2659 25.4486C10.938 24.9893 10.7146 24.4043 10.6242 23.7673C10.5337 23.1304 10.5801 22.4702 10.7576 21.8702C10.9351 21.2702 11.2357 20.7574 11.6213 20.3966C12.0069 20.0358 12.4603 19.8433 12.9241 19.8433C13.546 19.8433 14.1424 20.1892 14.5822 20.805C15.022 21.4208 15.269 22.2559 15.269 23.1268Z" fill="#006466"/>
<path d="M16.1338 20.8624C16.1338 21.1579 16.0712 21.4468 15.954 21.6925C15.8367 21.9382 15.6701 22.1297 15.4751 22.2428C15.2801 22.3559 15.0656 22.3855 14.8586 22.3278C14.6516 22.2702 14.4615 22.1279 14.3123 21.9189C14.1631 21.71 14.0614 21.4437 14.0203 21.1539C13.9791 20.8641 14.0002 20.5637 14.081 20.2907C14.1617 20.0177 14.2985 19.7843 14.474 19.6201C14.6494 19.456 14.8557 19.3683 15.0668 19.3683C15.3494 19.3699 15.6202 19.5278 15.8201 19.8076C16.0199 20.0875 16.1327 20.4666 16.1338 20.8624Z" fill="white"/>
</svg>
