<svg width="75" height="80" viewBox="0 0 75 80" fill="none" xmlns="http://www.w3.org/2000/svg">
<path d="M20.7185 80C32.161 80 41.437 74.9407 41.437 68.6997C41.437 62.4587 32.161 57.3994 20.7185 57.3994C9.27599 57.3994 0 62.4587 0 68.6997C0 74.9407 9.27599 80 20.7185 80Z" fill="#E0E0E0"/>
<path d="M30.1441 37.5287C29.5801 37.215 28.9934 36.9411 28.3887 36.7094C27.8299 36.5001 27.3487 36.1328 27.0075 35.655C26.6664 35.1773 26.481 34.6111 26.4754 34.0299V30.76H15.4715V34.0299C15.4675 34.6124 15.2826 35.1802 14.9409 35.6592C14.5993 36.1382 14.1167 36.5062 13.5562 36.715C12.9516 36.9468 12.3649 37.2206 11.8009 37.5344C9.26543 38.9536 8.00354 40.8137 8.00354 42.672V67.3285C8.00354 69.1868 9.26933 71.0469 11.8009 72.4661C16.8718 75.3045 25.077 75.3045 30.1343 72.4661C32.6698 71.0469 33.9336 69.1886 33.9336 67.3285V42.6663C33.9434 40.8062 32.6698 38.948 30.1441 37.5287Z" fill="#006466"/>
<path opacity="0.7" d="M30.1441 37.5287C29.5801 37.215 28.9934 36.9411 28.3887 36.7094C27.8299 36.5001 27.3487 36.1328 27.0075 35.655C26.6664 35.1773 26.481 34.6111 26.4754 34.0299V30.76H15.4715V34.0299C15.4675 34.6124 15.2826 35.1802 14.9409 35.6592C14.5993 36.1382 14.1167 36.5062 13.5562 36.715C12.9516 36.9468 12.3649 37.2206 11.8009 37.5344C9.26543 38.9536 8.00354 40.8137 8.00354 42.672V67.3285C8.00354 69.1868 9.26933 71.0469 11.8009 72.4661C16.8718 75.3045 25.077 75.3045 30.1343 72.4661C32.6698 71.0469 33.9336 69.1886 33.9336 67.3285V42.6663C33.9434 40.8062 32.6698 38.948 30.1441 37.5287Z" fill="white"/>
<path d="M20.9813 74.5893C28.139 74.5893 33.9415 71.3708 33.9415 67.4005C33.9415 63.4302 28.139 60.2117 20.9813 60.2117C13.8236 60.2117 8.02112 63.4302 8.02112 67.4005C8.02112 71.3708 13.8236 74.5893 20.9813 74.5893Z" fill="#006466"/>
<path opacity="0.5" d="M20.9813 74.5893C28.139 74.5893 33.9415 71.3708 33.9415 67.4005C33.9415 63.4302 28.139 60.2117 20.9813 60.2117C13.8236 60.2117 8.02112 63.4302 8.02112 67.4005C8.02112 71.3708 13.8236 74.5893 20.9813 74.5893Z" fill="white"/>
<path opacity="0.4" d="M27.5267 34.1983C25.1414 32.8623 21.7712 32.4082 18.713 32.8415V30.76H15.4715V34.028C15.4681 34.6109 15.2835 35.1792 14.9418 35.6587C14.6001 36.1381 14.1172 36.5063 13.5562 36.715C12.9524 36.9486 12.3659 37.2224 11.8009 37.5344C11.7794 37.5344 11.7619 37.559 11.7385 37.5685C9.24592 38.9839 8.00354 40.827 8.00354 42.6777V67.321C8.00354 69.183 9.26933 71.0393 11.8009 72.4585C15.4442 74.5003 20.7141 75.0642 25.2701 74.171C14.7264 74.8731 12.191 70.536 12.191 67.3985V43.4251C12.191 42.3181 12.3626 41.4041 13.1662 40.634C13.5565 40.9806 13.9865 41.2828 14.4475 41.5347C18.0655 43.5595 23.9263 43.5595 27.5403 41.5347C31.1544 39.51 31.1446 36.2268 27.5267 34.1983Z" fill="white"/>
<path opacity="0.4" d="M30.1442 37.5287C29.5802 37.215 28.9936 36.9411 28.3889 36.7094C27.83 36.5001 27.3488 36.1328 27.0077 35.655C26.6665 35.1773 26.4811 34.6111 26.4756 34.0299V30.76H25.2742V35.1369C25.2742 36.1455 26.1694 37.1049 27.205 37.6536C28.2407 38.2024 31.5329 39.5894 32.3306 41.1071C33.0912 42.5509 32.8435 45.4215 32.8435 48.8276V66.2367C32.8435 68.4469 31.8937 71.6448 27.6634 73.5674C28.5233 73.2826 29.3544 72.9215 30.1462 72.4888C32.6817 71.0696 33.9435 69.2852 33.9435 67.3285V42.6663C33.9435 40.8062 32.67 38.948 30.1442 37.5287Z" fill="white"/>
<path d="M30.2416 35.349V36.28C30.2416 37.6046 29.3425 38.9405 27.5267 39.9605C23.9127 41.9833 18.0538 41.9833 14.43 39.9605C13.6324 39.538 12.9395 38.9516 12.3997 38.2423C11.9706 37.6783 11.7346 36.998 11.7249 36.297V35.33C11.7219 35.1273 11.7461 34.925 11.797 34.7283C12.0213 33.6043 12.9029 32.5143 14.43 31.659C14.4736 31.6324 14.5193 31.6089 14.5665 31.589C18.1962 29.6361 23.9575 29.6626 27.5267 31.659C29.0538 32.5143 29.9452 33.6043 30.1694 34.7207C30.2205 34.9264 30.2447 35.1375 30.2416 35.349Z" fill="#F0F0F0"/>
<path d="M21.7477 40.511V37.2052C21.7477 35.8976 22.089 37.6669 19.7251 37.6669C17.6753 37.6669 15.8517 33.08 14.5762 31.5889C14.5289 31.6088 14.4833 31.6322 14.4397 31.6589C12.9125 32.5142 12.031 33.6042 11.8067 34.7282C11.7558 34.9249 11.7315 35.1272 11.7345 35.3299V36.2969C11.7442 36.9978 11.9802 37.6782 12.4093 38.2422C12.9491 38.9515 13.642 39.5379 14.4397 39.9604C18.0634 41.9832 23.9223 41.9832 27.5363 39.9604C24.9736 40.9368 21.7477 41.758 21.7477 40.511Z" fill="#E0E0E0"/>
<path d="M20.9813 40.5149C26.0945 40.5149 30.2397 38.1927 30.2397 35.3281C30.2397 32.4636 26.0945 30.1414 20.9813 30.1414C15.868 30.1414 11.7229 32.4636 11.7229 35.3281C11.7229 38.1927 15.868 40.5149 20.9813 40.5149Z" fill="#455A64"/>
<path d="M30.2416 32.2341V34.0923C30.2446 34.3038 30.2204 34.5149 30.1695 34.7205C29.9452 35.837 29.0539 36.9269 27.5267 37.7804C25.9079 38.6887 23.8425 39.1844 21.738 39.2734C19.1226 39.3945 16.435 38.8949 14.43 37.7728C13.6359 37.352 12.9436 36.7713 12.3997 36.0697C12.1024 35.6698 11.8981 35.2121 11.8009 34.7281C11.75 34.5288 11.7258 34.3241 11.7288 34.1188V32.217C11.7288 30.8924 12.6279 29.5678 14.4339 28.546C14.5958 28.4589 14.7577 28.3719 14.9293 28.2924C18.5687 26.5231 24.0785 26.6102 27.5306 28.546C29.3425 29.5659 30.2494 30.9 30.2416 32.2341Z" fill="#F0F0F0"/>
<path d="M20.9813 37.3584C26.0945 37.3584 30.2397 35.0362 30.2397 32.1716C30.2397 29.3071 26.0945 26.9849 20.9813 26.9849C15.868 26.9849 11.7229 29.3071 11.7229 32.1716C11.7229 35.0362 15.868 37.3584 20.9813 37.3584Z" fill="#FAFAFA"/>
<path d="M12.3997 36.0641C12.9436 36.7656 13.6359 37.3463 14.43 37.7671C16.435 38.8911 19.1226 39.3888 21.738 39.2677C21.7634 38.6149 22.1398 38.1153 19.7155 37.6612C17.7027 37.2827 14.7265 36.4728 13.3378 34.3383C12.0623 32.376 12.7956 29.7968 14.9254 28.283C14.7538 28.3624 14.5919 28.4495 14.43 28.5365C12.624 29.5489 11.7249 30.8735 11.7249 32.2076V34.1093C11.7219 34.3146 11.7461 34.5194 11.797 34.7186C11.8948 35.2043 12.1005 35.6634 12.3997 36.0641Z" fill="#E0E0E0"/>
<path d="M30.189 51.575C25.1005 54.3983 16.8504 54.3983 11.7619 51.575C9.21671 50.1652 7.94507 48.3146 7.94507 46.4658V58.6749C7.94507 60.5236 9.21671 62.3743 11.7619 63.7841C16.8504 66.6074 25.1005 66.6074 30.189 63.7841C32.7342 62.3743 34.0058 60.5236 34.0058 58.6749V46.4658C34.0058 48.3146 32.7342 50.1652 30.189 51.575Z" fill="#006466"/>
<path d="M30.189 50.4058C25.1005 53.2272 16.8504 53.2272 11.7619 50.4058C9.21671 48.9941 7.94507 47.1453 7.94507 45.2966V57.5056C7.94507 59.3563 9.21671 61.2051 11.7619 62.6148C16.8504 65.4362 25.1005 65.4362 30.189 62.6148C32.7342 61.2032 34.0058 59.3544 34.0058 57.5056V45.2947C34.0058 47.1453 32.7342 48.9941 30.189 50.4058Z" fill="#FAFAFA"/>
<path d="M16.7491 57.6041C16.7379 56.8402 16.5695 56.0862 16.2537 55.3863V55.3712C15.8929 54.5726 15.3702 53.9028 14.789 53.5773C13.9406 53.1042 13.2287 53.882 12.9459 54.97C12.9186 55.0798 12.786 55.0855 12.7684 54.97C12.511 53.5508 11.7698 51.8875 10.8961 51.4031C10.3109 51.0795 9.79215 51.1665 9.43328 51.5658C9.12707 51.914 8.93984 52.4873 8.94179 53.2348C8.94179 55.551 10.3831 57.6306 11.5884 59.82L12.8893 61.9336L14.1259 61.2335C15.3117 60.399 16.753 59.9203 16.7491 57.6041Z" fill="#006466"/>
<path d="M11.0656 56.8473L11.6215 55.4337C11.635 55.3888 11.6633 55.3493 11.702 55.3213C11.7407 55.2933 11.7877 55.2783 11.836 55.2786C11.8847 55.2789 11.9318 55.2954 11.9694 55.3254C12.007 55.3554 12.0329 55.3969 12.0428 55.4432L12.9029 58.6885L13.5875 56.8719C13.6033 56.8304 13.6321 56.7948 13.6699 56.77C13.7077 56.7452 13.7525 56.7326 13.7981 56.7337C13.843 56.7365 13.8859 56.7527 13.9208 56.7802C13.9558 56.8076 13.9811 56.845 13.9931 56.887L14.5022 58.6431L16.2712 59.6327L16.2302 59.6933C16.1695 59.7754 16.1044 59.8543 16.0352 59.9298L15.9981 59.9714L14.2018 58.9647C14.1529 58.9376 14.1171 58.8926 14.1023 58.8399L13.7513 57.6307L13.0394 59.523C13.0231 59.5657 12.9931 59.6023 12.9538 59.6271C12.9144 59.652 12.8678 59.6639 12.821 59.6611C12.7745 59.6577 12.7305 59.6398 12.6953 59.6101C12.6602 59.5805 12.6359 59.5406 12.6259 59.4965L11.8009 56.3742L11.4108 57.2238C11.4021 57.2548 11.3861 57.2834 11.3641 57.3073C11.3422 57.3313 11.3147 57.35 11.2841 57.362C11.2529 57.3748 11.219 57.3804 11.1852 57.3784C11.1514 57.3764 11.1185 57.3669 11.089 57.3506L9.67502 56.5578L9.66527 56.5388C9.59701 56.3893 9.53069 56.2417 9.47023 56.0922L9.39612 55.9144L11.0656 56.8473Z" fill="#FAFAFA"/>
<path d="M21.0729 56.8244C20.5756 56.8244 20.0744 56.8093 19.5653 56.779C19.5139 56.7756 19.466 56.7526 19.432 56.715C19.398 56.6774 19.3807 56.6283 19.3839 56.5784C19.3874 56.5285 19.4111 56.482 19.4499 56.449C19.4886 56.4161 19.5392 56.3993 19.5907 56.4024C23.0175 56.6049 26.2219 56.1053 28.8666 54.9548C28.89 54.9446 28.9153 54.939 28.941 54.9383C28.9666 54.9376 28.9922 54.9418 29.0162 54.9507C29.0402 54.9595 29.0622 54.9729 29.0808 54.99C29.0995 55.0071 29.1145 55.0276 29.125 55.0504C29.1355 55.0731 29.1413 55.0976 29.142 55.1225C29.1428 55.1475 29.1384 55.1723 29.1293 55.1955C29.1201 55.2188 29.1064 55.2401 29.0887 55.2582C29.0711 55.2764 29.05 55.2909 29.0265 55.3011C26.7212 56.3059 23.9946 56.8244 21.0729 56.8244Z" fill="#E0E0E0"/>
<path d="M21.0729 58.8796C20.5756 58.8796 20.0744 58.8644 19.5653 58.8342C19.5139 58.8308 19.466 58.8078 19.432 58.7702C19.398 58.7326 19.3807 58.6835 19.3839 58.6336C19.3874 58.5837 19.4111 58.5372 19.4499 58.5042C19.4886 58.4712 19.5392 58.4545 19.5907 58.4576C23.0175 58.6601 26.2219 58.1605 28.8666 57.01C28.9139 56.9894 28.9677 56.9879 29.0162 57.0058C29.0647 57.0238 29.1038 57.0596 29.125 57.1056C29.1462 57.1515 29.1478 57.2037 29.1293 57.2507C29.1108 57.2977 29.0739 57.3357 29.0265 57.3563C26.7212 58.3611 23.9946 58.8796 21.0729 58.8796Z" fill="#E0E0E0"/>
<path d="M21.0731 60.9364C20.5758 60.9364 20.0745 60.9213 19.5655 60.891C19.5137 60.8878 19.4655 60.8647 19.4313 60.8269C19.3971 60.7891 19.3797 60.7397 19.3831 60.6895C19.3865 60.6393 19.4102 60.5925 19.4492 60.5593C19.4881 60.5261 19.5391 60.5093 19.5908 60.5126C23.0176 60.7169 26.2221 60.2174 28.8667 59.0668C28.9138 59.0464 28.9674 59.0448 29.0156 59.0626C29.0639 59.0803 29.1029 59.1159 29.1242 59.1615C29.135 59.1842 29.141 59.2087 29.1419 59.2337C29.1428 59.2587 29.1386 59.2836 29.1295 59.307C29.1205 59.3304 29.1067 59.3519 29.089 59.3701C29.0714 59.3883 29.0502 59.4029 29.0267 59.4131C26.7213 60.4142 23.9947 60.9364 21.0731 60.9364Z" fill="#E0E0E0"/>
<path d="M7.67606 76.2641C7.43437 76.1344 7.2821 75.8548 7.2821 75.4566C7.30758 75.0234 7.44295 74.6018 7.67725 74.226C7.91156 73.8502 8.23821 73.5308 8.63075 73.2935C8.76683 73.2021 8.92676 73.1458 9.09411 73.1305C9.26146 73.1152 9.43021 73.1413 9.58302 73.2063L11.3184 74.1369C11.7568 74.3715 12.0766 74.7577 12.2074 75.2106C12.3381 75.6634 12.2692 76.1458 12.0157 76.5516C11.7621 76.9574 11.3448 77.2533 10.8555 77.3744C10.3662 77.4954 9.84503 77.4316 9.40658 77.1969L7.67606 76.2641Z" fill="#F5F5F5"/>
<path d="M5.28574 74.9846C5.05097 74.8774 4.84248 74.7268 4.67321 74.542C4.50393 74.3571 4.37747 74.1421 4.30166 73.9102C4.22584 73.6783 4.20229 73.4345 4.23247 73.1938C4.26265 72.9532 4.3459 72.7208 4.47708 72.5111C4.60826 72.3015 4.78457 72.119 4.99508 71.975C5.20558 71.8309 5.44581 71.7285 5.70086 71.6739C5.95591 71.6193 6.22035 71.6138 6.4778 71.6577C6.73525 71.7016 6.98021 71.7939 7.19752 71.929L9.58303 73.213C9.43022 73.148 9.26147 73.1218 9.09412 73.1372C8.92676 73.1525 8.76684 73.2088 8.63076 73.3002C8.23822 73.5374 7.91156 73.8569 7.67726 74.2327C7.44295 74.6085 7.30758 75.0301 7.28211 75.4633C7.28211 75.8615 7.43196 76.1344 7.67607 76.2708L5.28574 74.9846Z" fill="#006466"/>
<path opacity="0.4" d="M5.71588 72.3921C5.66708 72.4687 5.63523 72.5536 5.62218 72.6417C5.60914 72.7299 5.61517 72.8195 5.63991 72.9055C5.66465 72.9915 5.7076 73.072 5.76629 73.1425C5.82497 73.2129 5.89821 73.2719 5.98173 73.3159L8.86996 74.8661C9.11319 74.4931 9.24962 74.0689 9.26634 73.6336C9.26634 73.5911 9.26634 73.5508 9.26634 73.5128L6.71406 72.1527C6.63168 72.1073 6.54038 72.0774 6.44545 72.0649C6.35051 72.0523 6.25382 72.0573 6.16098 72.0796C6.06815 72.1018 5.981 72.1409 5.9046 72.1945C5.82819 72.2482 5.76405 72.3153 5.71588 72.3921Z" fill="white"/>
<path d="M7.67606 76.2641C7.43437 76.1344 7.2821 75.8548 7.2821 75.4566C7.30758 75.0234 7.44295 74.6018 7.67725 74.226C7.91156 73.8502 8.23821 73.5308 8.63075 73.2935C8.76683 73.2021 8.92676 73.1458 9.09411 73.1305C9.26146 73.1152 9.43021 73.1413 9.58302 73.2063L11.3184 74.1369C11.7568 74.3715 12.0766 74.7577 12.2074 75.2106C12.3381 75.6634 12.2692 76.1458 12.0157 76.5516C11.7621 76.9574 11.3448 77.2533 10.8555 77.3744C10.3662 77.4954 9.84503 77.4316 9.40658 77.1969L7.67606 76.2641Z" fill="#F5F5F5"/>
<path opacity="0.1" d="M8.63064 73.2936C8.23811 73.5308 7.91145 73.8503 7.67714 74.2261C7.44284 74.6019 7.30747 75.0234 7.282 75.4567C7.282 75.8549 7.43185 76.1278 7.67596 76.2642L7.54061 76.1926L7.43668 76.1367C7.19499 76.007 7.04272 75.7274 7.04272 75.3292C7.06762 74.8958 7.20275 74.474 7.43711 74.0981C7.67147 73.7223 7.99842 73.4029 8.39136 73.1661C8.52744 73.0747 8.68737 73.0184 8.85472 73.003C9.02208 72.9877 9.19082 73.0139 9.34363 73.0789L9.58533 73.2064C9.43221 73.141 9.263 73.1146 9.09517 73.1299C8.92734 73.1452 8.76699 73.2017 8.63064 73.2936Z" fill="black"/>
<path d="M12.2585 75.479C12.3041 75.8509 12.2194 76.2265 12.0169 76.5505C11.8915 76.7516 11.7244 76.928 11.5253 77.0694C11.3262 77.2108 11.099 77.3145 10.8565 77.3745C10.6141 77.4346 10.3612 77.4498 10.1125 77.4193C9.86366 77.3888 9.62379 77.3133 9.40658 77.1969L7.67606 76.2641C7.43437 76.1344 7.2821 75.8548 7.2821 75.4566C7.28396 75.2736 7.31158 75.0917 7.36428 74.9153L10.2646 76.4655C11.212 76.9755 12.2489 76.0583 12.2585 75.479Z" fill="#EBEBEB"/>
<path d="M11.6012 75.5483C11.5537 75.6256 11.49 75.6933 11.4138 75.7477C11.3377 75.802 11.2507 75.8417 11.1578 75.8646C11.0649 75.8875 10.968 75.8931 10.8728 75.881C10.7775 75.869 10.6859 75.8395 10.603 75.7943L7.67615 74.2285C7.90201 73.8459 8.23087 73.5238 8.63083 73.2935L8.74684 73.2375L11.333 74.6222C11.417 74.666 11.4908 74.7249 11.5499 74.7955C11.609 74.866 11.6524 74.9468 11.6774 75.033C11.7023 75.1193 11.7085 75.2093 11.6954 75.2978C11.6823 75.3862 11.6503 75.4714 11.6012 75.5483Z" fill="white"/>
<path opacity="0.1" d="M4.72257 72.3763C4.74433 72.3495 4.76608 72.3226 4.79025 72.298L4.841 72.2443L4.90142 72.1862C4.9228 72.1656 4.94539 72.1462 4.9691 72.128L5.00294 72.1012C5.10383 72.0218 5.21315 71.9521 5.32922 71.8931L5.45732 71.835C4.92318 72.1325 4.58481 73.4209 5.53466 73.9309C5.86095 74.1054 6.34917 74.3783 7.35461 74.9107C7.30191 75.0871 7.27428 75.269 7.27243 75.452C7.27243 75.8502 7.42227 76.1231 7.66638 76.2595L5.27605 74.98C4.8375 74.7452 4.51761 74.3589 4.38664 73.9059C4.25567 73.4529 4.32433 72.9703 4.57756 72.5642C4.60656 72.5172 4.6404 72.4725 4.67424 72.4277L4.72257 72.3763Z" fill="black"/>
<path d="M38.1173 70.2805C38.2549 70.1902 38.3642 70.0676 38.4338 69.9253C38.5035 69.783 38.531 69.6261 38.5136 69.4708C38.488 69.0379 38.3525 68.6166 38.1182 68.2412C37.8839 67.8658 37.5573 67.5468 37.165 67.3099C36.7928 67.1108 36.4544 67.0862 36.2103 67.2227L34.4774 68.151C34.0386 68.3853 33.7184 68.7714 33.5872 69.2242C33.4559 69.6771 33.5245 70.1596 33.7777 70.5657C34.0309 70.9718 34.448 71.2682 34.9373 71.3896C35.4266 71.5111 35.948 71.4476 36.3867 71.2133L38.1173 70.2805Z" fill="#F5F5F5"/>
<path d="M40.5075 69.0011C40.9463 68.7668 41.2665 68.3807 41.3977 67.9279C41.5289 67.475 41.4604 66.9925 41.2072 66.5864C40.954 66.1803 40.5369 65.8839 40.0476 65.7625C39.5583 65.641 39.0369 65.7045 38.5981 65.9388L36.2102 67.2317C36.4519 67.0998 36.7927 67.1199 37.1649 67.319C37.5572 67.5558 37.8838 67.8749 38.1181 68.2503C38.3524 68.6257 38.4879 69.0469 38.5135 69.4798C38.5309 69.6352 38.5034 69.792 38.4337 69.9343C38.3641 70.0766 38.2548 70.1992 38.1172 70.2896L40.5075 69.0011Z" fill="#006466"/>
<path opacity="0.4" d="M40.0798 66.4064C40.1285 66.4831 40.1602 66.5681 40.173 66.6564C40.1859 66.7446 40.1797 66.8343 40.1547 66.9203C40.1297 67.0063 40.0865 67.0868 40.0276 67.1572C39.9687 67.2275 39.8952 67.2864 39.8115 67.3302L36.9257 68.8804C36.6821 68.5075 36.5457 68.0832 36.5293 67.6478C36.5293 67.6076 36.5293 67.5673 36.5293 67.527L39.0767 66.1581C39.1599 66.1123 39.2521 66.0824 39.348 66.0701C39.4438 66.0578 39.5413 66.0634 39.6348 66.0865C39.7283 66.1097 39.8158 66.1499 39.8922 66.2048C39.9686 66.2597 40.0324 66.3283 40.0798 66.4064Z" fill="white"/>
<path d="M38.1173 70.2805C38.2549 70.1902 38.3642 70.0676 38.4338 69.9253C38.5035 69.783 38.531 69.6261 38.5136 69.4708C38.488 69.0379 38.3525 68.6166 38.1182 68.2412C37.8839 67.8658 37.5573 67.5468 37.165 67.3099C36.7928 67.1108 36.4544 67.0862 36.2103 67.2227L34.4774 68.151C34.0386 68.3853 33.7184 68.7714 33.5872 69.2242C33.4559 69.6771 33.5245 70.1596 33.7777 70.5657C34.0309 70.9718 34.448 71.2682 34.9373 71.3896C35.4266 71.5111 35.948 71.4476 36.3867 71.2133L38.1173 70.2805Z" fill="#F5F5F5"/>
<path opacity="0.1" d="M37.1651 67.3098C37.5575 67.5467 37.884 67.8657 38.1183 68.2411C38.3526 68.6166 38.4881 69.0378 38.5138 69.4707C38.5311 69.626 38.5036 69.7829 38.434 69.9252C38.3643 70.0675 38.2551 70.1901 38.1174 70.2804L38.2551 70.2066L38.3567 70.1507C38.4945 70.061 38.604 69.9389 38.6736 69.7969C38.7433 69.6549 38.7708 69.4982 38.753 69.3432C38.7276 68.9102 38.5922 68.4889 38.3579 68.1135C38.1235 67.7381 37.7969 67.419 37.4044 67.1823C37.2681 67.0905 37.1078 67.0339 36.9401 67.0182C36.7724 67.0024 36.6031 67.0282 36.4497 67.0928L36.208 67.2226C36.4545 67.0906 36.7857 67.1107 37.1651 67.3098Z" fill="black"/>
<path d="M33.5346 69.4953C33.4965 69.8197 33.5563 70.1475 33.7073 70.4424C33.8583 70.7372 34.0947 70.9875 34.3902 71.1655C34.6856 71.3435 35.0287 71.4422 35.3811 71.4506C35.7335 71.459 36.0816 71.3769 36.3866 71.2133L38.1171 70.2805C38.2548 70.1901 38.3641 70.0675 38.4337 69.9253C38.5033 69.783 38.5309 69.6261 38.5135 69.4707C38.5108 69.2884 38.4823 69.1072 38.4289 68.9316L35.5286 70.4818C34.5812 70.9896 33.5467 70.0747 33.5346 69.4953Z" fill="#EBEBEB"/>
<path d="M34.1948 69.5626C34.2422 69.6401 34.3057 69.7081 34.3818 69.7626C34.4578 69.8172 34.5448 69.8571 34.6377 69.8803C34.7306 69.9034 34.8275 69.9091 34.9229 69.8972C35.0182 69.8853 35.11 69.856 35.193 69.8109L38.1199 68.2451C37.8925 67.864 37.564 67.543 37.1652 67.3123C37.127 67.2914 37.0874 67.2728 37.0468 67.2563L34.4607 68.641C34.3775 68.685 34.3045 68.7439 34.246 68.8142C34.1876 68.8844 34.1447 68.9648 34.12 69.0505C34.0953 69.1362 34.0892 69.2256 34.102 69.3135C34.1148 69.4014 34.1464 69.486 34.1948 69.5626Z" fill="white"/>
<path opacity="0.1" d="M41.0732 66.4019L41.0055 66.3214L40.9523 66.2677L40.8919 66.2118L40.8267 66.1536L40.7928 66.1268C40.6917 66.0467 40.5815 65.9769 40.4641 65.9188L40.336 65.8606C40.8726 66.1603 41.2109 67.4488 40.2587 67.9566C39.9324 68.131 39.4466 68.404 38.4387 68.9386C38.4922 69.1141 38.5206 69.2953 38.5233 69.4777C38.5407 69.633 38.5132 69.7899 38.4435 69.9322C38.3739 70.0745 38.2646 70.1971 38.127 70.2874L40.5173 69.0079C40.7347 68.8918 40.9252 68.7373 41.078 68.553C41.2308 68.3687 41.3428 68.1584 41.4077 67.934C41.4725 67.7096 41.489 67.4756 41.4561 67.2454C41.4231 67.0151 41.3415 66.7931 41.2158 66.5921C41.1868 66.5451 41.1554 66.4981 41.1215 66.4534L41.0732 66.4019Z" fill="black"/>
<path d="M24.8701 35.1976C24.8522 35.1976 24.8343 35.197 24.8162 35.196C24.6053 35.1852 24.3993 35.1023 24.2158 34.9543C24.0323 34.8063 23.8768 34.5976 23.7624 34.3461C22.9056 32.5299 21.854 30.9146 20.6458 29.5584C19.9144 28.7293 19.1501 27.9584 18.411 27.2128C16.5042 25.2901 14.7085 23.4792 13.7118 20.977C11.5384 15.5207 14.0978 7.92102 17.7542 4.5128C21.8553 0.690299 27.2496 0.0907159 32.468 0.0121387C33.0104 0.00400605 33.553 -3.98166e-05 34.096 2.95333e-07C43.4985 0.00510901 52.8811 1.2218 62.1283 3.63507C65.2033 4.43961 68.4219 5.4252 71.0084 7.81704C73.5795 10.1948 75.1423 13.9391 74.9898 17.3564C74.7672 22.3452 71.0382 26.0728 67.6426 27.0474C64.406 27.9756 61.0438 27.3483 57.4842 26.6841C56.6984 26.5376 55.8859 26.3859 55.0824 26.2542C46.3501 24.8227 29.946 29.2347 29.252 29.4233L28.5635 29.6102L25.892 34.4857C25.7718 34.708 25.6171 34.8879 25.4398 35.0113C25.2625 35.1348 25.0676 35.1985 24.8701 35.1976Z" fill="#006466"/>
<path d="M63.7557 10.8607L26.8475 10.8607C26.6345 10.8607 26.4302 10.7407 26.2796 10.5272C26.129 10.3136 26.0444 10.0239 26.0444 9.72186C26.0444 9.41982 26.129 9.13015 26.2796 8.91658C26.4302 8.703 26.6345 8.58301 26.8475 8.58301L63.7557 8.58301C63.9687 8.58301 64.173 8.703 64.3236 8.91658C64.4742 9.13015 64.5588 9.41982 64.5588 9.72186C64.5588 10.0239 64.4742 10.3136 64.3236 10.5272C64.173 10.7407 63.9687 10.8607 63.7557 10.8607Z" fill="white"/>
<path d="M63.7558 17.851L26.8476 17.851C26.7421 17.8513 26.6375 17.822 26.54 17.765C26.4424 17.708 26.3537 17.6243 26.279 17.5186C26.2043 17.4129 26.145 17.2874 26.1045 17.1493C26.064 17.0111 26.0431 16.8629 26.043 16.7133C26.0429 16.5636 26.0635 16.4154 26.1038 16.2771C26.1441 16.1388 26.2033 16.0132 26.2778 15.9073C26.3524 15.8014 26.441 15.7174 26.5384 15.6601C26.6359 15.6028 26.7404 15.5733 26.8459 15.5732L63.7558 15.5732C63.9686 15.5737 64.1726 15.6938 64.323 15.9074C64.4733 16.1209 64.5578 16.4103 64.5578 16.7121C64.5578 17.0139 64.4733 17.3033 64.323 17.5168C64.1726 17.7304 63.9686 17.8505 63.7558 17.851Z" fill="white"/>
<path d="M31.1487 24.8414H26.8476C26.6348 24.841 26.4308 24.7209 26.2805 24.5073C26.1301 24.2938 26.0457 24.0044 26.0457 23.7026C26.0457 23.4008 26.1301 23.1114 26.2805 22.8978C26.4308 22.6843 26.6348 22.5641 26.8476 22.5637H31.1487C31.3615 22.5641 31.5655 22.6843 31.7158 22.8978C31.8662 23.1114 31.9506 23.4008 31.9506 23.7026C31.9506 24.0044 31.8662 24.2938 31.7158 24.5073C31.5655 24.7209 31.3615 24.841 31.1487 24.8414Z" fill="white"/>
</svg>
