<svg width="100" height="100" viewBox="0 0 100 100" fill="none" xmlns="http://www.w3.org/2000/svg">
<g clip-path="url(#clip0_1072_10035)">
<path d="M92.4404 76.5029L96.9264 77.2525C98.445 75.2867 99.4918 72.9543 99.9759 70.4578C96.6956 73.3287 91.7072 71.8031 87.7296 73.3705C86.4925 73.8695 85.3763 74.6598 84.4637 75.6827C83.5512 76.7056 82.8656 77.935 82.4578 79.2798L80.2654 81.8017C82.2499 82.6418 84.3812 83.0118 86.5124 82.8864C88.6436 82.7609 90.724 82.1429 92.6104 81.0751C93.663 80.4648 94.6396 79.7152 95.5171 78.844C93.9474 77.7872 92.4404 76.5029 92.4404 76.5029Z" fill="#F2F2F2"/>
<path d="M90.8478 68.8318L95.1757 67.3636C95.7149 64.8801 95.6789 62.2933 95.0709 59.828C93.3324 63.9618 88.2312 64.9749 85.3248 68.2745C84.4257 69.311 83.7563 70.5505 83.3662 71.9013C82.9761 73.252 82.8753 74.6793 83.0712 76.0773L82.1609 79.38C84.2875 79.1855 86.3495 78.5005 88.2047 77.3719C90.0599 76.2434 91.6642 74.6983 92.9071 72.843C93.5947 71.7949 94.1561 70.6583 94.5781 69.4601C92.7324 69.2627 90.8478 68.8318 90.8478 68.8318Z" fill="#F2F2F2"/>
<path d="M100 83.3295C100 83.3542 99.9956 83.3787 99.9867 83.4016C99.9779 83.4245 99.9649 83.4453 99.9486 83.4628C99.9322 83.4803 99.9128 83.4942 99.8913 83.5036C99.8699 83.513 99.847 83.5179 99.8239 83.5178H0.176122C0.129412 83.5178 0.0846137 83.4979 0.0515845 83.4626C0.0185554 83.4273 0 83.3794 0 83.3295C0 83.2795 0.0185554 83.2316 0.0515845 83.1963C0.0846137 83.161 0.129412 83.1412 0.176122 83.1412H99.8239C99.847 83.1411 99.8699 83.1459 99.8913 83.1554C99.9128 83.1648 99.9322 83.1787 99.9486 83.1962C99.9649 83.2137 99.9779 83.2345 99.9867 83.2573C99.9956 83.2802 100 83.3047 100 83.3295Z" fill="#CCCCCC"/>
<path d="M41.2921 75.3016C58.8659 75.3016 73.1123 60.0695 73.1123 41.2797C73.1123 22.49 58.8659 7.25787 41.2921 7.25787C23.7182 7.25787 9.4718 22.49 9.4718 41.2797C9.4718 60.0695 23.7182 75.3016 41.2921 75.3016Z" fill="#E6E6E6"/>
<path d="M68.6722 41.2797C68.6754 45.8476 67.6774 50.3528 65.7582 54.4339C63.8391 58.515 61.0521 62.0585 57.6209 64.7801C57.3915 64.9637 57.1577 65.1425 56.9224 65.3166C52.3341 68.7266 46.8799 70.5543 41.292 70.5543C35.704 70.5543 30.2499 68.7266 25.6616 65.3166C25.4262 65.1425 25.1924 64.9637 24.963 64.7801C21.5342 62.0561 18.749 58.5121 16.8301 54.4316C14.9111 50.351 13.9117 45.847 13.9117 41.2797C13.9117 36.7124 14.9111 32.2085 16.8301 28.1279C18.749 24.0473 21.5342 20.5034 24.963 17.7793C25.1924 17.5958 25.4262 17.417 25.6616 17.2429C30.2499 13.8328 35.704 12.0051 41.292 12.0051C46.8799 12.0051 52.3341 13.8328 56.9224 17.2429C57.1577 17.417 57.3915 17.5958 57.6209 17.7793C61.0521 20.501 63.8391 24.0445 65.7582 28.1256C67.6774 32.2067 68.6754 36.7118 68.6722 41.2797Z" fill="white"/>
<path d="M41.292 68.0225C55.1059 68.0225 66.3042 56.0494 66.3042 41.2797C66.3042 26.5101 55.1059 14.537 41.292 14.537C27.4781 14.537 16.2798 26.5101 16.2798 41.2797C16.2798 56.0494 27.4781 68.0225 41.292 68.0225Z" fill="#006466"/>
<path opacity="0.2" d="M41.3572 14.6117C40.978 14.6117 40.6012 14.6223 40.2262 14.6401C46.5479 15.2341 52.422 18.3751 56.6586 23.4269C60.8951 28.4786 63.1772 35.0633 63.0426 41.8469C62.9079 48.6305 60.3665 55.1057 55.9333 59.9607C51.5001 64.8157 45.5066 67.6874 39.167 67.994C39.8889 68.061 40.6191 68.0972 41.3572 68.0972C47.9909 68.0972 54.3528 65.2797 59.0435 60.2644C63.7342 55.2492 66.3694 48.4471 66.3694 41.3545C66.3694 34.2618 63.7342 27.4597 59.0435 22.4445C54.3528 17.4292 47.9909 14.6117 41.3572 14.6117Z" fill="black"/>
<path d="M41.366 12.6381C41.1502 12.6385 40.9434 12.7303 40.7908 12.8934C40.6383 13.0566 40.5524 13.2777 40.552 13.5084V17.3062C40.552 17.537 40.6378 17.7584 40.7904 17.9216C40.9431 18.0848 41.1501 18.1765 41.366 18.1765C41.5819 18.1765 41.7889 18.0848 41.9416 17.9216C42.0943 17.7584 42.18 17.537 42.18 17.3062V13.5084C42.1796 13.2777 42.0937 13.0566 41.9412 12.8934C41.7886 12.7303 41.5818 12.6385 41.366 12.6381Z" fill="white"/>
<path d="M57.6211 17.7793C57.3917 17.5957 57.1578 17.4169 56.9225 17.2429C56.7813 17.233 56.6401 17.2627 56.513 17.3291C56.3858 17.3954 56.277 17.496 56.1973 17.6211L54.1978 20.759C54.0763 20.9497 54.0307 21.1843 54.0709 21.411C54.1112 21.6377 54.234 21.8381 54.4124 21.9679C54.5908 22.0978 54.8102 22.1466 55.0222 22.1036C55.2343 22.0606 55.4216 21.9292 55.5431 21.7385L57.5426 18.6006C57.6187 18.4815 57.6657 18.344 57.6794 18.2006C57.6931 18.0572 57.6731 17.9123 57.6211 17.7793Z" fill="white"/>
<path d="M66.7053 32.0875C66.6651 31.9817 66.6058 31.8854 66.5307 31.8041C66.4557 31.7229 66.3665 31.6582 66.2681 31.6138C66.1696 31.5694 66.064 31.5462 65.9572 31.5455C65.8504 31.5448 65.7445 31.5666 65.6456 31.6096L62.354 33.0385C62.1542 33.1256 61.9949 33.2938 61.9111 33.5064C61.8273 33.7189 61.8258 33.9583 61.907 34.172C61.9882 34.3857 62.1455 34.5562 62.3442 34.646C62.5429 34.7359 62.7668 34.7376 62.9668 34.651L66.2583 33.2221C66.458 33.1346 66.6172 32.9661 66.7009 32.7535C66.7847 32.5409 66.7863 32.3014 66.7053 32.0875Z" fill="white"/>
<path d="M28.3863 20.759L26.3868 17.6211C26.3072 17.496 26.1984 17.3954 26.0712 17.3291C25.944 17.2627 25.8028 17.233 25.6616 17.2429C25.4263 17.4169 25.1925 17.5957 24.9631 17.7793C24.9111 17.9123 24.891 18.0572 24.9047 18.2006C24.9184 18.344 24.9654 18.4815 25.0415 18.6006L27.041 21.7385C27.1625 21.9292 27.3499 22.0606 27.5619 22.1036C27.774 22.1466 27.9933 22.0978 28.1717 21.968C28.3501 21.8381 28.473 21.6377 28.5132 21.411C28.5535 21.1843 28.5078 20.9497 28.3863 20.759Z" fill="white"/>
<path d="M20.2299 33.0385L16.9384 31.6096C16.7384 31.5228 16.5144 31.5244 16.3155 31.6142C16.1167 31.704 15.9593 31.8745 15.8781 32.0883C15.7969 32.3021 15.7984 32.5417 15.8823 32.7543C15.9662 32.9669 16.1257 33.1352 16.3257 33.2221L19.6172 34.651C19.8172 34.7376 20.0411 34.7358 20.2398 34.646C20.4385 34.5562 20.5957 34.3857 20.6769 34.172C20.7581 33.9583 20.7567 33.7189 20.6729 33.5063C20.589 33.2938 20.4297 33.1255 20.2299 33.0385Z" fill="white"/>
<path d="M41.366 64.3829C41.1502 64.3833 40.9434 64.4752 40.7908 64.6383C40.6383 64.8014 40.5524 65.0226 40.552 65.2533V69.051C40.552 69.2819 40.6378 69.5032 40.7904 69.6665C40.9431 69.8297 41.1501 69.9214 41.366 69.9214C41.5819 69.9214 41.7889 69.8297 41.9416 69.6665C42.0943 69.5032 42.18 69.2819 42.18 69.051V65.2533C42.1796 65.0226 42.0937 64.8014 41.9412 64.6383C41.7886 64.4752 41.5818 64.3833 41.366 64.3829Z" fill="white"/>
<path d="M57.5426 63.9588L55.5431 60.8209C55.483 60.7265 55.406 60.6456 55.3166 60.583C55.2272 60.5203 55.1272 60.4771 55.0222 60.4558C54.9172 60.4345 54.8093 60.4355 54.7047 60.4588C54.6001 60.4821 54.5007 60.5272 54.4124 60.5915C54.3241 60.6558 54.2484 60.7381 54.1898 60.8336C54.1313 60.9292 54.0908 61.0362 54.0709 61.1484C54.051 61.2607 54.0519 61.3761 54.0737 61.4879C54.0955 61.5998 54.1376 61.706 54.1978 61.8004L56.1973 64.9384C56.277 65.0634 56.3858 65.164 56.513 65.2304C56.6401 65.2967 56.7813 65.3264 56.9225 65.3166C57.1578 65.1425 57.3917 64.9637 57.6211 64.7801C57.6731 64.6471 57.6931 64.5023 57.6794 64.3588C57.6657 64.2154 57.6187 64.0779 57.5426 63.9588Z" fill="white"/>
<path d="M66.2584 49.3373L62.9668 47.9084C62.7668 47.8216 62.5428 47.8233 62.344 47.913C62.1451 48.0028 61.9878 48.1734 61.9065 48.3872C61.8253 48.601 61.8268 48.8405 61.9107 49.0531C61.9947 49.2657 62.1542 49.434 62.3541 49.5209L65.6456 50.9498C65.8456 51.0364 66.0695 51.0346 66.2682 50.9448C66.467 50.855 66.6242 50.6845 66.7054 50.4708C66.7866 50.2571 66.7851 50.0177 66.7013 49.8052C66.6175 49.5926 66.4582 49.4244 66.2584 49.3373Z" fill="white"/>
<path d="M28.1717 60.5915C27.9933 60.4616 27.774 60.4129 27.5619 60.4559C27.3499 60.4989 27.1625 60.6302 27.041 60.8209L25.0415 63.9588C24.9654 64.0779 24.9184 64.2154 24.9047 64.3588C24.891 64.5022 24.9111 64.6471 24.9631 64.7801C25.1925 64.9637 25.4263 65.1425 25.6616 65.3165C25.8028 65.3264 25.944 65.2967 26.0712 65.2303C26.1984 65.164 26.3072 65.0634 26.3868 64.9383L28.3863 61.8004C28.4465 61.706 28.4887 61.5998 28.5104 61.4879C28.5322 61.376 28.5332 61.2607 28.5132 61.1484C28.4933 61.0361 28.4529 60.9292 28.3943 60.8336C28.3357 60.738 28.2601 60.6558 28.1717 60.5915Z" fill="white"/>
<path d="M20.677 48.3863C20.6368 48.2805 20.5774 48.1842 20.5024 48.103C20.4274 48.0217 20.3381 47.957 20.2397 47.9126C20.1413 47.8682 20.0357 47.845 19.9289 47.8443C19.8221 47.8436 19.7162 47.8654 19.6173 47.9084L16.3257 49.3374C16.1259 49.4244 15.9666 49.5927 15.8828 49.8052C15.799 50.0177 15.7975 50.2572 15.8787 50.4709C15.9599 50.6846 16.1171 50.8551 16.3159 50.9449C16.5146 51.0347 16.7385 51.0365 16.9384 50.9498L20.23 49.5209C20.4297 49.4335 20.5889 49.265 20.6726 49.0523C20.7564 48.8397 20.758 48.6002 20.677 48.3863Z" fill="white"/>
<path d="M42.4222 40.8479C42.4974 41.3236 42.393 41.8118 42.1319 42.2053C41.8709 42.5988 41.4745 42.8656 41.0297 42.947L26.5851 45.574C26.3647 45.6141 26.1392 45.6074 25.9212 45.5543C25.7033 45.5011 25.4973 45.4026 25.315 45.2644C25.1327 45.1261 24.9777 44.9508 24.8587 44.7485C24.7398 44.5462 24.6592 44.3208 24.6218 44.0852C24.5843 43.8496 24.5906 43.6084 24.6403 43.3754C24.69 43.1424 24.7821 42.9222 24.9114 42.7273C25.0407 42.5323 25.2046 42.3665 25.3939 42.2394C25.5831 42.1122 25.7939 42.0261 26.0143 41.986L40.4589 39.359C40.9038 39.2787 41.3604 39.3903 41.7285 39.6694C42.0966 39.9485 42.3461 40.3723 42.4222 40.8479Z" fill="#3F3D56"/>
<path d="M57.6247 57.9587C57.4172 58.1818 57.1354 58.3078 56.8411 58.309C56.5468 58.3103 56.2641 58.1866 56.0549 57.9653L40.5055 41.4704C40.2968 41.2486 40.179 40.9473 40.178 40.6328C40.177 40.3182 40.2928 40.0161 40.5 39.7928C40.7072 39.5694 40.9889 39.4432 41.2831 39.4418C41.5773 39.4405 41.86 39.564 42.0691 39.7854L57.6185 56.2803C57.8272 56.5021 57.9451 56.8034 57.9462 57.1181C57.9474 57.4327 57.8317 57.735 57.6247 57.9587Z" fill="#3F3D56"/>
<path d="M41.2919 43.3369C42.3545 43.3369 43.216 42.4159 43.216 41.2797C43.216 40.1436 42.3545 39.2226 41.2919 39.2226C40.2293 39.2226 39.3679 40.1436 39.3679 41.2797C39.3679 42.4159 40.2293 43.3369 41.2919 43.3369Z" fill="#CCCCCC"/>
<path d="M28.0394 5.6089C25.0861 10.5733 20.58 13.8679 15.0228 16.0323C14.913 16.1203 14.788 16.1842 14.6551 16.2205C14.5222 16.2568 14.3839 16.2648 14.2481 16.2439C14.1122 16.2231 13.9816 16.1739 13.8636 16.099C13.7456 16.0242 13.6425 15.9253 13.5603 15.8079C10.5417 11.4986 11.2233 5.33972 15.2072 2.04692C16.1704 1.25222 17.2716 0.669993 18.447 0.334051C19.6223 -0.00189163 20.8484 -0.0848617 22.054 0.0899596C23.2596 0.264781 24.4207 0.69391 25.4699 1.35243C26.5191 2.01096 27.4355 2.88576 28.1659 3.92605L28.2494 4.04524C28.3316 4.16265 28.3914 4.29623 28.4254 4.43835C28.4593 4.58047 28.4668 4.72836 28.4473 4.87356C28.4278 5.01876 28.3818 5.15843 28.3118 5.2846C28.2418 5.41077 28.1493 5.52097 28.0394 5.6089Z" fill="#E6E6E6"/>
<path d="M54.4182 3.92605C55.1486 2.88576 56.0651 2.01096 57.1143 1.35243C58.1635 0.693908 59.3246 0.264782 60.5301 0.0899603C61.7357 -0.0848611 62.9618 -0.00189336 64.1371 0.334049C65.3125 0.669991 66.4137 1.25222 67.3769 2.04692C71.3609 5.33972 72.0424 11.4986 69.0238 15.8079C68.9416 15.9253 68.8385 16.0242 68.7205 16.099C68.6025 16.1739 68.4719 16.2231 68.3361 16.2439C68.2003 16.2648 68.0619 16.2568 67.929 16.2205C67.7961 16.1842 67.6712 16.1202 67.5614 16.0323C62.4024 13.9205 58.1718 10.2661 54.5447 5.6089C54.3229 5.43131 54.1762 5.16679 54.1368 4.87355C54.0975 4.58031 54.1686 4.28235 54.3347 4.04523L54.4182 3.92605Z" fill="#E6E6E6"/>
<path d="M53.1237 70.755C52.9356 70.868 52.7971 71.0561 52.7385 71.2782C52.6798 71.5002 52.7059 71.738 52.8109 71.9395L57.5087 80.9154C57.6142 81.1167 57.7901 81.2651 57.9979 81.3278C58.2056 81.3905 58.4281 81.3624 58.6165 81.2497C58.8049 81.137 58.9437 80.9489 59.0023 80.7268C59.061 80.5047 59.0348 80.2668 58.9294 80.0653L54.2316 71.0895C54.1259 70.8884 53.95 70.7402 53.7423 70.6775C53.5347 70.6148 53.3122 70.6427 53.1237 70.755Z" fill="#E6E6E6"/>
<path d="M28.3524 71.0895L23.6546 80.0654C23.5492 80.2668 23.523 80.5047 23.5817 80.7268C23.6404 80.9489 23.7792 81.137 23.9675 81.2497C24.1559 81.3624 24.3784 81.3905 24.5862 81.3278C24.7939 81.2651 24.9698 81.1168 25.0753 80.9154L29.7731 71.9396C29.8254 71.8398 29.8587 71.73 29.8713 71.6165C29.8838 71.503 29.8753 71.388 29.8463 71.2779C29.8172 71.1679 29.7682 71.0651 29.702 70.9754C29.6358 70.8856 29.5537 70.8107 29.4604 70.7549C29.3671 70.6991 29.2644 70.6634 29.1582 70.65C29.0521 70.6366 28.9445 70.6458 28.8416 70.6768C28.7387 70.7079 28.6425 70.7603 28.5586 70.8312C28.4747 70.902 28.4046 70.9898 28.3524 71.0895Z" fill="#E6E6E6"/>
<path d="M58.4601 83.2136C59.8497 83.2136 60.9761 82.0092 60.9761 80.5235C60.9761 79.0378 59.8497 77.8334 58.4601 77.8334C57.0706 77.8334 55.9441 79.0378 55.9441 80.5235C55.9441 82.0092 57.0706 83.2136 58.4601 83.2136Z" fill="#E6E6E6"/>
<path d="M60.2362 14.3787C61.6258 14.3787 62.7523 13.1743 62.7523 11.6886C62.7523 10.2029 61.6258 8.99854 60.2362 8.99854C58.8467 8.99854 57.7202 10.2029 57.7202 11.6886C57.7202 13.1743 58.8467 14.3787 60.2362 14.3787Z" fill="#E6E6E6"/>
<path d="M41.144 8.04908C42.5335 8.04908 43.66 6.84468 43.66 5.35898C43.66 3.87328 42.5335 2.66888 41.144 2.66888C39.7544 2.66888 38.6279 3.87328 38.6279 5.35898C38.6279 6.84468 39.7544 8.04908 41.144 8.04908Z" fill="#E6E6E6"/>
<path d="M22.9398 14.0623C24.3294 14.0623 25.4559 12.8579 25.4559 11.3722C25.4559 9.88647 24.3294 8.68207 22.9398 8.68207C21.5503 8.68207 20.4238 9.88647 20.4238 11.3722C20.4238 12.8579 21.5503 14.0623 22.9398 14.0623Z" fill="#E6E6E6"/>
<path d="M24.5679 83.2136C25.9575 83.2136 27.0839 82.0092 27.0839 80.5235C27.0839 79.0378 25.9575 77.8334 24.5679 77.8334C23.1783 77.8334 22.0519 79.0378 22.0519 80.5235C22.0519 82.0092 23.1783 83.2136 24.5679 83.2136Z" fill="#E6E6E6"/>
<path d="M56.4866 56.4457C56.5858 56.6117 56.7178 56.7525 56.8734 56.8581C57.029 56.9637 57.2043 57.0315 57.387 57.0568C57.5698 57.0821 57.7555 57.0642 57.931 57.0045C58.1066 56.9448 58.2678 56.8446 58.4033 56.711L62.3513 58.9728L62.1396 56.4946L58.4229 54.7267C58.198 54.4982 57.9025 54.3659 57.5925 54.3549C57.2824 54.3438 56.9793 54.4547 56.7407 54.6666C56.502 54.8785 56.3443 55.1767 56.2975 55.5046C56.2507 55.8324 56.3179 56.1673 56.4866 56.4457Z" fill="#FFB7B7"/>
<path d="M59.3633 57.3106L60.9104 55.0272L68.3637 58.7944L77.6385 56.9337C78.097 56.8418 78.5687 56.8589 79.0203 56.9838C79.4719 57.1087 79.8922 57.3383 80.2515 57.6565C80.6107 57.9746 80.9 58.3734 81.0989 58.8245C81.2978 59.2756 81.4014 59.768 81.4022 60.2667C81.4029 61.1675 81.0693 62.0318 80.4746 62.6699C79.88 63.308 79.0729 63.6679 78.2304 63.6705L67.6015 63.6916L59.3633 57.3106Z" fill="#3F3D56"/>
<path d="M56.9804 96.7485L55.415 95.9481L57.5653 88.9526L59.8755 90.134L56.9804 96.7485Z" fill="#FFB7B7"/>
<path d="M67.4745 95.6207C67.3606 95.697 67.2468 95.7719 67.1318 95.8469C66.903 95.9969 66.6719 96.1444 66.4408 96.2895C66.3247 96.362 66.2074 96.4345 66.0913 96.5059V96.5095L66.0844 96.5108L66.0821 96.512L65.905 96.5587L65.6509 95.8408L65.5336 95.5101L65.3681 95.0417L65.0645 94.1849L63.4663 89.6732L65.951 89.018L66.0441 89.4249H66.0453L66.0913 89.6265L66.9594 93.3907L67.1364 94.1603L67.1422 94.1836L67.2491 94.6434L67.3411 95.0417L67.4434 95.4868L67.4745 95.6207Z" fill="#FFB7B7"/>
<path d="M82.2965 79.7769C82.139 80.0473 81.978 80.3165 81.8159 80.5833C81.5147 81.0799 81.2054 81.5692 80.888 82.0511C80.888 82.0524 80.8869 82.0523 80.8857 82.0536C80.7006 82.2369 80.4961 82.3966 80.2763 82.5293C80.2671 82.5367 80.2568 82.5416 80.2476 82.5478C80.0858 82.6434 79.9135 82.7173 79.7348 82.7678C79.6704 82.785 79.6049 82.8022 79.5405 82.8195C79.3082 82.8785 79.0783 82.9289 78.8495 82.9731C78.4424 83.0506 78.04 83.1059 77.6399 83.1403C77.6077 83.144 77.5755 83.1465 77.5433 83.1489C75.898 83.278 74.2963 83.0702 72.6245 82.7297C71.799 82.5625 70.9562 82.3621 70.0835 82.1544C69.7984 82.0855 69.5121 82.0179 69.2223 81.9503C69.2005 81.9454 69.1775 81.9393 69.1545 81.9343C68.7406 81.8372 68.3198 81.7413 67.8886 81.6467C67.3459 81.5274 66.7859 81.4119 66.2042 81.3025L66.2456 82.179C66.28 82.8532 66.4111 83.5179 66.6342 84.1496C66.8825 84.9265 67.0791 85.5412 66.6641 86.8209L66.464 87.4405C66.5677 87.7482 66.6033 88.0774 66.568 88.4022C66.5327 88.7271 66.4274 89.0388 66.2605 89.3128L66.2203 89.3779L67.8886 93.8908L67.9967 94.1834H67.1424L66.0915 94.1846H64.3105L61.7407 88.6723L61.6177 88.4092V88.3957L61.8833 77.8025C61.8867 77.7091 61.8936 77.6145 61.9051 77.521C61.952 77.0963 62.0775 76.6858 62.2743 76.3135C62.4711 75.9412 62.7353 75.6145 63.0515 75.3525C63.3544 75.0993 63.7014 74.9131 64.0723 74.8046C64.4432 74.6961 64.8306 74.6676 65.2119 74.7206L66.0915 74.8423L67.8886 75.0906L69.1545 75.2664L69.1798 75.2701L72.9131 75.7864L73.181 74.6186L73.2305 74.5989L74.8022 73.983L80.2384 71.8526L80.2522 71.8477L80.6098 71.7075L80.6523 71.7813C80.665 71.8034 80.6776 71.8255 80.6891 71.8477C81.0425 72.5251 81.3303 73.2394 81.548 73.9793C81.914 75.1881 82.2154 76.4182 82.4506 77.6636C82.4609 77.7177 82.4701 77.7669 82.4782 77.8112L82.4816 77.8247C82.4851 77.8456 82.4874 77.8591 82.4885 77.8628C82.6139 78.4209 82.5265 79.102 82.2965 79.7769Z" fill="#2F2E41"/>
<path d="M82.5259 75.8729C82.5087 75.7942 82.4868 75.7143 82.4639 75.6369C82.2813 75.0503 82.0687 74.4749 81.8269 73.9133C81.5555 73.2741 81.2301 72.5894 80.8427 71.8481C80.6553 71.4891 80.4537 71.1158 80.2379 70.7282C80.1298 70.5339 80.0175 70.336 79.901 70.1344C79.8964 70.1251 79.8914 70.1161 79.886 70.1073L79.8527 70.0483L74.474 70.8179L72.4711 71.1043L72.3515 72.1714L72.3228 72.4357C72.3216 72.4357 72.3216 72.4357 72.3228 72.4369L72.2423 73.1573V73.1586L72.1354 74.1101L72.1262 74.1088L69.154 73.697L66.091 73.2729L64.4456 73.0455C64.0643 72.9923 63.6769 73.0208 63.306 73.1293C62.9351 73.2378 62.5881 73.4241 62.2852 73.6773C61.9691 73.9394 61.7049 74.2661 61.5081 74.6384C61.3113 75.0107 61.1858 75.4212 61.1389 75.8459C61.1285 75.9319 61.1216 76.0204 61.1182 76.1077L59.5659 80.0404C58.6371 82.3923 58.0456 84.8806 57.8114 87.4213L56.6731 91.3121L56.8352 91.3281L59.2475 91.5678L59.8844 91.6318L61.2872 89.4423C61.447 89.1928 61.5988 88.9358 61.7402 88.6727C61.973 88.2431 62.18 87.798 62.3599 87.3401L65.3942 79.6199C65.6288 79.663 65.861 79.704 66.091 79.7429C67.1545 79.9273 68.1755 80.0777 69.154 80.194C72.3354 80.5739 75.0903 80.6034 77.5428 80.2813C78.2315 80.1916 78.8972 80.0736 79.54 79.9273C79.7757 79.8744 80.0083 79.8174 80.2379 79.7564C80.2919 79.7429 80.3448 79.7293 80.3977 79.7146C80.8729 79.5836 81.3097 79.3272 81.6683 78.969C82.0268 78.6107 82.2956 78.1621 82.4501 77.6641C82.6344 77.0869 82.6608 76.4655 82.5259 75.8729Z" fill="#2F2E41"/>
<path d="M57.4804 95.6062L55.7868 94.7383L55.5212 94.6018L55.0969 95.7156L52.1351 96.4126C51.9886 96.447 51.8563 96.5305 51.7574 96.6509C51.6585 96.7714 51.5982 96.9225 51.5853 97.0823C51.5725 97.242 51.6078 97.4019 51.686 97.5386C51.7642 97.6754 51.8813 97.7818 52.0201 97.8424L54.9141 99.1049L55.8328 98.221L55.6074 99.4073L56.6974 99.8831L57.892 95.8176L57.4804 95.6062Z" fill="#2F2E41"/>
<path d="M67.8887 93.8908L67.9969 94.1834H67.8887V93.8908Z" fill="#2F2E41"/>
<path d="M67.2988 94.2459L65.5242 94.9033L65.2457 95.0061L65.6772 96.1167L64.0313 98.8402C63.9498 98.9748 63.9107 99.1337 63.9197 99.2937C63.9287 99.4537 63.9854 99.6065 64.0813 99.7296C64.1773 99.8528 64.3076 99.9399 64.4532 99.9782C64.5988 100.017 64.752 100.004 64.8905 99.9427L67.7777 98.6626L67.8488 97.3434L68.4694 98.3559L69.557 97.874L67.7305 94.0865L67.2988 94.2459Z" fill="#2F2E41"/>
<path d="M82.0834 77.654C81.9781 77.6538 81.8743 77.6262 81.7811 77.5738L72.4164 72.3419L72.3082 71.8683L72.1042 70.3695L72.1071 70.3554L72.9977 65.9653C72.9813 65.9276 72.9472 65.8658 72.9087 65.7959C72.5111 65.0757 71.3011 62.8835 73.6104 59.865L77.665 54.8109L81.1449 54.6508L81.1845 54.7042C82.115 55.9529 82.7425 57.4281 83.0113 58.9986C83.2801 60.5691 83.1818 62.1862 82.7252 63.7063L82.3629 70.7033L82.7515 72.1163C82.9787 72.9467 82.9412 73.8343 82.6447 74.6394L82.7338 76.9274C82.7373 77.0211 82.7231 77.1147 82.692 77.2025C82.6609 77.2903 82.6136 77.3705 82.5529 77.4383C82.4922 77.5061 82.4193 77.5601 82.3387 77.5972C82.258 77.6343 82.1712 77.6536 82.0834 77.654Z" fill="#3F3D56"/>
<path d="M73.9603 83.4244C74.119 83.3242 74.2551 83.188 74.3592 83.0255C74.4633 82.8629 74.5328 82.6779 74.5628 82.4836C74.5928 82.2892 74.5826 82.0901 74.5329 81.9004C74.4832 81.7107 74.3951 81.535 74.275 81.3856L76.5265 77.2457L74.2026 77.3857L72.4209 81.2956C72.1995 81.528 72.0656 81.8391 72.0444 82.1701C72.0233 82.501 72.1165 82.8287 72.3062 83.0911C72.496 83.3535 72.7692 83.5324 73.074 83.5938C73.3789 83.6552 73.6942 83.595 73.9603 83.4244Z" fill="#FFB7B7"/>
<path d="M74.8688 80.3807L72.7883 78.6482L76.5688 70.815L75.1523 60.8398C75.0823 60.3467 75.1146 59.8432 75.2471 59.365C75.3795 58.8868 75.6088 58.4457 75.9187 58.0729C76.2285 57.7001 76.6114 57.4048 77.0399 57.208C77.4685 57.0111 77.9324 56.9176 78.3986 56.934C79.2406 56.9647 80.0369 57.3512 80.6127 58.0088C81.1885 58.6664 81.4967 59.5413 81.4699 60.4417L81.1199 71.7998L74.8688 80.3807Z" fill="#3F3D56"/>
<path d="M75.4329 52.7108V49.029C75.4321 47.7206 75.9175 46.4654 76.7822 45.5396C77.647 44.6138 78.8204 44.0932 80.0441 44.0923C81.2679 44.0915 82.4419 44.6105 83.3078 45.5351C84.1737 46.4597 84.6606 47.7142 84.6613 49.0227V49.029C85.4746 50.841 84.9658 51.7024 84.6613 52.7108C84.6611 52.8864 84.5957 53.0547 84.4796 53.1788C84.3634 53.303 84.206 53.3729 84.0418 53.3732H76.0527C75.8884 53.373 75.7309 53.3031 75.6147 53.179C75.4985 53.0548 75.4331 52.8864 75.4329 52.7108Z" fill="#2F2E41"/>
<path d="M78.5342 53.134C80.4418 53.134 81.9882 51.4806 81.9882 49.4411C81.9882 47.4015 80.4418 45.7482 78.5342 45.7482C76.6267 45.7482 75.0803 47.4015 75.0803 49.4411C75.0803 51.4806 76.6267 53.134 78.5342 53.134Z" fill="#FFB7B7"/>
<path d="M82.149 50.4092C82.1177 50.4039 82.0864 50.3969 82.0551 50.3916C81.5163 50.2894 80.9775 50.189 80.4404 50.0851L80.391 48.7833L79.7402 49.9494C78.2557 50.4761 76.8668 50.1784 75.5603 49.5214C75.1293 49.3026 74.7112 49.0561 74.3081 48.7833C74.4179 48.0633 74.6768 47.3786 75.0659 46.7794C75.455 46.1802 75.9645 45.6816 76.5571 45.32C76.6065 45.2901 76.6543 45.2636 76.7037 45.2372L76.7043 45.2371L76.7049 45.2367L76.7052 45.2361L76.7053 45.2354C76.7894 45.1932 76.875 45.1526 76.9607 45.1157C77.6315 44.8354 78.3628 44.7644 79.0698 44.911C79.7768 45.0575 80.4303 45.4156 80.9545 45.9436C82.0089 47.0199 82.4834 48.7974 82.149 50.4092Z" fill="#2F2E41"/>
<path d="M9.01499 74.7227L3.51963 74.6912C3.06061 74.6871 2.60543 74.7955 2.1801 75.0104C1.75477 75.2253 1.36762 75.5424 1.04077 75.9436C0.713921 76.3448 0.453778 76.8222 0.275198 77.3486C0.0966187 77.875 0.00311062 78.4401 5.75058e-06 79.0115C-0.00167426 80.1653 0.364814 81.2727 1.01889 82.0902C1.67297 82.9077 2.5611 83.3685 3.48799 83.3711L8.98335 83.4026L9.01499 74.7227Z" fill="#E0E0E0"/>
<path d="M8.50403 83.57L13.9994 83.6015C15.934 83.6113 17.5095 81.6008 17.519 79.1099C17.5285 76.619 15.9672 74.5908 14.0389 74.5809L8.542 74.5494L8.50403 83.57Z" fill="#006466"/>
<path opacity="0.3" d="M8.1929 74.7151L8.16125 83.3969L8.50135 83.3988L8.533 74.717L8.1929 74.7151Z" fill="black"/>
<path d="M8.50379 83.5699C8.48027 83.5699 8.46929 81.5496 8.4787 79.0567C8.48811 76.5638 8.5132 74.5455 8.53516 74.5455C8.55711 74.5455 8.56966 76.5658 8.56025 79.0587C8.55084 81.5516 8.52575 83.5699 8.50379 83.5699Z" fill="#263238"/>
<g opacity="0.3">
<path d="M13.18 75.6678C13.1546 75.3941 13.3888 75.0771 13.8617 74.9334C14.1386 74.8529 14.4251 74.8375 14.7064 74.8881C15.0541 74.9495 15.3901 75.0882 15.6983 75.2977C16.0046 75.5121 16.2778 75.7928 16.505 76.1266C16.6884 76.3969 16.8295 76.7074 16.921 77.0423C17.0697 77.6212 16.9827 78.0268 16.7834 78.1529C16.5841 78.2789 16.293 78.1214 15.9783 77.8949C15.8201 77.7807 15.6524 77.6488 15.4721 77.5129C15.2917 77.377 15.1019 77.2353 14.901 77.0935C14.7001 76.9517 14.4992 76.8316 14.311 76.7115C14.1227 76.5914 13.9424 76.487 13.7811 76.3807C13.46 76.1778 13.2037 75.9553 13.18 75.6678Z" fill="white"/>
</g>
<g opacity="0.3">
<path d="M12.3495 75.912C12.3929 75.8972 12.433 75.8699 12.4664 75.8324C12.4999 75.7949 12.5259 75.7482 12.5423 75.696C12.5588 75.6438 12.5652 75.5876 12.5611 75.5318C12.557 75.4759 12.5425 75.4221 12.5188 75.3745C12.4883 75.3289 12.4508 75.2916 12.4083 75.2648C12.3659 75.2381 12.3195 75.2224 12.272 75.2189C12.2149 75.2109 12.1572 75.2231 12.1054 75.2541C12.0536 75.2851 12.0099 75.3336 11.9793 75.3941C11.951 75.4549 11.9379 75.5248 11.9415 75.5949C11.9452 75.6651 11.9655 75.7322 11.9999 75.788C12.0431 75.8471 12.0987 75.8901 12.1605 75.912C12.2223 75.9339 12.2877 75.9339 12.3495 75.912Z" fill="white"/>
</g>
<g opacity="0.3">
<path d="M4.77882 82.1817C4.80413 82.4535 4.56843 82.7725 4.09546 82.9142C3.81926 82.9955 3.53328 83.0115 3.25234 82.9615C2.90454 82.8997 2.56856 82.7602 2.26051 82.5499C1.95319 82.3373 1.67975 82.0563 1.45376 81.7209C1.26933 81.4513 1.12763 81.1406 1.03616 80.8053C0.887467 80.2264 0.976051 79.8208 1.17536 79.6967C1.37468 79.5726 1.66415 79.7282 1.97894 79.9527C2.13712 80.0669 2.30639 80.1988 2.48513 80.3367C2.66388 80.4745 2.85529 80.6143 3.05776 80.7561C3.26024 80.8979 3.45956 81.016 3.6478 81.1361C3.83604 81.2562 4.01637 81.3606 4.17772 81.4669C4.50358 81.6796 4.75351 81.8883 4.77882 82.1817Z" fill="white"/>
</g>
<g opacity="0.3">
<path d="M5.61087 81.9375C5.55083 81.9517 5.49665 81.9916 5.45767 82.0501C5.41869 82.1087 5.39735 82.1824 5.39732 82.2585C5.39258 82.3342 5.40815 82.4097 5.44161 82.4731C5.47158 82.5188 5.50885 82.5562 5.55106 82.583C5.59327 82.6098 5.63949 82.6253 5.68679 82.6287C5.74391 82.6372 5.8018 82.6252 5.85364 82.5942C5.90548 82.5631 5.94912 82.5143 5.97944 82.4534C6.00798 82.3928 6.02141 82.323 6.01803 82.2529C6.01465 82.1828 5.99462 82.1155 5.96046 82.0596C5.91686 82.0012 5.86115 81.9588 5.79946 81.9373C5.73778 81.9158 5.67252 81.9158 5.61087 81.9375Z" fill="white"/>
</g>
</g>
<defs>
<clipPath id="clip0_1072_10035">
<rect width="100" height="100" fill="white"/>
</clipPath>
</defs>
</svg>
