<svg width="200" height="200" viewBox="0 0 200 200" fill="none" xmlns="http://www.w3.org/2000/svg">
<g clip-path="url(#clip0_1182_18851)">
<path d="M25.0877 82.2488C25.0877 82.2488 19.5577 106.644 35.5461 128.035C51.5341 149.427 79.2157 157.881 101.47 165.322C123.724 172.763 144.468 164.478 152.148 145.776C159.827 127.075 144.001 116.869 140.366 92.3524C136.73 67.8356 139.458 60.8 123.126 42.0444C106.794 23.2888 73.5341 23.5132 51.1705 42.5128C28.8069 61.512 25.0877 82.2488 25.0877 82.2488Z" fill="#B2D1D1"/>
<path opacity="0.7" d="M25.0877 82.2488C25.0877 82.2488 19.5577 106.644 35.5461 128.035C51.5341 149.427 79.2157 157.881 101.47 165.322C123.724 172.763 144.468 164.478 152.148 145.776C159.827 127.075 144.001 116.869 140.366 92.3524C136.73 67.8356 139.458 60.8 123.126 42.0444C106.794 23.2888 73.5341 23.5132 51.1705 42.5128C28.8069 61.512 25.0877 82.2488 25.0877 82.2488Z" fill="white"/>
<path d="M155.002 49.818C155.002 49.818 155.408 47.7436 153.071 44.272C150.734 40.8004 149.192 38.7764 149.192 38.7764C149.192 38.7764 146.808 43.2636 148.937 46.6948C151.066 50.1256 154.273 53.552 154.273 53.552L155.002 49.818Z" fill="#B2D1D1"/>
<path d="M148.256 61.9492C148.256 61.9492 148.661 59.8748 146.325 56.4032C143.989 52.9316 142.446 50.9076 142.446 50.9076C142.446 50.9076 140.061 55.3948 142.191 58.826C144.32 62.2568 147.527 65.6832 147.527 65.6832L148.256 61.9492Z" fill="#B2D1D1"/>
<path d="M154.129 53.3152C154.129 53.3152 154.752 51.2952 158.451 49.3388C162.149 47.382 164.465 46.326 164.465 46.326C164.465 46.326 164.448 51.4076 160.951 53.4264C157.454 55.4452 153.01 56.9512 153.01 56.9512L154.129 53.3152Z" fill="#B2D1D1"/>
<path d="M146.048 67.62C146.048 67.62 146.879 65.6764 150.763 64.1192C154.647 62.562 157.061 61.7552 157.061 61.7552C157.061 61.7552 156.51 66.8068 152.82 68.4472C149.131 70.0876 144.552 71.1184 144.552 71.1184L146.048 67.62Z" fill="#B2D1D1"/>
<path d="M143.746 84.4876C143.746 84.4876 144.151 82.4132 147.623 80.0768C151.095 77.74 153.286 76.4456 153.286 76.4456C153.286 76.4456 153.805 81.5004 150.541 83.8776C147.277 86.2548 143.017 88.2216 143.017 88.2216L143.746 84.4876Z" fill="#B2D1D1"/>
<path d="M142.902 88.5496C142.902 88.5496 143.598 86.554 141.779 82.7856C139.959 79.0172 138.72 76.7944 138.72 76.7944C138.72 76.7944 135.722 80.8972 137.342 84.596C138.962 88.2948 141.65 92.142 141.65 92.142L142.902 88.5496Z" fill="#B2D1D1"/>
<path d="M137.681 100.057C137.681 100.057 138.086 97.9824 141.557 95.646C145.029 93.3092 147.22 92.0148 147.22 92.0148C147.22 92.0148 147.74 97.0696 144.476 99.4468C141.212 101.824 136.951 103.791 136.951 103.791L137.681 100.057Z" fill="#B2D1D1"/>
<path d="M137.482 111.376C137.482 111.376 137.349 109.266 140.115 106.126C142.882 102.986 144.674 101.179 144.674 101.179C144.674 101.179 146.457 105.938 143.901 109.064C141.345 112.19 137.722 115.172 137.722 115.172L137.482 111.376Z" fill="#B2D1D1"/>
<path d="M155.369 49.3376C154.766 51.5216 154.066 53.7664 153.315 55.6232C151.008 61.33 147.391 64.596 145.196 69.7288C143.001 74.8616 144.948 82.4076 142.721 89.116C140.494 95.8244 137.068 99.1276 136.936 103.869C136.804 108.61 138.391 121.832 138.391 121.832" stroke="#263238" stroke-width="0.5" stroke-miterlimit="10" stroke-linecap="round" stroke-linejoin="round"/>
<path d="M153.831 54.6884L157.43 52.8984" stroke="#263238" stroke-width="0.5" stroke-miterlimit="10" stroke-linecap="round" stroke-linejoin="round"/>
<path d="M154.517 51.9512L153.663 49.366" stroke="#263238" stroke-width="0.5" stroke-miterlimit="10" stroke-linecap="round" stroke-linejoin="round"/>
<path d="M145.418 69.5168C145.418 69.5168 148.423 68.0636 151.499 66.6248" stroke="#263238" stroke-width="0.5" stroke-miterlimit="10" stroke-linecap="round" stroke-linejoin="round"/>
<path d="M147.526 65.6832C147.526 65.6832 146.18 60.9764 144.26 57.6544" stroke="#263238" stroke-width="0.5" stroke-miterlimit="10" stroke-linecap="round" stroke-linejoin="round"/>
<path d="M143.272 87.4588C143.272 87.4588 146.092 83.854 150.341 81.0572" stroke="#263238" stroke-width="0.5" stroke-miterlimit="10" stroke-linecap="round" stroke-linejoin="round"/>
<path d="M142.194 90.2704C142.194 90.2704 141.495 86.8848 140.408 84.33C139.32 81.7752 139.158 81.4412 139.158 81.4412" stroke="#263238" stroke-width="0.5" stroke-miterlimit="10" stroke-linecap="round" stroke-linejoin="round"/>
<path d="M136.936 103.869C136.936 103.869 138.505 101.412 140.228 99.558C141.95 97.7032 144.067 96.1524 144.067 96.1524" stroke="#263238" stroke-width="0.5" stroke-miterlimit="10" stroke-linecap="round" stroke-linejoin="round"/>
<path d="M137.722 115.172C137.722 115.172 137.9 112.628 139.404 110.731C140.908 108.834 142.686 106.31 143.409 105.318" stroke="#263238" stroke-width="0.5" stroke-miterlimit="10" stroke-linecap="round" stroke-linejoin="round"/>
<path d="M130.571 73.814C130.571 73.814 130.599 72.4692 132.523 70.6272C134.446 68.7848 135.68 67.7352 135.68 67.7352C135.68 67.7352 136.555 70.8484 134.766 72.6936C132.977 74.5388 130.519 76.2348 130.519 76.2348L130.571 73.814Z" fill="#B2D1D1"/>
<path d="M133.122 82.2712C133.122 82.2712 133.151 80.9264 135.074 79.0844C136.997 77.2424 138.231 76.1924 138.231 76.1924C138.231 76.1924 139.106 79.3056 137.317 81.1508C135.528 82.996 133.07 84.692 133.07 84.692L133.122 82.2712Z" fill="#B2D1D1"/>
<path d="M130.639 76.1072C130.639 76.1072 130.526 74.7668 128.491 73.0492C126.456 71.3312 125.159 70.3608 125.159 70.3608C125.159 70.3608 124.481 73.5228 126.382 75.252C128.283 76.9812 130.843 78.5196 130.843 78.5196L130.639 76.1072Z" fill="#B2D1D1"/>
<path d="M133.726 86.0968C133.726 86.0968 133.472 84.776 131.268 83.2812C129.064 81.7864 127.672 80.958 127.672 80.958C127.672 80.958 127.33 84.1736 129.403 85.6936C131.475 87.2136 134.182 88.4748 134.182 88.4748L133.726 86.0968Z" fill="#B2D1D1"/>
<path d="M132.873 96.8972C132.873 96.8972 132.902 95.5524 131.06 93.6292C129.218 91.706 128.031 90.604 128.031 90.604C128.031 90.604 127.023 93.6768 128.73 95.5972C130.438 97.5176 132.821 99.318 132.821 99.318L132.873 96.8972Z" fill="#B2D1D1"/>
<path d="M132.847 99.5376C132.847 99.5376 132.685 98.2024 134.327 96.1056C135.969 94.0088 137.04 92.7948 137.04 92.7948C137.04 92.7948 138.349 95.752 136.84 97.8324C135.332 99.9128 133.139 101.941 133.139 101.941L132.847 99.5376Z" fill="#B2D1D1"/>
<path d="M134.442 110.742C134.442 110.742 134.849 109.46 137.213 108.235C139.578 107.01 141.057 106.35 141.057 106.35C141.057 106.35 141.019 109.584 138.783 110.85C136.546 112.116 133.71 113.05 133.71 113.05L134.442 110.742Z" fill="#B2D1D1"/>
<path d="M134.535 107.4C134.535 107.4 134.564 106.055 132.722 104.132C130.88 102.209 129.692 101.107 129.692 101.107C129.692 101.107 128.684 104.18 130.392 106.1C132.1 108.02 134.482 109.821 134.482 109.821L134.535 107.4Z" fill="#B2D1D1"/>
<path d="M133.125 114.466C133.125 114.466 133.494 113.172 132.198 110.845C130.904 108.518 130.034 107.151 130.034 107.151C130.034 107.151 128.281 109.868 129.446 112.159C130.612 114.449 132.461 116.794 132.461 116.794L133.125 114.466Z" fill="#B2D1D1"/>
<path d="M130.407 73.4656C130.486 74.9052 130.618 76.396 130.833 77.652C131.494 81.5132 133.301 84.034 133.97 87.5232C134.64 91.0124 132.407 95.4408 132.883 99.914C133.359 104.387 135.042 106.905 134.482 109.872C133.921 112.838 131.143 120.844 131.143 120.844" stroke="#263238" stroke-width="0.5" stroke-miterlimit="10" stroke-linecap="round" stroke-linejoin="round"/>
<path d="M130.639 77.0012L128.643 75.4004" stroke="#263238" stroke-width="0.5" stroke-miterlimit="10" stroke-linecap="round" stroke-linejoin="round"/>
<path d="M130.583 75.206L131.465 73.7144" stroke="#263238" stroke-width="0.5" stroke-miterlimit="10" stroke-linecap="round" stroke-linejoin="round"/>
<path d="M133.861 87.3616C133.861 87.3616 132.19 86.0508 130.472 84.7396" stroke="#263238" stroke-width="0.5" stroke-miterlimit="10" stroke-linecap="round" stroke-linejoin="round"/>
<path d="M133.07 84.692C133.07 84.692 134.545 81.9476 136.188 80.142" stroke="#263238" stroke-width="0.5" stroke-miterlimit="10" stroke-linecap="round" stroke-linejoin="round"/>
<path d="M132.765 98.8092C132.765 98.8092 131.5 96.1856 129.237 93.8708" stroke="#263238" stroke-width="0.5" stroke-miterlimit="10" stroke-linecap="round" stroke-linejoin="round"/>
<path d="M133.054 100.704C133.054 100.704 133.948 98.6928 134.97 97.2516C135.992 95.8104 136.138 95.6248 136.138 95.6248" stroke="#263238" stroke-width="0.5" stroke-miterlimit="10" stroke-linecap="round" stroke-linejoin="round"/>
<path d="M133.942 112.099C133.942 112.099 135.768 110.581 136.817 110.084C137.866 109.588 138.634 109.038 138.634 109.038" stroke="#263238" stroke-width="0.5" stroke-miterlimit="10" stroke-linecap="round" stroke-linejoin="round"/>
<path d="M134.482 109.872C134.482 109.872 133.838 108.132 133.018 106.745C132.199 105.358 131.093 104.107 131.093 104.107" stroke="#263238" stroke-width="0.5" stroke-miterlimit="10" stroke-linecap="round" stroke-linejoin="round"/>
<path d="M132.461 116.794C132.461 116.794 132.695 115.188 132.017 113.804C131.338 112.421 130.575 110.61 130.26 109.896" stroke="#263238" stroke-width="0.5" stroke-miterlimit="10" stroke-linecap="round" stroke-linejoin="round"/>
<path d="M140.098 108.242H111.934C110.937 108.242 110.129 109.05 110.129 110.046V170.793C110.129 171.79 110.937 172.598 111.934 172.598H140.098C141.095 172.598 141.903 171.79 141.903 170.793V110.046C141.903 109.05 141.095 108.242 140.098 108.242Z" fill="white" stroke="#263238" stroke-width="1.01" stroke-miterlimit="10" stroke-linecap="round" stroke-linejoin="round"/>
<path d="M139.243 116.683H112.789C111.792 116.683 110.984 117.491 110.984 118.488V169.256C110.984 170.253 111.792 171.061 112.789 171.061H139.243C140.24 171.061 141.048 170.253 141.048 169.256V118.488C141.048 117.491 140.24 116.683 139.243 116.683Z" fill="#B2D1D1"/>
<path opacity="0.5" d="M139.243 116.683H112.789C111.792 116.683 110.984 117.491 110.984 118.488V169.256C110.984 170.253 111.792 171.061 112.789 171.061H139.243C140.24 171.061 141.048 170.253 141.048 169.256V118.488C141.048 117.491 140.24 116.683 139.243 116.683Z" fill="white"/>
<path d="M133.574 94.36H118.458V108.242H133.574V94.36Z" fill="#263238" stroke="#263238" stroke-width="1.01" stroke-miterlimit="10" stroke-linecap="round" stroke-linejoin="round"/>
<path d="M119.719 95.734V106.743" stroke="white" stroke-width="1.01" stroke-miterlimit="10" stroke-linecap="round" stroke-linejoin="round"/>
<path d="M122.055 95.734V106.743" stroke="white" stroke-width="1.01" stroke-miterlimit="10" stroke-linecap="round" stroke-linejoin="round"/>
<path d="M125.391 99.2368V106.743" stroke="white" stroke-width="1.01" stroke-miterlimit="10" stroke-linecap="round" stroke-linejoin="round"/>
<path d="M125.391 95.734V97.5688" stroke="white" stroke-width="1.01" stroke-miterlimit="10" stroke-linecap="round" stroke-linejoin="round"/>
<path d="M140.087 121.898H111.945V152.958H140.087V121.898Z" fill="white"/>
<path d="M125.829 148.653C131.586 148.653 136.254 143.985 136.254 138.228C136.254 132.47 131.586 127.802 125.829 127.802C120.071 127.802 115.404 132.47 115.404 138.228C115.404 143.985 120.071 148.653 125.829 148.653Z" fill="#263238"/>
<path d="M127.738 131.055H123.92V145.4H127.738V131.055Z" fill="#B2D1D1"/>
<path d="M133.001 140.136V136.319H118.656V140.136H133.001Z" fill="#B2D1D1"/>
<path d="M169.831 172.73H125.524C124.474 172.73 123.623 171.88 123.623 170.83V145.06C123.623 144.011 124.474 143.16 125.524 143.16H169.831C170.881 143.16 171.732 144.011 171.732 145.06V170.83C171.732 171.879 170.881 172.73 169.831 172.73Z" fill="white" stroke="#263238" stroke-miterlimit="10" stroke-linecap="round" stroke-linejoin="round"/>
<path d="M128.23 155.981C127.249 155.981 126.453 155.185 126.453 154.204V149.402C126.453 148.421 127.249 147.625 128.23 147.625C129.211 147.625 130.007 148.421 130.007 149.402V154.204C130.007 155.185 129.211 155.981 128.23 155.981Z" fill="#263238" stroke="#263238" stroke-width="1.01" stroke-miterlimit="10" stroke-linecap="round" stroke-linejoin="round"/>
<path d="M129.431 149.258V152.235" stroke="white" stroke-width="1.01" stroke-miterlimit="10" stroke-linecap="round" stroke-linejoin="round"/>
<path d="M129.431 153.004V154.636" stroke="white" stroke-width="1.01" stroke-miterlimit="10" stroke-linecap="round" stroke-linejoin="round"/>
<path d="M136.009 155.981C135.028 155.981 134.232 155.185 134.232 154.204V149.402C134.232 148.421 135.028 147.625 136.009 147.625C136.99 147.625 137.786 148.421 137.786 149.402V154.204C137.786 155.185 136.99 155.981 136.009 155.981Z" fill="#263238" stroke="#263238" stroke-width="1.01" stroke-miterlimit="10" stroke-linecap="round" stroke-linejoin="round"/>
<path d="M137.209 149.258V152.235" stroke="white" stroke-width="1.01" stroke-miterlimit="10" stroke-linecap="round" stroke-linejoin="round"/>
<path d="M137.209 153.004V154.636" stroke="white" stroke-width="1.01" stroke-miterlimit="10" stroke-linecap="round" stroke-linejoin="round"/>
<path d="M143.788 155.981C142.807 155.981 142.011 155.185 142.011 154.204V149.402C142.011 148.421 142.807 147.625 143.788 147.625C144.769 147.625 145.565 148.421 145.565 149.402V154.204C145.565 155.185 144.769 155.981 143.788 155.981Z" fill="#263238" stroke="#263238" stroke-width="1.01" stroke-miterlimit="10" stroke-linecap="round" stroke-linejoin="round"/>
<path d="M144.989 149.258V152.235" stroke="white" stroke-width="1.01" stroke-miterlimit="10" stroke-linecap="round" stroke-linejoin="round"/>
<path d="M144.989 153.004V154.636" stroke="white" stroke-width="1.01" stroke-miterlimit="10" stroke-linecap="round" stroke-linejoin="round"/>
<path d="M151.567 155.981C150.586 155.981 149.791 155.185 149.791 154.204V149.402C149.791 148.421 150.586 147.625 151.567 147.625C152.549 147.625 153.344 148.421 153.344 149.402V154.204C153.344 155.185 152.549 155.981 151.567 155.981Z" fill="#263238" stroke="#263238" stroke-width="1.01" stroke-miterlimit="10" stroke-linecap="round" stroke-linejoin="round"/>
<path d="M152.768 149.258V152.235" stroke="white" stroke-width="1.01" stroke-miterlimit="10" stroke-linecap="round" stroke-linejoin="round"/>
<path d="M152.768 153.004V154.636" stroke="white" stroke-width="1.01" stroke-miterlimit="10" stroke-linecap="round" stroke-linejoin="round"/>
<path d="M159.346 155.981C158.365 155.981 157.569 155.185 157.569 154.204V149.402C157.569 148.421 158.365 147.625 159.346 147.625C160.327 147.625 161.123 148.421 161.123 149.402V154.204C161.123 155.185 160.327 155.981 159.346 155.981Z" fill="#263238" stroke="#263238" stroke-width="1.01" stroke-miterlimit="10" stroke-linecap="round" stroke-linejoin="round"/>
<path d="M160.547 149.258V152.235" stroke="white" stroke-width="1.01" stroke-miterlimit="10" stroke-linecap="round" stroke-linejoin="round"/>
<path d="M160.547 153.004V154.636" stroke="white" stroke-width="1.01" stroke-miterlimit="10" stroke-linecap="round" stroke-linejoin="round"/>
<path d="M167.125 155.981C166.144 155.981 165.349 155.185 165.349 154.204V149.402C165.349 148.421 166.144 147.625 167.125 147.625C168.107 147.625 168.902 148.421 168.902 149.402V154.204C168.902 155.185 168.107 155.981 167.125 155.981Z" fill="#263238" stroke="#263238" stroke-width="1.01" stroke-miterlimit="10" stroke-linecap="round" stroke-linejoin="round"/>
<path d="M168.326 149.258V152.235" stroke="white" stroke-width="1.01" stroke-miterlimit="10" stroke-linecap="round" stroke-linejoin="round"/>
<path d="M168.326 153.004V154.636" stroke="white" stroke-width="1.01" stroke-miterlimit="10" stroke-linecap="round" stroke-linejoin="round"/>
<path d="M128.23 168.754C127.249 168.754 126.453 167.958 126.453 166.977V162.175C126.453 161.194 127.249 160.398 128.23 160.398C129.211 160.398 130.007 161.194 130.007 162.175V166.977C130.007 167.958 129.211 168.754 128.23 168.754Z" fill="#263238" stroke="#263238" stroke-width="1.01" stroke-miterlimit="10" stroke-linecap="round" stroke-linejoin="round"/>
<path d="M129.431 162.031V165.008" stroke="white" stroke-width="1.01" stroke-miterlimit="10" stroke-linecap="round" stroke-linejoin="round"/>
<path d="M129.431 165.776V167.409" stroke="white" stroke-width="1.01" stroke-miterlimit="10" stroke-linecap="round" stroke-linejoin="round"/>
<path d="M136.009 168.754C135.028 168.754 134.232 167.958 134.232 166.977V162.175C134.232 161.194 135.028 160.398 136.009 160.398C136.99 160.398 137.786 161.194 137.786 162.175V166.977C137.786 167.958 136.99 168.754 136.009 168.754Z" fill="#263238" stroke="#263238" stroke-width="1.01" stroke-miterlimit="10" stroke-linecap="round" stroke-linejoin="round"/>
<path d="M137.209 162.031V165.008" stroke="white" stroke-width="1.01" stroke-miterlimit="10" stroke-linecap="round" stroke-linejoin="round"/>
<path d="M137.209 165.776V167.409" stroke="white" stroke-width="1.01" stroke-miterlimit="10" stroke-linecap="round" stroke-linejoin="round"/>
<path d="M143.788 168.754C142.807 168.754 142.011 167.958 142.011 166.977V162.175C142.011 161.194 142.807 160.398 143.788 160.398C144.769 160.398 145.565 161.194 145.565 162.175V166.977C145.565 167.958 144.769 168.754 143.788 168.754Z" fill="#263238" stroke="#263238" stroke-width="1.01" stroke-miterlimit="10" stroke-linecap="round" stroke-linejoin="round"/>
<path d="M144.989 162.031V165.008" stroke="white" stroke-width="1.01" stroke-miterlimit="10" stroke-linecap="round" stroke-linejoin="round"/>
<path d="M144.989 165.776V167.409" stroke="white" stroke-width="1.01" stroke-miterlimit="10" stroke-linecap="round" stroke-linejoin="round"/>
<path d="M151.567 168.754C150.586 168.754 149.791 167.958 149.791 166.977V162.175C149.791 161.194 150.586 160.398 151.567 160.398C152.549 160.398 153.344 161.194 153.344 162.175V166.977C153.344 167.958 152.549 168.754 151.567 168.754Z" fill="#263238" stroke="#263238" stroke-width="1.01" stroke-miterlimit="10" stroke-linecap="round" stroke-linejoin="round"/>
<path d="M152.768 162.031V165.008" stroke="white" stroke-width="1.01" stroke-miterlimit="10" stroke-linecap="round" stroke-linejoin="round"/>
<path d="M152.768 165.776V167.409" stroke="white" stroke-width="1.01" stroke-miterlimit="10" stroke-linecap="round" stroke-linejoin="round"/>
<path d="M159.346 168.754C158.365 168.754 157.569 167.958 157.569 166.977V162.175C157.569 161.194 158.365 160.398 159.346 160.398C160.327 160.398 161.123 161.194 161.123 162.175V166.977C161.123 167.958 160.327 168.754 159.346 168.754Z" fill="#263238" stroke="#263238" stroke-width="1.01" stroke-miterlimit="10" stroke-linecap="round" stroke-linejoin="round"/>
<path d="M160.547 162.031V165.008" stroke="white" stroke-width="1.01" stroke-miterlimit="10" stroke-linecap="round" stroke-linejoin="round"/>
<path d="M160.547 165.776V167.409" stroke="white" stroke-width="1.01" stroke-miterlimit="10" stroke-linecap="round" stroke-linejoin="round"/>
<path d="M167.125 168.754C166.144 168.754 165.349 167.958 165.349 166.977V162.175C165.349 161.194 166.144 160.398 167.125 160.398C168.107 160.398 168.902 161.194 168.902 162.175V166.977C168.902 167.958 168.107 168.754 167.125 168.754Z" fill="#263238" stroke="#263238" stroke-width="1.01" stroke-miterlimit="10" stroke-linecap="round" stroke-linejoin="round"/>
<path d="M168.326 162.031V165.008" stroke="white" stroke-width="1.01" stroke-miterlimit="10" stroke-linecap="round" stroke-linejoin="round"/>
<path d="M168.326 165.776V167.409" stroke="white" stroke-width="1.01" stroke-miterlimit="10" stroke-linecap="round" stroke-linejoin="round"/>
<path d="M132.164 144.696V145.696" stroke="#263238" stroke-width="0.5" stroke-linecap="round" stroke-linejoin="round"/>
<path d="M132.164 147.552V168.891" stroke="#263238" stroke-width="0.5" stroke-linecap="round" stroke-linejoin="round" stroke-dasharray="4.64 4.64"/>
<path d="M132.164 169.819V170.819" stroke="#263238" stroke-width="0.5" stroke-linecap="round" stroke-linejoin="round"/>
<path d="M139.943 144.696V145.696" stroke="#263238" stroke-width="0.5" stroke-linecap="round" stroke-linejoin="round"/>
<path d="M139.943 147.552V168.891" stroke="#263238" stroke-width="0.5" stroke-linecap="round" stroke-linejoin="round" stroke-dasharray="4.64 4.64"/>
<path d="M139.943 169.819V170.819" stroke="#263238" stroke-width="0.5" stroke-linecap="round" stroke-linejoin="round"/>
<path d="M147.722 144.696V145.696" stroke="#263238" stroke-width="0.5" stroke-linecap="round" stroke-linejoin="round"/>
<path d="M147.722 147.552V168.891" stroke="#263238" stroke-width="0.5" stroke-linecap="round" stroke-linejoin="round" stroke-dasharray="4.64 4.64"/>
<path d="M147.722 169.819V170.819" stroke="#263238" stroke-width="0.5" stroke-linecap="round" stroke-linejoin="round"/>
<path d="M155.501 144.696V145.696" stroke="#263238" stroke-width="0.5" stroke-linecap="round" stroke-linejoin="round"/>
<path d="M155.501 147.552V168.891" stroke="#263238" stroke-width="0.5" stroke-linecap="round" stroke-linejoin="round" stroke-dasharray="4.64 4.64"/>
<path d="M155.501 169.819V170.819" stroke="#263238" stroke-width="0.5" stroke-linecap="round" stroke-linejoin="round"/>
<path d="M163.281 144.696V145.696" stroke="#263238" stroke-width="0.5" stroke-linecap="round" stroke-linejoin="round"/>
<path d="M163.281 147.552V168.891" stroke="#263238" stroke-width="0.5" stroke-linecap="round" stroke-linejoin="round" stroke-dasharray="4.64 4.64"/>
<path d="M163.281 169.819V170.819" stroke="#263238" stroke-width="0.5" stroke-linecap="round" stroke-linejoin="round"/>
<path d="M124.865 157.95H170.291" stroke="#263238" stroke-width="0.5" stroke-miterlimit="10" stroke-linecap="round" stroke-linejoin="round" stroke-dasharray="5 5"/>
<path d="M168.295 147.251V140.722H157.734V147.251L155.209 150.722C154.853 151.212 154.661 151.802 154.661 152.407V172.598H171.367V152.407C171.367 151.802 171.175 151.212 170.819 150.722L168.295 147.251Z" fill="#263238" stroke="#263238" stroke-width="1.01" stroke-miterlimit="10" stroke-linecap="round" stroke-linejoin="round"/>
<path d="M168.301 137.726H157.778V138.858H168.301V137.726Z" fill="#263238" stroke="#263238" stroke-width="1.01" stroke-miterlimit="10" stroke-linecap="round" stroke-linejoin="round"/>
<path d="M169.831 135.152H156.198V138.051H169.831V135.152Z" fill="#B2D1D1" stroke="#263238" stroke-width="1.01" stroke-miterlimit="10" stroke-linecap="round" stroke-linejoin="round"/>
<path d="M169.323 138.802H156.706C156.425 138.802 156.198 139.029 156.198 139.31V140.598C156.198 140.878 156.425 141.106 156.706 141.106H169.323C169.604 141.106 169.831 140.878 169.831 140.598V139.31C169.831 139.029 169.604 138.802 169.323 138.802Z" fill="#263238" stroke="#263238" stroke-width="1.01" stroke-miterlimit="10" stroke-linecap="round" stroke-linejoin="round"/>
<path d="M165.454 153.643H154.654V167.093H165.454V153.643Z" fill="#B2D1D1" stroke="#263238" stroke-width="1.01" stroke-miterlimit="10" stroke-linecap="round" stroke-linejoin="round"/>
<path d="M32.1282 172.537H181.771" stroke="#263238" stroke-width="1.01" stroke-miterlimit="10" stroke-linecap="round" stroke-linejoin="round"/>
<path d="M23.9285 172.537H27.8853" stroke="#263238" stroke-width="1.01" stroke-miterlimit="10" stroke-linecap="round" stroke-linejoin="round"/>
<path d="M114.19 110.169C118.616 118.747 117.865 129.701 112.758 137.822C116.692 129.171 117.405 119.162 114.19 110.169Z" fill="#006466"/>
<path d="M114.348 77.2108C117.719 81.0878 118.489 86.934 116.556 91.6486C117.211 86.4451 116.663 81.9495 114.348 77.2108Z" fill="#006466"/>
<path d="M84.5117 70.6259C88.1444 66.9935 93.9229 65.8175 98.7606 67.4179C93.5237 67.1268 89.0773 67.9871 84.5117 70.6259Z" fill="#006466"/>
<path d="M86.2041 67.5425C87.1719 66.2123 89.0752 65.4751 90.6373 66.1095C89.045 66.3198 87.6602 66.8963 86.2041 67.5425Z" fill="#006466"/>
<path d="M17.2545 90.7069C16.737 95.9565 17.7906 100.361 20.2179 105.009C16.7621 101.264 15.4467 95.5151 17.2545 90.7069Z" fill="#006466"/>
<path d="M42.7379 73.2448C37.5608 72.2349 33.0766 72.8687 28.2205 74.8473C32.2746 71.76 38.1217 70.992 42.7379 73.2448Z" fill="#006466"/>
<path d="M37.0469 70.4235C35.4585 70.5448 33.9658 70.6936 32.4644 71.2636C33.539 69.9642 35.5639 69.7112 37.0469 70.4235Z" fill="#006466"/>
<path d="M61.4655 72.2823C60.3911 73.4586 59.4055 74.5893 58.7016 76.033C58.5953 74.35 59.8973 72.7788 61.4655 72.2823Z" fill="#006466"/>
<path d="M119.694 127.224C120.107 131.935 118.061 136.987 114.707 140.282C114.974 139.741 115.296 139.248 115.564 138.722C117.544 135.128 118.94 131.263 119.694 127.224Z" fill="#006466"/>
<path d="M27.2399 110.237C23.6072 119.071 23.8515 129.101 27.3764 137.927C22.6552 129.576 22.4171 118.599 27.2399 110.237Z" fill="#006466"/>
<path d="M22.3201 115.298C21.401 119.303 21.1394 123.404 21.5214 127.489C21.5571 128.078 21.6564 128.658 21.6848 129.261C19.9232 124.903 20.0624 119.453 22.3201 115.298Z" fill="#006466"/>
<path d="M96.4973 92.506L94.6074 91.0804L107.455 74.0474C107.849 73.5255 108.591 73.4218 109.113 73.8152C109.635 74.2088 109.739 74.9508 109.345 75.4727L96.4973 92.506Z" fill="#006466"/>
<path opacity="0.1" d="M95.0317 90.5189L96.7631 92.1542L96.4978 92.5063L94.6079 91.0807L95.0317 90.5189Z" fill="black"/>
<path opacity="0.1" d="M97.1772 91.6044L95.4458 89.9691L95.7112 89.6173L97.601 91.0429L97.1772 91.6044Z" fill="black"/>
<path d="M111.407 101.429L81.9312 79.1956C88.0711 71.0556 99.6472 69.4353 107.786 75.5744C115.926 81.7143 117.547 93.2895 111.407 101.429Z" fill="#006466"/>
<path opacity="0.5" d="M111.407 101.429L81.9312 79.1956C88.0711 71.0556 99.6472 69.4353 107.786 75.5744C115.926 81.7143 117.547 93.2895 111.407 101.429Z" fill="white"/>
<path opacity="0.5" d="M108.361 76.0705C101.441 71.7188 91.5056 74.2185 85.6409 81.9938L83.7959 80.6021C89.9359 72.4622 100.535 70.1048 107.469 75.335C107.779 75.5694 108.076 75.8145 108.361 76.0705Z" fill="white"/>
<path d="M38.2848 98.1545L39.866 96.3929L23.9891 82.1414C23.5026 81.7047 22.7545 81.7451 22.3177 82.2316C21.881 82.7181 21.9214 83.4662 22.408 83.903L38.2848 98.1545Z" fill="#006466"/>
<path opacity="0.1" d="M39.3422 95.9231L37.9568 97.8604L38.2848 98.1548L39.866 96.3932L39.3422 95.9231Z" fill="black"/>
<path opacity="0.1" d="M37.4449 97.4003L38.8303 95.463L38.5026 95.1686L36.9211 96.9301L37.4449 97.4003Z" fill="black"/>
<path d="M25.3638 109.773L50.0271 82.2969C42.4396 75.4862 30.7674 76.1168 23.9576 83.7032C17.1468 91.2907 17.7763 102.962 25.3638 109.773Z" fill="#006466"/>
<path opacity="0.5" d="M25.3638 109.773L50.0271 82.2969C42.4396 75.4862 30.7674 76.1168 23.9576 83.7032C17.1468 91.2907 17.7763 102.962 25.3638 109.773Z" fill="white"/>
<path opacity="0.5" d="M23.4885 84.3004C29.4457 78.7018 39.6759 79.2489 46.9234 85.7547L48.467 84.0348C40.8795 77.224 30.0248 76.9437 24.2231 83.4071C23.9633 83.6967 23.719 83.9943 23.4885 84.3004Z" fill="white"/>
<path d="M46.0979 159.517L43.6934 171.378L47.8266 170.977L54.8673 163.912L46.0979 159.517Z" fill="#006466"/>
<path opacity="0.1" d="M46.0979 159.517L43.6934 171.378L47.8266 170.977L54.8673 163.912L46.0979 159.517Z" fill="black"/>
<path d="M100.082 154.29L104.718 165.469L100.584 165.869L92.3193 160.286L100.082 154.29Z" fill="#006466"/>
<path opacity="0.1" d="M100.082 154.29L104.718 165.469L100.584 165.869L92.3193 160.286L100.082 154.29Z" fill="black"/>
<path d="M69.8455 76.2285L60.7922 77.1053L61.1624 80.9273L70.2157 80.0505L69.8455 76.2285Z" fill="#37474F"/>
<path d="M67.9073 80.2735L63.4705 80.7032L63.818 84.2917L68.2549 83.8619L67.9073 80.2735Z" fill="#37474F"/>
<path d="M67.9726 80.9235L63.5637 81.6435L63.4729 80.7064L67.9102 80.277L67.9726 80.9235Z" fill="#263238"/>
<path d="M100 155C116.569 138.431 116.569 111.569 100 95C83.4315 78.4315 56.5685 78.4315 40 95C23.4315 111.569 23.4315 138.431 40 155C56.5685 171.569 83.4315 171.569 100 155Z" fill="#006466"/>
<path opacity="0.1" d="M98.5589 152.934C114.369 137.124 114.369 111.491 98.5589 95.6815C82.7492 79.8718 57.1166 79.8718 41.3069 95.6815C25.4972 111.491 25.4972 137.124 41.3069 152.934C57.1166 168.743 82.7492 168.743 98.5589 152.934Z" fill="black"/>
<path d="M69.9836 162.66C90.8818 162.66 107.823 145.719 107.823 124.82C107.823 103.922 90.8818 86.9808 69.9836 86.9808C49.0854 86.9808 32.144 103.922 32.144 124.82C32.144 145.719 49.0854 162.66 69.9836 162.66Z" fill="white"/>
<g opacity="0.05">
<path d="M106.774 115.958L38.4867 145.801C36.9797 143.547 35.7093 141.117 34.7073 138.542L89.2392 92.2473C97.8449 97.3416 104.336 105.776 106.774 115.958Z" fill="black"/>
<path d="M107.824 124.426C107.86 127.509 107.518 130.52 106.845 133.418L43.2106 151.561C42.5451 150.898 41.9033 150.206 41.2905 149.493L107.824 124.426Z" fill="black"/>
</g>
<path d="M93.5937 96.8095L91.8351 98.9451L91.1831 98.4082L92.9417 96.2726C93.053 96.3563 93.1629 96.4468 93.2727 96.5373C93.3826 96.6278 93.4901 96.7163 93.5937 96.8095Z" fill="#263238"/>
<path d="M75.971 91.4887L75.1379 91.3478L75.5955 88.6115C75.8723 88.6513 76.152 88.6973 76.4259 88.7503L75.971 91.4887Z" fill="#263238"/>
<path d="M58.5007 92.9588L57.7122 93.2544L56.74 90.6542C57.001 90.5514 57.2643 90.4506 57.5285 90.3587L58.5007 92.9588Z" fill="#263238"/>
<path d="M44.1106 102.968L43.5737 103.62L41.4358 101.86C41.5196 101.748 41.6101 101.639 41.7006 101.529C41.7911 101.419 41.8796 101.311 41.9727 101.208L44.1106 102.968Z" fill="#263238"/>
<path d="M36.5111 119.663L33.7771 119.208C33.8146 118.929 33.8609 118.654 33.9118 118.378L36.6503 118.833L36.5111 119.663Z" fill="#263238"/>
<path d="M38.4204 137.091L35.8202 138.063C35.7156 137.805 35.6166 137.539 35.5247 137.275L38.1225 136.301L38.4204 137.091Z" fill="#263238"/>
<path d="M48.7835 151.228L47.0231 153.366C46.9118 153.282 46.8043 153.193 46.6945 153.103C46.5846 153.012 46.4748 152.922 46.3711 152.829L48.1315 150.691L48.7835 151.228Z" fill="#263238"/>
<path d="M64.3712 161.029C64.0944 160.989 63.8146 160.943 63.5408 160.89L63.996 158.151L64.8287 158.292L64.3712 161.029Z" fill="#263238"/>
<path d="M83.2269 158.986C82.966 159.089 82.7047 159.187 82.4381 159.277L81.4666 156.681L82.2551 156.386L83.2269 158.986Z" fill="#263238"/>
<path d="M98.2685 148.109C98.178 148.219 98.0878 148.329 97.9946 148.432L95.8567 146.672L96.3936 146.02L98.5315 147.781C98.4472 147.892 98.3587 147.999 98.2685 148.109Z" fill="#263238"/>
<path d="M106.055 131.263L103.317 130.807L103.456 129.977L106.194 130.432C106.154 130.709 106.106 130.987 106.055 131.263Z" fill="#263238"/>
<path d="M104.443 112.366L101.845 113.34L101.547 112.549L104.147 111.577C104.252 111.836 104.351 112.101 104.443 112.366Z" fill="#263238"/>
<path d="M102.442 128.923L67.9858 126.542L68.3845 122.966L102.55 127.952L102.442 128.923Z" fill="#006466"/>
<path d="M67.7706 99.0452L72.0511 126.756L68.4653 127.054L66.7966 99.1264L67.7706 99.0452Z" fill="#263238"/>
<path d="M59.6235 142.648L69.2837 122.398L72.4231 124.156L60.4762 143.126L59.6235 142.648Z" fill="#263238"/>
<path d="M71.2058 124.702C71.2711 125.377 70.777 125.977 70.1018 126.042C69.427 126.108 68.8265 125.614 68.7612 124.938C68.6958 124.263 69.19 123.663 69.8651 123.598C70.5403 123.532 71.1405 124.027 71.2058 124.702Z" fill="#006466"/>
<path d="M65.6477 90.6141L65.981 94.0573C65.9986 94.2383 65.8603 94.3929 65.6855 94.4099C65.5044 94.4275 65.3509 94.301 65.3334 94.1199L65.0554 91.2488L64.8348 91.4058C64.7856 91.446 64.7285 91.4633 64.6758 91.4682C64.5651 91.4791 64.4544 91.4307 64.3858 91.3314C64.2725 91.1952 64.3053 90.9858 64.4485 90.8836L65.1251 90.388C65.1304 90.3815 65.1421 90.3807 65.1474 90.3742C65.1591 90.373 65.1638 90.3607 65.1749 90.3537C65.1866 90.3525 65.1978 90.3458 65.2095 90.3446C65.2147 90.3382 65.2265 90.337 65.2323 90.3364C65.2435 90.3294 65.261 90.3276 65.2724 90.3268C65.2783 90.3262 65.2842 90.3256 65.29 90.325L65.2959 90.3244C65.3135 90.3227 65.3252 90.3215 65.3369 90.3206C65.3433 90.3259 65.355 90.3247 65.3609 90.3241C65.3785 90.3224 65.3849 90.3276 65.3972 90.3323C65.4031 90.3317 65.4145 90.3306 65.4212 90.3358C65.4397 90.3458 65.4461 90.3511 65.4579 90.3502C65.4643 90.3555 65.4707 90.3607 65.4831 90.3654C65.4892 90.3707 65.5018 90.3754 65.5079 90.3807C65.5202 90.3854 65.527 90.3965 65.5334 90.4018C65.5399 90.407 65.546 90.4123 65.5531 90.4234C65.5595 90.4287 65.5721 90.4392 65.5785 90.4445L65.5856 90.4556C65.5862 90.4615 65.5926 90.4668 65.5932 90.4726C65.6002 90.4838 65.6064 90.489 65.6075 90.5005C65.6146 90.5116 65.6157 90.5233 65.6222 90.5286C65.6234 90.5403 65.6304 90.5514 65.631 90.5573C65.6327 90.5749 65.6339 90.5866 65.6465 90.5971C65.6465 90.6027 65.6471 90.6083 65.6477 90.6141Z" fill="#263238"/>
<path d="M69.3594 93.7301C69.3769 93.9111 69.2504 94.0646 69.0697 94.0822L67.0038 94.2822C67.0038 94.2822 67.0038 94.2822 66.9979 94.2828L66.9921 94.2834C66.9045 94.2919 66.8078 94.2658 66.7425 94.2017C66.6069 94.0792 66.5993 93.8798 66.7158 93.7447L68.292 92.0136C68.4464 91.8455 68.5032 91.6399 68.4827 91.4296C68.4645 91.2427 68.3834 91.074 68.241 90.9404C68.0729 90.7858 67.8611 90.7298 67.6573 90.7494C67.4762 90.767 67.3014 90.8487 67.1681 90.9914L67.0029 91.1721C66.8805 91.3077 66.681 91.3153 66.5454 91.1929C66.4159 91.0699 66.4024 90.871 66.5246 90.7354L66.6898 90.5547C66.9285 90.284 67.2615 90.134 67.5943 90.1018C67.9736 90.0652 68.374 90.1853 68.6775 90.4624C68.9481 90.7011 69.0981 91.0341 69.1303 91.3669C69.1669 91.7462 69.0468 92.1466 68.77 92.4504L67.7636 93.5549L69.0067 93.4345C69.1877 93.417 69.3421 93.5494 69.3594 93.7301Z" fill="#263238"/>
<path d="M83.7323 93.2017L84.0656 96.6448C84.0832 96.8256 83.9447 96.9805 83.7698 96.9975C83.5888 97.0151 83.435 96.8885 83.4177 96.7075L83.1397 93.8364L82.9195 93.9931C82.8703 94.0333 82.8129 94.0505 82.7604 94.0555C82.6494 94.0664 82.5387 94.018 82.4702 93.9187C82.3571 93.7825 82.3896 93.5731 82.5328 93.4709L83.2095 92.9753C83.215 92.9688 83.2267 92.9679 83.2317 92.9615C83.2434 92.9603 83.2481 92.948 83.2593 92.941C83.271 92.9398 83.2821 92.9331 83.2935 92.9319C83.2988 92.9255 83.3105 92.9243 83.3164 92.9237C83.3275 92.9167 83.3451 92.9149 83.3568 92.9141C83.3626 92.9135 83.3682 92.9129 83.3744 92.9123L83.3802 92.9117C83.3978 92.9099 83.4095 92.9088 83.4212 92.9079C83.4277 92.9132 83.4394 92.912 83.445 92.9114C83.4628 92.9097 83.469 92.9149 83.4813 92.9196C83.4871 92.919 83.4989 92.9179 83.505 92.9231C83.5238 92.9331 83.5302 92.9384 83.5419 92.9372C83.5481 92.9425 83.5545 92.9477 83.5668 92.9524C83.5733 92.9577 83.5853 92.9624 83.592 92.9677C83.6043 92.9723 83.6113 92.9835 83.6175 92.9887C83.6239 92.994 83.6304 92.9993 83.6374 93.0104C83.6436 93.0157 83.6564 93.0262 83.6629 93.0315L83.6699 93.0426C83.6705 93.0485 83.6767 93.0538 83.6772 93.0596C83.684 93.0708 83.6907 93.076 83.6919 93.0875C83.6986 93.0986 83.6998 93.1103 83.7062 93.1156C83.7074 93.1273 83.7144 93.1384 83.715 93.1443C83.7168 93.1619 83.7179 93.1736 83.7308 93.1841C83.7311 93.1903 83.7317 93.1958 83.7323 93.2017Z" fill="#263238"/>
<path d="M49.9319 96.4744L50.2652 99.9175C50.2828 100.099 50.1445 100.253 49.9697 100.27C49.7886 100.288 49.6352 100.161 49.6176 99.9802L49.3396 97.1091L49.1191 97.2661C49.0698 97.3059 49.0127 97.3235 48.9603 97.3285C48.8496 97.3393 48.7389 97.291 48.6703 97.1917C48.557 97.0555 48.5895 96.8461 48.733 96.7438L49.4096 96.2482C49.4149 96.2418 49.4266 96.2409 49.4319 96.2345C49.4436 96.2333 49.4483 96.221 49.4594 96.214C49.4711 96.2128 49.4823 96.2061 49.494 96.2049C49.4993 96.1984 49.511 96.1973 49.5168 96.1967C49.528 96.1897 49.5455 96.1879 49.557 96.187C49.5628 96.1864 49.5687 96.1858 49.5745 96.1853L49.5804 96.1847C49.598 96.1829 49.6097 96.1817 49.6214 96.1806C49.6278 96.1858 49.6396 96.1847 49.6454 96.1841C49.663 96.1823 49.6694 96.1876 49.6817 96.1923C49.6876 96.1917 49.6993 96.1905 49.7058 96.1958C49.7242 96.2058 49.7307 96.211 49.7424 96.2099C49.7488 96.2151 49.7553 96.2204 49.7676 96.2251C49.7737 96.2304 49.786 96.2351 49.7925 96.2403C49.8048 96.245 49.8115 96.2561 49.8179 96.2614C49.8244 96.2667 49.8308 96.272 49.8376 96.2831C49.844 96.2884 49.8566 96.2989 49.863 96.3042L49.8701 96.3153C49.8707 96.3212 49.8771 96.3264 49.8777 96.3323C49.8847 96.3434 49.8909 96.3487 49.892 96.3601C49.8991 96.3713 49.9002 96.383 49.9067 96.3882C49.9079 96.4 49.9149 96.4111 49.9155 96.417C49.9172 96.4345 49.9184 96.4462 49.931 96.4568C49.931 96.4629 49.9313 96.4685 49.9319 96.4744Z" fill="#263238"/>
<path d="M51.8868 96.2851L52.2201 99.7283C52.2377 99.9093 52.0994 100.064 51.9246 100.081C51.7435 100.099 51.59 99.972 51.5725 99.791L51.2945 96.9199L51.0739 97.0766C51.0247 97.1167 50.9676 97.134 50.9149 97.139C50.8042 97.1498 50.6935 97.1015 50.6249 97.0022C50.5116 96.866 50.5441 96.6566 50.6876 96.5543L51.3642 96.0587C51.3695 96.0526 51.3812 96.0514 51.3865 96.045C51.3982 96.0438 51.4029 96.0315 51.414 96.0245C51.4257 96.0233 51.4369 96.0165 51.4486 96.0154C51.4538 96.0089 51.4656 96.0078 51.4714 96.0072C51.4825 96.0001 51.5001 95.9984 51.5116 95.9975C51.5174 95.9969 51.5233 95.9963 51.5291 95.9957L51.535 95.9952C51.5526 95.9934 51.5643 95.9922 51.576 95.9911C51.5824 95.9963 51.5942 95.9952 51.6 95.9946C51.6176 95.9928 51.624 95.9981 51.636 96.0028C51.6419 96.0022 51.6536 96.001 51.6601 96.0063C51.6785 96.0162 51.685 96.0215 51.6967 96.0204C51.7031 96.0256 51.7096 96.0309 51.7219 96.0356C51.728 96.0409 51.7403 96.0455 51.7468 96.0508C51.7591 96.0555 51.7661 96.0666 51.7722 96.0719C51.7787 96.0772 51.7851 96.0824 51.7919 96.0936C51.7983 96.0989 51.8109 96.1094 51.8173 96.1147L51.8244 96.1258C51.825 96.1317 51.8314 96.1369 51.832 96.1428C51.839 96.1539 51.8452 96.1592 51.8463 96.1706C51.8534 96.1817 51.8545 96.1935 51.861 96.1987C51.8622 96.2104 51.8692 96.2216 51.8698 96.2274C51.8715 96.245 51.8727 96.2567 51.8853 96.2673C51.8856 96.2737 51.8862 96.2793 51.8868 96.2851Z" fill="#263238"/>
<path d="M98.3758 107.521C98.3934 107.702 98.2668 107.856 98.0858 107.873L96.0199 108.073C96.0199 108.073 96.0199 108.073 96.0141 108.074L96.0079 108.074C95.9206 108.083 95.8237 108.057 95.7583 107.993C95.6227 107.87 95.6154 107.671 95.732 107.536L97.3078 105.805C97.4625 105.637 97.5193 105.431 97.4988 105.221C97.4807 105.034 97.3992 104.865 97.2569 104.731C97.0887 104.577 96.877 104.521 96.6728 104.541C96.4921 104.558 96.3172 104.64 96.1837 104.782L96.0185 104.963C95.896 105.099 95.6965 105.106 95.5612 104.984C95.4315 104.861 95.418 104.662 95.5404 104.526L95.7056 104.345C95.9446 104.075 96.2777 103.925 96.6101 103.893C96.9897 103.856 97.3899 103.976 97.6936 104.253C97.964 104.492 98.1142 104.825 98.1464 105.158C98.1831 105.537 98.0627 105.937 97.7859 106.241L96.7794 107.346L98.0225 107.225C98.2041 107.208 98.3582 107.34 98.3758 107.521Z" fill="#263238"/>
<path d="M38.8108 109.813L39.1441 113.256C39.1617 113.437 39.0234 113.592 38.8485 113.609C38.6675 113.627 38.514 113.5 38.4965 113.319L38.2185 110.448L37.9979 110.605C37.9487 110.645 37.8916 110.662 37.8389 110.667C37.7282 110.678 37.6174 110.63 37.5489 110.531C37.4355 110.394 37.4683 110.185 37.6116 110.083L38.2882 109.587C38.2935 109.581 38.3052 109.58 38.3105 109.573C38.3222 109.572 38.3269 109.56 38.338 109.553C38.3497 109.552 38.3608 109.545 38.3726 109.544C38.3778 109.537 38.3895 109.536 38.3954 109.536C38.4065 109.528 38.4241 109.527 38.4355 109.526C38.4414 109.525 38.4473 109.525 38.4531 109.524L38.459 109.524C38.4765 109.522 38.4883 109.521 38.5 109.519C38.5064 109.525 38.5181 109.524 38.524 109.523C38.5416 109.521 38.548 109.526 38.5603 109.531C38.5662 109.531 38.5779 109.529 38.5843 109.535C38.6028 109.545 38.6092 109.55 38.6209 109.549C38.6274 109.554 38.6338 109.559 38.6461 109.564C38.6523 109.569 38.6646 109.574 38.671 109.579C38.683 109.584 38.6901 109.595 38.6965 109.6C38.703 109.606 38.7094 109.611 38.7161 109.622C38.7226 109.627 38.7352 109.638 38.7416 109.643L38.7487 109.654C38.7492 109.66 38.7557 109.665 38.7563 109.671C38.7633 109.682 38.7695 109.688 38.7706 109.699C38.7777 109.71 38.7788 109.722 38.7853 109.727C38.7864 109.739 38.7935 109.75 38.7941 109.756C38.7958 109.773 38.797 109.785 38.8096 109.796C38.8099 109.801 38.8105 109.807 38.8108 109.813Z" fill="#263238"/>
<path d="M39.7184 111.463C39.6725 110.926 39.7597 110.428 39.9803 110.03C40.1894 109.633 40.5421 109.322 41.0031 109.277C41.4525 109.234 41.8643 109.47 42.1455 109.82C42.4325 110.169 42.6194 110.64 42.6716 111.177C42.7231 111.708 42.6303 112.212 42.4156 112.61C42.2061 113.001 41.8479 113.319 41.3986 113.362C40.9375 113.407 40.531 113.163 40.2504 112.82C39.9575 112.471 39.7756 111.994 39.7184 111.463ZM42.0236 111.24C41.9829 110.82 41.8306 110.463 41.6432 110.228C41.4501 109.999 41.2463 109.901 41.0658 109.925C40.8842 109.937 40.6974 110.072 40.5459 110.335C40.4068 110.601 40.3256 110.98 40.3664 111.4C40.4065 111.815 40.5594 112.177 40.7466 112.406C40.9457 112.64 41.1552 112.732 41.3359 112.714C41.5169 112.697 41.6988 112.567 41.8438 112.3C41.9832 112.039 42.0635 111.654 42.0236 111.24Z" fill="#263238"/>
<path d="M35.9754 127.535C35.8999 126.753 36.4748 126.061 37.2566 125.986C37.9921 125.915 38.6468 126.411 38.7859 127.116C38.7865 127.122 38.7865 127.122 38.7926 127.127C38.8093 127.238 38.8257 127.348 38.8366 127.459C38.8744 127.85 38.8568 128.276 38.7481 128.675C38.6394 129.074 38.4359 129.465 38.092 129.746C37.8626 129.933 37.5747 130.061 37.2431 130.105C37.0627 130.128 36.9039 130.008 36.8747 129.828C36.8521 129.654 36.9778 129.494 37.157 129.459C37.3782 129.432 37.5472 129.351 37.6898 129.243C37.826 129.129 37.9356 128.983 38.0179 128.799C38.0425 128.749 38.0607 128.694 38.0791 128.64C37.9174 128.732 37.7288 128.791 37.5302 128.81C36.7481 128.886 36.051 128.317 35.9754 127.535ZM36.623 127.472C36.6638 127.892 37.0419 128.209 37.4681 128.168C37.894 128.127 38.1986 127.744 38.1582 127.324C38.1169 126.898 37.7455 126.592 37.3196 126.633C36.8931 126.675 36.5817 127.047 36.623 127.472Z" fill="#263238"/>
<path d="M103.474 121.194C103.787 121.446 103.963 121.806 103.999 122.174C104.035 122.542 103.931 122.929 103.672 123.243C103.419 123.55 103.06 123.732 102.687 123.768C102.319 123.804 101.931 123.694 101.624 123.441C101.483 123.325 101.463 123.115 101.579 122.974C101.695 122.833 101.905 122.813 102.046 122.929C102.212 123.066 102.418 123.122 102.622 123.102C102.827 123.083 103.018 122.988 103.16 122.821C103.303 122.648 103.36 122.442 103.34 122.238C103.32 122.033 103.225 121.842 103.052 121.706C102.885 121.563 102.68 121.512 102.475 121.526C102.383 121.541 102.291 121.508 102.226 121.444C102.22 121.445 102.22 121.445 102.22 121.439C102.073 121.323 102.053 121.119 102.163 120.973L102.699 120.308L101.754 120.4C101.573 120.418 101.413 120.286 101.395 120.099C101.378 119.918 101.509 119.758 101.69 119.74L103.412 119.574C103.598 119.556 103.759 119.687 103.776 119.868C103.781 119.927 103.769 119.981 103.75 120.03C103.735 120.061 103.721 120.092 103.7 120.117L103.038 120.947C103.196 121.003 103.345 121.083 103.474 121.194Z" fill="#263238"/>
<path d="M101.331 139.214C101.349 139.395 101.217 139.549 101.036 139.567L100.978 139.572L101.021 140.016C101.038 140.196 100.911 140.35 100.731 140.368C100.55 140.385 100.396 140.259 100.379 140.078L100.336 139.635L98.509 139.812L98.5031 139.812L98.4972 139.813C98.427 139.819 98.3552 139.809 98.2919 139.762C98.1355 139.665 98.0986 139.468 98.1961 139.317L100.095 136.424C100.101 136.423 100.101 136.418 100.106 136.411C100.111 136.405 100.116 136.398 100.121 136.386C100.138 136.379 100.143 136.372 100.149 136.366C100.154 136.359 100.165 136.352 100.17 136.346C100.181 136.339 100.187 136.333 100.204 136.331C100.209 136.319 100.214 136.312 100.226 136.311C100.231 136.305 100.243 136.304 100.259 136.296C100.265 136.296 100.277 136.295 100.282 136.288C100.294 136.287 100.312 136.285 100.323 136.285C100.323 136.285 100.329 136.284 100.335 136.283C100.341 136.283 100.341 136.283 100.346 136.282C100.358 136.281 100.376 136.279 100.381 136.279C100.394 136.283 100.399 136.283 100.411 136.282C100.418 136.287 100.435 136.285 100.447 136.29C100.453 136.289 100.465 136.294 100.471 136.293C100.484 136.304 100.496 136.309 100.503 136.314C100.515 136.319 100.521 136.324 100.533 136.329C100.533 136.329 100.539 136.328 100.539 136.334C100.546 136.333 100.558 136.338 100.558 136.344C100.571 136.354 100.578 136.36 100.584 136.365C100.59 136.37 100.597 136.381 100.604 136.386C100.61 136.392 100.616 136.397 100.63 136.413C100.631 136.419 100.637 136.43 100.644 136.436C100.651 136.447 100.651 136.453 100.659 136.469C100.66 136.475 100.667 136.486 100.667 136.492C100.674 136.503 100.674 136.509 100.676 136.527C100.677 136.538 100.684 136.544 100.685 136.555C100.686 136.561 100.686 136.567 100.687 136.573L100.915 138.931L100.973 138.925C101.155 138.907 101.315 139.039 101.331 139.214ZM100.134 137.551L99.1124 139.105L100.274 138.993L100.134 137.551Z" fill="#263238"/>
<path d="M44.8889 144.373C44.963 145.137 44.3988 145.822 43.6343 145.896C42.864 145.971 42.1733 145.407 42.0992 144.643C42.0523 144.159 42.2562 143.709 42.6112 143.421C42.4732 143.275 42.3836 143.078 42.3625 142.862C42.3115 142.336 42.7017 141.863 43.2386 141.811C43.7641 141.76 44.2377 142.15 44.2884 142.676C44.3092 142.891 44.2591 143.103 44.1516 143.272C44.5497 143.487 44.842 143.889 44.8889 144.373ZM44.2527 144.434C44.2125 144.02 43.8408 143.708 43.4264 143.749C43.0063 143.789 42.7011 144.166 42.7354 144.581C42.7814 144.995 43.1525 145.301 43.5728 145.26C43.987 145.22 44.2928 144.849 44.2527 144.434ZM42.999 142.8C43.0166 142.981 43.1771 143.119 43.3637 143.101C43.5388 143.084 43.6701 142.918 43.6525 142.737C43.6355 142.562 43.4756 142.43 43.3004 142.447C43.1135 142.465 42.982 142.625 42.999 142.8Z" fill="#263238"/>
<path d="M89.7695 151.333C90.0826 151.585 90.2587 151.945 90.2947 152.319C90.3304 152.686 90.2206 153.074 89.9678 153.381C89.7153 153.694 89.3553 153.87 88.9877 153.906C88.976 153.907 88.976 153.907 88.976 153.907C88.6143 153.942 88.2215 153.839 87.9192 153.579C87.7731 153.47 87.7528 153.26 87.8741 153.113C87.9845 152.973 88.2001 152.951 88.3413 153.067C88.5083 153.21 88.7139 153.267 88.9239 153.247C89.1222 153.227 89.3193 153.132 89.4558 152.959C89.5929 152.793 89.655 152.581 89.6357 152.382C89.6152 152.172 89.5203 151.981 89.348 151.845C89.1811 151.702 88.976 151.651 88.7716 151.671C88.5733 151.69 88.37 151.78 88.2335 151.953C88.1175 152.093 87.9075 152.114 87.7663 151.998C87.7408 151.976 87.7206 151.949 87.6948 151.928C87.6937 151.916 87.6931 151.91 87.6875 151.911C87.6863 151.899 87.6793 151.888 87.6729 151.883C87.6711 151.865 87.6644 151.854 87.6632 151.843C87.6626 151.836 87.6568 151.837 87.6562 151.831C87.6471 151.797 87.6436 151.762 87.6465 151.732L87.6752 150.204C87.6831 150.103 87.7279 150.016 87.7985 149.956C87.8094 149.949 87.8155 149.949 87.8205 149.942C87.8258 149.935 87.8316 149.935 87.8369 149.929C87.8814 149.901 87.9271 149.885 87.9854 149.879L89.7068 149.712C89.8934 149.694 90.0536 149.826 90.0715 150.013C90.0885 150.188 89.9573 150.354 89.7707 150.372L88.3351 150.511L88.3211 151.095C88.4462 151.048 88.5788 151.017 88.7068 151.005C89.0745 150.97 89.4614 151.074 89.7695 151.333Z" fill="#263238"/>
<path d="M57.6918 153.26L56.5667 156.851C56.5318 156.978 56.422 157.06 56.2878 157.072C56.2527 157.076 56.2055 157.075 56.1631 157.061C55.9923 157.001 55.8983 156.821 55.9475 156.658L56.9182 153.542L55.4123 153.688C55.2372 153.705 55.0767 153.567 55.0597 153.392C55.0421 153.211 55.1745 153.057 55.3497 153.04L57.3514 152.846C57.369 152.844 57.3866 152.843 57.4103 152.846C57.4516 152.848 57.4949 152.867 57.5374 152.881C57.5438 152.886 57.5503 152.891 57.5564 152.897C57.5687 152.902 57.5752 152.907 57.5822 152.918C57.589 152.929 57.6013 152.934 57.6077 152.939C57.6147 152.95 57.6209 152.955 57.6273 152.96C57.6338 152.966 57.6414 152.983 57.642 152.988C57.6487 153 57.6552 153.005 57.668 153.015C57.6686 153.021 57.6762 153.038 57.6768 153.044C57.6836 153.055 57.6841 153.061 57.6912 153.072C57.7008 153.112 57.7055 153.159 57.7035 153.2C57.7 153.224 57.6959 153.242 57.6918 153.26Z" fill="#263238"/>
<path d="M74.633 157.894C74.7088 158.676 74.1336 159.368 73.3515 159.444C72.616 159.515 71.9613 159.019 71.8222 158.313C71.8216 158.308 71.8216 158.308 71.8155 158.302C71.7988 158.192 71.7824 158.082 71.7715 157.971C71.7337 157.58 71.7513 157.154 71.86 156.755C71.9687 156.355 72.1722 155.965 72.5161 155.684C72.7455 155.497 73.0334 155.369 73.365 155.325C73.5454 155.302 73.7042 155.422 73.7335 155.601C73.756 155.776 73.6303 155.935 73.4511 155.97C73.2299 155.998 73.0609 156.079 72.9183 156.187C72.7821 156.3 72.6725 156.446 72.5902 156.631C72.5656 156.681 72.5472 156.735 72.529 156.79C72.6907 156.698 72.8793 156.638 73.0779 156.619C73.86 156.543 74.5574 157.112 74.633 157.894ZM73.9851 157.957C73.9443 157.537 73.5662 157.22 73.1403 157.261C72.7144 157.302 72.4095 157.685 72.4502 158.105C72.4915 158.531 72.8629 158.837 73.2888 158.796C73.7147 158.755 74.0264 158.383 73.9851 157.957Z" fill="#263238"/>
<path d="M12.1557 106.102C12.1557 106.102 11.5241 104.277 8.08491 102.606C4.64531 100.935 2.49731 100.043 2.49731 100.043C2.49731 100.043 2.67251 104.683 5.92931 106.417C9.18611 108.151 13.2925 109.387 13.2925 109.387L12.1557 106.102Z" fill="#B2D1D1"/>
<path d="M12.3916 118.784C12.3916 118.784 11.76 116.958 8.32084 115.287C4.88164 113.616 2.73364 112.724 2.73364 112.724C2.73364 112.724 2.90844 117.364 6.16564 119.099C9.42244 120.833 13.5288 122.069 13.5288 122.069L12.3916 118.784Z" fill="#B2D1D1"/>
<path d="M13.0708 109.266C13.0708 109.266 12.6356 107.384 14.6608 104.141C16.686 100.897 18.0312 99 18.0312 99C18.0312 99 20.3492 103.023 18.5124 106.223C16.6756 109.423 13.854 112.653 13.854 112.653L13.0708 109.266Z" fill="#B2D1D1"/>
<path d="M13.249 124.278C13.249 124.278 13.0138 122.361 15.3686 119.348C17.7234 116.335 19.2602 114.59 19.2602 114.59C19.2602 114.59 21.143 118.834 18.9798 121.824C16.817 124.813 13.6718 127.728 13.6718 127.728L13.249 124.278Z" fill="#B2D1D1"/>
<path d="M19.17 138.664C19.17 138.664 18.5384 136.838 20.2096 133.399C21.8808 129.959 23.018 127.931 23.018 127.931C23.018 127.931 25.748 131.686 24.2596 135.063C22.7712 138.439 20.3068 141.949 20.3068 141.949L19.17 138.664Z" fill="#B2D1D1"/>
<path d="M20.3668 142.261C20.3668 142.261 20.0012 140.364 16.834 138.222C13.6668 136.079 11.6676 134.891 11.6676 134.891C11.6676 134.891 11.1816 139.508 14.1588 141.688C17.136 143.867 21.0252 145.674 21.0252 145.674L20.3668 142.261Z" fill="#B2D1D1"/>
<path d="M21.5213 153.75C21.5213 153.75 20.8897 151.925 22.5609 148.486C24.2321 145.046 25.3693 143.018 25.3693 143.018C25.3693 143.018 28.0997 146.773 26.6109 150.15C25.1225 153.526 22.6581 157.036 22.6581 157.036L21.5213 153.75Z" fill="#B2D1D1"/>
<path d="M26.5584 162.786C26.5584 162.786 25.4852 161.18 26.2308 157.429C26.9764 153.679 27.5628 151.428 27.5628 151.428C27.5628 151.428 31.1552 154.37 30.5704 158.013C29.9856 161.656 28.4904 165.676 28.4904 165.676L26.5584 162.786Z" fill="#B2D1D1"/>
<path d="M12.2258 105.554C12.7514 107.557 13.2282 109.652 13.487 111.463C14.2826 117.032 12.9226 121.272 13.5438 126.336C14.1646 131.399 19.1658 136.468 20.4842 142.791C21.8026 149.114 20.611 153.297 22.6826 157.104C24.7542 160.911 32.0758 170.63 32.0758 170.63" stroke="#263238" stroke-width="0.5" stroke-miterlimit="10" stroke-linecap="round" stroke-linejoin="round"/>
<path d="M13.4653 110.488L15.4877 107.422" stroke="#263238" stroke-width="0.5" stroke-miterlimit="10" stroke-linecap="round" stroke-linejoin="round"/>
<path d="M12.7516 108.01L10.8896 106.36" stroke="#263238" stroke-width="0.5" stroke-miterlimit="10" stroke-linecap="round" stroke-linejoin="round"/>
<path d="M13.6213 126.066C13.6213 126.066 15.3285 123.539 17.0997 120.99" stroke="#263238" stroke-width="0.5" stroke-miterlimit="10" stroke-linecap="round" stroke-linejoin="round"/>
<path d="M13.5285 122.069C13.5285 122.069 10.3045 118.968 7.26294 117.224" stroke="#263238" stroke-width="0.5" stroke-miterlimit="10" stroke-linecap="round" stroke-linejoin="round"/>
<path d="M20.1589 141.229C20.1589 141.229 20.7333 137.086 22.8073 132.926" stroke="#263238" stroke-width="0.5" stroke-miterlimit="10" stroke-linecap="round" stroke-linejoin="round"/>
<path d="M20.597 143.946C20.597 143.946 18.4914 141.591 16.4598 140.071C14.4278 138.551 14.147 138.361 14.147 138.361" stroke="#263238" stroke-width="0.5" stroke-miterlimit="10" stroke-linecap="round" stroke-linejoin="round"/>
<path d="M22.6821 157.104C22.6821 157.104 22.7953 154.443 23.3053 152.187C23.8153 149.931 24.7761 147.734 24.7761 147.734" stroke="#263238" stroke-width="0.5" stroke-miterlimit="10" stroke-linecap="round" stroke-linejoin="round"/>
<path d="M28.4901 165.676C28.4901 165.676 27.4641 163.584 27.7817 161.394C28.0997 159.204 28.3461 156.394 28.4621 155.279" stroke="#263238" stroke-width="0.5" stroke-miterlimit="10" stroke-linecap="round" stroke-linejoin="round"/>
<path d="M3.86028 136.275C3.86028 136.275 3.26588 135.199 3.94068 132.861C4.61508 130.523 5.10828 129.127 5.10828 129.127C5.10828 129.127 7.22788 131.186 6.66108 133.465C6.09428 135.744 4.92988 138.212 4.92988 138.212L3.86028 136.275Z" fill="#B2D1D1"/>
<path d="M9.75757 141.788C9.75757 141.788 9.16357 140.712 9.83797 138.373C10.5124 136.035 11.0056 134.64 11.0056 134.64C11.0056 134.64 13.1256 136.698 12.5584 138.977C11.9916 141.256 10.8272 143.724 10.8272 143.724L9.75757 141.788Z" fill="#B2D1D1"/>
<path d="M4.9672 138.056C4.9672 138.056 4.2628 137.048 1.8664 136.625C-0.53 136.201 -2 136.03 -2 136.03C-2 136.03 -1.0844 138.839 1.2112 139.334C3.5068 139.828 6.2356 139.869 6.2356 139.869L4.9672 138.056Z" fill="#B2D1D1"/>
<path d="M11.9905 144.533C11.9905 144.533 11.1841 143.605 8.75648 143.436C6.32888 143.266 4.84888 143.25 4.84888 143.25C4.84888 143.25 6.05448 145.948 8.38928 146.198C10.7241 146.448 13.4421 146.202 13.4421 146.202L11.9905 144.533Z" fill="#B2D1D1"/>
<path d="M16.2725 153.46C16.2725 153.46 15.6785 152.384 13.3401 151.709C11.0017 151.035 9.55811 150.709 9.55811 150.709C9.55811 150.709 10.1713 153.6 12.4021 154.333C14.6325 155.067 17.3421 155.396 17.3421 155.396L16.2725 153.46Z" fill="#B2D1D1"/>
<path d="M17.4635 155.558C17.4635 155.558 16.7223 154.577 17.0579 152.167C17.3931 149.756 17.6831 148.305 17.6831 148.305C17.6831 148.305 20.0739 150.042 19.8367 152.378C19.5995 154.714 18.7975 157.323 18.7975 157.323L17.4635 155.558Z" fill="#B2D1D1"/>
<path d="M23.8657 163.68C23.8657 163.68 23.5989 162.48 24.9049 160.427C26.2113 158.374 27.0773 157.174 27.0773 157.174C27.0773 157.174 28.5309 159.746 27.3445 161.773C26.1585 163.8 24.3453 165.84 24.3453 165.84L23.8657 163.68Z" fill="#B2D1D1"/>
<path d="M22.4056 160.996C22.4056 160.996 21.8116 159.92 19.4732 159.246C17.1352 158.572 15.6912 158.246 15.6912 158.246C15.6912 158.246 16.3048 161.136 18.5352 161.87C20.7656 162.604 23.4752 162.933 23.4752 162.933L22.4056 160.996Z" fill="#B2D1D1"/>
<path d="M24.5331 167.226C24.5331 167.226 24.2307 166.035 22.1395 164.79C20.0483 163.546 18.7343 162.865 18.7343 162.865C18.7343 162.865 18.5955 165.816 20.5675 167.092C22.5395 168.366 25.0771 169.371 25.0771 169.371L24.5331 167.226Z" fill="#B2D1D1"/>
<path d="M3.57153 136.075C4.29473 137.176 5.08273 138.294 5.82913 139.188C8.12353 141.935 10.7083 143.098 12.8383 145.548C14.9683 147.998 15.2359 152.522 17.6647 155.838C20.0935 159.155 22.5791 160.372 23.4975 162.973C24.4159 165.574 25.8939 173.176 25.8939 173.176" stroke="#263238" stroke-width="0.5" stroke-miterlimit="10" stroke-linecap="round" stroke-linejoin="round"/>
<path d="M5.37688 138.762L3.06567 138.413" stroke="#263238" stroke-width="0.5" stroke-miterlimit="10" stroke-linecap="round" stroke-linejoin="round"/>
<path d="M4.50928 137.37L4.52168 135.786" stroke="#263238" stroke-width="0.5" stroke-miterlimit="10" stroke-linecap="round" stroke-linejoin="round"/>
<path d="M12.6775 145.47C12.6775 145.47 10.7555 145.202 8.7959 144.954" stroke="#263238" stroke-width="0.5" stroke-miterlimit="10" stroke-linecap="round" stroke-linejoin="round"/>
<path d="M10.8272 143.724C10.8272 143.724 10.7332 140.879 11.204 138.698" stroke="#263238" stroke-width="0.5" stroke-miterlimit="10" stroke-linecap="round" stroke-linejoin="round"/>
<path d="M17.0644 155.02C17.0644 155.02 14.8608 153.527 12.01 152.736" stroke="#263238" stroke-width="0.5" stroke-miterlimit="10" stroke-linecap="round" stroke-linejoin="round"/>
<path d="M18.1624 156.384C18.1624 156.384 17.9456 154.385 18.092 152.777C18.2384 151.169 18.2684 150.955 18.2684 150.955" stroke="#263238" stroke-width="0.5" stroke-miterlimit="10" stroke-linecap="round" stroke-linejoin="round"/>
<path d="M24.0928 164.982C24.0928 164.982 24.8396 162.944 25.4408 162.07C26.042 161.196 26.396 160.409 26.396 160.409" stroke="#263238" stroke-width="0.5" stroke-miterlimit="10" stroke-linecap="round" stroke-linejoin="round"/>
<path d="M23.4973 162.974C23.4973 162.974 22.1905 161.894 20.9065 161.174C19.6225 160.455 18.1741 159.974 18.1741 159.974" stroke="#263238" stroke-width="0.5" stroke-miterlimit="10" stroke-linecap="round" stroke-linejoin="round"/>
<path d="M25.0773 169.371C25.0773 169.371 24.5249 167.994 23.3541 167.212C22.1833 166.43 20.7493 165.35 20.1721 164.93" stroke="#263238" stroke-width="0.5" stroke-miterlimit="10" stroke-linecap="round" stroke-linejoin="round"/>
</g>
<defs>
<clipPath id="clip0_1182_18851">
<rect width="200" height="200" fill="white"/>
</clipPath>
</defs>
</svg>
