<svg width="32" height="32" viewBox="0 0 32 32" fill="none" xmlns="http://www.w3.org/2000/svg">
<rect width="32" height="32" rx="8" fill="#C4DCDC"/>
<path d="M6.25 20.75L11.409 15.591C11.6179 15.3821 11.866 15.2163 12.139 15.1033C12.4119 14.9902 12.7045 14.932 13 14.932C13.2955 14.932 13.5881 14.9902 13.861 15.1033C14.134 15.2163 14.3821 15.3821 14.591 15.591L19.75 20.75M18.25 19.25L19.659 17.841C19.8679 17.6321 20.116 17.4663 20.389 17.3533C20.6619 17.2402 20.9545 17.182 21.25 17.182C21.5455 17.182 21.8381 17.2402 22.111 17.3533C22.384 17.4663 22.6321 17.6321 22.841 17.841L25.75 20.75M7.75 24.5H24.25C24.6478 24.5 25.0294 24.342 25.3107 24.0607C25.592 23.7794 25.75 23.3978 25.75 23V11C25.75 10.6022 25.592 10.2206 25.3107 9.93934C25.0294 9.65804 24.6478 9.5 24.25 9.5H7.75C7.35218 9.5 6.97064 9.65804 6.68934 9.93934C6.40804 10.2206 6.25 10.6022 6.25 11V23C6.25 23.3978 6.40804 23.7794 6.68934 24.0607C6.97064 24.342 7.35218 24.5 7.75 24.5ZM18.25 13.25H18.258V13.258H18.25V13.25ZM18.625 13.25C18.625 13.3495 18.5855 13.4448 18.5152 13.5152C18.4448 13.5855 18.3495 13.625 18.25 13.625C18.1505 13.625 18.0552 13.5855 17.9848 13.5152C17.9145 13.4448 17.875 13.3495 17.875 13.25C17.875 13.1505 17.9145 13.0552 17.9848 12.9848C18.0552 12.9145 18.1505 12.875 18.25 12.875C18.3495 12.875 18.4448 12.9145 18.5152 12.9848C18.5855 13.0552 18.625 13.1505 18.625 13.25Z" stroke="#0E4041" stroke-width="1.5" stroke-linecap="round" stroke-linejoin="round"/>
</svg>
