<svg width="100" height="60" viewBox="0 0 100 60" fill="none" xmlns="http://www.w3.org/2000/svg">
<g clip-path="url(#clip0_3272_3098)">
<path d="M93.2378 38.0195L93.0157 47.7599L92.7407 59.8384H83.3799L83.0576 45.687L82.8828 38.0195H93.2378Z" fill="#E6E6E6"/>
<path d="M88.6816 32.8374H87.3562V52.1108H88.6816V32.8374Z" fill="#006466"/>
<path d="M92.575 45.3589L92.3243 59.2031H83.792L83.4983 42.9831C84.267 42.7461 85.0719 42.6855 85.8629 42.8049C86.6539 42.9243 87.414 43.2212 88.0959 43.6771C89.5215 44.6024 91.123 45.1005 92.575 45.3589Z" fill="#3F3D56"/>
<path d="M85.9044 46.9172H84.6882V48.252H85.9044V46.9172Z" fill="#E6E6E6"/>
<path d="M86.7328 44.1899H85.5166V45.5247H86.7328V44.1899Z" fill="#E6E6E6"/>
<path d="M89.3443 46.0781L88.3674 45.283L87.6429 46.355L88.6198 47.1501L89.3443 46.0781Z" fill="#E6E6E6"/>
<path d="M91.5418 48.443L90.5649 47.6479L89.8404 48.72L90.8173 49.5151L91.5418 48.443Z" fill="#E6E6E6"/>
<path d="M87.814 49.8066L86.8372 49.0115L86.1127 50.0835L87.0895 50.8786L87.814 49.8066Z" fill="#E6E6E6"/>
<path d="M90.6699 43.6561C90.8072 43.6561 90.9184 43.534 90.9184 43.3833C90.9184 43.2327 90.8072 43.1106 90.6699 43.1106C90.5327 43.1106 90.4214 43.2327 90.4214 43.3833C90.4214 43.534 90.5327 43.6561 90.6699 43.6561Z" fill="#3F3D56"/>
<path d="M85.6167 41.8377C85.7539 41.8377 85.8652 41.7156 85.8652 41.565C85.8652 41.4143 85.7539 41.2922 85.6167 41.2922C85.4794 41.2922 85.3682 41.4143 85.3682 41.565C85.3682 41.7156 85.4794 41.8377 85.6167 41.8377Z" fill="#3F3D56"/>
<path d="M89.8413 39.9285C89.9785 39.9285 90.0898 39.8064 90.0898 39.6558C90.0898 39.5052 89.9785 39.3831 89.8413 39.3831C89.704 39.3831 89.5928 39.5052 89.5928 39.6558C89.5928 39.8064 89.704 39.9285 89.8413 39.9285Z" fill="#3F3D56"/>
<path d="M50.0573 59.7552C65.093 59.7552 77.2819 46.3785 77.2819 29.8776C77.2819 13.3767 65.093 0 50.0573 0C35.0216 0 22.8328 13.3767 22.8328 29.8776C22.8328 46.3785 35.0216 59.7552 50.0573 59.7552Z" fill="#006466"/>
<path opacity="0.2" d="M50.0571 51.6853C45.4598 51.6853 41.0047 49.9359 37.451 46.7351C33.8973 43.5344 31.4647 39.0804 30.5679 34.132C29.671 29.1837 30.3653 24.0471 32.5325 19.5976C34.6996 15.148 38.2056 11.6608 42.4529 9.73005C46.7003 7.79932 51.4262 7.54453 55.8256 9.00912C60.2249 10.4737 64.0254 13.567 66.5795 17.7621C69.1336 21.9571 70.2833 26.9942 69.8327 32.0152C69.3821 37.0362 67.359 41.7304 64.1083 45.298C62.2673 47.3294 60.0775 48.9399 57.6657 50.0362C55.2538 51.1326 52.6677 51.6931 50.0571 51.6853ZM50.0571 9.41476C39.7758 9.41476 31.4113 18.5943 31.4113 29.8775C31.4113 41.1607 39.7758 50.3403 50.0571 50.3403C60.3384 50.3403 68.7029 41.1607 68.7029 29.8775C68.7029 18.5943 60.3384 9.41476 50.0571 9.41476Z" fill="black"/>
<path d="M50.0571 51.013C60.6933 51.013 69.3156 41.5504 69.3156 29.8777C69.3156 18.205 60.6933 8.74243 50.0571 8.74243C39.4209 8.74243 30.7986 18.205 30.7986 29.8777C30.7986 41.5504 39.4209 51.013 50.0571 51.013Z" fill="#3F3D56"/>
<path d="M35.7351 21.4265C35.589 21.1125 35.5008 20.7701 35.4754 20.4187C35.45 20.0673 35.488 19.7139 35.5872 19.3786C35.6863 19.0434 35.8447 18.7328 36.0533 18.4648C36.2619 18.1967 36.5166 17.9765 36.8028 17.8165C37.089 17.6565 37.4011 17.5601 37.7213 17.5326C38.0415 17.5051 38.3635 17.5471 38.6689 17.6563C38.9743 17.7655 39.2571 17.9397 39.5011 18.1688C39.7452 18.398 39.9456 18.6778 40.0911 18.992L45.5321 30.7177C45.6782 31.0317 45.7664 31.3741 45.7918 31.7255C45.8172 32.0769 45.7792 32.4303 45.68 32.7656C45.5809 33.1009 45.4225 33.4114 45.2139 33.6794C45.0053 33.9475 44.7506 34.1678 44.4644 34.3277C44.1782 34.4877 43.8661 34.5842 43.5459 34.6116C43.2257 34.6391 42.9036 34.5971 42.5983 34.4879C42.2929 34.3787 42.0101 34.2046 41.7661 33.9754C41.522 33.7462 41.3216 33.4665 41.1761 33.1522L35.7351 21.4265Z" fill="#FF6584"/>
<path opacity="0.2" d="M36.3419 22.7344L36.0908 22.1932C37.3441 21.1245 38.8158 20.3386 40.4468 19.7588L40.6979 20.3C38.9327 20.7034 37.4309 21.45 36.3419 22.7344Z" fill="black"/>
<path opacity="0.2" d="M37.5138 25.2598L37.2627 24.7186C38.516 23.6499 39.9877 22.8639 41.6187 22.2842L41.8698 22.8254C40.1046 23.2288 38.6027 23.9754 37.5138 25.2598Z" fill="black"/>
<path opacity="0.2" d="M38.6857 27.7854L38.4346 27.2443C39.6879 26.1756 41.1596 25.3896 42.7906 24.8098L43.0417 25.351C41.2764 25.7544 39.7746 26.501 38.6857 27.7854Z" fill="black"/>
<path opacity="0.2" d="M39.8576 30.3108L39.6064 29.7696C40.8597 28.7009 42.3314 27.915 43.9624 27.3352L44.2136 27.8764C42.4483 28.2798 40.9465 29.0264 39.8576 30.3108Z" fill="black"/>
<path opacity="0.2" d="M41.0297 32.8365L40.7786 32.2953C42.0318 31.2266 43.5036 30.4406 45.1346 29.8608L45.3857 30.402C43.6204 30.8054 42.1186 31.552 41.0297 32.8365Z" fill="black"/>
<path d="M31.6529 25.8161C31.5069 25.5022 31.4187 25.1598 31.3934 24.8084C31.368 24.457 31.406 24.1036 31.5052 23.7684C31.6043 23.4332 31.7627 23.1226 31.9713 22.8546C32.1799 22.5866 32.4346 22.3663 32.7208 22.2064C33.0069 22.0464 33.3191 21.95 33.6392 21.9225C33.9594 21.895 34.2814 21.937 34.5868 22.0462C34.8922 22.1553 35.1749 22.3294 35.419 22.5586C35.663 22.7878 35.8635 23.0675 36.0089 23.3817L41.45 35.1074C41.7433 35.7412 41.7954 36.4769 41.5948 37.1529C41.3941 37.8288 40.9572 38.3897 40.3799 38.7123C39.8027 39.0349 39.1324 39.0929 38.5162 38.8734C37.9001 38.6539 37.3885 38.175 37.094 37.5418L31.6529 25.8161Z" fill="#FF6584"/>
<path opacity="0.2" d="M32.2599 27.1241L32.0088 26.5829C33.2621 25.5142 34.7338 24.7282 36.3648 24.1484L36.6159 24.6896C34.8507 25.093 33.3488 25.8396 32.2599 27.1241Z" fill="black"/>
<path opacity="0.2" d="M33.4318 29.6494L33.1807 29.1083C34.4339 28.0396 35.9057 27.2536 37.5367 26.6738L37.7878 27.215C36.0225 27.6184 34.5207 28.365 33.4318 29.6494Z" fill="black"/>
<path opacity="0.2" d="M34.6037 32.1751L34.3525 31.6339C35.6058 30.5652 37.0775 29.7792 38.7085 29.1995L38.9597 29.7406C37.1944 30.1441 35.6926 30.8907 34.6037 32.1751Z" fill="black"/>
<path opacity="0.2" d="M35.7758 34.7007L35.5247 34.1595C36.7779 33.0908 38.2496 32.3049 39.8806 31.7251L40.1318 32.2663C38.3665 32.6697 36.8647 33.4163 35.7758 34.7007Z" fill="black"/>
<path opacity="0.2" d="M36.9477 37.2261L36.6965 36.6849C37.9498 35.6162 39.4215 34.8303 41.0525 34.2505L41.3036 34.7917C39.5384 35.1951 38.0366 35.9417 36.9477 37.2261Z" fill="black"/>
<path d="M62.9253 30.5501L62.9425 30.5501C63.5285 30.5555 64.1025 30.3669 64.5894 30.009C65.0763 29.651 65.4537 29.1403 65.6721 28.5435C66.1215 27.2969 66.3479 25.9671 66.3392 24.6266C66.3086 18.9526 62.1024 14.2978 56.9327 14.2193C54.731 14.1855 52.5864 14.9882 50.8624 16.4915C49.1385 17.9947 47.9412 20.1059 47.4736 22.4673C47.0059 24.8286 47.2968 27.2948 48.2967 29.4477C49.2966 31.6006 50.9442 33.3078 52.9601 34.2799C53.4928 34.5388 54.0844 34.6149 54.6572 34.4983C55.2301 34.3817 55.7574 34.0779 56.1702 33.6266C57.0554 32.65 58.1081 31.8753 59.2675 31.3473C60.4269 30.8192 61.67 30.5483 62.9253 30.5501Z" fill="#E6E6E6"/>
<path d="M58.0232 27.3799C59.7637 27.3799 61.1746 25.8315 61.1746 23.9214C61.1746 22.0113 59.7637 20.4629 58.0232 20.4629C56.2828 20.4629 54.8718 22.0113 54.8718 23.9214C54.8718 25.8315 56.2828 27.3799 58.0232 27.3799Z" fill="#F9A825"/>
<path d="M51.1742 23.5324C51.3793 23.5324 51.5455 23.35 51.5455 23.125C51.5455 22.8999 51.3793 22.7175 51.1742 22.7175C50.9692 22.7175 50.803 22.8999 50.803 23.125C50.803 23.35 50.9692 23.5324 51.1742 23.5324Z" fill="#3F3D56"/>
<path d="M38.9186 23.9167C39.1236 23.9167 39.2899 23.7342 39.2899 23.5092C39.2899 23.2842 39.1236 23.1018 38.9186 23.1018C38.7136 23.1018 38.5474 23.2842 38.5474 23.5092C38.5474 23.7342 38.7136 23.9167 38.9186 23.9167Z" fill="#3F3D56"/>
<path d="M53.1527 19.31C53.3578 19.31 53.524 19.1276 53.524 18.9025C53.524 18.6775 53.3578 18.4951 53.1527 18.4951C52.9477 18.4951 52.7815 18.6775 52.7815 18.9025C52.7815 19.1276 52.9477 19.31 53.1527 19.31Z" fill="#3F3D56"/>
<path d="M53.1422 31.0536C53.3473 31.0536 53.5135 30.8712 53.5135 30.6462C53.5135 30.4212 53.3473 30.2388 53.1422 30.2388C52.9372 30.2388 52.771 30.4212 52.771 30.6462C52.771 30.8712 52.9372 31.0536 53.1422 31.0536Z" fill="#3F3D56"/>
<path d="M60.4955 18.4684C60.7006 18.4684 60.8668 18.286 60.8668 18.061C60.8668 17.836 60.7006 17.6536 60.4955 17.6536C60.2905 17.6536 60.1243 17.836 60.1243 18.061C60.1243 18.286 60.2905 18.4684 60.4955 18.4684Z" fill="#3F3D56"/>
<path d="M36.5099 29.6125C36.715 29.6125 36.8812 29.4301 36.8812 29.205C36.8812 28.98 36.715 28.7976 36.5099 28.7976C36.3049 28.7976 36.1387 28.98 36.1387 29.205C36.1387 29.4301 36.3049 29.6125 36.5099 29.6125Z" fill="#3F3D56"/>
<path d="M39.2235 35.4728C39.4286 35.4728 39.5948 35.2904 39.5948 35.0654C39.5948 34.8404 39.4286 34.658 39.2235 34.658C39.0185 34.658 38.8523 34.8404 38.8523 35.0654C38.8523 35.2904 39.0185 35.4728 39.2235 35.4728Z" fill="#3F3D56"/>
<path d="M56.2724 37.3711C57.046 37.3711 57.6731 36.6829 57.6731 35.834C57.6731 34.9851 57.046 34.2969 56.2724 34.2969C55.4989 34.2969 54.8718 34.9851 54.8718 35.834C54.8718 36.6829 55.4989 37.3711 56.2724 37.3711Z" fill="#FF6584"/>
<path opacity="0.2" d="M57.3229 35.9299C57.3229 36.2357 57.2122 36.5289 57.0152 36.7451C56.8182 36.9613 56.551 37.0828 56.2724 37.0828C55.9938 37.0828 55.7266 36.9613 55.5296 36.7451C55.3326 36.5289 55.2219 36.2357 55.2219 35.9299" fill="black"/>
<path opacity="0.2" d="M55.2219 35.7378C55.2219 35.432 55.3326 35.1388 55.5296 34.9226C55.7266 34.7064 55.9938 34.585 56.2724 34.585C56.551 34.585 56.8182 34.7064 57.0152 34.9226C57.2122 35.1388 57.3229 35.432 57.3229 35.7378" fill="black"/>
<path d="M55.7472 35.4496C55.7956 35.4496 55.8347 35.3851 55.8347 35.3055C55.8347 35.2259 55.7956 35.1614 55.7472 35.1614C55.6989 35.1614 55.6597 35.2259 55.6597 35.3055C55.6597 35.3851 55.6989 35.4496 55.7472 35.4496Z" fill="#FF6584"/>
<path d="M56.2724 35.2574C56.3207 35.2574 56.3599 35.1929 56.3599 35.1133C56.3599 35.0338 56.3207 34.9692 56.2724 34.9692C56.224 34.9692 56.1848 35.0338 56.1848 35.1133C56.1848 35.1929 56.224 35.2574 56.2724 35.2574Z" fill="#FF6584"/>
<path d="M56.2724 36.5065C56.3207 36.5065 56.3599 36.442 56.3599 36.3624C56.3599 36.2828 56.3207 36.2183 56.2724 36.2183C56.224 36.2183 56.1848 36.2828 56.1848 36.3624C56.1848 36.442 56.224 36.5065 56.2724 36.5065Z" fill="#FF6584"/>
<path d="M56.7977 35.7379C56.8461 35.7379 56.8853 35.6734 56.8853 35.5938C56.8853 35.5142 56.8461 35.4497 56.7977 35.4497C56.7494 35.4497 56.7102 35.5142 56.7102 35.5938C56.7102 35.6734 56.7494 35.7379 56.7977 35.7379Z" fill="#FF6584"/>
<path d="M56.7101 36.7946C56.7584 36.7946 56.7976 36.73 56.7976 36.6505C56.7976 36.5709 56.7584 36.5063 56.7101 36.5063C56.6618 36.5063 56.6226 36.5709 56.6226 36.6505C56.6226 36.73 56.6618 36.7946 56.7101 36.7946Z" fill="#FF6584"/>
<path d="M55.6598 36.3143C55.7081 36.3143 55.7473 36.2498 55.7473 36.1702C55.7473 36.0906 55.7081 36.0261 55.6598 36.0261C55.6115 36.0261 55.5723 36.0906 55.5723 36.1702C55.5723 36.2498 55.6115 36.3143 55.6598 36.3143Z" fill="#FF6584"/>
<path d="M59.0737 33.24C59.8473 33.24 60.4743 32.5518 60.4743 31.7029C60.4743 30.854 59.8473 30.1658 59.0737 30.1658C58.3002 30.1658 57.6731 30.854 57.6731 31.7029C57.6731 32.5518 58.3002 33.24 59.0737 33.24Z" fill="#FF6584"/>
<path opacity="0.2" d="M60.1241 31.7991C60.1241 32.1048 60.0135 32.398 59.8165 32.6142C59.6195 32.8304 59.3523 32.9519 59.0737 32.9519C58.7951 32.9519 58.5279 32.8304 58.3309 32.6142C58.1339 32.398 58.0232 32.1048 58.0232 31.7991" fill="black"/>
<path opacity="0.2" d="M58.0232 31.6069C58.0232 31.3012 58.1339 31.008 58.3309 30.7918C58.5279 30.5756 58.7951 30.4541 59.0737 30.4541C59.3523 30.4541 59.6195 30.5756 59.8165 30.7918C60.0135 31.008 60.1241 31.3012 60.1241 31.6069" fill="black"/>
<path d="M58.5485 31.3187C58.5968 31.3187 58.636 31.2542 58.636 31.1746C58.636 31.095 58.5968 31.0305 58.5485 31.0305C58.5001 31.0305 58.4609 31.095 58.4609 31.1746C58.4609 31.2542 58.5001 31.3187 58.5485 31.3187Z" fill="#FF6584"/>
<path d="M59.0736 31.1266C59.122 31.1266 59.1612 31.0621 59.1612 30.9825C59.1612 30.9029 59.122 30.8384 59.0736 30.8384C59.0253 30.8384 58.9861 30.9029 58.9861 30.9825C58.9861 31.0621 59.0253 31.1266 59.0736 31.1266Z" fill="#FF6584"/>
<path d="M59.0736 32.3754C59.122 32.3754 59.1612 32.3108 59.1612 32.2313C59.1612 32.1517 59.122 32.0872 59.0736 32.0872C59.0253 32.0872 58.9861 32.1517 58.9861 32.2313C58.9861 32.3108 59.0253 32.3754 59.0736 32.3754Z" fill="#FF6584"/>
<path d="M59.599 31.6068C59.6474 31.6068 59.6866 31.5423 59.6866 31.4627C59.6866 31.3831 59.6474 31.3186 59.599 31.3186C59.5507 31.3186 59.5115 31.3831 59.5115 31.4627C59.5115 31.5423 59.5507 31.6068 59.599 31.6068Z" fill="#FF6584"/>
<path d="M59.5114 32.6637C59.5597 32.6637 59.5989 32.5992 59.5989 32.5196C59.5989 32.44 59.5597 32.3755 59.5114 32.3755C59.463 32.3755 59.4238 32.44 59.4238 32.5196C59.4238 32.5992 59.463 32.6637 59.5114 32.6637Z" fill="#FF6584"/>
<path d="M58.4608 32.1832C58.5092 32.1832 58.5484 32.1187 58.5484 32.0391C58.5484 31.9595 58.5092 31.895 58.4608 31.895C58.4125 31.895 58.3733 31.9595 58.3733 32.0391C58.3733 32.1187 58.4125 32.1832 58.4608 32.1832Z" fill="#FF6584"/>
<path d="M61.875 35.3535C62.6485 35.3535 63.2756 34.6653 63.2756 33.8164C63.2756 32.9675 62.6485 32.2793 61.875 32.2793C61.1014 32.2793 60.4744 32.9675 60.4744 33.8164C60.4744 34.6653 61.1014 35.3535 61.875 35.3535Z" fill="#006466"/>
<path opacity="0.2" d="M62.9254 33.9126C62.9254 34.2183 62.8147 34.5116 62.6177 34.7278C62.4207 34.944 62.1535 35.0654 61.8749 35.0654C61.5963 35.0654 61.3291 34.944 61.1321 34.7278C60.9351 34.5116 60.8245 34.2183 60.8245 33.9126" fill="black"/>
<path opacity="0.2" d="M60.8245 33.7205C60.8245 33.4147 60.9351 33.1215 61.1321 32.9053C61.3291 32.6891 61.5963 32.5676 61.8749 32.5676C62.1535 32.5676 62.4207 32.6891 62.6177 32.9053C62.8147 33.1215 62.9254 33.4147 62.9254 33.7205" fill="black"/>
<path d="M61.3497 33.4323C61.3981 33.4323 61.4373 33.3677 61.4373 33.2881C61.4373 33.2086 61.3981 33.144 61.3497 33.144C61.3014 33.144 61.2622 33.2086 61.2622 33.2881C61.2622 33.3677 61.3014 33.4323 61.3497 33.4323Z" fill="#006466"/>
<path d="M61.8749 33.2401C61.9232 33.2401 61.9624 33.1756 61.9624 33.096C61.9624 33.0164 61.9232 32.9519 61.8749 32.9519C61.8265 32.9519 61.7874 33.0164 61.7874 33.096C61.7874 33.1756 61.8265 33.2401 61.8749 33.2401Z" fill="#006466"/>
<path d="M61.8749 34.4889C61.9232 34.4889 61.9624 34.4244 61.9624 34.3448C61.9624 34.2652 61.9232 34.2007 61.8749 34.2007C61.8265 34.2007 61.7874 34.2652 61.7874 34.3448C61.7874 34.4244 61.8265 34.4889 61.8749 34.4889Z" fill="#006466"/>
<path d="M62.4003 33.7203C62.4486 33.7203 62.4878 33.6558 62.4878 33.5762C62.4878 33.4966 62.4486 33.4321 62.4003 33.4321C62.3519 33.4321 62.3127 33.4966 62.3127 33.5762C62.3127 33.6558 62.3519 33.7203 62.4003 33.7203Z" fill="#006466"/>
<path d="M62.3126 34.7772C62.361 34.7772 62.4002 34.7127 62.4002 34.6331C62.4002 34.5535 62.361 34.489 62.3126 34.489C62.2643 34.489 62.2251 34.5535 62.2251 34.6331C62.2251 34.7127 62.2643 34.7772 62.3126 34.7772Z" fill="#006466"/>
<path d="M61.2621 34.2968C61.3104 34.2968 61.3496 34.2322 61.3496 34.1526C61.3496 34.0731 61.3104 34.0085 61.2621 34.0085C61.2138 34.0085 61.1746 34.0731 61.1746 34.1526C61.1746 34.2322 61.2138 34.2968 61.2621 34.2968Z" fill="#006466"/>
<path d="M54.8718 35.5457C55.6454 35.5457 56.2724 34.8575 56.2724 34.0085C56.2724 33.1596 55.6454 32.4714 54.8718 32.4714C54.0983 32.4714 53.4712 33.1596 53.4712 34.0085C53.4712 34.8575 54.0983 35.5457 54.8718 35.5457Z" fill="#006466"/>
<path opacity="0.2" d="M55.9222 34.1047C55.9222 34.4105 55.8115 34.7037 55.6145 34.9199C55.4175 35.1361 55.1504 35.2576 54.8718 35.2576C54.5932 35.2576 54.326 35.1361 54.129 34.9199C53.932 34.7037 53.8213 34.4105 53.8213 34.1047" fill="black"/>
<path opacity="0.2" d="M53.8213 33.9126C53.8213 33.6068 53.932 33.3136 54.129 33.0974C54.326 32.8812 54.5932 32.7598 54.8718 32.7598C55.1504 32.7598 55.4175 32.8812 55.6145 33.0974C55.8115 33.3136 55.9222 33.6068 55.9222 33.9126" fill="black"/>
<path d="M54.3466 33.6244C54.3949 33.6244 54.4341 33.5599 54.4341 33.4803C54.4341 33.4007 54.3949 33.3362 54.3466 33.3362C54.2982 33.3362 54.259 33.4007 54.259 33.4803C54.259 33.5599 54.2982 33.6244 54.3466 33.6244Z" fill="#006466"/>
<path d="M54.872 33.4323C54.9203 33.4323 54.9595 33.3677 54.9595 33.2881C54.9595 33.2086 54.9203 33.144 54.872 33.144C54.8236 33.144 54.7844 33.2086 54.7844 33.2881C54.7844 33.3677 54.8236 33.4323 54.872 33.4323Z" fill="#006466"/>
<path d="M54.872 34.681C54.9203 34.681 54.9595 34.6165 54.9595 34.5369C54.9595 34.4573 54.9203 34.3928 54.872 34.3928C54.8236 34.3928 54.7844 34.4573 54.7844 34.5369C54.7844 34.6165 54.8236 34.681 54.872 34.681Z" fill="#006466"/>
<path d="M55.3971 33.9125C55.4455 33.9125 55.4846 33.848 55.4846 33.7684C55.4846 33.6888 55.4455 33.6243 55.3971 33.6243C55.3488 33.6243 55.3096 33.6888 55.3096 33.7684C55.3096 33.848 55.3488 33.9125 55.3971 33.9125Z" fill="#006466"/>
<path d="M55.3095 34.9694C55.3578 34.9694 55.397 34.9048 55.397 34.8253C55.397 34.7457 55.3578 34.6812 55.3095 34.6812C55.2611 34.6812 55.2219 34.7457 55.2219 34.8253C55.2219 34.9048 55.2611 34.9694 55.3095 34.9694Z" fill="#006466"/>
<path d="M54.2592 34.4889C54.3075 34.4889 54.3467 34.4244 54.3467 34.3448C54.3467 34.2652 54.3075 34.2007 54.2592 34.2007C54.2108 34.2007 54.1716 34.2652 54.1716 34.3448C54.1716 34.4244 54.2108 34.4889 54.2592 34.4889Z" fill="#006466"/>
<path d="M58.0232 36.2183C58.7967 36.2183 59.4238 35.5301 59.4238 34.6812C59.4238 33.8322 58.7967 33.144 58.0232 33.144C57.2496 33.144 56.6226 33.8322 56.6226 34.6812C56.6226 35.5301 57.2496 36.2183 58.0232 36.2183Z" fill="#006466"/>
<path opacity="0.2" d="M59.0738 34.7771C59.0738 34.9285 59.0467 35.0784 58.9939 35.2183C58.9411 35.3581 58.8637 35.4852 58.7662 35.5923C58.6686 35.6993 58.5528 35.7842 58.4254 35.8422C58.2979 35.9001 58.1613 35.9299 58.0234 35.9299C57.8854 35.9299 57.7488 35.9001 57.6214 35.8422C57.4939 35.7842 57.3781 35.6993 57.2806 35.5923C57.183 35.4852 57.1056 35.3581 57.0529 35.2183C57.0001 35.0784 56.9729 34.9285 56.9729 34.7771" fill="black"/>
<path opacity="0.2" d="M56.9729 34.585C56.9729 34.4336 57.0001 34.2837 57.0529 34.1438C57.1056 34.0039 57.183 33.8768 57.2806 33.7698C57.3781 33.6627 57.4939 33.5778 57.6214 33.5199C57.7488 33.462 57.8854 33.4321 58.0234 33.4321C58.1613 33.4321 58.2979 33.462 58.4254 33.5199C58.5528 33.5778 58.6686 33.6627 58.7662 33.7698C58.8637 33.8768 58.9411 34.0039 58.9939 34.1438C59.0467 34.2837 59.0738 34.4336 59.0738 34.585" fill="black"/>
<path d="M57.4979 34.2968C57.5463 34.2968 57.5855 34.2322 57.5855 34.1526C57.5855 34.0731 57.5463 34.0085 57.4979 34.0085C57.4496 34.0085 57.4104 34.0731 57.4104 34.1526C57.4104 34.2322 57.4496 34.2968 57.4979 34.2968Z" fill="#006466"/>
<path d="M58.0233 34.1046C58.0717 34.1046 58.1109 34.0401 58.1109 33.9605C58.1109 33.8809 58.0717 33.8164 58.0233 33.8164C57.975 33.8164 57.9358 33.8809 57.9358 33.9605C57.9358 34.0401 57.975 34.1046 58.0233 34.1046Z" fill="#006466"/>
<path d="M58.0233 35.3536C58.0717 35.3536 58.1109 35.2891 58.1109 35.2095C58.1109 35.1299 58.0717 35.0654 58.0233 35.0654C57.975 35.0654 57.9358 35.1299 57.9358 35.2095C57.9358 35.2891 57.975 35.3536 58.0233 35.3536Z" fill="#006466"/>
<path d="M58.5485 34.5851C58.5968 34.5851 58.636 34.5206 58.636 34.441C58.636 34.3614 58.5968 34.2969 58.5485 34.2969C58.5001 34.2969 58.4609 34.3614 58.4609 34.441C58.4609 34.5206 58.5001 34.5851 58.5485 34.5851Z" fill="#006466"/>
<path d="M58.4608 35.6417C58.5092 35.6417 58.5484 35.5772 58.5484 35.4976C58.5484 35.418 58.5092 35.3535 58.4608 35.3535C58.4125 35.3535 58.3733 35.418 58.3733 35.4976C58.3733 35.5772 58.4125 35.6417 58.4608 35.6417Z" fill="#006466"/>
<path d="M57.4105 35.1615C57.4589 35.1615 57.4981 35.097 57.4981 35.0174C57.4981 34.9378 57.4589 34.8733 57.4105 34.8733C57.3622 34.8733 57.323 34.9378 57.323 35.0174C57.323 35.097 57.3622 35.1615 57.4105 35.1615Z" fill="#006466"/>
<path d="M60.2117 37.8513C60.9852 37.8513 61.6123 37.1631 61.6123 36.3142C61.6123 35.4653 60.9852 34.7771 60.2117 34.7771C59.4381 34.7771 58.811 35.4653 58.811 36.3142C58.811 37.1631 59.4381 37.8513 60.2117 37.8513Z" fill="#FF6584"/>
<path opacity="0.2" d="M61.2621 36.4104C61.2621 36.7162 61.1514 37.0094 60.9544 37.2256C60.7574 37.4418 60.4902 37.5632 60.2116 37.5632C59.933 37.5632 59.6658 37.4418 59.4688 37.2256C59.2718 37.0094 59.1611 36.7162 59.1611 36.4104" fill="black"/>
<path opacity="0.2" d="M59.1611 36.2183C59.1611 35.9125 59.2718 35.6193 59.4688 35.4031C59.6658 35.1869 59.933 35.0654 60.2116 35.0654C60.4902 35.0654 60.7574 35.1869 60.9544 35.4031C61.1514 35.6193 61.2621 35.9125 61.2621 36.2183" fill="black"/>
<path d="M59.6864 35.9301C59.7348 35.9301 59.774 35.8655 59.774 35.7859C59.774 35.7064 59.7348 35.6418 59.6864 35.6418C59.6381 35.6418 59.5989 35.7064 59.5989 35.7859C59.5989 35.8655 59.6381 35.9301 59.6864 35.9301Z" fill="#FF6584"/>
<path d="M60.2118 35.7379C60.2602 35.7379 60.2993 35.6734 60.2993 35.5938C60.2993 35.5142 60.2602 35.4497 60.2118 35.4497C60.1635 35.4497 60.1243 35.5142 60.1243 35.5938C60.1243 35.6734 60.1635 35.7379 60.2118 35.7379Z" fill="#FF6584"/>
<path d="M60.2118 36.9867C60.2602 36.9867 60.2993 36.9222 60.2993 36.8426C60.2993 36.763 60.2602 36.6985 60.2118 36.6985C60.1635 36.6985 60.1243 36.763 60.1243 36.8426C60.1243 36.9222 60.1635 36.9867 60.2118 36.9867Z" fill="#FF6584"/>
<path d="M60.737 36.2181C60.7853 36.2181 60.8245 36.1536 60.8245 36.074C60.8245 35.9944 60.7853 35.9299 60.737 35.9299C60.6886 35.9299 60.6494 35.9944 60.6494 36.074C60.6494 36.1536 60.6886 36.2181 60.737 36.2181Z" fill="#FF6584"/>
<path d="M60.6493 37.275C60.6977 37.275 60.7368 37.2105 60.7368 37.1309C60.7368 37.0513 60.6977 36.9868 60.6493 36.9868C60.601 36.9868 60.5618 37.0513 60.5618 37.1309C60.5618 37.2105 60.601 37.275 60.6493 37.275Z" fill="#FF6584"/>
<path d="M59.599 36.7946C59.6474 36.7946 59.6866 36.73 59.6866 36.6505C59.6866 36.5709 59.6474 36.5063 59.599 36.5063C59.5507 36.5063 59.5115 36.5709 59.5115 36.6505C59.5115 36.73 59.5507 36.7946 59.599 36.7946Z" fill="#FF6584"/>
<path d="M42.1999 30.8615C42.4049 30.8615 42.5711 30.6791 42.5711 30.4541C42.5711 30.229 42.4049 30.0466 42.1999 30.0466C41.9948 30.0466 41.8286 30.229 41.8286 30.4541C41.8286 30.6791 41.9948 30.8615 42.1999 30.8615Z" fill="#3F3D56"/>
<path d="M52.2911 45.2426L43.375 42.529L43.7166 41.1367L52.6327 43.8504L52.2911 45.2426Z" fill="#F9A825"/>
<path d="M50.9839 44.7773C47.9307 45.4187 44.7942 45.4187 41.741 44.7773V43.334C44.8011 43.8906 47.9238 43.8906 50.9839 43.334V44.7773Z" fill="#F9A825"/>
<path d="M51.9341 40.4474C48.8809 41.0889 45.7444 41.0889 42.6912 40.4474V39.0042C45.7513 39.5608 48.874 39.5608 51.9341 39.0042V40.4474Z" fill="#F9A825"/>
<path d="M55.1304 42.1794C52.0772 42.8208 48.9407 42.8208 45.8875 42.1794V40.7361C48.9476 41.2927 52.0703 41.2927 55.1304 40.7361V42.1794Z" fill="#F9A825"/>
<path d="M55.9078 43.8151C52.8545 44.4566 49.7181 44.4566 46.6648 43.8151V42.3718C49.7249 42.9284 52.8477 42.9284 55.9078 42.3718V43.8151Z" fill="#F9A825"/>
<path d="M58.6184 45.9525L49.4993 47.6336L49.2878 46.2096L58.4068 44.5286L58.6184 45.9525Z" fill="#F9A825"/>
<path d="M57.2561 46.1376C54.7279 48.1376 51.8785 49.5961 48.8574 50.4365L48.3164 49.1251C51.311 48.2048 54.1481 46.7526 56.7151 44.8262L57.2561 46.1376Z" fill="#F9A825"/>
<path d="M56.4966 41.7614C53.9684 43.7614 51.119 45.2199 48.0979 46.0603L47.5569 44.7488C50.5515 43.8286 53.3886 42.3764 55.9555 40.45L56.4966 41.7614Z" fill="#F9A825"/>
<path d="M60.0501 41.8486C57.5218 43.8486 54.6724 45.3071 51.6514 46.1474L51.1104 44.836C54.105 43.9158 56.942 42.4636 59.509 40.5371L60.0501 41.8486Z" fill="#F9A825"/>
<path d="M61.3696 42.9733C58.8414 44.9733 55.992 46.4318 52.971 47.2722L52.4299 45.9608C55.4245 45.0405 58.2616 43.5883 60.8286 41.6619L61.3696 42.9733Z" fill="#F9A825"/>
<path d="M50.3198 40.157H49.8821V40.6373H50.3198V40.157Z" fill="#00BF71"/>
<path d="M51.633 48.5151H51.1953V48.9955H51.633V48.5151Z" fill="#00BF71"/>
<path d="M44.6298 40.157H44.1921V40.6373H44.6298V40.157Z" fill="#00BF71"/>
<path d="M54.7844 46.1133H54.3467V46.5936H54.7844V46.1133Z" fill="#00BF71"/>
<path d="M55.0468 43.3274H54.6091V43.8077H55.0468V43.3274Z" fill="#00BF71"/>
<path d="M47.8267 42.0121L47.3196 41.6345L47.123 41.9525L47.6301 42.3301L47.8267 42.0121Z" fill="#00BF71"/>
<path d="M52.9915 43.069L52.4844 42.6914L52.2878 43.0094L52.7949 43.387L52.9915 43.069Z" fill="#00BF71"/>
<path d="M46.6887 44.8942L46.1816 44.5166L45.985 44.8346L46.4921 45.2122L46.6887 44.8942Z" fill="#00BF71"/>
<path d="M49.8989 44.8663L50.2429 44.3098L49.9532 44.0941L49.6091 44.6506L49.8989 44.8663Z" fill="#00BF71"/>
<path d="M52.2624 45.5387L52.6064 44.9822L52.3167 44.7664L51.9727 45.3229L52.2624 45.5387Z" fill="#00BF71"/>
<path d="M58.5656 43.233L58.9097 42.6765L58.6199 42.4608L58.2759 43.0173L58.5656 43.233Z" fill="#00BF71"/>
<path d="M100 59.7231H0V60.0001H100V59.7231Z" fill="#3F3D56"/>
<path d="M20.6418 41.7891L16.4941 40.4413C15.744 40.1976 14.9424 40.6206 14.7036 41.3862L10.1752 55.9033C9.93645 56.6689 10.3509 57.4871 11.101 57.7308L15.2487 59.0786C15.9987 59.3223 16.8004 58.8993 17.0392 58.1337L21.5675 43.6165C21.8063 42.851 21.3918 42.0328 20.6418 41.7891Z" fill="black"/>
<path opacity="0.8" d="M21.6329 43.2267C21.6303 43.3618 21.6083 43.4957 21.5676 43.6243L17.0398 58.1476C17.0244 58.1969 17.0065 58.2454 16.9862 58.2928C16.8448 58.6215 16.5893 58.8851 16.2688 59.0328C15.9483 59.1805 15.5856 59.2019 15.2506 59.0928L11.1008 57.7452C10.747 57.6294 10.4515 57.3773 10.2772 57.0424C10.1029 56.7075 10.0636 56.3164 10.1677 55.9524L12.7803 47.5789L14.6954 41.3863C14.7515 41.2037 14.8422 41.0342 14.9625 40.8875C15.0828 40.7408 15.2303 40.6198 15.3965 40.5313C15.5627 40.4429 15.7443 40.3887 15.9311 40.372C16.1178 40.3553 16.3059 40.3763 16.4846 40.4339L20.6438 41.7982C20.7346 41.8278 20.8222 41.8669 20.9051 41.9148C21.1328 42.0442 21.3211 42.235 21.4495 42.4664C21.5779 42.6978 21.6414 42.9609 21.6329 43.2267Z" fill="white"/>
<g opacity="0.6">
<path opacity="0.5" d="M11.5974 51.3477L13.4799 45.317L18.8101 41.1934L20.9096 41.9076C21.1376 42.0371 21.3262 42.2284 21.4546 42.4602C21.583 42.6921 21.6462 42.9557 21.6374 43.2219L11.5974 51.3477Z" fill="white"/>
</g>
<path opacity="0.5" d="M14.2288 42.8934L14.6953 41.3863C14.7513 41.2037 14.8421 41.0342 14.9624 40.8875C15.0827 40.7408 15.2301 40.6198 15.3963 40.5313C15.5625 40.4429 15.7442 40.3887 15.9309 40.372C16.1176 40.3553 16.3057 40.3763 16.4845 40.4339L17.1073 40.6363L14.2288 42.8934Z" fill="white"/>
<path d="M17.0911 42.8336C17.0583 42.9386 16.9958 43.0313 16.9114 43.1C16.827 43.1688 16.7246 43.2104 16.617 43.2197C16.5094 43.229 16.4016 43.2055 16.3071 43.1522C16.2126 43.099 16.1357 43.0183 16.0861 42.9204C16.0365 42.8225 16.0165 42.7118 16.0286 42.6024C16.0406 42.4929 16.0842 42.3895 16.1538 42.3053C16.2234 42.2211 16.316 42.1598 16.4197 42.1293C16.5234 42.0987 16.6337 42.1002 16.7365 42.1337C16.805 42.1556 16.8686 42.1911 16.9235 42.2382C16.9785 42.2854 17.0238 42.3431 17.0567 42.4082C17.0897 42.4733 17.1097 42.5444 17.1156 42.6174C17.1215 42.6904 17.1132 42.7639 17.0911 42.8336Z" fill="#006466"/>
<path d="M16.0507 46.1621C16.0179 46.2666 15.9555 46.3588 15.8714 46.4271C15.7873 46.4954 15.6852 46.5367 15.5781 46.5458C15.471 46.5549 15.3636 46.5314 15.2696 46.4782C15.1756 46.425 15.0991 46.3446 15.0499 46.2471C15.0006 46.1496 14.9808 46.0394 14.993 45.9304C15.0051 45.8214 15.0486 45.7185 15.118 45.6347C15.1875 45.551 15.2796 45.4901 15.3829 45.4598C15.4862 45.4295 15.596 45.4312 15.6984 45.4645C15.7664 45.4867 15.8295 45.5224 15.884 45.5694C15.9385 45.6165 15.9834 45.6741 16.0162 45.7388C16.0489 45.8036 16.0687 45.8744 16.0747 45.947C16.0806 46.0196 16.0724 46.0927 16.0507 46.1621Z" fill="#006466"/>
<path d="M15.0127 49.4928C14.9803 49.5981 14.918 49.6911 14.8338 49.7602C14.7495 49.8293 14.6471 49.8713 14.5394 49.8809C14.4317 49.8905 14.3237 49.8673 14.229 49.8142C14.1343 49.761 14.0571 49.6804 14.0074 49.5825C13.9576 49.4846 13.9374 49.3738 13.9494 49.2641C13.9614 49.1545 14.005 49.051 14.0747 48.9667C14.1444 48.8824 14.237 48.8211 14.3409 48.7905C14.4448 48.76 14.5552 48.7617 14.6581 48.7953C14.7263 48.8172 14.7896 48.8527 14.8444 48.8996C14.8992 48.9466 14.9443 49.0041 14.9773 49.0689C15.0102 49.1337 15.0303 49.2045 15.0364 49.2773C15.0425 49.35 15.0344 49.4233 15.0127 49.4928Z" fill="#006466"/>
<path d="M13.9744 52.8239C13.9416 52.9289 13.8791 53.0216 13.7947 53.0903C13.7103 53.159 13.6079 53.2006 13.5003 53.2099C13.3927 53.2192 13.2849 53.1957 13.1904 53.1425C13.0959 53.0892 13.019 53.0085 12.9694 52.9106C12.9198 52.8128 12.8998 52.7021 12.9119 52.5926C12.9239 52.4831 12.9675 52.3797 13.0371 52.2955C13.1067 52.2113 13.1993 52.15 13.303 52.1195C13.4067 52.0889 13.517 52.0905 13.6198 52.1239C13.6883 52.1458 13.7519 52.1814 13.8068 52.2285C13.8618 52.2756 13.9071 52.3334 13.94 52.3985C13.973 52.4635 13.993 52.5346 13.9989 52.6077C14.0048 52.6807 13.9965 52.7542 13.9744 52.8239Z" fill="#006466"/>
<path d="M12.9365 56.1523C12.9041 56.2575 12.8419 56.3506 12.7576 56.4197C12.6733 56.4887 12.5709 56.5308 12.4632 56.5404C12.3556 56.55 12.2475 56.5267 12.1528 56.4736C12.0581 56.4204 11.981 56.3398 11.9312 56.2419C11.8814 56.144 11.8613 56.0332 11.8732 55.9236C11.8852 55.8139 11.9288 55.7104 11.9985 55.6261C12.0682 55.5418 12.1609 55.4805 12.2647 55.45C12.3686 55.4194 12.479 55.4211 12.5819 55.4547C12.719 55.5001 12.8331 55.5987 12.8994 55.7292C12.9658 55.8598 12.9791 56.0118 12.9365 56.1523Z" fill="#006466"/>
<path d="M19.7131 43.6862C19.6628 43.8184 19.5649 43.926 19.4396 43.9871C19.3142 44.0482 19.1707 44.0582 19.0384 44.0151C18.906 43.972 18.7947 43.879 18.7272 43.7551C18.6597 43.6311 18.641 43.4856 18.675 43.3481C18.6933 43.2743 18.7261 43.2052 18.7715 43.1449C18.8169 43.0846 18.8739 43.0344 18.9391 42.9974C19.0042 42.9605 19.0761 42.9375 19.1502 42.93C19.2244 42.9225 19.2992 42.9305 19.3702 42.9536C19.4412 42.9767 19.5068 43.0144 19.563 43.0644C19.6192 43.1144 19.6647 43.1756 19.6968 43.2442C19.729 43.3129 19.747 43.3875 19.7498 43.4635C19.7526 43.5395 19.7401 43.6153 19.7131 43.6862Z" fill="#006466"/>
<path d="M18.6749 47.0145C18.6423 47.1189 18.58 47.2112 18.4961 47.2796C18.4121 47.348 18.3102 47.3894 18.2032 47.3987C18.0962 47.408 17.9888 47.3848 17.8947 47.3319C17.8007 47.279 17.724 47.1988 17.6746 47.1015C17.6251 47.0041 17.605 46.894 17.6168 46.7851C17.6286 46.6761 17.6718 46.5731 17.7409 46.4892C17.81 46.4052 17.9019 46.3441 18.005 46.3134C18.1081 46.2827 18.2179 46.2839 18.3203 46.3169C18.4578 46.3617 18.5722 46.4603 18.6386 46.591C18.7051 46.7217 18.7181 46.874 18.6749 47.0145Z" fill="#006466"/>
<path d="M17.6369 50.3454C17.6046 50.4506 17.5423 50.5437 17.458 50.6128C17.3738 50.6819 17.2713 50.7239 17.1637 50.7335C17.056 50.7431 16.948 50.7198 16.8532 50.6667C16.7585 50.6136 16.6814 50.5329 16.6316 50.435C16.5819 50.3371 16.5617 50.2263 16.5737 50.1167C16.5857 50.007 16.6293 49.9035 16.699 49.8192C16.7687 49.7349 16.8613 49.6736 16.9652 49.6431C17.069 49.6126 17.1794 49.6142 17.2824 49.6478C17.4194 49.6932 17.5335 49.7918 17.5999 49.9224C17.6662 50.0529 17.6795 50.2049 17.6369 50.3454Z" fill="#006466"/>
<path d="M16.5966 53.6762C16.5463 53.8083 16.4485 53.916 16.3231 53.9771C16.1977 54.0382 16.0543 54.0482 15.9219 54.0051C15.7895 53.962 15.6783 53.869 15.6108 53.7451C15.5433 53.6211 15.5246 53.4756 15.5586 53.3381C15.5768 53.2643 15.6096 53.1952 15.655 53.1349C15.7005 53.0746 15.7575 53.0244 15.8226 52.9874C15.8877 52.9505 15.9596 52.9275 16.0338 52.92C16.1079 52.9124 16.1828 52.9205 16.2538 52.9436C16.3248 52.9667 16.3904 53.0044 16.4466 53.0544C16.5027 53.1044 16.5483 53.1656 16.5804 53.2342C16.6125 53.3029 16.6305 53.3775 16.6333 53.4535C16.6361 53.5295 16.6236 53.6053 16.5966 53.6762Z" fill="#006466"/>
<path d="M15.5584 57.0047C15.5258 57.1092 15.4636 57.2014 15.3796 57.2698C15.2957 57.3382 15.1938 57.3797 15.0867 57.389C14.9797 57.3983 14.8724 57.375 14.7783 57.3221C14.6842 57.2692 14.6076 57.189 14.5581 57.0917C14.5087 56.9944 14.4886 56.8843 14.5004 56.7753C14.5122 56.6663 14.5553 56.5634 14.6244 56.4794C14.6935 56.3955 14.7854 56.3343 14.8886 56.3036C14.9917 56.273 15.1014 56.2742 15.2039 56.3071C15.3413 56.352 15.4558 56.4505 15.5222 56.5812C15.5886 56.712 15.6017 56.8642 15.5584 57.0047Z" fill="#006466"/>
<g opacity="0.4">
<path d="M17.0911 42.8336C17.0583 42.9386 16.9958 43.0313 16.9114 43.1C16.827 43.1688 16.7246 43.2104 16.617 43.2197C16.5094 43.229 16.4016 43.2055 16.3071 43.1522C16.2126 43.099 16.1357 43.0183 16.0861 42.9204C16.0365 42.8225 16.0165 42.7118 16.0286 42.6024C16.0406 42.4929 16.0842 42.3895 16.1538 42.3053C16.2234 42.2211 16.316 42.1598 16.4197 42.1293C16.5234 42.0987 16.6337 42.1002 16.7365 42.1337C16.805 42.1556 16.8686 42.1911 16.9235 42.2382C16.9785 42.2854 17.0238 42.3431 17.0567 42.4082C17.0897 42.4733 17.1097 42.5444 17.1156 42.6174C17.1215 42.6904 17.1132 42.7639 17.0911 42.8336Z" fill="white"/>
<path d="M16.0507 46.1621C16.0179 46.2666 15.9555 46.3588 15.8714 46.4271C15.7873 46.4954 15.6852 46.5367 15.5781 46.5458C15.471 46.5549 15.3636 46.5314 15.2696 46.4782C15.1756 46.425 15.0991 46.3446 15.0499 46.2471C15.0006 46.1496 14.9808 46.0394 14.993 45.9304C15.0051 45.8214 15.0486 45.7185 15.118 45.6347C15.1875 45.551 15.2796 45.4901 15.3829 45.4598C15.4862 45.4295 15.596 45.4312 15.6984 45.4645C15.7664 45.4867 15.8295 45.5224 15.884 45.5694C15.9385 45.6165 15.9834 45.6741 16.0162 45.7388C16.0489 45.8036 16.0687 45.8744 16.0747 45.947C16.0806 46.0196 16.0724 46.0927 16.0507 46.1621Z" fill="white"/>
<path d="M15.0127 49.4928C14.9803 49.5981 14.918 49.6911 14.8338 49.7602C14.7495 49.8293 14.6471 49.8713 14.5394 49.8809C14.4317 49.8905 14.3237 49.8673 14.229 49.8142C14.1343 49.761 14.0571 49.6804 14.0074 49.5825C13.9576 49.4846 13.9374 49.3738 13.9494 49.2641C13.9614 49.1545 14.005 49.051 14.0747 48.9667C14.1444 48.8824 14.237 48.8211 14.3409 48.7905C14.4448 48.76 14.5552 48.7617 14.6581 48.7953C14.7263 48.8172 14.7896 48.8527 14.8444 48.8996C14.8992 48.9466 14.9443 49.0041 14.9773 49.0689C15.0102 49.1337 15.0303 49.2045 15.0364 49.2773C15.0425 49.35 15.0344 49.4233 15.0127 49.4928Z" fill="white"/>
<path d="M13.9744 52.8239C13.9416 52.9289 13.8791 53.0216 13.7947 53.0903C13.7103 53.159 13.6079 53.2006 13.5003 53.2099C13.3927 53.2192 13.2849 53.1957 13.1904 53.1425C13.0959 53.0892 13.019 53.0085 12.9694 52.9106C12.9198 52.8128 12.8998 52.7021 12.9119 52.5926C12.9239 52.4831 12.9675 52.3797 13.0371 52.2955C13.1067 52.2113 13.1993 52.15 13.303 52.1195C13.4067 52.0889 13.517 52.0905 13.6198 52.1239C13.6883 52.1458 13.7519 52.1814 13.8068 52.2285C13.8618 52.2756 13.9071 52.3334 13.94 52.3985C13.973 52.4635 13.993 52.5346 13.9989 52.6077C14.0048 52.6807 13.9965 52.7542 13.9744 52.8239Z" fill="white"/>
<path d="M12.9365 56.1523C12.9041 56.2575 12.8419 56.3506 12.7576 56.4197C12.6733 56.4887 12.5709 56.5308 12.4632 56.5404C12.3556 56.55 12.2475 56.5267 12.1528 56.4736C12.0581 56.4204 11.981 56.3398 11.9312 56.2419C11.8814 56.144 11.8613 56.0332 11.8732 55.9236C11.8852 55.8139 11.9288 55.7104 11.9985 55.6261C12.0682 55.5418 12.1609 55.4805 12.2647 55.45C12.3686 55.4194 12.479 55.4211 12.5819 55.4547C12.719 55.5001 12.8331 55.5987 12.8994 55.7292C12.9658 55.8598 12.9791 56.0118 12.9365 56.1523Z" fill="white"/>
</g>
<g opacity="0.4">
<path d="M19.7131 43.6862C19.6628 43.8184 19.5649 43.926 19.4396 43.9871C19.3142 44.0482 19.1707 44.0582 19.0384 44.0151C18.906 43.972 18.7947 43.879 18.7272 43.7551C18.6597 43.6311 18.641 43.4856 18.675 43.3481C18.6933 43.2743 18.7261 43.2052 18.7715 43.1449C18.8169 43.0846 18.8739 43.0344 18.9391 42.9974C19.0042 42.9605 19.0761 42.9375 19.1502 42.93C19.2244 42.9225 19.2992 42.9305 19.3702 42.9536C19.4412 42.9767 19.5068 43.0144 19.563 43.0644C19.6192 43.1144 19.6647 43.1756 19.6968 43.2442C19.729 43.3129 19.747 43.3875 19.7498 43.4635C19.7526 43.5395 19.7401 43.6153 19.7131 43.6862Z" fill="white"/>
<path d="M18.6749 47.0145C18.6423 47.1189 18.58 47.2112 18.4961 47.2796C18.4121 47.348 18.3102 47.3894 18.2032 47.3987C18.0962 47.408 17.9888 47.3848 17.8947 47.3319C17.8007 47.279 17.724 47.1988 17.6746 47.1015C17.6251 47.0041 17.605 46.894 17.6168 46.7851C17.6286 46.6761 17.6718 46.5731 17.7409 46.4892C17.81 46.4052 17.9019 46.3441 18.005 46.3134C18.1081 46.2827 18.2179 46.2839 18.3203 46.3169C18.4578 46.3617 18.5722 46.4603 18.6386 46.591C18.7051 46.7217 18.7181 46.874 18.6749 47.0145Z" fill="white"/>
<path d="M17.6369 50.3454C17.6046 50.4506 17.5423 50.5437 17.458 50.6128C17.3738 50.6819 17.2713 50.7239 17.1637 50.7335C17.056 50.7431 16.948 50.7198 16.8532 50.6667C16.7585 50.6136 16.6814 50.5329 16.6316 50.435C16.5819 50.3371 16.5617 50.2263 16.5737 50.1167C16.5857 50.007 16.6293 49.9035 16.699 49.8192C16.7687 49.7349 16.8613 49.6736 16.9652 49.6431C17.069 49.6126 17.1794 49.6142 17.2824 49.6478C17.4194 49.6932 17.5335 49.7918 17.5999 49.9224C17.6662 50.0529 17.6795 50.2049 17.6369 50.3454Z" fill="white"/>
<path d="M16.5966 53.6762C16.5463 53.8083 16.4485 53.916 16.3231 53.9771C16.1977 54.0382 16.0543 54.0482 15.9219 54.0051C15.7895 53.962 15.6783 53.869 15.6108 53.7451C15.5433 53.6211 15.5246 53.4756 15.5586 53.3381C15.5768 53.2643 15.6096 53.1952 15.655 53.1349C15.7005 53.0746 15.7575 53.0244 15.8226 52.9874C15.8877 52.9505 15.9596 52.9275 16.0338 52.92C16.1079 52.9124 16.1828 52.9205 16.2538 52.9436C16.3248 52.9667 16.3904 53.0044 16.4466 53.0544C16.5027 53.1044 16.5483 53.1656 16.5804 53.2342C16.6125 53.3029 16.6305 53.3775 16.6333 53.4535C16.6361 53.5295 16.6236 53.6053 16.5966 53.6762Z" fill="white"/>
<path d="M15.5584 57.0047C15.5258 57.1092 15.4636 57.2014 15.3796 57.2698C15.2957 57.3382 15.1938 57.3797 15.0867 57.389C14.9797 57.3983 14.8724 57.375 14.7783 57.3221C14.6842 57.2692 14.6076 57.189 14.5581 57.0917C14.5087 56.9944 14.4886 56.8843 14.5004 56.7753C14.5122 56.6663 14.5553 56.5634 14.6244 56.4794C14.6935 56.3955 14.7854 56.3343 14.8886 56.3036C14.9917 56.273 15.1014 56.2742 15.2039 56.3071C15.3413 56.352 15.4558 56.4505 15.5222 56.5812C15.5886 56.712 15.6017 56.8642 15.5584 57.0047Z" fill="white"/>
</g>
<path opacity="0.7" d="M12.7919 58.4641L5.62582 59.9735C5.29612 60.0425 4.95308 59.9752 4.67191 59.7864C4.39074 59.5976 4.19438 59.3027 4.1259 58.9664L2.06379 48.762C1.92952 48.1045 2.00847 47.4202 2.28873 46.8125C2.56898 46.2047 3.03532 45.7066 3.61737 45.3931C3.87047 45.2561 4.14148 45.1567 4.42215 45.0979L8.12414 44.3193C8.51476 44.2365 8.91755 44.2332 9.30944 44.3095C9.70133 44.3858 10.0746 44.5403 10.4079 44.7642C10.7412 44.988 11.0279 45.2767 11.2517 45.6139C11.4754 45.951 11.6318 46.3299 11.7118 46.7288L13.7763 56.9332C13.8104 57.0997 13.812 57.2714 13.7809 57.4386C13.7499 57.6057 13.6869 57.7649 13.5954 57.9072C13.504 58.0494 13.3859 58.1718 13.248 58.2673C13.1101 58.3629 12.9551 58.4298 12.7919 58.4641Z" fill="white"/>
<path d="M11.8055 47.1967L2.15552 49.2292L3.68678 56.8027L13.3368 54.7702L11.8055 47.1967Z" fill="#006466"/>
<path opacity="0.4" d="M11.8055 47.1967L2.15552 49.2292L3.68678 56.8027L13.3368 54.7702L11.8055 47.1967Z" fill="white"/>
<path d="M3.2819 42.8971L8.5364 41.7904C8.6213 41.7725 8.70882 41.7719 8.79397 41.7885C8.87912 41.8052 8.96022 41.8388 9.03264 41.8874C9.10507 41.936 9.1674 41.9987 9.21608 42.072C9.26475 42.1452 9.29883 42.2275 9.31635 42.3141L9.52143 43.3284L2.96473 44.7094L2.75777 43.6858C2.74144 43.5989 2.74204 43.5095 2.75955 43.4228C2.77705 43.3362 2.81111 43.2539 2.85978 43.1806C2.90845 43.1074 2.97078 43.0447 3.04321 42.996C3.11564 42.9474 3.19675 42.9138 3.2819 42.8971Z" fill="#006466"/>
<path opacity="0.7" d="M9.25311 44.2981C8.87871 44.2339 8.4959 44.2412 8.12409 44.3195L4.43142 45.0981C4.15075 45.1568 3.87975 45.2563 3.62664 45.3933L3.46802 44.6052L9.08516 43.4148L9.25311 44.2981Z" fill="white"/>
<path opacity="0.3" d="M3.52161 45.9551C3.51853 45.9163 3.50343 45.8795 3.4785 45.8501C3.45358 45.8206 3.42012 45.8001 3.38297 45.7913C3.34583 45.7826 3.30691 45.7861 3.27187 45.8014C3.23682 45.8167 3.20746 45.843 3.18804 45.8765C2.92743 46.3031 2.80803 46.8039 2.84746 47.305C2.97343 48.1622 4.76494 57.5071 5.0402 58.938C5.06399 59.0557 5.12655 59.1615 5.21748 59.2379C5.27804 59.2872 5.34885 59.3216 5.42448 59.3385C5.5001 59.3554 5.57852 59.3544 5.6537 59.3356L5.92663 59.2665L3.59393 47.0503C3.59393 47.0503 3.55194 46.4646 3.52161 45.9551Z" fill="white"/>
</g>
<defs>
<clipPath id="clip0_3272_3098">
<rect width="100" height="60" fill="white"/>
</clipPath>
</defs>
</svg>
