<svg width="114" height="101" viewBox="0 0 114 101" fill="none" xmlns="http://www.w3.org/2000/svg">
<g opacity="0.3">
<path d="M106.643 76.1465C106.537 75.8736 106.589 75.4967 106.851 75.1869C107.005 75.0094 107.187 74.8792 107.384 74.8057C107.625 74.7158 107.878 74.6944 108.126 74.7429C108.374 74.7915 108.612 74.9089 108.823 75.0873C108.996 75.2319 109.142 75.4268 109.248 75.657C109.428 76.0642 109.395 76.4346 109.234 76.6555C109.049 76.8617 108.816 76.9787 108.574 76.9869C108.103 77.0604 107.626 76.9677 107.192 76.7183C106.965 76.6163 106.771 76.4144 106.643 76.1465Z" fill="white"/>
</g>
<g opacity="0.3">
<path d="M102.81 82.69C102.916 82.963 102.864 83.329 102.602 83.6496C102.449 83.8278 102.266 83.9582 102.069 84.0308C101.828 84.1193 101.575 84.1407 101.327 84.0936C101.078 84.0453 100.841 83.9278 100.63 83.7492C100.457 83.604 100.312 83.4092 100.205 83.1796C100.025 82.7724 100.058 82.402 100.221 82.1832C100.405 81.9746 100.638 81.8567 100.881 81.8496C101.352 81.7755 101.829 81.869 102.262 82.1204C102.489 82.2219 102.683 82.4231 102.81 82.69Z" fill="white"/>
</g>
<g opacity="0.3">
<path d="M103.26 82.2958C103.228 82.3223 103.203 82.363 103.191 82.4109C103.178 82.4587 103.179 82.5107 103.193 82.5579C103.202 82.6078 103.225 82.6516 103.257 82.6814C103.308 82.7179 103.367 82.7272 103.422 82.7074C103.458 82.6961 103.49 82.6717 103.515 82.6372C103.541 82.6027 103.558 82.5594 103.566 82.5124C103.572 82.4655 103.568 82.4172 103.553 82.3736C103.538 82.33 103.514 82.2932 103.483 82.2677C103.448 82.2462 103.408 82.2374 103.369 82.2424C103.33 82.2473 103.292 82.2658 103.26 82.2958Z" fill="white"/>
</g>
<path d="M91.2086 50.4206L87.8558 49.121C87.5751 49.0114 87.2806 48.9758 86.9894 49.0161C86.6981 49.0564 86.4158 49.1718 86.1587 49.3558C85.9016 49.5398 85.6747 49.7886 85.491 50.0881C85.3074 50.3875 85.1706 50.7317 85.0886 51.1007C85.007 51.4687 84.9814 51.8541 85.0133 52.235C85.0452 52.616 85.1339 52.9849 85.2744 53.3208C85.4149 53.6567 85.6044 53.953 85.8322 54.1927C86.0599 54.4325 86.3214 54.6109 86.6017 54.718L89.953 56.0176L91.2086 50.4206Z" fill="#EBEBEB"/>
<path d="M89.6411 56.0068L92.994 57.3064C93.5732 57.5157 94.192 57.4144 94.7143 57.0249C95.2366 56.6354 95.6197 55.9895 95.7793 55.2292C95.9585 54.4767 95.9028 53.6615 95.6243 52.9628C95.3458 52.2642 94.8674 51.7394 94.2942 51.5037L90.9413 50.204L89.6411 56.0068Z" fill="#F5F5F5"/>
<path d="M89.641 56.0068C89.6179 56.0068 89.8902 54.692 90.2499 53.0892C90.6096 51.4863 90.9181 50.204 90.9396 50.204C90.961 50.204 90.6904 51.5188 90.3324 53.1217C89.9743 54.7245 89.6641 56.0155 89.641 56.0068Z" fill="#E0E0E0"/>
<g opacity="0.3">
<path d="M38.6102 10.9772C38.6482 10.6762 38.8561 10.4227 39.2125 10.3708C39.4176 10.3471 39.6241 10.3849 39.8164 10.4812C40.0514 10.5976 40.2647 10.7786 40.442 11.0121C40.6193 11.2456 40.7565 11.5261 40.8444 11.835C40.9175 12.086 40.9458 12.3558 40.9269 12.6234C40.8873 13.0913 40.6909 13.3642 40.4616 13.4119C40.2208 13.4347 39.9814 13.3483 39.7834 13.1671C39.5796 13.0121 39.3916 12.8235 39.2241 12.6061C39.058 12.3858 38.9144 12.1383 38.7967 11.8696C38.6584 11.6091 38.5926 11.294 38.6102 10.9772Z" fill="white"/>
</g>
<g opacity="0.3">
<path d="M38.0691 10.9426C38.1078 10.9475 38.1465 10.9343 38.1785 10.9054C38.2105 10.8765 38.2337 10.8337 38.244 10.7845C38.2571 10.7369 38.2571 10.6848 38.244 10.6372C38.2323 10.6007 38.215 10.5679 38.1931 10.5406C38.1713 10.5134 38.1453 10.4925 38.117 10.4791C38.0831 10.4603 38.0458 10.4546 38.0096 10.4627C37.9734 10.4707 37.9396 10.4922 37.9124 10.5246C37.8864 10.5575 37.8684 10.5996 37.8605 10.6458C37.8525 10.692 37.8551 10.7402 37.8678 10.7845C37.8868 10.8328 37.9158 10.8732 37.9513 10.9012C37.9869 10.9291 38.0277 10.9434 38.0691 10.9426Z" fill="white"/>
</g>
<g opacity="0.3">
<path d="M87.5636 54.2502C87.524 54.5513 87.3161 54.8068 86.9597 54.8567C86.7563 54.8796 86.5515 54.8419 86.3607 54.7462C86.1258 54.6294 85.9124 54.4482 85.7349 54.2148C85.5574 53.9814 85.4197 53.7011 85.3311 53.3924C85.2595 53.1409 85.2313 52.8716 85.2486 52.604C85.2899 52.1361 85.4846 51.8632 85.7139 51.8156C85.9547 51.7927 86.1941 51.8791 86.3921 52.0603C86.5959 52.2154 86.7839 52.4039 86.9514 52.6213C87.1179 52.8419 87.2616 53.0903 87.3788 53.3599C87.5159 53.6204 87.5811 53.9345 87.5636 54.2502Z" fill="white"/>
</g>
<g opacity="0.3">
<path d="M88.1049 54.2848C88.0662 54.2799 88.0275 54.2931 87.9955 54.322C87.9635 54.351 87.9403 54.3938 87.93 54.4429C87.9175 54.4914 87.9175 54.5439 87.93 54.5924C87.9418 54.6294 87.9593 54.6628 87.9815 54.6904C88.0036 54.718 88.0299 54.7392 88.0587 54.7527C88.0923 54.7715 88.1293 54.7773 88.1653 54.7692C88.2013 54.7611 88.2347 54.7396 88.2616 54.7072C88.2881 54.6748 88.3066 54.6326 88.3145 54.5863C88.3225 54.5399 88.3196 54.4914 88.3062 54.4473C88.2878 54.398 88.2591 54.3565 88.2235 54.3278C88.1878 54.299 88.1467 54.2841 88.1049 54.2848Z" fill="white"/>
</g>
<g opacity="0.3">
<path d="M94.6389 14.8588C94.6064 14.8871 94.5826 14.9296 94.5717 14.9788C94.5609 15.028 94.5636 15.0806 94.5795 15.1274C94.591 15.1755 94.6149 15.2169 94.6471 15.2443C94.674 15.2624 94.7033 15.273 94.7334 15.2756C94.7635 15.2783 94.7936 15.2728 94.822 15.2595C94.8571 15.2459 94.8886 15.2196 94.9128 15.1836C94.937 15.1475 94.953 15.1033 94.959 15.0559C94.9631 15.0087 94.9565 14.9609 94.94 14.9185C94.9236 14.8762 94.8981 14.8411 94.8666 14.8176C94.8294 14.7967 94.7885 14.7894 94.7484 14.7967C94.7083 14.8039 94.6704 14.8254 94.6389 14.8588Z" fill="white"/>
</g>
<g opacity="0.3">
<path d="M97.7989 8.50583C97.6834 8.2394 97.7214 7.86901 97.9722 7.53328C98.1189 7.34581 98.296 7.20437 98.4903 7.11957C98.7282 7.016 98.98 6.9791 99.2295 7.01127C99.4795 7.04377 99.7213 7.14566 99.939 7.31018C100.117 7.44431 100.269 7.63033 100.383 7.85385C100.579 8.24807 100.559 8.62062 100.404 8.85022C100.23 9.06818 100.003 9.19985 99.7625 9.22278C99.5297 9.27445 99.2928 9.28537 99.0579 9.25527C98.8229 9.2226 98.5921 9.14979 98.3715 9.03867C98.1399 8.9521 97.9378 8.76406 97.7989 8.50583Z" fill="white"/>
</g>
<g opacity="0.3">
<path d="M97.3631 8.92818C97.3858 8.90507 97.4039 8.87525 97.4161 8.84117C97.4282 8.80708 97.4341 8.7697 97.4331 8.73209C97.4321 8.69447 97.4244 8.65769 97.4105 8.62476C97.3966 8.59183 97.377 8.56368 97.3532 8.54262C97.3264 8.52446 97.2971 8.51373 97.267 8.51112C97.2369 8.50852 97.2067 8.51408 97.1783 8.52746C97.1436 8.54164 97.1126 8.56818 97.0887 8.60413C97.0648 8.64007 97.049 8.68402 97.043 8.73107C97.0384 8.77813 97.0445 8.82595 97.0607 8.8684C97.0768 8.91085 97.1023 8.946 97.1338 8.96933C97.1713 8.99024 97.2124 8.99746 97.2528 8.99022C97.2931 8.98297 97.3313 8.96154 97.3631 8.92818Z" fill="white"/>
</g>
<path d="M26.681 25.6857L19.7247 22.3837C19.2782 22.1718 18.7854 22.4751 18.6239 23.0612L13.2924 42.4163C13.1309 43.0024 13.362 43.6494 13.8085 43.8613L20.7648 47.1633C21.2113 47.3752 21.7041 47.0719 21.8656 46.4858L27.1971 27.1307C27.3586 26.5446 27.1275 25.8977 26.681 25.6857Z" fill="#F5F5F5"/>
<path d="M20.4379 45.0169C20.4379 45.0342 19.3077 44.5187 17.9266 43.8624C16.5455 43.2061 15.4284 42.6603 15.4334 42.6408C15.4383 42.6213 16.562 43.1411 17.9447 43.7974C19.3275 44.4538 20.4379 44.9996 20.4379 45.0169Z" fill="#E0E0E0"/>
<path d="M25.1174 26.8656C25.1174 26.883 23.9871 26.3675 22.6061 25.7112C21.225 25.0548 20.1079 24.5155 20.1079 24.496C20.1079 24.4765 21.2365 24.9964 22.6193 25.6527C24.002 26.309 25.1224 26.8656 25.1174 26.8656Z" fill="#E0E0E0"/>
<path d="M17.7814 43.7173C17.7682 43.7173 18.8654 39.682 20.2333 34.7175C21.6012 29.7529 22.7199 25.735 22.7331 25.7415C22.7463 25.748 21.6507 29.7768 20.2828 34.7413C18.9149 39.7058 17.7979 43.7238 17.7814 43.7173Z" fill="#E0E0E0"/>
<path d="M19.7039 28.1371L19.9844 27.0411L20.7714 27.3876C20.8817 27.4365 20.9728 27.5408 21.0248 27.6775C21.0767 27.8143 21.0853 27.9725 21.0486 28.1176C21.0304 28.1897 21.0014 28.2564 20.9635 28.3139C20.9256 28.3713 20.8794 28.4184 20.8276 28.4524C20.7758 28.4864 20.7194 28.5067 20.6616 28.512C20.6039 28.5174 20.5459 28.5077 20.4909 28.4837L19.7039 28.1371Z" fill="#EBEBEB"/>
<path d="M20.1228 27.1039L19.8439 28.1978L19.0569 27.8534C18.9477 27.8023 18.8582 27.6968 18.8079 27.5598C18.7576 27.4227 18.7504 27.2652 18.7879 27.1212C18.806 27.0492 18.8348 26.9826 18.8726 26.9252C18.9104 26.8679 18.9564 26.8209 19.0081 26.7871C19.0598 26.7533 19.1161 26.7332 19.1738 26.7281C19.2314 26.723 19.2893 26.7329 19.344 26.7574L20.1228 27.1039Z" fill="#E0E0E0"/>
<path d="M23.7546 29.9869L24.0335 28.9039L24.8206 29.2483C24.9313 29.2972 25.0228 29.4017 25.075 29.5388C25.1273 29.676 25.136 29.8347 25.0994 29.9804C25.0622 30.1257 24.9825 30.2456 24.8779 30.3139C24.7734 30.3821 24.6524 30.393 24.5417 30.3443L23.7546 29.9869Z" fill="#EBEBEB"/>
<path d="M24.1737 28.9537L23.9031 30.0497L23.116 29.7031C23.0054 29.6546 22.914 29.5506 22.8617 29.4138C22.8094 29.2769 22.8006 29.1185 22.8372 28.9732C22.8554 28.901 22.8844 28.8343 22.9223 28.7769C22.9602 28.7194 23.0064 28.6723 23.0582 28.6383C23.11 28.6043 23.1664 28.5841 23.2242 28.5787C23.2819 28.5734 23.34 28.583 23.3949 28.6071L24.1737 28.9537Z" fill="#E0E0E0"/>
<path d="M18.9067 31.1695L19.1872 30.0735L19.9743 30.4201C20.085 30.4689 20.1764 30.5735 20.2284 30.7108C20.2803 30.8481 20.2887 31.0068 20.2515 31.1522C20.2143 31.297 20.1349 31.4165 20.0307 31.4847C19.9265 31.5529 19.806 31.5642 19.6955 31.5161L18.9067 31.1695Z" fill="#EBEBEB"/>
<path d="M19.3276 30.1363L19.0471 31.2323L18.2601 30.8858C18.1494 30.8369 18.058 30.7323 18.006 30.595C17.954 30.4577 17.9457 30.299 17.9828 30.1536C18.0201 30.0083 18.0997 29.8884 18.2043 29.8201C18.3089 29.7519 18.4298 29.741 18.5406 29.7897L19.3276 30.1363Z" fill="#E0E0E0"/>
<path d="M23.05 33.0605L23.3289 31.9645L24.1176 32.311C24.2283 32.3599 24.3197 32.4645 24.3717 32.6018C24.4236 32.7391 24.432 32.8978 24.3948 33.0432C24.3576 33.1885 24.2779 33.3084 24.1734 33.3767C24.0688 33.4449 23.9478 33.4558 23.8371 33.4071L23.05 33.0605Z" fill="#EBEBEB"/>
<path d="M23.4691 32.0272L23.1903 33.1233L22.4032 32.7767C22.2925 32.7278 22.201 32.6233 22.1487 32.4861C22.0965 32.349 22.0877 32.1902 22.1243 32.0446C22.1616 31.8993 22.2412 31.7793 22.3458 31.7111C22.4504 31.6428 22.5713 31.6319 22.682 31.6807L23.4691 32.0272Z" fill="#E0E0E0"/>
<path d="M18.1116 34.202L18.3904 33.106L19.1775 33.4525C19.287 33.5031 19.3768 33.6084 19.4275 33.7455C19.4782 33.8826 19.4856 34.0404 19.4481 34.1846C19.4298 34.2565 19.401 34.3229 19.3631 34.3801C19.3253 34.4373 19.2792 34.4842 19.2276 34.518C19.1759 34.5518 19.1197 34.5719 19.0621 34.5771C19.0045 34.5824 18.9467 34.5726 18.892 34.5485L18.1116 34.202Z" fill="#EBEBEB"/>
<path d="M18.5307 33.1688L18.2502 34.2648L17.4681 33.9182C17.3574 33.8693 17.266 33.7648 17.214 33.6275C17.162 33.4902 17.1537 33.3314 17.1909 33.1861C17.2281 33.0408 17.3078 32.9209 17.4123 32.8526C17.5169 32.7844 17.6378 32.7734 17.7486 32.8222L18.5307 33.1688Z" fill="#E0E0E0"/>
<path d="M22.3455 36.134L22.6243 35.038L23.413 35.3846C23.5237 35.4335 23.6151 35.538 23.6671 35.6753C23.7191 35.8126 23.7274 35.9714 23.6902 36.1167C23.653 36.262 23.5733 36.382 23.4688 36.4502C23.3642 36.5184 23.2432 36.5294 23.1325 36.4806L22.3455 36.134Z" fill="#EBEBEB"/>
<path d="M22.7646 35.0965L22.4858 36.1925L21.6987 35.846C21.59 35.7953 21.5008 35.6907 21.4502 35.5546C21.3996 35.4186 21.3916 35.2619 21.4281 35.1182C21.4462 35.0462 21.4749 34.9795 21.5127 34.9222C21.5505 34.8648 21.5966 34.8179 21.6483 34.784C21.7 34.7502 21.7563 34.7302 21.814 34.7251C21.8716 34.72 21.9295 34.7299 21.9842 34.7543L22.7646 35.0965Z" fill="#E0E0E0"/>
<path d="M17.1379 37.3817L17.4184 36.2856L18.2055 36.6322C18.3162 36.6811 18.4076 36.7857 18.4596 36.9229C18.5115 37.0602 18.5199 37.219 18.4827 37.3643C18.4645 37.4362 18.4356 37.5026 18.3977 37.5598C18.3599 37.617 18.3138 37.6639 18.2622 37.6977C18.2105 37.7315 18.1543 37.7516 18.0967 37.7568C18.0392 37.762 17.9814 37.7523 17.9267 37.7282L17.1379 37.3817Z" fill="#EBEBEB"/>
<path d="M17.562 36.3485L17.2815 37.4445L16.4944 37.0979C16.3837 37.049 16.2924 36.9445 16.2404 36.8072C16.1884 36.6699 16.1801 36.5111 16.2172 36.3658C16.2545 36.2205 16.3341 36.1005 16.4387 36.0323C16.5433 35.9641 16.6642 35.9531 16.7749 36.0019L17.562 36.3485Z" fill="#E0E0E0"/>
<path d="M21.3933 39.251L21.6722 38.155L22.4592 38.5015C22.5141 38.5253 22.5649 38.563 22.6085 38.6126C22.6522 38.6623 22.688 38.7228 22.7138 38.7906C22.7396 38.8585 22.7548 38.9324 22.7587 39.0081C22.7626 39.0838 22.755 39.1597 22.7364 39.2315C22.7184 39.3035 22.6896 39.3701 22.6518 39.4275C22.614 39.4848 22.5679 39.5318 22.5162 39.5656C22.4645 39.5995 22.4082 39.6195 22.3506 39.6246C22.2929 39.6297 22.2351 39.6198 22.1804 39.5954L21.3933 39.251Z" fill="#EBEBEB"/>
<path d="M21.8124 38.2156L21.5336 39.3116L20.7449 38.965C20.6901 38.9411 20.6395 38.9032 20.5959 38.8535C20.5524 38.8038 20.5167 38.7433 20.4909 38.6755C20.4652 38.6077 20.4499 38.5339 20.4459 38.4584C20.4419 38.3828 20.4493 38.3069 20.4677 38.2351C20.5049 38.0897 20.5845 37.9697 20.689 37.9011C20.7935 37.8325 20.9144 37.821 21.0254 37.869L21.8124 38.2156Z" fill="#E0E0E0"/>
<path d="M16.4382 40.7975L16.7171 39.7015L17.5042 40.048C17.6148 40.0965 17.7062 40.2005 17.7585 40.3374C17.8108 40.4742 17.8196 40.6326 17.783 40.778C17.7457 40.9233 17.6662 41.0434 17.5617 41.112C17.4572 41.1806 17.3362 41.1921 17.2253 41.1441L16.4382 40.7975Z" fill="#EBEBEB"/>
<path d="M16.8575 39.7621L16.5787 40.8582L15.7916 40.5116C15.6809 40.4627 15.5894 40.3582 15.5372 40.221C15.4849 40.0839 15.4761 39.9251 15.5128 39.7795C15.552 39.6365 15.6325 39.5196 15.7368 39.454C15.8412 39.3883 15.961 39.3792 16.0705 39.4286L16.8575 39.7621Z" fill="#E0E0E0"/>
<path d="M20.4827 42.5737L20.7681 41.4777L21.5552 41.8242C21.6659 41.8731 21.7574 41.9776 21.8096 42.1148C21.8619 42.252 21.8707 42.4107 21.834 42.5563C21.8157 42.6303 21.7862 42.6986 21.7473 42.7573C21.7084 42.8159 21.6608 42.8637 21.6075 42.8976C21.5542 42.9316 21.4963 42.9511 21.4371 42.955C21.3779 42.9589 21.3187 42.9471 21.2631 42.9202L20.4827 42.5737Z" fill="#EBEBEB"/>
<path d="M20.9017 41.5404L20.6229 42.6364L19.8358 42.2899C19.7251 42.241 19.6336 42.1365 19.5814 41.9993C19.5291 41.8621 19.5203 41.7034 19.557 41.5578C19.5942 41.4145 19.6728 41.2961 19.7759 41.2281C19.8789 41.16 19.9982 41.1477 20.1081 41.1939L20.9017 41.5404Z" fill="#E0E0E0"/>
<path d="M113.987 63.3626C113.987 63.3907 112.337 63.8716 110.306 64.4456C108.275 65.0196 106.613 65.4506 106.61 65.4246C106.607 65.3986 108.26 64.9156 110.291 64.3416C112.323 63.7676 113.982 63.3323 113.987 63.3626Z" fill="#E0E0E0"/>
<path d="M109.283 36.9306C109.283 36.9566 107.633 37.4396 105.602 38.0136C103.571 38.5876 101.909 39.0186 101.906 38.9926C101.902 38.9666 103.556 38.4836 105.587 37.9096C107.618 37.3356 109.283 36.9067 109.283 36.9306Z" fill="#E0E0E0"/>
<path d="M105.58 39.2374C105.572 39.2408 105.563 39.2408 105.554 39.2374H105.544L105.618 39.2179C105.618 39.2352 105.606 39.2526 105.585 39.2591C105.564 39.2655 105.547 39.259 105.544 39.2374L105.618 39.2179C105.618 39.2214 105.618 39.2252 105.618 39.2287C105.612 39.2338 105.606 39.2372 105.6 39.2387C105.593 39.2402 105.587 39.2398 105.58 39.2374Z" fill="#E0E0E0"/>
<path d="M16.0032 76.6767L24.5196 76.8504L24.261 98.7051C24.2567 99.0658 24.1435 99.4095 23.9462 99.6606C23.7488 99.9118 23.4836 100.05 23.2088 100.044L16.7645 99.9127C16.4898 99.907 16.2279 99.7584 16.0366 99.4994C15.8453 99.2403 15.7403 98.8921 15.7445 98.5314L16.0032 76.6767Z" fill="#F5F5F5"/>
<path d="M21.2818 83.1511L15.9297 83.0419L15.8108 93.0867L21.1629 93.1959L21.2818 83.1511Z" fill="#E0E0E0"/>
<path d="M24.935 74.7885L15.3924 74.5939C15.201 74.59 15.0435 74.7905 15.0405 75.0417L15.0054 78.0131C15.0024 78.2643 15.1551 78.4711 15.3464 78.475L24.8891 78.6696C25.0804 78.6735 25.238 78.473 25.2409 78.2218L25.2761 75.2504C25.2791 74.9992 25.1264 74.7924 24.935 74.7885Z" fill="#EBEBEB"/>
<path d="M15.8156 78.4862C15.7782 77.8375 15.7705 77.1866 15.7925 76.5367C15.7857 75.8893 15.8088 75.2419 15.8618 74.5981C15.8993 75.2468 15.9064 75.8978 15.8833 76.5476C15.8911 77.195 15.8685 77.8424 15.8156 78.4862Z" fill="#E0E0E0"/>
<path d="M16.6406 78.5013C16.6011 77.8528 16.5933 77.2016 16.6175 76.5518C16.6102 75.9008 16.6327 75.2498 16.6852 74.6024C16.7237 75.251 16.7314 75.902 16.7083 76.5518C16.7156 77.2028 16.693 77.8538 16.6406 78.5013Z" fill="#E0E0E0"/>
<path d="M17.4656 78.5186C17.4282 77.87 17.421 77.2189 17.4442 76.5692C17.436 75.9182 17.4586 75.2671 17.5118 74.6198C17.5492 75.2684 17.5563 75.9194 17.5333 76.5692C17.5415 77.2202 17.5189 77.8713 17.4656 78.5186Z" fill="#E0E0E0"/>
<path d="M18.2905 78.5359C18.252 77.8874 18.2443 77.2363 18.2674 76.5865C18.2602 75.9355 18.2828 75.2845 18.3351 74.6371C18.3746 75.2856 18.3823 75.9367 18.3582 76.5865C18.3653 77.2375 18.3427 77.8885 18.2905 78.5359Z" fill="#E0E0E0"/>
<path d="M19.1157 78.5533C19.0784 77.9047 19.0712 77.2536 19.0942 76.6039C19.0864 75.9565 19.109 75.309 19.1619 74.6653C19.1994 75.3139 19.2072 75.9649 19.185 76.6147C19.1918 77.2622 19.1687 77.9095 19.1157 78.5533Z" fill="#E0E0E0"/>
<path d="M19.9488 78.5684C19.9112 77.9198 19.9035 77.2688 19.9257 76.619C19.9173 75.9679 19.9404 75.3168 19.995 74.6696C20.0324 75.3182 20.0396 75.9692 20.0164 76.619C20.0238 77.27 20.0012 77.921 19.9488 78.5684Z" fill="#E0E0E0"/>
<path d="M20.774 78.5857C20.7365 77.9371 20.7294 77.2861 20.7525 76.6363C20.7444 75.9853 20.767 75.3342 20.8202 74.6869C20.8576 75.3355 20.8653 75.9865 20.8433 76.6363C20.8505 77.2874 20.8273 77.9384 20.774 78.5857Z" fill="#E0E0E0"/>
<path d="M21.6006 78.6031C21.5631 77.9545 21.5554 77.3035 21.5775 76.6536C21.5693 76.0026 21.5925 75.3515 21.6468 74.7042C21.6842 75.3528 21.6914 76.0039 21.6682 76.6536C21.6754 77.3046 21.6528 77.9556 21.6006 78.6031Z" fill="#E0E0E0"/>
<path d="M22.4255 78.6204C22.3882 77.9718 22.381 77.3208 22.404 76.671C22.3972 76.0236 22.4198 75.3763 22.4717 74.7324C22.5093 75.381 22.517 76.032 22.4948 76.6818C22.5026 77.3293 22.4795 77.9768 22.4255 78.6204Z" fill="#E0E0E0"/>
<path d="M23.2522 78.6356C23.2147 77.987 23.207 77.336 23.2291 76.6861C23.2222 76.0387 23.2453 75.3913 23.2984 74.7476C23.3359 75.3962 23.343 76.0472 23.3199 76.697C23.3279 77.3444 23.3053 77.9918 23.2522 78.6356Z" fill="#E0E0E0"/>
<path d="M24.0788 78.6529C24.0393 78.0044 24.0316 77.3533 24.0557 76.7035C24.0487 76.0561 24.0713 75.4087 24.1234 74.7649C24.1609 75.4135 24.1687 76.0645 24.1465 76.7143C24.1534 77.3617 24.1308 78.0091 24.0788 78.6529Z" fill="#E0E0E0"/>
<path d="M24.9038 78.6702C24.8664 78.0216 24.8593 77.3706 24.8824 76.7208C24.8742 76.0698 24.8968 75.4187 24.95 74.7714C24.9874 75.42 24.9946 76.071 24.9715 76.7208C24.9797 77.3718 24.9571 78.0229 24.9038 78.6702Z" fill="#E0E0E0"/>
<path d="M19.5381 96.7999L19.5216 98.0995C19.5223 98.1415 19.5165 98.1832 19.5047 98.2222C19.4929 98.2612 19.4752 98.2967 19.4527 98.3266C19.4303 98.3565 19.4035 98.3801 19.3739 98.3962C19.3444 98.4123 19.3127 98.4204 19.2807 98.4201L18.1257 98.4028C17.9299 98.3988 17.7433 98.293 17.6069 98.1086C17.4705 97.9243 17.3954 97.6764 17.398 97.4194C17.3984 97.2912 17.4182 97.1644 17.4562 97.0463C17.4941 96.9283 17.5495 96.8212 17.6192 96.7314C17.6888 96.6416 17.7714 96.5708 17.862 96.523C17.9526 96.4753 18.0495 96.4516 18.1471 96.4533L19.3022 96.4772C19.3339 96.4777 19.3652 96.4865 19.3943 96.5031C19.4233 96.5197 19.4496 96.5437 19.4716 96.5737C19.4935 96.6038 19.5107 96.6392 19.5221 96.678C19.5336 96.7169 19.539 96.7583 19.5381 96.7999Z" fill="#EBEBEB"/>
<path d="M19.2806 98.1038L19.2954 96.8042C19.2958 96.7628 19.3025 96.7219 19.315 96.6838C19.3276 96.6458 19.3457 96.6114 19.3684 96.5826C19.3911 96.5538 19.4179 96.5312 19.4473 96.5161C19.4767 96.5009 19.5081 96.4936 19.5396 96.4945L20.6946 96.5183C20.7916 96.52 20.8874 96.5468 20.9765 96.5971C21.0656 96.6475 21.1463 96.7204 21.2139 96.8118C21.2815 96.9031 21.3347 97.0111 21.3704 97.1295C21.4062 97.2478 21.4238 97.3743 21.4223 97.5017C21.421 97.6292 21.4005 97.7551 21.3621 97.8722C21.3236 97.9893 21.2679 98.0953 21.1981 98.1841C21.1284 98.2728 21.0459 98.3426 20.9556 98.3894C20.8652 98.4362 20.7687 98.4592 20.6715 98.4569L19.5165 98.433C19.4844 98.4325 19.4526 98.4235 19.4232 98.4065C19.3938 98.3895 19.3673 98.3649 19.3453 98.3342C19.3232 98.3035 19.3062 98.2672 19.295 98.2277C19.2839 98.1881 19.279 98.1459 19.2806 98.1038Z" fill="#E0E0E0"/>
<path d="M22.2508 90.3256L23.2243 90.605C23.2552 90.6135 23.2846 90.63 23.3107 90.6534C23.3368 90.6769 23.359 90.7069 23.3762 90.7418C23.3934 90.7766 23.4052 90.8156 23.4108 90.8565C23.4164 90.8973 23.4159 90.9392 23.4091 90.9798L23.1682 92.4591C23.1266 92.7105 23.011 92.93 22.8464 93.0696C22.6819 93.2092 22.482 93.2577 22.2904 93.2043C22.0987 93.1502 21.9312 92.9985 21.8248 92.7824C21.7183 92.5663 21.6816 92.3036 21.7227 92.0519L21.9637 90.5704C21.9771 90.488 22.0149 90.416 22.0687 90.3702C22.1225 90.3243 22.188 90.3083 22.2508 90.3256Z" fill="#EBEBEB"/>
<path d="M23.1715 90.9191L22.1963 90.644C22.1344 90.6263 22.0802 90.5773 22.0456 90.5076C22.011 90.4378 21.9988 90.353 22.0115 90.2715L22.2508 88.7899C22.2919 88.5383 22.4075 88.3184 22.5721 88.1787C22.7367 88.039 22.9369 87.9908 23.1286 88.0448C23.2235 88.071 23.3136 88.1216 23.3936 88.1937C23.4736 88.2658 23.5419 88.358 23.5946 88.4649C23.6474 88.5718 23.6835 88.6913 23.701 88.8166C23.7184 88.9419 23.7168 89.0705 23.6962 89.1949L23.4553 90.6765C23.4418 90.7578 23.4045 90.8289 23.3513 90.8743C23.2982 90.9197 23.2336 90.9358 23.1715 90.9191Z" fill="#E0E0E0"/>
<path d="M22.0428 96.0006L22.9883 95.5869C23.0183 95.5734 23.05 95.5678 23.0817 95.5705C23.1134 95.5732 23.1443 95.5841 23.1727 95.6027C23.2011 95.6212 23.2264 95.647 23.2472 95.6785C23.2679 95.71 23.2837 95.7466 23.2936 95.7862L23.6582 97.2223C23.7199 97.4661 23.7054 97.7322 23.6178 97.962C23.5303 98.1918 23.3769 98.3667 23.1912 98.4482C23.0989 98.4903 23.0011 98.5077 22.9035 98.4995C22.8059 98.4914 22.7106 98.4578 22.623 98.4007C22.5355 98.3436 22.4575 98.2643 22.3935 98.1672C22.3296 98.0701 22.2811 97.9573 22.2507 97.8353L21.8861 96.3992C21.8761 96.3595 21.8723 96.3176 21.8748 96.276C21.8773 96.2344 21.8861 96.1938 21.9007 96.1567C21.9153 96.1196 21.9354 96.0867 21.9598 96.0599C21.9842 96.0331 22.0124 96.0129 22.0428 96.0006Z" fill="#EBEBEB"/>
<path d="M23.0756 95.8945L22.1301 96.3082C22.1001 96.3218 22.0684 96.3274 22.0367 96.3247C22.005 96.3219 21.9741 96.311 21.9457 96.2925C21.9173 96.2739 21.892 96.2481 21.8712 96.2166C21.8505 96.1851 21.8347 96.1485 21.8249 96.1089L21.4602 94.6729C21.3982 94.4301 21.4118 94.1651 21.4981 93.9354C21.5843 93.7058 21.7361 93.5302 21.9206 93.4469C22.0131 93.4067 22.1107 93.3911 22.2079 93.4007C22.305 93.4104 22.3997 93.4452 22.4866 93.5032C22.5734 93.5612 22.6506 93.6413 22.7138 93.7387C22.7769 93.8361 22.8248 93.9489 22.8545 94.0707L23.2191 95.5068C23.2374 95.5833 23.2327 95.666 23.206 95.7381C23.1794 95.8102 23.1327 95.8661 23.0756 95.8945Z" fill="#E0E0E0"/>
<path d="M19.5941 94.2548L19.264 95.4916C19.2428 95.5705 19.1985 95.6352 19.141 95.6713C19.0834 95.7074 19.0173 95.7122 18.9571 95.6844L17.8681 95.1862C17.7764 95.1442 17.692 95.0788 17.6195 94.9939C17.5471 94.9089 17.4882 94.8061 17.446 94.6912C17.4039 94.5764 17.3794 94.4517 17.374 94.3245C17.3685 94.1972 17.3823 94.0697 17.4144 93.9494C17.4794 93.7067 17.6151 93.5078 17.7917 93.3961C17.9683 93.2845 18.1714 93.2693 18.3565 93.3538L19.4456 93.8541C19.4754 93.8675 19.5029 93.8885 19.5266 93.916C19.5502 93.9434 19.5695 93.9767 19.5833 94.0139C19.5971 94.0512 19.6052 94.0916 19.607 94.133C19.6089 94.1743 19.6045 94.2157 19.5941 94.2548Z" fill="#EBEBEB"/>
<path d="M19.0316 95.3833L19.3616 94.1486C19.3829 94.0697 19.4271 94.0049 19.4845 93.9684C19.542 93.9319 19.6081 93.9266 19.6685 93.9537L20.7575 94.454C20.9424 94.5395 21.0939 94.7176 21.179 94.9494C21.264 95.1812 21.2756 95.4478 21.2113 95.6908C21.1462 95.933 21.0107 96.1316 20.8345 96.2432C20.6583 96.3548 20.4557 96.3703 20.2707 96.2865L19.1817 95.7862C19.1517 95.7727 19.1239 95.7517 19.1001 95.7241C19.0762 95.6966 19.0568 95.6631 19.0428 95.6257C19.0289 95.5883 19.0207 95.5476 19.0188 95.506C19.0168 95.4644 19.0212 95.4227 19.0316 95.3833Z" fill="#E0E0E0"/>
<path d="M18.1734 63.3132L19.7344 61.745C19.7845 61.6971 19.8468 61.6764 19.9083 61.6873C19.9698 61.6982 20.0257 61.7398 20.0644 61.8034L21.3184 63.9695C21.4163 64.1363 21.4881 64.3268 21.5299 64.53C21.5717 64.7333 21.5825 64.9454 21.5619 65.1542C21.5412 65.363 21.4893 65.5644 21.4094 65.7469C21.3294 65.9294 21.2228 66.0894 21.0956 66.2178C20.968 66.3456 20.8224 66.439 20.6671 66.4928C20.5119 66.5466 20.3501 66.5597 20.191 66.5314C20.0319 66.503 19.8787 66.4337 19.74 66.3275C19.6013 66.2213 19.48 66.0802 19.3829 65.9124L18.1256 63.7615C18.1059 63.7282 18.0915 63.69 18.0833 63.6492C18.075 63.6084 18.0731 63.5659 18.0775 63.5241C18.082 63.4823 18.0928 63.4421 18.1092 63.4059C18.1257 63.3697 18.1475 63.3381 18.1734 63.3132Z" fill="#EBEBEB"/>
<path d="M19.9851 62.1803L18.4225 63.7463C18.3725 63.7947 18.3101 63.8157 18.2485 63.8048C18.1869 63.7939 18.131 63.7519 18.0925 63.6878L16.8369 61.5218C16.739 61.3542 16.6674 61.163 16.626 60.959C16.5845 60.755 16.5742 60.5423 16.5955 60.333C16.6168 60.1237 16.6693 59.9221 16.7501 59.7395C16.8309 59.557 16.9383 59.3971 17.0662 59.2691C17.3241 59.0111 17.6494 58.8978 17.9708 58.9543C18.2922 59.0107 18.5835 59.2322 18.7806 59.5702L20.0363 61.7362C20.0553 61.7697 20.069 61.8078 20.0767 61.8483C20.0844 61.8889 20.0859 61.931 20.0812 61.9722C20.0764 62.0135 20.0655 62.0532 20.049 62.0889C20.0325 62.1246 20.0108 62.1556 19.9851 62.1803Z" fill="#E0E0E0"/>
<path d="M77.6227 55.327L77.9379 59.3406L75.052 59.7327C74.6467 59.7878 74.2414 59.6294 73.9252 59.2922C73.6089 58.9551 73.4076 58.4668 73.3656 57.9349C73.3236 57.4027 73.4443 56.8704 73.701 56.4549C73.9578 56.0394 74.3298 55.7747 74.7351 55.719L77.6227 55.327Z" fill="#EBEBEB"/>
<path d="M103.855 99.6372C103.855 99.6675 82.0362 99.6935 55.1258 99.6935C28.2153 99.6935 6.39355 99.674 6.39355 99.6372C6.39355 99.6004 28.2071 99.5809 55.1258 99.5809C82.0445 99.5809 103.855 99.6134 103.855 99.6372Z" fill="#263238"/>
<path d="M76 32.6735L77.4088 33.3021C78.1248 34.9032 79.2711 36.0948 80.6224 36.6427C81.9737 37.1907 83.4323 37.0553 84.7114 36.2631C85.9906 35.471 86.9977 34.0795 87.535 32.3621C88.0722 30.6446 88.1006 28.7255 87.6147 26.982C87.1288 25.2384 86.1636 23.7965 84.9089 22.9397C83.6542 22.0828 82.2008 21.873 80.8343 22.3515C79.4677 22.83 78.2869 23.9622 77.524 25.5255C76.7611 27.0888 76.4712 28.9702 76.7114 30.7998L76 32.6735Z" fill="white"/>
<path d="M76 32.6735C76 32.6735 76 32.6339 76.0395 32.5545L76.1697 32.1944L76.6811 30.7815C76.6857 30.7765 76.6915 30.7738 76.6974 30.7738C76.7033 30.7738 76.7091 30.7765 76.7137 30.7815C76.7174 30.7799 76.7215 30.7799 76.7253 30.7815L76.6788 30.7998C76.5115 29.6029 76.5714 28.3704 76.8532 27.2111C77.0394 26.4468 77.3163 25.7259 77.6738 25.0749C78.0814 24.3409 78.588 23.711 79.1685 23.2165C79.8134 22.6723 80.534 22.301 81.2886 22.124C82.1052 21.9245 82.9454 21.9662 83.7481 22.2461C84.602 22.5493 85.3922 23.1034 86.0589 23.8665C86.7592 24.6671 87.2961 25.6846 87.6211 26.8266C87.7893 27.4067 87.904 28.0111 87.9628 28.627C87.9791 28.9322 88 29.2374 88 29.5425L87.9837 29.9972V30.2231L87.9582 30.4458C87.8421 31.6084 87.5239 32.7204 87.0283 33.6958C86.56 34.6086 85.941 35.371 85.2174 35.9266C84.5529 36.445 83.8163 36.7843 83.0507 36.9245C82.36 37.0471 81.658 37.0027 80.9795 36.7932L80.5145 36.6193C80.3634 36.5552 80.2216 36.4698 80.0798 36.3996C79.8083 36.2549 79.5469 36.0792 79.2987 35.8747C78.512 35.2357 77.8573 34.3522 77.3925 33.3022H77.4064L76.358 32.8139L76.093 32.6888L76.0046 32.643L76.1023 32.6796L76.3789 32.7956L77.4204 33.2411C77.4249 33.2393 77.4298 33.2393 77.4343 33.2411C77.9044 34.2694 78.5578 35.1324 79.3382 35.7557C79.5843 35.9561 79.8433 36.1277 80.1124 36.2684C80.2518 36.3355 80.3913 36.4209 80.5401 36.4789L81.005 36.6498C81.673 36.8497 82.3631 36.888 83.0415 36.7627C83.7924 36.6199 84.5144 36.2839 85.1662 35.774C85.875 35.2271 86.4806 34.477 86.9376 33.5799C87.4141 32.6359 87.7209 31.5622 87.8349 30.4397L87.8582 30.2231V30.0033L87.8721 29.5578C87.8721 29.2526 87.8512 28.9475 87.8349 28.6637C87.7774 28.0613 87.665 27.4701 87.5002 26.9029C87.183 25.7827 86.659 24.7835 85.9752 23.9947C85.3221 23.2477 84.5489 22.7042 83.7133 22.4048C82.927 22.1274 82.1034 22.0837 81.3026 22.2766C80.5588 22.4466 79.8478 22.8074 79.2104 23.3386C78.6367 23.8256 78.1356 24.4461 77.7319 25.1695C77.3789 25.8048 77.1029 26.5079 76.9136 27.2538C76.6288 28.397 76.5602 29.614 76.7137 30.7998C76.7144 30.8086 76.7127 30.8175 76.7089 30.8248C76.705 30.8321 76.6993 30.8373 76.6928 30.8395C76.6877 30.8395 76.6826 30.8378 76.6782 30.8346C76.6737 30.8314 76.6699 30.8268 76.6672 30.8212H76.7114C76.4789 31.4315 76.3045 31.8801 76.179 32.2005C76.1209 32.3531 76.0721 32.4721 76.0395 32.5606C76.0283 32.5994 76.0151 32.6371 76 32.6735Z" fill="#263238"/>
<path d="M79.0547 30.1895L79.8939 29.0116L81.6188 30.8914L84.7967 26.5916L85.6335 27.6963L81.5514 33.0947L79.0547 30.1895Z" fill="#C4C5C5"/>
<g opacity="0.3">
<path d="M14.5233 61.0841C14.4061 61.1014 14.284 60.9346 14.1636 60.6054C14.0899 60.409 14.0345 60.2018 13.9986 59.988C13.9755 59.8667 13.954 59.7346 13.9342 59.5938C13.9104 59.4461 13.8955 59.2962 13.8897 59.1455C13.8631 58.8 13.8575 58.4524 13.8732 58.1058C13.8814 57.9173 13.8847 57.7224 13.9062 57.5231C13.9276 57.3238 13.9524 57.1202 13.9804 56.9101C14.2503 55.0766 14.9494 53.3993 15.9802 52.1124C16.1007 51.9694 16.2179 51.8308 16.3334 51.7008C16.4489 51.5709 16.5743 51.4604 16.6898 51.3499C16.9041 51.1464 17.1303 50.9653 17.3663 50.8084C17.559 50.676 17.7599 50.5651 17.9669 50.477C18.1228 50.4009 18.2851 50.35 18.4504 50.3254C18.7276 50.2821 18.8992 50.3254 18.9454 50.4662C18.9916 50.607 18.9289 50.8258 18.7688 51.0922C18.688 51.2265 18.584 51.3694 18.4718 51.5449C18.3596 51.7203 18.2161 51.8828 18.0791 52.095C17.9421 52.3073 17.7788 52.5066 17.6253 52.7449C17.5494 52.8662 17.4603 52.9788 17.3828 53.1109C17.3052 53.243 17.2178 53.3752 17.1402 53.5095C16.7914 54.1023 16.4759 54.7278 16.1964 55.3809C15.9283 56.0428 15.6967 56.729 15.5034 57.4343C15.4638 57.5989 15.4209 57.7614 15.378 57.9195C15.3351 58.0776 15.3103 58.2336 15.274 58.3852C15.1981 58.6863 15.1519 58.9743 15.0958 59.2408C15.0645 59.3729 15.0397 59.5007 15.0199 59.6242C15.0001 59.7476 14.9754 59.8624 14.9523 59.9707C14.9011 60.1873 14.8648 60.3823 14.8219 60.5425C14.7444 60.8804 14.6421 61.0841 14.5233 61.0841Z" fill="white"/>
</g>
<g opacity="0.3">
<path d="M14.9703 63.5273C14.8944 63.1808 14.6651 62.8602 14.3912 62.9079C14.2549 62.8919 14.1186 62.9377 14.0051 63.0378C13.9235 63.1269 13.8567 63.2372 13.809 63.3616C13.7614 63.4861 13.7337 63.6221 13.7279 63.7613C13.7114 63.9304 13.7325 64.1022 13.7887 64.2559C13.8449 64.4097 13.9338 64.5388 14.0447 64.6277C14.1545 64.7123 14.2811 64.7517 14.4082 64.7409C14.5352 64.7301 14.6569 64.6695 14.7575 64.567C14.8631 64.4369 14.939 64.2706 14.9766 64.0869C15.0142 63.9033 15.012 63.7095 14.9703 63.5273Z" fill="white"/>
</g>
<path d="M90.158 79.6965C87.0906 79.6965 85.0875 76.5384 85.0677 76.5081L85 76.3998L85.0677 76.2893C85.0875 76.2568 87.0906 73.0403 90.158 73.0403C93.2254 73.0403 95.2269 76.2503 95.2467 76.2893L95.3144 76.3998L95.2467 76.5081C95.2269 76.5384 93.2238 79.6965 90.158 79.6965ZM85.3432 76.3976C85.7211 76.9413 87.5361 79.3521 90.158 79.3521C92.7799 79.3521 94.5933 76.9413 94.9712 76.3976C94.595 75.8453 92.7783 73.3912 90.158 73.3912C87.5378 73.3912 85.7194 75.8453 85.3432 76.3976Z" fill="#C4C5C5"/>
<path d="M94.7962 74.0301C94.4859 73.6244 94.1479 73.2568 93.7864 72.932C93.4312 72.6014 93.0527 72.3164 92.6561 72.0807C91.8762 71.5893 91.0222 71.3342 90.1571 71.3342C89.2921 71.3342 88.4381 71.5893 87.6582 72.0807C87.2622 72.3181 86.8838 72.603 86.5279 72.932C86.1664 73.2568 85.8284 73.6244 85.5181 74.0301C86.0788 73.1226 86.7787 72.3802 87.5724 71.8511C88.3674 71.2924 89.2553 71 90.1571 71C91.059 71 91.9469 71.2924 92.7419 71.8511C93.5353 72.3808 94.2351 73.1231 94.7962 74.0301Z" fill="#C4C5C5"/>
<path d="M92.0935 76.3716C92.0939 76.8747 91.9805 77.3665 91.7679 77.785C91.5552 78.2034 91.2528 78.5297 90.8988 78.7225C90.5449 78.9153 90.1554 78.966 89.7795 78.8681C89.4036 78.7702 89.0583 78.5282 88.7872 78.1727C88.5161 77.8171 88.3315 77.364 88.2566 76.8707C88.1817 76.3773 88.22 75.8659 88.3665 75.4012C88.5131 74.9364 88.7614 74.5391 89.08 74.2596C89.3986 73.9801 89.7732 73.8309 90.1564 73.8309C90.6699 73.8309 91.1623 74.0985 91.5256 74.5749C91.8888 75.0513 92.0931 75.6976 92.0935 76.3716Z" fill="#C4C5C5"/>
<path d="M91.0918 76.3716C91.0918 76.6145 91.037 76.852 90.9342 77.0539C90.8314 77.2559 90.6853 77.4133 90.5143 77.5063C90.3433 77.5992 90.1552 77.6236 89.9738 77.5762C89.7923 77.5288 89.6256 77.4118 89.4947 77.2401C89.3639 77.0683 89.2748 76.8495 89.2387 76.6112C89.2026 76.373 89.2211 76.1261 89.2919 75.9016C89.3627 75.6772 89.4826 75.4854 89.6365 75.3505C89.7904 75.2155 89.9712 75.1435 90.1563 75.1435C90.4044 75.1435 90.6424 75.2729 90.8178 75.5032C90.9933 75.7335 91.0918 76.0459 91.0918 76.3716Z" fill="#C4C5C5"/>
<path d="M91.4369 75.5247C91.4369 75.6352 91.4119 75.7433 91.3651 75.8352C91.3183 75.9271 91.2519 75.9987 91.1741 76.041C91.0963 76.0833 91.0107 76.0944 90.9281 76.0728C90.8455 76.0512 90.7697 75.998 90.7101 75.9199C90.6506 75.8417 90.6101 75.7421 90.5936 75.6337C90.5772 75.5253 90.5856 75.413 90.6179 75.3109C90.6501 75.2087 90.7046 75.1215 90.7746 75.0601C90.8447 74.9987 90.927 74.9659 91.0112 74.9659C91.1239 74.9665 91.232 75.0255 91.3117 75.1302C91.3914 75.2349 91.4364 75.3767 91.4369 75.5247Z" fill="white"/>
<path d="M55.1758 31.5883C54.3981 31.5891 53.6233 31.4866 52.8685 31.2829C52.8386 31.2747 52.8128 31.254 52.7968 31.2252C52.7808 31.1964 52.7758 31.1618 52.7831 31.1291C52.7906 31.0959 52.8098 31.0673 52.8366 31.0494C52.8634 31.0316 52.8956 31.026 52.9261 31.0338C54.0535 31.336 55.2223 31.4094 56.3741 31.2504C56.3894 31.248 56.405 31.2489 56.42 31.2532C56.4349 31.2575 56.4489 31.265 56.4612 31.2753C56.4734 31.2856 56.4836 31.2985 56.4912 31.3132C56.4988 31.3279 56.5036 31.3441 56.5053 31.3609C56.5092 31.3945 56.5007 31.4284 56.4817 31.4552C56.4627 31.482 56.4347 31.4995 56.4039 31.5038C55.9966 31.5603 55.5864 31.5885 55.1758 31.5883ZM57.0816 31.3717C57.0548 31.3717 57.0288 31.3616 57.0081 31.343C56.9875 31.3244 56.9734 31.2986 56.9683 31.2699C56.9651 31.2534 56.9649 31.2364 56.9678 31.2198C56.9707 31.2032 56.9765 31.1874 56.985 31.1733C56.9935 31.1593 57.0045 31.1471 57.0173 31.1377C57.0301 31.1282 57.0446 31.1216 57.0597 31.1183C57.438 31.0342 57.811 30.9243 58.1766 30.789C58.191 30.7833 58.2064 30.7809 58.2218 30.7818C58.2371 30.7828 58.2522 30.7872 58.2659 30.7947C58.2797 30.8022 58.2919 30.8126 58.3018 30.8254C58.3117 30.8383 58.3192 30.8531 58.3236 30.8692C58.3338 30.9011 58.332 30.9361 58.3186 30.9665C58.3052 30.9969 58.2813 31.0204 58.2521 31.0316C57.8767 31.1703 57.4938 31.2832 57.1054 31.3695L57.0816 31.3717ZM50.7222 30.3623C50.7028 30.3625 50.6837 30.3573 50.6666 30.3472C50.5275 30.2649 50.3904 30.1782 50.2532 30.0894C50.2274 30.0711 50.2089 30.0428 50.2015 30.0103C50.1942 29.9777 50.1984 29.9433 50.2135 29.914C50.2296 29.885 50.2556 29.8641 50.2857 29.856C50.3159 29.8479 50.3478 29.8531 50.3745 29.8707C50.5076 29.9573 50.6408 30.0418 50.7719 30.1219C50.7857 30.1296 50.7979 30.1403 50.8078 30.1533C50.8177 30.1663 50.8251 30.1813 50.8296 30.1975C50.834 30.2137 50.8354 30.2307 50.8337 30.2475C50.832 30.2642 50.8272 30.2805 50.8196 30.2952C50.8099 30.3177 50.7945 30.3367 50.775 30.3498C50.7556 30.3629 50.7331 30.3695 50.7103 30.3688L50.7222 30.3623ZM61.2648 29.1602C61.2426 29.1584 61.2212 29.1498 61.2033 29.1352C61.1854 29.1207 61.1717 29.1009 61.1637 29.0781C61.1558 29.0554 61.154 29.0306 61.1585 29.0068C61.1631 28.983 61.1737 28.961 61.1893 28.9436C61.3086 28.8353 61.4238 28.727 61.5351 28.61C61.5463 28.5985 61.5595 28.5895 61.5739 28.5835C61.5883 28.5776 61.6037 28.5748 61.6191 28.5753C61.6345 28.5758 61.6497 28.5796 61.6637 28.5865C61.6778 28.5934 61.6905 28.6032 61.701 28.6154C61.7116 28.6277 61.7199 28.6421 61.7253 28.6578C61.7308 28.6735 61.7334 28.6902 61.7329 28.707C61.7325 28.7238 61.729 28.7403 61.7227 28.7556C61.7163 28.771 61.7073 28.7848 61.6961 28.7963C61.5808 28.9133 61.4616 29.0281 61.3404 29.1385C61.329 29.1493 61.3157 29.1574 61.3014 29.1623C61.287 29.1671 61.2718 29.1686 61.2569 29.1667L61.2648 29.1602ZM47.7055 27.5682C47.6875 27.5679 47.6698 27.5633 47.6537 27.5547C47.6375 27.5461 47.6233 27.5337 47.6121 27.5184C47.367 27.1804 47.1407 26.8267 46.9345 26.4592C46.9236 26.445 46.9158 26.4284 46.9114 26.4106C46.907 26.3928 46.9062 26.3742 46.909 26.356C46.9119 26.3379 46.9183 26.3206 46.9278 26.3054C46.9373 26.2902 46.9498 26.2774 46.9643 26.2679C46.9788 26.2584 46.995 26.2524 47.0118 26.2504C47.0286 26.2484 47.0456 26.2504 47.0617 26.2562C47.0777 26.262 47.0924 26.2716 47.1048 26.2842C47.1171 26.2968 47.1268 26.3121 47.1332 26.3292C47.3293 26.6913 47.5457 27.04 47.781 27.3732C47.7905 27.3866 47.7974 27.4018 47.8014 27.4181C47.8054 27.4344 47.8065 27.4514 47.8044 27.4681C47.8024 27.4848 47.7974 27.5009 47.7896 27.5155C47.7818 27.53 47.7715 27.5428 47.7592 27.553C47.741 27.5665 47.7196 27.574 47.6976 27.5747L47.7055 27.5682ZM63.117 26.8664C63.0942 26.8665 63.072 26.859 63.0534 26.8447C63.0278 26.8261 63.0099 26.7975 63.0032 26.7648C62.9965 26.7321 63.0017 26.6979 63.0176 26.6693C63.6491 25.606 64.0901 24.4219 64.3173 23.1798C64.3202 23.1634 64.326 23.1477 64.3345 23.1337C64.3429 23.1198 64.3539 23.1078 64.3666 23.0985C64.3794 23.0893 64.3938 23.0829 64.4088 23.0797C64.4239 23.0765 64.4394 23.0767 64.4544 23.0802C64.4696 23.0833 64.484 23.0896 64.4969 23.0988C64.5098 23.108 64.5209 23.1199 64.5296 23.1338C64.5382 23.1477 64.5443 23.1633 64.5475 23.1797C64.5506 23.1962 64.5507 23.2131 64.5478 23.2296C64.3142 24.5029 63.8625 25.7169 63.2164 26.8079C63.2052 26.828 63.1895 26.8446 63.1707 26.856C63.1518 26.8674 63.1306 26.8732 63.109 26.8729L63.117 26.8664ZM46.7158 25.8353C46.694 25.8349 46.6727 25.828 46.6542 25.8154C46.6356 25.8028 46.6205 25.785 46.6105 25.7639C46.0844 24.5998 45.7641 23.3381 45.6666 22.0448C45.6644 22.0112 45.6744 21.9781 45.6945 21.9525C45.7146 21.927 45.7431 21.9111 45.7739 21.9083C45.7892 21.9065 45.8047 21.9081 45.8194 21.913C45.8341 21.9178 45.8478 21.9258 45.8597 21.9365C45.8715 21.9472 45.8813 21.9604 45.8884 21.9753C45.8955 21.9901 45.8998 22.0064 45.9011 22.0231C45.9956 23.2848 46.3078 24.5157 46.8212 25.6512C46.8282 25.6662 46.8325 25.6827 46.8336 25.6995C46.8347 25.7163 46.8327 25.7332 46.8277 25.7492C46.8227 25.7652 46.8148 25.7799 46.8044 25.7925C46.7941 25.805 46.7815 25.8152 46.7675 25.8223C46.7497 25.8347 46.729 25.8414 46.7079 25.8418L46.7158 25.8353ZM64.5439 22.5863H64.53C64.4991 22.582 64.4711 22.5645 64.4521 22.5377C64.4331 22.5109 64.4247 22.477 64.4286 22.4433C64.4747 22.0257 64.4979 21.6055 64.4982 21.1849C64.4982 20.9553 64.4982 20.7235 64.4783 20.4939C64.4772 20.4771 64.4792 20.4603 64.4842 20.4444C64.4891 20.4284 64.4969 20.4137 64.507 20.401C64.5172 20.3884 64.5295 20.378 64.5433 20.3705C64.5571 20.363 64.5722 20.3586 64.5876 20.3575C64.603 20.3563 64.6184 20.3585 64.6331 20.3639C64.6477 20.3693 64.6612 20.3777 64.6728 20.3888C64.6845 20.3998 64.694 20.4133 64.7008 20.4284C64.7077 20.4434 64.7117 20.4598 64.7128 20.4766C64.7267 20.7105 64.7327 20.9488 64.7327 21.1849C64.733 21.6193 64.7091 22.0533 64.6611 22.4845C64.655 22.5149 64.6388 22.5417 64.6158 22.5601C64.5927 22.5784 64.5643 22.587 64.5359 22.5841L64.5439 22.5863ZM45.8693 19.621H45.8514C45.8209 19.6157 45.7935 19.5975 45.7753 19.5703C45.7571 19.5431 45.7494 19.5092 45.754 19.4759C45.7798 19.3048 45.8096 19.1358 45.8434 18.9669C45.8518 18.9359 45.8706 18.9096 45.8961 18.8931C45.9216 18.8767 45.9518 18.8713 45.9808 18.8782C46.0097 18.885 46.0352 18.9036 46.0521 18.9301C46.069 18.9566 46.0761 18.9891 46.072 19.021C46.0402 19.1856 46.0104 19.3503 45.9865 19.517C45.9814 19.5467 45.9668 19.5733 45.9453 19.5924C45.9239 19.6114 45.8969 19.6215 45.8693 19.621ZM63.7072 16.9286C63.6851 16.9285 63.6634 16.9215 63.6448 16.9084C63.6261 16.8954 63.6113 16.8769 63.6019 16.855C63.5363 16.7034 63.4668 16.5518 63.3932 16.4045C63.379 16.3745 63.376 16.3396 63.3849 16.3073C63.3938 16.275 63.4139 16.2477 63.4409 16.2312C63.4545 16.2232 63.4694 16.2182 63.4847 16.2165C63.5 16.2148 63.5155 16.2164 63.5303 16.2212C63.5451 16.2261 63.5588 16.234 63.5708 16.2447C63.5827 16.2553 63.5926 16.2684 63.5999 16.2832C63.6754 16.4348 63.747 16.5886 63.8145 16.7445C63.8276 16.7753 63.8291 16.8105 63.8187 16.8424C63.8083 16.8744 63.7868 16.9007 63.7589 16.9157C63.7427 16.924 63.7251 16.9285 63.7072 16.9286ZM47.3319 15.6095C47.3109 15.6093 47.2904 15.603 47.2724 15.5911C47.2545 15.5793 47.2397 15.5625 47.2298 15.5423C47.2199 15.5222 47.215 15.4995 47.2159 15.4767C47.2167 15.4538 47.2232 15.4316 47.2345 15.4124C47.4543 15.0532 47.6939 14.7089 47.9519 14.3814C47.9729 14.3563 48.0019 14.3409 48.033 14.3385C48.0641 14.3361 48.0949 14.3468 48.1189 14.3684C48.1407 14.3914 48.1536 14.4225 48.1551 14.4555C48.1566 14.4885 48.1465 14.5209 48.1268 14.546C47.8739 14.8647 47.6396 15.2004 47.4253 15.5511C47.4153 15.5684 47.4015 15.5827 47.3853 15.5929C47.369 15.6031 47.3507 15.6088 47.3319 15.6095ZM62.1551 14.3814C62.1387 14.3816 62.1225 14.378 62.1074 14.3709C62.0924 14.3639 62.0788 14.3534 62.0677 14.3402C61.2858 13.4043 60.3503 12.6359 59.3093 12.0746C59.2953 12.0674 59.2828 12.0573 59.2724 12.0447C59.2621 12.0321 59.2542 12.0174 59.2492 12.0014C59.2442 11.9855 59.2422 11.9686 59.2433 11.9517C59.2444 11.9349 59.2486 11.9185 59.2557 11.9035C59.2698 11.8734 59.294 11.8505 59.3233 11.8396C59.3526 11.8287 59.3847 11.8306 59.4127 11.845C60.4787 12.421 61.4365 13.2092 62.2366 14.1691C62.2583 14.1931 62.2705 14.2254 62.2705 14.259C62.2705 14.2927 62.2583 14.325 62.2366 14.3489C62.2247 14.3609 62.2105 14.37 62.1951 14.3756C62.1797 14.3812 62.1634 14.3832 62.1472 14.3814H62.1551ZM48.5203 14.0327C48.5047 14.0325 48.4893 14.029 48.475 14.0223C48.4606 14.0156 48.4477 14.0059 48.4368 13.9937C48.4151 13.9698 48.4029 13.9375 48.4029 13.9038C48.4029 13.8701 48.4151 13.8378 48.4368 13.8139C49.2792 12.899 50.2714 12.1643 51.3621 11.6479C51.3906 11.6341 51.4229 11.6332 51.452 11.6454C51.4811 11.6576 51.5045 11.6818 51.5172 11.7129C51.5298 11.7439 51.5306 11.7791 51.5194 11.8108C51.5083 11.8425 51.486 11.868 51.4575 11.8818C50.3928 12.3876 49.4248 13.1069 48.6038 14.0023C48.5913 14.0141 48.5768 14.0229 48.561 14.0281C48.5453 14.0333 48.5287 14.0349 48.5124 14.0327H48.5203ZM58.7191 11.7735C58.704 11.7766 58.6885 11.7766 58.6734 11.7735C58.3161 11.6148 57.9496 11.4817 57.5764 11.375C57.5464 11.3663 57.5207 11.345 57.5051 11.3158C57.4894 11.2866 57.4851 11.2517 57.4929 11.219C57.4966 11.2026 57.5033 11.1873 57.5126 11.1738C57.5218 11.1603 57.5335 11.149 57.5468 11.1405C57.5602 11.132 57.5749 11.1265 57.5903 11.1244C57.6056 11.1222 57.6212 11.1235 57.636 11.128C58.0192 11.2376 58.3955 11.3736 58.7628 11.5352C58.7915 11.5482 58.8144 11.573 58.8263 11.6043C58.8382 11.6356 58.8383 11.6707 58.8264 11.702C58.8163 11.7254 58.7998 11.7449 58.7792 11.7576C58.7585 11.7704 58.7348 11.776 58.7112 11.7735H58.7191ZM53.6535 11.1627C53.6255 11.163 53.5983 11.1521 53.5771 11.1322C53.5559 11.1123 53.5421 11.0846 53.5382 11.0544C53.5354 11.038 53.5356 11.0211 53.5389 11.0048C53.5422 10.9886 53.5485 10.9732 53.5575 10.9596C53.5664 10.946 53.5777 10.9346 53.5908 10.9259C53.6039 10.9173 53.6185 10.9116 53.6336 10.9093C53.79 10.8818 53.947 10.858 54.1046 10.8378C54.1354 10.8341 54.1663 10.8439 54.1905 10.865C54.2147 10.8861 54.2303 10.9168 54.2338 10.9504C54.236 10.9671 54.2351 10.9842 54.231 11.0005C54.2269 11.0168 54.2198 11.032 54.2101 11.0452C54.2004 11.0584 54.1884 11.0693 54.1747 11.0772C54.161 11.0851 54.1459 11.0899 54.1304 11.0912C53.9774 11.1107 53.8244 11.1345 53.6714 11.1605L53.6535 11.1627Z" fill="#C4C5C5"/>
<path d="M58.4487 29.7935C62.8129 27.8231 64.8854 22.3697 63.0777 17.6129C61.2699 12.8561 56.2665 10.5973 51.9022 12.5676C47.538 14.5379 45.4655 19.9913 47.2732 24.7481C49.081 29.5049 54.0844 31.7638 58.4487 29.7935Z" fill="#C4C5C5"/>
<path opacity="0.8" d="M63.7274 21.1806C63.7289 22.5156 63.4667 23.8354 62.9584 25.0501C62.4502 26.2648 61.708 27.346 60.7822 28.2202C60.4093 28.5702 60.0105 28.886 59.5899 29.1645C58.2562 30.0432 56.7275 30.5077 55.1691 30.5077C53.6107 30.5077 52.082 30.0432 50.7484 29.1645C50.3262 28.8886 49.9272 28.5726 49.556 28.2202C48.4783 27.1965 47.6534 25.8946 47.1569 24.4336C46.6603 22.9725 46.508 21.3991 46.7138 19.8573C46.9196 18.3154 47.477 16.8545 48.335 15.6083C49.1929 14.3621 50.324 13.3703 51.6247 12.7239C52.9253 12.0775 54.354 11.797 55.7798 11.9081C57.2057 12.0193 58.5831 12.5185 59.7861 13.3602C60.9891 14.2018 61.9792 15.3589 62.6657 16.7255C63.3521 18.0922 63.7131 19.6247 63.7155 21.1827L63.7274 21.1806Z" fill="white"/>
<path d="M60.7819 28.2201C60.409 28.5701 60.0101 28.886 59.5895 29.1645L58.6992 26.1321C58.4866 27.4468 58.2401 28.8483 58.0355 29.9724C56.1808 30.6887 54.1567 30.6887 52.3021 29.9724C52.1034 28.8483 51.851 27.4468 51.6383 26.1321L50.748 29.1645C50.3258 28.8886 49.9268 28.5725 49.5557 28.2201C49.8538 26.3898 50.5493 22.5624 51.1972 22.0144C51.1968 22.0087 51.1968 22.0029 51.1972 21.9971C51.5628 21.5401 53.6078 21.4253 53.9794 20.7971C54.2218 20.3791 54.2238 19.4217 54.196 18.8239C53.0593 17.3272 52.7314 14.1713 55.4241 14.1713C56.7894 14.1713 57.2743 15.4189 57.2028 16.7185L57.487 17.6564H57.1451C57.1451 18.6354 57.0339 19.4477 56.1098 19.5777C56.1237 20.0477 56.1813 20.5329 56.3363 20.7971C56.702 21.4253 58.7469 21.5401 59.1185 21.9971C59.1189 22.0029 59.1189 22.0087 59.1185 22.0144C59.7922 22.5603 60.4838 26.3898 60.7819 28.2201Z" fill="#C4C5C5"/>
<path d="M53.7983 22.1461C54.1507 20.5185 53.2259 18.8876 51.7325 18.5034C50.2392 18.1193 48.7428 19.1273 48.3904 20.755C48.0379 22.3826 48.9628 24.0135 50.4561 24.3977C51.9495 24.7818 53.4458 23.7738 53.7983 22.1461Z" fill="white"/>
<path d="M49.834 22.0773C50.2176 21.7567 50.5177 22.0773 50.8595 22.1986C51.2013 22.3199 51.3583 22.6989 51.1357 23.2339C50.9131 23.7689 50.1917 23.9747 49.8638 23.4917C49.5359 23.0087 49.5518 22.3112 49.834 22.0773Z" fill="#C4C5C5"/>
<path opacity="0.8" d="M49.834 22.0773C50.2176 21.7567 50.5177 22.0773 50.8595 22.1986C51.2013 22.3199 51.3583 22.6989 51.1357 23.2339C50.9131 23.7689 50.1917 23.9747 49.8638 23.4917C49.5359 23.0087 49.5518 22.3112 49.834 22.0773Z" fill="white"/>
<path d="M50.1699 22.3199C50.1926 22.2951 50.2225 22.2798 50.2544 22.2767C50.2864 22.2735 50.3184 22.2827 50.3448 22.3025C50.4262 22.3588 50.464 22.4455 50.5753 22.439C50.774 22.4282 50.8416 22.4563 50.8416 22.5949C50.8416 22.7336 51.0403 22.8115 50.9052 22.9697C50.77 23.1278 50.8416 23.3725 50.613 23.3444C50.535 23.3463 50.4574 23.3594 50.3825 23.3834C50.3428 23.3834 50.3169 23.3639 50.2792 23.3574C50.2414 23.3509 50.1719 23.379 50.1421 23.3227C50.1122 23.2664 50.1421 23.2447 50.1222 23.2101C50.1023 23.1754 50.0268 23.1646 49.9771 23.1386C49.9514 23.123 49.9305 23.0995 49.9171 23.0709C49.9037 23.0424 49.8983 23.0102 49.9016 22.9783C49.9107 22.9142 49.9362 22.8542 49.9751 22.805C49.989 22.7834 50.0049 22.7596 49.997 22.7357C49.9938 22.7267 49.9898 22.7179 49.9851 22.7097C49.9667 22.668 49.9612 22.6209 49.9692 22.5754C49.9692 22.53 49.987 22.4736 50.0268 22.4693C50.0665 22.465 50.0685 22.4693 50.0844 22.4693C50.092 22.4608 50.0975 22.4504 50.1003 22.439C50.1138 22.3935 50.1378 22.3525 50.1699 22.3199Z" fill="#C4C5C5"/>
<path d="M51.1596 19.3676C51.9167 18.9344 53.0058 19.9178 52.972 20.8557C52.9382 21.7935 52.2725 22.9307 51.2748 22.1683C50.2772 21.4058 50.2872 19.8809 51.1596 19.3676Z" fill="#C4C5C5"/>
<path opacity="0.8" d="M51.1596 19.3676C51.9167 18.9344 53.0058 19.9178 52.972 20.8557C52.9382 21.7935 52.2725 22.9307 51.2748 22.1683C50.2772 21.4058 50.2872 19.8809 51.1596 19.3676Z" fill="white"/>
<path d="M52.4493 20.6412C52.4254 20.5879 52.4093 20.5309 52.4016 20.4722C52.4047 20.4066 52.3931 20.3412 52.3678 20.2816C52.332 20.2231 52.2605 20.1906 52.2446 20.1235C52.2287 20.0564 52.2446 20.0412 52.2446 20.0022C52.2446 19.9632 52.1711 19.9221 52.1194 19.9047L51.8193 19.8008C51.7567 19.7718 51.6879 19.7621 51.6206 19.7726C51.4914 19.8073 51.4914 19.9524 51.3682 20C51.3018 20.0145 51.2397 20.0465 51.1873 20.0932C51.1745 20.1083 51.1644 20.1259 51.1575 20.1452C51.1218 20.2513 51.1854 20.3813 51.1297 20.4766C51.1001 20.5138 51.0644 20.5447 51.0244 20.5675C51.0044 20.5793 50.9876 20.5964 50.9754 20.6173C50.9632 20.6381 50.9562 20.662 50.9548 20.6867C50.9593 20.7168 50.971 20.7452 50.9886 20.769C51.1297 20.9856 50.9369 21.2368 51.0641 21.4361C51.1615 21.5856 51.3881 21.5487 51.5133 21.6744C51.553 21.7134 51.5788 21.7653 51.6226 21.8022C51.6952 21.8482 51.7794 21.8679 51.863 21.8585C51.9036 21.8607 51.9441 21.854 51.9823 21.839C52.0618 21.8 52.0955 21.6895 52.181 21.644C52.2664 21.5986 52.344 21.6137 52.3916 21.5466C52.4189 21.4893 52.4293 21.4243 52.4215 21.3603C52.4215 21.2303 52.5049 21.1437 52.5387 21.0311C52.5483 20.9629 52.5453 20.8933 52.53 20.8263C52.5146 20.7594 52.4872 20.6964 52.4493 20.6412Z" fill="#C4C5C5"/>
<path d="M52.3637 22.961C52.5067 22.9091 52.461 23.156 52.4451 23.2318C52.4135 23.4244 52.3154 23.5965 52.1709 23.7127C52.0996 23.7507 52.0217 23.7721 51.9424 23.7755C51.8291 23.7928 51.6641 23.7105 51.7873 23.5762C51.8297 23.5378 51.8803 23.5117 51.9344 23.5004C51.9878 23.4884 52.0389 23.4664 52.0854 23.4354C52.2404 23.3098 52.153 23.039 52.3637 22.961Z" fill="#C4C5C5"/>
<path d="M48.8661 21.0917C48.883 21.0947 48.8987 21.1034 48.9108 21.1166C48.9229 21.1298 48.9309 21.1469 48.9337 21.1654C48.9694 21.33 48.8959 21.5076 48.9337 21.6809C48.9515 21.7545 49.0271 21.8975 48.9337 21.9451C48.9176 21.9515 48.9003 21.9527 48.8837 21.9484C48.8671 21.9442 48.852 21.9348 48.8403 21.9213C48.7919 21.8627 48.7548 21.7942 48.7309 21.7199C48.707 21.6455 48.6969 21.5667 48.7011 21.4881C48.7011 21.3971 48.723 21.0852 48.8661 21.0917Z" fill="#C4C5C5"/>
<path d="M49.6812 20.5329C50.1264 20.3921 50.1483 21.7675 49.5719 21.4881C48.9956 21.2087 49.2361 20.6715 49.6812 20.5329Z" fill="#C4C5C5"/>
<path d="M52.9819 22.27C52.8964 22.1076 53.4529 22.008 53.2561 22.27C53.0594 22.5321 53.0693 22.4412 52.9819 22.27Z" fill="#C4C5C5"/>
<path d="M50.1144 19.5279C49.9714 19.2896 50.5119 19.1271 50.5119 19.4282C50.5119 19.7293 50.2118 19.6838 50.1144 19.5279Z" fill="#C4C5C5"/>
<path opacity="0.8" d="M49.6812 20.5329C50.1264 20.3921 50.1483 21.7675 49.5719 21.4881C48.9956 21.2087 49.2361 20.6715 49.6812 20.5329Z" fill="white"/>
<path opacity="0.8" d="M52.9819 22.27C52.8964 22.1076 53.4529 22.008 53.2561 22.27C53.0594 22.5321 53.0693 22.4412 52.9819 22.27Z" fill="white"/>
<path opacity="0.8" d="M50.1144 19.5279C49.9714 19.2896 50.5119 19.1271 50.5119 19.4282C50.5119 19.7293 50.2118 19.6838 50.1144 19.5279Z" fill="white"/>
<path d="M72.0423 93H33.9577C33.7038 92.9997 33.4604 92.8999 33.2808 92.7224C33.1013 92.5449 33.0003 92.3043 33 92.0533V46.9467C33.0003 46.6957 33.1013 46.4551 33.2808 46.2776C33.4604 46.1001 33.7038 46.0003 33.9577 46H72.0423C72.2962 46.0003 72.5396 46.1001 72.7192 46.2776C72.8987 46.4551 72.9997 46.6957 73 46.9467V92.0533C72.9997 92.3043 72.8987 92.5449 72.7191 92.7224C72.5396 92.8999 72.2962 92.9997 72.0423 93Z" fill="#E6E6E6"/>
<path d="M54.5771 43H29.986C29.4595 43.0007 28.9548 43.2048 28.5825 43.5675C28.2102 43.9303 28.0007 44.422 28 44.935V91.3512L28.2336 91.2818V44.935C28.2342 44.4823 28.419 44.0484 28.7475 43.7283C29.076 43.4082 29.5214 43.2282 29.986 43.2276H54.6495L54.5771 43ZM76.014 43H29.986C29.4595 43.0007 28.9548 43.2048 28.5825 43.5675C28.2102 43.9303 28.0007 44.422 28 44.935V97.065C28.0007 97.578 28.2102 98.0697 28.5825 98.4325C28.9548 98.7952 29.4595 98.9993 29.986 99H76.014C76.5405 98.9993 77.0452 98.7952 77.4175 98.4325C77.7898 98.0697 77.9993 97.578 78 97.065V44.935C77.9993 44.422 77.7898 43.9303 77.4175 43.5675C77.0452 43.2048 76.5405 43.0007 76.014 43ZM77.7664 97.065C77.7658 97.5177 77.581 97.9516 77.2525 98.2717C76.924 98.5918 76.4786 98.7718 76.014 98.7724H29.986C29.5214 98.7718 29.076 98.5918 28.7475 98.2717C28.419 97.9516 28.2342 97.5177 28.2336 97.065V44.935C28.2342 44.4823 28.419 44.0484 28.7475 43.7283C29.076 43.4082 29.5214 43.2282 29.986 43.2276H76.014C76.4786 43.2282 76.924 43.4082 77.2525 43.7283C77.581 44.0484 77.7658 44.4823 77.7664 44.935V97.065Z" fill="#3F3D56"/>
<path d="M63.9307 48H42.0693C41.7858 47.9997 41.514 47.8925 41.3135 47.702C41.1131 47.5116 41.0003 47.2533 41 46.9839V42.0161C41.0003 41.7467 41.1131 41.4884 41.3135 41.298C41.514 41.1075 41.7858 41.0003 42.0693 41H63.9307C64.2142 41.0003 64.486 41.1075 64.6865 41.298C64.8869 41.4884 64.9997 41.7467 65 42.0161V46.9839C64.9997 47.2533 64.8869 47.5116 64.6865 47.702C64.486 47.8925 64.2142 47.9997 63.9307 48Z" fill="#006466"/>
<path d="M53 41C54.1046 41 55 40.1046 55 39C55 37.8954 54.1046 37 53 37C51.8954 37 51 37.8954 51 39C51 40.1046 51.8954 41 53 41Z" fill="#006466"/>
<path d="M53 40C54.1046 40 55 39.5523 55 39C55 38.4477 54.1046 38 53 38C51.8954 38 51 38.4477 51 39C51 39.5523 51.8954 40 53 40Z" fill="white"/>
</svg>
