<svg width="22" height="20" viewBox="0 0 22 20" fill="none" xmlns="http://www.w3.org/2000/svg">
<path d="M7 13.6666C10.1715 14.9 11.9364 14.8776 15 13.6666M15.1804 19.1666H6.81965C4.5109 19.1666 2.6393 17.5294 2.6393 15.5098V11.0385C2.6393 10.3893 2.34447 9.76671 1.81969 9.30765C0.603805 8.24405 0.76187 6.4818 2.15251 5.59709L8.54124 1.53266C10.0071 0.600114 11.9929 0.600115 13.4588 1.53266L19.8475 5.59709C21.2381 6.4818 21.3962 8.24405 20.1803 9.30765C19.6555 9.76671 19.3607 10.3893 19.3607 11.0385V15.5098C19.3607 17.5294 17.4891 19.1666 15.1804 19.1666Z" stroke="#A4AAAB" stroke-width="1.5" stroke-linecap="round"/>
</svg>
