<svg width="250" height="250" viewBox="0 0 250 250" fill="none" xmlns="http://www.w3.org/2000/svg">
<g clip-path="url(#clip0_2558_2546)">
<path d="M250 191.2H0V191.325H250V191.2Z" fill="#EBEBEB"/>
<path d="M55.83 195.396H39.27V195.521H55.83V195.396Z" fill="#EBEBEB"/>
<path d="M81.75 199H66.665V199.125H81.75V199Z" fill="#EBEBEB"/>
<path d="M47.5501 200.035H28.425V200.16H47.5501V200.035Z" fill="#EBEBEB"/>
<path d="M224.95 199.765H217V199.89H224.95V199.765Z" fill="#EBEBEB"/>
<path d="M215.395 199.765H195.735V199.89H215.395V199.765Z" fill="#EBEBEB"/>
<path d="M140.165 195.33H125V195.455H140.165V195.33Z" fill="#EBEBEB"/>
<path d="M178.385 195.33H142.335V195.455H178.385V195.33Z" fill="#EBEBEB"/>
<path d="M118.5 168.9H21.955C21.1987 168.899 20.4738 168.597 19.9394 168.062C19.4051 167.527 19.105 166.801 19.105 166.045V30.33C19.1116 29.578 19.4146 28.859 19.9482 28.3291C20.4818 27.7992 21.203 27.5013 21.955 27.5H118.5C119.257 27.5 119.983 27.8008 120.519 28.3362C121.054 28.8716 121.355 29.5978 121.355 30.355V166.045C121.355 166.802 121.054 167.528 120.519 168.064C119.983 168.599 119.257 168.9 118.5 168.9ZM21.955 27.6C21.2318 27.6013 20.5387 27.8895 20.0278 28.4014C19.5169 28.9132 19.23 29.6068 19.23 30.33V166.045C19.23 166.768 19.5169 167.462 20.0278 167.974C20.5387 168.485 21.2318 168.774 21.955 168.775H118.5C119.224 168.774 119.917 168.486 120.429 167.974C120.941 167.462 121.229 166.769 121.23 166.045V30.33C121.229 29.6064 120.941 28.9127 120.429 28.4011C119.917 27.8894 119.224 27.6013 118.5 27.6H21.955Z" fill="#EBEBEB"/>
<path d="M226.655 168.9H130.105C129.348 168.899 128.623 168.597 128.088 168.062C127.553 167.527 127.251 166.802 127.25 166.045V30.33C127.258 29.5776 127.562 28.8585 128.096 28.3288C128.631 27.7991 129.353 27.5013 130.105 27.5H226.655C227.406 27.5026 228.126 27.8011 228.659 28.3309C229.191 28.8606 229.493 29.5789 229.5 30.33V166.045C229.5 166.8 229.201 167.525 228.667 168.06C228.134 168.595 227.41 168.897 226.655 168.9ZM130.105 27.6C129.381 27.6013 128.688 27.8894 128.176 28.4011C127.664 28.9127 127.376 29.6064 127.375 30.33V166.045C127.376 166.769 127.664 167.462 128.176 167.974C128.688 168.486 129.381 168.774 130.105 168.775H226.655C227.379 168.774 228.072 168.486 228.584 167.974C229.096 167.462 229.384 166.769 229.385 166.045V30.33C229.384 29.6064 229.096 28.9127 228.584 28.4011C228.072 27.8894 227.379 27.6013 226.655 27.6H130.105Z" fill="#EBEBEB"/>
<path d="M87.8351 191.2H85.8351C85.9307 189.028 86.183 186.865 86.5901 184.73C88.1801 174.775 90.5901 159.73 78.1501 142.585C70.7901 132.44 63.1801 117.46 68.7401 103.73C73.8501 91.1098 89.0751 82.4998 114 78.1198C149.68 71.8548 171 61.2548 175.62 47.4998C178.48 38.9998 174.885 29.2398 164.935 18.5348L166.4 17.1748C176.9 28.4548 180.625 38.8748 177.515 48.1348C172.64 62.6348 150.795 73.7098 114.34 80.1348C90.1451 84.3848 75.4251 92.5898 70.5951 104.525C65.3801 117.405 72.7051 131.72 79.7701 141.46C92.6951 159.28 90.1101 175.435 88.5651 185.09C88.1783 187.107 87.9343 189.148 87.8351 191.2Z" fill="#F5F5F5"/>
<path d="M72.2249 99.3547C77.9199 90.5547 77.8649 79.9947 72.7249 72.1797C59.9449 83.5947 72.2249 99.3547 72.2249 99.3547Z" fill="#F5F5F5"/>
<path d="M113.455 79.3047C125.735 74.3747 138.805 76.9947 147.235 85.3047C130 98.3247 113.455 79.3047 113.455 79.3047Z" fill="#F5F5F5"/>
<path d="M198.885 33.3802C194.475 42.8352 185.54 48.3802 176.22 48.1452C179.105 31.3552 198.885 33.3802 198.885 33.3802Z" fill="#F5F5F5"/>
<path d="M83.2451 148.865C78.4551 142.71 77.8201 134.865 81.1451 128.75C91.3351 136.39 83.2451 148.865 83.2451 148.865Z" fill="#F5F5F5"/>
<path d="M170.705 23.6201C162.905 23.7301 156.265 19.5201 153.38 13.1751C165.62 9.64508 170.705 23.6201 170.705 23.6201Z" fill="#F5F5F5"/>
<path d="M207.945 191.2H206.605C206.605 186.385 202.53 183.56 198.215 180.57C192.5 176.6 186 172.095 190.835 162.165C193.175 157.37 197.015 153.665 200.73 150.08C209.99 141.14 217.99 133.42 200.83 111.97C185.305 92.5596 179.205 77.2896 183.19 67.8096C185.735 61.7596 192.245 58.1696 202.54 57.1396L202.67 58.4796C192.905 59.4796 186.77 62.7697 184.43 68.3296C180.645 77.3296 186.68 92.1296 201.88 111.13C219.805 133.54 210.99 142.045 201.66 151.05C198.03 154.55 194.275 158.175 192.045 162.755C187.71 171.65 193.185 175.445 198.98 179.465C203.39 182.5 207.945 185.685 207.945 191.2Z" fill="#F5F5F5"/>
<path d="M209.5 141.29C210.54 134.325 215.255 129.03 221.325 127.385C222.685 138.8 209.5 141.29 209.5 141.29Z" fill="#F5F5F5"/>
<path d="M201.625 111.965C197.625 104.03 189.875 99.55 181.95 99.965C184.835 114.2 201.625 111.965 201.625 111.965Z" fill="#F5F5F5"/>
<path d="M178.965 50.8955C176.99 57.6205 179.035 64.3955 183.83 68.3955C189.83 58.6605 178.965 50.8955 178.965 50.8955Z" fill="#F5F5F5"/>
<path d="M190.915 163.755C193.72 159.33 193.645 154.055 191.03 150.17C184.71 155.935 190.915 163.755 190.915 163.755Z" fill="#F5F5F5"/>
<path d="M197.5 58.5C201.38 62 206.595 62.845 210.865 60.925C206.265 53.705 197.5 58.5 197.5 58.5Z" fill="#F5F5F5"/>
<path d="M120.215 191.2H118.77C118.77 186.015 114.38 182.97 109.73 179.745C103.56 175.47 96.5701 170.62 101.785 159.92C104.285 154.76 108.435 150.765 112.435 146.92C122.435 137.29 131.035 128.97 112.55 105.865C95.8201 84.955 89.2501 68.505 93.5501 58.29C96.2901 51.79 103.305 47.91 114.395 46.79L114.535 48.23C104.035 49.28 97.4051 52.855 94.8851 58.84C90.8101 68.535 97.3101 84.48 113.685 104.95C132.995 129.09 123.5 138.25 113.445 147.95C109.535 151.725 105.495 155.625 103.09 160.56C98.4201 170.145 104.315 174.235 110.56 178.56C115.305 181.85 120.215 185.255 120.215 191.2Z" fill="#F5F5F5"/>
<path d="M121.89 137.436C123.005 129.936 128.085 124.231 134.625 122.436C136.09 134.751 121.89 137.436 121.89 137.436Z" fill="#F5F5F5"/>
<path d="M113.405 105.845C109.095 97.2951 100.745 92.4701 92.2051 92.9351C95.3201 108.25 113.405 105.845 113.405 105.845Z" fill="#F5F5F5"/>
<path d="M89 40.0547C86.875 47.2997 89.075 54.5547 94.245 58.9147C100.7 48.4197 89 40.0547 89 40.0547Z" fill="#F5F5F5"/>
<path d="M101.87 161.635C104.87 156.87 104.805 151.185 101.99 147C95.18 153.21 101.87 161.635 101.87 161.635Z" fill="#F5F5F5"/>
<path d="M108.96 48.2349C113.14 52.0249 118.755 52.9149 123.355 50.8499C118.4 43.0799 108.96 48.2349 108.96 48.2349Z" fill="#F5F5F5"/>
<path d="M41.1151 58.6653L50.2551 67.8053C50.2551 67.8053 48.3251 80.6403 44.3401 76.8053C40.3551 72.9703 41.2051 70.6503 41.2051 70.6503C41.2051 70.6503 33.4401 75.0003 30.9651 66.1303C28.4901 57.2603 41.1151 58.6653 41.1151 58.6653Z" fill="#006466" fill-opacity="0.7"/>
<path d="M41.1151 58.6646L50.2551 67.8046C50.2551 67.8046 63.0951 65.8746 59.2551 61.8896C55.4151 57.9046 53.1051 58.7546 53.1051 58.7546C53.1051 58.7546 57.4301 50.9996 48.5801 48.4996C39.7301 45.9996 41.1151 58.6646 41.1151 58.6646Z" fill="#B8D4D4"/>
<path d="M40.5201 59.5099C41.3154 59.5099 41.9601 58.8652 41.9601 58.0699C41.9601 57.2746 41.3154 56.6299 40.5201 56.6299C39.7248 56.6299 39.0801 57.2746 39.0801 58.0699C39.0801 58.8652 39.7248 59.5099 40.5201 59.5099Z" fill="#C4E3E3"/>
<path d="M50.8799 68.4254C50.787 68.5191 50.6764 68.5935 50.5545 68.6442C50.4327 68.695 50.302 68.7211 50.1699 68.7211C50.0379 68.7211 49.9072 68.695 49.7854 68.6442C49.6635 68.5935 49.5529 68.5191 49.4599 68.4254L40.3149 58.6954L41.1499 57.8604L50.8549 67.0004C50.9511 67.0917 51.0281 67.2013 51.0815 67.3227C51.1348 67.4442 51.1635 67.575 51.1658 67.7076C51.1682 67.8402 51.1441 67.972 51.095 68.0952C51.0459 68.2184 50.9728 68.3307 50.8799 68.4254Z" fill="#C4E3E3"/>
<path d="M214 82.3502L209.5 90.9102C209.5 90.9102 199.895 92.3652 201.745 88.6702C203.595 84.9752 205.455 85.0702 205.455 85.0702C205.455 85.0702 200.655 80.4652 206.455 76.7402C212.255 73.0152 214 82.3502 214 82.3502Z" fill="#B8D4D4"/>
<path d="M214 82.3501L209.5 90.9101C209.5 90.9101 213.72 99.6601 215.725 96.0501C217.73 92.4401 216.605 90.9601 216.605 90.9601C216.605 90.9601 223.105 92.3251 222.93 85.4601C222.755 78.5951 214 82.3501 214 82.3501Z" fill="#4D9394"/>
<path d="M215.255 82.3C215.155 82.4888 215.002 82.6437 214.814 82.7451C214.626 82.8466 214.412 82.8901 214.199 82.8701C213.987 82.8501 213.785 82.7675 213.619 82.6327C213.453 82.4979 213.331 82.3171 213.268 82.113C213.205 81.9089 213.204 81.6907 213.266 81.486C213.327 81.2814 213.447 81.0994 213.611 80.9632C213.776 80.8269 213.977 80.7425 214.19 80.7206C214.402 80.6986 214.616 80.7402 214.805 80.84C214.931 80.9058 215.043 80.9959 215.133 81.105C215.224 81.2142 215.293 81.3404 215.335 81.4761C215.376 81.6119 215.391 81.7546 215.377 81.896C215.364 82.0374 215.322 82.1747 215.255 82.3Z" fill="#C4E3E3"/>
<path d="M209.185 91.5004C209.013 91.4073 208.885 91.2497 208.829 91.0623C208.772 90.8749 208.793 90.6729 208.885 90.5004L213.81 81.8154L214.59 82.2304L210.195 91.1904C210.15 91.2778 210.088 91.3552 210.012 91.4182C209.936 91.4813 209.849 91.5286 209.755 91.5574C209.661 91.5863 209.562 91.5961 209.464 91.5863C209.366 91.5766 209.271 91.5473 209.185 91.5004Z" fill="#C4E3E3"/>
<path d="M83.935 23.8404L80.775 29.8404C80.775 29.8404 74.055 30.8404 75.35 28.2754C76.645 25.7104 77.945 25.7754 77.945 25.7754C77.945 25.7754 74.585 22.5554 78.63 19.9504C82.675 17.3454 83.935 23.8404 83.935 23.8404Z" fill="#4D9394" fill-opacity="0.4"/>
<path d="M83.9349 23.8396L80.7749 29.8396C80.7749 29.8396 83.7249 35.9646 85.1299 33.4396C86.5349 30.9146 85.7449 29.8746 85.7449 29.8746C85.7449 29.8746 90.2999 30.8296 90.1699 26.0196C90.0399 21.2096 83.9349 23.8396 83.9349 23.8396Z" fill="#4D9394"/>
<path d="M84.8099 23.7998C84.7428 23.9344 84.6369 24.046 84.506 24.1201C84.375 24.1942 84.2249 24.2275 84.0749 24.2157C83.9249 24.2039 83.7818 24.1475 83.6641 24.0538C83.5463 23.9601 83.4592 23.8334 83.414 23.6898C83.3688 23.5463 83.3675 23.3926 83.4103 23.2483C83.4531 23.104 83.538 22.9758 83.6542 22.8802C83.7704 22.7845 83.9125 22.7258 84.0622 22.7114C84.212 22.6971 84.3627 22.7279 84.4949 22.7998C84.6667 22.8932 84.7955 23.0497 84.8543 23.2362C84.913 23.4227 84.8971 23.6247 84.8099 23.7998Z" fill="#C4E3E3"/>
<path d="M80.5601 30.2298C80.4944 30.1999 80.436 30.156 80.3889 30.1014C80.3418 30.0467 80.307 29.9825 80.2871 29.9131C80.2671 29.8438 80.2624 29.7709 80.2733 29.6996C80.2842 29.6282 80.3104 29.5601 80.3501 29.4998L83.7951 23.4248L84.3401 23.7098L81.2701 29.9998C81.2416 30.0643 81.1999 30.122 81.1476 30.1693C81.0953 30.2165 81.0336 30.2522 80.9666 30.2739C80.8996 30.2956 80.8287 30.3029 80.7586 30.2953C80.6886 30.2877 80.6209 30.2654 80.5601 30.2298Z" fill="#B8D4D4"/>
<path d="M125 213.78C178.541 213.78 221.945 211.246 221.945 208.12C221.945 204.994 178.541 202.46 125 202.46C71.4587 202.46 28.0549 204.994 28.0549 208.12C28.0549 211.246 71.4587 213.78 125 213.78Z" fill="#F5F5F5"/>
<g clip-path="url(#clip1_2558_2546)">
<path d="M133.058 97.4013C129.769 86.6097 122.289 76.712 111.944 73.0638C101.599 69.4157 86.451 74.973 78.6737 82.9523C64.4475 97.548 63.7233 151.038 73.4973 166.883C75.4413 166.777 82.1496 166.699 84.1172 166.623L86.9007 157.072V166.529C102.259 166.04 119.353 179.044 134.245 166.662C135.679 155.444 136.347 108.193 133.058 97.4013Z" fill="#2F2E41"/>
<path d="M110.637 131.262C122.89 131.262 132.823 121.036 132.823 108.422C132.823 95.8078 122.89 85.582 110.637 85.582C98.3836 85.582 88.4504 95.8078 88.4504 108.422C88.4504 121.036 98.3836 131.262 110.637 131.262Z" fill="#FFB7B7"/>
<path d="M125.881 78.6804C117.406 73.3615 106.111 73.2082 97.5026 78.2953C88.8944 83.3824 83.3269 93.5005 83.5141 103.717C95.9156 104.304 108.779 116.294 122.153 104.483L125.275 96.6177L127.116 104.489C131.141 104.489 135.173 104.483 139.214 104.473C139.663 94.265 134.357 83.9993 125.881 78.6804Z" fill="#2F2E41"/>
<path d="M130.835 94.1675C135.926 84.1449 144.988 75.7651 155.797 74.0578C158.641 73.6598 161.533 73.8102 164.324 74.5013C180.239 78.1781 190.195 94.5096 187.084 110.992C186.467 114.262 185.746 117.644 185.232 121.4C185.053 122.684 184.619 123.916 183.956 125.019C183.294 126.122 182.418 127.073 181.383 127.812C180.348 128.551 179.176 129.062 177.941 129.314C176.705 129.566 175.432 129.552 174.202 129.275L174.143 129.262L171.419 128.662C163.326 126.898 154.065 128.892 145.284 128.783C132.196 128.621 122.999 115.469 127.171 102.699C128.172 99.76 129.397 96.9073 130.835 94.1675Z" fill="#E6E7E8"/>
<path d="M151.009 131.936C163.262 131.936 173.195 121.711 173.195 109.097C173.195 96.4826 163.262 86.2568 151.009 86.2568C138.756 86.2568 128.823 96.4826 128.823 109.097C128.823 121.711 138.756 131.936 151.009 131.936Z" fill="#FFB7B7"/>
<path d="M141.114 77.0487C150.369 73.3566 161.513 75.2621 169.112 81.8364C176.71 88.4106 180.452 99.3828 178.512 109.404C166.206 107.724 151.485 117.183 140.351 103.124L138.629 94.8135L135.466 102.226C131.504 101.493 127.536 100.753 123.561 100.007C124.872 89.8784 131.859 80.7406 141.114 77.0487Z" fill="#E6E7E8"/>
<path d="M204.2 133.293C203.164 132.45 201.962 131.85 200.677 131.537C199.392 131.224 198.056 131.205 196.763 131.481C195.47 131.757 194.252 132.321 193.194 133.134C192.135 133.947 191.263 134.989 190.639 136.187L128.014 158.837L134.228 172.433L194.855 149.173C196.879 150.12 199.17 150.269 201.294 149.593C203.418 148.917 205.227 147.463 206.379 145.506C207.531 143.548 207.945 141.224 207.544 138.973C207.142 136.722 205.952 134.701 204.2 133.293Z" fill="#FFB6B6"/>
<path d="M137.281 148.229L128.029 152.35L123.084 154.554L119.858 155.989C118.491 156.361 117.213 157.017 116.1 157.915C114.196 159.447 112.863 161.608 112.326 164.033C111.789 166.459 112.081 169 113.152 171.23C114.223 173.46 116.008 175.242 118.206 176.276C120.404 177.309 122.881 177.531 125.22 176.903L144.155 174.676C144.693 174.611 145.211 174.427 145.674 174.138C146.138 173.848 146.535 173.46 146.84 172.998C147.465 172.057 153.311 169.222 153.028 168.122L155.529 166.941L159.159 165.771L172.788 159.316L170.727 151.471L172.634 141.839C172.348 140.753 141.425 148.78 140.436 148.3C139.947 148.054 139.411 147.92 138.866 147.907C138.321 147.895 137.78 148.005 137.281 148.229Z" fill="#006466"/>
<path d="M163.799 212.876H77.3015C73.7129 212.876 70.2713 211.409 67.7338 208.796C65.1963 206.184 63.7708 202.641 63.7708 198.947V166.165C63.7708 162.47 65.1963 158.927 67.7338 156.315C70.2713 153.703 73.7129 152.235 77.3015 152.235L88.3665 136.186H126.99L163.799 152.235C165.576 152.235 167.335 152.596 168.977 153.296C170.618 153.996 172.11 155.022 173.367 156.315C174.623 157.609 175.62 159.144 176.3 160.834C176.98 162.524 177.33 164.335 177.33 166.165V198.947C177.33 200.776 176.98 202.588 176.3 204.277C175.62 205.967 174.623 207.503 173.367 208.796C172.11 210.09 170.618 211.116 168.977 211.816C167.335 212.516 165.576 212.876 163.799 212.876Z" fill="#006466"/>
<path d="M194.765 212.876H117.402C115.625 212.876 113.866 212.516 112.224 211.816C110.582 211.116 109.091 210.09 107.834 208.796C106.578 207.503 105.581 205.967 104.901 204.277C104.221 202.588 103.871 200.776 103.871 198.947V166.165C103.871 162.47 105.297 158.927 107.834 156.315C110.372 153.703 113.813 152.235 117.402 152.235L137.773 136.186H176.397L194.765 152.235C198.354 152.235 201.796 153.703 204.333 156.315C206.871 158.927 208.296 162.47 208.296 166.165V198.947C208.296 202.641 206.871 206.184 204.333 208.796C201.796 211.409 198.354 212.876 194.765 212.876Z" fill="#2F2E41"/>
<path d="M125.249 208.811C124.519 209.881 123.57 210.772 122.469 211.424C121.368 212.075 120.141 212.469 118.876 212.58C117.61 212.69 116.337 212.514 115.145 212.063C113.953 211.611 112.872 210.897 111.977 209.969L57.9373 211.768L51.0277 211.998C43.9205 212.234 39.8267 203.77 44.2937 198.074L49.0933 191.954L66.2602 194.726L72.4676 195.006L112.407 196.808C114.021 195.364 116.093 194.58 118.231 194.603C120.369 194.627 122.424 195.458 124.007 196.937C125.59 198.417 126.591 200.443 126.82 202.631C127.049 204.82 126.49 207.018 125.249 208.811Z" fill="#FFB6B6"/>
<path d="M77.5809 139.475C77.5809 139.475 67.2799 136.784 62.3974 145.439C58.4886 152.369 45.1921 178.576 42.4319 189.332C28.9641 222.745 60.2771 209.439 59.401 212.591L69.8768 194.889C74.4286 192.546 65.6669 195.57 64.5127 193.89L72.543 184.905L81.6466 180.219L84.9869 143.533L77.5809 139.475Z" fill="#006466"/>
<path d="M115.344 210.207C116.074 211.277 117.023 212.169 118.124 212.82C119.226 213.471 120.452 213.866 121.717 213.976C122.983 214.087 124.256 213.91 125.448 213.459C126.64 213.008 127.722 212.293 128.616 211.365L182.656 213.164L189.565 213.394C196.673 213.631 200.767 205.166 196.3 199.47L191.5 193.351L174.333 196.122L168.126 196.403L128.186 198.204C126.572 196.76 124.5 195.976 122.362 196C120.224 196.024 118.169 196.854 116.586 198.334C115.003 199.813 114.002 201.839 113.773 204.028C113.544 206.216 114.103 208.415 115.344 210.207Z" fill="#FFB6B6"/>
<path d="M163.012 140.871C163.012 140.871 173.313 138.18 178.196 146.836C182.105 153.765 195.401 179.973 198.161 190.729C211.629 224.141 180.316 210.836 181.192 213.987L170.717 196.285C166.165 193.942 174.926 196.966 176.081 195.286L168.05 186.302L158.947 181.616L155.606 144.929L163.012 140.871Z" fill="#2F2E41"/>
</g>
</g>
<defs>
<clipPath id="clip0_2558_2546">
<rect width="250" height="250" fill="white"/>
</clipPath>
<clipPath id="clip1_2558_2546">
<rect width="250" height="250" fill="white" transform="translate(39.0625 -35.9375)"/>
</clipPath>
</defs>
</svg>
