<svg width="24" height="24" viewBox="0 0 24 24" fill="none" xmlns="http://www.w3.org/2000/svg">
<path d="M3.15799 13.93C2.80827 13.347 2.62354 12.6799 2.62354 12C2.62354 11.3201 2.80827 10.653 3.15799 10.07C3.26553 9.89051 3.40943 9.73551 3.58045 9.61496C3.75146 9.4944 3.9458 9.41096 4.15099 9.36999L5.84399 9.03099C5.94496 9.011 6.03602 8.957 6.10199 8.87799L8.16999 6.39499C9.35199 4.97499 9.94399 4.26599 10.471 4.45699C11 4.64799 11 5.57199 11 7.41999V16.582C11 18.429 11 19.352 10.472 19.544C9.94499 19.734 9.35299 19.025 8.17099 17.606L6.09999 15.122C6.03427 15.0432 5.94359 14.9892 5.84299 14.969L4.14999 14.63C3.9448 14.589 3.75046 14.5056 3.57945 14.385C3.40843 14.2645 3.26553 14.1095 3.15799 13.93Z" stroke="#006466" stroke-width="1.5"/>
<path d="M15.5359 8.46399C16.4689 9.39698 16.9953 10.661 17.0004 11.9804C17.0054 13.2999 16.4887 14.5679 15.5629 15.508" stroke="#006466" stroke-linecap="round"/>
</svg>
