<svg width="64" height="64" viewBox="0 0 64 64" fill="none" xmlns="http://www.w3.org/2000/svg">
<path d="M8.81719 56.656H55.1829C60.7818 56.656 63.5943 53.8708 63.5943 48.3531V15.6457C63.5943 10.128 60.7818 7.34283 55.1829 7.34283H8.81719C3.24576 7.34398 0.405762 10.1028 0.405762 15.6457V48.3543C0.405762 53.8983 3.24576 56.656 8.81719 56.656ZM44.8972 31.9337C43.6915 30.8628 42.3258 30.2994 40.88 30.2994C39.3795 30.2994 38.0663 30.8091 36.8343 31.9074L24.728 42.7291L19.7726 38.2285C18.6469 37.2377 17.4412 36.7017 16.1566 36.7017C14.9772 36.7017 13.8252 37.2114 12.728 38.2023L4.7189 45.4057V15.8628C4.7189 13.0765 6.21833 11.6571 8.89719 11.6571H55.1029C57.7543 11.6571 59.2812 13.0765 59.2812 15.8628V45.4343L44.8972 31.9337ZM20.3612 32.2285C23.8172 32.2285 26.656 29.3897 26.656 25.9074C26.656 22.4525 23.8172 19.5863 20.3612 19.5863C16.88 19.5863 14.0412 22.4525 14.0412 25.9074C14.0442 27.5828 14.711 29.1886 15.8955 30.3734C17.0801 31.5581 18.6858 32.2252 20.3612 32.2285Z" fill="#C0DDDD"/>
</svg>
