<svg width="155" height="274" viewBox="0 0 155 274" fill="none" xmlns="http://www.w3.org/2000/svg">
<path d="M131.938 60.7588C128.586 58.9507 125.099 57.3727 121.505 56.0372C118.183 54.8313 115.323 52.7147 113.296 49.9615C111.268 47.2084 110.166 43.9458 110.133 40.5967V21.7541H44.7323V40.5967C44.7086 43.9534 43.6096 47.2254 41.579 49.9857C39.5484 52.746 36.6803 54.8663 33.3491 56.0699C29.7553 57.4054 26.2687 58.9834 22.9165 60.7915C7.84709 68.9697 0.347168 79.6886 0.347168 90.3966V232.48C0.347168 243.188 7.87027 253.906 22.9165 262.085C53.0553 278.441 101.822 278.441 131.88 262.085C146.949 253.906 154.461 243.198 154.461 232.48V90.3639C154.519 79.645 146.949 68.937 131.938 60.7588Z" fill="#006466" fill-opacity="0.05"/>
<path opacity="0.7" d="M131.938 60.7588C128.586 58.9507 125.099 57.3727 121.505 56.0372C118.183 54.8313 115.323 52.7147 113.296 49.9615C111.268 47.2084 110.166 43.9458 110.133 40.5967V21.7541H44.7323V40.5967C44.7086 43.9534 43.6096 47.2254 41.579 49.9857C39.5484 52.746 36.6803 54.8663 33.3491 56.0699C29.7553 57.4054 26.2687 58.9834 22.9165 60.7915C7.84709 68.9697 0.347168 79.6886 0.347168 90.3966V232.48C0.347168 243.188 7.87027 253.906 22.9165 262.085C53.0553 278.441 101.822 278.441 131.88 262.085C146.949 253.906 154.461 243.198 154.461 232.48V90.3639C154.519 79.645 146.949 68.937 131.938 60.7588Z" fill="white"/>
<path d="M77.4794 274.319C120.021 274.319 154.507 255.772 154.507 232.894C154.507 210.015 120.021 191.468 77.4794 191.468C34.9382 191.468 0.45166 210.015 0.45166 232.894C0.45166 255.772 34.9382 274.319 77.4794 274.319Z" fill="#006466" fill-opacity="0.05"/>
<path opacity="0.5" d="M77.4794 274.319C120.021 274.319 154.507 255.772 154.507 232.894C154.507 210.015 120.021 191.468 77.4794 191.468C34.9382 191.468 0.45166 210.015 0.45166 232.894C0.45166 255.772 34.9382 274.319 77.4794 274.319Z" fill="white"/>
<path opacity="0.4" d="M116.381 41.5672C102.205 33.8688 82.174 31.2517 63.998 33.7488V21.7541H44.7323V40.5858C44.7125 43.9447 43.6153 47.2198 41.5843 49.9825C39.5533 52.7452 36.683 54.8669 33.3491 56.0699C29.7602 57.416 26.2744 58.9936 22.9165 60.7915C22.789 60.7915 22.6846 60.9332 22.5455 60.9877C7.73116 69.1441 0.347168 79.7649 0.347168 90.4293V232.436C0.347168 243.166 7.87027 253.863 22.9165 262.041C44.57 273.807 75.8912 277.056 102.97 271.909C40.3042 275.955 25.2348 250.962 25.2348 232.883V94.7365C25.2348 88.3575 26.2549 83.0907 31.0308 78.6527C33.351 80.65 35.9062 82.3914 38.6466 83.8431C60.1495 95.5107 94.983 95.5107 116.463 83.8431C137.942 72.1755 137.884 53.2566 116.381 41.5672Z" fill="white"/>
<path opacity="0.4" d="M131.938 60.7588C128.586 58.9507 125.099 57.3727 121.505 56.0372C118.183 54.8313 115.323 52.7147 113.296 49.9615C111.268 47.2084 110.166 43.9458 110.133 40.5967V21.7541H102.993V46.9757C102.993 52.7877 108.314 58.3162 114.469 61.4784C120.624 64.6407 140.191 72.6335 144.932 81.3788C149.453 89.6987 147.981 106.241 147.981 125.868V226.188C147.981 238.924 142.336 257.352 117.193 268.431C122.304 266.79 127.244 264.709 131.949 262.216C147.019 254.037 154.519 243.755 154.519 232.48V90.3639C154.519 79.645 146.949 68.937 131.938 60.7588Z" fill="white"/>
<path d="M132.518 48.197V53.5619C132.518 61.1949 127.175 68.8933 116.383 74.7708C94.903 86.4274 60.0811 86.4274 38.5434 74.7708C33.8028 72.3362 29.6845 68.9571 26.4763 64.8697C23.926 61.6197 22.5233 57.6992 22.4656 53.66V48.0879C22.4479 46.9195 22.592 45.7538 22.8945 44.6204C24.2275 38.1432 29.467 31.8624 38.5434 26.9336C38.8027 26.78 39.0739 26.6452 39.3549 26.5302C60.9273 15.2769 95.1696 15.4296 116.383 26.9336C125.459 31.8624 130.757 38.1432 132.09 44.5768C132.393 45.7619 132.537 46.9781 132.518 48.197Z" fill="#F0F0F0"/>
<path d="M82.0359 77.9439V58.8941C82.0359 51.3592 84.0645 61.5547 70.0152 61.5547C57.8322 61.5547 46.9938 35.1227 39.4127 26.5302C39.1318 26.6452 38.8606 26.78 38.6013 26.9336C29.5249 31.8623 24.2854 38.1432 22.9523 44.6204C22.6499 45.7538 22.5057 46.9195 22.5234 48.0879V53.66C22.5811 57.6992 23.9838 61.6197 26.5342 64.8696C29.7423 68.9571 33.8606 72.3361 38.6013 74.7707C60.1389 86.4274 94.9608 86.4274 116.44 74.7707C101.209 80.3973 82.0359 85.1298 82.0359 77.9439Z" fill="#E0E0E0" fill-opacity="0.05"/>
<path d="M77.4801 77.9657C107.87 77.9657 132.507 64.5841 132.507 48.077C132.507 31.57 107.87 18.1884 77.4801 18.1884C47.0898 18.1884 22.4536 31.57 22.4536 48.077C22.4536 64.5841 47.0898 77.9657 77.4801 77.9657Z" fill="#455A64" fill-opacity="0.05"/>
<path d="M132.518 30.2485V40.9565C132.536 42.1753 132.392 43.3915 132.089 44.5767C130.756 51.0102 125.459 57.2911 116.382 62.2089C106.761 67.443 94.4855 70.2999 81.9779 70.8124C66.4332 71.5103 50.4596 68.6316 38.5432 62.1653C33.8233 59.7404 29.709 56.3943 26.4761 52.3515C24.709 50.0471 23.4948 47.4093 22.9174 44.6203C22.6149 43.4721 22.4707 42.292 22.4885 41.1091V30.1503C22.4885 22.5173 27.8324 14.8843 38.5664 8.99599C39.5285 8.49439 40.4906 7.99279 41.5107 7.53481C63.1411 -2.66071 95.8881 -2.1591 116.406 8.99599C127.174 14.8734 132.565 22.5609 132.518 30.2485Z" fill="#F0F0F0"/>
<path d="M77.4801 59.7773C107.87 59.7773 132.507 46.3957 132.507 29.8887C132.507 13.3816 107.87 0 77.4801 0C47.0898 0 22.4536 13.3816 22.4536 29.8887C22.4536 46.3957 47.0898 59.7773 77.4801 59.7773Z" fill="#FAFAFA"/>
<path d="M26.4764 52.3187C29.7093 56.3615 33.8236 59.7076 38.5435 62.1325C50.4599 68.6097 66.4334 71.4775 81.9781 70.7796C82.1288 67.0177 84.366 64.1389 69.9573 61.5219C57.9946 59.341 40.3054 54.674 32.052 42.374C24.471 31.0662 28.8295 16.2037 41.4878 7.48022C40.4677 7.9382 39.5056 8.4398 38.5435 8.9414C27.8094 14.7752 22.4656 22.4082 22.4656 30.0957V41.0545C22.4478 42.2374 22.5919 43.4175 22.8945 44.5657C23.4756 47.3641 24.6979 50.0098 26.4764 52.3187Z" fill="#E0E0E0" fill-opacity="0.05"/>
<path d="M132.205 141.701C101.962 157.97 52.9284 157.97 22.6852 141.701C7.55789 133.578 0 122.913 0 112.26V182.614C0 193.268 7.55789 203.932 22.6852 212.056C52.9284 228.325 101.962 228.325 132.205 212.056C147.332 203.932 154.89 193.268 154.89 182.614V112.26C154.89 122.913 147.332 133.578 132.205 141.701Z" fill="#006466" fill-opacity="0.05"/>
<path d="M132.205 134.962C101.962 151.221 52.9284 151.221 22.6852 134.962C7.55789 126.828 0 116.174 0 105.521V175.875C0 186.54 7.55789 197.193 22.6852 205.317C52.9284 221.575 101.962 221.575 132.205 205.317C147.332 197.182 154.89 186.529 154.89 175.875V105.51C154.89 116.174 147.332 126.828 132.205 134.962Z" fill="#FAFAFA"/>
<path d="M52.326 176.442C52.2595 172.04 51.2585 167.695 49.3817 163.662V163.575C47.2372 158.974 44.1306 155.114 40.6763 153.238C35.6338 150.512 31.4028 154.994 29.722 161.264C29.5597 161.896 28.7714 161.929 28.6671 161.264C27.137 153.085 22.7321 143.5 17.5389 140.709C14.0614 138.844 10.978 139.346 8.84507 141.647C7.02515 143.653 5.91233 146.957 5.92392 151.264C5.92392 164.611 14.4903 176.595 21.6541 189.211L29.3858 201.391L36.735 197.357C43.7829 192.548 52.3492 189.789 52.326 176.442Z" fill="#006466" fill-opacity="0.05"/>
<path d="M18.5476 172.081L21.8513 163.935C21.9318 163.676 22.0998 163.449 22.3298 163.287C22.5599 163.126 22.8395 163.04 23.1264 163.041C23.4157 163.043 23.6956 163.138 23.9192 163.311C24.1429 163.483 24.2967 163.723 24.3551 163.99L29.4671 182.69L33.5359 172.222C33.6301 171.983 33.8015 171.778 34.026 171.635C34.2505 171.493 34.5169 171.419 34.7878 171.426C35.0546 171.442 35.3096 171.536 35.5173 171.694C35.7251 171.852 35.8752 172.067 35.947 172.31L38.9724 182.429L49.4862 188.132L49.2428 188.481C48.882 188.954 48.495 189.409 48.0836 189.844L47.8634 190.084L37.1873 184.282C36.8966 184.126 36.684 183.867 36.5961 183.563L34.5096 176.595L30.2786 187.499C30.1819 187.746 30.0034 187.956 29.7695 188.099C29.5357 188.243 29.2589 188.312 28.9803 188.295C28.7043 188.275 28.4425 188.172 28.2336 188.002C28.0248 187.831 27.8801 187.601 27.8211 187.347L22.9177 169.355L20.5994 174.251C20.5475 174.429 20.4525 174.593 20.3218 174.732C20.1911 174.87 20.0282 174.977 19.8459 175.047C19.6604 175.12 19.4592 175.153 19.2582 175.141C19.0571 175.13 18.8616 175.075 18.6867 174.981L10.2826 170.412L10.2247 170.303C9.81897 169.442 9.42484 168.591 9.0655 167.73L8.625 166.705L18.5476 172.081Z" fill="#FAFAFA"/>
<path d="M78.0247 171.95C75.0688 171.95 72.0896 171.862 69.0642 171.688C68.7586 171.668 68.4737 171.536 68.2717 171.319C68.0697 171.103 67.9671 170.82 67.9861 170.532C68.007 170.245 68.1479 169.977 68.3781 169.787C68.6084 169.597 68.9092 169.5 69.2149 169.518C89.5817 170.685 108.627 167.806 124.346 161.176C124.485 161.118 124.635 161.085 124.788 161.081C124.94 161.077 125.092 161.101 125.235 161.152C125.377 161.204 125.508 161.281 125.619 161.379C125.73 161.478 125.819 161.596 125.882 161.727C125.944 161.858 125.978 161.999 125.983 162.143C125.987 162.286 125.961 162.429 125.907 162.563C125.853 162.698 125.771 162.82 125.666 162.925C125.561 163.029 125.435 163.113 125.296 163.172C111.595 168.962 95.3893 171.95 78.0247 171.95Z" fill="#E0E0E0" fill-opacity="0.05"/>
<path d="M78.0247 183.792C75.0688 183.792 72.0896 183.705 69.0642 183.53C68.7586 183.511 68.4737 183.378 68.2717 183.161C68.0697 182.945 67.9671 182.662 67.9861 182.374C68.007 182.087 68.1479 181.819 68.3781 181.629C68.6084 181.439 68.9092 181.342 69.2149 181.36C89.5817 182.527 108.627 179.648 124.346 173.018C124.627 172.9 124.947 172.891 125.235 172.995C125.523 173.098 125.756 173.304 125.882 173.569C126.008 173.834 126.017 174.135 125.907 174.406C125.797 174.677 125.578 174.895 125.296 175.014C111.595 180.804 95.3893 183.792 78.0247 183.792Z" fill="#E0E0E0" fill-opacity="0.05"/>
<path d="M78.0241 195.645C75.0682 195.645 72.089 195.558 69.0636 195.383C68.7561 195.364 68.4692 195.231 68.266 195.014C68.0627 194.796 67.9598 194.511 67.9797 194.222C67.9997 193.933 68.141 193.663 68.3726 193.471C68.6041 193.28 68.9068 193.183 69.2143 193.202C89.5811 194.38 108.627 191.501 124.345 184.871C124.625 184.753 124.943 184.744 125.23 184.847C125.517 184.949 125.749 185.154 125.875 185.417C125.939 185.547 125.975 185.689 125.98 185.833C125.986 185.977 125.961 186.121 125.907 186.255C125.853 186.39 125.771 186.514 125.666 186.619C125.561 186.724 125.435 186.808 125.296 186.867C111.594 192.635 95.3887 195.645 78.0241 195.645Z" fill="#E0E0E0" fill-opacity="0.05"/>
</svg>
