<svg width="177" height="261" viewBox="0 0 177 261" fill="none" xmlns="http://www.w3.org/2000/svg">
<path d="M13.0117 15.5324V228.464C13.0117 236.597 15.8585 244.396 20.9258 250.147C25.9932 255.897 32.8659 259.128 40.0321 259.128C47.1984 259.128 54.0711 255.897 59.1384 250.147C64.2057 244.396 67.0526 236.597 67.0526 228.464V15.5324H13.0117Z" fill="white"/>
<path d="M40.0331 260.915C32.4434 260.905 25.167 257.479 19.8003 251.389C14.4335 245.298 11.4148 237.041 11.4062 228.428V15.5324C11.4062 15.0489 11.5755 14.5852 11.8768 14.2433C12.1781 13.9014 12.5866 13.7094 13.0127 13.7094H67.0535C67.4796 13.7094 67.8882 13.9014 68.1894 14.2433C68.4907 14.5852 68.66 15.0489 68.66 15.5324V228.464C68.643 237.071 65.6204 245.319 60.2546 251.402C54.8888 257.484 47.6173 260.905 40.0331 260.915ZM14.6191 17.319V228.428C14.6191 236.077 17.2967 243.413 22.0627 248.821C26.8288 254.23 33.2929 257.268 40.0331 257.268C46.7733 257.268 53.2375 254.23 58.0035 248.821C62.7696 243.413 65.4471 236.077 65.4471 228.428V17.319H14.6191Z" fill="#263238" fill-opacity="0.03"/>
<path d="M40.0321 248.153C35.4222 248.153 31.0011 246.075 27.7414 242.376C24.4817 238.676 22.6504 233.659 22.6504 228.428V80.0681H57.4139V228.428C57.4054 233.656 55.5714 238.668 52.3135 242.365C49.0556 246.062 44.6395 248.143 40.0321 248.153Z" fill="#006466" fill-opacity="0.05"/>
<path d="M40.0326 249.976C34.9993 249.966 30.1745 247.693 26.6153 243.654C23.0562 239.615 21.0529 234.14 21.0444 228.428V80.1045C21.0444 79.621 21.2137 79.1573 21.515 78.8154C21.8162 78.4735 22.2248 78.2815 22.6509 78.2815H57.4144C57.8404 78.2815 58.249 78.4735 58.5503 78.8154C58.8516 79.1573 59.0208 79.621 59.0208 80.1045V228.428C59.0123 234.14 57.0091 239.615 53.4499 243.654C49.8908 247.693 45.066 249.966 40.0326 249.976ZM24.2573 81.9276V228.428C24.2573 233.176 25.9194 237.729 28.8778 241.086C31.8363 244.444 35.8488 246.33 40.0326 246.33C44.2165 246.33 48.229 244.444 51.1874 241.086C54.1459 237.729 55.8079 233.176 55.8079 228.428V81.9276H24.2573Z" fill="#263238" fill-opacity="0.03"/>
<path d="M78.4272 1.82306H1.60693V15.4959H78.4272V1.82306Z" fill="white"/>
<path d="M78.4267 17.3189H1.60645C1.18039 17.3189 0.771807 17.1269 0.47054 16.785C0.169273 16.4431 0 15.9794 0 15.4959V1.82305C0 1.33954 0.169273 0.875817 0.47054 0.533929C0.771807 0.192041 1.18039 0 1.60645 0H78.4267C78.8527 0 79.2614 0.192041 79.5626 0.533929C79.8639 0.875817 80.0331 1.33954 80.0331 1.82305V15.5323C80.0247 16.0095 79.8518 16.4639 79.5514 16.7979C79.2511 17.132 78.8472 17.319 78.4267 17.3189ZM3.21289 13.6729H76.8202V3.64609H3.21289V13.6729Z" fill="#263238" fill-opacity="0.03"/>
<path d="M110.267 15.5324V228.464C110.267 236.597 113.113 244.396 118.181 250.147C123.248 255.897 130.121 259.128 137.287 259.128C144.453 259.128 151.326 255.897 156.393 250.147C161.461 244.396 164.307 236.597 164.307 228.464V15.5324H110.267Z" fill="white"/>
<path d="M137.351 260.915C129.761 260.905 122.485 257.479 117.118 251.389C111.751 245.298 108.733 237.041 108.724 228.428V15.5324C108.724 15.0489 108.893 14.5852 109.195 14.2433C109.496 13.9014 109.905 13.7094 110.331 13.7094H164.371C164.797 13.7094 165.206 13.9014 165.507 14.2433C165.809 14.5852 165.978 15.0489 165.978 15.5324V228.464C165.961 237.071 162.938 245.319 157.573 251.402C152.207 257.484 144.935 260.905 137.351 260.915ZM111.937 17.319V228.428C111.937 236.077 114.615 243.413 119.381 248.821C124.147 254.23 130.611 257.268 137.351 257.268C144.091 257.268 150.555 254.23 155.321 248.821C160.087 243.413 162.765 236.077 162.765 228.428V17.319H111.937Z" fill="#263238" fill-opacity="0.03"/>
<path d="M137.351 248.153C132.744 248.143 128.328 246.062 125.07 242.365C121.812 238.668 119.978 233.656 119.97 228.428V155.834H154.765V228.428C154.757 233.663 152.918 238.68 149.654 242.378C146.389 246.076 141.964 248.153 137.351 248.153Z" fill="#006466" fill-opacity="0.05"/>
<path d="M137.351 249.976C132.318 249.967 127.493 247.693 123.934 243.654C120.375 239.615 118.371 234.14 118.363 228.428V155.834C118.363 155.351 118.532 154.887 118.833 154.545C119.135 154.203 119.543 154.011 119.969 154.011H154.733C155.159 154.011 155.567 154.203 155.869 154.545C156.17 154.887 156.339 155.351 156.339 155.834V228.428C156.331 234.14 154.327 239.615 150.768 243.654C147.209 247.693 142.384 249.967 137.351 249.976ZM121.576 157.73V228.501C121.576 233.249 123.238 237.802 126.196 241.16C129.155 244.517 133.167 246.403 137.351 246.403C141.535 246.403 145.547 244.517 148.506 241.16C151.464 237.802 153.126 233.249 153.126 228.501V157.73H121.576Z" fill="#263238" fill-opacity="0.03"/>
<path d="M175.777 1.82306H98.9565V15.4959H175.777V1.82306Z" fill="white"/>
<path d="M175.778 17.3189H98.9575C98.5315 17.3189 98.1229 17.1269 97.8216 16.785C97.5203 16.4431 97.3511 15.9794 97.3511 15.4959V1.82305C97.3511 1.33954 97.5203 0.875817 97.8216 0.533929C98.1229 0.192041 98.5315 0 98.9575 0H175.778C176.204 0 176.612 0.192041 176.914 0.533929C177.215 0.875817 177.384 1.33954 177.384 1.82305V15.5323C177.376 16.0095 177.203 16.4639 176.902 16.7979C176.602 17.132 176.198 17.319 175.778 17.3189ZM100.564 13.6729H174.171V3.64609H100.628L100.564 13.6729Z" fill="#263238" fill-opacity="0.03"/>
</svg>
