<svg width="120" height="100" viewBox="0 0 120 100" fill="none" xmlns="http://www.w3.org/2000/svg">
<path d="M25.9504 55.7074C29.6028 50.6425 29.6028 42.4308 25.9504 37.366C22.298 32.3012 16.3762 32.3012 12.7238 37.366C9.07145 42.4308 9.07145 50.6425 12.7239 55.7074C16.3763 60.7722 22.298 60.7722 25.9504 55.7074Z" fill="white" stroke="#263238" stroke-linecap="round" stroke-linejoin="round"/>
<path d="M27.1162 44.5494C27.1162 45.4176 26.9198 46.2639 26.5549 46.9693C26.19 47.6747 25.6748 48.2037 25.0817 48.482L20.904 50.4332L15.8193 52.8152C15.0702 53.1566 14.2542 53.0737 13.549 52.5845C12.8439 52.0953 12.3068 51.2394 12.0547 50.2033C11.8027 49.1673 11.8562 48.0351 12.2035 47.0535C12.5508 46.0719 13.1638 45.3205 13.909 44.963L18.5278 42.8093L23.1684 40.6556C23.6173 40.4462 24.0957 40.3877 24.5642 40.4848C25.0326 40.5819 25.4778 40.8319 25.8629 41.2142C26.2481 41.5965 26.5623 42.1001 26.7796 42.6837C26.997 43.2673 27.1113 43.9142 27.1131 44.571L27.1162 44.5494Z" fill="white"/>
<path d="M27.1163 44.5494C27.1162 45.4176 26.9199 46.2639 26.5549 46.9693C26.19 47.6747 25.6748 48.2037 25.0818 48.482L20.904 50.4332C20.7926 47.5791 19.95 44.8739 18.5278 42.805L23.1684 40.6513C23.6173 40.4419 24.0957 40.3834 24.5642 40.4805C25.0326 40.5776 25.4778 40.8275 25.863 41.2098C26.2481 41.5921 26.5623 42.0958 26.7797 42.6794C26.997 43.263 27.1113 43.9098 27.1132 44.5667L27.1163 44.5494Z" fill="#006466"/>
<path d="M27.1162 44.5494C27.1162 45.4176 26.9198 46.2639 26.5549 46.9693C26.19 47.6747 25.6748 48.2037 25.0817 48.482L20.904 50.4332L15.8193 52.8152C15.0702 53.1566 14.2542 53.0737 13.549 52.5845C12.8439 52.0953 12.3068 51.2394 12.0547 50.2033C11.8027 49.1673 11.8562 48.0351 12.2035 47.0535C12.5508 46.0719 13.1638 45.3205 13.909 44.963L18.5278 42.8093L23.1684 40.6556C23.6173 40.4462 24.0957 40.3877 24.5642 40.4848C25.0326 40.5819 25.4778 40.8319 25.8629 41.2142C26.2481 41.5965 26.5623 42.1001 26.7796 42.6837C26.997 43.2673 27.1113 43.9142 27.1131 44.571L27.1162 44.5494Z" stroke="#263238" stroke-linecap="round" stroke-linejoin="round"/>
<path d="M20.904 50.4332C20.809 47.5738 19.9639 44.8611 18.5278 42.805" stroke="#263238" stroke-linecap="round" stroke-linejoin="round"/>
<path d="M26.1162 43.0031C26.3123 43.4612 26.4114 43.9867 26.402 44.5193" stroke="white" stroke-linecap="round" stroke-linejoin="round"/>
<path d="M19.7083 43.4338L23.4356 41.7109C23.7699 41.5519 24.1255 41.4977 24.4768 41.552C24.828 41.6064 25.1662 41.768 25.467 42.0253" stroke="white" stroke-linecap="round" stroke-linejoin="round"/>
<path d="M82.8845 28.9422C87.6412 26.1504 89.8653 18.5399 87.8521 11.9436C85.8388 5.34731 80.3506 2.26318 75.5938 5.05498C70.8371 7.84679 68.613 15.4573 70.6263 22.0536C72.6395 28.6499 78.1277 31.734 82.8845 28.9422Z" fill="white" stroke="#263238" stroke-linecap="round" stroke-linejoin="round"/>
<path d="M82.4643 22.4271L74.3076 18.641C73.6294 18.3248 73.0694 17.6481 72.7508 16.7597C72.4322 15.8712 72.3811 14.8437 72.6086 13.9029C72.8366 12.9624 73.3246 12.1859 73.9653 11.7441C74.6059 11.3023 75.3469 11.2314 76.0253 11.5468L84.182 15.3287C84.8598 15.6458 85.4192 16.3226 85.7377 17.2108C86.0561 18.0989 86.1077 19.1259 85.8811 20.0667C85.653 21.0073 85.1652 21.7841 84.5247 22.2266C83.8841 22.6691 83.1432 22.7412 82.4643 22.4271Z" fill="#006466"/>
<path d="M76.4883 18.3395L77.855 13.8125" stroke="#263238" stroke-linecap="round" stroke-linejoin="round"/>
<path d="M80.9829 20.4113L82.3434 15.8972" stroke="#263238" stroke-linecap="round" stroke-linejoin="round"/>
<path d="M77.6158 18.6065C77.7685 18.6065 77.8922 18.4349 77.8922 18.2232C77.8922 18.0115 77.7685 17.8398 77.6158 17.8398C77.4631 17.8398 77.3394 18.0115 77.3394 18.2232C77.3394 18.4349 77.4631 18.6065 77.6158 18.6065Z" fill="#263238"/>
<path d="M80.3336 19.3517C80.3336 19.4275 80.3174 19.5016 80.2871 19.5647C80.2567 19.6277 80.2135 19.6768 80.163 19.7058C80.1125 19.7349 80.0569 19.7425 80.0033 19.7277C79.9496 19.7129 79.9004 19.6764 79.8617 19.6227C79.8231 19.5691 79.7967 19.5008 79.7861 19.4265C79.7754 19.3521 79.7809 19.275 79.8018 19.205C79.8227 19.1349 79.8582 19.0751 79.9036 19.0329C79.9491 18.9908 80.0025 18.9683 80.0572 18.9683C80.1305 18.9683 80.2008 19.0087 80.2527 19.0806C80.3045 19.1525 80.3336 19.25 80.3336 19.3517Z" fill="#263238"/>
<path d="M78.6873 15.1952C78.84 15.1952 78.9638 15.0235 78.9638 14.8118C78.9638 14.6001 78.84 14.4285 78.6873 14.4285C78.5347 14.4285 78.4109 14.6001 78.4109 14.8118C78.4109 15.0235 78.5347 15.1952 78.6873 15.1952Z" fill="#263238"/>
<path d="M81.3649 15.9059C81.3649 15.9817 81.3487 16.0558 81.3183 16.1188C81.2879 16.1819 81.2448 16.231 81.1942 16.26C81.1437 16.2891 81.0881 16.2966 81.0345 16.2819C80.9809 16.2671 80.9316 16.2306 80.893 16.1769C80.8543 16.1233 80.828 16.055 80.8173 15.9807C80.8067 15.9063 80.8121 15.8292 80.8331 15.7592C80.854 15.6891 80.8894 15.6293 80.9349 15.5871C80.9803 15.545 81.0338 15.5225 81.0885 15.5225C81.1618 15.5225 81.2321 15.5629 81.2839 15.6348C81.3358 15.7067 81.3649 15.8042 81.3649 15.9059Z" fill="#263238"/>
<path d="M82.4643 22.4271L74.3076 18.641C73.6294 18.3248 73.0694 17.6481 72.7508 16.7597C72.4322 15.8712 72.3811 14.8437 72.6086 13.9029C72.8366 12.9624 73.3246 12.1859 73.9653 11.7441C74.6059 11.3023 75.3469 11.2314 76.0253 11.5468L84.182 15.3287C84.8598 15.6458 85.4192 16.3226 85.7377 17.2108C86.0561 18.0989 86.1077 19.1259 85.8811 20.0667C85.653 21.0073 85.1652 21.7841 84.5247 22.2266C83.8841 22.6691 83.1432 22.7412 82.4643 22.4271Z" stroke="#263238" stroke-linecap="round" stroke-linejoin="round"/>
<path d="M43.9329 29.2628C49.0982 29.2628 53.2854 23.4563 53.2854 16.2935C53.2854 9.13077 49.0982 3.32422 43.9329 3.32422C38.7676 3.32422 34.5803 9.13077 34.5803 16.2935C34.5803 23.4563 38.7676 29.2628 43.9329 29.2628Z" fill="white" stroke="#263238" stroke-linecap="round" stroke-linejoin="round"/>
<path d="M49.2911 16.6252V21.9404C49.2911 23.2886 48.6699 24.3826 47.9089 24.3826H39.9572C39.1931 24.3826 38.575 23.2886 38.575 21.9404V16.6252C38.575 15.277 39.1962 14.1829 39.9572 14.1829H41.2649V11.0989H46.5453V14.1829H47.8996C48.6699 14.1829 49.2911 15.277 49.2911 16.6252Z" fill="white" stroke="#263238" stroke-linecap="round" stroke-linejoin="round"/>
<path d="M49.288 17.2368H38.575V20.5319H49.288V17.2368Z" fill="#006466" stroke="#263238" stroke-miterlimit="10"/>
<path d="M41.9948 7.48938H45.9209C46.3641 7.48938 46.7892 7.73353 47.1026 8.16812C47.4159 8.6027 47.592 9.19212 47.592 9.80672V12.2145H40.3206V9.80672C40.3206 9.50204 40.3639 9.20035 40.4481 8.91891C40.5322 8.63748 40.6556 8.38183 40.8111 8.16659C40.9666 7.95135 41.1512 7.78075 41.3543 7.66454C41.5574 7.54834 41.775 7.48882 41.9948 7.48938Z" fill="#006466" stroke="#263238" stroke-miterlimit="10"/>
<path d="M41.5908 7.6358V12.2145" stroke="#263238" stroke-linecap="round" stroke-linejoin="round"/>
<path d="M43.3086 7.48938V12.2145" stroke="#263238" stroke-linecap="round" stroke-linejoin="round"/>
<path d="M45.0264 7.48938V12.2145" stroke="#263238" stroke-linecap="round" stroke-linejoin="round"/>
<path d="M46.7439 7.75641V12.2145" stroke="#263238" stroke-linecap="round" stroke-linejoin="round"/>
<path d="M19.9717 87.194C20.8074 80.1257 17.3526 73.4562 12.2554 72.2975C7.15816 71.1387 2.34864 75.9294 1.51302 82.9978C0.677402 90.0662 4.13212 96.7356 9.22936 97.8944C14.3266 99.0531 19.1361 94.2624 19.9717 87.194Z" fill="white" stroke="#263238" stroke-linecap="round" stroke-linejoin="round"/>
<path d="M15.4866 88.4416C16.5053 85.4545 15.1046 81.573 12.3582 79.7719C9.61169 77.9708 6.55945 78.9322 5.54077 81.9192C4.52209 84.9063 5.92273 88.7878 8.66919 90.5889C11.4157 92.3901 14.4679 91.4287 15.4866 88.4416Z" fill="#006466" stroke="#263238" stroke-linecap="round" stroke-linejoin="round"/>
<path d="M15.8262 87.4256C16.7818 84.6235 15.3301 80.8919 12.5836 79.0908C9.83715 77.2897 6.83603 78.1011 5.88042 80.9033C4.92482 83.7054 6.37659 87.437 9.12306 89.2381C11.8695 91.0392 14.8706 90.2278 15.8262 87.4256Z" fill="#006466" stroke="#263238" stroke-linecap="round" stroke-linejoin="round"/>
<path d="M12.4399 80.3302L9.04492 86.9505" stroke="#263238" stroke-linecap="round" stroke-linejoin="round"/>
<path d="M10.396 79.2577C10.851 79.3428 11.2992 79.487 11.7347 79.6884" stroke="white" stroke-linecap="round" stroke-linejoin="round"/>
<path d="M7.38008 85.4904C7.38008 85.4904 5.64686 82.8586 7.3397 80.3216C7.73035 79.7694 8.23909 79.4069 8.79026 79.2878" stroke="white" stroke-linecap="round" stroke-linejoin="round"/>
<path d="M118.487 87.2015C119.322 80.1332 115.868 73.4637 110.771 72.305C105.673 71.1462 100.864 75.9369 100.028 83.0053C99.1925 90.0737 102.647 96.7431 107.744 97.9019C112.842 99.0607 117.651 94.2699 118.487 87.2015Z" fill="white" stroke="#263238" stroke-linecap="round" stroke-linejoin="round"/>
<path d="M114.625 86.4036C114.554 86.5457 114.483 86.6922 114.408 86.8343C113.007 89.5264 110.848 92.0375 109.249 92.5329V92.4984C107.696 92.016 105.605 89.6254 104.204 87.0152C104.127 86.8731 104.052 86.7266 103.981 86.5845C102.633 83.9053 102.064 81.0927 103.564 79.9297C106.615 77.5693 109.249 82.6304 109.249 82.6304C109.249 82.6304 111.889 77.608 114.933 79.9641C116.393 81.0927 115.893 83.789 114.625 86.4036Z" fill="#006466" stroke="#263238" stroke-miterlimit="10"/>
<path d="M114.625 86.4036C114.554 86.5457 114.482 86.6922 114.408 86.8343H113.637L112.755 88.4495L112.156 83.6598L111.224 86.9161H109.022L107.894 89.5221L107.024 84.2456L105.903 86.998H104.204C104.126 86.8558 104.052 86.7094 103.98 86.5672H105.723L107.149 83.0654L108.025 88.3849L108.854 86.4682H111.028L112.271 82.0575L112.935 87.3813L113.479 86.3863L114.625 86.4036Z" fill="white"/>
<path d="M100.253 59.6509C105.418 59.6509 109.606 53.8443 109.606 46.6816C109.606 39.5188 105.418 33.7123 100.253 33.7123C95.0879 33.7123 90.9006 39.5188 90.9006 46.6816C90.9006 53.8443 95.0879 59.6509 100.253 59.6509Z" fill="white" stroke="#263238" stroke-linecap="round" stroke-linejoin="round"/>
<path d="M99.5513 40.6858C99.6413 40.9657 99.0791 41.586 98.3088 42.0727C97.5385 42.5594 96.8179 42.7274 96.7278 42.4431C96.6377 42.1589 97.1968 41.5429 97.9702 41.0562C98.7437 40.5695 99.4581 40.4187 99.5513 40.6858Z" fill="white" stroke="#263238" stroke-linecap="round" stroke-linejoin="round"/>
<path d="M103.76 52.7161L100.961 54.5941L98.4517 47.4267L96.7185 42.4733L99.5171 40.591L101.207 45.4238L103.76 52.7161Z" fill="white" stroke="#263238" stroke-linecap="round" stroke-linejoin="round"/>
<path d="M97.2373 43.9507L98.4518 43.1711L97.2373 43.9507Z" fill="#006466"/>
<path d="M97.2373 43.9507L98.4518 43.1711" stroke="#263238" stroke-linecap="round" stroke-linejoin="round"/>
<path d="M97.7651 45.51L98.9796 44.7303L97.7651 45.51Z" fill="#006466"/>
<path d="M97.7651 45.51L98.9796 44.7303" stroke="#263238" stroke-linecap="round" stroke-linejoin="round"/>
<path d="M102.033 53.8747L103.477 56.5022L102.757 53.388L102.033 53.8747Z" fill="white" stroke="#263238" stroke-linecap="round" stroke-linejoin="round"/>
<path d="M103.76 52.7161C103.105 53.6257 102.269 54.2436 101.359 54.4907L100.961 54.5941L98.4517 47.4267L101.207 45.4238L103.76 52.7161Z" fill="#006466" stroke="#263238" stroke-miterlimit="10"/>
<path d="M98.9797 48.7878L100.123 48.0556" stroke="#263238" stroke-linecap="round" stroke-linejoin="round"/>
<path d="M99.6072 50.4547L100.728 49.744L99.6072 50.4547Z" fill="#006466"/>
<path d="M99.6072 50.4547L100.728 49.744" stroke="#263238" stroke-linecap="round" stroke-linejoin="round"/>
<path d="M97.6875 41.8186L96.8022 39.0576L97.498 38.5106L98.4516 41.3061L97.6875 41.8186Z" fill="white" stroke="#263238" stroke-linecap="round" stroke-linejoin="round"/>
<path d="M99.2064 38.1746L98.9952 37.5285L95.2678 39.8415L95.479 40.4876C95.566 40.7633 96.4699 40.4618 97.5011 39.8243C98.5324 39.1868 99.2934 38.446 99.2064 38.1746Z" fill="white" stroke="#263238" stroke-linecap="round" stroke-linejoin="round"/>
<path d="M98.9953 37.5285C98.9084 37.2572 98.0014 37.5544 96.9732 38.1918C95.9451 38.8293 95.181 39.5702 95.268 39.8415C95.3549 40.1129 96.2619 39.8157 97.2901 39.1739C98.3182 38.5321 99.0823 37.7999 98.9953 37.5285Z" fill="white" stroke="#263238" stroke-linecap="round" stroke-linejoin="round"/>
<g clip-path="url(#clip0_1149_13714)">
<path d="M65.5677 53.4697H53.4422C53.1659 53.4701 52.901 53.5977 52.7056 53.8246C52.5102 54.0514 52.4003 54.359 52.3999 54.6798V85.9692L52.261 86.0185L49.2864 87.0761C49.1454 87.126 48.9932 87.1089 48.863 87.0286C48.7329 86.9483 48.6355 86.8113 48.5923 86.6477L39.7442 53.0914C39.7012 52.9277 39.7158 52.7508 39.785 52.5997C39.8542 52.4486 39.9722 52.3356 40.1132 52.2854L44.697 50.6558L57.9857 45.9332L62.5695 44.3035C62.6393 44.2786 62.7126 44.2699 62.7853 44.2779C62.8579 44.2859 62.9285 44.3105 62.993 44.3502C63.0575 44.3899 63.1146 44.444 63.161 44.5094C63.2075 44.5747 63.2424 44.6501 63.2637 44.7311L65.5254 53.3084L65.5677 53.4697Z" fill="#F2F2F2"/>
<path d="M68.2136 53.3082L65.4878 42.9706C65.4424 42.7983 65.3683 42.6382 65.2696 42.4992C65.1709 42.3602 65.0496 42.2452 64.9126 42.1607C64.7756 42.0762 64.6256 42.0239 64.4712 42.0067C64.3168 41.9895 64.161 42.0078 64.0127 42.0606L57.5681 44.3509L44.2801 49.0744L37.8355 51.3655C37.5361 51.4723 37.2854 51.7126 37.1385 52.0337C36.9915 52.3548 36.9603 52.7304 37.0517 53.0782L46.368 88.4078C46.4423 88.6886 46.592 88.9343 46.7954 89.109C46.9987 89.2836 47.2449 89.378 47.4979 89.3783C47.6149 89.3784 47.7313 89.358 47.8432 89.3178L52.2609 87.7479L52.3999 87.6979V87.5293L52.2609 87.5785L47.8022 89.1637C47.5379 89.2573 47.2525 89.2253 47.0085 89.0748C46.7646 88.9243 46.5819 88.6676 46.5008 88.361L37.1851 53.0306C37.1449 52.8787 37.1309 52.7191 37.1439 52.5609C37.1569 52.4027 37.1966 52.249 37.2608 52.1086C37.325 51.9683 37.4125 51.844 37.5181 51.7429C37.6237 51.6418 37.7455 51.566 37.8765 51.5196L44.3211 49.2285L57.6091 44.5058L64.0537 42.2147C64.153 42.1795 64.2562 42.1615 64.3601 42.1614C64.5829 42.162 64.7997 42.2454 64.9788 42.3995C65.1579 42.5535 65.2897 42.77 65.3551 43.0174L68.0684 53.3082L68.1115 53.4695H68.256L68.2136 53.3082Z" fill="#3F3D56"/>
<path d="M45.5244 52.3118C45.3905 52.3117 45.2601 52.2618 45.1524 52.1693C45.0447 52.0769 44.9654 51.9468 44.926 51.7982L44.0311 48.4041C44.007 48.3129 43.9987 48.2171 44.0065 48.1222C44.0144 48.0273 44.0382 47.9351 44.0767 47.8509C44.1153 47.7667 44.1677 47.6921 44.2311 47.6315C44.2944 47.5708 44.3674 47.5252 44.446 47.4973L56.6708 43.1519C56.8294 43.0957 57.0007 43.1149 57.1471 43.2052C57.2936 43.2955 57.4032 43.4495 57.4519 43.6336L58.3468 47.0277C58.3952 47.2118 58.3787 47.4107 58.3009 47.5807C58.2231 47.7507 58.0905 47.878 57.932 47.9345L45.7071 52.2799C45.6479 52.301 45.5863 52.3118 45.5244 52.3118Z" fill="#006466"/>
<path d="M50.2124 45.6267C50.9799 45.6267 51.6021 44.9043 51.6021 44.0132C51.6021 43.1221 50.9799 42.3997 50.2124 42.3997C49.4449 42.3997 48.8228 43.1221 48.8228 44.0132C48.8228 44.9043 49.4449 45.6267 50.2124 45.6267Z" fill="#006466"/>
<path d="M50.2125 45.0349C50.6985 45.0349 51.0925 44.5775 51.0925 44.0132C51.0925 43.4489 50.6985 42.9915 50.2125 42.9915C49.7265 42.9915 49.3325 43.4489 49.3325 44.0132C49.3325 44.5775 49.7265 45.0349 50.2125 45.0349Z" fill="white"/>
<path d="M78.8734 88.9663H55.388C55.2314 88.9661 55.0813 88.8938 54.9705 88.7652C54.8598 88.6367 54.7975 88.4624 54.7974 88.2806V55.6076C54.7975 55.4258 54.8598 55.2515 54.9705 55.1229C55.0813 54.9944 55.2314 54.9221 55.388 54.9219H78.8734C79.03 54.9221 79.1801 54.9944 79.2908 55.123C79.4015 55.2515 79.4638 55.4258 79.464 55.6076V88.2806C79.4638 88.4624 79.4015 88.6367 79.2908 88.7652C79.1801 88.8938 79.03 88.9661 78.8734 88.9663Z" fill="#E6E6E6"/>
<path d="M68.0685 53.3084H53.4422C53.1291 53.3089 52.8289 53.4536 52.6074 53.7107C52.386 53.9678 52.2614 54.3163 52.261 54.6799V87.5787L52.4 87.5295V54.6799C52.4003 54.359 52.5102 54.0515 52.7056 53.8246C52.901 53.5978 53.1659 53.4701 53.4422 53.4698H68.1116L68.0685 53.3084ZM80.8187 53.3084H53.4422C53.1291 53.3089 52.8289 53.4536 52.6074 53.7107C52.386 53.9678 52.2614 54.3163 52.261 54.6799V91.6286C52.2614 91.9921 52.386 92.3407 52.6074 92.5978C52.8289 92.8549 53.1291 92.9995 53.4422 93H80.8187C81.1318 92.9995 81.432 92.8549 81.6534 92.5978C81.8749 92.3407 81.9995 91.9921 81.9999 91.6286V54.6799C81.9995 54.3163 81.8749 53.9678 81.6534 53.7107C81.432 53.4536 81.1318 53.3089 80.8187 53.3084ZM81.8609 91.6286C81.8606 91.9494 81.7507 92.257 81.5553 92.4838C81.3599 92.7107 81.095 92.8383 80.8187 92.8387H53.4422C53.1659 92.8383 52.901 92.7107 52.7056 92.4838C52.5102 92.257 52.4003 91.9494 52.4 91.6286V54.6799C52.4003 54.359 52.5102 54.0515 52.7056 53.8246C52.901 53.5978 53.1659 53.4701 53.4422 53.4698H80.8187C81.095 53.4701 81.3599 53.5978 81.5553 53.8246C81.7507 54.0515 81.8606 54.359 81.8609 54.6799V91.6286Z" fill="#3F3D56"/>
<path d="M73.5231 56.8581H60.7381C60.5723 56.8578 60.4134 56.7813 60.2962 56.6452C60.1789 56.509 60.113 56.3245 60.1128 56.132V52.5823C60.113 52.3898 60.1789 52.2053 60.2962 52.0692C60.4134 51.933 60.5723 51.8565 60.7381 51.8563H73.5231C73.6889 51.8565 73.8478 51.933 73.9651 52.0692C74.0823 52.2053 74.1483 52.3898 74.1484 52.5823V56.132C74.1483 56.3245 74.0823 56.509 73.9651 56.6452C73.8478 56.7813 73.6889 56.8578 73.5231 56.8581Z" fill="#006466"/>
<path d="M67.1306 52.0983C67.8981 52.0983 68.5203 51.3759 68.5203 50.4848C68.5203 49.5937 67.8981 48.8713 67.1306 48.8713C66.3631 48.8713 65.741 49.5937 65.741 50.4848C65.741 51.3759 66.3631 52.0983 67.1306 52.0983Z" fill="#006466"/>
<path d="M67.1306 51.4675C67.5981 51.4675 67.9771 51.0275 67.9771 50.4848C67.9771 49.942 67.5981 49.502 67.1306 49.502C66.6631 49.502 66.2842 49.942 66.2842 50.4848C66.2842 51.0275 66.6631 51.4675 67.1306 51.4675Z" fill="white"/>
</g>
<defs>
<clipPath id="clip0_1149_13714">
<rect width="45" height="51" fill="white" transform="translate(37 42)"/>
</clipPath>
</defs>
</svg>
