<svg width="110" height="90" viewBox="0 0 110 90" fill="none" xmlns="http://www.w3.org/2000/svg">
<g clip-path="url(#clip0_1133_13125)">
<path d="M76.172 83.3827C75.1698 86.5437 76.7252 89.7754 76.7252 89.7754C76.7252 89.7754 79.9056 87.8822 80.9078 84.7213C81.91 81.5603 80.3546 78.3286 80.3546 78.3286C80.3546 78.3286 77.1742 80.2217 76.172 83.3827Z" fill="#F2F2F2"/>
<path d="M77.6937 83.4682C78.5372 86.6702 76.8223 89.8292 76.8223 89.8292C76.8223 89.8292 73.7399 87.7968 72.8964 84.5948C72.0529 81.3928 73.7677 78.2338 73.7677 78.2338C73.7677 78.2338 76.8502 80.2662 77.6937 83.4682Z" fill="#F2F2F2"/>
<path d="M64.6956 86.577L65.3335 85.0276L59.3079 81.967L58.3665 84.2537L64.6956 86.577Z" fill="#FFB8B8"/>
<path d="M68.1135 82.5353C67.8431 82.4359 67.5546 82.3878 67.2644 82.3937C66.9743 82.3997 66.6883 82.4596 66.4227 82.5699C66.1571 82.6803 65.9171 82.839 65.7165 83.037C65.5159 83.235 65.3586 83.4684 65.2536 83.7238L64.8232 84.7683L64.1598 86.3804L63.9976 86.7757L66.1238 87.5566L68.1804 82.5603L68.1135 82.5353Z" fill="#2F2E41"/>
<path d="M64.1601 83.5953L63.8826 84.29L63.1902 86.0239L63.1736 86.0673C61.4094 86.2813 59.4755 85.8618 57.6867 85.21C56.971 84.9493 56.27 84.654 55.5866 84.3251C54.575 83.8425 53.6693 83.3332 52.9467 82.8976C51.8588 82.2383 51.1861 81.7433 51.1861 81.7433C51.1861 81.7433 51.0083 81.8949 50.6867 82.1549C50.2557 82.5032 49.567 83.0469 48.6946 83.687C48.3618 83.9328 48.0044 84.19 47.6226 84.4585C44.8078 86.4298 41.1956 81.1697 41.1956 81.1697C41.1956 81.1697 42.2115 80.559 42.4769 80.4404C43.3315 80.0587 45.3392 79.1579 47.0714 78.3573C47.9638 77.9443 48.7819 77.557 49.3313 77.2818C51.2765 76.3039 53.6945 78.1543 53.6945 78.1543L64.1601 83.5953Z" fill="#2F2E41"/>
<path opacity="0.14" d="M64.1601 83.5953L63.8826 84.29L63.1902 86.0239L63.1736 86.0673C61.4094 86.2813 59.4755 85.8618 57.6867 85.21C56.971 84.9493 56.27 84.654 55.5866 84.3251C54.575 83.8425 53.6693 83.3332 52.9467 82.8976C51.8588 82.2383 51.1861 81.7433 51.1861 81.7433C51.1861 81.7433 51.0083 81.8949 50.6867 82.1549C50.2557 82.5032 49.567 83.0469 48.6946 83.687C48.3618 83.9328 48.0044 84.19 47.6226 84.4585C44.8078 86.4298 41.1956 81.1697 41.1956 81.1697C41.1956 81.1697 42.2115 80.559 42.4769 80.4404C43.3315 80.0587 45.3392 79.1579 47.0714 78.3573C47.9638 77.9443 48.7819 77.557 49.3313 77.2818C51.2765 76.3039 53.6945 78.1543 53.6945 78.1543L64.1601 83.5953Z" fill="black"/>
<path d="M109.856 89.8655H0.143603C0.105517 89.8655 0.0689911 89.8512 0.0420603 89.8258C0.0151295 89.8003 0 89.7658 0 89.7299C0 89.6939 0.0151295 89.6594 0.0420603 89.634C0.0689911 89.6086 0.105517 89.5943 0.143603 89.5943H109.856C109.894 89.5943 109.931 89.6086 109.958 89.634C109.985 89.6594 110 89.6939 110 89.7299C110 89.7658 109.985 89.8003 109.958 89.8258C109.931 89.8512 109.894 89.8655 109.856 89.8655Z" fill="#3F3D56"/>
<path d="M36.0052 69.0128H27.6762C27.5049 69.0126 27.3407 68.9482 27.2195 68.8338C27.0984 68.7195 27.0302 68.5644 27.03 68.4026V65.0129C27.03 63.8083 27.5369 62.653 28.4391 61.8011C29.3412 60.9493 30.5649 60.4708 31.8407 60.4708C33.1166 60.4708 34.3402 60.9493 35.2424 61.8011C36.1446 62.653 36.6514 63.8083 36.6514 65.0129V68.4026C36.6512 68.5644 36.5831 68.7195 36.462 68.8338C36.3408 68.9482 36.1766 69.0126 36.0052 69.0128Z" fill="#2F2E41"/>
<path d="M43.9261 73.2704C43.7322 73.3026 43.5481 73.3745 43.3869 73.481C43.2256 73.5876 43.091 73.7263 42.9926 73.8873C42.8942 74.0483 42.8345 74.2277 42.8175 74.4129C42.8005 74.598 42.8267 74.7845 42.8942 74.9591L40.6294 76.9259L41.5596 78.5169L44.7167 75.697C45.0198 75.5703 45.2631 75.3432 45.4007 75.0584C45.5382 74.7737 45.5603 74.4513 45.4629 74.1521C45.3654 73.853 45.1552 73.5981 44.8719 73.4356C44.5887 73.2731 44.2522 73.2143 43.9261 73.2704Z" fill="#FFB8B8"/>
<path d="M37.1112 82.2126C37.0089 82.2126 36.9065 82.2085 36.8039 82.2001C36.1929 82.152 35.6049 81.9581 35.0951 81.6366C34.5852 81.3151 34.1702 80.8766 33.8891 80.3622L30.2606 73.7682C30.0228 73.3362 29.9707 72.8342 30.1149 72.3667C30.2591 71.8992 30.5887 71.5023 31.035 71.2584C31.4814 71.0145 32.0101 70.9425 32.5113 71.0573C33.0124 71.1721 33.4474 71.4649 33.7257 71.8748L37.0732 78.9665L41.6282 75.4721L44.2656 76.4415L39.8116 81.0842C39.4692 81.4391 39.0522 81.7227 38.5873 81.917C38.1224 82.1113 37.6197 82.212 37.1112 82.2126Z" fill="#CCCCCC"/>
<path d="M50.5333 72.024L46.4978 68.2137C46.3566 68.0804 46.1652 68.0056 45.9655 68.0056C45.7659 68.0056 45.5744 68.0804 45.4333 68.2137L41.803 71.6414C41.6618 71.7746 41.5825 71.9554 41.5825 72.1439C41.5825 72.3324 41.6618 72.5132 41.803 72.6465L45.5735 76.2065C45.708 76.3335 45.8883 76.4077 46.0784 76.4142C46.2684 76.4208 46.454 76.3591 46.5979 76.2418L50.4931 73.0643C50.5679 73.0033 50.6293 72.929 50.6737 72.8456C50.718 72.7622 50.7446 72.6713 50.7518 72.5783C50.759 72.4852 50.7467 72.3917 50.7156 72.3031C50.6845 72.2145 50.6353 72.1325 50.5706 72.0619C50.5587 72.0488 50.5462 72.0362 50.5333 72.024Z" fill="#3F3D56"/>
<path d="M49.9619 72.6921L45.8081 68.7703L42.3801 72.0069L46.3727 75.7765L49.9619 72.6921Z" fill="#F2F2F2"/>
<path d="M46.1025 73.8336C47.0341 73.8336 47.7893 73.1206 47.7893 72.241C47.7893 71.3614 47.0341 70.6484 46.1025 70.6484C45.171 70.6484 44.4158 71.3614 44.4158 72.241C44.4158 73.1206 45.171 73.8336 46.1025 73.8336Z" fill="#006466"/>
<path opacity="0.1" d="M46.8533 73.5984C47.1355 73.3481 47.3178 73.0137 47.3698 72.6514C47.4217 72.2892 47.3401 71.9211 47.1386 71.6089C46.9371 71.2967 46.628 71.0595 46.2631 70.9371C45.8983 70.8147 45.5 70.8145 45.135 70.9366C45.3322 70.8062 45.5566 70.7172 45.7932 70.6755C46.0299 70.6338 46.2732 70.6405 46.5069 70.6949C46.7406 70.7494 46.9592 70.8505 47.1481 70.9914C47.337 71.1323 47.4917 71.3097 47.602 71.5117C47.7122 71.7138 47.7754 71.9358 47.7872 72.1628C47.799 72.3898 47.7593 72.6165 47.6706 72.8278C47.5819 73.0391 47.4464 73.23 47.2731 73.3877C47.0997 73.5454 46.8927 73.6663 46.6658 73.7422C46.7318 73.6985 46.7945 73.6505 46.8533 73.5984Z" fill="black"/>
<path d="M45.2732 71.9245C45.072 72.1029 45.0614 72.7453 45.3685 73.054C45.6757 73.3626 46.1843 73.2206 46.3854 73.0421C46.5866 72.8637 46.4041 72.7163 46.097 72.4077C45.7898 72.0991 45.4743 71.746 45.2732 71.9245Z" fill="#F2F2F2"/>
<path d="M46.9856 72.7388C47.2616 72.7388 47.4854 72.5275 47.4854 72.2669C47.4854 72.0063 47.2616 71.795 46.9856 71.795C46.7096 71.795 46.4858 72.0063 46.4858 72.2669C46.4858 72.5275 46.7096 72.7388 46.9856 72.7388Z" fill="#2F2E41"/>
<path d="M46.0872 71.8361C46.3632 71.8361 46.587 71.6248 46.587 71.3642C46.587 71.1036 46.3632 70.8923 46.0872 70.8923C45.8112 70.8923 45.5874 71.1036 45.5874 71.3642C45.5874 71.6248 45.8112 71.8361 46.0872 71.8361Z" fill="#2F2E41"/>
<path d="M46.9855 72.3849C47.0545 72.3849 47.1105 72.3321 47.1105 72.267C47.1105 72.2018 47.0545 72.149 46.9855 72.149C46.9165 72.149 46.8606 72.2018 46.8606 72.267C46.8606 72.3321 46.9165 72.3849 46.9855 72.3849Z" fill="#F2F2F2"/>
<path d="M47.0395 72.0354C47.074 72.0354 47.102 72.009 47.102 71.9764C47.102 71.9438 47.074 71.9174 47.0395 71.9174C47.005 71.9174 46.9771 71.9438 46.9771 71.9764C46.9771 72.009 47.005 72.0354 47.0395 72.0354Z" fill="#F2F2F2"/>
<path d="M46.1411 71.1327C46.1756 71.1327 46.2036 71.1063 46.2036 71.0737C46.2036 71.0411 46.1756 71.0147 46.1411 71.0147C46.1066 71.0147 46.0786 71.0411 46.0786 71.0737C46.0786 71.1063 46.1066 71.1327 46.1411 71.1327Z" fill="#F2F2F2"/>
<path d="M46.0873 71.4822C46.1564 71.4822 46.2123 71.4293 46.2123 71.3642C46.2123 71.299 46.1564 71.2462 46.0873 71.2462C46.0183 71.2462 45.9624 71.299 45.9624 71.3642C45.9624 71.4293 46.0183 71.4822 46.0873 71.4822Z" fill="#F2F2F2"/>
<path d="M64.1866 88.7561L64.9487 87.2577L59.19 83.769L58.0652 85.9806L64.1866 88.7561Z" fill="#FFB8B8"/>
<path d="M67.9234 84.9742C67.6619 84.8555 67.3781 84.7866 67.0884 84.7715C66.7986 84.7564 66.5086 84.7953 66.2348 84.8861C65.961 84.9769 65.7088 85.1177 65.4927 85.3006C65.2766 85.4835 65.1007 85.7047 64.9753 85.9518L64.4612 86.9619L63.6685 88.5212L63.4746 88.9035L65.531 89.8364L67.988 85.004L67.9234 84.9742Z" fill="#2F2E41"/>
<path d="M63.8953 85.7444L63.5621 86.4169L62.7306 88.0954L62.7106 88.1375C60.9342 88.2229 59.0401 87.6643 57.3096 86.8846C56.6173 86.5729 55.9424 86.2276 55.2877 85.8501C54.3184 85.2956 53.4568 84.722 52.7718 84.2353C51.7407 83.499 51.1103 82.9567 51.1103 82.9567C51.1103 82.9567 50.9208 83.095 50.579 83.3309C50.1209 83.6468 49.3899 84.139 48.468 84.7139C48.1162 84.9349 47.739 85.1654 47.3364 85.4054C44.3696 87.1667 40.1505 89.3117 36.5618 89.7645C30.2591 90.5604 31.7425 82.6191 31.7425 82.6191L36.7586 80.1595L38.8882 80.5676L41.2591 81.0205L42.0992 81.1819C42.0992 81.1819 42.2586 81.1249 42.5329 81.0259C43.416 80.7073 45.4911 79.9548 47.2833 79.2823C48.2066 78.9352 49.0539 78.6084 49.624 78.3738C51.643 77.54 53.9034 79.5602 53.9034 79.5602L63.8953 85.7444Z" fill="#2F2E41"/>
<path d="M22.5639 89.9541C22.7557 89.9126 22.9356 89.8318 23.0909 89.7175C23.2461 89.6032 23.3729 89.4581 23.4623 89.2925C23.5517 89.127 23.6016 88.9449 23.6085 88.7591C23.6153 88.5734 23.5789 88.3884 23.5019 88.2174L25.656 86.1427L24.6399 84.5992L21.6415 87.5694C21.3457 87.7107 21.1151 87.9495 20.9934 88.2405C20.8716 88.5316 20.8671 88.8547 20.9808 89.1486C21.0945 89.4426 21.3185 89.6869 21.6102 89.8354C21.902 89.9839 22.2413 90.0261 22.5639 89.9541Z" fill="#FFB8B8"/>
<path d="M33.02 69.1641C34.8747 69.1641 36.3783 67.7444 36.3783 65.9932C36.3783 64.242 34.8747 62.8223 33.02 62.8223C31.1652 62.8223 29.6616 64.242 29.6616 65.9932C29.6616 67.7444 31.1652 69.1641 33.02 69.1641Z" fill="#FFB8B8"/>
<path d="M28.6509 74.7952L31.5763 82.6261L31.5588 82.6535C31.1519 83.2886 31.0189 83.8009 31.1742 84.135C31.2152 84.2199 31.2751 84.2955 31.35 84.3564C31.4248 84.4174 31.5127 84.4623 31.6077 84.4881L38.5306 79.9192L38.2882 78.0881L38.3017 78.0676C38.9709 77.0567 39.1876 76.1413 38.9458 75.3467C38.6321 74.3157 37.6354 73.8477 37.6253 73.843L37.6012 73.8251L34.1483 69.8571L29.5326 70.6314L28.6509 74.7952Z" fill="#CCCCCC"/>
<path d="M24.2022 88.5404L22.2424 86.2629L26.9669 78.8993L29.1696 72.4707C29.2899 72.1195 29.4886 71.7968 29.7522 71.5242C30.0158 71.2517 30.3382 71.0356 30.6978 70.8907C31.0573 70.7457 31.4455 70.6752 31.8364 70.6839C32.2272 70.6926 32.6115 70.7803 32.9634 70.9411C33.3153 71.1019 33.6266 71.332 33.8763 71.616C34.126 71.9 34.3084 72.2312 34.411 72.5874C34.5137 72.9435 34.5343 73.3163 34.4715 73.6806C34.4087 74.0449 34.2639 74.3923 34.0468 74.6993L30.003 80.4196L24.2022 88.5404Z" fill="#CCCCCC"/>
<path d="M37.7897 65.3519H32.6967L32.6445 64.6615L32.3833 65.3519H31.5991L31.4956 63.9836L30.9781 65.3519H29.4607V65.2841C29.4618 64.3315 29.8631 63.4182 30.5765 62.7446C31.2899 62.071 32.2572 61.6921 33.2661 61.691H33.9842C34.9931 61.6921 35.9604 62.071 36.6738 62.7446C37.3872 63.4182 37.7885 64.3315 37.7897 65.2841V65.3519Z" fill="#2F2E41"/>
<path d="M32.6549 69.6455C32.6166 69.6455 32.5783 69.6423 32.5406 69.636L28.8113 69.0147V63.1953H32.9165L32.8149 63.3072C31.4008 64.8643 32.4661 67.3892 33.227 68.7557C33.2831 68.8558 33.3081 68.9688 33.2992 69.0817C33.2902 69.1946 33.2477 69.3028 33.1765 69.3939C33.1168 69.4718 33.0384 69.5352 32.9478 69.579C32.8571 69.6227 32.7567 69.6455 32.6549 69.6455Z" fill="#2F2E41"/>
<path d="M75.8883 59.2422C84.9297 59.2422 92.2591 52.3219 92.2591 43.7852C92.2591 35.2486 84.9297 28.3283 75.8883 28.3283C66.847 28.3283 59.5176 35.2486 59.5176 43.7852C59.5176 52.3219 66.847 59.2422 75.8883 59.2422Z" fill="#3F3D56"/>
<path d="M71.7028 37.7772V50.9279C71.6992 50.9889 71.7131 51.0495 71.7431 51.1036C71.773 51.1576 71.8179 51.2031 71.8729 51.235C71.9279 51.267 71.9911 51.2843 72.0557 51.2852C72.1203 51.2861 72.1839 51.2705 72.2399 51.24L83.2806 44.6647C83.3346 44.6306 83.3789 44.5845 83.4095 44.5305C83.4401 44.4764 83.4562 44.416 83.4562 44.3547C83.4562 44.2934 83.4401 44.2331 83.4095 44.179C83.3789 44.1249 83.3346 44.0789 83.2806 44.0448L72.2399 37.4694C72.1844 37.4381 72.121 37.4216 72.0564 37.4218C71.9917 37.422 71.9284 37.4388 71.8731 37.4705C71.8179 37.5021 71.7728 37.5474 71.7428 37.6015C71.7128 37.6555 71.6989 37.7163 71.7028 37.7772Z" fill="#F2F2F2"/>
<path d="M17.158 90.0184C19.9735 90.0184 22.2559 87.833 22.2559 85.1372C22.2559 82.4415 19.9735 80.2561 17.158 80.2561C14.3425 80.2561 12.0601 82.4415 12.0601 85.1372C12.0601 87.833 14.3425 90.0184 17.158 90.0184Z" fill="#006466"/>
<path d="M16.6208 34.5636C8.6494 34.6171 2.12252 40.7735 2.00929 48.3488C2.00824 48.4188 2.00775 48.9106 2.00782 49.5538C2.00787 50.4968 2.40208 51.4013 3.10373 52.0682C3.80538 52.7351 4.75702 53.1098 5.74934 53.1099C6.24125 53.1098 6.72832 53.0175 7.18271 52.8385C7.63711 52.6594 8.04992 52.397 8.39756 52.0662C8.7452 51.7355 9.02086 51.3429 9.20879 50.9108C9.39671 50.4788 9.49322 50.0158 9.49279 49.5483C9.49241 49.1108 9.49218 48.8079 9.49218 48.7893C9.49192 47.6186 9.81235 46.4679 10.4219 45.4506C11.0315 44.4332 11.9093 43.5842 12.9688 42.987C14.0284 42.3898 15.2333 42.0651 16.465 42.0447C17.6967 42.0243 18.9127 42.309 19.9935 42.8707C21.0743 43.4325 21.9827 44.252 22.6292 45.2485C23.2756 46.2451 23.638 47.3844 23.6807 48.5545C23.7233 49.7246 23.4447 50.885 22.8723 51.9217C22.2999 52.9584 21.4534 53.8356 20.4161 54.4671L20.4174 54.4686C20.4174 54.4686 15.092 57.7268 13.4685 62.1966L13.4698 62.1969C13.1844 63.1125 13.0397 64.0626 13.0403 65.0176C13.0403 65.4102 13.0646 68.8451 13.1116 71.6331C13.128 72.595 13.5417 73.5123 14.2634 74.1869C14.985 74.8616 15.9568 75.2396 16.9691 75.2394C17.4778 75.2393 17.9814 75.1437 18.451 74.958C18.9207 74.7723 19.347 74.5002 19.7056 74.1573C20.0641 73.8144 20.3478 73.4076 20.5403 72.9601C20.7328 72.5126 20.8302 72.0334 20.8271 71.55C20.8108 68.9968 20.802 66.0238 20.802 65.808C20.802 63.0634 23.5878 60.3288 25.8762 58.5456C28.5114 56.4921 30.4077 53.6936 31.1693 50.5369C31.3379 49.887 31.4308 49.2214 31.4465 48.5522C31.4465 46.7067 31.0622 44.8793 30.3158 43.1755C29.5694 41.4717 28.4757 39.9251 27.0976 38.6249C25.7195 37.3246 24.0843 36.2963 22.2862 35.5993C20.4881 34.9022 18.5626 34.5503 16.6208 34.5636Z" fill="#006466"/>
<path d="M6.84493 51.4546C5.85532 51.4545 4.90627 51.0802 4.20653 50.4141C3.50678 49.748 3.11365 48.8447 3.11359 47.9027C3.11354 47.2602 3.11402 46.769 3.11505 46.6992C3.14649 44.4987 3.7287 42.337 4.81339 40.3935C3.03128 42.7157 2.05139 45.5077 2.00927 48.3832C2.00825 48.4531 2.00776 48.9443 2.00782 49.5868C2.00788 50.5287 2.40101 51.4321 3.10075 52.0982C3.8005 52.7643 4.74954 53.1386 5.73916 53.1387C6.55235 53.1384 7.34321 52.8854 7.9916 52.4183C8.64 51.9511 9.11048 51.2953 9.33157 50.5504C8.64834 51.1336 7.76264 51.4557 6.84493 51.4546Z" fill="#3F3D56"/>
<path d="M16.8937 42.0876C18.0319 42.1397 19.14 42.4557 20.1227 43.0084C21.1054 43.5611 21.9335 44.334 22.5357 45.2609C23.1379 46.1877 23.4963 47.2407 23.5802 48.3294C23.6641 49.4182 23.4708 50.5102 23.0171 51.5116C23.6734 50.7733 24.1557 49.908 24.4313 48.9749C24.7068 48.0418 24.7691 47.0627 24.6139 46.1044C24.4587 45.1461 24.0896 44.2312 23.5318 43.4219C22.9741 42.6127 22.2407 41.9282 21.3818 41.4151C20.5228 40.9019 19.5585 40.5723 18.5545 40.4486C17.5505 40.3249 16.5305 40.41 15.564 40.6982C14.5975 40.9864 13.7072 41.4709 12.9538 42.1186C12.2005 42.7663 11.6018 43.562 11.1985 44.4515C11.8955 43.666 12.7715 43.0443 13.7589 42.6345C14.7463 42.2246 15.8188 42.0375 16.8937 42.0876Z" fill="#3F3D56"/>
<path d="M18.0886 73.5605C17.0792 73.5607 16.1101 73.1843 15.3905 72.5125C14.6708 71.8407 14.2583 70.9273 14.2419 69.9694C14.1951 67.1933 14.1709 63.7729 14.1709 63.382C14.1702 62.431 14.3145 61.485 14.5992 60.5732L14.5978 60.5728C14.7659 60.1152 14.969 59.6698 15.2053 59.2401C14.4798 60.1577 13.9024 61.1727 13.4921 62.2518L13.4935 62.2521C13.2088 63.1639 13.0645 64.1099 13.0652 65.0609C13.0652 65.4518 13.0894 68.8722 13.1362 71.6483C13.1526 72.6062 13.5651 73.5196 14.2848 74.1914C15.0044 74.8632 15.9735 75.2396 16.9829 75.2394C17.8153 75.2393 18.6251 74.983 19.291 74.5091C19.9568 74.0352 20.4429 73.3692 20.6762 72.611C19.9689 73.223 19.0458 73.5617 18.0886 73.5605Z" fill="#3F3D56"/>
<path d="M16.0529 88.7827C15.327 88.4811 14.6845 88.0225 14.1761 87.4434C13.6677 86.8642 13.3074 86.1802 13.1235 85.4454C12.9396 84.7106 12.9372 83.945 13.1165 83.2091C13.2958 82.4733 13.6519 81.7873 14.1566 81.2052C13.5714 81.6129 13.0838 82.1347 12.7261 82.736C12.3684 83.3373 12.1488 84.0043 12.0819 84.6927C12.015 85.3812 12.1023 86.0753 12.3381 86.7291C12.5738 87.3829 12.9526 87.9813 13.4492 88.4848C13.9459 88.9882 14.5491 89.385 15.2188 89.649C15.8885 89.913 16.6094 90.038 17.3336 90.0158C18.0578 89.9937 18.7688 89.8247 19.4194 89.5203C20.07 89.2159 20.6453 88.7829 21.1071 88.2501C20.3868 88.7524 19.5411 89.066 18.6544 89.1594C17.7676 89.2528 16.8707 89.123 16.0529 88.7827Z" fill="#3F3D56"/>
</g>
<defs>
<clipPath id="clip0_1133_13125">
<rect width="110" height="90" fill="white"/>
</clipPath>
</defs>
</svg>
