<svg width="32" height="32" viewBox="0 0 32 32" fill="none" xmlns="http://www.w3.org/2000/svg">
<rect x="0.5" y="0.5" width="31" height="31" rx="7.5" stroke="#C4DEDF"/>
<path d="M21.25 14.5V16.75C21.25 18.1424 20.6969 19.4777 19.7123 20.4623C18.7277 21.4469 17.3924 22 16 22C14.6076 22 13.2723 21.4469 12.2877 20.4623C11.3031 19.4777 10.75 18.1424 10.75 16.75V14.5H9.25V16.75C9.25079 18.4098 9.86309 20.0111 10.9699 21.248C12.0767 22.4849 13.6005 23.2706 15.25 23.455V25H12.25V26.5H19.75V25H16.75V23.455C18.3995 23.2706 19.9233 22.4849 21.0301 21.248C22.1369 20.0111 22.7492 18.4098 22.75 16.75V14.5H21.25Z" fill="#006466"/>
<path d="M16 20.5C16.9946 20.5 17.9484 20.1049 18.6517 19.4017C19.3549 18.6984 19.75 17.7446 19.75 16.75V9.25C19.75 8.25544 19.3549 7.30161 18.6517 6.59835C17.9484 5.89509 16.9946 5.5 16 5.5C15.0054 5.5 14.0516 5.89509 13.3483 6.59835C12.6451 7.30161 12.25 8.25544 12.25 9.25V16.75C12.25 17.7446 12.6451 18.6984 13.3483 19.4017C14.0516 20.1049 15.0054 20.5 16 20.5ZM13.75 9.25C13.75 8.65326 13.9871 8.08097 14.409 7.65901C14.831 7.23705 15.4033 7 16 7C16.5967 7 17.169 7.23705 17.591 7.65901C18.0129 8.08097 18.25 8.65326 18.25 9.25V16.75C18.25 17.3467 18.0129 17.919 17.591 18.341C17.169 18.7629 16.5967 19 16 19C15.4033 19 14.831 18.7629 14.409 18.341C13.9871 17.919 13.75 17.3467 13.75 16.75V9.25Z" fill="#006466"/>
</svg>
