<svg width="24" height="24" viewBox="0 0 24 24" fill="none" xmlns="http://www.w3.org/2000/svg">
<path d="M12.058 20C9.83535 20 7.94635 19.2224 6.39101 17.667C4.83568 16.111 4.05801 14.222 4.05801 12C4.05801 9.97471 4.71801 8.21805 6.03801 6.73005C7.35935 5.24338 8.99401 4.36571 10.942 4.09705C10.996 4.09705 11.049 4.09905 11.101 4.10305C11.153 4.10705 11.204 4.11271 11.254 4.12005C10.9167 4.59071 10.6497 5.11405 10.453 5.69005C10.2563 6.26671 10.158 6.87038 10.158 7.50105C10.158 9.27905 10.78 10.79 12.024 12.034C13.2687 13.2787 14.78 13.901 16.558 13.901C17.1927 13.901 17.797 13.8027 18.371 13.606C18.9457 13.4094 19.4617 13.1424 19.919 12.805C19.927 12.855 19.933 12.906 19.937 12.958C19.9403 13.01 19.942 13.0627 19.942 13.116C19.686 15.0647 18.8143 16.6994 17.327 18.02C15.8397 19.3407 14.084 20.0007 12.058 20Z" fill="#006466"/>
</svg>
