<svg width="160" height="165" viewBox="0 0 160 165" fill="none" xmlns="http://www.w3.org/2000/svg">
<g clip-path="url(#clip0_1195_21161)">
<path d="M106.667 27.5C111.768 27.4997 116.677 29.5097 120.388 33.1188C124.1 36.7279 126.334 41.6632 126.633 46.915L126.667 48.125V61.875C131.768 61.8747 136.677 63.8847 140.388 67.4938C144.1 71.1029 146.334 76.0382 146.633 81.29L146.667 82.5V110C146.667 115.261 144.718 120.323 141.218 124.151C137.718 127.978 132.933 130.282 127.84 130.591L126.667 130.625V137.266C126.667 144.279 119.047 148.225 113.64 144.368L113 143.873L97.5867 130.625H73.3334C68.4188 130.632 63.675 128.767 60.0134 125.386L59.08 124.465L46.6667 134.062C41.3934 138.139 33.96 134.578 33.3734 128.019L33.3334 127.188V116.875C28.232 116.875 23.3233 114.865 19.6116 111.256C15.9 107.647 13.666 102.712 13.3667 97.46L13.3334 96.25V48.125C13.3331 42.8642 15.2822 37.8021 18.7819 33.9745C22.2817 30.1468 27.0674 27.843 32.16 27.5344L33.3334 27.5H106.667ZM126.667 75.625H73.3334C71.5653 75.625 69.8696 76.3493 68.6193 77.6386C67.3691 78.928 66.6667 80.6766 66.6667 82.5V110C66.6667 111.823 67.3691 113.572 68.6193 114.861C69.8696 116.151 71.5653 116.875 73.3334 116.875H97.5867C100.705 116.876 103.725 118.005 106.12 120.065L113.373 126.294C113.59 123.724 114.733 121.331 116.577 119.587C118.421 117.843 120.832 116.876 123.333 116.875H126.667C128.435 116.875 130.131 116.151 131.381 114.861C132.631 113.572 133.333 111.823 133.333 110V82.5C133.333 80.6766 132.631 78.928 131.381 77.6386C130.131 76.3493 128.435 75.625 126.667 75.625ZM106.667 41.25H33.3334C31.5653 41.25 29.8696 41.9743 28.6193 43.2636C27.3691 44.553 26.6667 46.3016 26.6667 48.125V96.25C26.6667 98.0734 27.3691 99.822 28.6193 101.111C29.8696 102.401 31.5653 103.125 33.3334 103.125H36.6667C39.3189 103.125 41.8624 104.211 43.7378 106.145C45.6131 108.079 46.6667 110.702 46.6667 113.438V116.875L53.4 111.671C53.3562 111.115 53.334 110.558 53.3334 110V82.5C53.3334 77.0299 55.4405 71.7839 59.1912 67.9159C62.942 64.048 68.029 61.875 73.3334 61.875H113.333V48.125C113.333 46.3016 112.631 44.553 111.381 43.2636C110.131 41.9743 108.435 41.25 106.667 41.25Z" fill="#D4DEDE"/>
</g>
<defs>
<clipPath id="clip0_1195_21161">
<rect width="160" height="165" fill="white"/>
</clipPath>
</defs>
</svg>
