<svg width="180" height="180" viewBox="0 0 180 180" fill="none" xmlns="http://www.w3.org/2000/svg">
<path d="M131.25 97.5C122.299 97.5 113.715 101.056 107.385 107.385C101.056 113.715 97.5 122.299 97.5 131.25C97.5 140.201 101.056 148.785 107.385 155.115C113.715 161.444 122.299 165 131.25 165C140.201 165 148.785 161.444 155.115 155.115C161.444 148.785 165 140.201 165 131.25C165 122.299 161.444 113.715 155.115 107.385C148.785 101.056 140.201 97.5 131.25 97.5ZM131.25 108.75C137.217 108.75 142.94 111.121 147.16 115.34C151.379 119.56 153.75 125.283 153.75 131.25C153.709 135.212 152.622 139.093 150.6 142.5L120 111.9C123.407 109.878 127.288 108.791 131.25 108.75ZM111.9 120L142.5 150.6C139.093 152.622 135.212 153.709 131.25 153.75C125.283 153.75 119.56 151.379 115.34 147.16C111.121 142.94 108.75 137.217 108.75 131.25C108.791 127.288 109.878 123.407 111.9 120ZM90 15C81.75 15 75 21.75 75 30V32.175C53.4 38.55 37.5 58.65 37.5 82.5V127.5L22.5 142.5V150H86.25C84.2872 145.218 83.0974 140.155 82.725 135H52.5V82.5C52.5 72.5544 56.4509 63.0161 63.4835 55.9835C70.5161 48.9509 80.0544 45 90 45C99.9456 45 109.484 48.9509 116.517 55.9835C123.549 63.0161 127.5 72.5544 127.5 82.5C128.75 82.4519 130 82.4519 131.25 82.5C135.04 82.5112 138.815 82.9643 142.5 83.85V82.5C142.5 58.65 126.6 38.55 105 32.175V30C105 26.0218 103.42 22.2064 100.607 19.3934C97.7936 16.5804 93.9782 15 90 15ZM75 157.5C75 161.478 76.5804 165.294 79.3934 168.107C82.2064 170.92 86.0218 172.5 90 172.5C93.75 172.5 97.275 171.075 99.975 168.75C96.1682 165.521 92.8799 161.727 90.225 157.5H75Z" fill="#D4DEDE"/>
</svg>
