<svg width="200" height="180" viewBox="0 0 200 180" fill="none" xmlns="http://www.w3.org/2000/svg">
<g clip-path="url(#clip0_1142_13200)">
<path d="M200 143.598L136.501 173.466L122.608 180L92.5571 167.519L66.9105 156.869L64.7802 155.984L61.6586 146.563L49.246 109.108L43.0158 90.3046L41.1421 84.6526L39.7871 80.562L36.767 71.4484L31.877 56.6938L42.5579 51.6708L52.759 46.8721L60.0913 43.4237L152.412 0L200 143.598Z" fill="#F0F8F9"/>
<path d="M4.60389 95.9426C5.37498 95.7437 6.1808 95.9179 6.84409 96.4269C7.50738 96.9358 7.97379 97.7378 8.14073 98.6565C8.30767 99.5751 8.16145 100.535 7.73425 101.325C7.30705 102.116 6.63386 102.671 5.86277 102.87C4.25705 103.284 0 100.756 0 100.756C0 100.756 2.99817 96.3568 4.60389 95.9426Z" fill="#006466"/>
<path d="M5.31463 168.704C5.81944 167.981 6.54444 167.528 7.33012 167.442C8.11581 167.357 8.89782 167.646 9.50413 168.248C10.1104 168.849 10.4914 169.713 10.5631 170.649C10.6349 171.585 10.3916 172.517 9.8868 173.239C8.83557 174.743 4.17456 175.874 4.17456 175.874C4.17456 175.874 4.2634 170.208 5.31463 168.704Z" fill="#006466"/>
<path d="M134.328 53.3188C129.535 43.6721 120.054 43.2225 120.054 43.2225C120.054 43.2225 110.816 41.8151 104.889 56.5071C99.3651 70.2012 91.7413 83.4233 103.662 86.629L105.815 78.645L107.148 87.2234C108.846 87.3688 110.548 87.4035 112.249 87.3272C125.015 86.8362 137.172 87.4709 136.781 82.0134C136.26 74.7585 138.939 62.6008 134.328 53.3188Z" fill="#E6E7E8"/>
<path d="M114.658 73.5086C116.309 77.8602 117.35 83.0472 117.972 88.8089L131.229 87.8218C128.181 82.6764 127.169 76.7706 128.329 70.0536L114.658 73.5086Z" fill="#FFB8B8"/>
<path opacity="0.2" d="M114.658 73.5086C116.309 77.8602 117.35 83.0472 117.972 88.8089L131.229 87.8218C128.181 82.6764 127.169 76.7706 128.329 70.0536L114.658 73.5086Z" fill="black"/>
<path d="M53.148 156.361C53.148 156.361 46.2866 160.74 49.7684 164.478C53.2502 168.216 57.8495 159.53 57.8495 159.53L53.148 156.361Z" fill="#FFB8B8"/>
<path d="M137.029 143.594L136.922 149.576L136.693 162.501L136.501 173.466L122.608 180L92.5569 167.519L94.534 154.441L96.1308 143.88L96.8433 139.152L132.887 133.229L137.029 143.594Z" fill="#2F2E41"/>
<path d="M137.029 143.594L136.921 149.576C124.17 149.186 104.404 145.519 96.1306 143.88L96.8432 139.152L132.886 133.229L137.029 143.594Z" fill="#3F3D56"/>
<path d="M121.079 77.7038C126.799 77.7038 131.436 72.1795 131.436 65.3648C131.436 58.5502 126.799 53.0259 121.079 53.0259C115.359 53.0259 110.722 58.5502 110.722 65.3648C110.722 72.1795 115.359 77.7038 121.079 77.7038Z" fill="#FFB8B8"/>
<path d="M140.965 150.257C140.965 150.257 142.208 163.583 134.751 162.596L133.508 149.27L126.879 141.373L108.236 140.879L94.5647 156.18C94.5647 156.18 94.1504 140.386 95.8076 138.905C97.4647 137.424 101.193 133.969 101.193 133.969V131.502L90.0076 104.356C90.0076 104.356 96.6362 88.0685 102.022 87.575L109.065 87.0814C109.065 87.0814 111.551 85.6007 111.551 85.1072C111.551 84.6136 111.136 80.6651 113.208 81.6522C113.208 81.6522 113.394 76.5883 115.577 78.1332C115.577 78.1332 122.45 84.5494 129.427 78.4145C129.427 78.4145 132.679 77.7038 132.265 79.678C131.851 81.6523 132.265 83.1329 133.094 83.1329C133.922 83.1329 137.651 84.6136 137.651 85.6007C137.651 85.813 137.92 87.8563 138.342 90.9312V90.9361C139.88 102.145 143.451 127.06 143.451 127.06C143.451 127.06 147.179 133.476 140.965 150.257Z" fill="#006466"/>
<path d="M92.9075 101.888L90.0074 104.356L63.493 144.828L49.4072 158.154C49.4072 158.154 57.2787 156.673 55.6215 164.57L104.093 131.502L92.9075 101.888Z" fill="#006466"/>
<path d="M138.343 90.9312V90.9361C137.792 94.7957 119.836 93.9912 117.351 93.9912C114.865 93.9912 112.793 93.4977 110.308 91.5234C107.822 89.5492 109.065 87.0814 109.065 87.0814C109.065 87.0814 111.181 85.1609 111.181 84.6673C111.181 84.1738 110.767 80.2253 112.839 81.2124C112.839 81.2124 113.025 76.1485 115.208 77.6934C115.208 77.6934 122.451 84.5495 129.427 78.4145C129.427 78.4145 132.679 77.7038 132.265 79.678C131.851 81.6523 132.265 83.133 133.094 83.133C133.922 83.133 137.651 84.6136 137.651 85.6007C137.651 85.813 137.92 87.8563 138.343 90.9312Z" fill="#3F3D56"/>
<path d="M136.2 72.5214C136.2 72.5214 132.886 64.1309 129.572 68.0794C126.258 72.0279 133.3 77.9506 133.3 77.9506L136.2 72.5214Z" fill="#FFB8B8"/>
<path d="M136.201 70.5472C136.201 70.5472 131.083 78.2524 129.499 78.8418C129.499 78.8418 134.129 100.654 139.929 106.577L143.243 126.813C143.243 126.813 157.329 119.903 154.015 108.551C153.982 108.438 153.949 108.325 153.916 108.213C151.149 98.759 147.329 89.7902 142.561 81.5461L136.201 70.5472Z" fill="#006466"/>
<path opacity="0.2" d="M133.466 93.4005L143.658 126.813L139.929 106.577L133.466 93.4005Z" fill="black"/>
<path d="M132.209 52.3889L122.842 46.5438L109.907 48.935L107.231 63.0166L113.893 62.7114L115.754 57.5379V62.626L118.828 62.4851L120.612 54.2487L121.727 63.0166L132.655 62.751L132.209 52.3889Z" fill="#E6E7E8"/>
<path d="M51.8534 162.403C45.4145 158.127 41.4061 152.289 39.9394 145.051C38.8504 139.677 39.1633 133.63 40.8694 127.077C42.1342 122.246 44.0305 117.683 46.4885 113.555C59.5284 91.5659 60.7053 77.2377 59.3964 69.0898C57.9613 60.1559 53.2988 56.4456 53.2519 56.4092L53.4531 56.0404C53.5013 56.0777 58.2866 59.8742 59.7562 68.9894C60.6034 74.2444 60.2048 80.2364 58.5716 86.799C56.5388 94.9664 52.5749 104.054 46.7901 113.809C44.3545 117.899 42.4755 122.42 41.2221 127.207C38.4239 137.954 38.028 152.718 52.0331 162.019L51.8534 162.403Z" fill="#2F2E41"/>
<path d="M40.0937 121.686C35.0176 118.315 35.1589 112.973 36.1713 109.085C36.6202 107.37 37.2933 105.75 38.1658 104.285C42.734 96.5812 43.1468 91.5769 42.6888 88.7353C42.1912 85.6496 40.5951 84.3828 40.5791 84.3703L40.7803 84.0016C40.8512 84.0565 42.5244 85.3846 43.0513 88.6524C43.7373 92.9075 42.1951 98.2523 38.4674 104.539C37.6172 105.966 36.9613 107.544 36.5239 109.215C35.552 112.948 35.4135 118.075 40.2734 121.302L40.0937 121.686Z" fill="#2F2E41"/>
<path d="M62.9318 72.8637L62.7521 72.4795C67.612 69.2518 67.4736 64.1247 66.5016 60.392C66.0642 58.7212 65.4083 57.1431 64.5582 55.7158C60.8305 49.4296 59.2882 44.0847 59.9742 39.8296C60.5011 36.5618 62.1743 35.2336 62.2452 35.1788L62.4467 35.5473C62.4306 35.56 60.8264 36.8434 60.334 39.9299C59.8809 42.7699 60.2983 47.7699 64.8598 55.4619C65.7322 56.927 66.4053 58.5468 66.8542 60.2616C67.8666 64.1498 68.008 69.4924 62.9318 72.8637Z" fill="#2F2E41"/>
<path d="M73.7699 50.9807C73.3726 51.7067 72.8592 52.3324 72.259 52.8219C71.6587 53.3115 70.9834 53.6554 70.2716 53.8339C69.5597 54.0125 68.8253 54.0222 68.1104 53.8626C67.3954 53.7029 66.7138 53.377 66.1046 52.9035C65.4953 52.43 64.9703 51.8181 64.5596 51.1028C64.1489 50.3875 63.8605 49.5828 63.7109 48.7347C63.5613 47.8866 63.5534 47.0117 63.6877 46.16C63.822 45.3083 64.0958 44.4964 64.4935 43.7708C66.1647 40.719 74.5785 37.4295 74.5785 37.4295C74.5785 37.4295 75.4411 47.929 73.7699 50.9807Z" fill="#006466"/>
<path d="M71.7391 30.528C71.3419 31.254 70.8285 31.8796 70.2282 32.3692C69.628 32.8587 68.9526 33.2026 68.2408 33.3812C67.529 33.5597 66.7946 33.5695 66.0796 33.4098C65.3646 33.2502 64.683 32.9243 64.0738 32.4507C63.4645 31.9772 62.9396 31.3653 62.5289 30.65C62.1182 29.9348 61.8298 29.1301 61.6802 28.282C61.5306 27.4339 61.5227 26.559 61.6569 25.7072C61.7912 24.8555 62.065 24.0436 62.4627 23.318C64.1339 20.2662 72.5477 16.9767 72.5477 16.9767C72.5477 16.9767 73.4103 27.4762 71.7391 30.528Z" fill="#006466"/>
<path d="M62.8132 105.459C61.514 105.462 60.2527 104.937 59.2368 103.973C58.2208 103.008 57.5108 101.66 57.2233 100.15C56.9359 98.6406 57.0882 97.0595 57.6552 95.6668C58.2222 94.2741 59.1701 93.1527 60.3431 92.4871C63.1306 90.9047 71.4913 93.2211 71.8459 93.3205L72.0701 93.3834L71.9699 93.6304C71.8112 94.0209 68.0531 103.215 65.2653 104.797C64.4996 105.233 63.6618 105.459 62.8132 105.459ZM63.2789 92.3759C62.1449 92.3759 61.1513 92.5156 60.5019 92.8842C59.2201 93.6116 58.2333 94.9159 57.7587 96.5101C57.2841 98.1043 57.3605 99.8578 57.9711 101.385C58.5817 102.912 59.6765 104.088 61.0146 104.653C62.3528 105.218 63.8247 105.127 65.1065 104.4C67.5316 103.024 70.9046 95.1902 71.5344 93.6874C70.5266 93.4208 66.3795 92.3759 63.2789 92.3759Z" fill="#2F2E41"/>
<path d="M51.5276 44.9273C52.065 45.5111 52.5006 46.2153 52.8096 46.9996C53.1186 47.7839 53.2949 48.6331 53.3284 49.4986C53.3619 50.3641 53.252 51.229 53.0049 52.0439C52.7578 52.8588 52.3785 53.6077 51.8885 54.248C51.3985 54.8882 50.8074 55.4072 50.149 55.7753C49.4907 56.1433 48.7779 56.3534 48.0514 56.3933C47.3249 56.4332 46.5989 56.3023 45.9149 56.0079C45.2309 55.7136 44.6022 55.2616 44.0648 54.6779C41.8048 52.2228 40.4302 41.801 40.4302 41.801C40.4302 41.801 49.2675 42.4722 51.5276 44.9273Z" fill="#006466"/>
<path d="M38.6055 72.6376C39.6908 73.8166 40.3386 75.4609 40.4062 77.2089C40.4739 78.9568 39.956 80.6652 38.9663 81.9582C37.9767 83.2512 36.5965 84.0229 35.1293 84.1035C33.6621 84.1842 32.2281 83.5671 31.1427 82.3881C28.8826 79.933 27.5081 69.5112 27.5081 69.5112C27.5081 69.5112 36.3454 70.1825 38.6055 72.6376Z" fill="#006466"/>
<path d="M53.0897 76.5239C51.2412 76.5239 47.7067 74.4386 47.5445 74.3423L47.3384 74.2199L47.4836 74.0068C47.6077 73.8248 50.5416 69.5426 52.1917 69.117C53.0107 68.9058 53.8665 69.0908 54.571 69.6313C55.2754 70.1719 55.7708 71.0237 55.948 71.9993C56.1253 72.975 55.97 73.9946 55.5163 74.8338C55.0626 75.673 54.3476 76.2632 53.5286 76.4744C53.3842 76.5092 53.237 76.5258 53.0897 76.5239ZM47.9196 74.0699C48.7901 74.565 52.1242 76.3869 53.4506 76.0444C54.1734 75.8574 54.8043 75.3361 55.2046 74.5951C55.6049 73.8541 55.7419 72.954 55.5854 72.0928C55.4289 71.2315 54.9917 70.4795 54.3699 70.0021C53.7482 69.5248 52.9928 69.361 52.2698 69.5469C50.943 69.8892 48.5403 73.1904 47.9196 74.0699Z" fill="#2F2E41"/>
<path d="M33.2649 166.003C33.6538 165.185 34.2991 164.586 35.0591 164.335C35.8191 164.084 36.6315 164.203 37.3178 164.666C38.0041 165.129 38.5081 165.897 38.7191 166.802C38.93 167.708 38.8307 168.676 38.4428 169.494C37.6337 171.197 33.2167 173.3 33.2167 173.3C33.2167 173.3 32.4557 167.706 33.2649 166.003Z" fill="#006466"/>
<path d="M23.6026 128.267C22.3285 128.243 21.0573 128.112 19.7985 127.876L19.571 127.832L19.6567 127.578C19.7298 127.36 21.4645 122.233 22.9342 121.243C23.2954 121 23.6932 120.844 24.105 120.784C24.5169 120.724 24.9346 120.761 25.3343 120.893C25.7341 121.025 26.1081 121.25 26.4349 121.554C26.7618 121.859 27.0351 122.237 27.2393 122.667C27.4435 123.097 27.5746 123.571 27.625 124.062C27.6755 124.553 27.6443 125.05 27.5333 125.527C27.4223 126.003 27.2337 126.448 26.9781 126.838C26.7226 127.227 26.4052 127.553 26.0441 127.796C25.516 128.152 24.5862 128.267 23.6026 128.267ZM20.0887 127.484C21.0433 127.648 24.6807 128.209 25.8623 127.413C26.5065 126.979 26.9797 126.258 27.1777 125.409C27.3756 124.559 27.2823 123.651 26.9181 122.884C26.5539 122.116 25.9487 121.553 25.2357 121.317C24.5226 121.081 23.7601 121.192 23.116 121.626C21.9345 122.422 20.4623 126.424 20.0887 127.484Z" fill="#2F2E41"/>
</g>
<defs>
<clipPath id="clip0_1142_13200">
<rect width="200" height="180" fill="white"/>
</clipPath>
</defs>
</svg>
