<svg width="200" height="160" viewBox="0 0 200 160" fill="none" xmlns="http://www.w3.org/2000/svg">
<g clip-path="url(#clip0_1146_13257)">
<path d="M158.193 6.60968L157.319 89.3513L119.565 110.461L120.439 27.7197L158.193 6.60968Z" fill="#F0F8F9"/>
<path d="M169.665 0L197.876 66.479L159.598 87.8821L160.472 5.14051L169.665 0Z" fill="#F0F8F9"/>
<path d="M-5.34058e-05 93.3916L76.1935 50.7886L75.3198 133.53L28.2108 159.871L-5.34058e-05 93.3916Z" fill="#F0F8F9"/>
<path d="M117.026 27.7197L116.152 110.461L78.3979 131.571L79.2716 48.8297L117.026 27.7197Z" fill="#F0F8F9"/>
<path d="M103.903 93.7663L104.97 121.19C104.97 121.19 102.197 147.145 102.837 147.88C103.477 148.614 105.183 150.083 103.903 151.797C102.623 153.511 97.9306 154.736 97.7173 153.756C97.504 152.777 97.0773 124.863 97.0773 124.863L95.5841 91.8075L103.903 93.7663Z" fill="#2F2E41"/>
<path opacity="0.2" d="M103.903 93.7663L104.97 121.19C104.97 121.19 102.197 147.145 102.837 147.88C103.477 148.614 105.183 150.083 103.903 151.797C102.623 153.511 97.9306 154.736 97.7173 153.756C97.504 152.777 97.0773 124.863 97.0773 124.863L95.5841 91.8075L103.903 93.7663Z" fill="black"/>
<path d="M102.837 151.308C102.837 151.308 108.17 155.96 108.809 155.96C109.449 155.96 115.209 158.164 111.156 159.143C107.103 160.122 97.2906 159.633 97.0773 158.164C96.864 156.694 97.7172 152.236 97.7172 152.236L102.837 151.308Z" fill="#2F2E41"/>
<path opacity="0.2" d="M102.837 151.308C102.837 151.308 108.17 155.96 108.809 155.96C109.449 155.96 115.209 158.164 111.156 159.143C107.103 160.122 97.2906 159.633 97.0773 158.164C96.864 156.694 97.7172 152.236 97.7172 152.236L102.837 151.308Z" fill="black"/>
<path d="M116.062 73.1984C116.062 73.1984 118.408 74.1779 118.408 74.9124C118.408 75.647 120.542 84.9515 120.968 85.4412C121.395 85.931 121.608 88.1347 121.608 88.1347C121.608 88.1347 123.741 93.7664 123.315 93.7664C122.888 93.7664 119.262 92.7869 119.048 93.7664C118.835 94.7458 117.129 87.6449 117.129 87.6449L113.502 79.3198L116.062 73.1984Z" fill="#006466"/>
<path d="M123.315 94.7458C123.315 94.7458 122.675 100.133 120.968 100.622C119.262 101.112 120.968 93.7664 120.968 93.7664L123.315 94.7458Z" fill="#FFB8B8"/>
<path d="M117.768 70.2602C117.768 70.2602 116.489 73.4433 115.849 75.1573C115.209 76.8713 109.236 70.7499 109.236 70.7499C109.236 70.7499 112.436 68.0565 112.436 66.8322C112.436 65.6079 117.768 70.2602 117.768 70.2602Z" fill="#FFB8B8"/>
<path d="M179.3 149.852C177.87 155.922 172.97 159.682 172.97 159.682C172.97 159.682 170.389 153.599 171.82 147.529C173.25 141.459 178.15 137.7 178.15 137.7C178.15 137.7 180.731 143.782 179.3 149.852Z" fill="#3F3D56"/>
<path d="M177.198 148.548C173.273 152.934 172.793 159.677 172.793 159.677C172.793 159.677 178.678 159.308 182.604 154.921C186.529 150.535 187.009 143.792 187.009 143.792C187.009 143.792 181.124 144.161 177.198 148.548Z" fill="#006466"/>
<path d="M128.434 159.878C132.273 159.878 136.026 158.571 139.218 156.122C142.411 153.674 144.899 150.194 146.368 146.123C147.837 142.051 148.221 137.571 147.472 133.249C146.723 128.926 144.875 124.956 142.16 121.84C139.445 118.724 135.986 116.602 132.221 115.742C128.456 114.882 124.553 115.323 121.006 117.01C117.459 118.696 114.427 121.552 112.294 125.216C110.161 128.881 109.023 133.189 109.023 137.596C109.028 143.503 111.075 149.167 114.715 153.344C118.354 157.521 123.288 159.871 128.434 159.878ZM128.434 115.803C132.189 115.803 135.859 117.082 138.981 119.476C142.103 121.871 144.537 125.274 145.974 129.256C147.41 133.238 147.786 137.62 147.054 141.847C146.321 146.074 144.513 149.957 141.858 153.005C139.203 156.053 135.82 158.128 132.138 158.969C128.455 159.81 124.638 159.378 121.169 157.729C117.7 156.08 114.735 153.286 112.649 149.703C110.563 146.119 109.449 141.906 109.449 137.596C109.455 131.818 111.457 126.279 115.016 122.193C118.575 118.108 123.401 115.81 128.434 115.803Z" fill="#2F2E41"/>
<path d="M68.7068 159.878C72.546 159.878 76.299 158.571 79.4912 156.122C82.6834 153.674 85.1714 150.194 86.6405 146.123C88.1097 142.051 88.4942 137.571 87.7452 133.249C86.9962 128.926 85.1474 124.956 82.4327 121.84C79.718 118.724 76.2592 116.602 72.4938 115.742C68.7283 114.882 64.8254 115.323 61.2784 117.01C57.7315 118.696 54.6998 121.552 52.5669 125.216C50.4339 128.881 49.2955 133.189 49.2955 137.596C49.3013 143.503 51.3483 149.167 54.9874 153.344C58.6264 157.521 63.5604 159.871 68.7068 159.878ZM68.7068 115.803C72.4616 115.803 76.1321 117.082 79.2542 119.476C82.3762 121.871 84.8095 125.274 86.2464 129.256C87.6833 133.238 88.0593 137.62 87.3267 141.847C86.5942 146.074 84.7861 149.957 82.131 153.005C79.476 156.053 76.0932 158.128 72.4106 158.969C68.7279 159.81 64.9107 159.378 61.4417 157.729C57.9727 156.08 55.0077 153.286 52.9216 149.703C50.8355 146.119 49.7221 141.906 49.7221 137.596C49.7278 131.818 51.7298 126.279 55.2889 122.193C58.848 118.108 63.6735 115.81 68.7068 115.803Z" fill="#2F2E41"/>
<path d="M128.434 139.065C127.727 139.065 127.154 138.407 127.154 137.596C127.154 136.784 127.727 136.127 128.434 136.127C129.141 136.127 129.714 136.784 129.714 137.596C129.714 138.407 129.141 139.065 128.434 139.065Z" fill="#2F2E41"/>
<path d="M68.2802 139.065C67.5733 139.065 67.0003 138.407 67.0003 137.596C67.0003 136.784 67.5733 136.127 68.2802 136.127C68.987 136.127 69.5601 136.784 69.5601 137.596C69.5601 138.407 68.987 139.065 68.2802 139.065Z" fill="#2F2E41"/>
<path d="M126.531 135.488L126.924 135.296L115.775 105.271L84.1602 106.012L84.099 106.122L68.5273 134.036L68.8865 134.3L84.397 106.496L115.496 105.768L126.531 135.488Z" fill="#2F2E41"/>
<path d="M93.3176 141.069L85.1237 107.901L84.7133 108.035L92.731 140.489L71.2934 137.353L71.2397 137.839L93.3176 141.069Z" fill="#2F2E41"/>
<path d="M116.55 112.694L116.854 113.037L94.8831 138.747L94.5785 138.404L116.55 112.694Z" fill="#2F2E41"/>
<path d="M82.9922 100.068L84.27 105.455L83.8584 105.584L82.5805 100.197L82.9922 100.068Z" fill="#2F2E41"/>
<path d="M115.001 103.86L115.417 103.751L114.409 98.6636H117.982V95.4805H117.555V98.1739H113.875L115.001 103.86Z" fill="#2F2E41"/>
<path d="M90.678 95.2355C90.678 95.2355 90.678 93.7664 87.9049 94.501C85.1319 95.2355 76.5994 97.1944 75.9595 96.9495C75.3196 96.7047 75.5329 98.4187 78.3059 99.1532C81.079 99.8878 84.2786 98.1738 84.9186 97.6841C85.5585 97.1944 90.678 95.2355 90.678 95.2355Z" fill="#2F2E41"/>
<path d="M98.3571 139.065H103.903V141.513H98.3571V139.065Z" fill="#006466"/>
<path d="M93.0243 145.676C93.8681 145.676 94.6929 145.389 95.3945 144.851C96.0961 144.312 96.6429 143.548 96.9658 142.653C97.2887 141.758 97.3732 140.773 97.2085 139.823C97.0439 138.873 96.6376 138.001 96.041 137.316C95.4443 136.631 94.6842 136.165 93.8566 135.976C93.029 135.787 92.1712 135.884 91.3917 136.254C90.6121 136.625 89.9458 137.253 89.4771 138.058C89.0083 138.863 88.7581 139.81 88.7581 140.779C88.7593 142.077 89.2092 143.322 90.009 144.24C90.8088 145.158 91.8932 145.674 93.0243 145.676ZM93.0243 136.371C93.7837 136.371 94.5261 136.63 95.1575 137.114C95.7889 137.598 96.281 138.287 96.5716 139.092C96.8622 139.897 96.9383 140.784 96.7901 141.639C96.642 142.494 96.2763 143.279 95.7393 143.895C95.2023 144.512 94.5182 144.931 93.7734 145.102C93.0286 145.272 92.2565 145.184 91.555 144.851C90.8534 144.517 90.2537 143.952 89.8318 143.227C89.4099 142.503 89.1847 141.65 89.1847 140.779C89.1859 139.61 89.5908 138.49 90.3106 137.664C91.0304 136.838 92.0063 136.373 93.0243 136.371Z" fill="#2F2E41"/>
<path d="M115.849 72.7087C113.021 72.7087 110.729 70.0777 110.729 66.8322C110.729 63.5867 113.021 60.9556 115.849 60.9556C118.676 60.9556 120.968 63.5867 120.968 66.8322C120.968 70.0777 118.676 72.7087 115.849 72.7087Z" fill="#FFB8B8"/>
<path d="M99.6371 94.2561C99.6371 94.2561 114.356 104.05 114.142 107.233C113.929 110.417 102.837 127.801 102.837 127.801C102.837 127.801 101.983 132.943 101.13 132.943C100.277 132.943 94.9442 135.147 94.7309 133.678C94.5176 132.209 96.4374 130.495 96.2241 129.515C96.0108 128.536 105.61 110.661 105.61 110.661C105.61 110.661 85.0664 101.847 89.3654 94.2561C93.6643 86.6655 99.6371 94.2561 99.6371 94.2561Z" fill="#2F2E41"/>
<path d="M99.2104 131.964C99.2104 131.964 101.77 132.698 102.197 133.678C102.623 134.657 110.089 137.84 107.956 138.575C105.823 139.31 93.451 139.554 93.0244 139.065C92.5977 138.575 93.0244 132.891 94.7309 132.917C96.4373 132.943 98.3571 133.678 99.2104 131.964Z" fill="#2F2E41"/>
<path d="M115.849 75.8919L111.049 69.1583C111.049 69.1583 105.61 67.3219 103.263 70.9947C100.917 74.6676 94.5175 83.7273 92.3844 85.6861C90.2513 87.645 87.2649 95.2355 88.3315 95.4804C89.398 95.7252 95.3707 92.787 97.7172 94.7458C100.064 96.7047 104.543 96.9495 104.756 95.9701C104.97 94.9907 117.768 78.5853 117.768 76.3816C117.768 74.1779 116.405 73.705 116.405 73.705L115.849 75.8919Z" fill="#006466"/>
<path d="M113.271 95.3591L119.706 92.7474C120.04 92.6121 120.405 92.8126 120.523 93.1951C120.641 93.5776 120.466 93.9972 120.133 94.1325L113.697 96.7442C113.364 96.8794 112.999 96.679 112.881 96.2965C112.763 95.914 112.938 95.4943 113.271 95.3591Z" fill="#2F2E41"/>
<path d="M127.794 92.2972C127.794 92.2972 135.26 94.7458 134.62 97.4392C133.98 100.133 127.154 94.2561 127.154 94.2561L127.794 92.2972Z" fill="#FFB8B8"/>
<path d="M108.383 70.9947C108.383 70.9947 111.369 73.933 112.009 77.361C112.649 80.789 115.849 86.9104 115.849 86.9104L128.861 91.8075C128.861 91.8075 129.714 96.4598 128.434 96.4598C127.154 96.4598 112.862 93.0318 112.436 92.2972C112.009 91.5626 102.837 77.6058 102.837 77.6058C102.837 77.6058 101.983 70.0153 108.383 70.9947Z" fill="#006466"/>
<path d="M119.028 60.0305C119.155 60.1552 119.306 60.2422 119.468 60.2837C119.55 60.3004 119.634 60.2794 119.702 60.2252C119.77 60.1711 119.817 60.0882 119.832 59.9946C119.926 60.2941 120.1 60.5514 120.331 60.7291C120.575 60.8753 120.953 60.7527 120.988 60.4391C121.023 60.6772 121.115 60.8996 121.253 61.0821C121.325 61.1694 121.424 61.2206 121.529 61.2246C121.633 61.2286 121.735 61.1851 121.812 61.1035C121.705 61.7746 121.771 62.4646 121.737 63.1457C121.704 63.8268 121.545 64.5489 121.097 64.9967C120.443 65.6499 119.46 65.4887 118.6 65.3649C118.47 65.3336 118.335 65.3421 118.209 65.3895C117.887 65.547 117.902 66.0615 117.897 66.4633C117.871 67.1681 117.628 67.8395 117.211 68.3582C116.795 68.8769 116.231 69.2093 115.621 69.2964C115.28 69.3569 114.932 69.2593 114.653 69.0251C114.409 68.7876 114.284 68.4004 114.004 68.2219C113.549 67.9316 112.997 68.355 112.665 68.8147C112.332 69.2743 112.004 69.8398 111.488 69.9239C110.807 70.0352 110.287 69.2377 110.033 68.5033C109.681 67.4741 109.513 66.3744 109.537 65.2693C109.562 64.1641 109.779 63.0758 110.176 62.0686C111.599 58.5066 116.462 57.9432 119.028 60.0305Z" fill="#E6E7E8"/>
<path d="M28.9481 159.868L29.3272 159.643C24.4036 148.716 27.0364 134.527 30.1119 124.547C32.2003 117.839 34.864 111.386 38.0637 105.283L37.7031 105.021C34.4868 111.156 31.8092 117.642 29.7099 124.383C26.606 134.454 23.9547 148.786 28.9481 159.868Z" fill="#2F2E41"/>
<path d="M25.2966 105.109L28.0642 122.495L27.6447 122.583L24.8771 105.197L25.2966 105.109Z" fill="#2F2E41"/>
<path d="M43.6998 119.922L44.0122 120.255L29.7204 137.885L29.408 137.551L43.6998 119.922Z" fill="#2F2E41"/>
<path d="M18.0066 139.287L25.2559 150.798L24.9101 151.085L17.6609 139.574L18.0066 139.287Z" fill="#2F2E41"/>
<path d="M24.0181 100.5C22.84 100.5 21.885 99.4037 21.885 98.0513C21.885 96.699 22.84 95.6028 24.0181 95.6028C25.1962 95.6028 26.1512 96.699 26.1512 98.0513C26.1512 99.4037 25.1962 100.5 24.0181 100.5Z" fill="#006466"/>
<path d="M47.2691 119.354C46.091 119.354 45.136 118.258 45.136 116.905C45.136 115.553 46.091 114.457 47.2691 114.457C48.4472 114.457 49.4022 115.553 49.4022 116.905C49.4022 118.258 48.4472 119.354 47.2691 119.354Z" fill="#3F3D56"/>
<path d="M37.8834 121.802C36.7053 121.802 35.7503 120.706 35.7503 119.354C35.7503 118.002 36.7053 116.905 37.8834 116.905C39.0615 116.905 40.0165 118.002 40.0165 119.354C40.0165 120.706 39.0615 121.802 37.8834 121.802Z" fill="#3F3D56"/>
<path d="M42.1496 131.352C40.9715 131.352 40.0165 130.256 40.0165 128.903C40.0165 127.551 40.9715 126.455 42.1496 126.455C43.3277 126.455 44.2827 127.551 44.2827 128.903C44.2827 130.256 43.3277 131.352 42.1496 131.352Z" fill="#006466"/>
<path d="M15.4857 137.473C14.3076 137.473 13.3525 136.377 13.3525 135.025C13.3525 133.672 14.3076 132.576 15.4857 132.576C16.6637 132.576 17.6188 133.672 17.6188 135.025C17.6188 136.377 16.6637 137.473 15.4857 137.473Z" fill="#3F3D56"/>
<path d="M22.525 140.167C21.3469 140.167 20.3919 139.07 20.3919 137.718C20.3919 136.366 21.3469 135.27 22.525 135.27C23.7031 135.27 24.6581 136.366 24.6581 137.718C24.6581 139.07 23.7031 140.167 22.525 140.167Z" fill="#3F3D56"/>
<path d="M17.6188 148.002C16.4408 148.002 15.4857 146.906 15.4857 145.553C15.4857 144.201 16.4408 143.105 17.6188 143.105C18.7969 143.105 19.752 144.201 19.752 145.553C19.752 146.906 18.7969 148.002 17.6188 148.002Z" fill="#3F3D56"/>
<path d="M40.0165 103.438C38.8385 103.438 37.8834 102.342 37.8834 100.99C37.8834 99.6373 38.8385 98.5411 40.0165 98.5411C41.1946 98.5411 42.1497 99.6373 42.1497 100.99C42.1497 102.342 41.1946 103.438 40.0165 103.438Z" fill="#3F3D56"/>
<path d="M7.37982 159.51H200V160H7.37982V159.51Z" fill="#2F2E41"/>
<path d="M166.951 108.807L185.054 96.8092L195.507 117.59L177.403 129.588L166.951 108.807Z" fill="#F0F8F9"/>
<path d="M176.962 133.767C177.891 133.767 178.798 133.451 179.57 132.859C180.341 132.267 180.943 131.426 181.298 130.441C181.653 129.457 181.746 128.374 181.565 127.329C181.384 126.284 180.937 125.324 180.281 124.571C179.624 123.817 178.788 123.304 177.878 123.096C176.968 122.889 176.024 122.995 175.167 123.403C174.309 123.811 173.576 124.501 173.06 125.387C172.545 126.273 172.27 127.314 172.27 128.38C172.271 129.808 172.766 131.177 173.646 132.187C174.525 133.197 175.718 133.765 176.962 133.767ZM176.962 123.483C177.806 123.483 178.631 123.77 179.333 124.308C180.034 124.846 180.581 125.611 180.904 126.506C181.227 127.401 181.311 128.385 181.147 129.335C180.982 130.285 180.576 131.158 179.979 131.843C179.382 132.527 178.622 132.994 177.795 133.183C176.967 133.372 176.109 133.275 175.33 132.904C174.55 132.534 173.884 131.906 173.415 131.101C172.946 130.295 172.696 129.348 172.696 128.38C172.697 127.081 173.147 125.837 173.947 124.919C174.747 124.001 175.831 123.484 176.962 123.483Z" fill="#3F3D56"/>
</g>
<defs>
<clipPath id="clip0_1146_13257">
<rect width="200" height="160" fill="white" transform="matrix(-1 0 0 1 200 0)"/>
</clipPath>
</defs>
</svg>
