<svg width="200" height="181" viewBox="0 0 200 181" fill="none" xmlns="http://www.w3.org/2000/svg">
<path d="M85.0176 109.685H84.1562L84.4251 94.6923L84.5869 85.6159H84.6107L84.7654 94.6923L84.8511 99.8554L84.8606 100.357L85.0176 109.685Z" fill="white"/>
<path d="M86.1947 99.6358L85.9912 99.2385L84.5311 100.029L84.7346 100.426L86.1947 99.6358Z" fill="white"/>
<path d="M111.24 109.685H109.896L110.174 94.1273L110.319 86.017L110.567 72.2129H110.605L110.838 86.0146L110.971 93.8681L110.986 94.6312L111.24 109.685Z" fill="white"/>
<path d="M113.012 93.5338L112.703 92.9297L110.483 94.1312L110.792 94.7353L113.012 93.5338Z" fill="white"/>
<path d="M34.6924 71.5593C34.6924 71.5593 40.1564 72.762 40.9721 72.203C41.2165 72.0453 41.4993 71.9617 41.7878 71.9617C42.0764 71.9617 42.3591 72.0453 42.6036 72.203C47.2261 70.3863 42.5613 64.8461 42.4253 62.6102C42.2894 60.3743 39.5702 57.3 39.5702 57.3L34.6924 71.5593Z" fill="#2F2E41"/>
<path d="M29.7385 66.3342C29.7385 69.3984 23.7761 76.1397 23.7761 76.1397L35.1046 94.2186C35.1046 94.2186 39.5764 75.8333 36.8934 74.914C34.2103 73.9948 37.1915 69.7049 37.1915 69.7049L29.7385 66.3342Z" fill="#A0616A"/>
<path d="M16.6212 96.67L24.6704 101.879L22.5836 105.25C22.5836 105.25 20.7948 103.718 20.7948 103.411C20.7948 103.105 8.87008 97.2828 7.6776 96.3636C6.48513 95.4443 10.3607 91.4608 10.3607 91.4608L16.6212 96.67Z" fill="#A0616A"/>
<path d="M48.712 96.2617C48.712 96.2617 40.7689 101.573 40.4708 102.186C40.1727 102.798 42.5576 109.846 44.0823 109.577C45.6069 109.307 44.0482 104.331 44.0482 104.331C44.0482 104.331 51.2031 98.5085 53.588 96.3636C55.973 94.2186 52.9918 89.3159 52.9918 89.3159L48.712 96.2617Z" fill="#A0616A"/>
<path d="M51.8577 166.041L53.6568 172.751L57.9345 172.567L55.733 164.203L51.8577 166.041Z" fill="#A0616A"/>
<path d="M25.2666 164.696L26.7571 171.437H29.7385V164.696H25.2666Z" fill="#A0616A"/>
<path d="M35.1045 71.5434C38.7267 71.5434 41.6631 68.5252 41.6631 64.8021C41.6631 61.079 38.7267 58.0609 35.1045 58.0609C31.4823 58.0609 28.5459 61.079 28.5459 64.8021C28.5459 68.5252 31.4823 71.5434 35.1045 71.5434Z" fill="#A0616A"/>
<path d="M25.5451 73.995C25.5451 73.995 24.6705 75.2205 21.3912 76.1397C18.1119 77.059 8.87016 85.9452 8.57205 92.3801C8.27393 98.815 16.3231 96.9764 16.3231 96.9764C16.3231 96.9764 23.7761 98.2021 23.7761 98.5085C23.7761 98.815 23.478 100.653 23.478 100.653C18.7081 106.782 18.1119 117.2 18.1119 117.2C18.1119 117.2 15.1307 162.857 15.7269 166.534C16.3232 170.211 30.6329 168.066 30.6329 168.066L31.2291 127.006C31.2291 127.006 37.1914 163.776 38.3839 166.841C39.5764 169.905 56.5692 165.921 56.5692 165.921C56.5692 165.921 42.5576 104.943 42.5576 100.96C42.5576 96.9764 47.0294 96.0572 47.0294 96.0572C47.0294 96.0572 51.7993 96.9764 52.0974 95.1379C52.3955 93.2994 54.1842 90.5416 54.1842 90.5416C54.1842 90.5416 50.6068 82.5746 47.3275 78.2847C44.0482 73.9948 36.8933 74.914 36.8933 74.914L33.0178 88.703L25.5451 73.995Z" fill="#2F2E41"/>
<path d="M52.9885 170.694C52.9885 170.694 52.3735 177.513 52.3923 178.481C52.409 179.346 58.3578 179.584 58.954 178.665C59.5503 177.745 61.6371 178.665 61.6371 179.277C61.6371 179.89 67.5995 179.457 67.5995 179.457C75.3506 175.78 66.49 174.766 66.49 174.766C66.49 174.766 61.2106 172.204 58.8257 171.285C56.4407 170.366 57.3998 170.919 57.3998 170.919C56.8035 173.064 52.9885 170.694 52.9885 170.694Z" fill="#2F2E41"/>
<path d="M24.3722 177.259C24.0741 177.565 24.9684 181.549 29.1421 180.936C33.3158 180.323 32.1233 175.727 32.1233 175.114C32.1233 174.501 31.527 169.905 31.2289 168.679C30.9308 167.453 25.8628 169.598 25.8628 169.598C25.8628 169.598 24.6703 176.953 24.3722 177.259Z" fill="#2F2E41"/>
<path d="M40.3789 58.5577C40.0895 59.5194 39.8624 60.4997 39.6991 61.4923C39.5632 62.6102 36.98 62.8897 36.98 62.8897C37.2519 62.8897 37.2519 61.2128 37.2519 61.2128C37.2519 62.191 35.7564 63.1692 35.7564 63.1692C34.3917 64.0019 33.1547 65.038 32.0856 66.2435C30.1822 68.3397 32.6294 68.6192 32.6294 68.6192C32.446 71.9879 25.7363 73.3533 25.7363 73.3533C17.9868 70.5585 23.8904 60.9956 23.8904 60.9956C29.7365 49.8162 34.4648 54.7147 34.4648 54.7147C39.5632 53.9462 40.3789 58.5577 40.3789 58.5577Z" fill="#2F2E41"/>
<g clip-path="url(#clip0_1147_13453)">
<path d="M153.507 180H82.787C75.12 180 68.8823 173.109 68.8823 164.639V15.3604C68.8823 6.89068 75.12 0 82.787 0H153.507C161.174 0 167.412 6.89068 167.412 15.3604V164.639C167.412 173.109 161.174 180 153.507 180Z" fill="#3F3D56"/>
<path d="M167.412 54.9097C167.087 54.9097 166.823 55.2012 166.823 55.5595V76.3538C166.823 76.7121 167.087 77.0036 167.412 77.0036C167.736 77.0036 168 76.7121 168 76.3538V55.5595C168 55.2012 167.736 54.9097 167.412 54.9097Z" fill="#3F3D56"/>
<path d="M166.088 15.3605V164.637C166.088 172.009 160.894 178.039 154.327 178.507H154.324C154.227 178.514 154.13 178.52 154.03 178.524C153.856 178.533 153.683 178.537 153.506 178.537C153.506 178.537 152.859 178.485 151.677 178.387C150.483 178.29 148.744 178.143 146.577 177.952C145.927 177.896 145.241 177.835 144.518 177.77C143.077 177.64 141.494 177.497 139.797 177.334C139.121 177.273 138.421 177.204 137.706 177.136C134.053 176.789 129.962 176.382 125.647 175.921C124.918 175.846 124.183 175.768 123.441 175.687C123.247 175.664 123.05 175.645 122.853 175.622C119.777 175.287 116.615 174.927 113.441 174.543C113.244 174.521 113.047 174.498 112.853 174.475C107.385 173.809 101.897 173.085 96.7619 172.305C92.8119 171.707 89.0708 171.077 85.7119 170.424C84.6178 170.209 83.5649 169.995 82.559 169.777C82.3619 169.735 82.1649 169.693 81.9708 169.647C74.8619 168.074 70.2061 166.378 70.2061 164.637V15.3605C70.206 7.6829 75.8384 1.46088 82.7884 1.46088H90.3002C91.5002 1.46088 92.4649 2.49409 92.5678 3.81647C92.5766 3.9042 92.5855 3.99191 92.6002 4.07964C92.8178 5.40853 93.9207 6.33452 95.1443 6.33452H141.15C142.374 6.33452 143.477 5.40854 143.694 4.07964C143.709 3.99191 143.718 3.9042 143.727 3.81647C143.83 2.49409 144.794 1.46088 145.994 1.46088H153.506C160.456 1.46088 166.088 7.6829 166.088 15.3605Z" fill="white"/>
<path d="M68.5882 39.3141C68.2638 39.3141 68 39.6055 68 39.9639V45.1625C68 45.5208 68.2638 45.8123 68.5882 45.8123C68.9127 45.8123 69.1765 45.5208 69.1765 45.1625V39.9639C69.1765 39.6055 68.9127 39.3141 68.5882 39.3141Z" fill="#3F3D56"/>
<path d="M68.5882 54.9097C68.2638 54.9097 68 55.2012 68 55.5595V65.6317C68 65.9901 68.2638 66.2816 68.5882 66.2816C68.9127 66.2816 69.1765 65.9901 69.1765 65.6317V55.5595C69.1765 55.2012 68.9127 54.9097 68.5882 54.9097Z" fill="#3F3D56"/>
<path d="M68.5882 69.2057C68.2638 69.2057 68 69.4972 68 69.8556V79.9278C68 80.2861 68.2638 80.5776 68.5882 80.5776C68.9127 80.5776 69.1765 80.2861 69.1765 79.9278V69.8556C69.1765 69.4972 68.9127 69.2057 68.5882 69.2057Z" fill="#3F3D56"/>
<path d="M90.1155 3.73651H78.8258C78.7758 3.73651 78.7354 3.78123 78.7354 3.8364V5.26117C78.7354 5.31633 78.7758 5.36106 78.8258 5.36106H90.1155C90.1655 5.36106 90.2059 5.31633 90.2059 5.26117V3.8364C90.2059 3.78123 90.1655 3.73651 90.1155 3.73651Z" fill="#3F3D56"/>
<path d="M147.853 5.36105C148.503 5.36105 149.029 4.77918 149.029 4.06141C149.029 3.34365 148.503 2.76178 147.853 2.76178C147.203 2.76178 146.677 3.34365 146.677 4.06141C146.677 4.77918 147.203 5.36105 147.853 5.36105Z" fill="#3F3D56"/>
<path d="M151.088 5.36105C151.738 5.36105 152.265 4.77918 152.265 4.06141C152.265 3.34365 151.738 2.76178 151.088 2.76178C150.439 2.76178 149.912 3.34365 149.912 4.06141C149.912 4.77918 150.439 5.36105 151.088 5.36105Z" fill="#3F3D56"/>
<path d="M154.323 5.36105C154.973 5.36105 155.5 4.77918 155.5 4.06141C155.5 3.34365 154.973 2.76178 154.323 2.76178C153.674 2.76178 153.147 3.34365 153.147 4.06141C153.147 4.77918 153.674 5.36105 154.323 5.36105Z" fill="#3F3D56"/>
<path d="M136.556 172.154C137.159 172.196 137.491 171.369 137.036 170.888L136.99 170.689C136.996 170.673 137.002 170.657 137.008 170.641C137.618 169.037 139.682 169.048 140.285 170.654C140.821 172.08 141.504 173.509 141.672 175.016C141.747 175.682 141.713 176.36 141.579 177.013C142.835 173.983 143.496 170.674 143.496 167.346C143.496 166.51 143.455 165.674 143.37 164.84C143.3 164.157 143.204 163.479 143.08 162.808C142.408 159.176 140.952 155.717 138.853 152.828C137.844 152.219 137.002 151.266 136.494 150.125C136.311 149.713 136.168 149.27 136.101 148.818C136.215 148.835 136.534 146.903 136.447 146.784C136.607 146.516 136.894 146.383 137.068 146.121C137.938 144.819 139.135 145.046 139.761 146.815C141.096 147.56 141.109 148.795 140.29 149.983C139.768 150.739 139.697 151.761 139.239 152.57C139.286 152.637 139.335 152.701 139.382 152.768C140.245 153.991 140.992 155.306 141.621 156.687C141.443 155.152 141.706 153.303 142.154 152.111C142.663 150.753 143.618 149.609 144.46 148.435C145.47 147.025 147.542 147.64 147.72 149.428C147.721 149.445 147.723 149.462 147.725 149.48C147.6 149.558 147.477 149.64 147.358 149.728C146.676 150.226 146.912 151.394 147.72 151.532L147.738 151.535C147.693 152.032 147.616 152.525 147.503 153.009C148.582 157.619 146.252 159.298 142.926 159.374C142.852 159.415 142.781 159.457 142.707 159.496C143.044 160.545 143.313 161.62 143.513 162.71C143.692 163.673 143.816 164.646 143.886 165.624C143.972 166.857 143.965 168.097 143.871 169.328L143.876 169.284C144.115 167.928 144.782 166.662 145.75 165.784C147.191 164.476 149.228 163.994 150.783 162.942C151.532 162.436 152.491 163.09 152.361 164.049L152.354 164.095C152.123 164.199 151.897 164.32 151.679 164.455C151.554 164.533 151.431 164.615 151.312 164.703C150.63 165.201 150.865 166.369 151.673 166.507L151.692 166.51C151.705 166.512 151.716 166.514 151.729 166.516C151.332 167.558 150.779 168.525 150.086 169.359C149.411 173.383 146.513 173.765 143.413 172.593H143.411C143.072 174.224 142.577 175.817 141.941 177.335H136.688C136.669 177.271 136.652 177.204 136.635 177.14C137.121 177.173 137.611 177.142 138.089 177.044C137.699 176.516 137.309 175.983 136.92 175.455C136.91 175.445 136.903 175.434 136.895 175.424C136.697 175.154 136.498 174.885 136.3 174.615L136.3 174.615C136.288 173.785 136.378 172.957 136.556 172.154Z" fill="#F2F2F2"/>
<path d="M156.121 22.8694C155.592 21.3619 154.056 20.6141 152.692 21.1991C151.34 21.7786 150.664 23.4483 151.166 24.9449L151.126 24.9619L153.044 30.4209L157.591 28.4715C157.741 28.4386 157.891 28.3918 158.039 28.3285C159.404 27.7434 160.081 26.0471 159.551 24.5396C159.021 23.0322 157.486 22.2844 156.121 22.8694Z" fill="#006466"/>
<path d="M77.8981 154.655C76.4407 154.504 75.1484 155.686 75.0118 157.296C74.8764 158.891 75.9257 160.306 77.3619 160.479L77.358 160.526L82.6356 161.073L83.0911 155.708C83.1318 155.545 83.1609 155.376 83.1757 155.201C83.3124 153.592 82.2418 152.164 80.7844 152.013C79.327 151.862 78.0348 153.045 77.8981 154.655Z" fill="#006466"/>
<path d="M88.9908 57.3569L93 53.0602C89.8855 52.5997 88.6058 54.8758 88.082 56.6774C85.6488 55.3235 83 57.0978 83 57.0978L91.0216 61C90.6169 59.5516 89.9125 58.2879 88.9908 57.3569Z" fill="#006466"/>
<path d="M133.991 26.2677L138 23.0451C134.885 22.6998 133.606 24.4069 133.082 25.758C130.649 24.7426 128 26.0734 128 26.0734L136.022 29C135.617 27.9137 134.912 26.9659 133.991 26.2677Z" fill="#006466"/>
<path d="M115.991 55.3569L120 51.0602C116.885 50.5997 115.606 52.8758 115.082 54.6774C112.649 53.3235 110 55.0978 110 55.0978L118.022 59C117.617 57.5516 116.912 56.2879 115.991 55.3569Z" fill="#006466"/>
</g>
<path d="M156.474 92H76.5264C76.1216 92 75.7333 91.842 75.4471 91.5607C75.1608 91.2794 75 90.8978 75 90.5C75 90.1022 75.1608 89.7206 75.4471 89.4393C75.7333 89.158 76.1216 89 76.5264 89H156.474C156.878 89 157.267 89.158 157.553 89.4393C157.839 89.7206 158 90.1022 158 90.5C158 90.8978 157.839 91.2794 157.553 91.5607C157.267 91.842 156.878 92 156.474 92Z" fill="#F2F2F2"/>
<path d="M156.474 101H76.5264C76.1216 101 75.7333 100.842 75.4471 100.561C75.1608 100.279 75 99.8978 75 99.5C75 99.1022 75.1608 98.7206 75.4471 98.4393C75.7333 98.158 76.1216 98 76.5264 98H156.474C156.878 98 157.267 98.158 157.553 98.4393C157.839 98.7206 158 99.1022 158 99.5C158 99.8978 157.839 100.279 157.553 100.561C157.267 100.842 156.878 101 156.474 101Z" fill="#F2F2F2"/>
<path d="M133.812 121.484H101.697C101.247 121.484 100.815 121.3 100.497 120.973C100.179 120.647 100 120.204 100 119.742C100 119.28 100.179 118.837 100.497 118.51C100.815 118.184 101.247 118 101.697 118H133.812C134.262 118 134.693 118.184 135.012 118.51C135.33 118.837 135.509 119.28 135.509 119.742C135.509 120.204 135.33 120.647 135.012 120.973C134.693 121.3 134.262 121.484 133.812 121.484Z" fill="#006466"/>
<defs>
<clipPath id="clip0_1147_13453">
<rect width="100" height="180" fill="white" transform="translate(68)"/>
</clipPath>
</defs>
</svg>
