<svg width="18" height="17" viewBox="0 0 18 17" fill="none" xmlns="http://www.w3.org/2000/svg">
<path d="M16.4359 10.5246L12.4871 8.87641L12.472 8.87016C12.2154 8.76713 11.935 8.72565 11.6567 8.74952C11.3784 8.77339 11.1109 8.86185 10.8788 9.0068C10.8462 9.02708 10.8149 9.04898 10.7848 9.07238L8.91399 10.5559C7.82385 10.0054 6.69765 8.96542 6.10562 7.96289L7.70393 6.19363C7.72963 6.16507 7.75343 6.13509 7.77521 6.10384C7.92681 5.88846 8.01885 5.64152 8.04314 5.38501C8.06742 5.12849 8.0232 4.87037 7.91441 4.63362C7.91183 4.62908 7.90959 4.62439 7.90771 4.61956L6.13833 0.9366C5.99309 0.628598 5.74521 0.372316 5.43138 0.205682C5.11755 0.0390482 4.75443 -0.0290839 4.39578 0.0113689C3.17849 0.16026 2.06103 0.716632 1.2521 1.57657C0.443178 2.43652 -0.00189651 3.54122 6.07465e-06 4.68437C6.07465e-06 11.0564 5.56726 16.24 12.4108 16.24C13.6386 16.2418 14.825 15.8274 15.7486 15.0742C16.6722 14.321 17.2697 13.2805 17.4297 12.1471C17.4731 11.8132 17.3999 11.4751 17.221 11.1829C17.042 10.8907 16.7667 10.6599 16.4359 10.5246ZM12.4108 14.3661C9.65405 14.363 7.01115 13.342 5.06182 11.527C3.11249 9.71196 2.0159 7.25118 2.01257 4.68437C2.01065 4.03748 2.24652 3.40946 2.68098 2.90466C3.11544 2.39986 3.72233 2.04867 4.40081 1.90946L5.979 5.18876L4.3723 6.97051C4.34633 6.99933 4.32225 7.02957 4.30018 7.06108C4.14182 7.28638 4.04871 7.54598 4.02991 7.81467C4.0111 8.08336 4.06723 8.35201 4.19285 8.59454C4.98278 10.0999 6.61044 11.6053 8.24397 12.3423C8.50619 12.4581 8.79618 12.5085 9.08559 12.4886C9.375 12.4688 9.65393 12.3794 9.89511 12.2291C9.92754 12.2087 9.95862 12.1866 9.98819 12.1627L11.8691 10.6738L15.3911 12.1424C15.2416 12.7742 14.8644 13.3392 14.3222 13.7438C13.7801 14.1483 13.1056 14.3679 12.4108 14.3661Z" fill="#A6A6A6" fill-opacity="0.9"/>
</svg>
