<svg width="140" height="230" viewBox="0 0 140 230" fill="none" xmlns="http://www.w3.org/2000/svg">
<path d="M140 54.6566H138.457V20.0369C138.457 17.4056 137.825 14.8001 136.595 12.3691C135.366 9.93814 133.564 7.72929 131.293 5.86869C129.022 4.00809 126.325 2.53218 123.358 1.52522C120.39 0.518274 117.209 2.07514e-06 113.997 0H24.46C21.2479 -6.22521e-06 18.0672 0.518259 15.0996 1.5252C12.132 2.53215 9.43553 4.00805 7.16421 5.86864C4.89288 7.72924 3.09116 9.93809 1.86192 12.3691C0.63269 14.8001 6.58619e-06 17.4056 0 20.0369V209.963C-3.06956e-06 215.277 2.57703 220.374 7.16416 224.131C11.7513 227.889 17.9728 230 24.46 230H113.997C120.484 230 126.706 227.889 131.293 224.131C135.88 220.374 138.457 215.277 138.457 209.963V79.2995H140L140 54.6566Z" fill="#3F3D56"/>
<path d="M114.985 5.21294H103.297C103.835 6.29238 104.04 7.46354 103.895 8.62324C103.75 9.78295 103.258 10.8956 102.465 11.8632C101.671 12.8308 100.599 13.6236 99.3428 14.1718C98.0868 14.72 96.6855 15.0068 95.2624 15.0069H43.9676C42.5445 15.0068 41.1432 14.72 39.8873 14.1718C38.6313 13.6236 37.5592 12.8308 36.7654 11.8632C35.9716 10.8956 35.4805 9.78294 35.3352 8.62324C35.19 7.46353 35.3952 6.29237 35.9327 5.21292H25.0164C20.1719 5.21292 15.5257 6.78941 12.1001 9.59557C8.67449 12.4017 6.75001 16.2077 6.75 20.1763V209.824C6.75 211.789 7.22247 213.735 8.14044 215.55C9.05842 217.365 10.4039 219.015 12.1001 220.404C13.7963 221.794 15.81 222.896 18.0262 223.648C20.2424 224.4 22.6176 224.787 25.0164 224.787H114.985C117.384 224.787 119.759 224.4 121.975 223.648C124.191 222.896 126.205 221.794 127.901 220.404C129.597 219.015 130.943 217.365 131.861 215.55C132.779 213.735 133.251 211.789 133.251 209.824V20.1763C133.251 18.2112 132.779 16.2655 131.861 14.45C130.943 12.6346 129.597 10.985 127.901 9.59558C126.205 8.2061 124.191 7.10392 121.975 6.35194C119.759 5.59997 117.384 5.21293 114.985 5.21294Z" fill="white"/>
<path d="M121.805 42.5023H18.1943V187.498H121.805V42.5023Z" fill="#E6E6E6"/>
<path d="M70.1537 214.189C75.6934 214.189 80.1843 210.51 80.1843 205.972C80.1843 201.434 75.6934 197.755 70.1537 197.755C64.6139 197.755 60.123 201.434 60.123 205.972C60.123 210.51 64.6139 214.189 70.1537 214.189Z" fill="#E6E6E6"/>
<path d="M68.9692 89.8816H40.8048C39.808 89.8816 39 90.6896 39 91.6864V152.433C39 153.43 39.808 154.238 40.8048 154.238H68.9692C69.966 154.238 70.774 153.43 70.774 152.433V91.6864C70.774 90.6896 69.966 89.8816 68.9692 89.8816Z" fill="white" stroke="#263238" stroke-width="1.01" stroke-miterlimit="10" stroke-linecap="round" stroke-linejoin="round"/>
<path d="M68.1134 98.3232H41.6598C40.663 98.3232 39.855 99.1312 39.855 100.128V150.896C39.855 151.893 40.663 152.701 41.6598 152.701H68.1134C69.1102 152.701 69.9182 151.893 69.9182 150.896V100.128C69.9182 99.1312 69.1102 98.3232 68.1134 98.3232Z" fill="#B2D1D1"/>
<path opacity="0.5" d="M68.1134 98.3232H41.6598C40.663 98.3232 39.855 99.1312 39.855 100.128V150.896C39.855 151.893 40.663 152.701 41.6598 152.701H68.1134C69.1102 152.701 69.9182 151.893 69.9182 150.896V100.128C69.9182 99.1312 69.1102 98.3232 68.1134 98.3232Z" fill="white"/>
<path d="M62.4447 76H47.3291V89.8816H62.4447V76Z" fill="#263238" stroke="#263238" stroke-width="1.01" stroke-miterlimit="10" stroke-linecap="round" stroke-linejoin="round"/>
<path d="M48.5903 77.374V88.3832" stroke="white" stroke-width="1.01" stroke-miterlimit="10" stroke-linecap="round" stroke-linejoin="round"/>
<path d="M50.9258 77.374V88.3832" stroke="white" stroke-width="1.01" stroke-miterlimit="10" stroke-linecap="round" stroke-linejoin="round"/>
<path d="M54.2617 80.8768V88.3832" stroke="white" stroke-width="1.01" stroke-miterlimit="10" stroke-linecap="round" stroke-linejoin="round"/>
<path d="M54.2617 77.374V79.2088" stroke="white" stroke-width="1.01" stroke-miterlimit="10" stroke-linecap="round" stroke-linejoin="round"/>
<path d="M68.9583 103.538H40.8159V134.598H68.9583V103.538Z" fill="white"/>
<path d="M54.6996 130.293C60.4573 130.293 65.1248 125.625 65.1248 119.868C65.1248 114.11 60.4573 109.442 54.6996 109.442C48.9419 109.442 44.2744 114.11 44.2744 119.868C44.2744 125.625 48.9419 130.293 54.6996 130.293Z" fill="#263238"/>
<path d="M56.6086 112.695H52.791V127.04H56.6086V112.695Z" fill="#B2D1D1"/>
<path d="M61.8726 121.776V117.959H47.5274V121.776H61.8726Z" fill="#B2D1D1"/>
<path d="M98.7021 154.37H54.3945C53.3449 154.37 52.4941 153.52 52.4941 152.47V126.7C52.4941 125.651 53.3449 124.8 54.3945 124.8H98.7021C99.7517 124.8 100.603 125.651 100.603 126.7V152.47C100.603 153.519 99.7517 154.37 98.7021 154.37Z" fill="white" stroke="#263238" stroke-miterlimit="10" stroke-linecap="round" stroke-linejoin="round"/>
<path d="M57.101 137.621C56.1198 137.621 55.3242 136.825 55.3242 135.844V131.042C55.3242 130.061 56.1198 129.265 57.101 129.265C58.0822 129.265 58.8778 130.061 58.8778 131.042V135.844C58.8774 136.825 58.0822 137.621 57.101 137.621Z" fill="#263238" stroke="#263238" stroke-width="1.01" stroke-miterlimit="10" stroke-linecap="round" stroke-linejoin="round"/>
<path d="M58.3013 130.898V133.875" stroke="white" stroke-width="1.01" stroke-miterlimit="10" stroke-linecap="round" stroke-linejoin="round"/>
<path d="M58.3013 134.644V136.276" stroke="white" stroke-width="1.01" stroke-miterlimit="10" stroke-linecap="round" stroke-linejoin="round"/>
<path d="M64.8798 137.621C63.8986 137.621 63.103 136.825 63.103 135.844V131.042C63.103 130.061 63.8986 129.265 64.8798 129.265C65.861 129.265 66.6566 130.061 66.6566 131.042V135.844C66.6566 136.825 65.861 137.621 64.8798 137.621Z" fill="#263238" stroke="#263238" stroke-width="1.01" stroke-miterlimit="10" stroke-linecap="round" stroke-linejoin="round"/>
<path d="M66.0801 130.898V133.875" stroke="white" stroke-width="1.01" stroke-miterlimit="10" stroke-linecap="round" stroke-linejoin="round"/>
<path d="M66.0801 134.644V136.276" stroke="white" stroke-width="1.01" stroke-miterlimit="10" stroke-linecap="round" stroke-linejoin="round"/>
<path d="M72.6591 137.621C71.6779 137.621 70.8823 136.825 70.8823 135.844V131.042C70.8823 130.061 71.6779 129.265 72.6591 129.265C73.6403 129.265 74.4359 130.061 74.4359 131.042V135.844C74.4359 136.825 73.6403 137.621 72.6591 137.621Z" fill="#263238" stroke="#263238" stroke-width="1.01" stroke-miterlimit="10" stroke-linecap="round" stroke-linejoin="round"/>
<path d="M73.8594 130.898V133.875" stroke="white" stroke-width="1.01" stroke-miterlimit="10" stroke-linecap="round" stroke-linejoin="round"/>
<path d="M73.8594 134.644V136.276" stroke="white" stroke-width="1.01" stroke-miterlimit="10" stroke-linecap="round" stroke-linejoin="round"/>
<path d="M80.4384 137.621C79.4572 137.621 78.6616 136.825 78.6616 135.844V131.042C78.6616 130.061 79.4572 129.265 80.4384 129.265C81.4196 129.265 82.2152 130.061 82.2152 131.042V135.844C82.2148 136.825 81.4196 137.621 80.4384 137.621Z" fill="#263238" stroke="#263238" stroke-width="1.01" stroke-miterlimit="10" stroke-linecap="round" stroke-linejoin="round"/>
<path d="M81.6387 130.898V133.875" stroke="white" stroke-width="1.01" stroke-miterlimit="10" stroke-linecap="round" stroke-linejoin="round"/>
<path d="M81.6387 134.644V136.276" stroke="white" stroke-width="1.01" stroke-miterlimit="10" stroke-linecap="round" stroke-linejoin="round"/>
<path d="M88.2172 137.621C87.236 137.621 86.4404 136.825 86.4404 135.844V131.042C86.4404 130.061 87.236 129.265 88.2172 129.265C89.1984 129.265 89.994 130.061 89.994 131.042V135.844C89.994 136.825 89.1984 137.621 88.2172 137.621Z" fill="#263238" stroke="#263238" stroke-width="1.01" stroke-miterlimit="10" stroke-linecap="round" stroke-linejoin="round"/>
<path d="M89.4175 130.898V133.875" stroke="white" stroke-width="1.01" stroke-miterlimit="10" stroke-linecap="round" stroke-linejoin="round"/>
<path d="M89.4175 134.644V136.276" stroke="white" stroke-width="1.01" stroke-miterlimit="10" stroke-linecap="round" stroke-linejoin="round"/>
<path d="M95.996 137.621C95.0148 137.621 94.2192 136.825 94.2192 135.844V131.042C94.2192 130.061 95.0148 129.265 95.996 129.265C96.9772 129.265 97.7728 130.061 97.7728 131.042V135.844C97.7728 136.825 96.9772 137.621 95.996 137.621Z" fill="#263238" stroke="#263238" stroke-width="1.01" stroke-miterlimit="10" stroke-linecap="round" stroke-linejoin="round"/>
<path d="M97.1963 130.898V133.875" stroke="white" stroke-width="1.01" stroke-miterlimit="10" stroke-linecap="round" stroke-linejoin="round"/>
<path d="M97.1963 134.644V136.276" stroke="white" stroke-width="1.01" stroke-miterlimit="10" stroke-linecap="round" stroke-linejoin="round"/>
<path d="M57.101 150.394C56.1198 150.394 55.3242 149.598 55.3242 148.617V143.815C55.3242 142.834 56.1198 142.038 57.101 142.038C58.0822 142.038 58.8778 142.834 58.8778 143.815V148.617C58.8774 149.598 58.0822 150.394 57.101 150.394Z" fill="#263238" stroke="#263238" stroke-width="1.01" stroke-miterlimit="10" stroke-linecap="round" stroke-linejoin="round"/>
<path d="M58.3013 143.671V146.648" stroke="white" stroke-width="1.01" stroke-miterlimit="10" stroke-linecap="round" stroke-linejoin="round"/>
<path d="M58.3013 147.416V149.049" stroke="white" stroke-width="1.01" stroke-miterlimit="10" stroke-linecap="round" stroke-linejoin="round"/>
<path d="M64.8798 150.394C63.8986 150.394 63.103 149.598 63.103 148.617V143.815C63.103 142.834 63.8986 142.038 64.8798 142.038C65.861 142.038 66.6566 142.834 66.6566 143.815V148.617C66.6566 149.598 65.861 150.394 64.8798 150.394Z" fill="#263238" stroke="#263238" stroke-width="1.01" stroke-miterlimit="10" stroke-linecap="round" stroke-linejoin="round"/>
<path d="M66.0801 143.671V146.648" stroke="white" stroke-width="1.01" stroke-miterlimit="10" stroke-linecap="round" stroke-linejoin="round"/>
<path d="M66.0801 147.416V149.049" stroke="white" stroke-width="1.01" stroke-miterlimit="10" stroke-linecap="round" stroke-linejoin="round"/>
<path d="M72.6591 150.394C71.6779 150.394 70.8823 149.598 70.8823 148.617V143.815C70.8823 142.834 71.6779 142.038 72.6591 142.038C73.6403 142.038 74.4359 142.834 74.4359 143.815V148.617C74.4359 149.598 73.6403 150.394 72.6591 150.394Z" fill="#263238" stroke="#263238" stroke-width="1.01" stroke-miterlimit="10" stroke-linecap="round" stroke-linejoin="round"/>
<path d="M73.8594 143.671V146.648" stroke="white" stroke-width="1.01" stroke-miterlimit="10" stroke-linecap="round" stroke-linejoin="round"/>
<path d="M73.8594 147.416V149.049" stroke="white" stroke-width="1.01" stroke-miterlimit="10" stroke-linecap="round" stroke-linejoin="round"/>
<path d="M80.4384 150.394C79.4572 150.394 78.6616 149.598 78.6616 148.617V143.815C78.6616 142.834 79.4572 142.038 80.4384 142.038C81.4196 142.038 82.2152 142.834 82.2152 143.815V148.617C82.2148 149.598 81.4196 150.394 80.4384 150.394Z" fill="#263238" stroke="#263238" stroke-width="1.01" stroke-miterlimit="10" stroke-linecap="round" stroke-linejoin="round"/>
<path d="M81.6387 143.671V146.648" stroke="white" stroke-width="1.01" stroke-miterlimit="10" stroke-linecap="round" stroke-linejoin="round"/>
<path d="M81.6387 147.416V149.049" stroke="white" stroke-width="1.01" stroke-miterlimit="10" stroke-linecap="round" stroke-linejoin="round"/>
<path d="M88.2172 150.394C87.236 150.394 86.4404 149.598 86.4404 148.617V143.815C86.4404 142.834 87.236 142.038 88.2172 142.038C89.1984 142.038 89.994 142.834 89.994 143.815V148.617C89.994 149.598 89.1984 150.394 88.2172 150.394Z" fill="#263238" stroke="#263238" stroke-width="1.01" stroke-miterlimit="10" stroke-linecap="round" stroke-linejoin="round"/>
<path d="M89.4175 143.671V146.648" stroke="white" stroke-width="1.01" stroke-miterlimit="10" stroke-linecap="round" stroke-linejoin="round"/>
<path d="M89.4175 147.416V149.049" stroke="white" stroke-width="1.01" stroke-miterlimit="10" stroke-linecap="round" stroke-linejoin="round"/>
<path d="M95.996 150.394C95.0148 150.394 94.2192 149.598 94.2192 148.617V143.815C94.2192 142.834 95.0148 142.038 95.996 142.038C96.9772 142.038 97.7728 142.834 97.7728 143.815V148.617C97.7728 149.598 96.9772 150.394 95.996 150.394Z" fill="#263238" stroke="#263238" stroke-width="1.01" stroke-miterlimit="10" stroke-linecap="round" stroke-linejoin="round"/>
<path d="M97.1963 143.671V146.648" stroke="white" stroke-width="1.01" stroke-miterlimit="10" stroke-linecap="round" stroke-linejoin="round"/>
<path d="M97.1963 147.416V149.049" stroke="white" stroke-width="1.01" stroke-miterlimit="10" stroke-linecap="round" stroke-linejoin="round"/>
<path d="M61.0352 126.336V127.336" stroke="#263238" stroke-width="0.5" stroke-linecap="round" stroke-linejoin="round"/>
<path d="M61.0352 129.192V150.531" stroke="#263238" stroke-width="0.5" stroke-linecap="round" stroke-linejoin="round" stroke-dasharray="4.64 4.64"/>
<path d="M61.0352 151.459V152.459" stroke="#263238" stroke-width="0.5" stroke-linecap="round" stroke-linejoin="round"/>
<path d="M68.8145 126.336V127.336" stroke="#263238" stroke-width="0.5" stroke-linecap="round" stroke-linejoin="round"/>
<path d="M68.8145 129.192V150.531" stroke="#263238" stroke-width="0.5" stroke-linecap="round" stroke-linejoin="round" stroke-dasharray="4.64 4.64"/>
<path d="M68.8145 151.459V152.459" stroke="#263238" stroke-width="0.5" stroke-linecap="round" stroke-linejoin="round"/>
<path d="M76.5938 126.336V127.336" stroke="#263238" stroke-width="0.5" stroke-linecap="round" stroke-linejoin="round"/>
<path d="M76.5938 129.192V150.531" stroke="#263238" stroke-width="0.5" stroke-linecap="round" stroke-linejoin="round" stroke-dasharray="4.64 4.64"/>
<path d="M76.5938 151.459V152.459" stroke="#263238" stroke-width="0.5" stroke-linecap="round" stroke-linejoin="round"/>
<path d="M84.3726 126.336V127.336" stroke="#263238" stroke-width="0.5" stroke-linecap="round" stroke-linejoin="round"/>
<path d="M84.3726 129.192V150.531" stroke="#263238" stroke-width="0.5" stroke-linecap="round" stroke-linejoin="round" stroke-dasharray="4.64 4.64"/>
<path d="M84.3726 151.459V152.459" stroke="#263238" stroke-width="0.5" stroke-linecap="round" stroke-linejoin="round"/>
<path d="M92.1514 126.336V127.336" stroke="#263238" stroke-width="0.5" stroke-linecap="round" stroke-linejoin="round"/>
<path d="M92.1514 129.192V150.531" stroke="#263238" stroke-width="0.5" stroke-linecap="round" stroke-linejoin="round" stroke-dasharray="4.64 4.64"/>
<path d="M92.1514 151.459V152.459" stroke="#263238" stroke-width="0.5" stroke-linecap="round" stroke-linejoin="round"/>
<path d="M53.7363 139.59H99.1623" stroke="#263238" stroke-width="0.5" stroke-miterlimit="10" stroke-linecap="round" stroke-linejoin="round" stroke-dasharray="5 5"/>
<path d="M97.1658 128.891V122.362H86.6046V128.891L84.0802 132.362C83.7242 132.852 83.5322 133.442 83.5322 134.047V154.238H100.238V134.047C100.238 133.442 100.046 132.852 99.6902 132.362L97.1658 128.891Z" fill="#263238" stroke="#263238" stroke-width="1.01" stroke-miterlimit="10" stroke-linecap="round" stroke-linejoin="round"/>
<path d="M97.1721 119.366H86.6489V120.498H97.1721V119.366Z" fill="#263238" stroke="#263238" stroke-width="1.01" stroke-miterlimit="10" stroke-linecap="round" stroke-linejoin="round"/>
<path d="M98.702 116.792H85.0684V119.691H98.702V116.792Z" fill="#B2D1D1" stroke="#263238" stroke-width="1.01" stroke-miterlimit="10" stroke-linecap="round" stroke-linejoin="round"/>
<path d="M98.194 120.442H85.5764C85.2956 120.442 85.0684 120.669 85.0684 120.95V122.238C85.0684 122.518 85.296 122.746 85.5764 122.746H98.194C98.4744 122.746 98.702 122.518 98.702 122.238V120.95C98.702 120.669 98.4744 120.442 98.194 120.442Z" fill="#263238" stroke="#263238" stroke-width="1.01" stroke-miterlimit="10" stroke-linecap="round" stroke-linejoin="round"/>
<path d="M94.3246 135.283H83.5254V148.733H94.3246V135.283Z" fill="#B2D1D1" stroke="#263238" stroke-width="1.01" stroke-miterlimit="10" stroke-linecap="round" stroke-linejoin="round"/>
</svg>
