<svg width="206" height="228" viewBox="0 0 206 228" fill="none" xmlns="http://www.w3.org/2000/svg">
<path d="M164.867 228H6.4048C28.5917 151.983 -15.7821 76.0042 6.4048 0H164.867C142.681 76.0042 187.107 151.983 164.867 228Z" fill="#006466" fill-opacity="0.05"/>
<path opacity="0.7" d="M164.867 228H6.4048C28.5917 151.983 -15.7821 76.0042 6.4048 0H164.867C142.681 76.0042 187.107 151.983 164.867 228Z" fill="white"/>
<path d="M146.442 47.7355H74.8397C74.6541 47.7355 74.4762 47.6656 74.345 47.5414C74.2138 47.4171 74.1401 47.2485 74.1401 47.0728C74.1401 46.8971 74.2138 46.7285 74.345 46.6042C74.4762 46.48 74.6541 46.4102 74.8397 46.4102H146.442C146.628 46.4102 146.806 46.48 146.937 46.6042C147.068 46.7285 147.142 46.8971 147.142 47.0728C147.142 47.2485 147.068 47.4171 146.937 47.5414C146.806 47.6656 146.628 47.7355 146.442 47.7355Z" fill="#263238" fill-opacity="0.1"/>
<path d="M146.785 61.2134H75.1827C74.9956 61.2105 74.8167 61.1405 74.6819 61.0175C74.5472 60.8945 74.4668 60.7278 74.4568 60.5508C74.4513 60.4656 74.4644 60.3802 74.4952 60.3C74.5259 60.2198 74.5736 60.1464 74.6355 60.0843C74.6973 60.0222 74.7719 59.9728 74.8547 59.939C74.9374 59.9053 75.0266 59.888 75.1167 59.8881H146.719C146.908 59.8908 147.088 59.9604 147.225 60.0831C147.362 60.2058 147.445 60.3727 147.458 60.5508C147.462 60.6366 147.447 60.7222 147.415 60.8025C147.383 60.8827 147.334 60.956 147.271 61.0179C147.208 61.0798 147.132 61.129 147.049 61.1626C146.966 61.1962 146.876 61.2135 146.785 61.2134Z" fill="#263238" fill-opacity="0.1"/>
<path d="M147.709 74.7539H13.0834C12.893 74.7491 12.7108 74.6795 12.5702 74.5578C12.4296 74.4361 12.3401 74.2704 12.3179 74.0912C12.3086 74.0073 12.3181 73.9225 12.3458 73.8424C12.3734 73.7622 12.4186 73.6884 12.4784 73.6259C12.5382 73.5633 12.6112 73.5134 12.6927 73.4795C12.7742 73.4455 12.8624 73.4281 12.9514 73.4286H147.577C147.767 73.431 147.949 73.5002 148.088 73.6226C148.227 73.7451 148.313 73.9121 148.33 74.0912C148.339 74.1741 148.33 74.2579 148.303 74.3372C148.276 74.4165 148.232 74.4897 148.174 74.552C148.115 74.6143 148.044 74.6645 147.964 74.6992C147.884 74.734 147.797 74.7526 147.709 74.7539Z" fill="#263238" fill-opacity="0.1"/>
<path d="M158.902 190.329H24.2363C24.1451 190.331 24.0545 190.315 23.9702 190.282C23.8859 190.249 23.8097 190.2 23.7464 190.138C23.6832 190.075 23.6342 190.001 23.6027 189.92C23.5712 189.839 23.5577 189.753 23.5632 189.667C23.5766 189.49 23.6603 189.324 23.7975 189.204C23.9347 189.083 24.1151 189.016 24.3023 189.016H158.928C159.018 189.015 159.107 189.03 159.189 189.063C159.272 189.095 159.347 189.143 159.409 189.204C159.471 189.265 159.519 189.338 159.55 189.418C159.581 189.497 159.594 189.582 159.588 189.667C159.582 189.838 159.508 190.002 159.381 190.124C159.254 190.247 159.083 190.32 158.902 190.329Z" fill="#263238" fill-opacity="0.1"/>
<path d="M66.9997 213.497H21.5436C21.4565 213.499 21.3701 213.482 21.291 213.448C21.2118 213.413 21.1421 213.362 21.0873 213.298C21.0324 213.234 20.9938 213.159 20.9745 213.078C20.9553 212.998 20.9558 212.914 20.9761 212.834C21.0143 212.653 21.1158 212.489 21.2642 212.369C21.4126 212.249 21.5993 212.179 21.7944 212.172H67.2108C67.2979 212.169 67.3843 212.186 67.4635 212.22C67.5426 212.255 67.6123 212.306 67.6672 212.37C67.7221 212.434 67.7606 212.509 67.7799 212.59C67.7992 212.67 67.7987 212.754 67.7784 212.834C67.7419 213.01 67.6462 213.169 67.5058 213.289C67.3654 213.408 67.1877 213.481 66.9997 213.497Z" fill="#263238" fill-opacity="0.1"/>
<path d="M156.671 213.497H111.255C111.167 213.499 111.081 213.482 111.002 213.448C110.923 213.413 110.853 213.362 110.798 213.298C110.743 213.234 110.705 213.159 110.685 213.078C110.666 212.998 110.667 212.914 110.687 212.834C110.723 212.652 110.824 212.487 110.973 212.366C111.122 212.246 111.31 212.177 111.505 212.172H156.922C157.009 212.169 157.095 212.186 157.174 212.22C157.254 212.255 157.323 212.306 157.378 212.37C157.433 212.434 157.472 212.509 157.491 212.59C157.51 212.67 157.51 212.754 157.489 212.834C157.451 213.016 157.35 213.179 157.201 213.3C157.053 213.42 156.866 213.489 156.671 213.497Z" fill="#263238" fill-opacity="0.1"/>
<path d="M48.799 30.8568C48.799 36.5205 44.2983 40.0463 37.1314 40.0463H31.72V47.0603H25.5034V21.6172H37.1314C44.2983 21.6172 48.799 25.143 48.799 30.8568ZM42.5033 30.8568C42.5033 28.0562 40.5762 26.4183 36.7882 26.4183H31.72V35.2452H36.7882C40.6026 35.2452 42.5033 33.6199 42.5033 30.8568Z" fill="#006466" fill-opacity="0.05"/>
<path d="M53.0618 61.601L46.5813 52.7741L40.2064 61.601H33.0659L43.0045 48.6607L33.5675 36.1579H40.6023L46.7793 44.4097L52.8506 36.1579H59.5688L50.1977 48.4481L60.2155 61.601H53.0618Z" fill="#006466" fill-opacity="0.05"/>
<path d="M21.57 83.2183C21.57 84.6186 20.4614 85.4938 18.6795 85.4938H17.3597V87.2316H15.8022V80.9803H18.6795C20.4614 80.8677 21.57 81.7429 21.57 83.2183ZM20.0126 83.2183C20.0126 82.5306 19.5375 82.118 18.6004 82.118H17.2805V84.306H18.6004C19.4847 84.2435 20.0126 83.8434 20.0126 83.2183Z" fill="#263238" fill-opacity="0.1"/>
<path d="M25.7277 82.2555V83.5058H25.3846C25.202 83.5052 25.0213 83.5406 24.8539 83.6096C24.6864 83.6786 24.5359 83.7797 24.4119 83.9066C24.2878 84.0335 24.1929 84.1835 24.1332 84.3469C24.0734 84.5103 24.0501 84.6837 24.0647 84.8561V87.1441H22.5469V82.3056H23.9591V82.9432C24.174 82.7025 24.4469 82.5143 24.7547 82.3946C25.0626 82.2749 25.3963 82.2272 25.7277 82.2555Z" fill="#263238" fill-opacity="0.1"/>
<path d="M31.5217 85.1436H27.6677C27.7376 85.4485 27.9253 85.7175 28.194 85.898C28.4626 86.0784 28.7927 86.1572 29.1195 86.1189C29.3624 86.1321 29.6055 86.0966 29.833 86.0148C30.0604 85.9329 30.2671 85.8065 30.4394 85.6438L31.2313 86.4564C30.8321 86.8219 30.3328 87.0741 29.7899 87.1843C29.2471 87.2946 28.6825 87.2585 28.1602 87.0801C27.638 86.9017 27.179 86.5883 26.8353 86.1753C26.4916 85.7623 26.277 85.2663 26.2158 84.7436C26.2157 84.4088 26.2865 84.0774 26.4241 83.769C26.5616 83.4606 26.7632 83.1816 27.0168 82.9484C27.2703 82.7152 27.5708 82.5326 27.9002 82.4114C28.2297 82.2902 28.5815 82.233 28.9347 82.243C29.2854 82.2289 29.6353 82.2839 29.9623 82.4045C30.2894 82.5252 30.5864 82.7089 30.8345 82.9439C31.0827 83.179 31.2766 83.4604 31.404 83.7702C31.5313 84.0799 31.5894 84.4114 31.5745 84.7436C31.5613 84.8686 31.5349 85.0311 31.5217 85.1436ZM27.6413 84.3185H30.1622C30.0787 84.0637 29.9113 83.8409 29.6845 83.6826C29.4577 83.5244 29.1834 83.439 28.9017 83.439C28.6201 83.439 28.3458 83.5244 28.119 83.6826C27.8922 83.8409 27.7248 84.0637 27.6413 84.3185Z" fill="#263238" fill-opacity="0.1"/>
<path d="M32.0366 86.719L32.5382 85.7063C33.07 86.0165 33.6822 86.1809 34.3068 86.1814C34.9931 86.1814 35.2571 86.0064 35.2571 85.7313C35.2571 84.9436 32.1686 85.7313 32.1686 83.8184C32.1686 82.9057 33.0397 82.2555 34.5312 82.2555C35.2136 82.2422 35.889 82.3882 36.4978 82.6807L35.9962 83.6809C35.551 83.4377 35.045 83.3125 34.5312 83.3183C33.8712 83.3183 33.5809 83.5183 33.5809 83.7684C33.5809 84.5936 36.6693 83.7684 36.6693 85.7063C36.6693 86.594 35.785 87.2441 34.254 87.2441C33.4788 87.258 32.7137 87.0768 32.0366 86.719Z" fill="#263238" fill-opacity="0.1"/>
<path d="M37.197 84.7436C37.196 84.3988 37.2702 84.0576 37.4151 83.7413C37.5599 83.425 37.7723 83.1405 38.0388 82.9057C38.3053 82.6708 38.6201 82.4908 38.9636 82.3767C39.3071 82.2627 39.6718 82.2172 40.0347 82.243C40.5061 82.2067 40.978 82.3068 41.3881 82.53C41.7982 82.7533 42.1271 83.0892 42.3313 83.4933L41.183 84.0684C41.0718 83.8706 40.9066 83.7048 40.7046 83.5882C40.5026 83.4716 40.2712 83.4086 40.0347 83.4058C39.6601 83.4058 39.3009 83.5467 39.0361 83.7976C38.7712 84.0485 38.6224 84.3888 38.6224 84.7436C38.6224 85.0984 38.7712 85.4387 39.0361 85.6895C39.3009 85.9404 39.6601 86.0814 40.0347 86.0814C40.2731 86.0871 40.5082 86.0277 40.7118 85.9102C40.9155 85.7927 41.0791 85.622 41.183 85.4187L42.3313 86.0189C42.1227 86.4197 41.793 86.7527 41.384 86.9753C40.975 87.198 40.5053 87.3003 40.0347 87.2691C39.6695 87.2952 39.3026 87.249 38.9573 87.1334C38.612 87.0179 38.2959 86.8356 38.029 86.598C37.7621 86.3605 37.5503 86.073 37.4071 85.7537C37.2638 85.4344 37.1923 85.0904 37.197 84.7436Z" fill="#263238" fill-opacity="0.1"/>
<path d="M46.3439 82.2555V83.5058H46.0139C45.8313 83.5053 45.6506 83.5406 45.4832 83.6096C45.3157 83.6786 45.1653 83.7797 45.0412 83.9066C44.9172 84.0335 44.8223 84.1835 44.7625 84.3469C44.7027 84.5103 44.6794 84.6837 44.694 84.8561V87.1441H43.2422V82.3056H44.562V82.9432C44.7775 82.6998 45.0524 82.5099 45.3629 82.3901C45.6735 82.2703 46.0102 82.2241 46.3439 82.2555Z" fill="#263238" fill-opacity="0.1"/>
<path d="M47.0435 80.8677C47.0466 80.7581 47.0734 80.6503 47.1223 80.551C47.1712 80.4516 47.2412 80.3628 47.3278 80.2902C47.4144 80.2175 47.5159 80.1624 47.6259 80.1284C47.7359 80.0944 47.8522 80.0822 47.9674 80.0925C48.0808 80.0804 48.1957 80.0906 48.3048 80.1224C48.4139 80.1541 48.5149 80.2068 48.6016 80.2772C48.6883 80.3476 48.7587 80.4341 48.8086 80.5314C48.8584 80.6287 48.8865 80.7347 48.8913 80.8427C48.8913 81.0748 48.7939 81.2974 48.6207 81.4616C48.4474 81.6257 48.2124 81.7179 47.9674 81.7179C47.7223 81.7179 47.4873 81.6257 47.3141 81.4616C47.1408 81.2974 47.0435 81.0748 47.0435 80.8427V80.8677ZM47.2282 82.3305H48.7065V87.1691H47.2018L47.2282 82.3305Z" fill="#263238" fill-opacity="0.1"/>
<path d="M55.6489 84.7436C55.6691 85.0695 55.6177 85.3959 55.498 85.7021C55.3784 86.0083 55.193 86.2877 54.9537 86.5226C54.7143 86.7576 54.4262 86.943 54.1074 87.0672C53.7887 87.1913 53.4462 87.2516 53.1016 87.2441C52.815 87.2549 52.5292 87.2082 52.2631 87.1069C51.9969 87.0056 51.7564 86.8521 51.5574 86.6565V88.907H50.0791V82.3305H51.4914V82.8807C51.6936 82.6693 51.9431 82.5035 52.2217 82.3954C52.5003 82.2872 52.801 82.2394 53.1016 82.2555C53.445 82.2482 53.7863 82.3081 54.1041 82.4315C54.422 82.555 54.7095 82.7392 54.9486 82.9728C55.1877 83.2064 55.3734 83.4842 55.4939 83.789C55.6144 84.0937 55.6672 84.4186 55.6489 84.7436ZM54.1443 84.7436C54.1263 84.5008 54.0339 84.2682 53.8783 84.0744C53.7228 83.8806 53.511 83.7341 53.2688 83.6527C53.0266 83.5714 52.7646 83.5588 52.5149 83.6164C52.2653 83.6741 52.0388 83.7996 51.8634 83.9774C51.6879 84.1552 51.5711 84.3777 51.5272 84.6176C51.4833 84.8574 51.5143 85.1042 51.6163 85.3276C51.7184 85.551 51.887 85.7413 52.1017 85.8752C52.3163 86.0091 52.5674 86.0808 52.8244 86.0814C53.0058 86.0818 53.1853 86.0468 53.3518 85.9786C53.5183 85.9103 53.6681 85.8103 53.7919 85.6848C53.9158 85.5593 54.011 85.4109 54.0716 85.2489C54.1322 85.087 54.157 84.915 54.1443 84.7436Z" fill="#263238" fill-opacity="0.1"/>
<path d="M59.9253 86.9691C59.5635 87.1877 59.14 87.2968 58.7111 87.2817C58.4589 87.3153 58.202 87.294 57.9599 87.2195C57.7177 87.145 57.4966 87.0192 57.3134 86.8517C57.1302 86.6842 56.9897 86.4794 56.9026 86.2527C56.8154 86.0261 56.7839 85.7837 56.8105 85.5438V83.5558H56.0186V82.4681H56.8105V81.2928H58.2887V82.4681H59.6086V83.5558H58.2887V85.5188C58.2766 85.6019 58.2844 85.6867 58.3114 85.7666C58.3383 85.8466 58.3839 85.9199 58.4446 85.981C58.5054 86.0422 58.5798 86.0896 58.6624 86.12C58.7451 86.1503 58.8339 86.1628 58.9222 86.1564C59.1349 86.16 59.3432 86.0987 59.5162 85.9814L59.9253 86.9691Z" fill="#263238" fill-opacity="0.1"/>
<path d="M60.5718 80.8677C60.5749 80.7582 60.6017 80.6503 60.6506 80.551C60.6995 80.4516 60.7695 80.3629 60.8561 80.2902C60.9427 80.2175 61.0442 80.1625 61.1542 80.1285C61.2643 80.0945 61.3805 80.0823 61.4957 80.0926C61.6081 80.0823 61.7215 80.0938 61.8291 80.1264C61.9366 80.159 62.0361 80.212 62.1213 80.2822C62.2065 80.3524 62.2757 80.4383 62.3247 80.5347C62.3737 80.6311 62.4015 80.7359 62.4064 80.8428C62.3794 81.0553 62.2712 81.251 62.1022 81.3931C61.9331 81.5351 61.715 81.6135 61.4891 81.6135C61.2631 81.6135 61.045 81.5351 60.876 81.3931C60.707 81.251 60.5987 81.0553 60.5718 80.8428V80.8677ZM60.7434 82.3306H62.2348V87.1691H60.7434V82.3306Z" fill="#263238" fill-opacity="0.1"/>
<path d="M63.225 84.7436C63.1906 84.2111 63.3258 83.6812 63.6131 83.2224C63.9004 82.7636 64.3265 82.3971 64.8362 82.1704C65.3459 81.9437 65.9158 81.8672 66.4719 81.9509C67.0281 82.0346 67.5449 82.2745 67.9554 82.6396C68.3659 83.0048 68.6512 83.4783 68.7743 83.9988C68.8974 84.5193 68.8527 85.0628 68.6459 85.559C68.4391 86.0552 68.0798 86.481 67.6145 86.7815C67.1492 87.0819 66.5994 87.2431 66.0363 87.2441C65.6755 87.2664 65.3137 87.2182 64.9733 87.1025C64.633 86.9869 64.3214 86.8062 64.0578 86.5718C63.7942 86.3373 63.5842 86.0541 63.441 85.7396C63.2977 85.4251 63.2242 85.0861 63.225 84.7436ZM67.3297 84.7436C67.3118 84.5007 67.2193 84.2682 67.0638 84.0744C66.9083 83.8806 66.6964 83.7341 66.4542 83.6527C66.212 83.5713 65.95 83.5587 65.7004 83.6164C65.4507 83.6741 65.2243 83.7995 65.0488 83.9774C64.8734 84.1552 64.7565 84.3777 64.7126 84.6176C64.6688 84.8574 64.6997 85.1042 64.8018 85.3276C64.9038 85.551 65.0725 85.7413 65.2871 85.8752C65.5017 86.0091 65.7529 86.0807 66.0099 86.0813C66.1913 86.0818 66.3708 86.0468 66.5373 85.9785C66.7037 85.9103 66.8536 85.8103 66.9774 85.6848C67.1013 85.5592 67.1965 85.4109 67.2571 85.2489C67.3177 85.087 67.3424 84.915 67.3297 84.7436Z" fill="#263238" fill-opacity="0.1"/>
<path d="M75.0376 84.3935V87.1691H73.599V84.6686C73.599 83.8934 73.2162 83.5308 72.5563 83.5308C71.8964 83.5308 71.342 83.9434 71.342 84.7811V87.1816H69.8506V82.3431H71.276V82.9057C71.4946 82.693 71.7579 82.5262 72.049 82.4164C72.3401 82.3065 72.6524 82.256 72.9655 82.2681C73.2562 82.2549 73.5466 82.3022 73.816 82.4067C74.0854 82.5112 74.3274 82.6703 74.5249 82.8729C74.7224 83.0755 74.8707 83.3167 74.9593 83.5794C75.0479 83.8421 75.0746 84.12 75.0376 84.3935Z" fill="#263238" fill-opacity="0.1"/>
<path d="M76.0141 83.1307C76.0085 83.016 76.0282 82.9015 76.0719 82.7944C76.1157 82.6873 76.1826 82.59 76.2683 82.5088C76.354 82.4276 76.4567 82.3643 76.5698 82.3228C76.6828 82.2814 76.8037 82.2627 76.9248 82.268C77.0465 82.2628 77.168 82.2815 77.2817 82.3228C77.3954 82.3641 77.4989 82.4273 77.5856 82.5083C77.6724 82.5893 77.7405 82.6864 77.7858 82.7935C77.8311 82.9006 77.8525 83.0154 77.8487 83.1307C77.8524 83.2466 77.831 83.362 77.7859 83.4697C77.7407 83.5775 77.6728 83.6753 77.5863 83.7573C77.4997 83.8393 77.3964 83.9036 77.2827 83.9463C77.1689 83.9891 77.0472 84.0094 76.9248 84.0059C76.8036 84.0077 76.6833 83.9861 76.5711 83.9426C76.4589 83.8991 76.3572 83.8345 76.2721 83.7527C76.1869 83.6709 76.1202 83.5736 76.0759 83.4667C76.0316 83.3598 76.0105 83.2455 76.0141 83.1307ZM76.0141 86.3564C76.0085 86.2417 76.0282 86.1272 76.0719 86.0201C76.1157 85.913 76.1826 85.8157 76.2683 85.7345C76.354 85.6533 76.4567 85.59 76.5698 85.5485C76.6828 85.5071 76.8037 85.4884 76.9248 85.4938C77.0465 85.4885 77.168 85.5072 77.2817 85.5485C77.3954 85.5898 77.4989 85.653 77.5856 85.734C77.6724 85.815 77.7405 85.9121 77.7858 86.0192C77.8311 86.1263 77.8525 86.2411 77.8487 86.3564C77.8523 86.4729 77.831 86.5888 77.786 86.6972C77.741 86.8056 77.6733 86.9043 77.5869 86.9872C77.5006 87.0702 77.3974 87.1357 77.2836 87.1798C77.1698 87.224 77.0478 87.2459 76.9248 87.2441C76.8025 87.2459 76.681 87.224 76.5679 87.1797C76.4548 87.1355 76.3524 87.0697 76.2671 86.9866C76.1818 86.9034 76.1154 86.8046 76.0719 86.6963C76.0284 86.5879 76.0087 86.4723 76.0141 86.3564Z" fill="#263238" fill-opacity="0.1"/>
<path d="M198.316 81.9207L174.848 74.8431C170.604 73.5632 166.068 75.7847 164.717 79.8048L139.095 156.04C137.744 160.06 140.089 164.356 144.333 165.636L167.801 172.714C172.045 173.994 176.581 171.772 177.932 167.752L203.554 91.5174C204.905 87.4972 202.56 83.2007 198.316 81.9207Z" fill="black" fill-opacity="0.1"/>
<path opacity="0.8" d="M203.923 89.4696C203.908 90.1789 203.784 90.8825 203.553 91.5575L177.935 167.824C177.847 168.083 177.746 168.338 177.631 168.587C176.831 170.313 175.386 171.697 173.572 172.473C171.759 173.249 169.707 173.361 167.811 172.788L144.331 165.711C142.329 165.103 140.657 163.779 139.671 162.021C138.685 160.262 138.463 158.208 139.051 156.297L153.834 112.325L164.67 79.805C164.987 78.8463 165.501 77.9563 166.181 77.1859C166.862 76.4154 167.696 75.7798 168.637 75.3152C169.577 74.8507 170.605 74.5664 171.661 74.4787C172.718 74.3909 173.782 74.5014 174.793 74.8039L198.326 81.9679C198.84 82.1233 199.336 82.3287 199.805 82.5806C201.093 83.2597 202.159 84.2619 202.885 85.4772C203.612 86.6924 203.971 88.0738 203.923 89.4696Z" fill="white"/>
<g opacity="0.6">
<path opacity="0.5" d="M147.142 132.116L157.793 100.447L187.952 78.7922L199.831 82.5431C201.121 83.2232 202.188 84.2274 202.915 85.445C203.641 86.6627 203.999 88.0467 203.949 89.4446L147.142 132.116Z" fill="white"/>
</g>
<path opacity="0.5" d="M162.03 87.7192L164.67 79.805C164.987 78.8463 165.501 77.9563 166.181 77.1859C166.862 76.4154 167.696 75.7798 168.637 75.3152C169.577 74.8507 170.605 74.5664 171.661 74.4787C172.718 74.3909 173.782 74.5014 174.793 74.8039L178.317 75.8666L162.03 87.7192Z" fill="white"/>
<path d="M178.225 87.4066C178.039 87.9579 177.685 88.4448 177.208 88.8056C176.731 89.1665 176.151 89.3851 175.542 89.4339C174.934 89.4827 174.323 89.3594 173.789 89.0796C173.254 88.7999 172.819 88.3763 172.538 87.8623C172.258 87.3483 172.144 86.7671 172.213 86.1921C172.281 85.6171 172.527 85.0742 172.921 84.6319C173.315 84.1897 173.839 83.8681 174.426 83.7077C175.012 83.5473 175.636 83.5553 176.218 83.7308C176.606 83.8459 176.966 84.0326 177.277 84.28C177.588 84.5275 177.844 84.8309 178.03 85.1726C178.217 85.5144 178.33 85.8878 178.363 86.2712C178.397 86.6546 178.35 87.0405 178.225 87.4066Z" fill="#006466" fill-opacity="0.05"/>
<path d="M172.338 104.885C172.153 105.434 171.8 105.918 171.324 106.277C170.848 106.636 170.27 106.852 169.664 106.9C169.058 106.948 168.451 106.824 167.919 106.545C167.387 106.266 166.954 105.844 166.676 105.332C166.397 104.82 166.285 104.241 166.354 103.668C166.422 103.096 166.669 102.556 167.061 102.116C167.454 101.676 167.976 101.356 168.56 101.197C169.145 101.038 169.766 101.047 170.345 101.222C170.73 101.339 171.087 101.526 171.395 101.773C171.704 102.02 171.958 102.322 172.143 102.663C172.328 103.003 172.44 103.374 172.474 103.756C172.507 104.137 172.461 104.521 172.338 104.885Z" fill="#006466" fill-opacity="0.05"/>
<path d="M166.465 122.377C166.282 122.929 165.929 123.418 165.453 123.781C164.976 124.144 164.396 124.364 163.787 124.415C163.178 124.465 162.566 124.343 162.031 124.064C161.495 123.785 161.058 123.362 160.777 122.847C160.495 122.333 160.381 121.751 160.449 121.176C160.517 120.6 160.763 120.056 161.158 119.614C161.552 119.171 162.076 118.849 162.664 118.689C163.251 118.528 163.876 118.537 164.459 118.713C164.845 118.829 165.203 119.015 165.513 119.261C165.823 119.508 166.078 119.81 166.265 120.151C166.451 120.491 166.565 120.863 166.599 121.245C166.633 121.627 166.588 122.011 166.465 122.377Z" fill="#006466" fill-opacity="0.05"/>
<path d="M160.591 139.868C160.406 140.419 160.052 140.906 159.575 141.267C159.097 141.628 158.518 141.847 157.909 141.895C157.3 141.944 156.69 141.821 156.155 141.541C155.621 141.261 155.186 140.838 154.905 140.324C154.625 139.81 154.511 139.229 154.579 138.654C154.648 138.079 154.894 137.536 155.288 137.093C155.682 136.651 156.205 136.33 156.792 136.169C157.379 136.009 158.003 136.017 158.585 136.192C158.973 136.307 159.332 136.494 159.643 136.742C159.954 136.989 160.21 137.292 160.397 137.634C160.583 137.976 160.697 138.349 160.73 138.733C160.763 139.116 160.716 139.502 160.591 139.868Z" fill="#006466" fill-opacity="0.05"/>
<path d="M154.718 157.347C154.535 157.9 154.183 158.388 153.706 158.751C153.229 159.114 152.65 159.335 152.04 159.385C151.431 159.435 150.82 159.313 150.284 159.034C149.748 158.755 149.312 158.332 149.03 157.818C148.748 157.303 148.634 156.722 148.702 156.146C148.77 155.57 149.017 155.027 149.411 154.584C149.805 154.141 150.33 153.819 150.917 153.659C151.505 153.499 152.13 153.507 152.712 153.684C153.488 153.922 154.133 154.44 154.508 155.125C154.884 155.811 154.959 156.609 154.718 157.347Z" fill="#006466" fill-opacity="0.05"/>
<path d="M193.06 91.8826C192.775 92.5767 192.222 93.1418 191.512 93.4627C190.803 93.7837 189.991 93.8364 189.242 93.61C188.493 93.3836 187.864 92.8952 187.482 92.2444C187.1 91.5935 186.994 90.8292 187.187 90.1072C187.29 89.7199 187.475 89.3567 187.732 89.04C187.989 88.7233 188.312 88.4598 188.681 88.2658C189.049 88.0717 189.456 87.9511 189.875 87.9116C190.295 87.872 190.718 87.9142 191.12 88.0356C191.522 88.157 191.893 88.3551 192.211 88.6176C192.529 88.88 192.786 89.2014 192.968 89.5618C193.15 89.9222 193.252 90.3141 193.268 90.7132C193.283 91.1123 193.213 91.5103 193.06 91.8826Z" fill="#006466" fill-opacity="0.05"/>
<path d="M187.186 109.361C187.002 109.91 186.65 110.394 186.175 110.754C185.7 111.113 185.123 111.33 184.517 111.379C183.912 111.428 183.305 111.306 182.772 111.028C182.24 110.75 181.806 110.329 181.527 109.818C181.247 109.307 181.133 108.729 181.2 108.157C181.267 107.584 181.511 107.044 181.902 106.603C182.293 106.162 182.813 105.841 183.396 105.68C183.98 105.519 184.601 105.525 185.18 105.698C185.958 105.934 186.605 106.451 186.981 107.138C187.357 107.824 187.431 108.624 187.186 109.361Z" fill="#006466" fill-opacity="0.05"/>
<path d="M181.313 126.853C181.13 127.405 180.778 127.894 180.301 128.257C179.824 128.62 179.245 128.84 178.636 128.891C178.026 128.941 177.415 128.819 176.879 128.54C176.343 128.261 175.907 127.838 175.625 127.323C175.344 126.809 175.23 126.227 175.297 125.652C175.365 125.076 175.612 124.532 176.006 124.09C176.401 123.647 176.925 123.325 177.512 123.165C178.1 123.004 178.725 123.013 179.307 123.189C180.083 123.428 180.728 123.946 181.104 124.631C181.479 125.317 181.554 126.115 181.313 126.853Z" fill="#006466" fill-opacity="0.05"/>
<path d="M175.427 144.344C175.142 145.038 174.588 145.603 173.879 145.924C173.17 146.245 172.358 146.298 171.609 146.071C170.86 145.845 170.231 145.357 169.849 144.706C169.467 144.055 169.361 143.291 169.553 142.569C169.656 142.181 169.842 141.818 170.099 141.502C170.356 141.185 170.679 140.921 171.047 140.727C171.416 140.533 171.822 140.413 172.242 140.373C172.661 140.333 173.085 140.376 173.487 140.497C173.889 140.619 174.26 140.817 174.578 141.079C174.895 141.342 175.153 141.663 175.335 142.023C175.517 142.384 175.618 142.776 175.634 143.175C175.65 143.574 175.579 143.972 175.427 144.344Z" fill="#006466" fill-opacity="0.05"/>
<path d="M169.553 161.823C169.369 162.371 169.017 162.856 168.542 163.215C168.066 163.574 167.49 163.792 166.884 163.841C166.279 163.89 165.671 163.768 165.139 163.49C164.607 163.212 164.173 162.791 163.893 162.28C163.613 161.769 163.5 161.19 163.566 160.618C163.633 160.046 163.877 159.505 164.268 159.064C164.659 158.624 165.179 158.302 165.763 158.141C166.346 157.98 166.967 157.987 167.547 158.16C168.325 158.395 168.972 158.913 169.348 159.599C169.724 160.286 169.798 161.085 169.553 161.823Z" fill="#006466" fill-opacity="0.05"/>
<g opacity="0.4">
<path d="M178.225 87.4066C178.04 87.9579 177.686 88.4448 177.208 88.8056C176.731 89.1665 176.151 89.3851 175.543 89.4339C174.934 89.4827 174.324 89.3594 173.789 89.0796C173.254 88.7999 172.819 88.3763 172.539 87.8623C172.258 87.3483 172.145 86.7671 172.213 86.1921C172.281 85.6171 172.528 85.0742 172.922 84.6319C173.316 84.1897 173.839 83.8681 174.426 83.7077C175.013 83.5473 175.637 83.5553 176.219 83.7308C176.606 83.8459 176.966 84.0326 177.277 84.28C177.588 84.5275 177.844 84.8309 178.031 85.1726C178.217 85.5144 178.33 85.8878 178.364 86.2712C178.397 86.6546 178.35 87.0405 178.225 87.4066Z" fill="white"/>
<path d="M172.339 104.885C172.153 105.434 171.8 105.918 171.324 106.277C170.848 106.636 170.271 106.852 169.665 106.9C169.059 106.948 168.451 106.824 167.919 106.545C167.387 106.266 166.955 105.844 166.676 105.332C166.398 104.82 166.285 104.241 166.354 103.668C166.423 103.096 166.669 102.556 167.062 102.116C167.454 101.676 167.976 101.356 168.561 101.197C169.145 101.038 169.766 101.047 170.346 101.222C170.73 101.339 171.087 101.526 171.396 101.773C171.704 102.02 171.958 102.322 172.143 102.663C172.328 103.003 172.441 103.374 172.474 103.756C172.508 104.137 172.462 104.521 172.339 104.885Z" fill="white"/>
<path d="M166.465 122.377C166.282 122.929 165.929 123.418 165.453 123.781C164.976 124.144 164.396 124.364 163.787 124.415C163.178 124.465 162.566 124.343 162.031 124.064C161.495 123.785 161.058 123.362 160.777 122.847C160.495 122.333 160.381 121.751 160.449 121.176C160.517 120.6 160.763 120.056 161.158 119.614C161.552 119.171 162.076 118.849 162.664 118.689C163.251 118.528 163.876 118.537 164.459 118.713C164.845 118.829 165.203 119.015 165.513 119.261C165.823 119.508 166.078 119.81 166.265 120.151C166.451 120.491 166.565 120.863 166.599 121.245C166.633 121.627 166.588 122.011 166.465 122.377Z" fill="white"/>
<path d="M160.591 139.868C160.406 140.419 160.052 140.906 159.575 141.267C159.097 141.628 158.518 141.847 157.909 141.895C157.3 141.944 156.69 141.821 156.155 141.541C155.621 141.261 155.186 140.838 154.905 140.324C154.625 139.81 154.511 139.229 154.579 138.654C154.648 138.079 154.894 137.536 155.288 137.093C155.682 136.651 156.205 136.33 156.792 136.169C157.379 136.009 158.003 136.017 158.585 136.192C158.973 136.307 159.332 136.494 159.643 136.742C159.954 136.989 160.21 137.292 160.397 137.634C160.583 137.976 160.697 138.349 160.73 138.733C160.763 139.116 160.716 139.502 160.591 139.868Z" fill="white"/>
<path d="M154.718 157.347C154.535 157.9 154.183 158.388 153.706 158.751C153.229 159.114 152.65 159.334 152.04 159.385C151.431 159.435 150.82 159.313 150.284 159.034C149.748 158.755 149.312 158.332 149.03 157.818C148.748 157.303 148.634 156.722 148.702 156.146C148.77 155.57 149.017 155.027 149.411 154.584C149.805 154.141 150.33 153.819 150.917 153.659C151.505 153.499 152.13 153.507 152.712 153.684C153.488 153.922 154.133 154.44 154.508 155.125C154.884 155.811 154.959 156.609 154.718 157.347Z" fill="white"/>
</g>
<g opacity="0.4">
<path d="M193.06 91.8826C192.775 92.5767 192.222 93.1418 191.512 93.4627C190.803 93.7837 189.991 93.8364 189.242 93.61C188.493 93.3836 187.864 92.8952 187.482 92.2444C187.1 91.5935 186.994 90.8292 187.187 90.1072C187.29 89.7199 187.475 89.3567 187.732 89.04C187.989 88.7233 188.312 88.4598 188.681 88.2658C189.049 88.0717 189.456 87.9511 189.875 87.9116C190.295 87.872 190.718 87.9142 191.12 88.0356C191.522 88.157 191.893 88.3551 192.211 88.6176C192.529 88.88 192.786 89.2014 192.968 89.5618C193.15 89.9222 193.252 90.3141 193.268 90.7132C193.283 91.1123 193.213 91.5103 193.06 91.8826Z" fill="white"/>
<path d="M187.186 109.361C187.002 109.91 186.65 110.394 186.175 110.754C185.7 111.113 185.123 111.33 184.517 111.379C183.912 111.428 183.305 111.306 182.772 111.028C182.24 110.75 181.806 110.329 181.527 109.818C181.247 109.307 181.133 108.729 181.2 108.157C181.267 107.584 181.511 107.044 181.902 106.603C182.293 106.162 182.813 105.841 183.396 105.68C183.98 105.519 184.601 105.525 185.18 105.698C185.958 105.934 186.605 106.451 186.981 107.138C187.357 107.824 187.431 108.624 187.186 109.361Z" fill="white"/>
<path d="M181.313 126.853C181.13 127.405 180.777 127.894 180.301 128.257C179.824 128.62 179.244 128.84 178.635 128.891C178.026 128.941 177.415 128.819 176.879 128.54C176.343 128.261 175.906 127.838 175.625 127.323C175.343 126.809 175.229 126.227 175.297 125.652C175.365 125.076 175.611 124.532 176.006 124.09C176.4 123.647 176.924 123.325 177.512 123.165C178.1 123.004 178.724 123.013 179.307 123.189C180.082 123.428 180.728 123.946 181.103 124.631C181.479 125.317 181.554 126.115 181.313 126.853Z" fill="white"/>
<path d="M175.427 144.344C175.142 145.038 174.588 145.603 173.879 145.924C173.17 146.245 172.358 146.298 171.609 146.071C170.86 145.845 170.231 145.357 169.849 144.706C169.467 144.055 169.361 143.291 169.553 142.569C169.656 142.181 169.842 141.818 170.099 141.502C170.356 141.185 170.679 140.921 171.047 140.727C171.416 140.533 171.822 140.413 172.242 140.373C172.661 140.333 173.085 140.376 173.487 140.497C173.889 140.619 174.26 140.817 174.578 141.079C174.895 141.342 175.153 141.663 175.335 142.023C175.517 142.384 175.618 142.776 175.634 143.175C175.65 143.574 175.579 143.972 175.427 144.344Z" fill="white"/>
<path d="M169.553 161.823C169.369 162.371 169.017 162.856 168.542 163.215C168.066 163.574 167.49 163.792 166.884 163.841C166.279 163.89 165.671 163.768 165.139 163.49C164.607 163.212 164.173 162.791 163.893 162.28C163.613 161.769 163.5 161.19 163.566 160.618C163.633 160.046 163.877 159.505 164.268 159.064C164.659 158.624 165.179 158.302 165.763 158.141C166.346 157.98 166.967 157.987 167.547 158.16C168.325 158.395 168.972 158.913 169.348 159.599C169.724 160.286 169.798 161.085 169.553 161.823Z" fill="white"/>
</g>
<path opacity="0.7" d="M153.9 169.487L113.354 177.414C111.488 177.776 109.547 177.423 107.956 176.431C106.365 175.44 105.254 173.891 104.867 172.125L93.1993 118.538C92.4396 115.085 92.8863 111.492 94.472 108.301C96.0577 105.109 98.6963 102.493 101.99 100.847C103.422 100.127 104.955 99.6054 106.543 99.2967L127.489 95.2083C129.699 94.7734 131.979 94.7558 134.196 95.1567C136.413 95.5575 138.525 96.3689 140.411 97.5442C142.297 98.7196 143.919 100.236 145.185 102.006C146.451 103.777 147.336 105.766 147.789 107.861L159.47 161.448C159.663 162.322 159.672 163.224 159.496 164.102C159.32 164.98 158.964 165.816 158.446 166.563C157.929 167.309 157.261 167.952 156.481 168.454C155.7 168.956 154.823 169.307 153.9 169.487Z" fill="white"/>
<path d="M148.318 110.318L93.7178 120.992L102.382 160.763L156.982 150.089L148.318 110.318Z" fill="#006466" fill-opacity="0.05"/>
<path opacity="0.4" d="M148.318 110.318L93.7178 120.992L102.382 160.763L156.982 150.089L148.318 110.318Z" fill="white"/>
<path d="M100.092 87.7396L129.823 81.9279C130.303 81.834 130.798 81.8306 131.28 81.918C131.762 82.0054 132.221 82.1818 132.63 82.4372C133.04 82.6925 133.393 83.0219 133.668 83.4064C133.944 83.7908 134.137 84.223 134.236 84.678L135.396 90.0045L98.2977 97.2565L97.1266 91.8811C97.0342 91.4247 97.0376 90.9555 97.1367 90.5004C97.2357 90.0452 97.4284 89.613 97.7038 89.2285C97.9792 88.8439 98.3319 88.5144 98.7417 88.259C99.1515 88.0035 99.6104 87.8271 100.092 87.7396Z" fill="#006466" fill-opacity="0.05"/>
<path opacity="0.7" d="M133.878 95.0958C131.759 94.7588 129.593 94.797 127.489 95.2083L106.596 99.2967C105.008 99.6054 103.475 100.127 102.043 100.847L101.145 96.7086L132.927 90.4573L133.878 95.0958Z" fill="white"/>
<path opacity="0.3" d="M101.448 103.798C101.431 103.594 101.346 103.401 101.204 103.246C101.063 103.092 100.874 102.984 100.664 102.938C100.454 102.892 100.234 102.91 100.035 102.991C99.837 103.071 99.6709 103.209 99.561 103.385C98.0865 105.625 97.4109 108.255 97.634 110.887C98.3467 115.388 108.483 164.461 110.041 171.975C110.175 172.593 110.529 173.149 111.044 173.551C111.386 173.809 111.787 173.99 112.215 174.079C112.643 174.167 113.087 174.162 113.512 174.063L115.056 173.701L101.858 109.549C101.858 109.549 101.62 106.473 101.448 103.798Z" fill="white"/>
</svg>
