<svg width="90" height="100" viewBox="0 0 90 100" fill="none" xmlns="http://www.w3.org/2000/svg">
<path d="M72.0295 100H2.79821C12.4915 66.6594 -6.89508 33.3352 2.79821 0H72.0295C62.3362 33.3352 81.7458 66.6594 72.0295 100Z" fill="#006466"/>
<path opacity="0.7" d="M72.0295 100H2.79821C12.4915 66.6594 -6.89508 33.3352 2.79821 0H72.0295C62.3362 33.3352 81.7458 66.6594 72.0295 100Z" fill="white"/>
<path d="M63.9796 20.9366H32.697C32.6159 20.9366 32.5382 20.906 32.4809 20.8515C32.4236 20.797 32.3914 20.7231 32.3914 20.646C32.3914 20.5689 32.4236 20.495 32.4809 20.4405C32.5382 20.386 32.6159 20.3553 32.697 20.3553H63.9796C64.0607 20.3553 64.1384 20.386 64.1957 20.4405C64.2531 20.495 64.2852 20.5689 64.2852 20.646C64.2852 20.7231 64.2531 20.797 64.1957 20.8515C64.1384 20.906 64.0607 20.9366 63.9796 20.9366Z" fill="#263238"/>
<path d="M64.1296 26.848H32.847C32.7652 26.8467 32.6871 26.816 32.6282 26.7621C32.5693 26.7081 32.5342 26.635 32.5298 26.5574C32.5275 26.52 32.5332 26.4826 32.5466 26.4474C32.56 26.4122 32.5809 26.38 32.6079 26.3528C32.6349 26.3255 32.6675 26.3038 32.7037 26.2891C32.7398 26.2743 32.7788 26.2667 32.8181 26.2667H64.1008C64.1831 26.2679 64.262 26.2984 64.3218 26.3522C64.3816 26.4061 64.4179 26.4793 64.4237 26.5574C64.4253 26.595 64.4188 26.6325 64.4047 26.6678C64.3906 26.703 64.3692 26.7351 64.3418 26.7622C64.3143 26.7894 64.2813 26.811 64.2449 26.8257C64.2084 26.8404 64.1692 26.848 64.1296 26.848Z" fill="#263238"/>
<path d="M64.5332 32.7868H5.71608C5.6329 32.7847 5.5533 32.7542 5.49188 32.7008C5.43045 32.6474 5.39131 32.5748 5.38163 32.4962C5.37758 32.4594 5.38173 32.4222 5.39381 32.387C5.4059 32.3518 5.42564 32.3195 5.45176 32.2921C5.47788 32.2646 5.50978 32.2428 5.54539 32.2278C5.581 32.2129 5.61951 32.2053 5.65842 32.2055H64.4756C64.5585 32.2066 64.6381 32.2369 64.6988 32.2906C64.7595 32.3444 64.7971 32.4176 64.8043 32.4962C64.8083 32.5325 64.8043 32.5693 64.7925 32.604C64.7808 32.6388 64.7616 32.6709 64.7361 32.6983C64.7106 32.7256 64.6794 32.7476 64.6445 32.7628C64.6095 32.7781 64.5717 32.7862 64.5332 32.7868Z" fill="#263238"/>
<path d="M69.423 83.4777H10.5886C10.5487 83.4786 10.5091 83.4715 10.4723 83.4571C10.4354 83.4426 10.4021 83.421 10.3745 83.3937C10.3469 83.3664 10.3255 83.334 10.3117 83.2984C10.2979 83.2628 10.2921 83.2249 10.2945 83.1871C10.3003 83.1095 10.3369 83.0369 10.3968 82.984C10.4568 82.9311 10.5356 82.9018 10.6174 82.902H69.4345C69.4736 82.9011 69.5125 82.908 69.5486 82.9222C69.5848 82.9364 69.6174 82.9575 69.6445 82.9843C69.6716 83.0111 69.6926 83.043 69.7061 83.0779C69.7196 83.1128 69.7253 83.15 69.7229 83.1871C69.7201 83.2624 69.6878 83.334 69.6323 83.3878C69.5768 83.4416 69.5021 83.4737 69.423 83.4777Z" fill="#263238"/>
<path d="M29.2717 93.6389H9.41224C9.37421 93.6399 9.33645 93.6326 9.30187 93.6175C9.2673 93.6024 9.23685 93.5799 9.21287 93.5518C9.1889 93.5237 9.17205 93.4907 9.16363 93.4554C9.1552 93.4202 9.15543 93.3835 9.16429 93.3483C9.18102 93.2688 9.22536 93.1969 9.29019 93.1442C9.35502 93.0915 9.43659 93.061 9.52181 93.0577H29.364C29.402 93.0567 29.4398 93.064 29.4743 93.0791C29.5089 93.0943 29.5394 93.1167 29.5633 93.1448C29.5873 93.1729 29.6041 93.2059 29.6126 93.2412C29.621 93.2765 29.6208 93.3131 29.6119 93.3483C29.596 93.4253 29.5542 93.4952 29.4928 93.5476C29.4315 93.6001 29.3539 93.6321 29.2717 93.6389Z" fill="#263238"/>
<path d="M68.4485 93.6389H48.6063C48.5683 93.6399 48.5305 93.6326 48.496 93.6175C48.4614 93.6024 48.4309 93.5799 48.407 93.5518C48.383 93.5237 48.3661 93.4907 48.3577 93.4554C48.3493 93.4202 48.3495 93.3835 48.3584 93.3483C48.3741 93.2683 48.4182 93.1959 48.4832 93.143C48.5483 93.0902 48.6304 93.06 48.7159 93.0577H68.558C68.5961 93.0567 68.6338 93.064 68.6684 93.0791C68.703 93.0943 68.7334 93.1167 68.7574 93.1448C68.7814 93.1729 68.7982 93.2059 68.8067 93.2412C68.8151 93.2765 68.8149 93.3131 68.806 93.3483C68.7893 93.4278 68.7449 93.4997 68.6801 93.5524C68.6153 93.6051 68.5337 93.6356 68.4485 93.6389Z" fill="#263238"/>
<path d="M21.3198 13.5337C21.3198 16.0178 19.3534 17.5642 16.2223 17.5642H13.8581V20.6405H11.1421V9.48126H16.2223C19.3534 9.48126 21.3198 11.0277 21.3198 13.5337ZM18.5692 13.5337C18.5692 12.3053 17.7273 11.587 16.0724 11.587H13.8581V15.4584H16.0724C17.7388 15.4584 18.5692 14.7456 18.5692 13.5337Z" fill="#006466"/>
<path d="M23.1824 27.018L20.3511 23.1465L17.5659 27.018H14.4463L18.7884 21.3424L14.6654 15.8588H17.7389L20.4376 19.478L23.0901 15.8588H26.0252L21.9311 21.2492L26.3077 27.018H23.1824Z" fill="#006466"/>
<path d="M9.42372 36.4992C9.42372 37.1134 8.93934 37.4972 8.16088 37.4972H7.58424V38.2595H6.90381V35.5176H8.16088C8.93934 35.4683 9.42372 35.8521 9.42372 36.4992ZM8.74329 36.4992C8.74329 36.1976 8.5357 36.0167 8.12628 36.0167H7.54965V36.9763H8.12628C8.51263 36.9489 8.74329 36.7734 8.74329 36.4992Z" fill="#263238"/>
<path d="M11.2403 36.077V36.6254H11.0904C11.0106 36.6251 10.9316 36.6406 10.8585 36.6709C10.7853 36.7011 10.7196 36.7455 10.6654 36.8012C10.6112 36.8568 10.5697 36.9226 10.5436 36.9943C10.5175 37.0659 10.5073 37.142 10.5137 37.2176V38.2211H9.85059V36.0989H10.4676V36.3786C10.5615 36.273 10.6807 36.1905 10.8152 36.138C10.9497 36.0855 11.0955 36.0646 11.2403 36.077Z" fill="#263238"/>
<path d="M13.7717 37.3437H12.0879C12.1185 37.4774 12.2005 37.5954 12.3179 37.6746C12.4352 37.7537 12.5794 37.7883 12.7222 37.7714C12.8283 37.7773 12.9346 37.7617 13.0339 37.7258C13.1333 37.6899 13.2236 37.6344 13.2989 37.5631L13.6448 37.9195C13.4704 38.0798 13.2523 38.1904 13.0151 38.2388C12.778 38.2871 12.5313 38.2713 12.3031 38.193C12.0749 38.1148 11.8744 37.9773 11.7242 37.7962C11.5741 37.615 11.4803 37.3975 11.4536 37.1682C11.4535 37.0214 11.4845 36.8761 11.5446 36.7408C11.6047 36.6056 11.6928 36.4832 11.8035 36.3809C11.9143 36.2786 12.0456 36.1985 12.1895 36.1454C12.3335 36.0922 12.4872 36.0671 12.6415 36.0715C12.7947 36.0653 12.9476 36.0894 13.0904 36.1423C13.2333 36.1953 13.3631 36.2758 13.4715 36.3789C13.5799 36.482 13.6646 36.6054 13.7203 36.7413C13.7759 36.8772 13.8013 37.0226 13.7948 37.1682C13.789 37.2231 13.7775 37.2944 13.7717 37.3437ZM12.0764 36.9818H13.1778C13.1413 36.87 13.0681 36.7723 12.969 36.7029C12.87 36.6335 12.7501 36.5961 12.6271 36.5961C12.504 36.5961 12.3842 36.6335 12.2851 36.7029C12.186 36.7723 12.1129 36.87 12.0764 36.9818Z" fill="#263238"/>
<path d="M13.9966 38.0347L14.2157 37.5905C14.4481 37.7265 14.7155 37.7987 14.9884 37.7989C15.2883 37.7989 15.4036 37.7221 15.4036 37.6015C15.4036 37.256 14.0542 37.6015 14.0542 36.7625C14.0542 36.3621 14.4348 36.077 15.0864 36.077C15.3846 36.0711 15.6797 36.1352 15.9456 36.2634L15.7265 36.7021C15.532 36.5955 15.3109 36.5406 15.0864 36.5431C14.7981 36.5431 14.6712 36.6309 14.6712 36.7405C14.6712 37.1024 16.0206 36.7405 16.0206 37.5905C16.0206 37.9798 15.6342 38.265 14.9653 38.265C14.6267 38.2711 14.2924 38.1916 13.9966 38.0347Z" fill="#263238"/>
<path d="M16.2513 37.1682C16.2509 37.017 16.2833 36.8673 16.3466 36.7286C16.4099 36.5899 16.5027 36.4651 16.6191 36.3621C16.7355 36.2591 16.8731 36.1801 17.0231 36.1301C17.1732 36.0801 17.3325 36.0602 17.4911 36.0715C17.697 36.0556 17.9032 36.0995 18.0824 36.1974C18.2615 36.2953 18.4052 36.4426 18.4944 36.6199L17.9928 36.8721C17.9442 36.7854 17.872 36.7126 17.7838 36.6615C17.6955 36.6104 17.5944 36.5827 17.4911 36.5815C17.3275 36.5815 17.1705 36.6433 17.0548 36.7533C16.9391 36.8634 16.8741 37.0126 16.8741 37.1682C16.8741 37.3238 16.9391 37.4731 17.0548 37.5831C17.1705 37.6932 17.3275 37.755 17.4911 37.755C17.5952 37.7575 17.6979 37.7314 17.7869 37.6799C17.8759 37.6283 17.9474 37.5535 17.9928 37.4643L18.4944 37.7276C18.4033 37.9034 18.2593 38.0494 18.0806 38.1471C17.9019 38.2447 17.6967 38.2896 17.4911 38.2759C17.3315 38.2873 17.1713 38.2671 17.0204 38.2164C16.8695 38.1657 16.7314 38.0858 16.6148 37.9816C16.4982 37.8774 16.4057 37.7513 16.3431 37.6113C16.2805 37.4712 16.2493 37.3204 16.2513 37.1682Z" fill="#263238"/>
<path d="M20.2472 36.077V36.6254H20.103C20.0233 36.6251 19.9443 36.6406 19.8712 36.6709C19.798 36.7011 19.7323 36.7455 19.6781 36.8012C19.6239 36.8568 19.5824 36.9226 19.5563 36.9943C19.5302 37.0659 19.52 37.142 19.5264 37.2176V38.2211H18.8921V36.0989H19.4687V36.3786C19.5629 36.2718 19.683 36.1886 19.8186 36.136C19.9543 36.0834 20.1014 36.0632 20.2472 36.077Z" fill="#263238"/>
<path d="M20.553 35.4683C20.5543 35.4202 20.5661 35.3729 20.5874 35.3294C20.6088 35.2858 20.6394 35.2469 20.6772 35.215C20.7151 35.1831 20.7594 35.159 20.8074 35.144C20.8555 35.1291 20.9063 35.1238 20.9566 35.1283C21.0062 35.123 21.0564 35.1274 21.104 35.1414C21.1517 35.1553 21.1959 35.1784 21.2337 35.2093C21.2716 35.2402 21.3024 35.2781 21.3241 35.3208C21.3459 35.3635 21.3582 35.4099 21.3603 35.4573C21.3603 35.5591 21.3177 35.6568 21.242 35.7287C21.1664 35.8007 21.0637 35.8412 20.9566 35.8412C20.8496 35.8412 20.7469 35.8007 20.6712 35.7287C20.5955 35.6568 20.553 35.5591 20.553 35.4573V35.4683ZM20.6337 36.1099H21.2795V38.2321H20.6222L20.6337 36.1099Z" fill="#263238"/>
<path d="M24.3126 37.1682C24.3214 37.3112 24.2989 37.4543 24.2466 37.5886C24.1944 37.7229 24.1134 37.8455 24.0088 37.9485C23.9043 38.0516 23.7784 38.1329 23.6391 38.1874C23.4998 38.2418 23.3502 38.2683 23.1997 38.265C23.0744 38.2697 22.9496 38.2492 22.8333 38.2048C22.717 38.1604 22.612 38.093 22.525 38.0072V38.9943H21.8792V36.1099H22.4962V36.3512C22.5845 36.2585 22.6935 36.1858 22.8153 36.1383C22.937 36.0909 23.0683 36.0699 23.1997 36.077C23.3497 36.0738 23.4988 36.1001 23.6377 36.1542C23.7765 36.2083 23.9021 36.2891 24.0066 36.3916C24.1111 36.494 24.1922 36.6159 24.2448 36.7495C24.2975 36.8832 24.3205 37.0257 24.3126 37.1682ZM23.6552 37.1682C23.6473 37.0617 23.607 36.9597 23.539 36.8747C23.4711 36.7898 23.3785 36.7255 23.2727 36.6898C23.1669 36.6541 23.0524 36.6486 22.9433 36.6739C22.8343 36.6992 22.7353 36.7542 22.6587 36.8322C22.582 36.9102 22.531 37.0078 22.5118 37.113C22.4926 37.2182 22.5062 37.3264 22.5508 37.4244C22.5953 37.5224 22.669 37.6059 22.7628 37.6646C22.8565 37.7233 22.9663 37.7547 23.0786 37.755C23.1578 37.7552 23.2362 37.7398 23.309 37.7099C23.3817 37.68 23.4472 37.6361 23.5013 37.5811C23.5554 37.526 23.597 37.4609 23.6235 37.3899C23.6499 37.3189 23.6607 37.2434 23.6552 37.1682Z" fill="#263238"/>
<path d="M26.181 38.1443C26.0229 38.2402 25.8378 38.2881 25.6505 38.2814C25.5403 38.2962 25.4281 38.2868 25.3223 38.2542C25.2165 38.2215 25.1199 38.1663 25.0398 38.0929C24.9598 38.0194 24.8984 37.9295 24.8603 37.8301C24.8223 37.7307 24.8085 37.6244 24.8201 37.5192V36.6473H24.4741V36.1702H24.8201V35.6548H25.4659V36.1702H26.0426V36.6473H25.4659V37.5082C25.4607 37.5447 25.464 37.5819 25.4758 37.6169C25.4876 37.652 25.5075 37.6841 25.534 37.711C25.5606 37.7378 25.5931 37.7586 25.6292 37.7719C25.6653 37.7852 25.7041 37.7907 25.7427 37.7879C25.8356 37.7895 25.9266 37.7626 26.0022 37.7111L26.181 38.1443Z" fill="#263238"/>
<path d="M26.4634 35.4683C26.4647 35.4202 26.4765 35.3729 26.4978 35.3294C26.5192 35.2858 26.5498 35.2469 26.5876 35.215C26.6255 35.1831 26.6698 35.159 26.7178 35.1441C26.7659 35.1291 26.8167 35.1238 26.867 35.1283C26.9161 35.1238 26.9657 35.1288 27.0127 35.1431C27.0597 35.1574 27.1031 35.1807 27.1403 35.2115C27.1776 35.2423 27.2078 35.2799 27.2292 35.3222C27.2506 35.3645 27.2628 35.4105 27.2649 35.4573C27.2531 35.5505 27.2058 35.6364 27.132 35.6987C27.0582 35.761 26.9629 35.7954 26.8641 35.7954C26.7654 35.7954 26.6701 35.761 26.5963 35.6987C26.5224 35.6364 26.4752 35.5505 26.4634 35.4573V35.4683ZM26.5383 36.1099H27.1899V38.2321H26.5383V36.1099Z" fill="#263238"/>
<path d="M27.6224 37.1682C27.6074 36.9347 27.6665 36.7023 27.792 36.5011C27.9175 36.2998 28.1037 36.1391 28.3264 36.0397C28.549 35.9402 28.798 35.9067 29.041 35.9434C29.284 35.9801 29.5098 36.0853 29.6891 36.2455C29.8685 36.4056 29.9931 36.6133 30.0469 36.8416C30.1007 37.0699 30.0811 37.3083 29.9908 37.5259C29.9004 37.7435 29.7434 37.9303 29.5402 38.0621C29.3369 38.1938 29.0967 38.2645 28.8506 38.265C28.693 38.2747 28.5349 38.2536 28.3863 38.2029C28.2376 38.1521 28.1014 38.0729 27.9863 37.9701C27.8711 37.8672 27.7794 37.743 27.7168 37.6051C27.6542 37.4671 27.6221 37.3185 27.6224 37.1682ZM29.4158 37.1682C29.4079 37.0617 29.3675 36.9597 29.2996 36.8747C29.2316 36.7897 29.1391 36.7255 29.0332 36.6898C28.9274 36.6541 28.813 36.6486 28.7039 36.6739C28.5948 36.6992 28.4959 36.7542 28.4192 36.8322C28.3426 36.9102 28.2915 37.0078 28.2724 37.113C28.2532 37.2182 28.2667 37.3264 28.3113 37.4244C28.3559 37.5224 28.4296 37.6058 28.5233 37.6646C28.6171 37.7233 28.7268 37.7547 28.8391 37.755C28.9184 37.7552 28.9968 37.7398 29.0695 37.7099C29.1423 37.68 29.2077 37.6361 29.2618 37.581C29.3159 37.526 29.3575 37.4609 29.384 37.3899C29.4105 37.3189 29.4213 37.2434 29.4158 37.1682Z" fill="#263238"/>
<path d="M32.7835 37.0147V38.2321H32.155V37.1354C32.155 36.7954 31.9878 36.6363 31.6994 36.6363C31.4111 36.6363 31.1689 36.8173 31.1689 37.1847V38.2376H30.5173V36.1154H31.1401V36.3622C31.2356 36.2689 31.3506 36.1957 31.4778 36.1475C31.605 36.0994 31.7414 36.0772 31.8782 36.0825C32.0052 36.0767 32.1321 36.0975 32.2498 36.1433C32.3675 36.1891 32.4732 36.2589 32.5595 36.3478C32.6458 36.4366 32.7106 36.5424 32.7493 36.6576C32.788 36.7728 32.7997 36.8947 32.7835 37.0147Z" fill="#263238"/>
<path d="M33.2101 36.4608C33.2077 36.4105 33.2163 36.3603 33.2354 36.3133C33.2545 36.2664 33.2837 36.2237 33.3212 36.1881C33.3586 36.1525 33.4035 36.1247 33.4529 36.1065C33.5023 36.0883 33.5551 36.0801 33.608 36.0825C33.6612 36.0802 33.7142 36.0884 33.7639 36.1065C33.8136 36.1246 33.8588 36.1523 33.8967 36.1879C33.9346 36.2234 33.9644 36.266 33.9842 36.3129C34.0039 36.3599 34.0133 36.4103 34.0117 36.4608C34.0133 36.5117 34.0039 36.5623 33.9842 36.6095C33.9645 36.6568 33.9348 36.6997 33.897 36.7357C33.8592 36.7716 33.814 36.7998 33.7643 36.8186C33.7147 36.8373 33.6615 36.8462 33.608 36.8447C33.555 36.8455 33.5025 36.836 33.4535 36.8169C33.4044 36.7978 33.36 36.7695 33.3228 36.7336C33.2856 36.6978 33.2565 36.6551 33.2371 36.6082C33.2177 36.5613 33.2086 36.5112 33.2101 36.4608ZM33.2101 37.8756C33.2077 37.8253 33.2163 37.7751 33.2354 37.7281C33.2545 37.6812 33.2837 37.6385 33.3212 37.6029C33.3586 37.5673 33.4035 37.5395 33.4529 37.5213C33.5023 37.5031 33.5551 37.4949 33.608 37.4973C33.6612 37.495 33.7142 37.5032 33.7639 37.5213C33.8136 37.5394 33.8588 37.5671 33.8967 37.6026C33.9346 37.6382 33.9644 37.6807 33.9842 37.7277C34.0039 37.7747 34.0133 37.8251 34.0117 37.8756C34.0132 37.9267 34.0039 37.9775 33.9842 38.0251C33.9646 38.0726 33.935 38.1159 33.8973 38.1523C33.8596 38.1887 33.8145 38.2174 33.7648 38.2368C33.7151 38.2561 33.6617 38.2657 33.608 38.265C33.5545 38.2658 33.5015 38.2562 33.4521 38.2367C33.4026 38.2173 33.3579 38.1885 33.3207 38.152C33.2834 38.1155 33.2544 38.0722 33.2354 38.0247C33.2163 37.9772 33.2078 37.9264 33.2101 37.8756Z" fill="#263238"/>
<path d="M86.6427 35.9302L76.3897 32.8259C74.5356 32.2646 72.5539 33.2389 71.9636 35.0021L60.7696 68.4384C60.1793 70.2016 61.2039 72.0861 63.058 72.6475L73.311 75.7517C75.1651 76.313 77.1467 75.3387 77.7371 73.5755L88.9311 40.1392C89.5214 38.376 88.4968 36.4915 86.6427 35.9302Z" fill="black"/>
<path opacity="0.8" d="M89.0923 39.2411C89.0859 39.5522 89.0315 39.8607 88.9308 40.1568L77.7382 73.6071C77.7001 73.7207 77.6558 73.8324 77.6056 73.9417C77.2563 74.6986 76.6246 75.3057 75.8324 75.646C75.0402 75.9862 74.1436 76.0354 73.3154 75.7842L63.057 72.6804C62.1825 72.4138 61.452 71.833 61.0211 71.0617C60.5903 70.2904 60.4932 69.3896 60.7505 68.5512L67.2088 49.2652L71.943 35.0022C72.0815 34.5817 72.3059 34.1914 72.6033 33.8535C72.9006 33.5156 73.2652 33.2368 73.676 33.033C74.0868 32.8293 74.5359 32.7046 74.9974 32.6661C75.459 32.6276 75.924 32.6761 76.3658 32.8087L86.6473 35.9509C86.8718 36.019 87.0882 36.1091 87.2931 36.2196C87.856 36.5174 88.3216 36.957 88.639 37.49C88.9563 38.023 89.1132 38.6289 89.0923 39.2411Z" fill="white"/>
<g opacity="0.6">
<path opacity="0.5" d="M64.2852 57.9458L68.9386 44.0557L82.1148 34.558L87.3046 36.2031C87.8683 36.5014 88.3345 36.9418 88.6519 37.4759C88.9693 38.01 89.1257 38.617 89.1037 39.2301L64.2852 57.9458Z" fill="white"/>
</g>
<path opacity="0.5" d="M70.7898 38.4733L71.9431 35.0022C72.0816 34.5817 72.3059 34.1914 72.6033 33.8535C72.9007 33.5156 73.2652 33.2368 73.676 33.033C74.0869 32.8293 74.5359 32.7046 74.9975 32.6661C75.459 32.6276 75.9241 32.6761 76.3659 32.8087L77.9055 33.2748L70.7898 38.4733Z" fill="white"/>
<path d="M77.865 38.3362C77.784 38.578 77.6294 38.7916 77.4208 38.9498C77.2122 39.1081 76.959 39.204 76.6931 39.2254C76.4272 39.2468 76.1605 39.1927 75.9269 39.07C75.6934 38.9473 75.5033 38.7615 75.3807 38.5361C75.2581 38.3107 75.2086 38.0557 75.2384 37.8035C75.2682 37.5514 75.376 37.3132 75.5481 37.1193C75.7201 36.9253 75.9488 36.7843 76.2052 36.7139C76.4616 36.6435 76.7342 36.6471 76.9885 36.724C77.1578 36.7745 77.315 36.8564 77.4508 36.9649C77.5867 37.0735 77.6986 37.2065 77.7801 37.3564C77.8616 37.5063 77.911 37.6701 77.9256 37.8382C77.9402 38.0064 77.9196 38.1757 77.865 38.3362Z" fill="#006466"/>
<path d="M75.2933 46.0024C75.2123 46.243 75.0581 46.4554 74.8501 46.6127C74.6422 46.77 74.3899 46.8651 74.1251 46.8861C73.8603 46.907 73.595 46.8528 73.3626 46.7304C73.1302 46.6079 72.9412 46.4227 72.8194 46.1981C72.6977 45.9735 72.6488 45.7196 72.6788 45.4686C72.7087 45.2175 72.8163 44.9806 72.9879 44.7876C73.1595 44.5947 73.3874 44.4545 73.6427 44.3848C73.8981 44.315 74.1695 44.3188 74.4226 44.3957C74.5907 44.4468 74.7466 44.5288 74.8814 44.6373C75.0162 44.7457 75.1272 44.8783 75.208 45.0275C75.2889 45.1767 75.338 45.3396 75.3527 45.5069C75.3673 45.6741 75.3471 45.8425 75.2933 46.0024Z" fill="#006466"/>
<path d="M72.7273 53.674C72.6472 53.9164 72.4933 54.1308 72.285 54.2899C72.0767 54.449 71.8235 54.5458 71.5573 54.5679C71.2912 54.59 71.0241 54.5364 70.79 54.4141C70.5558 54.2917 70.3652 54.106 70.2422 53.8804C70.1191 53.6549 70.0693 53.3997 70.0989 53.1472C70.1285 52.8947 70.2363 52.6563 70.4086 52.4621C70.5809 52.2679 70.8099 52.1267 71.0666 52.0565C71.3234 51.9862 71.5963 51.9899 71.8508 52.0673C72.0194 52.1178 72.1759 52.1995 72.3113 52.3077C72.4467 52.4158 72.5584 52.5483 72.6398 52.6976C72.7212 52.8469 72.7709 53.01 72.7859 53.1775C72.8009 53.3451 72.781 53.5138 72.7273 53.674Z" fill="#006466"/>
<path d="M70.1612 61.3457C70.0802 61.5875 69.9256 61.801 69.717 61.9593C69.5084 62.1175 69.2551 62.2134 68.9892 62.2348C68.7233 62.2562 68.4567 62.2021 68.2231 62.0795C67.9895 61.9568 67.7994 61.771 67.6768 61.5455C67.5543 61.3201 67.5048 61.0652 67.5346 60.813C67.5643 60.5608 67.6721 60.3227 67.8442 60.1287C68.0163 59.9348 68.245 59.7937 68.5014 59.7233C68.7578 59.653 69.0304 59.6565 69.2847 59.7335C69.454 59.7839 69.6111 59.8658 69.747 59.9744C69.8828 60.0829 69.9947 60.216 70.0762 60.3659C70.1577 60.5157 70.2072 60.6795 70.2217 60.8477C70.2363 61.0158 70.2157 61.1851 70.1612 61.3457Z" fill="#006466"/>
<path d="M67.5952 69.0118C67.5151 69.2542 67.3612 69.4686 67.1529 69.6277C66.9447 69.7868 66.6914 69.8836 66.4252 69.9057C66.1591 69.9278 65.892 69.8742 65.6579 69.7519C65.4238 69.6295 65.2331 69.4438 65.1101 69.2182C64.9871 68.9927 64.9372 68.7375 64.9668 68.485C64.9965 68.2325 65.1042 67.9941 65.2765 67.7999C65.4488 67.6057 65.6778 67.4645 65.9346 67.3943C66.1913 67.324 66.4642 67.3277 66.7187 67.4051C67.0575 67.5096 67.3395 67.7368 67.5035 68.0375C67.6675 68.3382 67.7005 68.6882 67.5952 69.0118Z" fill="#006466"/>
<path d="M84.3465 40.2994C84.2221 40.6038 83.9803 40.8517 83.6704 40.9924C83.3605 41.1332 83.0058 41.1563 82.6786 41.057C82.3515 40.9577 82.0764 40.7435 81.9095 40.4581C81.7426 40.1726 81.6965 39.8374 81.7805 39.5207C81.8255 39.3508 81.9067 39.1916 82.019 39.0527C82.1312 38.9138 82.2722 38.7982 82.4332 38.7131C82.5942 38.6279 82.7718 38.5751 82.9551 38.5577C83.1384 38.5403 83.3235 38.5589 83.499 38.6121C83.6745 38.6654 83.8367 38.7522 83.9756 38.8674C84.1144 38.9825 84.227 39.1234 84.3064 39.2815C84.3858 39.4396 84.4303 39.6114 84.4372 39.7865C84.4441 39.9616 84.4133 40.1361 84.3465 40.2994Z" fill="#006466"/>
<path d="M81.7804 47.9655C81.6998 48.2061 81.546 48.4186 81.3384 48.5761C81.1309 48.7336 80.8789 48.8291 80.6144 48.8506C80.3498 48.872 80.0845 48.8184 79.8519 48.6966C79.6193 48.5747 79.4299 48.39 79.3077 48.1659C79.1854 47.9417 79.1357 47.6881 79.1649 47.4371C79.194 47.1862 79.3008 46.949 79.4716 46.7557C79.6423 46.5623 79.8695 46.4214 80.1245 46.3508C80.3794 46.2802 80.6506 46.283 80.9039 46.3588C81.2437 46.4621 81.5266 46.6891 81.6908 46.9902C81.8551 47.2913 81.8873 47.6419 81.7804 47.9655Z" fill="#006466"/>
<path d="M79.2143 55.6372C79.1343 55.8796 78.9804 56.0939 78.7721 56.253C78.5638 56.4122 78.3105 56.5089 78.0444 56.531C77.7782 56.5531 77.5112 56.4996 77.277 56.3772C77.0429 56.2549 76.8522 56.0691 76.7292 55.8436C76.6062 55.6181 76.5563 55.3629 76.586 55.1104C76.6156 54.8579 76.7234 54.6195 76.8957 54.4253C77.0679 54.2311 77.297 54.0899 77.5537 54.0196C77.8104 53.9493 78.0833 53.9531 78.3378 54.0305C78.6767 54.135 78.9586 54.3622 79.1226 54.6629C79.2867 54.9635 79.3196 55.3136 79.2143 55.6372Z" fill="#006466"/>
<path d="M76.6427 63.3088C76.5183 63.6132 76.2765 63.8611 75.9666 64.0019C75.6567 64.1426 75.302 64.1657 74.9748 64.0664C74.6476 63.9672 74.3725 63.753 74.2057 63.4675C74.0388 63.1821 73.9926 62.8468 74.0766 62.5301C74.1217 62.3603 74.2028 62.201 74.3151 62.0621C74.4274 61.9232 74.5683 61.8076 74.7293 61.7225C74.8903 61.6374 75.068 61.5845 75.2513 61.5671C75.4346 61.5498 75.6197 61.5683 75.7952 61.6216C75.9707 61.6748 76.1328 61.7617 76.2717 61.8768C76.4106 61.9919 76.5232 62.1329 76.6026 62.2909C76.682 62.449 76.7265 62.6209 76.7334 62.7959C76.7403 62.971 76.7094 63.1455 76.6427 63.3088Z" fill="#006466"/>
<path d="M74.0766 70.975C73.9959 71.2155 73.8421 71.428 73.6346 71.5855C73.427 71.7431 73.1751 71.8386 72.9105 71.86C72.6459 71.8814 72.3806 71.8278 72.148 71.706C71.9155 71.5841 71.7261 71.3994 71.6038 71.1753C71.4815 70.9512 71.4318 70.6976 71.461 70.4466C71.4902 70.1956 71.5969 69.9584 71.7677 69.7651C71.9385 69.5718 72.1657 69.4309 72.4206 69.3602C72.6756 69.2896 72.9468 69.2924 73.2001 69.3683C73.5398 69.4715 73.8227 69.6985 73.987 69.9996C74.1512 70.3007 74.1834 70.6514 74.0766 70.975Z" fill="#006466"/>
<g opacity="0.4">
<path d="M77.865 38.3362C77.784 38.578 77.6294 38.7916 77.4208 38.9498C77.2122 39.1081 76.959 39.204 76.6931 39.2254C76.4272 39.2468 76.1605 39.1927 75.9269 39.07C75.6934 38.9473 75.5033 38.7615 75.3807 38.5361C75.2581 38.3107 75.2086 38.0557 75.2384 37.8035C75.2682 37.5514 75.376 37.3132 75.5481 37.1193C75.7201 36.9253 75.9488 36.7843 76.2052 36.7139C76.4616 36.6435 76.7342 36.6471 76.9885 36.724C77.1578 36.7745 77.315 36.8564 77.4508 36.9649C77.5867 37.0735 77.6986 37.2065 77.7801 37.3564C77.8616 37.5063 77.911 37.6701 77.9256 37.8382C77.9402 38.0064 77.9196 38.1757 77.865 38.3362Z" fill="white"/>
<path d="M75.2933 46.0024C75.2123 46.243 75.0581 46.4554 74.8501 46.6127C74.6422 46.77 74.3899 46.8651 74.1251 46.8861C73.8603 46.907 73.595 46.8528 73.3626 46.7304C73.1302 46.6079 72.9412 46.4227 72.8194 46.1981C72.6977 45.9735 72.6488 45.7196 72.6788 45.4686C72.7087 45.2175 72.8163 44.9806 72.9879 44.7876C73.1595 44.5947 73.3874 44.4545 73.6427 44.3848C73.8981 44.315 74.1695 44.3188 74.4226 44.3957C74.5907 44.4468 74.7466 44.5288 74.8814 44.6373C75.0162 44.7457 75.1272 44.8783 75.208 45.0275C75.2889 45.1767 75.338 45.3396 75.3527 45.5069C75.3673 45.6741 75.3471 45.8425 75.2933 46.0024Z" fill="white"/>
<path d="M72.7273 53.674C72.6472 53.9164 72.4933 54.1308 72.285 54.2899C72.0767 54.449 71.8235 54.5458 71.5573 54.5679C71.2912 54.59 71.0241 54.5364 70.79 54.4141C70.5558 54.2917 70.3652 54.106 70.2422 53.8804C70.1191 53.6549 70.0693 53.3997 70.0989 53.1472C70.1285 52.8947 70.2363 52.6563 70.4086 52.4621C70.5809 52.2679 70.8099 52.1267 71.0666 52.0565C71.3234 51.9862 71.5963 51.9899 71.8508 52.0673C72.0194 52.1178 72.1759 52.1995 72.3113 52.3077C72.4467 52.4158 72.5584 52.5483 72.6398 52.6976C72.7212 52.8469 72.7709 53.01 72.7859 53.1775C72.8009 53.3451 72.781 53.5138 72.7273 53.674Z" fill="white"/>
<path d="M70.1612 61.3457C70.0802 61.5875 69.9256 61.801 69.717 61.9593C69.5084 62.1175 69.2551 62.2134 68.9892 62.2348C68.7233 62.2562 68.4567 62.2021 68.2231 62.0795C67.9895 61.9568 67.7994 61.771 67.6768 61.5455C67.5543 61.3201 67.5048 61.0652 67.5346 60.813C67.5643 60.5608 67.6721 60.3227 67.8442 60.1287C68.0163 59.9348 68.245 59.7937 68.5014 59.7233C68.7578 59.653 69.0304 59.6565 69.2847 59.7335C69.454 59.7839 69.6111 59.8658 69.747 59.9744C69.8828 60.0829 69.9947 60.216 70.0762 60.3659C70.1577 60.5157 70.2072 60.6795 70.2217 60.8477C70.2363 61.0158 70.2157 61.1851 70.1612 61.3457Z" fill="white"/>
<path d="M67.5952 69.0118C67.5151 69.2542 67.3612 69.4686 67.1529 69.6277C66.9447 69.7868 66.6914 69.8836 66.4252 69.9057C66.1591 69.9278 65.892 69.8742 65.6579 69.7519C65.4238 69.6295 65.2331 69.4438 65.1101 69.2182C64.9871 68.9927 64.9372 68.7375 64.9668 68.485C64.9965 68.2325 65.1042 67.9941 65.2765 67.7999C65.4488 67.6057 65.6778 67.4645 65.9346 67.3943C66.1913 67.324 66.4642 67.3277 66.7187 67.4051C67.0575 67.5096 67.3395 67.7368 67.5035 68.0375C67.6675 68.3382 67.7005 68.6882 67.5952 69.0118Z" fill="white"/>
</g>
<g opacity="0.4">
<path d="M84.3465 40.2994C84.2221 40.6038 83.9803 40.8517 83.6704 40.9924C83.3605 41.1332 83.0058 41.1563 82.6786 41.057C82.3515 40.9577 82.0764 40.7435 81.9095 40.4581C81.7426 40.1726 81.6965 39.8374 81.7805 39.5207C81.8255 39.3508 81.9067 39.1916 82.019 39.0527C82.1312 38.9138 82.2722 38.7982 82.4332 38.7131C82.5942 38.6279 82.7718 38.5751 82.9551 38.5577C83.1384 38.5403 83.3235 38.5589 83.499 38.6121C83.6745 38.6654 83.8367 38.7522 83.9756 38.8674C84.1144 38.9825 84.227 39.1234 84.3064 39.2815C84.3858 39.4396 84.4303 39.6114 84.4372 39.7865C84.4441 39.9616 84.4133 40.1361 84.3465 40.2994Z" fill="white"/>
<path d="M81.7804 47.9655C81.6998 48.2061 81.546 48.4186 81.3384 48.5761C81.1309 48.7336 80.8789 48.8291 80.6144 48.8506C80.3498 48.872 80.0845 48.8184 79.8519 48.6966C79.6193 48.5747 79.4299 48.39 79.3077 48.1659C79.1854 47.9417 79.1357 47.6881 79.1649 47.4371C79.194 47.1862 79.3008 46.949 79.4716 46.7557C79.6423 46.5623 79.8695 46.4214 80.1245 46.3508C80.3794 46.2802 80.6506 46.283 80.9039 46.3588C81.2437 46.4621 81.5266 46.6891 81.6908 46.9902C81.8551 47.2913 81.8873 47.6419 81.7804 47.9655Z" fill="white"/>
<path d="M79.2143 55.6372C79.1343 55.8796 78.9804 56.0939 78.7721 56.253C78.5638 56.4122 78.3105 56.5089 78.0444 56.531C77.7782 56.5531 77.5112 56.4996 77.277 56.3772C77.0429 56.2549 76.8522 56.0691 76.7292 55.8436C76.6062 55.6181 76.5563 55.3629 76.586 55.1104C76.6156 54.8579 76.7234 54.6195 76.8957 54.4253C77.0679 54.2311 77.297 54.0899 77.5537 54.0196C77.8104 53.9493 78.0833 53.9531 78.3378 54.0305C78.6767 54.135 78.9586 54.3622 79.1226 54.6629C79.2867 54.9635 79.3196 55.3136 79.2143 55.6372Z" fill="white"/>
<path d="M76.6427 63.3088C76.5183 63.6132 76.2765 63.8611 75.9666 64.0019C75.6567 64.1426 75.302 64.1657 74.9748 64.0664C74.6476 63.9672 74.3725 63.753 74.2057 63.4675C74.0388 63.1821 73.9926 62.8468 74.0766 62.5301C74.1217 62.3603 74.2028 62.201 74.3151 62.0621C74.4274 61.9232 74.5683 61.8076 74.7293 61.7225C74.8903 61.6374 75.068 61.5845 75.2513 61.5671C75.4346 61.5498 75.6197 61.5683 75.7952 61.6216C75.9707 61.6748 76.1328 61.7617 76.2717 61.8768C76.4106 61.9919 76.5232 62.1329 76.6026 62.2909C76.682 62.449 76.7265 62.6209 76.7334 62.7959C76.7403 62.971 76.7094 63.1455 76.6427 63.3088Z" fill="white"/>
<path d="M74.0766 70.975C73.9959 71.2155 73.8421 71.428 73.6346 71.5855C73.427 71.7431 73.1751 71.8386 72.9105 71.86C72.6459 71.8814 72.3806 71.8278 72.148 71.706C71.9155 71.5841 71.7261 71.3994 71.6038 71.1753C71.4815 70.9512 71.4318 70.6976 71.461 70.4466C71.4902 70.1956 71.5969 69.9584 71.7677 69.7651C71.9385 69.5718 72.1657 69.4309 72.4206 69.3602C72.6756 69.2896 72.9468 69.2924 73.2001 69.3683C73.5398 69.4715 73.8227 69.6985 73.987 69.9996C74.1512 70.3007 74.1834 70.6514 74.0766 70.975Z" fill="white"/>
</g>
<path opacity="0.7" d="M67.2376 74.3365L49.5233 77.8131C48.7082 77.9719 47.8602 77.8169 47.1652 77.3821C46.4702 76.9473 45.9848 76.2681 45.8155 75.4935L40.718 51.9906C40.3861 50.4761 40.5812 48.9 41.274 47.5003C41.9668 46.1005 43.1196 44.9531 44.5584 44.2312C45.1841 43.9155 45.854 43.6866 46.5478 43.5512L55.6991 41.758C56.6647 41.5673 57.6604 41.5596 58.6291 41.7354C59.5978 41.9112 60.5206 42.267 61.3444 42.7826C62.1683 43.2981 62.8771 43.9631 63.4302 44.7396C63.9833 45.5161 64.3699 46.3887 64.5678 47.3075L69.671 70.8105C69.7554 71.194 69.7593 71.5896 69.6826 71.9745C69.6058 72.3595 69.45 72.7262 69.2239 73.0538C68.9978 73.3814 68.706 73.6633 68.3652 73.8834C68.0243 74.1035 67.6411 74.2575 67.2376 74.3365Z" fill="white"/>
<path d="M64.7992 48.3852L40.9446 53.0666L44.7298 70.5099L68.5844 65.8286L64.7992 48.3852Z" fill="#006466"/>
<path opacity="0.4" d="M64.7992 48.3852L40.9446 53.0666L44.7298 70.5099L68.5844 65.8286L64.7992 48.3852Z" fill="white"/>
<path d="M43.7295 38.4823L56.7185 35.9333C56.9284 35.8921 57.1447 35.8906 57.3552 35.9289C57.5657 35.9673 57.7662 36.0446 57.9452 36.1566C58.1242 36.2687 58.2783 36.4131 58.3986 36.5817C58.519 36.7504 58.6032 36.9399 58.6465 37.1395L59.1535 39.4756L42.9454 42.6564L42.4338 40.2987C42.3935 40.0985 42.3949 39.8928 42.4382 39.6931C42.4815 39.4935 42.5657 39.304 42.686 39.1353C42.8063 38.9666 42.9604 38.8221 43.1394 38.7101C43.3185 38.598 43.519 38.5206 43.7295 38.4823Z" fill="#006466"/>
<path opacity="0.7" d="M58.4901 41.7087C57.5646 41.5609 56.6183 41.5776 55.6992 41.758L46.571 43.5512C45.8772 43.6866 45.2073 43.9155 44.5816 44.2312L44.1895 42.4161L58.0749 39.6743L58.4901 41.7087Z" fill="white"/>
<path opacity="0.3" d="M44.3219 45.5253C44.3143 45.436 44.277 45.3513 44.2154 45.2835C44.1537 45.2156 44.071 45.1682 43.9792 45.1481C43.8874 45.1279 43.7912 45.1361 43.7046 45.1714C43.6179 45.2067 43.5454 45.2672 43.4973 45.3443C42.8531 46.3269 42.558 47.4803 42.6554 48.6345C42.9668 50.6087 47.3954 72.132 48.0758 75.4277C48.1346 75.6989 48.2893 75.9427 48.5141 76.1186C48.6638 76.232 48.8388 76.3113 49.0258 76.3502C49.2127 76.3892 49.4066 76.3869 49.5924 76.3435L50.2671 76.1844L44.5007 48.0478C44.5007 48.0478 44.3969 46.6988 44.3219 45.5253Z" fill="white"/>
</svg>
