<svg width="24" height="25" viewBox="0 0 24 25" fill="none" xmlns="http://www.w3.org/2000/svg">
<path d="M20.33 4.17002C20.1408 3.98219 19.9035 3.85014 19.6442 3.78839C19.3849 3.72665 19.1135 3.73759 18.86 3.82002L4.23 8.70002C3.95867 8.78599 3.71891 8.95045 3.54099 9.17261C3.36307 9.39477 3.25498 9.66468 3.23037 9.94824C3.20576 10.2318 3.26573 10.5163 3.40271 10.7658C3.5397 11.0153 3.74754 11.2186 4 11.35L10.07 14.35L13.07 20.44C13.1906 20.6784 13.3751 20.8785 13.6029 21.018C13.8307 21.1576 14.0929 21.231 14.36 21.23H14.46C14.7461 21.2089 15.0192 21.1023 15.2439 20.924C15.4686 20.7456 15.6345 20.5039 15.72 20.23L20.67 5.64002C20.7584 5.38795 20.7734 5.11596 20.7132 4.85572C20.653 4.59547 20.5201 4.35768 20.33 4.17002ZM4.85 10.08L17.62 5.82002L10.53 12.91L4.85 10.08ZM14.43 19.65L11.59 13.97L18.68 6.88002L14.43 19.65Z" fill="#006466"/>
</svg>
