<svg width="110" height="90" viewBox="0 0 110 90" fill="none" xmlns="http://www.w3.org/2000/svg">
<path d="M38.6245 44.4546H62.1953V35.046H38.6245V44.4546Z" fill="#C7C7C7"/>
<path d="M62.1953 35.0479V44.4564H98.9368V43.5385H98.1448V35.9658H98.9368V35.0479H62.1953Z" fill="#A6A6A6"/>
<path d="M63.1606 43.479L98.186 43.479V36.0234L63.1606 36.0234V43.479Z" fill="white"/>
<path d="M63.159 43.4789C71.89 43.4483 89.4578 43.4106 98.1859 43.398L98.1199 43.4789V36.0233C92.8062 36.2807 77.393 35.9909 71.9238 36.0755L63.1663 36.0503C63.1912 35.8901 63.1663 43.5131 63.1663 43.4789H63.159ZM63.159 43.4789C63.159 43.4537 63.1384 36.0215 63.1384 35.9981C63.1384 35.9747 71.9106 35.9747 71.9164 35.9711L98.1859 35.9333H98.2592V36.0233L98.2519 43.4789V43.5599H98.1859C89.4563 43.5491 71.8871 43.5113 63.159 43.4789Z" fill="#DBDBDB"/>
<path d="M85.6152 41.8301C88.2934 41.8733 90.9715 41.9033 93.6496 41.9201L98.186 41.9345V41.7275L93.6496 41.7419C90.9715 41.7539 88.2934 41.7833 85.6152 41.8301Z" fill="#DBDBDB"/>
<path d="M63.1589 40.068V40.2588L69.0065 40.2786L77.4824 40.2516C80.1605 40.236 82.8387 40.2066 85.5168 40.1634C82.8387 40.1202 80.1605 40.0908 77.4824 40.0752L69.0065 40.0482L63.1589 40.068Z" fill="#DBDBDB"/>
<path d="M63.1589 37.2726V37.503L71.5189 37.476C74.199 37.4604 76.8772 37.431 79.5533 37.3878C76.8752 37.3446 74.1971 37.3152 71.5189 37.2996L63.1589 37.2726Z" fill="#DBDBDB"/>
<path d="M63.1589 41.85V42.0408H65.4044C68.0825 42.0264 70.7612 41.997 73.4403 41.9526C70.7602 41.9118 68.0816 41.8824 65.4044 41.8644L63.1589 41.85Z" fill="#DBDBDB"/>
<path d="M85.3467 38.637C88.0258 38.6778 90.7044 38.7072 93.3826 38.7252L98.1859 38.7414V38.5326L93.3826 38.5488C90.7025 38.5632 88.0238 38.5926 85.3467 38.637Z" fill="#DBDBDB"/>
<path d="M95.8555 39.402C94.0124 39.39 92.1678 39.381 90.3217 39.375H84.4859H78.7996C76.9545 39.375 75.11 39.384 73.2659 39.402C75.1109 39.414 76.9555 39.423 78.7996 39.429H84.4859H90.3217C92.1668 39.423 94.0114 39.414 95.8555 39.402Z" fill="#DBDBDB"/>
<path d="M93.5469 28.0548H69.9761V35.0478H93.5469V28.0548Z" fill="#EBEBEB"/>
<path d="M69.9746 35.0478V28.0548H33.2332V28.737H34.0252V34.3656H33.2332V35.0478H69.9746Z" fill="#DBDBDB"/>
<path d="M69.0111 28.7802H33.9856V34.3224H69.0111V28.7802Z" fill="white"/>
<path d="M69.0109 28.7802C60.2798 28.8126 42.7121 28.8504 33.9854 28.863L34.0529 28.7802V34.3224C33.5894 34.074 51.5972 34.3386 51.493 34.2594C55.8549 34.2594 64.6461 34.2846 69.0065 34.3026C68.9816 34.4214 69.0065 28.7568 69.0065 28.7802H69.0109ZM69.0109 28.7802L69.027 34.3224V34.3422H69.0109C64.6417 34.3602 55.8652 34.3836 51.4974 34.3854L33.9854 34.4124H33.9121V34.3224V28.7802V28.6974H33.9796C42.7092 28.71 60.2784 28.7478 69.005 28.7802H69.0109Z" fill="#DBDBDB"/>
<path d="M46.5564 30.006C43.8783 29.9736 41.1996 29.9514 38.5205 29.9394L33.9841 29.9286V30.0816L38.5205 30.0726C41.1957 30.0642 43.8744 30.042 46.5564 30.006Z" fill="#DBDBDB"/>
<path d="M69.0109 31.3201V31.1779L63.1648 31.1635L54.6889 31.1833C52.0108 31.1953 49.3322 31.2169 46.6531 31.2481C49.3312 31.2805 52.0098 31.3027 54.6889 31.3147L63.1648 31.3345L69.0109 31.3201Z" fill="#DBDBDB"/>
<path d="M69.0111 33.3936V33.2136L60.6511 33.2334C57.972 33.2454 55.2934 33.2676 52.6152 33.3C55.2934 33.33 57.972 33.3516 60.6511 33.3648L69.0111 33.3936Z" fill="#DBDBDB"/>
<path d="M69.0111 29.9916V29.8494H66.7656C64.0875 29.8602 61.4093 29.8824 58.7312 29.916C61.4093 29.9472 64.0875 29.9688 66.7656 29.9808L69.0111 29.9916Z" fill="#DBDBDB"/>
<path d="M46.8248 32.3801C44.1457 32.3501 41.4666 32.3279 38.7875 32.3135L33.9841 32.3027V32.4575L38.7875 32.4449C41.4676 32.4341 44.1467 32.4125 46.8248 32.3801Z" fill="#DBDBDB"/>
<path d="M36.3147 31.8114C38.1598 31.821 40.0043 31.8276 41.8484 31.8312H47.6858H53.3706C55.2156 31.8312 57.0602 31.8246 58.9043 31.8114C57.0602 31.8006 55.2156 31.794 53.3706 31.7916H47.6858H41.8484C40.0034 31.7952 38.1588 31.8018 36.3147 31.8114Z" fill="#DBDBDB"/>
<path d="M47.9452 13.9806H15.2385V44.4564H47.9452V13.9806Z" fill="#EBEBEB"/>
<path d="M60.3753 13.9806H47.9453V44.4564H60.3753V13.9806Z" fill="#DBDBDB"/>
<path d="M15.2385 29.1006H47.9452L22.4032 29.8908L15.2385 29.1006Z" fill="#DBDBDB"/>
<path d="M47.9452 40.7466H15.2385L40.782 41.5368L47.9452 40.7466Z" fill="#DBDBDB"/>
<path d="M15.2385 20.5164H35.9567L17.5397 21.1608L15.2385 20.5164Z" fill="#DBDBDB"/>
<path d="M47.9452 36.225H27.2285L45.644 36.8694L47.9452 36.225Z" fill="#DBDBDB"/>
<path d="M50.6908 15.876H29.9741L48.3911 16.5222L50.6908 15.876Z" fill="#DBDBDB"/>
<path d="M29.4211 17.8074H52.7881L48.8926 18.1944L29.4211 17.8074Z" fill="#DBDBDB"/>
<path d="M18.4182 32.3928H41.7851L37.8897 32.7798L18.4182 32.3928Z" fill="#DBDBDB"/>
<path d="M32.7874 23.4396H47.9454L50.6543 24.4728L32.7874 23.4396Z" fill="#EBEBEB"/>
<path d="M36.4407 33.7374H51.5987L54.3061 34.7706L36.4407 33.7374Z" fill="#EBEBEB"/>
<path d="M33.1069 38.2751H48.2649L50.9739 39.3083L33.1069 38.2751Z" fill="#EBEBEB"/>
<path d="M11.063 23.4396H26.221L28.9285 24.4728L11.063 23.4396Z" fill="#DBDBDB"/>
<path d="M30.5124 17.4852H15.3559L12.647 18.5166L30.5124 17.4852Z" fill="#EBEBEB"/>
<path d="M31.3323 35.7084H16.1743L13.4653 36.7416L31.3323 35.7084Z" fill="#EBEBEB"/>
<path d="M30.5124 37.2438H15.3559L12.647 38.2752L30.5124 37.2438Z" fill="#DBDBDB"/>
<path d="M47.9453 33.7374H60.1172L62.8261 34.7706L47.9453 33.7374Z" fill="#DBDBDB"/>
<path d="M52.1941 29.1005H61.6336L60.3752 28.2563L52.1941 29.1005Z" fill="#DBDBDB"/>
<path d="M8.13403 44.46C38.1596 44.3502 71.8402 44.3484 101.866 44.46C71.8402 44.5716 38.1596 44.5698 8.13403 44.46Z" fill="#263238"/>
<path d="M68.5593 69.9425L83.1248 65.5487L101.631 68.7131L86.4365 73.4327L68.5593 69.9425Z" fill="#DBDBDB"/>
<path d="M68.5593 69.9425L83.1204 65.5289C83.1204 65.5289 101.64 68.6717 101.64 68.6699L101.826 68.7005L101.64 68.7599L86.4365 73.4579C86.4365 73.4579 68.5652 69.9407 68.5593 69.9425ZM68.5593 69.9425C68.5593 69.9425 86.4644 73.4111 86.4321 73.4093L101.622 68.6699V68.7581C101.622 68.7581 83.1013 65.5667 83.1292 65.5685L68.5593 69.9425Z" fill="#DBDBDB"/>
<path d="M85.8574 72.2087C86.7536 71.8703 87.6776 71.5553 88.6045 71.2439C89.5314 70.9325 90.473 70.6337 91.4176 70.3439C92.3621 70.0541 93.3242 69.7607 94.2893 69.4853L95.7442 69.0731C96.24 68.9435 96.7254 68.8067 97.227 68.6843C96.787 68.8553 96.3206 69.0119 95.8674 69.1775L94.4814 69.6473C93.5574 69.9623 92.6129 70.2593 91.6684 70.5473C90.7238 70.8353 89.7617 71.1305 88.7966 71.4059C87.8316 71.6813 86.8577 71.9567 85.8574 72.2087Z" fill="#C7C7C7"/>
<path d="M88.2642 70.4214C89.2908 69.9894 90.3996 69.6186 91.5231 69.2658C92.6466 68.913 93.8052 68.58 95.0402 68.3208C94.0135 68.7546 92.9062 69.1236 91.7812 69.4764C90.6563 69.8292 89.4918 70.155 88.2642 70.4214Z" fill="#C7C7C7"/>
<path d="M81.469 71.4941C82.3651 71.1557 83.2891 70.8407 84.2161 70.5293C85.143 70.2179 86.0846 69.9191 87.0291 69.6293C87.9737 69.3395 88.9358 69.0461 89.8994 68.7707L91.3558 68.3603C91.8501 68.2307 92.337 68.0939 92.8386 67.9697C92.3986 68.1407 91.9322 68.2991 91.479 68.4629L90.093 68.9345C89.1675 69.2477 88.2245 69.5447 87.2799 69.8345C86.3354 70.1243 85.3733 70.4177 84.4082 70.6931C83.4431 70.9685 82.4693 71.2421 81.469 71.4941Z" fill="#C7C7C7"/>
<path d="M80.9087 70.6283C82.4326 70.0415 84.0327 69.5195 85.6519 69.0083C87.2711 68.4971 88.9226 68.0219 90.6386 67.6025C89.1147 68.1893 87.5146 68.7113 85.8968 69.2225C84.2791 69.7337 82.6306 70.2089 80.9087 70.6283Z" fill="#C7C7C7"/>
<path d="M82.8125 68.9993C83.6529 68.6249 84.5725 68.3135 85.5068 68.0183C86.441 67.7231 87.4134 67.4567 88.4504 67.2479C87.61 67.6241 86.6904 67.9337 85.7576 68.2289C84.8248 68.5241 83.8509 68.7905 82.8125 68.9993Z" fill="#C7C7C7"/>
<path d="M8.3689 51.4908L28.5796 46.7964L48.0818 53.7894L27.9724 58.653L8.3689 51.4908Z" fill="#EBEBEB"/>
<path d="M8.3689 51.4907L28.581 46.7729C28.581 46.7729 48.0877 53.7479 48.0877 53.7461L48.2344 53.7983L48.0877 53.8343L27.9724 58.6799C27.965 58.6799 8.37476 51.4961 8.3689 51.4961V51.4907ZM8.3689 51.4907L27.9782 58.6295C27.9298 58.6421 48.0877 53.7407 48.0716 53.7461V53.8325L28.5752 46.8125C28.6133 46.8017 8.36303 51.4925 8.3689 51.4925V51.4907Z" fill="#DBDBDB"/>
<path d="M27.6892 57.2274C29.0092 56.853 30.3395 56.5074 31.6756 56.16C33.0117 55.8126 34.3581 55.4814 35.706 55.1538C37.0539 54.8262 38.4091 54.5058 39.7731 54.2016L41.8191 53.7444C42.5069 53.6004 43.1889 53.4492 43.8827 53.3124C43.2256 53.5014 42.5627 53.6724 41.8968 53.8524L39.8933 54.3798C38.5587 54.729 37.2108 55.0584 35.8644 55.386C34.518 55.7136 33.1613 56.034 31.7973 56.3382C30.4333 56.6424 29.0708 56.9502 27.6892 57.2274Z" fill="#DBDBDB"/>
<path d="M32.8696 54.738C34.3099 54.2826 35.803 53.8974 37.3004 53.5302C38.7979 53.163 40.3232 52.8282 41.8896 52.5564C40.4494 53.0118 38.9563 53.397 37.4588 53.7642C35.9614 54.1314 34.436 54.4662 32.8696 54.738Z" fill="#DBDBDB"/>
<path d="M25.696 55.2347C26.8474 54.8999 28.0148 54.5921 29.1852 54.2861C30.3556 53.9801 31.5319 53.6903 32.717 53.4005C33.902 53.1107 35.0886 52.8335 36.2868 52.5689L38.0835 52.1729C38.6892 52.0487 39.2876 51.9173 39.8978 51.8003C39.3243 51.9695 38.7406 52.1243 38.1612 52.2863L36.4086 52.7489C35.2352 53.0567 34.0619 53.3447 32.8768 53.6345C31.6918 53.9243 30.5067 54.1997 29.3084 54.4661C28.1102 54.7325 26.9134 54.9971 25.696 55.2347Z" fill="#DBDBDB"/>
<path d="M24.7559 54.225C25.8192 53.9118 26.8987 53.6238 27.9825 53.3394C29.0664 53.055 30.1576 52.785 31.2517 52.5186C32.3459 52.2522 33.4517 51.993 34.5576 51.75L36.2223 51.39C36.784 51.2766 37.3399 51.156 37.906 51.0498C37.3765 51.21 36.8353 51.3522 36.3015 51.5052L34.6793 51.9354C33.5984 52.2216 32.5043 52.4898 31.4101 52.7562C30.316 53.0226 29.2101 53.28 28.1043 53.5248C26.9984 53.7696 25.8852 54 24.7559 54.225Z" fill="#DBDBDB"/>
<path d="M19.7209 54.2051C21.0409 53.8307 22.3712 53.4851 23.7073 53.1359C25.0435 52.7867 26.3899 52.4591 27.7377 52.1297C29.0856 51.8003 30.4408 51.4835 31.8033 51.1775L33.8567 50.7203C34.5445 50.5781 35.2265 50.4251 35.9203 50.2883C35.2632 50.4791 34.6003 50.6483 33.9344 50.8283L31.9324 51.3503C30.5977 51.6977 29.2499 52.0271 27.9035 52.3565C26.5571 52.6859 25.2004 53.0027 23.8364 53.3087C22.4724 53.6147 21.1025 53.9261 19.7209 54.2051Z" fill="#DBDBDB"/>
<path d="M19.5537 53.0081C20.7182 52.6697 21.9004 52.3583 23.084 52.0487C24.2676 51.7391 25.4629 51.4457 26.6582 51.1487C27.8536 50.8517 29.0562 50.5745 30.2677 50.3063L32.0864 49.9049C32.698 49.7789 33.3052 49.6457 33.9212 49.5287C33.3345 49.6997 32.7478 49.8545 32.1612 50.0201L30.388 50.4863C29.2058 50.7977 28.0105 51.0893 26.8152 51.3863C25.6198 51.6833 24.4157 51.9605 23.2042 52.2287C21.9928 52.4969 20.7842 52.7669 19.5537 53.0081Z" fill="#DBDBDB"/>
<path d="M15.7361 52.6932C17.0561 52.3188 18.3863 51.9732 19.7239 51.6258C21.0615 51.2784 22.4065 50.94 23.7602 50.6196C25.1139 50.2992 26.4633 49.9716 27.8273 49.6674L29.8733 49.2102C30.5611 49.0662 31.2446 48.915 31.9369 48.7782C31.2798 48.9672 30.6169 49.1382 29.9525 49.3182L27.9505 49.842C26.6158 50.1894 25.2679 50.5188 23.9201 50.8464C22.5722 51.174 21.217 51.4944 19.853 51.7986C18.489 52.1028 17.1192 52.416 15.7361 52.6932Z" fill="#DBDBDB"/>
<path d="M20.3662 50.3369C21.8989 49.8581 23.4799 49.4513 25.0727 49.0625C26.6655 48.6737 28.2789 48.3155 29.9377 48.0221C28.405 48.5009 26.8254 48.9059 25.2311 49.2965C23.6369 49.6871 22.025 50.0399 20.3662 50.3369Z" fill="#DBDBDB"/>
<path d="M37.9839 75.4559L63.6682 69.4907L88.4489 78.3773L62.8952 84.5567L37.9839 75.4559Z" fill="#EBEBEB"/>
<path d="M37.9868 75.4559L63.6682 69.4673C63.6682 69.4673 88.4548 78.3359 88.4548 78.3341L88.6015 78.3863L88.4548 78.4223L62.8952 84.5801C62.8879 84.5819 37.9868 75.4559 37.9868 75.4559ZM37.9868 75.4559L62.904 84.5351C62.8586 84.5351 88.4563 78.3305 88.4446 78.3341V78.4205L63.6623 69.5123C63.7004 69.4979 37.978 75.4649 37.9839 75.4523L37.9868 75.4559Z" fill="#DBDBDB"/>
<path d="M62.5344 82.746C64.2079 82.2708 65.9078 81.8262 67.6018 81.3888C69.2958 80.9514 71.0103 80.5284 72.7219 80.1108C74.4335 79.6932 76.1568 79.2881 77.8904 78.8993L80.4908 78.3197C81.3708 78.1397 82.2318 77.9436 83.1132 77.7708C82.2787 78.012 81.431 78.2334 80.5906 78.4656L78.0459 79.128C76.3504 79.5708 74.6374 79.9884 72.9258 80.406C71.2142 80.8236 69.4908 81.2286 67.7572 81.6156C66.0236 82.0026 64.2915 82.3932 62.5344 82.746Z" fill="#DBDBDB"/>
<path d="M69.1182 79.5816C70.9486 79.0038 72.8406 78.5142 74.7472 78.048C76.6539 77.5818 78.5899 77.148 80.5816 76.8096C78.7512 77.3892 76.8578 77.8788 74.9511 78.345C73.0444 78.8112 71.1084 79.236 69.1182 79.5816Z" fill="#DBDBDB"/>
<path d="M60.0029 80.2133C61.4696 79.7885 62.9495 79.3961 64.4367 79.0091C65.9239 78.6221 67.4243 78.2513 68.9247 77.8841C70.4251 77.5169 71.9372 77.1641 73.4596 76.8257L75.7447 76.3217C76.5132 76.1651 77.2744 75.9977 78.0503 75.8501C77.3169 76.0661 76.5836 76.2623 75.8503 76.4675L73.6239 77.0543C72.1381 77.4449 70.6363 77.8121 69.1359 78.1793C67.6355 78.5465 66.1219 78.8993 64.5995 79.2359C63.0771 79.5725 61.5488 79.9199 60.0029 80.2133Z" fill="#DBDBDB"/>
<path d="M58.8135 78.9299C60.1643 78.5321 61.5371 78.1667 62.9201 77.8067C64.3032 77.4467 65.6833 77.1011 67.0737 76.7609C68.4641 76.4207 69.8604 76.0949 71.2743 75.7853L73.3921 75.3209C74.1049 75.1787 74.8104 75.0239 75.5305 74.8889C74.8573 75.0923 74.1709 75.2741 73.4904 75.4667L71.4297 76.0067C70.0569 76.3667 68.6665 76.7105 67.2761 77.0507C65.8857 77.3909 64.4895 77.7167 63.0756 78.0263C61.6617 78.3359 60.242 78.6599 58.8135 78.9299Z" fill="#DBDBDB"/>
<path d="M52.4084 78.9047C54.0819 78.4295 55.7818 77.9849 57.4758 77.5475C59.1698 77.1101 60.8843 76.6871 62.5959 76.2695C64.3075 75.8519 66.0308 75.4469 67.76 75.0599L70.3605 74.4803C71.2404 74.3003 72.1014 74.1041 72.9828 73.9403C72.1483 74.1815 71.3006 74.4029 70.4602 74.6351L67.9155 75.2975C66.22 75.7403 64.507 76.1579 62.7954 76.5755C61.0838 76.9931 59.3604 77.3981 57.6268 77.7851C55.8932 78.1721 54.1655 78.5519 52.4084 78.9047Z" fill="#DBDBDB"/>
<path d="M52.1973 77.3838C53.6771 76.9554 55.179 76.5576 56.6838 76.167C58.1886 75.7764 59.7051 75.4002 61.2305 75.0276C62.7558 74.655 64.2782 74.2986 65.8182 73.9584L68.1223 73.44C68.9011 73.2816 69.6711 73.1124 70.4558 72.9612C69.7225 73.179 68.9671 73.377 68.2221 73.5858L65.9693 74.1798C64.4659 74.574 62.9465 74.9466 61.4226 75.3174C59.8987 75.6882 58.3749 76.0374 56.8349 76.3866C55.2949 76.7358 53.7607 77.0778 52.1973 77.3838Z" fill="#DBDBDB"/>
<path d="M47.3455 76.9841C49.0189 76.5089 50.7188 76.0643 52.4128 75.6269C54.1068 75.1895 55.8213 74.7665 57.5329 74.3489C59.2445 73.9313 60.9679 73.5263 62.7015 73.1375L65.3019 72.5579C66.1819 72.3779 67.0428 72.1817 67.9228 72.0089C67.0897 72.2501 66.242 72.4715 65.4016 72.7037L62.8569 73.3661C61.1615 73.8089 59.4484 74.2265 57.7368 74.6441C56.0252 75.0617 54.3019 75.4667 52.5683 75.8537C50.8347 76.2407 49.1025 76.6313 47.3455 76.9841Z" fill="#DBDBDB"/>
<path d="M53.2297 73.9889C55.1775 73.3823 57.1897 72.8657 59.2093 72.3689C61.2289 71.8721 63.2852 71.4185 65.3928 71.0459C63.4451 71.6543 61.4328 72.1709 59.4117 72.6659C57.3907 73.1609 55.3373 73.6199 53.2297 73.9889Z" fill="#DBDBDB"/>
<path d="M100.745 60.3378L53.1931 76.4622V64.8396L100.745 48.7152C103.265 54.4176 100.745 60.3378 100.745 60.3378Z" fill="#37474F"/>
<path d="M6.79077 68.4L53.1932 76.4622V73.5156L11.0338 67.1868L6.79077 67.5V68.4Z" fill="#455A64"/>
<path d="M53.1945 64.8936C54.9281 70.0146 53.1945 76.4622 53.1945 76.4622L9.02881 67.9014V57.8556L53.1945 64.8936Z" fill="#455A64"/>
<path d="M52.1019 64.7207C53.79 69.8219 52.2412 75.3155 52.2412 75.3155L9.02881 67.8599V57.8519L52.1019 64.7207Z" fill="white"/>
<path d="M52.102 64.7207C52.1592 64.9187 52.3249 65.4767 52.3821 65.6729C52.7252 67.0742 52.8992 68.5297 52.8984 69.9929C52.9048 71.7979 52.6907 73.5939 52.2633 75.3209C52.2838 75.4001 9.0333 67.9211 9.01863 67.9409L8.95557 67.9301V67.8599V57.8519V57.7601L9.0289 57.7727L30.5742 61.2341L52.0932 64.7171L52.102 64.7207ZM52.102 64.7207C41.5068 62.9729 19.3352 59.7473 9.09343 57.8555L9.10077 67.8635L9.0377 67.7735C9.0377 67.7933 52.3396 75.2597 52.2164 75.3065C52.4354 74.4494 52.5992 73.5725 52.7062 72.6839C53.0333 70.0253 52.9072 67.2353 52.1005 64.7207H52.102Z" fill="#DBDBDB"/>
<path d="M29.9377 62.1899C37.1479 63.2699 45.2233 64.6019 52.4085 65.9105C45.1984 64.8305 37.1229 63.4967 29.9377 62.1899Z" fill="#DBDBDB"/>
<path d="M9.02881 61.5167C15.2093 62.4167 22.066 63.5579 28.2245 64.6937C22.0396 63.7937 15.1859 62.6561 9.02881 61.5167Z" fill="#DBDBDB"/>
<path d="M10.0586 62.505C20.5614 64.125 32.3285 66.0726 42.8034 67.9248C32.3021 66.3048 20.535 64.3572 10.0586 62.505Z" fill="#DBDBDB"/>
<path d="M15.7361 65.9052C26.6305 67.5594 38.8375 69.5466 49.7055 71.433C38.8126 69.7806 26.6056 67.7916 15.7361 65.9052Z" fill="#DBDBDB"/>
<path d="M23.0591 68.022C32.5601 69.48 43.2155 71.2404 52.6945 72.9288C43.1891 71.4744 32.5396 69.7104 23.0591 68.022Z" fill="#DBDBDB"/>
<path d="M14.52 68.0022C26.6934 69.9066 40.3334 72.1638 52.4759 74.286C40.3026 72.3834 26.6626 70.1244 14.52 68.0022Z" fill="#DBDBDB"/>
<path d="M53.1946 64.8935L100.745 48.7151L52.6945 46.0439L6.79077 56.4911V57.4991L53.1946 64.8935Z" fill="#455A64"/>
<path d="M54.4133 63.1151C60.3123 60.9209 66.3711 58.9391 72.424 57.2273C66.5265 59.4233 60.4677 61.4015 54.4133 63.1151Z" fill="#37474F"/>
<path d="M43.0056 62.0856C44.6483 62.19 46.3452 62.424 47.9761 62.667C49.6071 62.91 51.2908 63.207 52.8895 63.612C51.2468 63.5094 49.5499 63.2736 47.9204 63.0306C46.2909 62.7876 44.6057 62.4816 43.0056 62.0856Z" fill="#37474F"/>
<path d="M8.06665 56.6874C19.2353 58.1598 30.4934 59.8968 41.5873 61.8642C30.4098 60.3954 19.1532 58.6548 8.06665 56.6874Z" fill="#37474F"/>
<path d="M85.5068 55.2707C90.1474 53.4815 94.8441 51.8513 99.5971 50.3801C94.9585 52.1693 90.2618 53.7995 85.5068 55.2707Z" fill="#455A64"/>
<path d="M60.8505 46.4058C60.2345 46.5534 57.6913 46.7208 57.6399 46.0458C57.5607 45.0306 63.643 37.8306 65.8254 36.477C67.9007 35.1882 74.5873 32.3766 76.2387 32.3154L76.2534 38.781C75.3191 39.0726 67.8758 38.1816 66.3123 39.2004C65.6333 39.6432 64.7342 41.4792 62.9038 44.3952C62.2599 45.423 61.2142 46.3176 60.8505 46.4058Z" fill="#006466"/>
<g opacity="0.3">
<path d="M60.8505 46.4058C60.2345 46.5534 57.6913 46.7208 57.6399 46.0458C57.5607 45.0306 63.643 37.8306 65.8254 36.477C67.9007 35.1882 74.5873 32.3766 76.2387 32.3154L76.2534 38.781C75.3191 39.0726 67.8758 38.1816 66.3123 39.2004C65.6333 39.6432 64.7342 41.4792 62.9038 44.3952C62.2599 45.423 61.2142 46.3176 60.8505 46.4058Z" fill="black"/>
</g>
<path d="M59.5878 46.4058C58.9703 46.5534 56.606 46.7208 56.5532 46.0458C56.4755 45.0306 62.5578 37.8306 64.7387 36.477C66.814 35.1882 74.5874 32.3766 76.2388 32.3154L76.2535 38.781C75.3192 39.0726 66.7906 38.1816 65.2271 39.2004C64.548 39.6432 63.4671 41.4792 61.6396 44.3952C60.9972 45.423 59.9515 46.3176 59.5878 46.4058Z" fill="#006466"/>
<g opacity="0.2">
<path d="M59.5878 46.4058C58.9703 46.5534 56.606 46.7208 56.5532 46.0458C56.4755 45.0306 62.5578 37.8306 64.7387 36.477C66.814 35.1882 74.5874 32.3766 76.2388 32.3154L76.2535 38.781C75.3192 39.0726 66.7906 38.1816 65.2271 39.2004C64.548 39.6432 63.4671 41.4792 61.6396 44.3952C60.9972 45.423 59.9515 46.3176 59.5878 46.4058Z" fill="black"/>
</g>
<path d="M83.5691 54.9846C84.1001 55.2582 86.1886 55.3968 86.5465 54.8442C87.0862 54.0072 80.5009 42.6186 76.6318 40.5522C73.0135 38.6352 21.9662 26.4672 20.9131 26.2656L20.875 31.32C27.9869 32.6844 73.1133 41.508 75.9043 43.0002C77.7245 43.9704 80.0433 49.0896 81.7094 52.6266C82.3826 54.063 82.9531 54.6678 83.5691 54.9846Z" fill="#006466"/>
<g opacity="0.2">
<path d="M83.5691 54.9846C84.1001 55.2582 86.1886 55.3968 86.5465 54.8442C87.0862 54.0072 80.5009 42.6186 76.6318 40.5522C73.0135 38.6352 21.9662 26.4672 20.9131 26.2656L20.875 31.32C27.9869 32.6844 73.1133 41.508 75.9043 43.0002C77.7245 43.9704 80.0433 49.0896 81.7094 52.6266C82.3826 54.063 82.9531 54.6678 83.5691 54.9846Z" fill="black"/>
</g>
<path d="M82.6878 54.9846C83.2187 55.2582 85.3073 55.3968 85.6651 54.8442C86.2048 54.0072 79.6679 42.3432 75.8003 40.2768C72.1806 38.3598 21.9663 26.46 20.9133 26.2656L19.9937 31.32C27.1055 32.6844 72.2319 41.508 75.023 43.0002C76.8431 43.9704 79.1619 49.0896 80.828 52.6266C81.5012 54.063 82.0718 54.6678 82.6878 54.9846Z" fill="#006466"/>
<g opacity="0.1">
<path d="M82.6878 54.9846C83.2187 55.2582 85.3073 55.3968 85.6651 54.8442C86.2048 54.0072 79.6679 42.3432 75.8003 40.2768C72.1806 38.3598 21.9663 26.46 20.9133 26.2656L19.9937 31.32C27.1055 32.6844 72.2319 41.508 75.023 43.0002C76.8431 43.9704 79.1619 49.0896 80.828 52.6266C81.5012 54.063 82.0718 54.6678 82.6878 54.9846Z" fill="black"/>
</g>
<g opacity="0.1">
<path d="M30.8 28.5984L26.9368 32.6754C23.7234 32.0454 21.2579 31.5684 19.9966 31.3254L20.9147 26.2656C21.2007 26.3196 25.1416 27.2466 30.8 28.5984Z" fill="black"/>
<path d="M40.6796 35.4042L38.2801 34.92L36.0508 29.8584L39.584 30.7152L40.6796 35.4042Z" fill="black"/>
<path d="M54.1934 34.3189L51.48 37.6003L49.0703 37.1035L50.9975 33.5197C52.0682 33.7849 53.1335 34.0513 54.1934 34.3189Z" fill="black"/>
<path d="M75.4688 40.1274L74.5346 42.8076C74.0858 42.6528 73.4096 42.4584 72.5399 42.2334L71.8667 38.9664C73.5592 39.456 74.8088 39.8538 75.4688 40.1274Z" fill="black"/>
</g>
<path d="M30.6153 57.6324C25.2972 57.3174 21.2506 49.9248 21.5938 41.1552C21.7566 36.9702 22.8845 33.0786 24.7677 30.1968C26.714 27.2196 29.2264 25.6572 31.8664 25.821C34.5064 25.9848 36.8853 27.8208 38.5881 31.0158C40.2381 34.101 41.0565 38.1096 40.8908 42.2982C40.5652 50.5962 36.4204 57.2022 31.4674 57.6216C31.1838 57.645 30.8993 57.6487 30.6153 57.6324ZM26.1214 31.5324C24.4656 34.0614 23.4668 37.5174 23.3201 41.2596C23.0268 48.8556 26.3312 55.2474 30.696 55.5048C35.0608 55.7622 38.855 49.7916 39.1557 42.1848C39.3024 38.4426 38.5822 34.8876 37.1346 32.1714C35.7398 29.5632 33.8376 28.0602 31.7784 27.9396C31.5591 27.9234 31.3392 27.9234 31.1198 27.9396C29.2953 28.1106 27.5412 29.358 26.1214 31.5288V31.5324ZM21.6012 42.2694C21.3328 35.8542 21.918 34.8498 21.6804 32.958C21.5674 32.058 20.5349 31.194 20.5349 31.194L21.4369 26.5878C21.4369 26.5878 24.2485 26.9244 24.8968 26.937C26.0496 26.9568 28.5385 25.9236 30.7062 25.857C30.7062 25.857 25.9938 28.4562 24.4788 31.77C22.9637 35.0838 21.6012 42.2658 21.6012 42.2658V42.2694Z" fill="#006466"/>
<path opacity="0.1" d="M30.6153 57.6324C25.2972 57.3174 21.2506 49.9248 21.5938 41.1552C21.7566 36.9702 22.8845 33.0786 24.7677 30.1968C26.714 27.2196 29.2264 25.6572 31.8664 25.821C34.5064 25.9848 36.8853 27.8208 38.5881 31.0158C40.2381 34.101 41.0565 38.1096 40.8908 42.2982C40.5652 50.5962 36.4204 57.2022 31.4674 57.6216C31.1838 57.645 30.8993 57.6487 30.6153 57.6324ZM26.1214 31.5324C24.4656 34.0614 23.4668 37.5174 23.3201 41.2596C23.0268 48.8556 26.3312 55.2474 30.696 55.5048C35.0608 55.7622 38.855 49.7916 39.1557 42.1848C39.3024 38.4426 38.5822 34.8876 37.1346 32.1714C35.7398 29.5632 33.8376 28.0602 31.7784 27.9396C31.5591 27.9234 31.3392 27.9234 31.1198 27.9396C29.2953 28.1106 27.5412 29.358 26.1214 31.5288V31.5324ZM21.6012 42.2694C21.3328 35.8542 21.918 34.8498 21.6804 32.958C21.5674 32.058 20.5349 31.194 20.5349 31.194L21.4369 26.5878C21.4369 26.5878 24.2485 26.9244 24.8968 26.937C26.0496 26.9568 28.5385 25.9236 30.7062 25.857C30.7062 25.857 25.9938 28.4562 24.4788 31.77C22.9637 35.0838 21.6012 42.2658 21.6012 42.2658V42.2694Z" fill="black"/>
<path d="M29.8922 57.6324C24.5726 57.3174 20.526 49.9248 20.8692 41.1552C21.032 36.9702 22.1599 33.0786 24.0431 30.1968C25.9894 27.2196 28.5018 25.6572 31.1418 25.821C33.7818 25.9848 36.1607 27.8208 37.8635 31.0158C39.5135 34.101 40.3319 38.1096 40.1662 42.2982C39.8406 50.5962 35.6958 57.2022 30.7428 57.6216C30.4597 57.645 30.1757 57.6486 29.8922 57.6324ZM25.3968 31.5324C23.741 34.065 22.748 37.521 22.6014 41.2632C22.308 48.8592 25.611 55.251 29.9758 55.5084C34.3406 55.7658 38.1348 49.7952 38.4355 42.1884C38.5822 38.4462 37.862 34.8912 36.4144 32.175C35.0211 29.5668 33.1174 28.0638 31.0582 27.9432C30.8389 27.927 30.6189 27.927 30.3996 27.9432C28.5722 28.1106 26.8166 29.358 25.3968 31.5288V31.5324ZM20.8766 42.2694C20.6082 35.8542 21.1934 34.8498 20.9558 32.958C20.8428 32.058 19.8103 31.194 19.8103 31.194L20.7534 26.0604C20.7534 26.0604 23.6119 26.6814 24.2587 26.6922C25.4115 26.7138 27.8139 25.9236 29.9787 25.8642C29.9787 25.8642 25.2663 28.4634 23.7512 31.7772C22.2362 35.091 20.8766 42.2658 20.8766 42.2658V42.2694Z" fill="#006466"/>
<path d="M23.5722 28.4094C23.5385 28.728 23.0559 28.9116 22.4942 28.8198C21.9325 28.728 21.5071 28.395 21.5423 28.0782C21.5775 27.7614 22.0586 27.576 22.6203 27.6678C23.1821 27.7596 23.6133 28.0908 23.5722 28.4094Z" fill="#A6A6A6"/>
<path d="M21.7888 28.0891C21.8343 27.9361 22.3227 27.7633 22.8566 27.9397L21.7888 28.0891Z" fill="white"/>
<path d="M20.5335 31.2355C21.5484 31.9339 21.9825 32.9635 21.8681 34.3891C21.7552 36.8623 21.5279 39.3121 21.5249 41.7853C21.5111 43.0196 21.5758 44.2533 21.7185 45.4753C21.0688 42.4621 21.2624 39.2851 21.4912 36.2161L21.6379 34.3729C21.7963 32.9941 21.4413 32.0509 20.5305 31.2355H20.5335Z" fill="white"/>
<path d="M25.834 26.9892C27.242 26.496 28.7043 26.0892 30.1768 26.1702C28.7101 26.3304 27.286 26.7336 25.834 26.9892Z" fill="white"/>
<path opacity="0.1" d="M25.8324 31.6602C24.2323 34.1802 23.2731 37.6146 23.1294 41.337C22.8434 48.897 26.0407 55.2474 30.2588 55.5048C34.477 55.7622 38.1451 49.8222 38.4355 42.2658C38.5822 38.5452 37.8826 35.0082 36.4834 32.3082C35.1355 29.7126 33.2963 28.2186 31.3046 28.098C31.0926 28.0818 30.88 28.0818 30.668 28.098C28.9007 28.26 27.2052 29.4984 25.8324 31.6602Z" fill="#EBEBEB"/>
<g opacity="0.2">
<path d="M33.927 29.1132L23.1177 42.7626C23.1074 42.291 23.1177 41.8176 23.1309 41.3352C23.1821 39.9269 23.3581 38.5297 23.656 37.1682L30.8426 28.098C30.9893 28.098 31.1521 28.098 31.3076 28.098C32.2361 28.1629 33.1366 28.5119 33.927 29.1132Z" fill="white"/>
<path d="M37.6934 35.46L25.105 51.3558C24.8735 50.9151 24.6639 50.4577 24.4773 49.986L37.1948 33.9264C37.3845 34.4256 37.551 34.9376 37.6934 35.46Z" fill="white"/>
<path d="M38.1832 44.9568C38.0295 45.9822 37.8047 46.9897 37.5115 47.9682L31.6521 55.3662C31.1947 55.4873 30.7262 55.5339 30.2588 55.5048C30.1268 55.4958 29.9948 55.4832 29.8643 55.4616L38.1832 44.9568Z" fill="white"/>
<path d="M38.2068 37.9062L26.2021 53.064C26.1449 52.9956 26.0906 52.9236 26.0378 52.8498L38.151 37.5498C38.173 37.6686 38.1892 37.7892 38.2068 37.9062Z" fill="white"/>
</g>
<path d="M47.1856 42.6906L48.3589 41.1264C46.4728 38.9844 42.0332 35.9928 38.7068 39.9618L39.9153 41.4882C42.8956 37.926 47.0111 42.4962 47.1856 42.6906Z" fill="#006466"/>
<path d="M58.4114 59.58C55.0254 58.8171 52.0247 56.4361 50.0681 52.9599C48.1115 49.4837 47.359 45.1966 47.9761 41.04C48.4382 37.9406 49.6388 35.079 51.4261 32.817C53.2134 30.555 55.507 28.9942 58.017 28.3319C60.5271 27.6697 63.1407 27.9358 65.5276 29.0965C67.9144 30.2572 69.9672 32.2604 71.4264 34.8529C72.8856 37.4454 73.6856 40.5107 73.7254 43.6612C73.7651 46.8117 73.0428 49.9059 71.6497 52.5526C70.2567 55.1993 68.2554 57.2796 65.899 58.5304C63.5426 59.7813 60.9369 60.1466 58.4114 59.58ZM49.6833 41.4288C49.2655 44.2537 49.577 47.1681 50.5743 49.7652C51.5716 52.3622 53.205 54.5121 55.2462 55.9146C57.2874 57.3171 59.6346 57.9022 61.9599 57.5881C64.2852 57.2741 66.4725 56.0765 68.2163 54.1628C69.9602 52.2491 71.1734 49.7147 71.6867 46.9137C72.2 44.1126 71.9876 41.1848 71.0793 38.539C70.1709 35.8933 68.6119 33.6618 66.6201 32.1562C64.6282 30.6506 62.3029 29.9461 59.969 30.141C57.4769 30.3548 55.1136 31.58 53.2514 33.6237C51.3892 35.6673 50.1339 38.4132 49.6833 41.4288Z" fill="#006466"/>
<path d="M72.3066 37.1016C71.4134 33.462 66.2112 29.4606 66.2112 29.4606C68.3173 30.096 70.6405 31.3884 71.7698 31.6764C72.4034 31.8366 76.2461 32.319 76.2461 32.319L76.2608 38.7846C76.2608 38.7846 75.2048 38.8566 74.9408 39.7044C74.3746 41.4882 74.6606 41.9202 73.2644 48.1086C73.2512 48.1086 73.1866 40.7394 72.3066 37.1016Z" fill="#006466"/>
<g opacity="0.1">
<path d="M58.4114 59.58C55.0254 58.8171 52.0247 56.4361 50.0681 52.9599C48.1115 49.4837 47.359 45.1966 47.9761 41.04C48.4382 37.9406 49.6388 35.079 51.4261 32.817C53.2134 30.555 55.507 28.9942 58.017 28.3319C60.5271 27.6697 63.1407 27.9358 65.5276 29.0965C67.9144 30.2572 69.9672 32.2604 71.4264 34.8529C72.8856 37.4454 73.6856 40.5107 73.7254 43.6612C73.7651 46.8117 73.0428 49.9059 71.6497 52.5526C70.2567 55.1993 68.2554 57.2796 65.899 58.5304C63.5426 59.7813 60.9369 60.1466 58.4114 59.58ZM49.6833 41.4288C49.2655 44.2537 49.577 47.1681 50.5743 49.7652C51.5716 52.3622 53.205 54.5121 55.2462 55.9146C57.2874 57.3171 59.6346 57.9022 61.9599 57.5881C64.2852 57.2741 66.4725 56.0765 68.2163 54.1628C69.9602 52.2491 71.1734 49.7147 71.6867 46.9137C72.2 44.1126 71.9876 41.1848 71.0793 38.539C70.1709 35.8933 68.6119 33.6618 66.6201 32.1562C64.6282 30.6506 62.3029 29.9461 59.969 30.141C57.4769 30.3548 55.1136 31.58 53.2514 33.6237C51.3892 35.6673 50.1339 38.4132 49.6833 41.4288Z" fill="black"/>
<path d="M72.3066 37.1017C71.4134 33.4621 66.2112 29.4607 66.2112 29.4607C68.3173 30.0961 70.6405 31.3885 71.7698 31.6765C72.4034 31.8367 76.2461 32.3191 76.2461 32.3191L76.2608 38.7847C76.2608 38.7847 75.2048 38.8567 74.9408 39.7045C74.3746 41.4883 74.6606 41.9203 73.2644 48.1087C73.2512 48.1087 73.1866 40.7395 72.3066 37.1017Z" fill="black"/>
</g>
<path d="M57.2572 59.3478C53.874 58.5847 50.8755 56.2061 48.9192 52.7336C46.963 49.261 46.2087 44.9781 46.8219 40.824C47.281 37.7212 48.4799 34.8552 50.2667 32.5888C52.0535 30.3224 54.348 28.7575 56.8597 28.092C59.3715 27.4266 61.9876 27.6905 64.3771 28.8505C66.7666 30.0104 68.822 32.0142 70.2832 34.6083C71.7445 37.2024 72.5458 40.2702 72.5859 43.4234C72.626 46.5767 71.9031 49.6736 70.5085 52.3224C69.1139 54.9712 67.1105 57.0528 64.7517 58.3037C62.3928 59.5546 59.7847 59.9186 57.2572 59.3496V59.3478ZM48.5291 41.2056C48.1094 44.0327 48.4199 46.9501 49.4172 49.5501C50.4144 52.15 52.0485 54.3027 54.0912 55.7073C56.1339 57.1119 58.4831 57.6982 60.8106 57.3843C63.138 57.0704 65.3275 55.872 67.0729 53.9566C68.8183 52.0411 70.0326 49.5043 70.546 46.7006C71.0594 43.8969 70.8463 40.9665 69.9365 38.3187C69.0266 35.6709 67.4655 33.438 65.4713 31.9322C63.477 30.4264 61.1493 29.7227 58.8133 29.9196C56.3217 30.1337 53.959 31.3588 52.0971 33.4021C50.2352 35.4454 48.9799 38.1906 48.5291 41.2056Z" fill="#006466"/>
<path d="M71.145 36.8784C70.2518 33.2388 65.0496 29.2374 65.0496 29.2374C67.1557 29.8728 69.4789 31.1652 70.6082 31.4532C71.2418 31.6134 75.0845 32.0958 75.0845 32.0958L75.0992 38.016C75.0992 38.016 74.0432 38.4084 73.7792 39.2544C73.2116 41.0382 73.4976 41.697 72.1013 47.8944C72.0969 47.88 72.0382 40.5162 71.145 36.8784Z" fill="#006466"/>
<path d="M73.4389 34.7544C73.4037 35.073 72.9211 35.2566 72.3609 35.1648C71.8006 35.073 71.3723 34.7418 71.4075 34.4232C71.4427 34.1046 71.9253 33.921 72.4855 34.0128C73.0458 34.1046 73.4799 34.4376 73.4389 34.7544Z" fill="#A6A6A6"/>
<path d="M71.6541 34.4358C71.6995 34.2828 72.1879 34.1082 72.7218 34.2864L71.6541 34.4358Z" fill="white"/>
<path d="M53.655 30.3967C54.7671 29.3572 56.1292 28.8006 57.527 28.8145C56.207 29.2897 54.9369 29.8045 53.655 30.3967Z" fill="white"/>
<path d="M48.1624 38.34C48.8194 35.1198 51.0136 32.013 53.4292 30.564C51.1676 32.544 49.2712 35.2008 48.1624 38.34Z" fill="white"/>
<path opacity="0.1" d="M49.0645 41.2056C47.9791 48.6882 51.9362 55.8882 57.8879 57.2544C63.8397 58.6206 69.5626 53.6418 70.6479 46.161C71.7333 38.6802 67.7747 31.4766 61.823 30.1122C60.928 29.9055 60.0151 29.8407 59.1067 29.9196C54.2183 30.3426 49.9826 34.8786 49.0645 41.2056Z" fill="#EBEBEB"/>
<g opacity="0.2">
<path d="M70.8164 44.3197L60.3606 57.4597C59.5324 57.5065 58.7026 57.4352 57.8878 57.2473C57.5351 57.167 57.186 57.0643 56.842 56.9395L70.3999 39.8953C70.7312 41.3331 70.8719 42.827 70.8164 44.3197Z" fill="white"/>
<path d="M61.2627 30.0024L48.9764 45.4536C48.831 44.0403 48.8607 42.6081 49.0644 41.2056C49.1143 40.8564 49.1773 40.509 49.2477 40.1688L57.0533 30.3462C57.7248 30.1221 58.4125 29.9792 59.1067 29.9196C59.8257 29.8561 60.5482 29.8839 61.2627 30.0024Z" fill="white"/>
<path d="M69.0345 36.1422L53.856 55.2222C53.5093 54.9391 53.1767 54.6307 52.8601 54.2988L68.3026 34.8894C68.5662 35.2892 68.8106 35.7075 69.0345 36.1422Z" fill="white"/>
<path d="M64.2854 31.0591L49.8211 49.2391C49.6394 48.7221 49.4836 48.1919 49.3547 47.6515L63.0226 30.4651C63.4532 30.6307 63.8749 30.8291 64.2854 31.0591Z" fill="white"/>
<path d="M70.6757 45.9702C70.6684 46.0332 70.6581 46.098 70.6493 46.161C70.6347 46.2726 70.6171 46.3842 70.598 46.4922L62.0913 57.1914C61.9549 57.2274 61.8156 57.2598 61.6748 57.2886L70.6757 45.9702Z" fill="white"/>
<path d="M67.4389 33.7195L51.9333 53.2171C51.8776 53.1451 51.8233 53.0713 51.7705 52.9974L67.2658 33.5125L67.4389 33.7195Z" fill="white"/>
</g>
</svg>
