<svg width="110" height="100" viewBox="0 0 110 100" fill="none" xmlns="http://www.w3.org/2000/svg">
<path d="M102.53 8.94541L79.7181 2.20656C75.5928 0.98791 71.1838 3.10301 69.8704 6.93077L44.9645 79.5166C43.6511 83.3444 45.9306 87.4353 50.056 88.654L72.8682 95.3928C76.9936 96.6115 81.4025 94.4964 82.7159 90.6686L107.622 18.0827C108.935 14.255 106.656 10.1641 102.53 8.94541Z" fill="black"/>
<path opacity="0.8" d="M107.98 16.1329C107.966 16.8084 107.845 17.4782 107.621 18.1209L82.7181 90.7373C82.6331 90.9839 82.5347 91.2262 82.423 91.4635C81.6458 93.1067 80.2403 94.4247 78.4777 95.1633C76.7151 95.9019 74.7201 96.0088 72.8776 95.4633L50.0533 88.7255C48.1075 88.1467 46.4822 86.8858 45.5236 85.2114C44.565 83.537 44.3489 81.5815 44.9213 79.7615L59.2908 37.894L69.8241 6.93089C70.1323 6.0181 70.6314 5.17068 71.2931 4.43715C71.9547 3.70361 72.7657 3.09836 73.6798 2.65606C74.5939 2.21375 75.593 1.94308 76.6199 1.85953C77.6469 1.77598 78.6815 1.8812 79.6646 2.16916L102.54 8.99033C103.04 9.13832 103.521 9.3338 103.977 9.57365C105.229 10.2203 106.265 11.1745 106.972 12.3316C107.678 13.4887 108.027 14.8039 107.98 16.1329Z" fill="white"/>
<g opacity="0.6">
<path opacity="0.5" d="M52.7866 56.7385L63.1403 26.5849L92.4565 5.96661L104.003 9.53791C105.258 10.1855 106.295 11.1416 107.001 12.301C107.707 13.4604 108.055 14.7781 108.006 16.1091L52.7866 56.7385Z" fill="white"/>
</g>
<path opacity="0.5" d="M67.2588 14.4663L69.8248 6.93089C70.1329 6.0181 70.6321 5.17068 71.2937 4.43715C71.9554 3.70361 72.7664 3.09836 73.6805 2.65606C74.5945 2.21375 75.5937 1.94308 76.6206 1.85953C77.6476 1.77598 78.6822 1.8812 79.6653 2.16916L83.0908 3.18102L67.2588 14.4663Z" fill="white"/>
<path d="M83.001 14.1687C82.8208 14.6936 82.4768 15.1572 82.0127 15.5008C81.5486 15.8444 80.9851 16.0525 80.3934 16.099C79.8018 16.1454 79.2086 16.028 78.6889 15.7617C78.1692 15.4953 77.7462 15.092 77.4735 14.6026C77.2008 14.1132 77.0907 13.5598 77.1569 13.0123C77.2232 12.4649 77.463 11.9479 77.8459 11.5269C78.2288 11.1058 78.7376 10.7996 79.3081 10.6468C79.8786 10.4941 80.485 10.5018 81.0508 10.6688C81.4275 10.7784 81.7771 10.9562 82.0794 11.1918C82.3817 11.4274 82.6307 11.7163 82.812 12.0417C82.9933 12.3671 83.1033 12.7226 83.1358 13.0876C83.1682 13.4527 83.1224 13.8202 83.001 14.1687Z" fill="#006466"/>
<path d="M77.2787 30.8109C77.0984 31.3333 76.7553 31.7944 76.2927 32.1358C75.83 32.4773 75.2687 32.6838 74.6795 32.7293C74.0904 32.7748 73.5 32.6571 72.9829 32.3913C72.4658 32.1255 72.0453 31.7233 71.7745 31.2358C71.5037 30.7482 71.3948 30.1971 71.4615 29.6521C71.5282 29.1071 71.7676 28.5926 72.1493 28.1738C72.5311 27.7551 73.0381 27.4507 73.6063 27.2992C74.1745 27.1478 74.7783 27.156 75.3414 27.3229C75.7155 27.4338 76.0624 27.612 76.3623 27.8474C76.6621 28.0827 76.9091 28.3706 77.089 28.6945C77.2689 29.0184 77.3782 29.372 77.4108 29.7352C77.4434 30.0983 77.3985 30.4639 77.2787 30.8109Z" fill="#006466"/>
<path d="M71.5696 47.4651C71.3915 47.9913 71.049 48.4566 70.5856 48.802C70.1222 49.1475 69.5587 49.3575 68.9666 49.4055C68.3744 49.4535 67.7802 49.3373 67.2592 49.0716C66.7383 48.806 66.3141 48.4028 66.0404 47.9132C65.7666 47.4236 65.6557 46.8697 65.7216 46.3215C65.7876 45.7734 66.0274 45.2557 66.4107 44.8342C66.794 44.4126 67.3036 44.1061 67.8748 43.9536C68.446 43.801 69.0532 43.8092 69.6194 43.9771C69.9947 44.0868 70.3429 44.2641 70.6442 44.4989C70.9454 44.7337 71.1938 45.0214 71.375 45.3454C71.5561 45.6695 71.6666 46.0235 71.7 46.3873C71.7334 46.751 71.6891 47.1173 71.5696 47.4651Z" fill="#006466"/>
<path d="M65.8598 64.1192C65.6796 64.6441 65.3357 65.1077 64.8716 65.4513C64.4075 65.7949 63.844 66.003 63.2523 66.0495C62.6607 66.0959 62.0675 65.9785 61.5478 65.7122C61.028 65.4458 60.6051 65.0425 60.3324 64.5531C60.0597 64.0637 59.9496 63.5103 60.0158 62.9628C60.0821 62.4154 60.3219 61.8984 60.7048 61.4774C61.0877 61.0563 61.5965 60.7501 62.167 60.5973C62.7374 60.4446 63.3439 60.4523 63.9097 60.6193C64.2864 60.7289 64.636 60.9067 64.9383 61.1423C65.2406 61.3779 65.4896 61.6668 65.6709 61.9922C65.8522 62.3176 65.9622 62.6731 65.9947 63.0381C66.0271 63.4032 65.9813 63.7707 65.8598 64.1192Z" fill="#006466"/>
<path d="M60.1502 80.7615C59.9721 81.2877 59.6296 81.753 59.1662 82.0984C58.7028 82.4439 58.1393 82.6539 57.5471 82.7019C56.955 82.7499 56.3608 82.6337 55.8398 82.368C55.3189 82.1024 54.8947 81.6992 54.621 81.2096C54.3472 80.72 54.2363 80.166 54.3022 79.6179C54.3681 79.0697 54.608 78.5521 54.9913 78.1306C55.3746 77.709 55.8842 77.4025 56.4554 77.2499C57.0266 77.0974 57.6338 77.1056 58.2 77.2735C58.9539 77.5004 59.5812 77.9936 59.9462 78.6463C60.3111 79.2991 60.3844 80.0589 60.1502 80.7615Z" fill="#006466"/>
<path d="M97.4216 18.4304C97.1448 19.0913 96.6068 19.6293 95.9173 19.9349C95.2278 20.2405 94.4386 20.2907 93.7106 20.0751C92.9827 19.8596 92.3706 19.3946 91.9993 18.7749C91.628 18.1552 91.5254 17.4275 91.7123 16.74C91.8125 16.3712 91.9931 16.0255 92.2429 15.7239C92.4926 15.4224 92.8063 15.1715 93.1645 14.9867C93.5227 14.8019 93.9179 14.6871 94.3258 14.6495C94.7336 14.6118 95.1455 14.652 95.536 14.7676C95.9264 14.8832 96.2872 15.0718 96.5962 15.3217C96.9051 15.5716 97.1556 15.8775 97.3323 16.2207C97.509 16.5639 97.608 16.937 97.6234 17.317C97.6387 17.697 97.57 18.0759 97.4216 18.4304Z" fill="#006466"/>
<path d="M91.7125 35.0727C91.5331 35.595 91.1909 36.0562 90.7291 36.3982C90.2674 36.7401 89.7068 36.9475 89.1181 36.994C88.5294 37.0405 87.9391 36.9242 87.4217 36.6596C86.9042 36.3951 86.4829 35.9942 86.2108 35.5076C85.9387 35.021 85.8282 34.4705 85.8931 33.9256C85.958 33.3808 86.1954 32.866 86.5754 32.4462C86.9554 32.0265 87.461 31.7207 88.0282 31.5673C88.5954 31.414 89.1989 31.42 89.7624 31.5847C90.5183 31.8089 91.1477 32.3017 91.5132 32.9553C91.8786 33.6089 91.9503 34.3702 91.7125 35.0727Z" fill="#006466"/>
<path d="M86.0032 51.7269C85.8251 52.2531 85.4826 52.7184 85.0192 53.0638C84.5558 53.4093 83.9923 53.6193 83.4002 53.6673C82.808 53.7153 82.2138 53.5991 81.6928 53.3334C81.1719 53.0678 80.7477 52.6646 80.474 52.175C80.2002 51.6854 80.0893 51.1314 80.1552 50.5833C80.2212 50.0351 80.461 49.5175 80.8443 49.096C81.2276 48.6744 81.7372 48.3679 82.3084 48.2153C82.8796 48.0628 83.4868 48.071 84.053 48.2389C84.8069 48.4658 85.4342 48.9589 85.7992 49.6117C86.1642 50.2645 86.2374 51.0243 86.0032 51.7269Z" fill="#006466"/>
<path d="M80.2805 68.381C80.0037 69.0418 79.4657 69.5799 78.7762 69.8855C78.0866 70.1911 77.2975 70.2412 76.5695 70.0257C75.8415 69.8102 75.2295 69.3452 74.8582 68.7255C74.4869 68.1058 74.3843 67.3781 74.5712 66.6906C74.6714 66.3218 74.852 65.976 75.1017 65.6745C75.3515 65.3729 75.6652 65.1221 76.0234 64.9373C76.3816 64.7525 76.7768 64.6377 77.1847 64.6C77.5925 64.5623 78.0044 64.6025 78.3948 64.7181C78.7853 64.8337 79.1461 65.0223 79.4551 65.2722C79.764 65.5222 80.0145 65.8281 80.1912 66.1713C80.3678 66.5144 80.4669 66.8875 80.4823 67.2676C80.4976 67.6476 80.4289 68.0265 80.2805 68.381Z" fill="#006466"/>
<path d="M74.5714 85.0232C74.392 85.5455 74.0498 86.0068 73.588 86.3487C73.1263 86.6907 72.5657 86.898 71.977 86.9446C71.3883 86.9911 70.798 86.8747 70.2806 86.6102C69.7631 86.3456 69.3418 85.9448 69.0697 85.4582C68.7976 84.9716 68.6871 84.4211 68.752 83.8762C68.8169 83.3313 69.0543 82.8165 69.4343 82.3968C69.8143 81.9771 70.3198 81.6712 70.8871 81.5179C71.4543 81.3645 72.0577 81.3706 72.6213 81.5353C73.3771 81.7595 74.0066 82.2523 74.3721 82.9059C74.7375 83.5595 74.8092 84.3207 74.5714 85.0232Z" fill="#006466"/>
<g opacity="0.4">
<path d="M83 14.1687C82.8198 14.6936 82.4759 15.1572 82.0117 15.5008C81.5476 15.8444 80.9841 16.0525 80.3925 16.099C79.8008 16.1454 79.2077 16.028 78.6879 15.7617C78.1682 15.4953 77.7452 15.092 77.4725 14.6026C77.1999 14.1132 77.0897 13.5598 77.156 13.0123C77.2222 12.4649 77.462 11.9479 77.8449 11.5269C78.2278 11.1058 78.7366 10.7996 79.3071 10.6468C79.8776 10.4941 80.4841 10.5018 81.0498 10.6688C81.4266 10.7784 81.7761 10.9562 82.0784 11.1918C82.3807 11.4274 82.6297 11.7163 82.811 12.0417C82.9923 12.3671 83.1024 12.7226 83.1348 13.0876C83.1672 13.4527 83.1214 13.8202 83 14.1687Z" fill="white"/>
<path d="M77.2777 30.8109C77.0975 31.3333 76.7543 31.7944 76.2917 32.1358C75.8291 32.4773 75.2677 32.6838 74.6786 32.7293C74.0894 32.7748 73.499 32.6571 72.9819 32.3913C72.4649 32.1255 72.0443 31.7233 71.7735 31.2358C71.5027 30.7482 71.3938 30.1971 71.4605 29.6521C71.5272 29.1071 71.7666 28.5926 72.1484 28.1738C72.5301 27.7551 73.0372 27.4507 73.6053 27.2992C74.1735 27.1478 74.7773 27.156 75.3404 27.3229C75.7145 27.4338 76.0614 27.612 76.3613 27.8474C76.6611 28.0827 76.9081 28.3706 77.088 28.6945C77.2679 29.0184 77.3773 29.372 77.4098 29.7352C77.4424 30.0983 77.3975 30.4639 77.2777 30.8109Z" fill="white"/>
<path d="M71.5696 47.4651C71.3915 47.9913 71.049 48.4566 70.5856 48.802C70.1222 49.1475 69.5587 49.3575 68.9666 49.4055C68.3744 49.4535 67.7802 49.3373 67.2592 49.0716C66.7383 48.806 66.3141 48.4028 66.0404 47.9132C65.7666 47.4236 65.6557 46.8697 65.7216 46.3215C65.7876 45.7734 66.0274 45.2557 66.4107 44.8342C66.794 44.4126 67.3036 44.1061 67.8748 43.9536C68.446 43.801 69.0532 43.8092 69.6194 43.9771C69.9947 44.0868 70.3429 44.2641 70.6442 44.4989C70.9454 44.7337 71.1938 45.0214 71.375 45.3454C71.5561 45.6695 71.6666 46.0235 71.7 46.3873C71.7334 46.751 71.6891 47.1173 71.5696 47.4651Z" fill="white"/>
<path d="M65.8598 64.1192C65.6796 64.6441 65.3357 65.1077 64.8716 65.4513C64.4075 65.7949 63.844 66.003 63.2523 66.0495C62.6607 66.0959 62.0675 65.9785 61.5478 65.7122C61.028 65.4458 60.6051 65.0425 60.3324 64.5531C60.0597 64.0637 59.9496 63.5103 60.0158 62.9628C60.0821 62.4154 60.3219 61.8984 60.7048 61.4774C61.0877 61.0563 61.5965 60.7501 62.167 60.5973C62.7374 60.4446 63.3439 60.4523 63.9097 60.6193C64.2864 60.7289 64.636 60.9067 64.9383 61.1423C65.2406 61.3779 65.4896 61.6668 65.6709 61.9922C65.8522 62.3176 65.9622 62.6731 65.9947 63.0381C66.0271 63.4032 65.9813 63.7707 65.8598 64.1192Z" fill="white"/>
<path d="M60.1502 80.7615C59.9721 81.2877 59.6296 81.753 59.1662 82.0984C58.7028 82.4439 58.1393 82.6539 57.5471 82.7019C56.955 82.7499 56.3608 82.6337 55.8398 82.368C55.3189 82.1024 54.8947 81.6992 54.621 81.2096C54.3472 80.72 54.2363 80.166 54.3022 79.6179C54.3681 79.0697 54.608 78.5521 54.9913 78.1306C55.3746 77.709 55.8842 77.4025 56.4554 77.2499C57.0266 77.0974 57.6338 77.1056 58.2 77.2735C58.9539 77.5004 59.5812 77.9936 59.9462 78.6463C60.3111 79.2991 60.3844 80.0589 60.1502 80.7615Z" fill="white"/>
</g>
<g opacity="0.4">
<path d="M97.4216 18.4304C97.1448 19.0913 96.6068 19.6293 95.9173 19.9349C95.2278 20.2405 94.4386 20.2907 93.7106 20.0751C92.9827 19.8596 92.3706 19.3946 91.9993 18.7749C91.628 18.1552 91.5254 17.4275 91.7123 16.74C91.8125 16.3712 91.9931 16.0255 92.2429 15.7239C92.4926 15.4224 92.8063 15.1715 93.1645 14.9867C93.5227 14.8019 93.9179 14.6871 94.3258 14.6495C94.7336 14.6118 95.1455 14.652 95.536 14.7676C95.9264 14.8832 96.2872 15.0718 96.5962 15.3217C96.9051 15.5716 97.1556 15.8775 97.3323 16.2207C97.509 16.5639 97.608 16.937 97.6234 17.317C97.6387 17.697 97.57 18.0759 97.4216 18.4304Z" fill="white"/>
<path d="M91.7125 35.0726C91.5331 35.5949 91.1909 36.0562 90.7291 36.3981C90.2674 36.7401 89.7068 36.9474 89.1181 36.9939C88.5294 37.0405 87.9391 36.9241 87.4217 36.6596C86.9042 36.395 86.4829 35.9941 86.2108 35.5075C85.9387 35.0209 85.8282 34.4704 85.8931 33.9256C85.958 33.3807 86.1954 32.8659 86.5754 32.4462C86.9554 32.0264 87.461 31.7206 88.0282 31.5673C88.5954 31.4139 89.1989 31.42 89.7624 31.5847C90.5183 31.8089 91.1477 32.3016 91.5132 32.9552C91.8786 33.6088 91.9503 34.3701 91.7125 35.0726Z" fill="white"/>
<path d="M86.0032 51.7268C85.8251 52.253 85.4826 52.7183 85.0192 53.0638C84.5558 53.4092 83.9923 53.6192 83.4002 53.6672C82.808 53.7152 82.2138 53.599 81.6928 53.3334C81.1719 53.0677 80.7477 52.6645 80.474 52.1749C80.2002 51.6853 80.0893 51.1314 80.1552 50.5832C80.2212 50.0351 80.461 49.5174 80.8443 49.0959C81.2276 48.6743 81.7372 48.3679 82.3084 48.2153C82.8796 48.0627 83.4868 48.0709 84.053 48.2388C84.8069 48.4657 85.4342 48.9589 85.7992 49.6117C86.1642 50.2644 86.2374 51.0243 86.0032 51.7268Z" fill="white"/>
<path d="M80.2805 68.3809C80.0037 69.0418 79.4657 69.5798 78.7762 69.8854C78.0866 70.191 77.2975 70.2412 76.5695 70.0256C75.8415 69.8101 75.2295 69.3451 74.8582 68.7254C74.4869 68.1057 74.3843 67.378 74.5712 66.6905C74.6714 66.3218 74.852 65.976 75.1017 65.6744C75.3515 65.3729 75.6652 65.122 76.0234 64.9372C76.3816 64.7524 76.7768 64.6376 77.1847 64.6C77.5925 64.5623 78.0044 64.6025 78.3948 64.7181C78.7853 64.8337 79.1461 65.0223 79.4551 65.2722C79.764 65.5221 80.0145 65.8281 80.1912 66.1712C80.3678 66.5144 80.4669 66.8875 80.4823 67.2675C80.4976 67.6475 80.4289 68.0265 80.2805 68.3809Z" fill="white"/>
<path d="M74.5714 85.0232C74.392 85.5455 74.0498 86.0067 73.588 86.3487C73.1263 86.6906 72.5657 86.898 71.977 86.9445C71.3883 86.991 70.798 86.8747 70.2806 86.6101C69.7631 86.3456 69.3418 85.9447 69.0697 85.4581C68.7976 84.9715 68.6871 84.421 68.752 83.8761C68.8169 83.3313 69.0543 82.8165 69.4343 82.3967C69.8143 81.977 70.3198 81.6712 70.8871 81.5178C71.4543 81.3645 72.0577 81.3705 72.6213 81.5352C73.3771 81.7594 74.0066 82.2522 74.3721 82.9058C74.7375 83.5594 74.8092 84.3207 74.5714 85.0232Z" fill="white"/>
</g>
<path opacity="0.7" d="M59.3553 92.3206L19.942 99.8679C18.1286 100.213 16.2419 99.8762 14.6955 98.9323C13.1491 97.9883 12.0691 96.514 11.6924 94.8324L0.350841 43.8104C-0.387623 40.5227 0.0466012 37.1013 1.588 34.0626C3.12939 31.024 5.69428 28.5331 8.89551 26.9658C10.2876 26.2806 11.7781 25.7836 13.3218 25.4897L33.6828 21.597C35.8312 21.1828 38.0465 21.1661 40.2019 21.5478C42.3573 21.9294 44.4103 22.7019 46.2434 23.8211C48.0764 24.9402 49.6534 26.3839 50.8841 28.0696C52.1148 29.7552 52.9749 31.6496 53.4151 33.6442L64.7695 84.6661C64.9572 85.4986 64.9659 86.3574 64.7952 87.193C64.6245 88.0287 64.2777 88.8249 63.7747 89.536C63.2717 90.2471 62.6225 90.8591 61.8641 91.3369C61.1057 91.8148 60.2532 92.149 59.3553 92.3206Z" fill="white"/>
<path d="M53.93 35.9838L0.85498 46.1464L9.27691 84.0137L62.3519 73.8512L53.93 35.9838Z" fill="#006466"/>
<path opacity="0.4" d="M53.93 35.9838L0.85498 46.1464L9.27691 84.0137L62.3519 73.8512L53.93 35.9838Z" fill="white"/>
<path d="M7.05108 14.4857L35.9508 8.95216C36.4178 8.86274 36.8991 8.85953 37.3674 8.94274C37.8357 9.02594 38.2818 9.19393 38.6801 9.43708C39.0785 9.68023 39.4213 9.99379 39.689 10.3599C39.9568 10.726 40.1442 11.1374 40.2405 11.5707L41.3685 16.6422L5.30664 23.5472L4.16833 18.429C4.07852 17.9944 4.08184 17.5477 4.17811 17.1144C4.27438 16.681 4.46171 16.2695 4.7294 15.9033C4.9971 15.5371 5.33992 15.2235 5.73828 14.9802C6.13663 14.737 6.58272 14.569 7.05108 14.4857Z" fill="#006466"/>
<path opacity="0.7" d="M39.8923 21.4898C37.833 21.1689 35.7275 21.2053 33.6826 21.5969L13.373 25.4897C11.8293 25.7835 10.3388 26.2806 8.94666 26.9658L8.07422 23.0255L38.9685 17.0733L39.8923 21.4898Z" fill="white"/>
<path opacity="0.3" d="M8.36998 29.7753C8.35299 29.5814 8.26994 29.3975 8.13286 29.2503C7.99578 29.1031 7.81177 29.0001 7.60746 28.9564C7.40315 28.9126 7.18912 28.9304 6.99637 29.0069C6.80362 29.0835 6.64214 29.2151 6.5353 29.3825C5.10194 31.5155 4.44528 34.0194 4.66215 36.5251C5.35496 40.8106 15.2083 87.5351 16.7222 94.6896C16.853 95.2782 17.1971 95.8076 17.6973 96.1895C18.0303 96.4357 18.4198 96.6077 18.8357 96.6923C19.2516 96.7769 19.683 96.7719 20.0965 96.6776L21.5975 96.3324L8.7677 35.2513C8.7677 35.2513 8.53676 32.3228 8.36998 29.7753Z" fill="white"/>
</svg>
