<svg width="170" height="190" viewBox="0 0 170 190" fill="none" xmlns="http://www.w3.org/2000/svg">
<path d="M170 45.1511H168.885V16.5522C168.885 14.3786 168.428 12.2262 167.54 10.218C166.652 8.20977 165.35 6.38506 163.709 4.84805C162.068 3.31103 160.12 2.0918 157.976 1.25997C155.832 0.428139 153.534 1.71425e-06 151.213 0H86.5213C84.2005 -5.14256e-06 81.9024 0.428127 79.7582 1.25995C77.6141 2.09177 75.6659 3.311 74.0248 4.84801C72.3838 6.38503 71.082 8.20973 70.1939 10.2179C69.3058 12.2261 68.8486 14.3785 68.8486 16.5522V173.448C68.8486 177.838 70.7106 182.048 74.0248 185.152C77.3391 188.256 81.8341 190 86.5212 190H151.213C155.9 190 160.395 188.256 163.709 185.152C167.023 182.048 168.885 177.838 168.885 173.448V65.5083H170L170 45.1511Z" fill="#3F3D56"/>
<path d="M151.926 4.30635H143.482C143.87 5.19807 144.018 6.16554 143.913 7.12356C143.808 8.08157 143.453 9.00072 142.88 9.80003C142.306 10.5993 141.532 11.2543 140.624 11.7071C139.717 12.16 138.704 12.3969 137.676 12.397H100.615C99.587 12.3969 98.5746 12.16 97.6671 11.7072C96.7597 11.2543 95.9851 10.5993 95.4115 9.80003C94.838 9.00072 94.4831 8.08157 94.3782 7.12356C94.2733 6.16554 94.4215 5.19805 94.8099 4.30634H86.9228C83.4225 4.30633 80.0657 5.60865 77.5906 7.92679C75.1156 10.2449 73.7251 13.389 73.7251 16.6673V173.333C73.7251 174.956 74.0665 176.563 74.7297 178.063C75.393 179.563 76.3651 180.925 77.5906 182.073C78.8161 183.221 80.271 184.132 81.8722 184.753C83.4735 185.374 85.1896 185.694 86.9228 185.694H151.926C153.659 185.694 155.375 185.374 156.976 184.753C158.578 184.132 160.033 183.221 161.258 182.073C162.484 180.925 163.456 179.563 164.119 178.063C164.782 176.563 165.124 174.956 165.124 173.333V16.6673C165.124 15.0441 164.782 13.4367 164.119 11.937C163.456 10.4373 162.484 9.07462 161.258 7.92679C160.033 6.77897 158.578 5.86846 156.976 5.24727C155.375 4.62607 153.659 4.30634 151.926 4.30635Z" fill="white"/>
<path d="M156.854 35.1106H81.9941V154.889H156.854V35.1106Z" fill="#E6E6E6"/>
<path d="M119.535 176.939C123.538 176.939 126.783 173.9 126.783 170.151C126.783 166.402 123.538 163.363 119.535 163.363C115.533 163.363 112.288 166.402 112.288 170.151C112.288 173.9 115.533 176.939 119.535 176.939Z" fill="#E6E6E6"/>
<path d="M23.8143 139.089L12.0738 137.754L7.10112 125.357L3.23779 126.462C3.23779 126.462 6.09208 139.563 9.28643 141.593C12.4808 143.623 23.3934 143.987 23.3934 143.987L23.8143 139.089Z" fill="#006466"/>
<path d="M30.0557 145.394C31.9661 143.033 31.7723 139.418 29.6228 137.32C27.4734 135.222 24.1823 135.434 22.272 137.795C20.3616 140.156 20.5554 143.771 22.7048 145.87C24.8543 147.968 28.1454 147.755 30.0557 145.394Z" fill="#263238"/>
<path d="M26.1639 147.319C24.9574 147.319 23.7881 146.859 22.8554 146.018C21.9228 145.178 21.2843 144.008 21.0489 142.708C20.8136 141.408 20.9958 140.059 21.5646 138.89C22.1333 137.721 23.0535 136.805 24.1682 136.298C25.2829 135.791 26.5232 135.724 27.6779 136.108C28.8325 136.493 29.8299 137.306 30.5002 138.408C31.1706 139.51 31.4723 140.833 31.354 142.152C31.2358 143.471 30.7048 144.704 29.8516 145.641C29.3685 146.174 28.7938 146.597 28.1608 146.885C27.5278 147.173 26.8491 147.321 26.1639 147.319ZM26.1639 135.88C24.9606 135.879 23.7941 136.336 22.8631 137.173C21.9321 138.011 21.2943 139.177 21.0583 140.473C20.8223 141.769 21.0027 143.115 21.5689 144.281C22.135 145.447 23.0518 146.362 24.163 146.869C25.2742 147.376 26.5112 147.444 27.6631 147.062C28.8149 146.68 29.8105 145.871 30.4801 144.772C31.1497 143.674 31.452 142.355 31.3354 141.04C31.2187 139.724 30.6904 138.494 29.8405 137.558C29.3591 137.025 28.7863 136.603 28.1552 136.315C27.5241 136.027 26.8473 135.879 26.1639 135.88Z" fill="#263238"/>
<path d="M11.0214 142.573C13.1185 142.02 14.4105 139.704 13.907 137.4C13.4035 135.097 11.2953 133.678 9.19812 134.231C7.10096 134.784 5.80903 137.1 6.31252 139.403C6.816 141.707 8.92423 143.126 11.0214 142.573Z" fill="#263238"/>
<path d="M7.14435 126.36C8.39073 124.99 8.39073 122.771 7.14435 121.402C5.89797 120.033 3.87718 120.033 2.6308 121.402C1.38442 122.771 1.38442 124.99 2.6308 126.36C3.87718 127.729 5.89797 127.729 7.14435 126.36Z" fill="#263238"/>
<path d="M9.86203 121.983L7.23407 124.421L6.28631 123.188L8.91427 120.751C9.05265 120.622 9.23178 120.56 9.41226 120.576C9.59274 120.593 9.75978 120.688 9.87663 120.84L9.94138 120.924C9.99967 120.999 10.0439 121.086 10.0714 121.18C10.099 121.274 10.1094 121.373 10.102 121.472C10.0947 121.57 10.0697 121.666 10.0285 121.754C9.98729 121.842 9.93072 121.92 9.86203 121.983Z" fill="#263238"/>
<path d="M6.52393 117.519V121.193C6.52393 121.222 6.51365 121.249 6.49535 121.269C6.47706 121.289 6.45224 121.3 6.42637 121.3H5.15532C5.12945 121.3 5.10463 121.289 5.08633 121.269C5.06804 121.249 5.05776 121.222 5.05776 121.193V117.519C5.05776 117.32 5.12971 117.13 5.25778 116.989C5.38585 116.848 5.55955 116.769 5.74067 116.769H5.84102C6.02214 116.769 6.19584 116.848 6.32391 116.989C6.45198 117.13 6.52393 117.32 6.52393 117.519Z" fill="#263238"/>
<path d="M4.15739 117.533L4.88762 121.119C4.89327 121.146 4.88866 121.175 4.8748 121.199C4.86094 121.223 4.83896 121.24 4.81371 121.247L3.57332 121.551C3.54807 121.558 3.52161 121.553 3.49976 121.537C3.47792 121.522 3.46247 121.498 3.45682 121.47L2.72659 117.885C2.68705 117.691 2.71934 117.487 2.81636 117.319C2.91339 117.151 3.06719 117.032 3.24394 116.989L3.34186 116.965C3.51861 116.922 3.70383 116.957 3.85677 117.064C4.00971 117.17 4.11785 117.339 4.15739 117.533Z" fill="#263238"/>
<path d="M1.61099 118.432L3.28342 121.614C3.29636 121.638 3.29986 121.667 3.29316 121.695C3.28647 121.722 3.27012 121.746 3.24771 121.76L2.14695 122.458C2.12454 122.472 2.09791 122.476 2.07292 122.469C2.04793 122.461 2.02662 122.443 2.01368 122.419L0.341245 119.237C0.250686 119.065 0.226146 118.86 0.273023 118.668C0.3199 118.476 0.434357 118.312 0.591211 118.212L0.678114 118.157C0.834968 118.058 1.02137 118.031 1.19632 118.082C1.37127 118.134 1.52043 118.259 1.61099 118.432Z" fill="#263238"/>
<path d="M74.8399 171.203L78.354 169.561L68.214 143.373L64.6999 145.015L74.8399 171.203Z" fill="#006466"/>
<path d="M68.7176 145.876C70.5764 143.465 70.3046 139.857 68.1104 137.815C65.9163 135.773 62.6307 136.072 60.7719 138.482C58.9131 140.892 59.185 144.501 61.3791 146.542C63.5733 148.584 66.8588 148.286 68.7176 145.876Z" fill="#263238"/>
<path d="M64.7552 147.919C63.9384 147.919 63.1328 147.709 62.4034 147.305C61.674 146.901 61.0411 146.315 60.5557 145.593C60.0703 144.871 59.746 144.034 59.6088 143.15C59.4716 142.265 59.5254 141.358 59.7658 140.5C60.0509 139.489 60.5857 138.584 61.3108 137.886C62.036 137.189 62.923 136.726 63.8734 136.549C64.8238 136.372 65.8002 136.487 66.6942 136.883C67.5882 137.279 68.3648 137.94 68.9376 138.791C69.5103 139.643 69.8569 140.652 69.9387 141.707C70.0205 142.762 69.8344 143.822 69.4011 144.767C68.9677 145.713 68.304 146.508 67.4839 147.065C66.6637 147.621 65.7192 147.917 64.7552 147.919ZM64.7552 136.474C63.7929 136.475 62.8498 136.769 62.0306 137.324C61.2115 137.879 60.5486 138.673 60.1156 139.616C59.6826 140.56 59.4965 141.618 59.578 142.671C59.6594 143.724 60.0053 144.732 60.5772 145.582C61.149 146.432 61.9244 147.091 62.817 147.486C63.7096 147.881 64.6844 147.997 65.6331 147.819C66.5818 147.642 67.4671 147.179 68.1905 146.482C68.9139 145.785 69.4471 144.881 69.7307 143.871C70.1356 142.424 70.0011 140.859 69.3568 139.52C68.7124 138.182 67.6109 137.179 66.2939 136.731C65.7902 136.56 65.2658 136.473 64.7385 136.474H64.7552Z" fill="#263238"/>
<path d="M75.2875 159.279C75.8649 156.996 74.6485 154.632 72.5705 153.997C70.4925 153.363 68.3398 154.699 67.7624 156.982C67.1849 159.264 68.4014 161.629 70.4794 162.263C72.5574 162.897 74.71 161.561 75.2875 159.279Z" fill="#263238"/>
<path d="M77.4132 174.987C79.1759 174.987 80.6048 173.417 80.6048 171.481C80.6048 169.545 79.1759 167.976 77.4132 167.976C75.6506 167.976 74.2217 169.545 74.2217 171.481C74.2217 173.417 75.6506 174.987 77.4132 174.987Z" fill="#263238"/>
<path d="M73.2387 175.012L75.0258 171.791L76.2802 172.631L74.4931 175.851C74.3988 176.021 74.247 176.143 74.071 176.19C73.8949 176.237 73.7092 176.205 73.5545 176.102L73.4688 176.044C73.3919 175.993 73.3248 175.926 73.2716 175.846C73.2183 175.767 73.1799 175.676 73.1585 175.581C73.1371 175.485 73.1332 175.385 73.147 175.287C73.1607 175.19 73.1919 175.096 73.2387 175.012Z" fill="#263238"/>
<path d="M77.6887 178.084L76.6296 174.599C76.6214 174.572 76.6233 174.542 76.6349 174.517C76.6464 174.492 76.6667 174.472 76.6913 174.463L77.8969 174.021C77.9214 174.012 77.9482 174.014 77.9714 174.027C77.9945 174.04 78.0121 174.062 78.0203 174.089L79.0795 177.574C79.1068 177.668 79.1171 177.766 79.1097 177.865C79.1023 177.963 79.0773 178.058 79.0363 178.146C78.9952 178.234 78.9389 178.311 78.8704 178.375C78.802 178.439 78.7228 178.487 78.6373 178.517L78.5422 178.552C78.3724 178.612 78.1881 178.596 78.0287 178.509C77.8692 178.421 77.7472 178.269 77.6887 178.084Z" fill="#263238"/>
<path d="M79.9322 177.249L78.206 174.102C78.1994 174.09 78.195 174.076 78.1931 174.062C78.1912 174.048 78.1918 174.034 78.1949 174.021C78.1979 174.007 78.2034 173.994 78.2111 173.983C78.2187 173.971 78.2282 173.962 78.2392 173.955L79.3279 173.234C79.3389 173.227 79.351 173.222 79.3637 173.22C79.3764 173.218 79.3893 173.218 79.4017 173.222C79.4142 173.225 79.4259 173.231 79.4362 173.24C79.4465 173.248 79.4552 173.258 79.4618 173.27L81.188 176.417C81.2815 176.588 81.3095 176.792 81.2659 176.985C81.2223 177.178 81.1107 177.344 80.9556 177.447L80.8696 177.504C80.7145 177.607 80.5286 177.637 80.3528 177.589C80.177 177.542 80.0257 177.419 79.9322 177.249Z" fill="#263238"/>
<path d="M82.0865 175.513L79.5829 173.077C79.5635 173.058 79.5518 173.032 79.5502 173.003C79.5486 172.975 79.5574 172.947 79.5746 172.926L80.4156 171.883C80.4328 171.862 80.4569 171.849 80.4827 171.847C80.5086 171.845 80.534 171.855 80.5533 171.874L83.0569 174.31C83.1925 174.442 83.2748 174.628 83.2857 174.827C83.2967 175.025 83.2353 175.22 83.1152 175.369L83.0487 175.452C82.9283 175.6 82.7595 175.689 82.5792 175.701C82.3989 175.712 82.2217 175.645 82.0865 175.513Z" fill="#263238"/>
<path d="M24.6172 135.641C24.6172 135.641 24.9935 175.792 45.5059 176.576C66.0183 177.36 66.8796 135.929 66.8796 135.641C66.8796 135.641 64.4574 129.656 45.7484 129.888C27.0394 130.121 24.6172 135.641 24.6172 135.641Z" fill="#006466"/>
<path d="M36.1347 128.575H53.4723C54.6037 128.575 55.521 127.568 55.521 126.325V125.997C55.521 124.754 54.6037 123.747 53.4723 123.747H36.1347C35.0032 123.747 34.086 124.754 34.086 125.997V126.325C34.086 127.568 35.0032 128.575 36.1347 128.575Z" fill="#263238"/>
<path d="M44.0564 92.8728H45.5532V84.5603H44.0564V92.8728Z" fill="#263238"/>
<path d="M67.6919 117.619C70.0553 117.002 71.5158 114.398 70.9541 111.802C70.3924 109.206 68.0211 107.602 65.6577 108.219C63.2943 108.836 61.8338 111.44 62.3955 114.036C62.9573 116.632 65.3285 118.236 67.6919 117.619Z" fill="#006466"/>
<path d="M23.2472 117.306C25.6163 116.715 27.1011 114.127 26.5638 111.525C26.0264 108.923 23.6703 107.292 21.3013 107.882C18.9322 108.473 17.4473 111.061 17.9847 113.663C18.5221 116.265 20.8782 117.896 23.2472 117.306Z" fill="#006466"/>
<path d="M43.9338 91.0695C43.9338 91.0695 26.0499 90.8337 23.2234 107.86C20.397 124.886 35.5158 125.192 39.867 125.513C41.8376 125.66 46.0577 125.676 49.7817 125.602C58.0268 125.446 63.8525 123.695 65.8343 115.293C66.0703 114.308 66.2187 113.3 66.2775 112.284C66.7987 103.062 61.132 90.6163 43.9338 91.0695Z" fill="#006466"/>
<path d="M56.9065 116.984L30.9253 117.427C30.277 117.44 29.6329 117.312 29.0297 117.051C28.4265 116.79 27.8762 116.4 27.4101 115.905C26.9441 115.41 26.5715 114.819 26.3138 114.165C26.056 113.512 25.9181 112.809 25.9079 112.097C25.8969 111.385 26.0137 110.677 26.2518 110.015C26.49 109.352 26.8446 108.748 27.2956 108.236C27.7466 107.724 28.285 107.315 28.8801 107.032C29.4751 106.749 30.1152 106.597 30.7636 106.586L56.7449 106.142C57.3932 106.129 58.0375 106.257 58.6408 106.518C59.2442 106.779 59.7947 107.168 60.2608 107.663C60.7269 108.159 61.0994 108.75 61.3571 109.404C61.6147 110.057 61.7524 110.76 61.7622 111.472C61.7736 112.185 61.657 112.893 61.419 113.555C61.181 114.218 60.8264 114.823 60.3753 115.335C59.9243 115.846 59.3857 116.256 58.7905 116.539C58.1952 116.822 57.555 116.973 56.9065 116.984Z" fill="#263238"/>
<path d="M36.3242 111.506C36.2638 111.844 36.1136 112.154 35.8927 112.398C35.6718 112.641 35.3901 112.808 35.0831 112.875C34.7762 112.943 34.4578 112.91 34.1683 112.779C33.8787 112.648 33.631 112.426 33.4564 112.14C33.2819 111.855 33.1883 111.519 33.1875 111.175C33.1867 110.831 33.2788 110.495 33.4521 110.208C33.6254 109.922 33.8721 109.698 34.1611 109.566C34.45 109.433 34.7682 109.398 35.0755 109.464C35.2796 109.508 35.4738 109.596 35.647 109.722C35.8202 109.849 35.9691 110.011 36.085 110.201C36.201 110.391 36.2818 110.603 36.3229 110.827C36.3639 111.051 36.3644 111.282 36.3242 111.506Z" fill="white"/>
<path d="M54.4673 111.188C54.4074 111.525 54.2576 111.836 54.0369 112.08C53.8163 112.324 53.5346 112.491 53.2276 112.56C52.9206 112.628 52.602 112.595 52.3123 112.464C52.0225 112.333 51.7745 112.111 51.5996 111.826C51.4248 111.54 51.331 111.204 51.3301 110.86C51.3292 110.516 51.4212 110.179 51.5945 109.893C51.7678 109.606 52.0147 109.383 52.3037 109.25C52.5928 109.118 52.9112 109.082 53.2186 109.149C53.6302 109.238 53.9929 109.502 54.227 109.884C54.4611 110.267 54.5476 110.736 54.4673 111.188Z" fill="white"/>
<path d="M51.8554 151.587C51.7536 153.119 51.2405 154.583 50.3809 155.795C49.5213 157.007 48.3539 157.911 47.0262 158.395C45.6986 158.878 44.2704 158.917 42.9221 158.509C41.5739 158.1 40.3662 157.262 39.4518 156.1C38.5374 154.937 37.9573 153.503 37.7849 151.979C37.6125 150.454 37.8555 148.908 38.4832 147.535C39.1109 146.162 40.0951 145.025 41.3114 144.266C42.5276 143.508 43.9213 143.163 45.3162 143.274C47.1867 143.425 48.9262 144.385 50.1525 145.943C51.3787 147.502 51.9912 149.532 51.8554 151.587Z" fill="#263238"/>
<path d="M49.9405 151.434C49.8661 152.55 49.4919 153.618 48.8653 154.501C48.2386 155.384 47.3876 156.043 46.4198 156.395C45.4521 156.746 44.4111 156.775 43.4285 156.477C42.446 156.179 41.5659 155.568 40.8997 154.72C40.2334 153.873 39.8109 152.828 39.6856 151.716C39.5603 150.605 39.7377 149.478 40.1956 148.478C40.6534 147.477 41.371 146.649 42.2577 146.096C43.1443 145.544 44.1602 145.293 45.1769 145.374C45.852 145.428 46.5108 145.628 47.1156 145.962C47.7205 146.295 48.2596 146.757 48.702 147.32C49.1444 147.882 49.4815 148.535 49.694 149.241C49.9065 149.947 49.9903 150.692 49.9405 151.434Z" fill="white"/>
<path d="M47.4573 152.462C47.4179 152.153 47.4021 151.841 47.4099 151.528C47.396 150.944 47.3848 150.108 47.3848 149.079L47.4406 149.192L44.7897 147.493H44.9375L42.2616 149.143C42.1891 149.278 42.3591 148.963 42.3424 148.996V149.431V149.869C42.3424 150.157 42.3424 150.445 42.3285 150.726C42.3285 151.29 42.309 151.835 42.3006 152.361L42.2281 152.22L44.8483 153.978H44.7312C45.5479 153.494 46.2225 153.108 46.6824 152.845C46.9298 152.69 47.188 152.557 47.4545 152.447C47.2466 152.633 47.0226 152.796 46.7855 152.934C46.334 153.24 45.6706 153.672 44.8343 154.201L44.7758 154.238L44.7173 154.201L42.0637 152.502L41.9912 152.456V152.358C41.9912 151.832 41.9968 151.287 42.0079 150.723C42.0079 150.442 42.0079 150.157 42.0079 149.866V149.431V149.009C41.9912 149.042 42.1612 148.73 42.0888 148.862L44.773 147.227L44.8511 147.181L44.9235 147.23L47.5409 148.987L47.5994 149.027V149.101C47.5688 150.16 47.5381 151.011 47.5102 151.59C47.5174 151.882 47.4996 152.174 47.4573 152.462Z" fill="#006466"/>
<path d="M46.5508 86.3079C47.5142 85.2497 47.5142 83.5341 46.5508 82.476C45.5875 81.4178 44.0256 81.4178 43.0622 82.476C42.0988 83.5341 42.0988 85.2497 43.0622 86.3079C44.0256 87.3661 45.5875 87.3661 46.5508 86.3079Z" fill="#006466"/>
<path d="M40.8651 110.704C40.9822 110.719 40.9236 111.316 41.2693 112.134C41.4651 112.603 41.7502 113.021 42.1055 113.358C42.5219 113.761 43.0402 114.014 43.5912 114.084C44.145 114.123 44.6968 113.978 45.1744 113.668C45.5786 113.41 45.9283 113.06 46.2002 112.642C46.674 111.916 46.7158 111.307 46.8329 111.316C46.8803 111.316 46.9277 111.469 46.9277 111.757C46.9171 112.167 46.8218 112.569 46.6489 112.933C46.3892 113.482 46.0053 113.95 45.534 114.289C44.9513 114.74 44.2415 114.949 43.5316 114.878C42.8218 114.806 42.1581 114.46 41.6595 113.9C41.2525 113.473 40.953 112.937 40.7898 112.345C40.6736 111.95 40.6431 111.531 40.7006 111.12C40.748 110.836 40.8205 110.695 40.8651 110.704Z" fill="white"/>
<path d="M64.6775 118.637C64.6496 118.637 64.9702 118.086 65.2796 117.121C65.6643 115.858 65.9077 114.548 66.0043 113.221C66.1159 111.898 66.1438 110.568 66.0879 109.241C66.0684 108.729 66.0461 108.322 66.0238 108.016C66.005 107.868 66.0003 107.718 66.0099 107.569C66.0456 107.713 66.0689 107.861 66.0795 108.01C66.1186 108.294 66.1576 108.708 66.191 109.234C66.2785 110.572 66.2645 111.916 66.1492 113.251C66.0511 114.591 65.7915 115.911 65.3771 117.176C65.2459 117.558 65.0875 117.928 64.9033 118.282C64.8374 118.407 64.7619 118.526 64.6775 118.637Z" fill="#263238"/>
<path d="M23.257 107.29C23.2412 107.439 23.2123 107.586 23.1706 107.728C23.1343 107.866 23.0953 108.034 23.0591 108.236C23.0228 108.438 22.9671 108.659 22.9337 108.913C22.8359 109.503 22.7708 110.099 22.7385 110.698C22.701 111.43 22.7104 112.165 22.7664 112.896C22.8287 113.626 22.9367 114.35 23.0897 115.064C23.2177 115.648 23.3778 116.222 23.5692 116.784C23.6444 117.026 23.7308 117.238 23.8005 117.427C23.8702 117.617 23.9371 117.776 23.9929 117.905C24.0564 118.037 24.1087 118.176 24.149 118.318C24.0696 118.197 24.0006 118.068 23.9427 117.933C23.8639 117.78 23.7922 117.622 23.7281 117.461C23.65 117.277 23.5552 117.066 23.4744 116.824C23.2675 116.263 23.0961 115.687 22.9615 115.101C22.7984 114.38 22.6847 113.647 22.6215 112.908C22.5647 112.17 22.5591 111.428 22.6047 110.689C22.6436 110.085 22.72 109.484 22.8333 108.891C22.8751 108.637 22.9337 108.414 22.981 108.215C23.0284 108.016 23.073 107.847 23.1148 107.71C23.1518 107.566 23.1993 107.426 23.257 107.29Z" fill="#263238"/>
<path d="M24.5225 135.608L24.6284 135.641L24.9406 135.758L26.128 136.217L26.9865 136.554C27.3015 136.67 27.6499 136.78 28.0206 136.906C28.7649 137.148 29.6039 137.463 30.5572 137.708L32.0428 138.127C32.5613 138.271 33.1076 138.378 33.6707 138.513C34.7856 138.795 36.0093 138.988 37.2943 139.214C40.0732 139.633 42.8739 139.853 45.6788 139.873C48.4837 139.854 51.2845 139.635 54.0632 139.214C55.3399 138.988 56.5552 138.798 57.6868 138.513C58.2443 138.382 58.8018 138.274 59.3147 138.13L60.8031 137.711C61.7536 137.466 62.5927 137.151 63.3369 136.909C63.7076 136.783 64.056 136.673 64.371 136.557L65.2295 136.22L66.4169 135.761L66.7291 135.644C66.7642 135.629 66.8007 135.618 66.8378 135.611L66.7347 135.66L66.4281 135.791L65.249 136.278L64.371 136.639C64.0588 136.759 63.7104 136.872 63.3397 137.004C62.5954 137.255 61.7592 137.576 60.8059 137.83L59.3175 138.259C58.8018 138.406 58.2527 138.516 57.6896 138.654C56.5747 138.942 55.3482 139.138 54.066 139.37C51.2814 139.8 48.4738 140.024 45.662 140.041C42.8511 140.021 40.0445 139.796 37.2608 139.367C35.9814 139.138 34.7522 138.939 33.6372 138.651C33.0798 138.513 32.5223 138.403 32.0094 138.256L30.5209 137.827C29.5676 137.573 28.7314 137.252 27.9872 137.001C27.6165 136.869 27.2708 136.756 26.9559 136.636L26.1001 136.284L24.9211 135.797L24.6144 135.666C24.5822 135.65 24.5514 135.63 24.5225 135.608Z" fill="#263238"/>
<g opacity="0.3">
<path d="M24.6172 135.641C24.6172 135.641 27.0394 130.13 45.7484 129.888C64.4574 129.647 66.8796 135.641 66.8796 135.641C66.8796 135.641 47.9978 145.864 24.6172 135.641Z" fill="black"/>
</g>
<path d="M41.6674 92.3431C41.6461 92.3453 41.6246 92.3453 41.6033 92.3431L41.4166 92.3646C41.2493 92.3829 41.004 92.389 40.6891 92.4288C39.8003 92.5236 38.9184 92.6842 38.0494 92.9095C33.5546 94.0402 29.5901 96.9339 26.8998 101.047C25.6001 103.024 24.6161 105.229 23.9898 107.569C23.8922 107.9 23.8393 108.163 23.7919 108.337L23.7389 108.539C23.7339 108.563 23.7264 108.585 23.7166 108.607C23.7129 108.583 23.7129 108.56 23.7166 108.536C23.7166 108.481 23.7389 108.414 23.7557 108.331C23.7947 108.154 23.8365 107.887 23.9257 107.55C24.1583 106.599 24.4565 105.669 24.8177 104.767C26.0091 101.772 27.8229 99.1239 30.1137 97.0367C32.4143 94.9652 35.1244 93.514 38.0271 92.7993C38.9012 92.5811 39.7893 92.4368 40.6835 92.3676C41.0013 92.337 41.241 92.3401 41.4138 92.3309H41.6033C41.6479 92.337 41.6674 92.3401 41.6674 92.3431Z" fill="white"/>
<path d="M24.1711 115.912C24.0594 115.722 23.973 115.516 23.9146 115.3C23.584 114.276 23.4299 113.195 23.4603 112.109C23.4523 111.884 23.4768 111.659 23.5328 111.442C23.5774 111.442 23.516 112.464 23.6944 113.701C23.8728 114.938 24.2129 115.894 24.1711 115.912Z" fill="white"/>
<path d="M19.48 114.329C19.48 114.329 19.4159 114.28 19.3295 114.164C19.2063 113.999 19.1006 113.819 19.0145 113.628C18.7168 112.995 18.6029 112.277 18.6882 111.571C18.7734 110.865 19.0536 110.204 19.4911 109.678C19.6193 109.517 19.7643 109.373 19.9232 109.25C19.9777 109.199 20.04 109.16 20.1071 109.133C20.1239 109.158 19.873 109.345 19.5692 109.746C19.1704 110.27 18.9153 110.908 18.8334 111.586C18.7515 112.263 18.8462 112.952 19.1065 113.573C19.3016 114.06 19.4995 114.311 19.48 114.329Z" fill="white"/>
<path d="M44.9653 82.5029C44.7478 82.4766 44.5286 82.4715 44.3103 82.4876C44.0503 82.5126 43.799 82.6028 43.5757 82.7511C43.3524 82.8994 43.1629 83.1019 43.0219 83.3431C42.8809 83.5843 42.7921 83.8578 42.7622 84.1426C42.7324 84.4273 42.7623 84.7158 42.8497 84.9859C42.925 85.2099 43.0182 85.4261 43.1285 85.6319C43.1285 85.6319 43.0727 85.5952 42.9947 85.4972C42.8875 85.3555 42.8028 85.1951 42.7438 85.0227C42.6374 84.7368 42.5954 84.4269 42.6211 84.1194C42.6469 83.8118 42.7397 83.5156 42.8917 83.2558C43.0438 82.996 43.2505 82.7803 43.4945 82.6268C43.7386 82.4734 44.0126 82.3868 44.2936 82.3743C44.4604 82.3616 44.6281 82.3792 44.7897 82.4264C44.9152 82.4478 44.9653 82.4937 44.9653 82.5029Z" fill="white"/>
<path d="M69.2602 110.615C69.2295 110.652 68.7975 110.196 68.1452 109.853C67.493 109.51 66.8992 109.409 66.9048 109.36C67.3592 109.347 67.8085 109.468 68.2065 109.709C68.6256 109.901 68.9895 110.215 69.2602 110.615Z" fill="white"/>
<path d="M31.0278 164.216C31.0151 164.198 31.0039 164.178 30.9944 164.158L30.9024 163.977C30.8188 163.803 30.7073 163.57 30.5623 163.273C30.4898 163.12 30.4118 162.948 30.3226 162.765L30.0606 162.152C29.871 161.709 29.6592 161.203 29.4501 160.622C29.3442 160.337 29.2327 160.037 29.1157 159.728C28.9986 159.418 28.8982 159.082 28.784 158.742C28.5442 158.065 28.3408 157.321 28.1038 156.55C27.6662 154.988 27.237 153.258 26.8607 151.421C26.4844 149.584 26.2112 147.812 25.9882 146.198C25.7652 144.585 25.6203 143.136 25.5311 141.893C25.4781 141.281 25.4447 140.724 25.4168 140.234C25.3889 139.744 25.3638 139.315 25.3555 138.979C25.3471 138.642 25.3387 138.382 25.3304 138.186V137.981C25.3274 137.957 25.3274 137.933 25.3304 137.91C25.3336 137.933 25.3336 137.957 25.3304 137.981L25.3471 138.186C25.3471 138.379 25.3778 138.645 25.3973 138.976C25.4168 139.306 25.4447 139.741 25.4837 140.228C25.5227 140.715 25.559 141.272 25.6203 141.884C25.7206 143.109 25.899 144.566 26.1081 146.171C26.3171 147.775 26.6209 149.538 26.9889 151.375C27.3568 153.212 27.7889 154.939 28.2153 156.498C28.4523 157.269 28.6502 158.01 28.8843 158.687C28.9958 159.03 29.1017 159.357 29.2076 159.673L29.531 160.573C29.7317 161.145 29.9379 161.653 30.1219 162.103L30.3728 162.716C30.4536 162.903 30.5317 163.074 30.6013 163.23L30.9135 163.947L30.9916 164.133C31.0085 164.158 31.0208 164.186 31.0278 164.216Z" fill="white"/>
<path d="M20.1211 139.254C19.4411 139.282 18.7601 139.256 18.0836 139.175C17.4039 139.148 16.7267 139.07 16.0571 138.939C16.7372 138.911 17.4182 138.937 18.0947 139.018C18.7744 139.044 19.4516 139.123 20.1211 139.254Z" fill="white"/>
<path d="M9.63507 132.717C9.23974 132.085 8.88489 131.423 8.57308 130.737C8.21969 130.075 7.90861 129.388 7.64209 128.679C8.03621 129.313 8.39012 129.976 8.7013 130.663C9.0565 131.323 9.36854 132.009 9.63507 132.717Z" fill="white"/>
<path d="M40.9237 173.869C40.814 173.867 40.7047 173.853 40.5976 173.827C40.3027 173.769 40.0113 173.691 39.7251 173.594C39.3 173.452 38.8846 173.277 38.482 173.07C37.9914 172.811 37.5199 172.51 37.0715 172.17C36.6282 171.822 36.2106 171.436 35.8228 171.016C35.5087 170.67 35.218 170.3 34.9531 169.908C34.7716 169.646 34.6068 169.371 34.4597 169.084C34.3996 168.983 34.35 168.876 34.312 168.763C34.3343 168.747 34.5685 169.191 35.0339 169.84C35.3076 170.218 35.6027 170.576 35.9175 170.912C36.6891 171.735 37.5743 172.419 38.5405 172.939C38.9352 173.148 39.341 173.331 39.7558 173.487C40.4694 173.75 40.9293 173.839 40.9237 173.869Z" fill="white"/>
<path d="M45.1989 159.706C45.1344 159.718 45.0692 159.726 45.0037 159.728C44.8184 159.745 44.6323 159.751 44.4463 159.746C43.7531 159.729 43.0655 159.607 42.4031 159.382C41.9454 159.225 41.4999 159.028 41.0707 158.794C40.5787 158.516 40.112 158.187 39.677 157.811C38.6695 156.961 37.8753 155.843 37.3692 154.563C36.8631 153.283 36.6616 151.883 36.7837 150.494C36.8292 149.891 36.9272 149.294 37.0764 148.712C37.21 148.207 37.3825 147.715 37.5921 147.242C37.8944 146.556 38.2829 145.92 38.746 145.353C38.8703 145.198 39.0024 145.051 39.1419 144.912C39.188 144.861 39.2374 144.814 39.2896 144.771C39.2896 144.771 39.1056 144.989 38.7879 145.384C38.3418 145.96 37.9669 146.598 37.6729 147.282C37.2345 148.29 36.9735 149.379 36.9036 150.494C36.7906 151.858 36.9918 153.232 37.4886 154.489C37.9854 155.745 38.7619 156.845 39.7467 157.685C40.1689 158.059 40.6225 158.387 41.1014 158.665C41.5211 158.908 41.9584 159.113 42.4087 159.278C43.0612 159.51 43.7388 159.647 44.424 159.685C44.9285 159.706 45.1989 159.688 45.1989 159.706Z" fill="white"/>
<path d="M11.4526 135.595C11.4526 135.62 11.2379 135.507 10.8951 135.418C10.4363 135.308 9.96075 135.313 9.50408 135.433C9.0474 135.554 8.62147 135.786 8.25822 136.113C7.97948 136.367 7.84568 136.569 7.82617 136.554C7.90266 136.351 8.02099 136.171 8.17181 136.027C8.53358 135.663 8.97407 135.405 9.4516 135.28C9.92913 135.155 10.4279 135.165 10.9007 135.311C11.1021 135.358 11.291 135.455 11.4526 135.595Z" fill="white"/>
<path d="M52.614 105.153C52.614 105.196 49.1911 105.233 44.971 105.233C40.7509 105.233 37.3252 105.196 37.3252 105.153C37.3252 105.11 40.7481 105.074 44.971 105.074C49.1939 105.074 52.614 105.104 52.614 105.153Z" fill="white"/>
<path d="M39.5685 124.298C39.5267 124.311 39.4836 124.318 39.4403 124.319L39.0667 124.356C38.9051 124.371 38.7072 124.384 38.4758 124.39C38.2445 124.396 37.9825 124.408 37.6926 124.39C37.11 124.39 36.4187 124.344 35.6522 124.255C34.8227 124.149 33.9991 123.993 33.1854 123.787C32.3735 123.573 31.5732 123.309 30.7882 122.997C30.1486 122.739 29.5216 122.446 28.9095 122.118C28.6308 121.983 28.4161 121.842 28.2126 121.723C28.0092 121.604 27.8364 121.496 27.697 121.417L27.3764 121.202C27.3384 121.179 27.3029 121.152 27.2705 121.12C27.2705 121.12 27.3151 121.12 27.3904 121.175L27.7249 121.362C27.867 121.447 28.0426 121.548 28.2489 121.668C28.4551 121.787 28.6893 121.91 28.9541 122.038C29.4781 122.308 30.1164 122.596 30.8356 122.88C32.3986 123.496 34.02 123.915 35.6689 124.129C36.4271 124.227 37.1156 124.283 37.6926 124.298C37.9713 124.316 38.25 124.298 38.4758 124.298C38.7016 124.298 38.9023 124.298 39.064 124.298H39.4375C39.4808 124.29 39.5251 124.29 39.5685 124.298Z" fill="white"/>
<path d="M61.8206 138.094C61.8 138.109 61.7775 138.12 61.7537 138.127L61.553 138.21L60.7781 138.516C60.4408 138.651 60.0283 138.807 59.5405 138.963C59.0527 139.119 58.5036 139.322 57.882 139.493L56.912 139.775C56.5747 139.87 56.2179 139.949 55.8528 140.044C55.1225 140.237 54.3309 140.39 53.5002 140.565C49.8822 141.257 46.2053 141.504 42.5374 141.302C41.7012 141.244 40.8901 141.198 40.1431 141.103C39.7696 141.061 39.4072 141.03 39.0616 140.978L38.0665 140.828C37.4309 140.745 36.8623 140.62 36.3634 140.522C35.8644 140.424 35.4324 140.332 35.084 140.243L34.2812 140.047L34.0721 139.992C34.0479 139.988 34.0245 139.979 34.0024 139.968C34.0275 139.965 34.0527 139.965 34.0777 139.968L34.2868 140.007L35.0951 140.176C35.4463 140.252 35.8756 140.341 36.3773 140.424C36.879 140.506 37.4449 140.626 38.0804 140.702L39.0727 140.84C39.4183 140.889 39.7807 140.917 40.1542 140.956C40.8984 141.045 41.7012 141.085 42.543 141.14C44.2294 141.217 46.083 141.22 48.0286 141.094C49.9742 140.969 51.8111 140.702 53.4752 140.402C54.3114 140.234 55.0974 140.096 55.8277 139.9C56.1929 139.808 56.5497 139.732 56.8869 139.64L57.8569 139.367C58.4785 139.205 59.0276 139.015 59.5154 138.862C60.0032 138.709 60.4213 138.556 60.7586 138.443L61.5419 138.167L61.7481 138.1L61.8206 138.094Z" fill="white"/>
</svg>
