<svg width="200" height="165" viewBox="0 0 200 165" fill="none" xmlns="http://www.w3.org/2000/svg">
<g clip-path="url(#clip0_992_8871)">
<path d="M71.7401 94.959C78.5941 79.9914 91.6683 68.4987 105.508 69.6059C95.2995 83.3876 89.3465 101.208 88.7026 119.914C88.4754 127.129 88.8278 135.183 84.9687 140.586C82.5676 143.948 78.8973 145.576 75.2887 145.917C71.6799 146.259 68.0719 145.45 64.5113 144.644L63.6476 144.973C63.3187 127.761 64.886 109.927 71.7401 94.959Z" fill="#F0F0F0"/>
<path d="M105.529 69.9662C95.2944 76.0825 86.5676 86.2975 81.2104 98.7554C80.0522 101.449 79.0661 104.306 78.636 107.327C78.2056 110.35 78.5062 113.227 79.3378 116.098C80.0981 118.722 81.1205 121.297 81.3536 124.105C81.5994 127.065 80.7221 129.833 79.1429 132.029C77.2107 134.717 74.6159 136.382 72.0328 137.901C69.1648 139.588 66.1643 141.283 64.1329 144.431C63.8868 144.813 63.4245 144.316 63.6702 143.935C67.2045 138.459 73.2542 137.429 77.4494 133.017C79.4069 130.959 80.8766 128.155 80.7838 124.87C80.7027 121.998 79.6502 119.341 78.8619 116.692C78.0342 113.91 77.6214 111.114 77.9183 108.148C78.2219 105.115 79.1201 102.203 80.2177 99.4851C82.6932 93.3547 86.081 87.7264 89.9619 82.8612C94.4222 77.2687 99.6202 72.6646 105.331 69.2481C105.685 69.0369 105.88 69.7563 105.529 69.9662Z" fill="white"/>
<path d="M82.7796 94.592C81.2106 93.1678 80.1005 91.0976 79.6476 88.7511C79.1946 86.4046 79.4283 83.9347 80.3069 81.7824C80.4859 81.3476 81.0385 81.6725 80.8593 82.1078C80.0381 84.1102 79.8206 86.411 80.246 88.5949C80.6714 90.7789 81.7117 92.7021 83.179 94.0175C83.4976 94.3039 83.0964 94.8767 82.7796 94.592Z" fill="white"/>
<path d="M78.8112 114.83C82.7427 114.117 86.3133 111.59 88.8109 107.754C89.0581 107.374 89.5205 107.87 89.2736 108.25C86.6685 112.236 82.9485 114.856 78.8559 115.587C78.4658 115.656 78.4232 114.899 78.8112 114.83Z" fill="white"/>
<path d="M94.7241 78.2024C95.2387 78.9105 95.8869 79.4489 96.6105 79.7691C97.3341 80.0894 98.1105 80.1815 98.8698 80.0372C99.2591 79.9618 99.3013 80.7191 98.9146 80.794C98.075 80.9486 97.2177 80.8455 96.4176 80.4939C95.6175 80.1423 94.899 79.5528 94.3247 78.7769C94.2657 78.7094 94.2295 78.6165 94.2237 78.5171C94.2178 78.4177 94.2426 78.3192 94.2931 78.2417C94.3463 78.166 94.4214 78.1194 94.5021 78.112C94.5828 78.1047 94.6626 78.1372 94.7241 78.2024Z" fill="white"/>
<path d="M133.046 116.823C132.804 116.879 132.562 116.935 132.318 116.996C129.068 117.766 125.874 118.862 122.767 120.273C122.526 120.378 122.282 120.488 122.044 120.601C114.588 124.101 107.72 129.289 101.79 135.902C99.4322 138.536 97.2393 141.389 95.2301 144.435C92.4556 148.644 89.717 153.48 86.0914 156.224C85.7158 156.516 85.3259 156.778 84.9241 157.01L64.038 146.255C64.0005 146.201 63.9607 146.153 63.9229 146.099L63.0731 145.717C63.1679 145.551 63.2691 145.381 63.3639 145.215C63.4185 145.118 63.4778 145.024 63.5325 144.927C63.5704 144.863 63.6086 144.8 63.6398 144.74C63.6524 144.719 63.6652 144.697 63.6758 144.682C63.707 144.622 63.7412 144.57 63.7705 144.516C64.334 143.565 64.9038 142.617 65.48 141.673C65.4819 141.667 65.4819 141.667 65.4886 141.663C69.8935 134.481 74.8201 127.693 80.4201 122.048C80.5886 121.879 80.7589 121.703 80.937 121.538C83.4726 119.011 86.1703 116.746 89.0032 114.764C90.5572 113.686 92.1542 112.705 93.7881 111.827C98.0132 109.568 102.498 108.148 107.079 107.619C116.211 106.567 125.512 109.151 132.515 116.273C132.694 116.455 132.869 116.635 133.046 116.823Z" fill="#F0F0F0"/>
<path d="M132.889 117.128C121.751 114.362 109.829 115.996 99.5097 121.939C97.2786 123.223 95.1055 124.768 93.2969 126.859C91.4874 128.95 90.332 131.472 89.6037 134.386C88.9379 137.049 88.5054 139.87 87.3296 142.286C86.0903 144.833 84.0475 146.387 81.7214 146.961C78.8753 147.662 75.9958 147.053 73.1966 146.335C70.0886 145.538 66.8706 144.649 63.7219 145.644C63.3404 145.765 63.212 145.023 63.593 144.903C69.0711 143.171 74.4008 146.871 79.8901 146.484C82.4515 146.303 84.9846 145.163 86.5037 142.471C87.832 140.117 88.2801 137.209 88.9355 134.505C89.6236 131.665 90.6504 129.124 92.3257 126.978C94.0393 124.782 96.1684 123.129 98.3632 121.779C103.313 118.735 108.748 116.773 114.206 115.789C120.479 114.657 126.863 114.866 133.079 116.407C133.464 116.502 133.271 117.223 132.889 117.128Z" fill="white"/>
<path d="M102.782 119.787C102.22 117.477 102.337 114.995 103.114 112.783C103.89 110.571 105.275 108.773 107.02 107.711C107.374 107.498 107.657 108.17 107.303 108.384C105.677 109.369 104.387 111.044 103.667 113.105C102.948 115.167 102.846 117.48 103.379 119.627C103.495 120.094 102.897 120.251 102.782 119.787Z" fill="white"/>
<path d="M89.798 132.98C93.283 135.349 97.3592 136 101.214 134.804C101.596 134.685 101.724 135.427 101.343 135.546C97.3298 136.781 93.0889 136.093 89.4667 133.618C89.1216 133.381 89.4548 132.745 89.798 132.98Z" fill="white"/>
<path d="M120.268 115.629C120.335 116.578 120.592 117.493 121.014 118.289C121.436 119.086 122.012 119.74 122.688 120.192C123.035 120.423 122.702 121.059 122.357 120.83C121.611 120.326 120.977 119.603 120.508 118.724C120.04 117.845 119.752 116.837 119.67 115.789C119.656 115.691 119.672 115.589 119.715 115.506C119.759 115.422 119.826 115.362 119.904 115.338C119.984 115.317 120.066 115.336 120.134 115.39C120.202 115.445 120.25 115.53 120.268 115.629Z" fill="white"/>
<path d="M93.2596 134.566C90.3346 117.009 86.6783 111.155 86.6783 111.155L85.2815 109.811L83.6017 108.191L83.6098 107.983L83.2114 107.814L83.1179 107.724L82.9645 107.578L82.9398 107.611L82.8877 107.678L75.2866 104.47L65.6433 100.404L61.1778 93.1987C60.4505 92.0252 59.5142 91.0767 58.4423 90.4276C57.3703 89.7785 56.1918 89.4465 54.9992 89.4574L40.7379 89.5884C38.8096 89.6061 36.9564 90.5187 35.5426 92.1466L26.1689 102.94L11.5628 111.6L11.5382 111.57L11.3848 111.706L9.12803 113.045L9.22116 113.647L7.82436 114.898C7.82436 114.898 4.16806 120.345 1.24301 136.682C0.498911 140.838 0.132637 149.756 0.000432559 160.744C-0.00620808 161.299 0.0762324 161.851 0.242958 162.367C0.409684 162.883 0.657371 163.353 0.971615 163.749C1.28586 164.145 1.66039 164.46 2.07344 164.674C2.48648 164.889 2.9298 165 3.37761 165H81.3914L91.1286 165C91.576 165 92.019 164.889 92.4318 164.675C92.8446 164.46 93.219 164.146 93.5331 163.75C93.8473 163.355 94.0951 162.886 94.2621 162.37C94.429 161.855 94.5119 161.303 94.5058 160.748C94.3766 148.791 94.0105 139.074 93.2596 134.566Z" fill="#3F3D56"/>
<path d="M103.269 15.3114C100.234 15.3114 97.323 16.8082 95.1768 19.4725C93.0306 22.1368 91.8249 25.7504 91.8249 29.5183C91.8249 33.2862 93.0306 36.8998 95.1768 39.5641C97.323 42.2284 100.234 43.7252 103.269 43.7252H188.556C191.591 43.7252 194.502 42.2284 196.648 39.5641C198.794 36.8998 200 33.2862 200 29.5183C200 25.7504 198.794 22.1368 196.648 19.4725C194.502 16.8082 191.591 15.3114 188.556 15.3114H103.269Z" fill="#E5E5E5"/>
<path d="M103.269 18.1866C100.848 18.1866 98.5264 19.3805 96.8145 21.5056C95.1027 23.6307 94.141 26.5129 94.141 29.5183C94.141 32.5236 95.1027 35.4059 96.8145 37.531C98.5264 39.6561 100.848 40.85 103.269 40.85H188.556C190.977 40.85 193.298 39.6561 195.01 37.531C196.722 35.4059 197.684 32.5236 197.684 29.5183C197.684 26.5129 196.722 23.6307 195.01 21.5056C193.298 19.3805 190.977 18.1866 188.556 18.1866H103.269Z" fill="white"/>
<path d="M50.1081 82.8064C60.4268 82.8064 68.7917 72.4221 68.7917 59.6124C68.7917 46.8027 60.4268 36.4184 50.1081 36.4184C39.7894 36.4184 31.4244 46.8027 31.4244 59.6124C31.4244 72.4221 39.7894 82.8064 50.1081 82.8064Z" fill="#9E616A"/>
<path d="M45.3284 81.6707C45.2486 81.4525 45.169 81.2336 45.0896 81.0139C45.1202 81.0151 45.1505 81.0206 45.1811 81.0216L45.3284 81.6707Z" fill="#2F2E41"/>
<path d="M30.9048 37.4731C31.8498 36.5373 32.9542 35.6763 34.1624 35.7247C35.3706 35.773 36.5957 37.1276 36.3454 38.5957C38.5646 33.718 42.0968 29.9664 46.3221 27.9996C50.5474 26.0327 55.1957 25.9763 59.4512 27.8401C62.454 29.1552 65.3987 31.7863 66.0885 35.6453C66.2656 36.6359 66.3036 37.7222 66.8018 38.5266C67.43 39.5408 68.632 39.7702 69.6217 39.4134C69.6316 39.4099 69.6415 39.4062 69.6514 39.4026C69.8185 39.3317 69.999 39.3247 70.1694 39.3826C70.3399 39.4404 70.4924 39.5604 70.6073 39.727C70.7222 39.8937 70.7941 40.0992 70.8139 40.3172C70.8336 40.5351 70.8002 40.7554 70.718 40.9496L69.8684 42.9167C70.9394 43.213 72.0523 43.1836 73.1122 42.831C73.2882 42.7737 73.4743 42.7854 73.6448 42.8645C73.8153 42.9437 73.9619 43.0863 74.0645 43.273C74.1671 43.4596 74.2206 43.6811 74.2178 43.9071C74.215 44.133 74.156 44.3523 74.0488 44.5349C71.2472 49.3099 66.5667 52.3933 61.7903 52.3571C58.3956 52.3314 54.9659 50.8789 51.6621 51.8481C50.384 52.223 49.1897 52.9483 48.1668 53.971C47.144 54.9936 46.3185 56.2876 45.7511 57.7579C45.1836 59.2282 44.8885 60.8376 44.8874 62.4679C44.8863 64.0983 45.1793 65.7083 45.7448 67.1798C44.7298 65.8016 42.7678 66.1279 41.7296 67.4791C40.6914 68.8304 40.4226 70.8472 40.5272 72.71C40.6872 75.5591 41.5864 78.2438 42.5344 80.8567C34.5866 80.5461 27.0692 73.6249 24.5389 64.2638C21.9979 54.8636 24.6609 43.6565 30.9048 37.4731Z" fill="#2F2E41"/>
<path opacity="0.2" d="M18.3896 129.265L23.6299 164.66L26.7742 165L18.3896 129.265Z" fill="black"/>
<path opacity="0.2" d="M76.113 126.596L70.8727 164.635L67.7283 165L76.113 126.596Z" fill="black"/>
<path d="M35.3744 25.5611C34.3697 26.0819 33.3212 25.5111 32.8816 24.204C32.4351 22.8768 32.8521 21.5295 33.873 21.0003C34.8939 20.4711 35.9237 21.0433 36.3773 22.3919C36.8241 23.7202 36.4117 25.0234 35.3744 25.5611ZM33.4497 18.388L32.6508 18.8022C32.4513 18.9044 32.228 18.9099 32.0253 18.8176C31.8227 18.7253 31.6552 18.542 31.5562 18.3038L31.5167 18.2078C30.6571 16.2833 30.5587 13.9443 31.2257 11.2595C31.8437 8.85112 32.1003 7.1573 31.5842 5.62278C30.9874 3.8486 29.7131 3.29283 28.088 4.09792C27.4577 4.42463 27.2572 4.41943 26.7612 5.03024C26.6533 5.16472 26.5247 5.27086 26.383 5.34231C26.2414 5.41377 26.0896 5.44908 25.9367 5.44615C25.7889 5.44399 25.643 5.4049 25.5077 5.33123C25.3723 5.25755 25.2503 5.15078 25.1489 5.01731C24.9535 4.76007 24.8441 4.4204 24.8426 4.06687C24.8412 3.71334 24.9479 3.37231 25.1411 3.11264C25.9748 2.02925 26.9804 1.17216 28.0943 0.595436C31.5859 -1.21448 33.3435 1.4576 34.1479 3.84886C34.9346 6.18778 34.492 8.35791 33.781 11.1684C33.1851 13.5038 33.2198 15.2343 33.8967 16.9549C33.9456 17.085 33.9727 17.226 33.9766 17.3695C33.9805 17.5129 33.961 17.6559 33.9192 17.7897C33.8775 17.9236 33.8144 18.0456 33.7337 18.1484C33.653 18.2512 33.5564 18.3327 33.4497 18.388Z" fill="#006466"/>
<path d="M122.108 36.294H105.139C105.085 36.2945 105.032 36.2817 104.982 36.2564C104.932 36.2311 104.886 36.1938 104.848 36.1466C104.81 36.0995 104.78 36.0434 104.759 35.9816C104.738 35.9198 104.727 35.8536 104.727 35.7866C104.727 35.7197 104.738 35.6535 104.759 35.5917C104.78 35.5299 104.81 35.4738 104.848 35.4266C104.886 35.3795 104.932 35.3422 104.982 35.3169C105.032 35.2916 105.085 35.2788 105.139 35.2792H122.108C122.216 35.2802 122.319 35.334 122.395 35.4291C122.471 35.5241 122.514 35.6527 122.514 35.7866C122.514 35.9206 122.471 36.0491 122.395 36.1442C122.319 36.2393 122.216 36.2931 122.108 36.294Z" fill="#006466"/>
<path d="M143.634 36.4632H126.665C126.611 36.4636 126.558 36.4508 126.508 36.4255C126.458 36.4002 126.412 36.3629 126.374 36.3158C126.336 36.2686 126.306 36.2125 126.285 36.1507C126.264 36.089 126.253 36.0227 126.253 35.9558C126.253 35.8888 126.264 35.8226 126.285 35.7608C126.306 35.699 126.336 35.6429 126.374 35.5958C126.412 35.5486 126.458 35.5113 126.508 35.486C126.558 35.4607 126.611 35.4479 126.665 35.4484H143.634C143.688 35.4479 143.741 35.4607 143.791 35.486C143.841 35.5113 143.886 35.5486 143.925 35.5958C143.963 35.6429 143.993 35.699 144.014 35.7608C144.035 35.8226 144.045 35.8888 144.045 35.9558C144.045 36.0227 144.035 36.089 144.014 36.1507C143.993 36.2125 143.963 36.2686 143.925 36.3158C143.886 36.3629 143.841 36.4002 143.791 36.4255C143.741 36.4508 143.688 36.4636 143.634 36.4632Z" fill="#006466"/>
<path d="M165.16 36.6323H148.191C148.083 36.6314 147.98 36.5775 147.904 36.4825C147.828 36.3874 147.785 36.2589 147.785 36.1249C147.785 35.9909 147.828 35.8624 147.904 35.7673C147.98 35.6723 148.083 35.6184 148.191 35.6175H165.16C165.214 35.617 165.267 35.6298 165.317 35.6551C165.367 35.6804 165.412 35.7177 165.451 35.7649C165.489 35.812 165.519 35.8681 165.54 35.9299C165.561 35.9917 165.571 36.058 165.571 36.1249C165.571 36.1918 165.561 36.2581 165.54 36.3199C165.519 36.3817 165.489 36.4377 165.451 36.4849C165.412 36.5321 165.367 36.5694 165.317 36.5947C165.267 36.6199 165.214 36.6327 165.16 36.6323Z" fill="#006466"/>
<path d="M186.686 36.8014H169.717C169.609 36.8005 169.506 36.7466 169.43 36.6516C169.354 36.5565 169.311 36.428 169.311 36.294C169.311 36.16 169.354 36.0315 169.43 35.9364C169.506 35.8414 169.609 35.7875 169.717 35.7866H186.686C186.794 35.7875 186.897 35.8414 186.973 35.9364C187.049 36.0315 187.092 36.16 187.092 36.294C187.092 36.428 187.049 36.5565 186.973 36.6516C186.897 36.7466 186.794 36.8005 186.686 36.8014Z" fill="#006466"/>
<path d="M113.586 31.6245C115.328 31.6245 116.74 29.8716 116.74 27.7093C116.74 25.5471 115.328 23.7942 113.586 23.7942C111.844 23.7942 110.432 25.5471 110.432 27.7093C110.432 29.8716 111.844 31.6245 113.586 31.6245Z" fill="#006466"/>
<path d="M135.242 31.6245C136.984 31.6245 138.396 29.8716 138.396 27.7093C138.396 25.5471 136.984 23.7942 135.242 23.7942C133.5 23.7942 132.088 25.5471 132.088 27.7093C132.088 29.8716 133.5 31.6245 135.242 31.6245Z" fill="#006466"/>
<path d="M156.898 31.6245C158.64 31.6245 160.052 29.8716 160.052 27.7093C160.052 25.5471 158.64 23.7942 156.898 23.7942C155.156 23.7942 153.744 25.5471 153.744 27.7093C153.744 29.8716 155.156 31.6245 156.898 31.6245Z" fill="#006466"/>
<path d="M178.554 31.6245C180.296 31.6245 181.708 29.8716 181.708 27.7093C181.708 25.5471 180.296 23.7942 178.554 23.7942C176.812 23.7942 175.4 25.5471 175.4 27.7093C175.4 29.8716 176.812 31.6245 178.554 31.6245Z" fill="#006466"/>
</g>
<defs>
<clipPath id="clip0_992_8871">
<rect width="200" height="165" fill="white"/>
</clipPath>
</defs>
</svg>
