<svg width="35" height="35" viewBox="0 0 35 35" fill="none" xmlns="http://www.w3.org/2000/svg">
<circle cx="17.5" cy="17.5" r="17.5" fill="#E5EFF0"/>
<path d="M23.0898 13.25H21.125C20.4336 13.25 19.875 13.8086 19.875 14.5C19.875 15.1914 20.4336 15.75 21.125 15.75H26.125C26.8164 15.75 27.375 15.1914 27.375 14.5V9.5C27.375 8.80859 26.8164 8.25 26.125 8.25C25.4336 8.25 24.875 8.80859 24.875 9.5V11.5L24.1875 10.8125C20.7695 7.39453 15.2305 7.39453 11.8125 10.8125C8.39453 14.2305 8.39453 19.7695 11.8125 23.1875C15.2305 26.6055 20.7695 26.6055 24.1875 23.1875C24.6758 22.6992 24.6758 21.9062 24.1875 21.418C23.6992 20.9297 22.9062 20.9297 22.418 21.418C19.9766 23.8594 16.0195 23.8594 13.5781 21.418C11.1367 18.9766 11.1367 15.0195 13.5781 12.5781C16.0195 10.1367 19.9766 10.1367 22.418 12.5781L23.0898 13.25Z" fill="#006466"/>
</svg>
