<svg width="200" height="200" viewBox="0 0 200 200" fill="none" xmlns="http://www.w3.org/2000/svg">
<g clip-path="url(#clip0_985_8621)">
<path d="M54.0479 18.4398C54.8584 16.1468 56.6061 14.7874 57.95 15.4011C59.2939 16.0148 59.7271 18.3738 58.9166 20.6668C58.6042 21.5873 58.0944 22.4055 57.4254 23.0522L53.877 32.7125L49.7303 30.6373L53.6677 21.3332C53.5793 20.3402 53.709 19.3471 54.045 18.4365L54.0479 18.4398Z" fill="#A0616A"/>
<path d="M39.1795 80.1135C39.1795 80.1135 33.2292 76.8868 33.6418 74.5707C34.0544 72.2513 51.7815 22.8575 51.7815 22.8575L59.9894 28.8953L39.1795 80.1168V80.1135Z" fill="#E6E6E6"/>
<path d="M128.425 200H71.5098C63.2313 200 56.497 192.461 56.497 183.193V16.8066C56.497 7.53889 63.2313 0 71.5098 0H128.425C136.704 0 143.438 7.53889 143.438 16.8066V183.193C143.438 192.461 136.704 200 128.425 200Z" fill="#D7D7D8"/>
<path d="M128.467 195.45H71.4686C65.3415 195.45 60.3549 189.868 60.3549 183.009V16.6647C60.3549 9.80549 65.3415 4.22308 71.4686 4.22308H128.467C134.594 4.22308 139.58 9.80549 139.58 16.6647V183.009C139.58 189.868 134.594 195.45 128.467 195.45Z" fill="white"/>
<path d="M108.028 15.2955H91.9101C89.7822 15.2955 88.0522 13.3588 88.0522 10.9767C88.0522 8.59465 89.7822 6.65796 91.9101 6.65796H108.028C110.156 6.65796 111.886 8.59465 111.886 10.9767C111.886 13.3588 110.156 15.2955 108.028 15.2955Z" fill="#D7D7D8"/>
<path d="M126.908 66.5765H73.0306C70.5923 66.5765 68.6157 68.7885 68.6157 71.5172C68.6157 74.2458 70.5923 76.4579 73.0306 76.4579H126.908C129.346 76.4579 131.322 74.2458 131.322 71.5172C131.322 68.7885 129.346 66.5765 126.908 66.5765Z" fill="#006466"/>
<path d="M88.5149 58.3646H70.6875C70.2627 58.3646 69.9183 58.7501 69.9183 59.2257C69.9183 59.7013 70.2627 60.0868 70.6875 60.0868H88.5149C88.9397 60.0868 89.2841 59.7013 89.2841 59.2257C89.2841 58.7501 88.9397 58.3646 88.5149 58.3646Z" fill="#006466"/>
<path d="M126.908 100.028H73.0306C70.5923 100.028 68.6157 102.24 68.6157 104.969C68.6157 107.697 70.5923 109.909 73.0306 109.909H126.908C129.346 109.909 131.322 107.697 131.322 104.969C131.322 102.24 129.346 100.028 126.908 100.028Z" fill="#D7D7D8"/>
<path d="M88.5149 91.8128H70.6875C70.2627 91.8128 69.9183 92.1983 69.9183 92.6739C69.9183 93.1495 70.2627 93.535 70.6875 93.535H88.5149C88.9397 93.535 89.2841 93.1495 89.2841 92.6739C89.2841 92.1983 88.9397 91.8128 88.5149 91.8128Z" fill="#D7D7D8"/>
<path d="M126.908 133.476H73.0306C70.5923 133.476 68.6157 135.688 68.6157 138.417C68.6157 141.146 70.5923 143.358 73.0306 143.358H126.908C129.346 143.358 131.322 141.146 131.322 138.417C131.322 135.688 129.346 133.476 126.908 133.476Z" fill="#D7D7D8"/>
<path d="M88.5149 125.264H70.6875C70.2627 125.264 69.9183 125.65 69.9183 126.125C69.9183 126.601 70.2627 126.987 70.6875 126.987H88.5149C88.9397 126.987 89.2841 126.601 89.2841 126.125C89.2841 125.65 88.9397 125.264 88.5149 125.264Z" fill="#D7D7D8"/>
<path d="M158.542 40.7133C158.542 40.7133 152.465 41.482 152.073 52.0134C151.746 60.7895 151.08 65.6824 154.269 67.5135C155.41 68.1668 156.75 68.2261 157.968 67.7774L170.988 62.9836C170.988 62.9836 171.186 47.1832 166.677 43.3462C162.167 39.5058 158.542 40.7133 158.542 40.7133Z" fill="#2F2E41"/>
<path d="M165.722 64.9235L159.132 67.3485V56.7314H165.109L165.722 64.9235Z" fill="#FFB6B6"/>
<path d="M145.578 125.205C145.221 127.637 143.771 129.382 142.342 129.101C140.912 128.821 140.04 126.62 140.4 124.185C140.529 123.212 140.874 122.288 141.405 121.5L143.037 111.216L147.482 112.259L145.398 122.285C145.672 123.235 145.734 124.235 145.578 125.205Z" fill="#FFB6B6"/>
<path d="M181.501 124.024C181.94 126.439 181.135 128.646 179.709 128.953C178.282 129.26 176.77 127.547 176.334 125.132C176.149 124.169 176.178 123.173 176.42 122.222L174.684 111.958L179.169 111.163L180.404 121.365C180.961 122.143 181.336 123.054 181.501 124.024Z" fill="#FFB6B6"/>
<path d="M163.243 183.794H157.072V193.596H163.243V183.794Z" fill="#FFB6B6"/>
<path d="M151.062 199.531C150.414 199.531 149.836 199.515 149.4 199.469C147.762 199.301 146.197 197.945 145.41 197.153C145.056 196.796 144.944 196.229 145.127 195.741C145.26 195.391 145.522 195.127 145.849 195.025L150.181 193.639L157.196 188.34L157.275 188.499C157.305 188.558 157.994 189.947 158.224 190.884C158.312 191.24 158.289 191.537 158.156 191.768C158.065 191.927 157.935 192.019 157.832 192.072C157.959 192.22 158.357 192.524 159.583 192.742C161.372 193.058 161.749 190.983 161.764 190.897L161.775 190.828L161.828 190.788C162.68 190.175 163.205 189.894 163.385 189.954C163.497 189.99 163.685 190.056 164.195 195.708C164.245 195.886 164.602 197.186 164.36 198.43C164.098 199.782 158.816 199.317 157.758 199.211C157.729 199.215 153.774 199.531 151.065 199.531H151.062Z" fill="#2F2E41"/>
<path d="M180.814 176.094L175.578 179.75L180.211 188.067L185.448 184.412L180.814 176.094Z" fill="#FFB6B6"/>
<path d="M173.862 198.189C173.137 198.189 172.471 198.09 171.996 197.997C171.53 197.905 171.165 197.489 171.088 196.968C171.035 196.592 171.133 196.212 171.362 195.932L174.383 192.191L177.831 183.54L177.973 183.626C178.026 183.659 179.267 184.427 179.906 185.087C180.151 185.338 180.272 185.605 180.266 185.879C180.263 186.07 180.198 186.222 180.133 186.331C180.31 186.384 180.79 186.404 181.934 185.862C183.602 185.074 182.942 183.088 182.912 183.005L182.889 182.939L182.915 182.877C183.349 181.851 183.658 181.303 183.841 181.247C183.956 181.21 184.144 181.154 187.248 185.651C187.374 185.77 188.291 186.664 188.674 187.862C189.09 189.165 184.389 191.9 183.443 192.435C183.413 192.461 178.495 196.463 176.473 197.601C175.671 198.053 174.722 198.192 173.859 198.192L173.862 198.189Z" fill="#2F2E41"/>
<path d="M167.788 101.823H150.508L148.94 119.817L155.801 186.305H164.622L161.095 147.904L175.403 182.573L183.242 176.43L172.07 144.064C172.07 144.064 176.06 115.868 172.924 108.844C169.789 101.823 167.788 101.823 167.788 101.823Z" fill="#2F2E41"/>
<path d="M176.381 102.922H146.394L157.175 63.2046H169.131L176.381 102.922Z" fill="#006466"/>
<path d="M159.061 63.2112C159.061 63.2112 151.614 62.9902 150.83 65.1875C150.046 67.3815 140.833 119.606 140.833 119.606H146.91L159.064 63.2112H159.061Z" fill="#006466"/>
<path d="M163.906 63.2574C163.906 63.2574 170.467 62.327 171.251 64.521C172.034 66.7151 181.247 118.94 181.247 118.94H175.17L163.906 63.2574Z" fill="#006466"/>
<path d="M159.948 59.6711C163.575 59.6711 166.514 56.38 166.514 52.3203C166.514 48.2605 163.575 44.9694 159.948 44.9694C156.322 44.9694 153.382 48.2605 153.382 52.3203C153.382 56.38 156.322 59.6711 159.948 59.6711Z" fill="#FFB6B6"/>
<path d="M158.15 43.455C158.15 43.455 154.537 59.8822 158.554 67.5597L152.896 66.2136C152.896 66.2136 150.703 48.2357 155.112 44.9661L158.15 43.4517V43.455Z" fill="#2F2E41"/>
<path d="M200 199.139C200 199.413 199.803 199.634 199.558 199.634H0.442074C0.19746 199.634 0 199.413 0 199.139C0 198.865 0.19746 198.644 0.442074 198.644H199.558C199.803 198.644 200 198.865 200 199.139Z" fill="#2E2E41"/>
<path d="M33.9218 57.6486L41.4694 60.4266V48.2621H34.6202L33.9218 57.6486Z" fill="#A0616A"/>
<path d="M40.5352 51.6274C44.689 51.6274 48.0563 47.8577 48.0563 43.2076C48.0563 38.5575 44.689 34.7878 40.5352 34.7878C36.3814 34.7878 33.014 38.5575 33.014 43.2076C33.014 47.8577 36.3814 51.6274 40.5352 51.6274Z" fill="#A0616A"/>
<path d="M38.6196 43.8674L39.657 45.2762L41.5314 41.6008C41.5314 41.6008 43.9245 41.7394 43.9245 39.7499C43.9245 37.7604 46.1201 37.7043 46.1201 37.7043C46.1201 37.7043 49.2293 31.627 42.7898 33.2272C42.7898 33.2272 38.3219 29.8025 36.1027 32.729C36.1027 32.729 29.2918 36.5694 31.2399 43.2537L34.4788 50.146L35.2127 48.5854C35.2127 48.5854 34.7676 42.0363 38.6196 43.8608V43.8674Z" fill="#2F2E41"/>
<path d="M31.6554 193.702H37.8268V183.899H31.6554V193.702Z" fill="#A0616A"/>
<path d="M37.146 199.317C36.0909 199.423 30.8096 199.891 30.5443 198.535C30.3027 197.291 30.6593 195.991 30.7094 195.813C31.2163 190.158 31.4049 190.096 31.5198 190.059C31.6996 190 32.2242 190.28 33.0759 190.894L33.129 190.934L33.1408 191.003C33.1555 191.092 33.5328 193.167 35.3217 192.847C36.5477 192.629 36.9456 192.326 37.0723 192.177C36.9691 192.125 36.8395 192.032 36.7481 191.874C36.6155 191.643 36.5919 191.346 36.6803 190.99C36.9102 190.049 37.5998 188.66 37.6293 188.604L37.7089 188.446L44.7231 193.745L49.0554 195.13C49.3826 195.236 49.6449 195.496 49.7775 195.846C49.9602 196.334 49.8482 196.902 49.4946 197.258C48.7077 198.05 47.1457 199.406 45.5041 199.574C45.0679 199.621 44.4903 199.637 43.8419 199.637C41.1335 199.637 37.1784 199.324 37.1489 199.317H37.146Z" fill="#2F2E41"/>
<path d="M45.7104 99.3913L29.5217 98.4642C29.5217 98.4642 27.0402 108.996 30.1759 119.969L30.5532 186.051H39.7012L48.3245 117.884L45.7104 99.3913Z" fill="#2F2E41"/>
<path d="M42.9784 55.3127L34.0927 50.0338C34.0927 50.0338 24.5174 65.6989 25.8407 74.1847C27.1669 82.6704 29.5187 98.4675 29.5187 98.4675L49.1203 99.3946L45.6986 68.2855L42.9784 55.3127Z" fill="#E6E6E6"/>
<path d="M36.0467 193.702H42.218V183.899H36.0467V193.702Z" fill="#A0616A"/>
<path d="M41.5373 199.317C40.4822 199.423 35.2009 199.891 34.9356 198.535C34.694 197.291 35.0506 195.991 35.1007 195.813C35.6076 190.158 35.7962 190.096 35.9111 190.059C36.0909 190 36.6155 190.28 37.4672 190.894L37.5203 190.934L37.5321 191.003C37.5468 191.092 37.924 193.167 39.713 192.847C40.939 192.629 41.3369 192.326 41.4636 192.177C41.3604 192.125 41.2308 192.032 41.1394 191.874C41.0068 191.643 40.9832 191.346 41.0716 190.99C41.3015 190.049 41.9911 188.66 42.0206 188.604L42.1002 188.446L49.1144 193.745L53.4467 195.13C53.7739 195.236 54.0362 195.496 54.1688 195.846C54.3515 196.334 54.2395 196.902 53.8858 197.258C53.099 198.05 51.537 199.406 49.8954 199.574C49.4592 199.621 48.8816 199.637 48.2332 199.637C45.5248 199.637 41.5697 199.324 41.5402 199.317H41.5373Z" fill="#2F2E41"/>
<path d="M49.1203 99.3913L29.5187 98.4642C29.5187 98.4642 27.0372 108.996 30.173 119.969L33.9631 186.051H43.111L51.7344 117.884L49.1203 99.3913Z" fill="#2F2E41"/>
<path d="M56.6503 116.647C57.3723 118.976 56.8389 121.282 55.4626 121.8C54.0862 122.315 52.3857 120.847 51.6637 118.514C51.3631 117.587 51.2746 116.594 51.4043 115.617L48.466 105.703L52.816 104.248L55.2533 114.175C55.8987 114.865 56.3791 115.713 56.6532 116.647H56.6503Z" fill="#A0616A"/>
<path d="M31.9885 59.0409C31.9885 59.0409 38.3779 57.1405 39.4182 59.1993C40.4556 61.258 55.7956 111.645 55.7956 111.645L46.0582 113.064L31.9914 59.0409H31.9885Z" fill="#E6E6E6"/>
</g>
<defs>
<clipPath id="clip0_985_8621">
<rect width="200" height="200" fill="white"/>
</clipPath>
</defs>
</svg>
