<svg width="95" height="95" viewBox="0 0 95 95" fill="none" xmlns="http://www.w3.org/2000/svg">
<rect x="18" y="17" width="60" height="60" rx="30" fill="#006466"/>
<g clip-path="url(#clip0_1283_25605)">
<path d="M51 38C51.5046 37.9998 51.9906 38.1904 52.3605 38.5335C52.7305 38.8766 52.9572 39.3468 52.995 39.85L53 40C53 40.2449 53.09 40.4813 53.2527 40.6644C53.4155 40.8474 53.6397 40.9643 53.883 40.993L54 41H55C55.7652 41 56.5015 41.2923 57.0583 41.8173C57.615 42.3422 57.9501 43.0601 57.995 43.824L58 44V53C58 53.7652 57.7077 54.5015 57.1827 55.0583C56.6578 55.615 55.9399 55.9501 55.176 55.995L55 56H41C40.2348 56 39.4985 55.7077 38.9417 55.1827C38.385 54.6578 38.0499 53.9399 38.005 53.176L38 53V44C38 43.2348 38.2923 42.4985 38.8173 41.9417C39.3422 41.385 40.0601 41.0499 40.824 41.005L41 41H42C42.2652 41 42.5196 40.8946 42.7071 40.7071C42.8946 40.5196 43 40.2652 43 40C42.9998 39.4954 43.1904 39.0094 43.5335 38.6395C43.8766 38.2695 44.3468 38.0428 44.85 38.005L45 38H51ZM48 45C47.2566 44.9999 46.5396 45.2759 45.9881 45.7744C45.4366 46.2729 45.0898 46.9584 45.015 47.698L45.004 47.85L45 48L45.004 48.15C45.0333 48.7362 45.234 49.301 45.5812 49.7743C45.9283 50.2476 46.4067 50.6087 46.957 50.8128C47.5074 51.0169 48.1055 51.0551 48.6773 50.9226C49.2491 50.7901 49.7695 50.4928 50.174 50.0675C50.5786 49.6422 50.8494 49.1076 50.9531 48.5298C51.0568 47.9521 50.9887 47.3566 50.7572 46.8172C50.5258 46.2778 50.1412 45.8181 49.6511 45.4951C49.1611 45.1721 48.587 45 48 45Z" fill="#E5EFF0"/>
</g>
<path d="M40.0853 10.222C44.9813 9.27292 50.014 9.27292 54.91 10.222C55.5271 10.3451 56.07 10.7081 56.4197 11.2311C56.7694 11.7542 56.8972 12.3946 56.7751 13.0118C56.6531 13.6291 56.2911 14.1726 55.7686 14.5232C55.2462 14.8738 54.606 15.0027 53.9885 14.8818C49.7011 14.052 45.2943 14.052 41.0068 14.8818C40.4021 14.9738 39.7852 14.829 39.2846 14.4776C38.784 14.1261 38.4383 13.595 38.3195 12.995C38.2007 12.395 38.318 11.7723 38.647 11.2566C38.9759 10.7409 39.4911 10.372 40.0853 10.2268M65.3173 16.5585C65.4909 16.2992 65.714 16.0767 65.9736 15.9037C66.2333 15.7306 66.5245 15.6104 66.8307 15.55C67.1368 15.4896 67.4519 15.4901 67.7578 15.5514C68.0638 15.6128 68.3546 15.7339 68.6138 15.9078C72.7594 18.6838 76.321 22.2453 79.097 26.391C79.277 26.65 79.4035 26.9423 79.4692 27.2507C79.535 27.5592 79.5386 27.8776 79.48 28.1875C79.4213 28.4973 79.3016 28.7924 79.1277 29.0555C78.9538 29.3186 78.7292 29.5444 78.4671 29.7198C78.205 29.8952 77.9106 30.0166 77.601 30.0769C77.2915 30.1373 76.9731 30.1354 76.6643 30.0714C76.3554 30.0074 76.0625 29.8825 75.8025 29.704C75.5424 29.5256 75.3206 29.2971 75.1498 29.032C72.7193 25.4032 69.6016 22.2855 65.9728 19.855C65.7131 19.6817 65.4902 19.459 65.3167 19.1995C65.1432 18.94 65.0225 18.6488 64.9617 18.3426C64.9008 18.0365 64.9008 17.7213 64.9619 17.4152C65.0229 17.109 65.1437 16.8179 65.3173 16.5585ZM29.678 16.5585C29.8519 16.8176 29.973 17.1085 30.0343 17.4145C30.0957 17.7204 30.0962 18.0355 30.0358 18.3416C29.9753 18.6477 29.8552 18.939 29.6821 19.1987C29.5091 19.4583 29.2866 19.6814 29.0273 19.855C25.3976 22.2822 22.2783 25.3966 19.8455 29.0225C19.4829 29.5151 18.9443 29.8488 18.3417 29.9541C17.7392 30.0594 17.1192 29.9282 16.6111 29.5877C16.1029 29.2473 15.7456 28.724 15.6137 28.1267C15.4818 27.5294 15.5855 26.9043 15.903 26.3815C18.6778 22.2364 22.2377 18.6749 26.3815 15.8983C26.6407 15.7244 26.9315 15.6033 27.2375 15.5419C27.5434 15.4806 27.8585 15.4801 28.1646 15.5405C28.4708 15.6009 28.762 15.7211 29.0217 15.8942C29.2814 16.0672 29.5044 16.2897 29.678 16.549M13.0103 38.209C13.3167 38.2692 13.6082 38.3893 13.8682 38.5623C14.1282 38.7353 14.3515 38.9579 14.5253 39.2174C14.6991 39.4768 14.8201 39.7679 14.8813 40.0742C14.9424 40.3804 14.9426 40.6957 14.8818 41.002C14.0514 45.291 14.0514 49.6995 14.8818 53.9885C15.0028 54.6059 14.8738 55.2461 14.5232 55.7686C14.1727 56.291 13.6291 56.653 13.0119 56.7751C12.3946 56.8972 11.7542 56.7693 11.2311 56.4196C10.7081 56.07 10.3452 55.527 10.222 54.91C9.27234 50.0125 9.27234 44.9781 10.222 40.0805C10.3448 39.4635 10.7073 38.9204 11.2301 38.5705C11.7528 38.2205 12.3931 38.0922 13.0103 38.2138M81.9803 38.2138C82.2866 38.1529 82.6019 38.1531 82.9081 38.2143C83.2143 38.2755 83.5055 38.3964 83.7649 38.5702C84.0244 38.7441 84.247 38.9674 84.42 39.2273C84.593 39.4873 84.7131 39.7788 84.7733 40.0853C85.7233 44.8828 85.7233 50.1125 84.7733 54.9147C84.725 55.2318 84.613 55.5359 84.444 55.8085C84.275 56.0811 84.0526 56.3167 83.7901 56.501C83.5275 56.6853 83.2304 56.8145 82.9166 56.8809C82.6028 56.9472 82.2788 56.9493 81.9641 56.887C81.6495 56.8247 81.3507 56.6994 81.0859 56.5185C80.821 56.3376 80.5955 56.1049 80.423 55.8345C80.2505 55.5641 80.1346 55.2615 80.0822 54.945C80.0299 54.6286 80.0421 54.3048 80.1183 53.9932C80.9485 49.7042 80.9485 45.2958 80.1183 41.0068C79.9967 40.3895 80.125 39.7493 80.475 39.2265C80.825 38.7038 81.3681 38.3413 81.985 38.2185M16.5585 65.3268C17.0815 64.9771 17.7219 64.8493 18.339 64.9713C18.9561 65.0933 19.4997 65.4552 19.8503 65.9775C22.282 69.6069 25.4014 72.7246 29.032 75.1545C29.5555 75.5053 29.9181 76.0498 30.0401 76.668C30.1622 77.2862 30.0336 77.9276 29.6828 78.451C29.3319 78.9744 28.7875 79.3371 28.1693 79.4591C27.5511 79.5811 26.9097 79.4526 26.3863 79.1017C22.2407 76.3256 18.6792 72.7641 15.903 68.6185C15.5539 68.0949 15.4268 67.4542 15.5497 66.837C15.6726 66.2198 16.0355 65.6766 16.5585 65.3268ZM78.451 65.3268C78.9734 65.6774 79.3352 66.2209 79.4572 66.838C79.5792 67.4552 79.4514 68.0955 79.1018 68.6185C76.3257 72.7642 72.7642 76.3257 68.6185 79.1017C68.0958 79.4193 67.4706 79.5229 66.8734 79.391C66.2761 79.2592 65.7527 78.9019 65.4123 78.3937C65.0719 77.8855 64.9406 77.2656 65.0459 76.6631C65.1512 76.0605 65.4849 75.5219 65.9775 75.1592C69.6068 72.7273 72.7245 69.608 75.1545 65.9775C75.3282 65.7182 75.5512 65.4957 75.8109 65.3227C76.0706 65.1496 76.3618 65.0294 76.6679 64.969C76.9741 64.9086 77.2891 64.9091 77.5951 64.9704C77.901 65.0318 78.1919 65.1529 78.451 65.3268ZM38.2185 81.9897C38.2793 81.6838 38.3998 81.3927 38.573 81.1333C38.7463 80.8739 38.9689 80.6511 39.2283 80.4778C39.4877 80.3044 39.7787 80.1839 40.0846 80.123C40.3906 80.0621 40.7056 80.0621 41.0115 80.123C45.299 80.953 49.7058 80.953 53.9933 80.123C54.598 80.0309 55.2149 80.1757 55.7155 80.5272C56.2161 80.8786 56.5618 81.4097 56.6806 82.0097C56.7994 82.6098 56.6821 83.2325 56.3531 83.7482C56.0242 84.2639 55.509 84.6327 54.9148 84.778C50.0188 85.7271 44.986 85.7271 40.09 84.778C39.4722 84.6563 38.9279 84.2942 38.577 83.7714C38.226 83.2485 38.0971 82.6077 38.2185 81.9897Z" fill="#B2D1D1"/>
<defs>
<clipPath id="clip0_1283_25605">
<rect width="24" height="24" fill="white" transform="translate(36 35)"/>
</clipPath>
</defs>
</svg>
