<svg width="110" height="100" viewBox="0 0 110 100" fill="none" xmlns="http://www.w3.org/2000/svg">
<path d="M55.0017 92.723C51.1747 92.7265 47.3615 92.3055 43.6466 91.4693C43.4992 91.4357 43.3723 91.3505 43.2936 91.2323C43.2148 91.1141 43.1905 90.9724 43.226 90.8381C43.2631 90.7017 43.3579 90.5842 43.4897 90.5109C43.6215 90.4377 43.7798 90.4146 43.9302 90.4468C49.4787 91.6874 55.2309 91.9888 60.8994 91.336C60.9747 91.326 61.0514 91.3299 61.1251 91.3475C61.1987 91.3651 61.2677 91.3959 61.3279 91.4382C61.3881 91.4806 61.4384 91.5334 61.4757 91.5938C61.513 91.6541 61.5365 91.7207 61.5449 91.7894C61.5643 91.9274 61.5226 92.0667 61.4291 92.1767C61.3356 92.2868 61.1978 92.3585 61.0461 92.3763C59.0414 92.608 57.0226 92.7238 55.0017 92.723ZM64.3812 91.8339C64.2493 91.834 64.1216 91.7923 64.0198 91.7161C63.9181 91.6398 63.8487 91.5337 63.8237 91.416C63.808 91.3483 63.8072 91.2784 63.8213 91.2104C63.8355 91.1423 63.8643 91.0775 63.9061 91.0196C63.9479 90.9618 64.0019 90.912 64.065 90.8732C64.1281 90.8344 64.199 90.8074 64.2736 90.7936C66.1353 90.4486 67.9711 89.9972 69.7703 89.4421C69.8414 89.4186 69.9171 89.4086 69.9927 89.4125C70.0683 89.4165 70.1422 89.4344 70.2099 89.4652C70.2777 89.496 70.3378 89.5389 70.3866 89.5915C70.4354 89.6441 70.472 89.7052 70.494 89.7711C70.5441 89.902 70.5352 90.0456 70.4693 90.1705C70.4033 90.2955 70.2856 90.3916 70.1419 90.4379C68.2946 91.0071 66.4097 91.4704 64.4986 91.825L64.3812 91.8339ZM33.0837 87.6905C32.9881 87.6911 32.8939 87.6697 32.8098 87.6283C32.1252 87.2904 31.4503 86.9348 30.7755 86.5702C30.6484 86.4952 30.5574 86.379 30.5211 86.2453C30.4847 86.1115 30.5058 85.9702 30.5799 85.85C30.659 85.731 30.7869 85.6453 30.9355 85.612C31.0841 85.5786 31.2411 85.6003 31.3721 85.6722C32.0274 86.0278 32.6827 86.3746 33.3282 86.7036C33.396 86.7353 33.456 86.7792 33.5048 86.8325C33.5535 86.8858 33.5899 86.9475 33.6118 87.0139C33.6338 87.0803 33.6407 87.15 33.6323 87.2189C33.6239 87.2878 33.6003 87.3545 33.5629 87.4149C33.5154 87.5074 33.4391 87.5853 33.3436 87.639C33.248 87.6927 33.1373 87.7199 33.025 87.7172L33.0837 87.6905ZM84.9691 82.7558C84.8595 82.7486 84.7544 82.7131 84.6663 82.6534C84.5781 82.5937 84.5106 82.5124 84.4715 82.419C84.4325 82.3256 84.4236 82.224 84.4459 82.1261C84.4682 82.0283 84.5208 81.9383 84.5975 81.8667C85.1843 81.4221 85.7516 80.9776 86.2993 80.4974C86.3545 80.4501 86.4194 80.4132 86.4904 80.3887C86.5613 80.3643 86.6368 80.3527 86.7127 80.3548C86.7885 80.3568 86.8631 80.3725 86.9323 80.4008C87.0015 80.4291 87.0639 80.4694 87.1159 80.5197C87.1679 80.5699 87.2086 80.6289 87.2355 80.6934C87.2624 80.7579 87.2751 80.8265 87.2729 80.8955C87.2706 80.9644 87.2534 81.0323 87.2223 81.0952C87.1912 81.1581 87.1467 81.2148 87.0915 81.2621C86.5242 81.7422 85.9374 82.2135 85.3408 82.6669C85.2851 82.7113 85.2197 82.7445 85.1489 82.7644C85.0781 82.7844 85.0036 82.7905 84.93 82.7825L84.9691 82.7558ZM18.2369 76.2207C18.1484 76.2197 18.0612 76.2009 17.9817 76.1655C17.9022 76.1302 17.8324 76.0792 17.7772 76.0162C16.5709 74.6288 15.4572 73.1769 14.4421 71.6683C14.3889 71.6102 14.3502 71.5422 14.3286 71.4691C14.307 71.3961 14.303 71.3196 14.3169 71.245C14.3309 71.1705 14.3624 71.0995 14.4094 71.037C14.4563 70.9746 14.5176 70.9221 14.5889 70.8831C14.6603 70.8442 14.7401 70.8198 14.8228 70.8115C14.9055 70.8032 14.9892 70.8114 15.0682 70.8353C15.1472 70.8592 15.2195 70.8983 15.2802 70.95C15.341 71.0017 15.3887 71.0648 15.4201 71.1348C16.3853 72.6214 17.4502 74.0527 18.6086 75.4205C18.6551 75.4753 18.6892 75.5379 18.7089 75.6047C18.7287 75.6715 18.7337 75.7412 18.7237 75.8098C18.7137 75.8784 18.6889 75.9445 18.6507 76.0044C18.6124 76.0642 18.5616 76.1166 18.501 76.1584C18.4113 76.2138 18.3061 76.2447 18.1978 76.2474L18.2369 76.2207ZM94.0845 73.3399C93.9726 73.3406 93.8632 73.3095 93.7716 73.251C93.6458 73.1747 93.5573 73.0572 93.5245 72.923C93.4917 72.7888 93.5171 72.6483 93.5955 72.5308C96.7031 68.166 98.8735 63.3057 99.9919 58.2068C100.006 58.1393 100.035 58.0751 100.076 58.0178C100.118 57.9605 100.172 57.9114 100.235 57.8733C100.298 57.8352 100.368 57.8089 100.442 57.7959C100.517 57.783 100.593 57.7836 100.667 57.7978C100.741 57.8106 100.812 57.8367 100.876 57.8745C100.939 57.9122 100.994 57.961 101.037 58.018C101.079 58.075 101.109 58.139 101.125 58.2065C101.14 58.274 101.141 58.3436 101.126 58.4113C99.9765 63.6382 97.7534 68.6213 94.5735 73.0998C94.5188 73.1824 94.4413 73.2505 94.3486 73.2973C94.256 73.3441 94.1514 73.368 94.0454 73.3666L94.0845 73.3399ZM13.3662 69.1076C13.2588 69.1057 13.1539 69.0774 13.0626 69.0258C12.9714 68.9741 12.8972 68.901 12.8479 68.8142C10.2585 64.0358 8.6824 58.8567 8.20215 53.5478C8.19133 53.41 8.24072 53.2739 8.3396 53.169C8.43848 53.0642 8.57887 52.999 8.7303 52.9876C8.80561 52.9803 8.88178 52.9867 8.95432 53.0066C9.02685 53.0264 9.09428 53.0593 9.15262 53.1032C9.21097 53.1471 9.25904 53.2012 9.29401 53.2623C9.32898 53.3234 9.35015 53.3902 9.35625 53.4589C9.82166 58.638 11.358 63.6907 13.8846 68.3518C13.9194 68.4135 13.9402 68.4809 13.9457 68.55C13.9512 68.6191 13.9413 68.6885 13.9167 68.7541C13.892 68.8196 13.8531 68.88 13.8022 68.9316C13.7513 68.9832 13.6895 69.0249 13.6205 69.0543C13.5327 69.1049 13.4311 69.1326 13.3271 69.1343L13.3662 69.1076ZM101.107 55.7706H101.038C100.887 55.7529 100.749 55.6811 100.655 55.5711C100.562 55.461 100.52 55.3217 100.54 55.1838C100.767 53.4695 100.881 51.7445 100.882 50.0179C100.882 49.0754 100.882 48.1241 100.784 47.1816C100.779 47.1127 100.789 47.0435 100.813 46.9781C100.837 46.9127 100.876 46.8522 100.926 46.8002C100.975 46.7482 101.036 46.7056 101.104 46.675C101.172 46.6443 101.246 46.6261 101.322 46.6214C101.398 46.6168 101.474 46.6257 101.546 46.6477C101.618 46.6698 101.684 46.7045 101.742 46.7499C101.799 46.7953 101.846 46.8505 101.879 46.9124C101.913 46.9743 101.933 47.0416 101.938 47.1104C102.007 48.0707 102.036 49.0488 102.036 50.0179C102.038 51.801 101.92 53.5826 101.684 55.3527C101.654 55.4774 101.574 55.5877 101.461 55.663C101.347 55.7383 101.208 55.7734 101.068 55.7617L101.107 55.7706ZM9.19975 43.5984H9.11173C8.96164 43.5765 8.82712 43.5016 8.73738 43.3901C8.64765 43.2785 8.60995 43.1393 8.63248 43.0026C8.75963 42.3002 8.90634 41.6067 9.07261 40.9132C9.11388 40.7861 9.20652 40.6779 9.33192 40.6104C9.45732 40.5428 9.6062 40.5209 9.74863 40.5491C9.89106 40.5772 10.0165 40.6533 10.0997 40.7621C10.183 40.8709 10.2179 41.0043 10.1974 41.1355C10.0409 41.8112 9.89417 42.4869 9.77681 43.1716C9.75145 43.2932 9.67962 43.4027 9.57402 43.4808C9.46843 43.5589 9.33586 43.6005 9.19975 43.5984ZM96.9893 32.5464C96.8803 32.5457 96.7738 32.5169 96.6821 32.4634C96.5903 32.4099 96.5171 32.3339 96.471 32.2441C96.1482 31.6217 95.8059 30.9993 95.444 30.3947C95.3738 30.2717 95.3591 30.1286 95.4029 29.9958C95.4467 29.8631 95.5456 29.751 95.6787 29.6834C95.7455 29.6506 95.8187 29.6302 95.8942 29.6232C95.9697 29.6162 96.046 29.6228 96.1187 29.6426C96.1913 29.6624 96.259 29.6951 96.3178 29.7387C96.3765 29.7823 96.4253 29.836 96.4612 29.8968C96.8328 30.5192 97.1849 31.1505 97.5175 31.7907C97.5817 31.9171 97.589 32.0613 97.5378 32.1925C97.4867 32.3238 97.3811 32.4316 97.2436 32.4931C97.1641 32.5274 97.0773 32.5456 96.9893 32.5464ZM16.3982 27.1316C16.2949 27.1307 16.1938 27.1046 16.1054 27.0561C16.0171 27.0076 15.9446 26.9384 15.8956 26.8557C15.8467 26.7731 15.823 26.68 15.8271 26.5862C15.8312 26.4924 15.8629 26.4013 15.9189 26.3225C17.0005 24.848 18.1796 23.4346 19.4497 22.0902C19.5528 21.987 19.6957 21.9239 19.8487 21.914C20.0017 21.904 20.153 21.948 20.2713 22.0368C20.3785 22.1311 20.4422 22.2589 20.4495 22.3944C20.4567 22.5298 20.407 22.6627 20.3104 22.7659C19.0657 24.0741 17.9126 25.452 16.8579 26.8915C16.8085 26.9625 16.7409 27.0215 16.6608 27.0634C16.5807 27.1052 16.4905 27.1286 16.3982 27.1316ZM89.3508 22.0902C89.27 22.091 89.19 22.0764 89.1159 22.0473C89.0418 22.0182 88.9752 21.9752 88.9204 21.9213C85.0724 18.0792 80.4682 14.9249 75.3451 12.6209C75.2761 12.5915 75.2143 12.5498 75.1634 12.4982C75.1126 12.4466 75.0736 12.3863 75.049 12.3207C75.0243 12.2551 75.0145 12.1857 75.02 12.1166C75.0255 12.0475 75.0463 11.9802 75.0811 11.9185C75.1504 11.7951 75.2697 11.7011 75.4139 11.6563C75.5581 11.6115 75.7158 11.6194 75.8537 11.6784C81.1004 14.0427 85.8141 17.2785 89.7518 21.2188C89.8587 21.3171 89.9186 21.4497 89.9186 21.5878C89.9186 21.726 89.8587 21.8586 89.7518 21.9568C89.6929 22.006 89.6232 22.0433 89.5474 22.0663C89.4715 22.0893 89.3912 22.0974 89.3117 22.0902H89.3508ZM22.2469 20.6587C22.1702 20.6582 22.0943 20.6438 22.0238 20.6163C21.9533 20.5888 21.8895 20.5488 21.8361 20.4986C21.7292 20.4004 21.6693 20.2678 21.6693 20.1297C21.6693 19.9915 21.7292 19.8589 21.8361 19.7607C25.9818 16.0051 30.865 12.9892 36.233 10.8693C36.3731 10.8127 36.5321 10.809 36.6752 10.8591C36.8183 10.9091 36.9336 11.0087 36.9959 11.1361C37.0581 11.2634 37.0622 11.408 37.0072 11.5381C36.9521 11.6681 36.8425 11.773 36.7025 11.8296C31.4625 13.9059 26.6983 16.8587 22.6577 20.5342C22.5965 20.5825 22.5248 20.6186 22.4473 20.64C22.3698 20.6615 22.2882 20.6678 22.2078 20.6587H22.2469ZM72.4403 11.385C72.366 11.3978 72.2897 11.3978 72.2154 11.385C70.4568 10.7336 68.6534 10.1871 66.8166 9.74902C66.6688 9.71352 66.5425 9.62619 66.4655 9.50617C66.3885 9.38615 66.367 9.24325 66.4058 9.10884C66.4239 9.0417 66.4567 8.97856 66.5023 8.92317C66.5478 8.86779 66.6051 8.8213 66.6708 8.78646C66.7365 8.75162 66.8092 8.72914 66.8847 8.72037C66.9601 8.7116 67.0368 8.71672 67.11 8.73541C68.9956 9.18527 70.8478 9.74359 72.6555 10.407C72.7968 10.4601 72.9091 10.5621 72.9678 10.6904C73.0265 10.8188 73.0267 10.9631 72.9685 11.0916C72.9186 11.1877 72.8374 11.2674 72.7359 11.3199C72.6344 11.3724 72.5175 11.3952 72.4012 11.385H72.4403ZM47.5099 8.87767C47.3721 8.87887 47.2385 8.8344 47.1341 8.75258C47.0297 8.67077 46.9616 8.55721 46.9426 8.4331C46.9287 8.3658 46.9298 8.29661 46.9461 8.22973C46.9624 8.16285 46.9934 8.09968 47.0373 8.044C47.0811 7.98832 47.137 7.9413 47.2014 7.90579C47.2658 7.87028 47.3375 7.84701 47.4121 7.83738C48.1815 7.72476 48.9541 7.62695 49.7301 7.54397C49.8817 7.52898 50.0338 7.5692 50.1529 7.65584C50.272 7.74249 50.3486 7.86849 50.3658 8.00631C50.3767 8.07498 50.372 8.14496 50.352 8.21192C50.332 8.27887 50.2971 8.34138 50.2494 8.39556C50.2017 8.44974 50.1423 8.49445 50.0748 8.52691C50.0074 8.55936 49.9333 8.57888 49.8572 8.58425C49.1041 8.66428 48.351 8.76207 47.5979 8.86877L47.5099 8.87767Z" fill="#006466"/>
<path d="M71.1091 85.3553C92.588 77.2673 102.788 54.8815 93.8909 35.3553C84.994 15.8291 60.3697 6.55663 38.8909 14.6446C17.412 22.7327 7.21231 45.1184 16.1091 64.6446C25.006 84.1709 49.6303 93.4434 71.1091 85.3553Z" fill="#006466"/>
<path opacity="0.8" d="M97.088 50.0002C97.0954 55.4804 95.8047 60.8979 93.3036 65.8842C90.8024 70.8704 87.1496 75.3087 82.5933 78.897C80.7579 80.3339 78.7951 81.6305 76.725 82.7737C70.1615 86.3806 62.6379 88.2873 54.9684 88.2873C47.2988 88.2873 39.7752 86.3806 33.2117 82.7737C31.1339 81.641 29.1701 80.3438 27.3434 78.897C22.0395 74.6952 17.9797 69.3509 15.536 63.3535C13.0922 57.3561 12.3425 50.8971 13.3555 44.5681C14.3684 38.2391 17.1117 32.2422 21.3341 27.1265C25.5565 22.0108 31.1231 17.9398 37.5243 15.2862C43.9254 12.6327 50.9565 11.4813 57.9738 11.9377C64.9912 12.394 71.7704 14.4433 77.691 17.8981C83.6115 21.3529 88.4841 26.1027 91.8626 31.7127C95.2411 37.3226 97.0175 43.6134 97.0293 50.0091L97.088 50.0002Z" fill="white"/>
<path d="M82.5924 78.8968C80.757 80.3336 78.7943 81.6302 76.7242 82.7734L72.3425 70.3255C71.296 75.7226 70.0832 81.4753 69.0758 86.0899C59.9483 89.0301 49.9867 89.0301 40.8591 86.0899C39.8811 81.4753 38.639 75.7226 37.5925 70.3255L33.2108 82.7734C31.133 81.6408 29.1693 80.3435 27.3425 78.8968C28.8096 71.3836 32.2328 55.6726 35.4212 53.4231C35.4193 53.3994 35.4193 53.3756 35.4212 53.352C37.2208 51.4759 47.2849 51.0046 49.1139 48.4262C50.3071 46.7101 50.3169 42.7801 50.1799 40.3261C44.5855 34.1822 42.9717 21.2275 56.2243 21.2275C62.9435 21.2275 65.3299 26.3489 64.9778 31.6838L66.3764 35.5337H64.6942C64.6942 39.5526 64.1465 42.8868 59.5985 43.4203C59.667 45.3497 59.9506 47.3414 60.7135 48.4262C62.5131 51.0046 72.5772 51.4759 74.4062 53.352C74.408 53.3756 74.408 53.3994 74.4062 53.4231C77.7218 55.6637 81.1254 71.3836 82.5924 78.8968Z" fill="#006466"/>
<path d="M48.2226 53.9638C49.9572 47.2824 45.4055 40.5877 38.056 39.0107C30.7065 37.4338 23.3423 41.5717 21.6076 48.2531C19.873 54.9345 24.4248 61.6292 31.7743 63.2062C39.1238 64.7831 46.488 60.6451 48.2226 53.9638Z" fill="white"/>
<path d="M28.7124 53.681C30.6001 52.3651 32.0769 53.681 33.7592 54.1789C35.4414 54.6768 36.2141 56.2328 35.1187 58.429C34.0232 60.6251 30.4729 61.4698 28.8591 59.487C27.2454 57.5043 27.3236 54.6412 28.7124 53.681Z" fill="#006466"/>
<path opacity="0.8" d="M28.7124 53.681C30.6001 52.3651 32.0769 53.681 33.7592 54.1789C35.4414 54.6768 36.2141 56.2328 35.1187 58.429C34.0232 60.6251 30.4729 61.4698 28.8591 59.487C27.2454 57.5043 27.3236 54.6412 28.7124 53.681Z" fill="white"/>
<path d="M30.3651 54.6769C30.4768 54.5753 30.624 54.5126 30.7813 54.4996C30.9386 54.4866 31.0959 54.5242 31.2258 54.6057C31.6268 54.8369 31.8126 55.1925 32.3603 55.1659C33.3384 55.1214 33.6709 55.237 33.6709 55.806C33.6709 56.3751 34.649 56.6952 33.9839 57.3443C33.3188 57.9933 33.6709 58.998 32.5462 58.8824C32.1619 58.8901 31.7804 58.9439 31.4116 59.0425C31.216 59.0425 31.0889 58.9625 30.903 58.9358C30.7172 58.9091 30.3749 59.0247 30.2282 58.7935C30.0815 58.5624 30.2282 58.4734 30.1304 58.3312C30.0326 58.1889 29.6609 58.1445 29.4164 58.0378C29.29 57.9737 29.1872 57.877 29.121 57.7599C29.0549 57.6428 29.0284 57.5106 29.0448 57.3798C29.0897 57.1166 29.2151 56.8701 29.4066 56.6685C29.4751 56.5796 29.5533 56.4818 29.5142 56.384C29.4986 56.3467 29.479 56.311 29.4555 56.2773C29.3653 56.1059 29.3379 55.9127 29.3773 55.726C29.3773 55.5393 29.4653 55.3081 29.6609 55.2903C29.8565 55.2726 29.8663 55.2903 29.9446 55.2903C29.9819 55.2556 30.0088 55.2128 30.0228 55.1659C30.0894 54.9791 30.2072 54.8108 30.3651 54.6769Z" fill="#006466"/>
<path d="M35.2363 42.5581C38.9627 40.7798 44.3224 44.8165 44.1561 48.6664C43.9898 52.5164 40.7134 57.1843 35.8036 54.0546C30.8938 50.9248 30.9427 44.6653 35.2363 42.5581Z" fill="#006466"/>
<path opacity="0.8" d="M35.2363 42.5581C38.9627 40.7798 44.3224 44.8165 44.1561 48.6664C43.9898 52.5164 40.7134 57.1843 35.8036 54.0546C30.8938 50.9248 30.9427 44.6653 35.2363 42.5581Z" fill="white"/>
<path d="M41.5837 47.786C41.4661 47.5674 41.3869 47.3334 41.3489 47.0925C41.3641 46.8233 41.307 46.5548 41.1827 46.3101C41.0066 46.07 40.6545 45.9366 40.5763 45.661C40.498 45.3854 40.5763 45.3231 40.5763 45.1631C40.5763 45.0031 40.2144 44.8341 39.9601 44.763L38.4833 44.3362C38.1749 44.2174 37.8367 44.1775 37.5052 44.2206C36.8695 44.3629 36.8695 44.9586 36.2631 45.1542C35.9365 45.2135 35.6308 45.3448 35.3731 45.5365C35.3097 45.5986 35.2599 45.671 35.2264 45.7499C35.0503 46.1856 35.3633 46.7191 35.0894 47.1103C34.9438 47.2631 34.768 47.3898 34.5711 47.4837C34.4729 47.532 34.39 47.6023 34.3301 47.6878C34.2702 47.7734 34.2353 47.8715 34.2288 47.9728C34.2509 48.0966 34.3082 48.2131 34.395 48.3106C35.0894 49.1998 34.1407 50.2312 34.7667 51.0492C35.2459 51.6627 36.3609 51.5115 36.9771 52.0272C37.1727 52.1873 37.2998 52.4007 37.515 52.5518C37.8727 52.7407 38.287 52.8216 38.6984 52.783C38.8979 52.792 39.0974 52.7648 39.2853 52.703C39.6765 52.5429 39.8428 52.0894 40.2633 51.9027C40.6839 51.716 41.0653 51.7783 41.3 51.5026C41.4342 51.2675 41.4854 51.0005 41.4468 50.738C41.4468 50.2045 41.8575 49.8488 42.0238 49.3865C42.0709 49.1065 42.0563 48.8208 41.9807 48.546C41.9052 48.2713 41.7702 48.0129 41.5837 47.786Z" fill="#006466"/>
<path d="M41.1622 57.3088C41.8664 57.0954 41.6414 58.109 41.5632 58.4202C41.4077 59.2109 40.9247 59.9174 40.2135 60.3941C39.8624 60.5503 39.4793 60.6381 39.0887 60.6519C38.5312 60.7231 37.7195 60.3852 38.3259 59.8339C38.5343 59.6763 38.7833 59.5692 39.0496 59.5227C39.3125 59.4736 39.564 59.3834 39.7929 59.256C40.5558 58.7403 40.1255 57.6289 41.1622 57.3088Z" fill="#006466"/>
<path d="M23.9488 49.6354C24.0321 49.6476 24.1092 49.6833 24.1689 49.7376C24.2286 49.7919 24.2679 49.8619 24.2813 49.9377C24.4573 50.6135 24.0955 51.3426 24.2813 52.0539C24.3693 52.3562 24.741 52.943 24.2813 53.1386C24.2025 53.1648 24.1171 53.1695 24.0354 53.1521C23.9537 53.1347 23.8794 53.096 23.8216 53.0408C23.5838 52.8003 23.4008 52.5193 23.2833 52.214C23.1658 51.9088 23.1161 51.5854 23.137 51.2625C23.137 50.8891 23.2446 49.6087 23.9488 49.6354Z" fill="#006466"/>
<path d="M27.9598 47.3416C30.1507 46.7636 30.2583 52.4096 27.4219 51.2627C24.5856 50.1157 25.769 47.9106 27.9598 47.3416Z" fill="#006466"/>
<path d="M44.2042 54.4723C43.7836 53.8055 46.5222 53.3965 45.5539 54.4723C44.5856 55.5482 44.6345 55.1748 44.2042 54.4723Z" fill="#006466"/>
<path d="M30.0918 43.216C29.3876 42.2379 32.0479 41.5711 32.0479 42.807C32.0479 44.0429 30.571 43.8562 30.0918 43.216Z" fill="#006466"/>
<path opacity="0.8" d="M27.9598 47.3416C30.1507 46.7636 30.2583 52.4096 27.4219 51.2627C24.5856 50.1157 25.769 47.9106 27.9598 47.3416Z" fill="white"/>
<path opacity="0.8" d="M44.2042 54.4723C43.7836 53.8055 46.5222 53.3965 45.5539 54.4723C44.5856 55.5482 44.6345 55.1748 44.2042 54.4723Z" fill="white"/>
<path opacity="0.8" d="M30.0918 43.216C29.3876 42.2379 32.0479 41.5711 32.0479 42.807C32.0479 44.0429 30.571 43.8562 30.0918 43.216Z" fill="white"/>
</svg>
