<svg width="19" height="18" viewBox="0 0 19 18" fill="none" xmlns="http://www.w3.org/2000/svg">
<path d="M12.034 0.777988C12.3829 0.684534 12.7467 0.660712 13.1048 0.707883C13.4628 0.755054 13.8081 0.872292 14.1209 1.0529C14.4336 1.23352 14.7077 1.47397 14.9275 1.76052C15.1474 2.04707 15.3086 2.37412 15.402 2.72299L18.12 12.865C18.2135 13.2138 18.2373 13.5777 18.1901 13.9358C18.1429 14.2938 18.0257 14.6391 17.8451 14.9518C17.6645 15.2646 17.424 15.5387 17.1375 15.7585C16.8509 15.9783 16.5239 16.1396 16.175 16.233L9.89701 17.915C9.19259 18.1038 8.44204 18.005 7.81044 17.6404C7.17883 17.2759 6.71789 16.6754 6.52901 15.971L3.81001 5.82799C3.71657 5.47906 3.69279 5.11515 3.74003 4.75704C3.78726 4.39892 3.90459 4.05362 4.0853 3.74086C4.26601 3.42809 4.50657 3.154 4.79323 2.93422C5.0799 2.71445 5.40705 2.5533 5.75601 2.45999L12.034 0.777988ZM3.80101 9.65799L5.56301 16.229C5.73619 16.88 6.08245 17.4719 6.56501 17.942L6.12201 17.919C5.39374 17.8807 4.7105 17.5548 4.22254 17.0128C3.73458 16.4708 3.48188 15.7573 3.52001 15.029L3.80101 9.65799ZM12.422 2.22699L6.14401 3.90899C5.98543 3.95146 5.83677 4.02475 5.70652 4.12468C5.57627 4.22461 5.46699 4.34922 5.3849 4.49139C5.30281 4.63356 5.24953 4.7905 5.2281 4.95327C5.20667 5.11603 5.21751 5.28142 5.26001 5.43999L7.97801 15.582C8.0638 15.902 8.27314 16.1749 8.56003 16.3407C8.84693 16.5064 9.1879 16.5515 9.50801 16.466L15.787 14.784C15.9456 14.7415 16.0942 14.6682 16.2245 14.5683C16.3547 14.4684 16.464 14.3438 16.5461 14.2016C16.6282 14.0594 16.6815 13.9025 16.7029 13.7397C16.7243 13.5769 16.7135 13.4116 16.671 13.253L13.953 3.11099C13.8672 2.79095 13.6579 2.51806 13.371 2.3523C13.0841 2.18654 12.7431 2.14147 12.423 2.22699M2.87601 8.17999L2.52101 14.976C2.48401 15.675 2.64101 16.339 2.94501 16.916L2.53101 16.756C2.19383 16.6266 1.88544 16.432 1.62345 16.1834C1.36146 15.9348 1.15101 15.6371 1.0041 15.3072C0.8572 14.9772 0.776723 14.6216 0.767269 14.2606C0.757816 13.8995 0.81957 13.5402 0.949007 13.203L2.87601 8.17999ZM7.74001 5.03499C7.86686 5.00098 7.99918 4.99228 8.1294 5.00941C8.25961 5.02653 8.38518 5.06913 8.49893 5.13478C8.61268 5.20043 8.71239 5.28785 8.79236 5.39203C8.87233 5.49622 8.93099 5.61513 8.96501 5.74199C8.99902 5.86884 9.00771 6.00116 8.99059 6.13138C8.97347 6.26159 8.93086 6.38716 8.86521 6.50091C8.79956 6.61466 8.71215 6.71437 8.60796 6.79434C8.50378 6.87431 8.38486 6.93298 8.25801 6.96699C8.00181 7.03568 7.72882 6.99978 7.49908 6.86719C7.26935 6.7346 7.1017 6.51619 7.03301 6.25999C6.96432 6.00379 7.00021 5.7308 7.1328 5.50106C7.26539 5.27133 7.48381 5.10368 7.74001 5.03499Z" fill="#006466"/>
</svg>
