<svg width="100" height="100" viewBox="0 0 100 100" fill="none" xmlns="http://www.w3.org/2000/svg">
<path d="M34.2327 16.6238H33.9629V6.09422C33.9629 5.29392 33.8522 4.50145 33.6372 3.76206C33.4223 3.02268 33.1071 2.35085 32.7099 1.78495C32.3126 1.21905 31.841 0.770153 31.3219 0.46389C30.8029 0.157628 30.2465 -2.50378e-06 29.6847 0H14.0243C13.4624 -2.50378e-06 12.9061 0.157628 12.3871 0.46389C11.868 0.770153 11.3964 1.21905 10.9991 1.78495C10.6019 2.35085 10.2867 3.02268 10.0717 3.76206C9.85675 4.50145 9.74609 5.29392 9.74609 6.09423V63.8602C9.74609 64.6605 9.85675 65.4529 10.0717 66.1923C10.2867 66.9317 10.6019 67.6035 10.9991 68.1694C11.3964 68.7353 11.868 69.1842 12.3871 69.4905C12.9061 69.7968 13.4624 69.9544 14.0243 69.9544H29.6847C30.2465 69.9544 30.8029 69.7968 31.3219 69.4905C31.841 69.1842 32.3126 68.7353 32.7099 68.1694C33.1071 67.6035 33.4223 66.9317 33.6372 66.1923C33.8522 65.4529 33.9629 64.6605 33.9629 63.8602V24.1189H34.2327V16.6238Z" fill="#E6E6E6"/>
<path d="M29.8573 1.58551H27.8131C27.9071 1.91382 27.943 2.27003 27.9176 2.62276C27.8922 2.97548 27.8063 3.31389 27.6674 3.60818C27.5286 3.90247 27.3411 4.14361 27.1214 4.31035C26.9017 4.47708 26.6566 4.56431 26.4077 4.56434H17.436C17.1871 4.56431 16.942 4.47709 16.7224 4.31035C16.5027 4.14361 16.3152 3.90247 16.1763 3.60818C16.0375 3.31389 15.9516 2.97548 15.9262 2.62276C15.9008 2.27003 15.9367 1.91382 16.0307 1.58551H14.1214C13.7018 1.58551 13.2864 1.70323 12.8988 1.93194C12.5112 2.16065 12.1589 2.49588 11.8623 2.91849C11.5656 3.3411 11.3303 3.84281 11.1697 4.39497C11.0092 4.94713 10.9265 5.53894 10.9265 6.1366V63.8178C10.9265 64.4154 11.0092 65.0072 11.1697 65.5594C11.3303 66.1116 11.5656 66.6133 11.8623 67.0359C12.1589 67.4585 12.5111 67.7937 12.8988 68.0225C13.2864 68.2512 13.7018 68.3689 14.1214 68.3689H29.8573C30.2769 68.3689 30.6923 68.2512 31.0799 68.0225C31.4675 67.7937 31.8197 67.4585 32.1164 67.0359C32.4131 66.6133 32.6484 66.1116 32.809 65.5594C32.9695 65.0072 33.0522 64.4154 33.0522 63.8178V6.1366C33.0522 5.53894 32.9695 4.94713 32.809 4.39497C32.6484 3.84281 32.4131 3.3411 32.1164 2.91849C31.8197 2.49588 31.4675 2.16065 31.0799 1.93194C30.6923 1.70323 30.2769 1.58551 29.8573 1.58551Z" fill="white"/>
<path d="M17.3533 13.3115H16.4137C16.3807 13.3115 16.349 13.3302 16.3257 13.3634C16.3023 13.3967 16.2892 13.4418 16.2892 13.4889V14.0764C16.2892 14.1234 16.3023 14.1685 16.3257 14.2018C16.349 14.2351 16.3807 14.2538 16.4137 14.2538H16.5694V15.134H17.1976V14.2538H17.3533C17.3863 14.2538 17.418 14.2351 17.4414 14.2018C17.4647 14.1685 17.4779 14.1234 17.4779 14.0764V13.4889C17.4779 13.4418 17.4647 13.3967 17.4414 13.3634C17.418 13.3302 17.3863 13.3115 17.3533 13.3115Z" fill="#E6E6E6"/>
<path d="M18.2942 18.6878C17.7188 17.4885 17.4247 16.0604 17.4539 14.6083C17.4544 14.5748 17.4468 14.5421 17.4323 14.5157C17.4178 14.4893 17.3973 14.4708 17.3744 14.4635V14.2097H16.3821V14.46H16.3684C16.3414 14.46 16.3156 14.4753 16.2965 14.5026C16.2774 14.5298 16.2667 14.5667 16.2668 14.6052C16.2668 14.6087 16.2669 14.6122 16.267 14.6157C16.3452 16.168 16.0812 17.5601 15.4751 18.792C15.4402 18.8627 15.4224 18.9477 15.4243 19.0342L15.5328 23.8151C15.5354 23.9218 15.5669 24.0229 15.6205 24.0973C15.6742 24.1717 15.746 24.2137 15.8209 24.2146H18.0653C18.141 24.2137 18.2136 24.1707 18.2674 24.0948C18.3212 24.0189 18.3521 23.916 18.3535 23.8081L18.3953 19.1662C18.3966 18.9958 18.3613 18.8289 18.2942 18.6878Z" fill="#E6E6E6"/>
<path d="M17.939 20.2759H15.9855C15.9566 20.2759 15.928 20.2848 15.9017 20.302C15.8754 20.3192 15.8521 20.3443 15.8333 20.3756C15.8144 20.4068 15.8006 20.4435 15.7926 20.4831C15.7847 20.5227 15.7828 20.5643 15.7872 20.605L16.0825 23.3385H17.7776L18.1362 20.6142C18.1416 20.573 18.1406 20.5305 18.1332 20.4899C18.1258 20.4492 18.1122 20.4114 18.0934 20.3791C18.0746 20.3468 18.051 20.3208 18.0243 20.303C17.9976 20.2851 17.9685 20.2759 17.939 20.2759Z" fill="white"/>
<path d="M27.8122 27.6334H26.8726C26.8396 27.6334 26.8079 27.6521 26.7845 27.6854C26.7612 27.7187 26.748 27.7638 26.748 27.8109V28.3983C26.748 28.4454 26.7612 28.4905 26.7845 28.5238C26.8079 28.5571 26.8396 28.5758 26.8726 28.5758H27.0283V29.456H27.6565V28.5758H27.8122C27.8452 28.5758 27.8769 28.5571 27.9002 28.5238C27.9236 28.4905 27.9367 28.4454 27.9367 28.3983V27.8109C27.9367 27.7638 27.9236 27.7187 27.9002 27.6854C27.8769 27.6521 27.8452 27.6334 27.8122 27.6334Z" fill="#E6E6E6"/>
<path d="M28.7532 33.0097C28.1778 31.8104 27.8837 30.3823 27.9129 28.9302C27.9134 28.8967 27.9058 28.864 27.8913 28.8376C27.8768 28.8112 27.8563 28.7927 27.8334 28.7854V28.5316H26.8411V28.7819H26.8274C26.8141 28.7819 26.8008 28.7857 26.7885 28.793C26.7761 28.8003 26.7649 28.811 26.7555 28.8245C26.746 28.838 26.7385 28.854 26.7334 28.8716C26.7283 28.8892 26.7257 28.908 26.7257 28.9271C26.7257 28.9306 26.7258 28.9341 26.726 28.9376C26.8042 30.4899 26.5402 31.882 25.9341 33.1139C25.8992 33.1846 25.8814 33.2696 25.8833 33.3561L25.9918 38.137C25.9944 38.2437 26.0258 38.3448 26.0795 38.4192C26.1332 38.4936 26.205 38.5356 26.2799 38.5365H28.5243C28.6 38.5356 28.6725 38.4926 28.7264 38.4167C28.7802 38.3408 28.8111 38.2379 28.8125 38.13L28.8543 33.4881C28.8555 33.3177 28.8203 33.1508 28.7532 33.0097Z" fill="#E6E6E6"/>
<path d="M28.3979 34.5978H26.4443C26.4154 34.5978 26.3868 34.6067 26.3606 34.624C26.3343 34.6412 26.3109 34.6662 26.2921 34.6975C26.2733 34.7288 26.2594 34.7655 26.2515 34.8051C26.2435 34.8447 26.2417 34.8863 26.2461 34.927L26.5413 37.6604H28.2365L28.595 34.9362C28.6005 34.8949 28.5995 34.8525 28.5921 34.8118C28.5847 34.7712 28.5711 34.7334 28.5522 34.7011C28.5334 34.6688 28.5098 34.6428 28.4832 34.6249C28.4565 34.6071 28.4274 34.5978 28.3979 34.5978Z" fill="white"/>
<path d="M16.0323 47.8804H15.5867C15.571 47.8804 15.556 47.8893 15.5449 47.9051C15.5338 47.9209 15.5276 47.9423 15.5276 47.9646V48.2433C15.5276 48.2656 15.5338 48.287 15.5449 48.3028C15.556 48.3186 15.571 48.3274 15.5867 48.3274H15.6605V48.7449H15.9585V48.3274H16.0323C16.048 48.3274 16.063 48.3186 16.0741 48.3028C16.0852 48.287 16.0914 48.2656 16.0914 48.2433V47.9646C16.0914 47.9423 16.0852 47.9209 16.0741 47.9051C16.063 47.8893 16.048 47.8804 16.0323 47.8804Z" fill="#E6E6E6"/>
<path d="M16.4787 50.4307C16.2058 49.8618 16.0662 49.1844 16.0801 48.4956C16.0803 48.4797 16.0767 48.4642 16.0698 48.4517C16.063 48.4392 16.0533 48.4304 16.0424 48.4269V48.3065H15.5717V48.4253H15.5652C15.5589 48.4253 15.5526 48.4271 15.5467 48.4305C15.5409 48.434 15.5356 48.4391 15.5311 48.4455C15.5266 48.4519 15.523 48.4595 15.5206 48.4678C15.5182 48.4762 15.517 48.4851 15.517 48.4941C15.517 48.4958 15.517 48.4975 15.5171 48.4991C15.5605 49.202 15.4274 49.904 15.1415 50.4801C15.1249 50.5137 15.1165 50.554 15.1174 50.595L15.1688 52.8628C15.1701 52.9134 15.185 52.9614 15.2104 52.9967C15.2359 53.032 15.2699 53.0519 15.3055 53.0523H16.3701C16.406 53.0519 16.4404 53.0315 16.466 52.9955C16.4915 52.9595 16.5062 52.9107 16.5068 52.8595L16.5266 50.6576C16.5272 50.5768 16.5105 50.4977 16.4787 50.4307Z" fill="#E6E6E6"/>
<path d="M16.3255 51.2643H15.3097V51.9879H16.3255V51.2643Z" fill="white"/>
<path d="M18.1069 47.8804H17.6613C17.6456 47.8804 17.6306 47.8893 17.6195 47.9051C17.6084 47.9209 17.6022 47.9423 17.6022 47.9646V48.2433C17.6022 48.2656 17.6084 48.287 17.6195 48.3028C17.6306 48.3186 17.6456 48.3274 17.6613 48.3274H17.7351V48.7449H18.0331V48.3274H18.1069C18.1226 48.3274 18.1376 48.3186 18.1487 48.3028C18.1598 48.287 18.166 48.2656 18.166 48.2433V47.9646C18.166 47.9423 18.1598 47.9209 18.1487 47.9051C18.1376 47.8893 18.1226 47.8804 18.1069 47.8804Z" fill="#E6E6E6"/>
<path d="M18.5534 50.4307C18.2805 49.8618 18.1409 49.1844 18.1548 48.4956C18.1551 48.4797 18.1514 48.4642 18.1446 48.4517C18.1377 48.4392 18.128 48.4304 18.1171 48.4269V48.3065H17.6464V48.4253H17.6399C17.6336 48.4253 17.6273 48.4271 17.6214 48.4305C17.6156 48.434 17.6103 48.4391 17.6058 48.4455C17.6013 48.4519 17.5978 48.4595 17.5953 48.4678C17.5929 48.4762 17.5917 48.4851 17.5917 48.4941C17.5917 48.4958 17.5917 48.4975 17.5918 48.4991C17.6353 49.202 17.5021 49.904 17.2162 50.4801C17.1996 50.5137 17.1912 50.554 17.1921 50.595L17.2435 52.8628C17.2448 52.9134 17.2597 52.9614 17.2851 52.9967C17.3106 53.032 17.3447 53.0519 17.3802 53.0523H18.4448C18.4807 53.0519 18.5151 53.0315 18.5407 52.9955C18.5662 52.9595 18.5809 52.9107 18.5815 52.8595L18.6014 50.6576C18.6019 50.5768 18.5852 50.4977 18.5534 50.4307Z" fill="#E6E6E6"/>
<path d="M18.4001 51.2643H17.3843V51.9879H18.4001V51.2643Z" fill="white"/>
<path d="M20.1816 47.8804H19.736C19.7203 47.8804 19.7053 47.8893 19.6942 47.9051C19.6831 47.9209 19.6769 47.9423 19.6769 47.9646V48.2433C19.6769 48.2656 19.6831 48.287 19.6942 48.3028C19.7053 48.3186 19.7203 48.3274 19.736 48.3274H19.8098V48.7449H20.1078V48.3274H20.1816C20.1973 48.3274 20.2123 48.3186 20.2234 48.3028C20.2345 48.287 20.2407 48.2656 20.2407 48.2433V47.9646C20.2407 47.9423 20.2345 47.9209 20.2234 47.9051C20.2123 47.8893 20.1973 47.8804 20.1816 47.8804Z" fill="#E6E6E6"/>
<path d="M20.628 50.4307C20.3551 49.8618 20.2155 49.1844 20.2294 48.4956C20.2296 48.4797 20.226 48.4642 20.2191 48.4517C20.2123 48.4392 20.2026 48.4304 20.1917 48.4269V48.3065H19.721V48.4253H19.7145C19.7082 48.4253 19.7019 48.4271 19.696 48.4305C19.6902 48.434 19.6848 48.4391 19.6804 48.4455C19.6759 48.4519 19.6723 48.4595 19.6699 48.4678C19.6675 48.4762 19.6663 48.4851 19.6663 48.4941C19.6663 48.4958 19.6663 48.4975 19.6664 48.4991C19.7098 49.202 19.5767 49.904 19.2908 50.4801C19.2742 50.5137 19.2658 50.554 19.2667 50.595L19.3181 52.8628C19.3194 52.9134 19.3343 52.9614 19.3597 52.9967C19.3852 53.032 19.4192 53.0519 19.4548 53.0523H20.5194C20.5553 53.0519 20.5897 53.0315 20.6153 52.9955C20.6408 52.9595 20.6555 52.9107 20.6561 52.8595L20.6759 50.6576C20.6765 50.5768 20.6598 50.4977 20.628 50.4307Z" fill="#E6E6E6"/>
<path d="M20.4748 51.2643H19.459V51.9879H20.4748V51.2643Z" fill="white"/>
<path d="M26.18 42.3398H25.2404C25.2241 42.3398 25.2079 42.3444 25.1927 42.3534C25.1776 42.3623 25.1639 42.3753 25.1523 42.3918C25.1408 42.4083 25.1316 42.4279 25.1253 42.4494C25.1191 42.4709 25.1158 42.494 25.1158 42.5173V43.1047C25.1158 43.1518 25.129 43.1969 25.1523 43.2302C25.1757 43.2635 25.2074 43.2822 25.2404 43.2822H25.3961V44.1624H26.0243V43.2822H26.18C26.213 43.2822 26.2447 43.2635 26.268 43.2302C26.2914 43.1969 26.3045 43.1518 26.3045 43.1047V42.5173C26.3045 42.494 26.3013 42.4709 26.295 42.4494C26.2888 42.4279 26.2796 42.4083 26.268 42.3918C26.2565 42.3753 26.2427 42.3623 26.2276 42.3534C26.2125 42.3444 26.1963 42.3398 26.18 42.3398Z" fill="#E6E6E6"/>
<path d="M27.121 47.7162C26.5456 46.5168 26.2515 45.0888 26.2807 43.6367C26.2812 43.6032 26.2736 43.5705 26.2591 43.5441C26.2446 43.5177 26.2241 43.4992 26.2012 43.4919V43.238H25.2089V43.4883H25.1952C25.1819 43.4884 25.1686 43.4921 25.1563 43.4995C25.1439 43.5068 25.1327 43.5175 25.1233 43.531C25.1138 43.5444 25.1063 43.5604 25.1012 43.5781C25.0961 43.5957 25.0935 43.6145 25.0935 43.6336C25.0935 43.6371 25.0936 43.6406 25.0938 43.6441C25.172 45.1964 24.908 46.5885 24.3019 47.8203C24.267 47.8911 24.2492 47.9761 24.2511 48.0626L24.3596 52.8435C24.3622 52.9502 24.3936 53.0512 24.4473 53.1257C24.501 53.2001 24.5728 53.2421 24.6477 53.243H26.8921C26.9678 53.2421 27.0403 53.1991 27.0942 53.1232C27.148 53.0473 27.1789 52.9444 27.1803 52.8365L27.2221 48.1946C27.2233 48.0242 27.1881 47.8573 27.121 47.7162Z" fill="#E6E6E6"/>
<path d="M26.7657 49.3043H24.8121C24.7832 49.3043 24.7546 49.3132 24.7284 49.3304C24.7021 49.3476 24.6787 49.3727 24.6599 49.4039C24.6411 49.4352 24.6272 49.4719 24.6193 49.5115C24.6113 49.5511 24.6095 49.5927 24.6139 49.6334L24.9091 52.3668H26.6043L26.9628 49.6426C26.9683 49.6014 26.9673 49.5589 26.9599 49.5183C26.9525 49.4776 26.9389 49.4398 26.92 49.4075C26.9012 49.3752 26.8776 49.3492 26.851 49.3314C26.8243 49.3135 26.7952 49.3043 26.7657 49.3043Z" fill="white"/>
<path d="M26.6929 24.83H21.0923C21.4838 21.8144 21.3938 18.1729 21.0923 14.2568H26.6929C26.3994 18.1729 26.3117 21.8144 26.6929 24.83Z" fill="#E6E6E6"/>
<path d="M23.9263 21.1775C24.6716 21.1775 25.2759 20.3168 25.2759 19.2551C25.2759 18.1933 24.6716 17.3326 23.9263 17.3326C23.181 17.3326 22.5768 18.1933 22.5768 19.2551C22.5768 20.3168 23.181 21.1775 23.9263 21.1775Z" fill="white"/>
<path d="M21.5647 38.8637H15.9641C16.3557 35.848 16.2656 32.2066 15.9641 28.2904H21.5647C21.2712 32.2066 21.1835 35.848 21.5647 38.8637Z" fill="#E6E6E6"/>
<path d="M18.7981 35.211C19.5435 35.211 20.1477 34.3503 20.1477 33.2886C20.1477 32.2269 19.5435 31.3662 18.7981 31.3662C18.0528 31.3662 17.4486 32.2269 17.4486 33.2886C17.4486 34.3503 18.0528 35.211 18.7981 35.211Z" fill="white"/>
<path d="M29.8644 25.5029H24.2638C24.6554 22.4873 24.5653 18.8458 24.2638 14.9296H29.8644C29.5709 18.8458 29.4832 22.4873 29.8644 25.5029Z" fill="#E6E6E6"/>
<path d="M27.0977 21.8503C27.843 21.8503 28.4472 20.9896 28.4472 19.9279C28.4472 18.8662 27.843 18.0055 27.0977 18.0055C26.3524 18.0055 25.7482 18.8662 25.7482 19.9279C25.7482 20.9896 26.3524 21.8503 27.0977 21.8503Z" fill="white"/>
<path d="M29.8644 25.0223H24.2638C24.6554 22.0067 24.5653 18.3652 24.2638 14.449H29.8644C29.5709 18.3652 29.4832 22.0067 29.8644 25.0223Z" fill="#E6E6E6"/>
<path d="M27.0977 21.3697C27.843 21.3697 28.4472 20.509 28.4472 19.4473C28.4472 18.3856 27.843 17.5249 27.0977 17.5249C26.3524 17.5249 25.7482 18.3856 25.7482 19.4473C25.7482 20.509 26.3524 21.3697 27.0977 21.3697Z" fill="white"/>
<path d="M29.8644 25.5029H24.2638C24.6554 22.4873 24.5653 18.8458 24.2638 14.9296H29.8644C29.5709 18.8458 29.4832 22.4873 29.8644 25.5029Z" fill="#E6E6E6"/>
<path d="M27.0977 21.8503C27.843 21.8503 28.4472 20.9896 28.4472 19.9279C28.4472 18.8662 27.843 18.0055 27.0977 18.0055C26.3524 18.0055 25.7482 18.8662 25.7482 19.9279C25.7482 20.9896 26.3524 21.8503 27.0977 21.8503Z" fill="white"/>
<path d="M31.1463 24.2533H12.7926V27.1369H31.1463V24.2533Z" fill="#E6E6E6"/>
<path d="M31.1463 38.5753H12.7926V41.4589H31.1463V38.5753Z" fill="#E6E6E6"/>
<path d="M31.1463 52.8972H12.7926V55.7808H31.1463V52.8972Z" fill="#E6E6E6"/>
<path d="M63.0734 64.5959L58.501 59.989C60.0431 57.8491 61.4457 54.802 62.7871 51.3568L67.3595 55.9637C65.5324 58.9195 63.9847 61.8204 63.0734 64.5959Z" fill="#006466"/>
<path d="M63.0746 59.6911C63.82 59.6911 64.4242 58.8304 64.4242 57.7687C64.4242 56.7069 63.82 55.8463 63.0746 55.8463C62.3293 55.8463 61.7251 56.7069 61.7251 57.7687C61.7251 58.8304 62.3293 59.6911 63.0746 59.6911Z" fill="white"/>
<path d="M41.0165 43.5735H40.5145C40.4969 43.5735 40.48 43.5835 40.4675 43.6013C40.455 43.6191 40.448 43.6432 40.448 43.6683V43.9822C40.448 43.9946 40.4497 44.0069 40.4531 44.0184C40.4564 44.0299 40.4613 44.0404 40.4675 44.0492C40.4737 44.058 40.481 44.065 40.4891 44.0697C40.4972 44.0745 40.5058 44.077 40.5145 44.077H40.5977V44.5472H40.9333V44.077H41.0165C41.0341 44.077 41.051 44.067 41.0635 44.0492C41.076 44.0314 41.083 44.0073 41.083 43.9822V43.6683C41.083 43.6432 41.076 43.6191 41.0635 43.6013C41.051 43.5835 41.0341 43.5735 41.0165 43.5735Z" fill="#E6E6E6"/>
<path d="M41.5191 46.4457C41.2117 45.8049 41.0545 45.042 41.0701 44.2663C41.0704 44.2484 41.0663 44.2309 41.0586 44.2168C41.0509 44.2027 41.0399 44.1929 41.0277 44.1889V44.0533H40.4976V44.1871H40.4903C40.4831 44.1871 40.4761 44.1891 40.4695 44.193C40.4629 44.1969 40.4569 44.2026 40.4518 44.2098C40.4468 44.217 40.4428 44.2256 40.4401 44.235C40.4373 44.2444 40.4359 44.2545 40.4359 44.2646C40.4359 44.2665 40.436 44.2684 40.4361 44.2703C40.485 45.0618 40.3351 45.8525 40.013 46.5013C39.9944 46.5391 39.9849 46.5845 39.9859 46.6307L40.0439 49.1847C40.0453 49.2417 40.0621 49.2957 40.0907 49.3355C40.1194 49.3752 40.1577 49.3977 40.1978 49.3981H41.3967C41.4372 49.3977 41.476 49.3747 41.5047 49.3341C41.5335 49.2936 41.55 49.2386 41.5507 49.181L41.5731 46.7012C41.5737 46.6102 41.5549 46.521 41.5191 46.4457Z" fill="#006466"/>
<path opacity="0.2" d="M40.9116 43.6758C40.9116 43.73 40.8965 43.782 40.8696 43.8204C40.8427 43.8587 40.8062 43.8803 40.7681 43.8803C40.73 43.8803 40.6935 43.8587 40.6666 43.8204C40.6396 43.782 40.6245 43.73 40.6245 43.6758" fill="black"/>
<path d="M41.2856 46.9377H40.2734V47.8989H41.2856V46.9377Z" fill="white"/>
<path d="M56.8998 53.5512H55.9603C55.9272 53.5512 55.8955 53.5699 55.8722 53.6032C55.8488 53.6365 55.8357 53.6816 55.8357 53.7287V54.3161C55.8357 54.3632 55.8488 54.4083 55.8722 54.4416C55.8955 54.4749 55.9272 54.4935 55.9603 54.4935H56.116V55.3737H56.7441V54.4935H56.8998C56.9328 54.4935 56.9645 54.4749 56.9879 54.4416C57.0112 54.4083 57.0244 54.3632 57.0244 54.3161V53.7287C57.0244 53.6816 57.0112 53.6365 56.9879 53.6032C56.9645 53.5699 56.9328 53.5512 56.8998 53.5512Z" fill="#E6E6E6"/>
<path d="M57.8408 58.9275C57.2653 57.7281 56.9712 56.3001 57.0004 54.848C57.0009 54.8145 56.9933 54.7818 56.9788 54.7554C56.9643 54.729 56.9439 54.7105 56.9209 54.7032V54.4493H55.9286V54.6996H55.9149C55.9016 54.6997 55.8883 54.7034 55.876 54.7108C55.8636 54.7181 55.8524 54.7288 55.843 54.7423C55.8335 54.7557 55.8261 54.7718 55.821 54.7894C55.8159 54.807 55.8132 54.8258 55.8133 54.8449C55.8133 54.8484 55.8134 54.8519 55.8135 54.8554C55.8917 56.4077 55.6277 57.7998 55.0216 59.0316C54.9867 59.1024 54.9689 59.1874 54.9708 59.2739L55.0793 64.0548C55.082 64.1615 55.1134 64.2625 55.167 64.337C55.2207 64.4114 55.2925 64.4534 55.3674 64.4543H57.6118C57.6875 64.4534 57.7601 64.4104 57.8139 64.3345C57.8677 64.2586 57.8986 64.1557 57.9 64.0478L57.9418 59.4059C57.9431 59.2355 57.9078 59.0686 57.8408 58.9275Z" fill="#006466"/>
<path opacity="0.2" d="M56.7037 53.7426C56.7037 53.8441 56.6754 53.9415 56.625 54.0133C56.5746 54.0851 56.5063 54.1254 56.435 54.1254C56.3637 54.1254 56.2954 54.0851 56.245 54.0133C56.1946 53.9415 56.1663 53.8441 56.1663 53.7426" fill="black"/>
<path d="M57.4854 60.5156H55.5319C55.503 60.5156 55.4744 60.5245 55.4481 60.5417C55.4218 60.5589 55.3985 60.584 55.3796 60.6153C55.3608 60.6466 55.347 60.6833 55.339 60.7229C55.3311 60.7625 55.3292 60.8041 55.3336 60.8448L55.6288 63.5782H57.324L57.6826 60.854C57.688 60.8127 57.687 60.7703 57.6796 60.7296C57.6722 60.689 57.6586 60.6512 57.6398 60.6189C57.621 60.5866 57.5974 60.5606 57.5707 60.5427C57.544 60.5249 57.5149 60.5156 57.4854 60.5156Z" fill="white"/>
<path d="M54.219 64.5884H48.6184C49.01 61.5728 48.9199 57.9313 48.6184 54.0151H54.219C53.9255 57.9313 53.8378 61.5728 54.219 64.5884Z" fill="#006466"/>
<path d="M51.4526 60.9358C52.1979 60.9358 52.8021 60.0751 52.8021 59.0134C52.8021 57.9517 52.1979 57.091 51.4526 57.091C50.7072 57.091 50.103 57.9517 50.103 59.0134C50.103 60.0751 50.7072 60.9358 51.4526 60.9358Z" fill="white"/>
<path d="M31.3113 31.3129L32.5685 31.15L33.3687 28.3822L31.9399 27.2424L31.3113 31.3129Z" fill="#FFB8B8"/>
<path d="M42.85 38.9115C42.8918 38.7629 42.9082 38.6024 42.8979 38.443C42.8876 38.2837 42.8509 38.1301 42.7907 37.995C42.7306 37.8598 42.6488 37.747 42.552 37.6657C42.4552 37.5844 42.3463 37.5371 42.2342 37.5276L40.2821 37.3618L39.9946 38.7233L42.0042 39.5095C42.1722 39.5752 42.3512 39.5505 42.5072 39.4402C42.6631 39.3299 42.7852 39.1417 42.85 38.9115Z" fill="#FFB8B8"/>
<path d="M40.7537 39.5323L40.7322 36.9775L36.3961 35.9919L33.0557 30.5345C32.8819 30.2505 32.6417 30.066 32.3797 30.0149C32.1177 29.9639 31.8516 30.0498 31.6306 30.2569C31.4969 30.3823 31.384 30.548 31.3002 30.7423C31.2163 30.9366 31.1634 31.1547 31.1452 31.3813C31.1271 31.608 31.1441 31.8375 31.195 32.0537C31.246 32.27 31.3297 32.4676 31.4401 32.6327L34.196 37.4639L40.7537 39.5323Z" fill="#D2DDDE"/>
<path d="M30.3397 68.2726H31.4827L34.3178 50.0136L37.2548 55.6542L38.9693 67.8656H40.0551L39.8265 54.7587L35.9975 40.7563H32.2257C31.1949 43.4136 30.3863 46.1529 31.3113 48.9787L30.3397 68.2726Z" fill="#2F2E41"/>
<path d="M38.2687 69.3817C38.2561 69.4393 38.2522 69.5 38.2573 69.56C38.2625 69.6199 38.2765 69.6775 38.2985 69.7291C38.3205 69.7807 38.35 69.825 38.385 69.8591C38.4199 69.8932 38.4596 69.9162 38.5013 69.9268L41.2982 70.6338C41.4087 70.6626 41.5228 70.6328 41.619 70.5501C41.7152 70.4673 41.7867 70.3373 41.8202 70.1845C41.8528 70.0385 41.8483 69.8809 41.8074 69.7392C41.7665 69.5975 41.6918 69.4809 41.5966 69.4099C40.9816 68.9601 40.4523 68.3046 40.0541 67.4996C39.7467 67.9074 39.4032 67.869 39.0383 67.5685L38.6513 67.6374L38.2687 69.3817Z" fill="#2F2E41"/>
<path d="M29.8106 69.3817C29.7979 69.4393 29.7941 69.5 29.7992 69.56C29.8043 69.6199 29.8184 69.6775 29.8404 69.7291C29.8624 69.7807 29.8919 69.825 29.9268 69.8591C29.9618 69.8932 30.0015 69.9162 30.0432 69.9268L32.8401 70.6338C32.9506 70.6626 33.0647 70.6328 33.1609 70.5501C33.257 70.4673 33.3286 70.3373 33.3621 70.1845C33.3947 70.0385 33.3902 69.8809 33.3493 69.7392C33.3084 69.5975 33.2337 69.4809 33.1385 69.4099C32.5235 68.9601 31.9942 68.3046 31.596 67.4996C31.2886 67.9074 30.945 67.869 30.5802 67.5685L30.1932 67.6374L29.8106 69.3817Z" fill="#2F2E41"/>
<path d="M33.3973 29.3998C34.2811 29.3998 34.9975 28.3792 34.9975 27.1203C34.9975 25.8614 34.2811 24.8409 33.3973 24.8409C32.5135 24.8409 31.7971 25.8614 31.7971 27.1203C31.7971 28.3792 32.5135 29.3998 33.3973 29.3998Z" fill="#FFB8B8"/>
<path d="M31.9685 41.3669L36.1404 41.2041L34.9152 35.7112C35.6766 33.9724 34.9103 32.2354 33.8258 30.4988L32.9686 29.6847L31.597 29.5219C31.0032 30.4271 30.6782 31.6245 30.6903 32.8633C30.7174 35.516 31.0472 38.4038 31.9685 41.3669Z" fill="#D2DDDE"/>
<path d="M41.5536 45.0643C41.6331 44.9511 41.6925 44.8128 41.7271 44.6605C41.7616 44.5082 41.7702 44.3464 41.7523 44.1885C41.7343 44.0305 41.6902 43.8809 41.6237 43.752C41.5572 43.623 41.4701 43.5185 41.3696 43.4469L39.6207 42.2005L38.9805 43.2912L40.6109 45.1401C40.7472 45.2946 40.9186 45.3723 41.0924 45.3583C41.2663 45.3443 41.4305 45.2396 41.5536 45.0643Z" fill="#FFB8B8"/>
<path d="M39.4551 44.4604L40.1409 42.0996L36.4266 38.7636L34.8626 31.8742C34.7812 31.5158 34.6114 31.2115 34.3846 31.0178C34.1578 30.824 33.8894 30.7539 33.6291 30.8205C33.4715 30.8608 33.322 30.9499 33.1913 31.0815C33.0605 31.2131 32.9516 31.3841 32.8723 31.5822C32.7931 31.7804 32.7453 32.001 32.7324 32.2283C32.7196 32.4557 32.7419 32.6843 32.7979 32.898L33.9974 38.8839L39.4551 44.4604Z" fill="#D2DDDE"/>
<path d="M30.7684 26.2248C30.7684 27.1118 31.1728 28.4854 31.6828 29.0742C32.026 29.4703 32.4795 29.4536 32.6544 28.9113C32.8337 28.355 33.452 27.0474 34.5403 26.2248C35.991 25.1283 34.0258 23.2523 32.6544 23.5383C31.6238 23.7533 30.7684 24.7411 30.7684 26.2248Z" fill="#2F2E41"/>
<path d="M31.7399 25.0037C32.3712 25.0037 32.8829 24.2747 32.8829 23.3755C32.8829 22.4763 32.3712 21.7473 31.7399 21.7473C31.1087 21.7473 30.5969 22.4763 30.5969 23.3755C30.5969 24.2747 31.1087 25.0037 31.7399 25.0037Z" fill="#2F2E41"/>
<path d="M33.0543 22.8057C33.0542 22.3952 32.9452 21.9999 32.7491 21.6991C32.5531 21.3983 32.2844 21.2142 31.9971 21.1837C32.0255 21.1806 32.0539 21.1775 32.0828 21.1775C32.3859 21.1775 32.6767 21.349 32.891 21.6544C33.1054 21.9597 33.2258 22.3739 33.2258 22.8057C33.2258 23.2375 33.1054 23.6516 32.891 23.957C32.6767 24.2623 32.3859 24.4339 32.0828 24.4339C32.0539 24.4339 32.0255 24.4307 31.9971 24.4277C32.2844 24.3971 32.5531 24.213 32.7491 23.9122C32.9452 23.6114 33.0542 23.2161 33.0543 22.8057Z" fill="#2F2E41"/>
<path d="M33.4259 27.9344C33.5679 27.9344 33.683 27.7157 33.683 27.446C33.683 27.1762 33.5679 26.9575 33.4259 26.9575C33.2838 26.9575 33.1687 27.1762 33.1687 27.446C33.1687 27.7157 33.2838 27.9344 33.4259 27.9344Z" fill="#FFB8B8"/>
<path d="M65.8103 65.2867H48.0175L44.2497 39.9144H41.0342V38.7759H44.8975L48.6653 64.1482H65.8103V65.2867Z" fill="#3F3D56"/>
<path d="M50.625 69.9219C51.5709 69.9219 52.3376 68.8297 52.3376 67.4823C52.3376 66.1349 51.5709 65.0427 50.625 65.0427C49.6791 65.0427 48.9124 66.1349 48.9124 67.4823C48.9124 68.8297 49.6791 69.9219 50.625 69.9219Z" fill="#3F3D56"/>
<path d="M63.4126 69.9219C64.3585 69.9219 65.1252 68.8297 65.1252 67.4823C65.1252 66.1349 64.3585 65.0427 63.4126 65.0427C62.4667 65.0427 61.7 66.1349 61.7 67.4823C61.7 68.8297 62.4667 69.9219 63.4126 69.9219Z" fill="#3F3D56"/>
<path d="M65.4859 64.7505H48.1745L45.1201 43.2485H68.3523C68.4709 43.2486 68.588 43.2851 68.6957 43.3558C68.8033 43.4265 68.899 43.5295 68.976 43.6578C69.0531 43.7862 69.1097 43.9368 69.142 44.0992C69.1743 44.2617 69.1815 44.4322 69.1631 44.5991L66.2966 63.7629C66.267 64.0386 66.1689 64.29 66.0201 64.4713C65.8713 64.6526 65.6817 64.7517 65.4859 64.7505ZM48.3625 64.4252H65.4859C65.6272 64.4261 65.7641 64.3546 65.8714 64.2237C65.9788 64.0929 66.0496 63.9114 66.071 63.7124L68.9375 44.5486C68.9508 44.4282 68.9456 44.3051 68.9223 44.1878C68.899 44.0705 68.8581 43.9618 68.8025 43.8692C68.7469 43.7766 68.6779 43.7022 68.6001 43.6512C68.5224 43.6002 68.4379 43.5738 68.3523 43.5738H45.3973L48.3625 64.4252Z" fill="#3F3D56"/>
<path d="M51.5399 64.6817L49.5396 43.4377L49.7648 43.3846L51.7651 64.6287L51.5399 64.6817Z" fill="#3F3D56"/>
<path d="M62.6625 64.5186L62.437 64.4665L64.3789 43.3851L64.6044 43.4372L62.6625 64.5186Z" fill="#3F3D56"/>
<path d="M57.3631 43.4112H57.1348V64.6552H57.3631V43.4112Z" fill="#3F3D56"/>
<path d="M46.2867 49.1037L46.2861 49.429L68.3902 49.5052L68.3908 49.1799L46.2867 49.1037Z" fill="#3F3D56"/>
<path d="M66.8308 59.1521L47.4119 59.3412L47.4134 59.6665L66.8324 59.4774L66.8308 59.1521Z" fill="#3F3D56"/>
<path d="M41.3768 40.1583C42.0704 40.1583 42.6327 39.7214 42.6327 39.1825C42.6327 38.6435 42.0704 38.2066 41.3768 38.2066C40.6832 38.2066 40.1208 38.6435 40.1208 39.1825C40.1208 39.7214 40.6832 40.1583 41.3768 40.1583Z" fill="#3F3D56"/>
<path d="M80.1599 73.9988H44.4202C44.3655 73.9987 44.3131 73.9694 44.2744 73.9173C44.2358 73.8653 44.2141 73.7948 44.2141 73.7213C44.2141 73.6478 44.2358 73.5773 44.2744 73.5253C44.3131 73.4732 44.3655 73.4439 44.4202 73.4437H80.1599C80.2147 73.4437 80.2672 73.473 80.306 73.525C80.3447 73.5771 80.3665 73.6477 80.3665 73.7213C80.3665 73.7949 80.3447 73.8655 80.306 73.9176C80.2672 73.9696 80.2147 73.9988 80.1599 73.9988Z" fill="#CCCCCC"/>
<path d="M80.1599 75.803H44.4202C44.3931 75.803 44.3662 75.7958 44.3412 75.7819C44.3161 75.7679 44.2933 75.7475 44.2741 75.7217C44.2549 75.6959 44.2397 75.6653 44.2293 75.6316C44.219 75.598 44.2136 75.5619 44.2136 75.5254C44.2136 75.489 44.219 75.4529 44.2293 75.4192C44.2397 75.3855 44.2549 75.3549 44.2741 75.3292C44.2933 75.3034 44.3161 75.2829 44.3412 75.269C44.3662 75.255 44.3931 75.2479 44.4202 75.2479H80.1599C80.187 75.2479 80.2139 75.255 80.2389 75.269C80.264 75.2829 80.2868 75.3034 80.306 75.3292C80.3251 75.3549 80.3404 75.3855 80.3507 75.4192C80.3611 75.4529 80.3665 75.489 80.3665 75.5254C80.3665 75.5619 80.3611 75.598 80.3507 75.6316C80.3404 75.6653 80.3251 75.6959 80.306 75.7217C80.2868 75.7475 80.264 75.7679 80.2389 75.7819C80.2139 75.7958 80.187 75.803 80.1599 75.803Z" fill="#CCCCCC"/>
<path d="M62.1531 98.4579C61.4822 98.4573 60.839 98.0988 60.3647 97.4612C59.8905 96.8237 59.6241 95.9592 59.6241 95.0578C59.6241 94.1565 59.8905 93.292 60.3647 92.6544C60.839 92.0169 61.4822 91.6584 62.1531 91.6577H99.7434C99.5544 91.1914 99.2753 90.8021 98.9356 90.5308C98.5958 90.2594 98.208 90.116 97.8127 90.1157H23.0931C22.1182 90.1171 21.1837 90.6385 20.4948 91.5652C19.806 92.4919 19.4191 93.7481 19.4192 95.0578C19.4197 96.3673 19.8068 97.6231 20.4955 98.5496C21.1843 99.4761 22.1184 99.9977 23.0931 100H97.8127C98.208 99.9996 98.5958 99.8562 98.9356 99.5849C99.2753 99.3135 99.5544 98.9242 99.7434 98.4579L62.1531 98.4579Z" fill="#CCCCCC"/>
<path d="M99.7934 93.5313H64.0537C63.999 93.5311 63.9466 93.5018 63.908 93.4497C63.8694 93.3977 63.8477 93.3272 63.8477 93.2537C63.8477 93.1802 63.8694 93.1097 63.908 93.0577C63.9466 93.0056 63.999 92.9763 64.0537 92.9761H99.7934C99.8481 92.9763 99.9005 93.0056 99.9392 93.0577C99.9778 93.1097 99.9995 93.1802 99.9995 93.2537C99.9995 93.3272 99.9778 93.3977 99.9392 93.4497C99.9005 93.5018 99.8481 93.5311 99.7934 93.5313Z" fill="#CCCCCC"/>
<path d="M99.7934 95.3354H64.0538C63.999 95.3354 63.9464 95.3061 63.9077 95.2541C63.8689 95.202 63.8472 95.1314 63.8472 95.0578C63.8472 94.9842 63.8689 94.9136 63.9077 94.8616C63.9464 94.8095 63.999 94.7803 64.0538 94.7803H99.7934C99.8482 94.7803 99.9008 94.8095 99.9395 94.8616C99.9782 94.9136 100 94.9842 100 95.0578C100 95.1314 99.9782 95.202 99.9395 95.2541C99.9008 95.3061 99.8482 95.3354 99.7934 95.3354Z" fill="#CCCCCC"/>
<path d="M99.7934 97.1395H64.0537C63.999 97.1393 63.9466 97.11 63.908 97.0579C63.8694 97.0059 63.8477 96.9354 63.8477 96.8619C63.8477 96.7884 63.8694 96.7179 63.908 96.6659C63.9466 96.6139 63.999 96.5845 64.0537 96.5844H99.7934C99.8481 96.5845 99.9005 96.6139 99.9392 96.6659C99.9778 96.7179 99.9995 96.7884 99.9995 96.8619C99.9995 96.9354 99.9778 97.0059 99.9392 97.0579C99.9005 97.11 99.8481 97.1393 99.7934 97.1395Z" fill="#CCCCCC"/>
<path d="M52.4435 88.8821C51.7726 88.8815 51.1294 88.523 50.6551 87.8854C50.1809 87.2479 49.9145 86.3834 49.9145 85.482C49.9145 84.5807 50.1809 83.7162 50.6551 83.0786C51.1294 82.4411 51.7726 82.0826 52.4435 82.082H90.0338C89.8448 81.6156 89.5657 81.2264 89.226 80.955C88.8863 80.6837 88.4984 80.5403 88.1032 80.5399H13.3836C12.4087 80.5413 11.4742 81.0627 10.7853 81.9894C10.0964 82.9161 9.7095 84.1723 9.70959 85.482C9.7101 86.7915 10.0972 88.0473 10.786 88.9738C11.4747 89.9003 12.4089 90.4219 13.3836 90.4242H88.1032C88.4984 90.4238 88.8863 90.2804 89.226 90.0091C89.5657 89.7377 89.8448 89.3484 90.0338 88.8821L52.4435 88.8821Z" fill="#006466"/>
<path d="M90.0837 83.9555H54.344C54.2893 83.9553 54.2369 83.926 54.1983 83.874C54.1596 83.8219 54.1379 83.7514 54.1379 83.6779C54.1379 83.6044 54.1596 83.5339 54.1983 83.4819C54.2369 83.4299 54.2893 83.4006 54.344 83.4004H90.0837C90.1385 83.4004 90.1911 83.4296 90.2298 83.4817C90.2685 83.5337 90.2903 83.6043 90.2903 83.6779C90.2903 83.7516 90.2685 83.8222 90.2298 83.8742C90.1911 83.9263 90.1385 83.9555 90.0837 83.9555Z" fill="#CCCCCC"/>
<path d="M90.0837 85.7596H54.344C54.2893 85.7596 54.2367 85.7304 54.198 85.6783C54.1592 85.6263 54.1375 85.5557 54.1375 85.4821C54.1375 85.4085 54.1592 85.3379 54.198 85.2858C54.2367 85.2338 54.2893 85.2045 54.344 85.2045H90.0837C90.1385 85.2045 90.191 85.2338 90.2298 85.2858C90.2685 85.3379 90.2903 85.4085 90.2903 85.4821C90.2903 85.5557 90.2685 85.6263 90.2298 85.6783C90.191 85.7304 90.1385 85.7596 90.0837 85.7596Z" fill="#CCCCCC"/>
<path d="M90.0837 87.5637H54.344C54.2893 87.5635 54.2369 87.5342 54.1983 87.4822C54.1596 87.4302 54.1379 87.3597 54.1379 87.2862C54.1379 87.2127 54.1596 87.1422 54.1983 87.0901C54.2369 87.0381 54.2893 87.0088 54.344 87.0086H90.0837C90.1109 87.0085 90.1378 87.0156 90.1629 87.0295C90.188 87.0435 90.2109 87.0639 90.2301 87.0897C90.2493 87.1154 90.2646 87.1461 90.275 87.1798C90.2854 87.2135 90.2908 87.2497 90.2908 87.2862C90.2908 87.3227 90.2854 87.3588 90.275 87.3925C90.2646 87.4263 90.2493 87.4569 90.2301 87.4827C90.2109 87.5084 90.188 87.5289 90.1629 87.5428C90.1378 87.5567 90.1109 87.5638 90.0837 87.5637Z" fill="#CCCCCC"/>
<path d="M42.7339 78.9869C42.063 78.9863 41.4198 78.6278 40.9455 77.9902C40.4713 77.3526 40.2049 76.4881 40.2049 75.5868C40.2049 74.6854 40.4713 73.821 40.9455 73.1834C41.4198 72.5458 42.063 72.1873 42.7339 72.1867H80.3242C80.1352 71.7204 79.8561 71.3311 79.5164 71.0598C79.1767 70.7884 78.7888 70.645 78.3936 70.6446H3.6739C2.69906 70.6461 1.76453 71.1674 1.07565 72.0941C0.386765 73.0208 -0.000121289 74.277 2.85228e-08 75.5868C0.000493229 76.8962 0.387576 78.152 1.07633 79.0785C1.76508 80.005 2.69925 80.5267 3.6739 80.5289H78.3936C78.7888 80.5286 79.1767 80.3851 79.5164 80.1138C79.8561 79.8424 80.1352 79.4532 80.3242 78.9869L42.7339 78.9869Z" fill="#CCCCCC"/>
<path d="M80.3742 77.6685H44.6346C44.5798 77.6685 44.5272 77.6392 44.4885 77.5872C44.4497 77.5351 44.428 77.4645 44.428 77.3909C44.428 77.3173 44.4497 77.2467 44.4885 77.1946C44.5272 77.1426 44.5798 77.1133 44.6346 77.1133H80.3742C80.4014 77.1133 80.4282 77.1205 80.4533 77.1345C80.4784 77.1484 80.5011 77.1689 80.5203 77.1946C80.5395 77.2204 80.5547 77.251 80.5651 77.2847C80.5755 77.3184 80.5808 77.3544 80.5808 77.3909C80.5808 77.4273 80.5755 77.4634 80.5651 77.4971C80.5547 77.5308 80.5395 77.5614 80.5203 77.5872C80.5011 77.6129 80.4784 77.6334 80.4533 77.6473C80.4282 77.6613 80.4014 77.6685 80.3742 77.6685Z" fill="#CCCCCC"/>
</svg>
