<svg width="110" height="100" viewBox="0 0 110 100" fill="none" xmlns="http://www.w3.org/2000/svg">
<path d="M56.4776 6.05262C56.4776 6.05262 56.6398 3.22268 55.5803 1.50718C54.5209 -0.208325 52.0624 -0.214588 51.0181 0.292549C49.9739 0.799687 48.8891 1.70753 48.6457 3.22268C48.4932 4.32438 48.4388 5.44342 48.4836 6.55976C48.3707 6.58466 48.2637 6.63994 48.1701 6.72169C48.0765 6.80343 47.9986 6.90964 47.942 7.03276C47.8854 7.15587 47.8514 7.29288 47.8425 7.43404C47.8336 7.57521 47.85 7.71706 47.8905 7.84952C48.0202 8.48789 48.2723 9.07839 48.6255 9.57128C48.6255 9.57128 48.8688 10.9863 49.0361 11.5936C49.3277 12.2809 49.6833 12.9239 50.0955 13.5094C50.0955 13.5094 50.2628 15.0246 49.69 15.5317C49.1172 16.0388 47.7232 16.4395 45.7614 17.2472C44.7299 17.6585 43.8028 18.3943 43.0714 19.3823C42.3399 20.3703 41.8292 21.5764 41.5895 22.8821C41.3421 24.5145 41.2874 26.1827 41.4273 27.8345L40.6872 33.5946C40.1832 35.1901 39.9004 36.8792 39.8508 38.5908C39.7697 41.4208 39.3439 47.0744 39.3439 47.0744C39.3439 47.0744 39.8508 47.4813 38.69 48.1888C37.5292 48.8963 37.4633 49.3972 37.3011 49.9043C37.1388 50.4115 37.0527 51.4195 36.7282 51.7263C36.4038 52.0331 35.3342 51.7263 35.5015 52.7343C35.6688 53.7423 36.8094 53.1413 36.8094 53.1413L37.5444 52.9346V58.0874C37.5444 58.5946 37.7928 59.302 38.1983 58.7135C38.1983 58.7135 38.6089 59.421 38.8522 59.1205L39.2527 58.8325C39.4746 58.9577 39.7196 59.0075 39.9623 58.9765C40.1905 58.87 40.6467 58.0999 40.6467 58.0999C40.6467 58.0999 40.7582 58.5194 41.184 57.8871C41.5073 57.3115 41.7125 56.6476 41.7822 55.9524C41.8988 55.4265 42.2891 52.5465 42.3803 52.0581C42.4369 51.0283 42.4369 49.995 42.3803 48.9652L42.2941 47.8445C42.2941 47.8445 44.1444 41.6274 44.4587 40.1498C44.7898 38.7446 45.0455 37.314 45.2241 35.8673C45.3356 34.6151 45.8223 32.1107 45.8223 32.1107L46.0199 32.0043C46.0199 32.0043 46.0504 37.9459 45.9338 38.716C45.8172 39.4861 44.9706 40.9261 45.0518 42.7543C45.1329 44.5825 44.626 47.6692 44.484 48.7273C43.7165 52.1283 43.469 55.6763 43.7541 59.1893C44.2052 65.0559 45.1582 68.3428 45.7107 70.9537C46.2633 73.5645 46.1163 75.2362 45.8628 77.7218C45.6093 80.2074 46.0149 81.3218 46.7195 84.4898C47.4241 87.6579 48.6762 91.0075 48.8283 92.2472C48.9803 93.4868 48.5292 93.6121 48.2757 94.3571C48.0223 95.1022 46.6688 97.0305 46.6181 97.8382C46.5674 98.6459 47.0186 99.2657 48.2757 99.7165C49.5329 100.167 50.4352 100.148 51.0384 99.1593C51.2686 98.8411 51.4414 98.4661 51.5454 98.0592C51.6494 97.6522 51.6822 97.2226 51.6416 96.7989C51.596 96.0538 51.4439 95.9286 51.6416 95.2462C51.949 94.5669 52.0565 93.7771 51.9458 93.011C51.7937 91.8339 51.8951 92.8858 51.4946 90.4628C51.0941 88.0398 51.5453 84.878 51.5453 83.5131C51.5824 81.438 51.4977 79.3623 51.2918 77.3023C51.0384 75.6869 50.9928 76.432 50.8407 74.1718C50.6886 71.9116 50.9421 71.6674 50.9421 70.0771C50.9438 69.1168 50.8588 68.1592 50.6886 67.2221C50.6886 67.2221 51.7025 60.7671 51.743 60.5167C51.7836 60.2662 52.549 55.9837 52.549 55.9837C52.6349 56.0032 52.7159 56.0474 52.7855 56.1126C52.855 56.1779 52.9112 56.2624 52.9495 56.3594C53.0508 56.6662 54.3587 67.1595 54.3587 67.1595C54.0886 68.0546 53.9362 68.9973 53.9075 69.9519C53.9582 71.0726 54.5107 74.2344 54.5107 74.2344C54.5107 74.2344 54.1052 76.2254 53.7554 79.3246C53.4057 82.4237 53.9582 85.6606 53.9075 87.5828C53.8954 88.8468 53.7765 90.1058 53.5527 91.3393C53.4057 92.2096 53.1522 93.4493 53.4057 94.3822L53.654 95.315C53.538 96.1566 53.4871 97.0098 53.502 97.8633C53.5527 98.9777 53.9582 99.7415 54.5614 99.848C54.755 99.8712 54.9501 99.8321 55.1278 99.7344C55.3055 99.6368 55.4597 99.4839 55.5753 99.2907C55.8085 99.4571 56.0663 99.5643 56.3335 99.6062C56.6007 99.6482 56.872 99.6239 57.1315 99.5349C57.9882 99.2281 58.5914 98.7899 58.3886 97.9196C58.2285 97.0448 57.921 96.2213 57.4863 95.5029C56.9338 94.57 56.5789 94.4448 56.4269 93.3303C56.2678 92.1874 56.3374 91.0139 56.6296 89.9118C57.6222 87.3392 58.3642 84.6301 58.8398 81.8415C59.443 77.8094 59.3467 77.559 59.1946 76.1315C59.0615 74.1211 59.1297 72.0982 59.3974 70.1084C59.6458 68.5557 61.425 62.971 61.425 58.438C61.3619 54.6948 61.0328 50.9657 60.4416 47.2935C60.2806 46.3297 60.1621 45.3557 60.0868 44.3759C60.2599 43.4553 60.2599 42.4979 60.0868 41.5773C59.7877 40.275 59.5799 39.7804 59.3365 38.3529C59.1303 37.1011 58.978 35.8367 58.8803 34.565V32.142C58.8803 32.142 59.8384 34.997 60.2895 36.988C60.7407 38.979 60.7407 40.1498 61.2425 41.9968C61.7444 43.8437 62.8038 47.3373 63.0066 48.0824C63.2094 48.8275 62.7531 50.1297 62.9559 52.1145C63.1587 54.0992 63.3564 57.5177 63.7061 58.0123C64.0559 58.5069 64.4614 57.9497 64.4614 57.9497C64.4614 57.9497 64.6135 58.9452 64.9126 59.0704C65.2117 59.1956 65.6172 58.8199 65.6172 58.8199C65.6274 58.9005 65.653 58.9769 65.6919 59.0429C65.7307 59.1088 65.7818 59.1623 65.8407 59.199C65.8997 59.2357 65.9649 59.2546 66.0309 59.254C66.097 59.2534 66.1619 59.2334 66.2204 59.1956C66.3549 59.1423 66.4784 59.0538 66.5825 58.936C66.6867 58.8182 66.7689 58.6739 66.8237 58.5132C66.8237 58.5132 67.5789 58.8825 67.4776 57.6429C67.3762 56.4032 67.1278 54.7253 67.1278 54.3496C67.1278 53.974 67.1785 52.7969 67.1785 52.7969C67.4425 53.0635 67.7504 53.2558 68.0808 53.3604C68.4812 53.4167 68.8868 53.9176 69.1859 53.3604C69.4849 52.8032 69.2365 52.6153 68.6789 52.1771C68.2447 51.8755 67.8921 51.4225 67.6651 50.8748C67.2596 50.1297 67.6144 49.9419 66.7578 48.9965C65.9011 48.0511 65.3536 47.6316 65.3536 46.824C65.3536 46.0163 66.0025 40.9887 65.3992 37.3887C64.796 33.7886 64.4969 32.8558 64.3854 32.2985C64.2739 31.7413 63.3716 27.5152 63.3716 27.5152C63.3716 27.5152 64.1776 23.6083 62.7684 20.3151C61.3591 17.0218 59.4481 17.2723 57.9932 16.4646C56.5384 15.6569 55.3776 15.4754 55.1799 14.9745C55.032 14.5373 54.9298 14.0787 54.8757 13.6096C54.8757 13.6096 56.1836 11.3744 56.2342 10.6294L56.2849 9.88433C56.2849 9.88433 57.0858 9.51493 57.2987 7.58656C57.5117 5.65819 56.4776 6.05262 56.4776 6.05262Z" fill="#006466"/>
<path d="M51.1981 8.13927C50.6382 8.13927 50.1843 7.57864 50.1843 6.88708C50.1843 6.19551 50.6382 5.63489 51.1981 5.63489C51.758 5.63489 52.2119 6.19551 52.2119 6.88708C52.2119 7.57864 51.758 8.13927 51.1981 8.13927Z" fill="#FF9A6C"/>
<path d="M34.977 23.1656H49.3097C49.8106 23.1656 50.2909 22.8825 50.6451 22.3787C50.9993 21.8748 51.1982 21.1914 51.1982 20.4789V8.76538H50.9898V20.4789C50.9898 21.1128 50.8128 21.7207 50.4977 22.169C50.1826 22.6172 49.7553 22.869 49.3097 22.869L25.8526 23.1656H34.977Z" fill="#FF9A6C"/>
<path d="M12.9283 32.016C5.23998 32.016 0.219196 23.5727 0.169567 23.4916L0 23.2021L0.169567 22.9067C0.219196 22.8199 5.23998 14.2202 12.9283 14.2202C20.6167 14.2202 25.6334 22.8025 25.683 22.9067L25.8525 23.2021L25.683 23.4916C25.6334 23.5727 20.6125 32.016 12.9283 32.016ZM0.86023 23.1963C1.80732 24.6498 6.35663 31.0952 12.9283 31.0952C19.5 31.0952 24.0452 24.6498 24.9923 23.1963C24.0494 21.7196 19.4959 15.1584 12.9283 15.1584C6.36077 15.1584 1.80318 21.7196 0.86023 23.1963Z" fill="#006466"/>
<path d="M24.5538 16.8667C23.7759 15.7818 22.9286 14.799 22.0227 13.9306C21.1325 13.047 20.1838 12.2848 19.1897 11.6547C17.2349 10.341 15.0944 9.65892 12.9261 9.65892C10.7579 9.65892 8.61728 10.341 6.66253 11.6547C5.67006 12.2893 4.72168 13.0512 3.82954 13.9306C2.92359 14.799 2.07636 15.7818 1.29846 16.8667C2.70384 14.4403 4.45821 12.4554 6.44747 11.0409C8.44027 9.54703 10.6657 8.76538 12.9261 8.76538C15.1865 8.76538 17.412 9.54703 19.4048 11.0409C21.3933 12.457 23.1474 14.4417 24.5538 16.8667Z" fill="#006466"/>
<path d="M17.7796 23.1267C17.7804 24.4716 17.4963 25.7866 16.9633 26.9054C16.4303 28.0242 15.6723 28.8965 14.7852 29.412C13.898 29.9274 12.9216 30.0629 11.9795 29.8012C11.0374 29.5396 10.1719 28.8925 9.49242 27.9419C8.81297 26.9914 8.35013 25.78 8.16245 24.461C7.97477 23.142 8.07068 21.7748 8.43805 20.5321C8.80542 19.2895 9.42774 18.2273 10.2263 17.48C11.0248 16.7327 11.9637 16.3339 12.9242 16.3339C14.2112 16.3339 15.4456 17.0494 16.356 18.3231C17.2665 19.5968 17.7785 21.3246 17.7796 23.1267Z" fill="#006466"/>
<path d="M15.269 23.1268C15.269 23.7762 15.1315 24.411 14.8738 24.951C14.6162 25.491 14.2499 25.9118 13.8214 26.1603C13.393 26.4088 12.9215 26.4739 12.4666 26.3472C12.0117 26.2205 11.5939 25.9078 11.2659 25.4486C10.938 24.9893 10.7146 24.4043 10.6242 23.7673C10.5337 23.1304 10.5801 22.4702 10.7576 21.8702C10.9351 21.2702 11.2357 20.7574 11.6213 20.3966C12.0069 20.0358 12.4603 19.8433 12.9241 19.8433C13.546 19.8433 14.1424 20.1892 14.5822 20.805C15.022 21.4208 15.269 22.2559 15.269 23.1268Z" fill="#006466"/>
<path d="M16.1338 20.8625C16.1338 21.158 16.0712 21.4469 15.954 21.6926C15.8367 21.9383 15.6701 22.1298 15.4751 22.2428C15.2801 22.3559 15.0656 22.3855 14.8586 22.3279C14.6516 22.2702 14.4615 22.1279 14.3123 21.919C14.1631 21.71 14.0614 21.4438 14.0203 21.154C13.9791 20.8641 14.0002 20.5637 14.081 20.2907C14.1617 20.0177 14.2985 19.7844 14.474 19.6202C14.6494 19.456 14.8557 19.3684 15.0668 19.3684C15.3494 19.3699 15.6202 19.5278 15.8201 19.8077C16.0199 20.0876 16.1327 20.4667 16.1338 20.8625Z" fill="white"/>
</svg>
