<svg width="230" height="190" viewBox="0 0 230 190" fill="none" xmlns="http://www.w3.org/2000/svg">
<g clip-path="url(#clip0_992_9350)">
<path d="M38.5954 180.859C38.4111 180.871 38.2287 180.804 38.0728 180.668C37.917 180.533 37.7952 180.334 37.724 180.1C37.6529 179.866 37.6357 179.607 37.675 179.359C37.7142 179.111 37.8079 178.885 37.9433 178.713L38.005 178.375C37.9969 178.348 37.9887 178.321 37.9805 178.294C37.7949 177.691 37.4838 177.176 37.0863 176.815C36.6889 176.454 36.2228 176.263 35.7466 176.265C35.2704 176.268 34.8053 176.464 34.4098 176.829C34.0143 177.194 33.706 177.712 33.5237 178.317C32.7947 180.734 31.8666 183.154 31.6381 185.709C31.5375 186.838 31.5799 187.983 31.7636 189.093C30.0515 183.952 29.1625 178.365 29.1568 172.711C29.1564 171.292 29.2137 169.874 29.3283 168.464C29.4231 167.308 29.5545 166.16 29.7227 165.02C30.6404 158.837 32.6106 153.041 35.4715 148.11C36.8563 147.07 37.9761 145.471 38.6801 143.528C38.9352 142.829 39.1155 142.084 39.2153 141.314C39.0592 141.343 38.6264 138.068 38.7442 137.867C38.5265 137.413 38.1369 137.187 37.8991 136.743C36.7167 134.537 35.0877 134.922 34.2373 137.92C32.4206 139.182 32.403 141.275 33.5177 143.288C34.2269 144.569 34.3244 146.302 34.9466 147.673C34.8826 147.785 34.816 147.895 34.752 148.007C33.5817 150.079 32.5617 152.303 31.7067 154.648C31.9146 152.021 31.6665 149.363 30.9826 146.894C30.2895 144.592 28.9904 142.654 27.8463 140.665C26.4722 138.275 23.6543 139.318 23.4123 142.347C23.4099 142.377 23.4076 142.406 23.4054 142.435C23.5753 142.567 23.7416 142.707 23.9044 142.855C24.1089 143.043 24.2673 143.312 24.3589 143.626C24.4506 143.94 24.4711 144.285 24.4179 144.615C24.3648 144.946 24.2403 145.246 24.0609 145.478C23.8814 145.709 23.6554 145.861 23.4123 145.912L23.3875 145.917C23.448 146.76 23.555 147.596 23.7075 148.416C22.2399 156.228 25.4084 159.073 29.9327 159.201C30.0326 159.272 30.1299 159.342 30.2298 159.409C29.3707 162.76 28.8318 166.25 28.6267 169.792C28.5106 171.882 28.5175 173.981 28.6472 176.07L28.6395 175.996C28.3117 173.673 27.4118 171.578 26.0916 170.064C24.1308 167.847 21.3606 167.031 19.2453 165.249C19.0205 165.05 18.7591 164.944 18.4919 164.943C18.2248 164.942 17.963 165.046 17.7375 165.243C17.512 165.441 17.3321 165.722 17.2192 166.056C17.1062 166.389 17.0648 166.76 17.0999 167.124C17.1027 167.15 17.1056 167.176 17.1086 167.202C17.4239 167.379 17.7309 167.582 18.0279 167.812C18.1978 167.944 18.3641 168.084 18.5269 168.232C18.7313 168.42 18.8897 168.688 18.9814 169.002C19.073 169.317 19.0936 169.661 19.0404 169.992C18.9872 170.322 18.8627 170.623 18.6833 170.854C18.5039 171.086 18.2778 171.237 18.0348 171.289L18.0099 171.294C17.992 171.297 17.9766 171.301 17.9587 171.304C18.4975 173.075 19.2537 174.705 20.1942 176.122C21.1119 182.942 25.0533 183.589 29.2695 181.603H29.272C29.7346 184.37 30.4049 187.063 31.272 189.639H38.4164C38.442 189.53 38.4651 189.417 38.4881 189.307C37.8268 189.365 37.1629 189.31 36.5112 189.145C37.0413 188.25 37.5714 187.348 38.1014 186.453C38.1133 186.436 38.1244 186.418 38.1347 186.4C38.4036 185.942 38.6751 185.487 38.9439 185.029L38.9441 185.028C38.9584 183.624 38.8411 182.222 38.5954 180.859Z" fill="#F2F2F2"/>
<path d="M187.819 180.859C188.003 180.871 188.185 180.804 188.341 180.668C188.497 180.533 188.619 180.334 188.69 180.1C188.761 179.866 188.778 179.607 188.739 179.359C188.7 179.111 188.606 178.885 188.471 178.713L188.409 178.375C188.417 178.348 188.425 178.321 188.434 178.294C188.619 177.691 188.93 177.176 189.328 176.815C189.725 176.454 190.191 176.263 190.667 176.265C191.144 176.268 191.609 176.464 192.004 176.829C192.4 177.194 192.708 177.712 192.89 178.317C193.619 180.734 194.547 183.154 194.776 185.709C194.877 186.838 194.834 187.983 194.65 189.093C196.363 183.952 197.252 178.365 197.257 172.711C197.258 171.292 197.2 169.874 197.086 168.464C196.991 167.308 196.86 166.16 196.691 165.02C195.774 158.837 193.804 153.041 190.943 148.11C189.558 147.07 188.438 145.471 187.734 143.528C187.479 142.829 187.299 142.084 187.199 141.314C187.355 141.343 187.788 138.068 187.67 137.867C187.888 137.413 188.277 137.187 188.515 136.743C189.697 134.537 191.326 134.922 192.177 137.92C193.994 139.182 194.011 141.275 192.896 143.288C192.187 144.569 192.09 146.302 191.467 147.673C191.532 147.785 191.598 147.895 191.662 148.007C192.832 150.079 193.852 152.303 194.707 154.648C194.499 152.021 194.748 149.363 195.431 146.894C196.125 144.592 197.424 142.654 198.568 140.665C199.942 138.275 202.76 139.318 203.002 142.347C203.004 142.377 203.006 142.406 203.009 142.435C202.839 142.567 202.672 142.707 202.51 142.855C202.305 143.043 202.147 143.312 202.055 143.626C201.964 143.94 201.943 144.285 201.996 144.615C202.049 144.946 202.174 145.246 202.353 145.478C202.533 145.709 202.759 145.861 203.002 145.912L203.027 145.917C202.966 146.76 202.859 147.596 202.707 148.416C204.174 156.228 201.006 159.073 196.481 159.201C196.382 159.272 196.284 159.342 196.184 159.409C197.043 162.76 197.582 166.25 197.787 169.792C197.903 171.882 197.897 173.981 197.767 176.07L197.775 175.996C198.102 173.673 199.002 171.578 200.322 170.064C202.283 167.847 205.053 167.031 207.169 165.249C207.394 165.05 207.655 164.944 207.922 164.943C208.189 164.942 208.451 165.046 208.677 165.243C208.902 165.441 209.082 165.722 209.195 166.056C209.308 166.389 209.349 166.76 209.314 167.124C209.311 167.15 209.308 167.176 209.306 167.202C208.99 167.379 208.683 167.582 208.386 167.812C208.216 167.944 208.05 168.084 207.887 168.232C207.683 168.42 207.524 168.688 207.433 169.002C207.341 169.317 207.321 169.661 207.374 169.992C207.427 170.322 207.551 170.623 207.731 170.854C207.91 171.086 208.136 171.237 208.379 171.289L208.404 171.294C208.422 171.297 208.437 171.301 208.455 171.304C207.917 173.075 207.16 174.705 206.22 176.122C205.302 182.942 201.361 183.589 197.145 181.603H197.142C196.679 184.37 196.009 187.063 195.142 189.639H187.998C187.972 189.53 187.949 189.417 187.926 189.307C188.587 189.365 189.251 189.31 189.903 189.145C189.373 188.25 188.843 187.348 188.313 186.453C188.301 186.436 188.29 186.418 188.279 186.4C188.01 185.942 187.739 185.487 187.47 185.029L187.47 185.028C187.456 183.624 187.573 182.222 187.819 180.859Z" fill="#F2F2F2"/>
<path d="M46.8129 189.419H58.3417C60.3135 180.281 58.3523 158.685 60.9512 149.858C65.9375 132.934 72.3076 115.076 84.1971 106.812C89.2736 103.284 94.8087 101.906 100.461 101.981C108.27 102.083 116.298 104.968 123.649 108.791C126.655 110.352 129.634 112.068 132.602 113.821C143.782 120.433 154.84 127.635 166.863 129.582C182.077 132.043 199.964 122.675 204.119 102.495C207.291 87.0458 201.579 71.0062 195.589 57.2082C189.599 43.4102 182.904 28.6469 183.998 12.6717C184.002 12.6181 184.006 12.5591 184.013 12.5055C184.425 6.7675 186.914 2.64376 190.391 0H175.252C175.052 14.9027 181.316 28.0571 186.953 41.0453C192.943 54.8379 198.655 70.8829 195.483 86.3325C191.328 106.507 156.921 82.8584 141.707 80.3916C137.411 79.6998 144.235 82.1612 140.139 80.3916C133.714 77.6191 133.002 103.048 126.749 99.3154C122.857 96.988 118.96 94.6767 115.013 92.6229C113.378 91.7702 111.708 90.9712 110.019 90.2312C110.015 90.2312 110.015 90.2311 110.011 90.2258C98.666 85.2815 86.2591 83.3563 75.7769 90.5046C75.7063 90.5529 75.6318 90.6012 75.5613 90.6494C63.6718 98.9079 57.3017 116.765 52.3154 133.69C48.1954 147.681 48.8434 174.661 46.8129 189.419Z" fill="#F2F2F2"/>
<path d="M110.955 188.951C140.199 188.951 163.906 156.321 163.906 116.071C163.906 75.8205 140.199 43.1912 110.955 43.1912C81.7106 43.1912 58.0037 75.8205 58.0037 116.071C58.0037 156.321 81.7106 188.951 110.955 188.951Z" fill="white"/>
<path d="M110.803 189.419C58.4138 191.075 57.265 156.818 57.265 116.071C57.265 75.3246 81.3502 42.1747 110.955 42.1747C140.559 42.1747 164.644 75.3246 164.644 116.071C164.644 156.818 140.408 189.419 110.803 189.419ZM110.955 44.208C82.1645 44.208 59.2272 76.4511 58.7423 116.071C58.2914 152.922 86.7346 198.907 110.955 187.934C123.943 168.246 160.665 147.04 163.167 116.071C166.348 76.6882 139.745 44.208 110.955 44.208Z" fill="#3F3D56"/>
<path d="M103.731 154.001C102.817 154.001 101.915 153.708 101.097 153.145C100.279 152.582 99.568 151.765 99.0195 150.758L84.5737 124.247C84.1092 123.396 83.7712 122.426 83.5789 121.395C83.3866 120.363 83.3439 119.29 83.4532 118.236C83.5625 117.181 83.8216 116.167 84.2157 115.251C84.6099 114.334 85.1313 113.534 85.7503 112.895C86.3693 112.256 87.0737 111.791 87.8232 111.527C88.5727 111.263 89.3527 111.205 90.1186 111.356C90.8845 111.506 91.6213 111.864 92.2869 112.406C92.9525 112.949 93.5339 113.667 93.9978 114.52L103.449 131.862L127.722 81.7491C128.589 79.9613 129.937 78.7206 131.468 78.2996C132.999 77.8786 134.59 78.3118 135.889 79.5041C137.188 80.6964 138.09 82.5501 138.397 84.6576C138.704 86.7651 138.39 88.954 137.524 90.7431L108.633 150.391C108.11 151.47 107.407 152.361 106.583 152.988C105.758 153.616 104.837 153.962 103.895 153.999C103.84 154 103.786 154.001 103.731 154.001Z" fill="#F2F2F2"/>
<path d="M1.68806e-06 189.475C-0.000147681 189.544 0.00961709 189.612 0.0287314 189.676C0.0478457 189.74 0.0759341 189.798 0.11138 189.847C0.146826 189.895 0.188927 189.934 0.235267 189.96C0.281608 189.987 0.331274 190 0.3814 190H229.619C229.72 190 229.817 189.945 229.888 189.846C229.96 189.748 230 189.614 230 189.475C230 189.336 229.96 189.202 229.888 189.104C229.817 189.005 229.72 188.95 229.619 188.95H0.3814C0.331274 188.95 0.281612 188.963 0.235272 188.99C0.188933 189.016 0.14683 189.055 0.111385 189.103C0.0759393 189.152 0.0478512 189.21 0.0287363 189.274C0.00962138 189.338 -0.000145979 189.406 1.68806e-06 189.475Z" fill="#CCCCCC"/>
<path d="M144.768 184.329H141.668L140.193 167.869L144.769 167.869L144.768 184.329Z" fill="#FFB6B6"/>
<path d="M144.877 188.781L135.343 188.781V188.615C135.343 187.26 135.734 185.961 136.43 185.003C137.126 184.045 138.07 183.507 139.054 183.507L140.796 181.689L144.045 183.507L144.878 183.507L144.877 188.781Z" fill="#2F2E41"/>
<path d="M131.289 163.929L128.425 165.564L122.481 151.137L126.708 148.725L131.289 163.929Z" fill="#FFB6B6"/>
<path d="M132.628 167.984L123.821 173.011L123.775 172.857C123.398 171.606 123.398 170.2 123.774 168.948C124.15 167.696 124.872 166.702 125.781 166.183L126.884 163.585L130.392 163.551L131.161 163.113L132.628 167.984Z" fill="#2F2E41"/>
<path d="M148.313 90.694L126.31 93.8581L123.366 107.503L113.173 130.049C113.173 130.049 120.286 146.525 119.618 146.346C118.95 146.166 120.285 150.658 121.22 150.397C122.155 150.136 123.127 153.065 122.481 153.586C121.834 154.106 124.428 158.509 124.428 158.509L128.391 153.612C129.234 144.86 128.216 137.07 124.587 130.63L135.942 113.757L138.095 112.527L139.805 175.14L146.127 175.283C147.871 162.932 148.748 151.815 147.384 143.885C147.384 143.885 147.58 120.062 148.328 120.322C149.075 120.583 148.441 117.479 148.441 117.479C148.441 117.479 147.787 114.836 148.591 113.74C149.396 112.643 148.893 106.194 148.893 106.194C150.223 100.09 149.823 95.051 148.313 90.694Z" fill="#2F2E41"/>
<path d="M131.395 40.3421L137.478 38.1726L140.317 32.7823L147.061 33.9233L148.496 41.2756L153.297 45.111C153.297 45.111 150.643 83.7387 151.274 85.8597C151.906 87.9807 154.169 87.8056 152.236 90.5398C150.303 93.2739 150.047 92.1726 150.496 95.1493C150.944 98.126 154.213 101.276 150.496 101.245C146.778 101.214 124.344 100.773 124.985 97.2438C125.626 93.715 125.616 94.6111 126.583 92.3987C127.549 90.1862 128.199 91.4226 127.874 88.1578C127.549 84.8931 127.869 82.6875 127.869 80.9232C127.869 79.1588 128.943 63.1255 128.943 63.1255L131.395 40.3421Z" fill="#E6E6E6"/>
<path d="M143.672 31.786C147.619 31.786 150.818 27.3826 150.818 21.9506C150.818 16.5187 147.619 12.1152 143.672 12.1152C139.725 12.1152 136.526 16.5187 136.526 21.9506C136.526 27.3826 139.725 31.786 143.672 31.786Z" fill="#FFB6B6"/>
<path d="M136.184 15.9982C136.812 16.6961 136.668 20.0902 137.367 19.537C138.066 18.9838 138.212 17.9931 139.017 17.9827C139.673 18.0326 140.292 18.4182 140.753 19.0639C140.839 19.1705 140.92 19.2823 140.999 19.3928C141.072 19.3578 141.143 19.3261 141.218 19.3002C141.783 19.1104 142.379 19.2259 142.884 19.6229C142.418 19.6687 141.974 19.915 141.615 20.3268C141.769 20.5639 141.925 20.8023 142.089 21.0226C143.457 22.8685 146.264 20.9027 148.15 20.4591C146.579 22.8208 146.889 24.1391 147.28 27.2957L147.281 27.4682C147.362 26.7402 149.055 26.7765 148.776 27.7424C148.425 28.6967 147.987 29.5845 147.471 30.384C149.779 28.1833 151.642 25.1497 152.054 21.4853C152.138 20.7149 152.303 19.9288 152.144 19.1776C152.076 18.7977 151.919 18.4595 151.696 18.2157C151.474 17.9719 151.2 17.8363 150.916 17.83C151.173 16.7059 151.204 15.507 151.005 14.3606C150.807 13.2142 150.386 12.1633 149.789 11.3195C149.191 10.4757 148.438 9.87067 147.611 9.56861C146.783 9.26656 145.912 9.27883 145.089 9.6041C144.338 9.97131 143.606 10.4063 142.897 10.9062C142.181 11.4081 141.371 11.5969 140.575 11.4474C140.079 11.3065 139.577 10.9532 139.091 11.1532C138.528 11.3856 138.286 12.2041 138.061 12.9942C138.484 13.2072 138.852 13.5891 139.117 14.0913C138.679 13.8688 138.202 13.8421 137.752 14.0149C137.744 14.0169 137.736 14.02 137.728 14.024C137.218 15.2814 137.188 15.5897 136.184 15.9982Z" fill="#2F2E41"/>
<path d="M138.541 35.5379C134.88 35.1323 131.538 38.985 130.015 43.5833C128.491 48.1816 128.391 53.3981 128.317 58.451L128.087 74.1579C128.053 76.4822 128.019 78.8068 127.935 81.1287C127.892 83.388 127.685 85.6357 127.319 87.8388C126.573 91.8814 124.931 95.4838 123.313 99.011C127.455 100.734 131.667 102.118 135.927 103.157C138.054 93.686 140.206 83.9429 139.683 74.0557C139.406 68.8238 138.384 63.7157 137.995 58.4973C137.445 51.1066 138.174 43.6614 138.902 36.2998" fill="#3F3D56"/>
<path d="M147.425 36.4214C151.051 37.2237 153.632 42.0585 154.319 47.0233C155.006 51.9881 154.203 57.0879 153.403 62.0205C152.574 67.1314 151.745 72.2423 150.916 77.3532C150.548 79.6221 150.18 81.8914 149.861 84.1743C149.551 86.3921 150.849 89.2364 150.864 91.4947C150.891 95.6656 150.303 99.1007 151.265 103.056C146.945 103.376 142.615 103.344 138.298 102.961C137.865 93.0652 137.456 82.8974 139.67 73.464C140.841 68.4722 142.716 63.8444 143.994 58.9023C145.804 51.9029 146.379 44.4322 146.942 37.0432" fill="#3F3D56"/>
<path d="M149.842 107.726C149.573 107.08 149.497 106.315 149.631 105.594C149.766 104.872 150.099 104.252 150.561 103.863C150.656 103.787 150.755 103.721 150.857 103.666L150.395 82.0015L155.403 80.2471L153.493 105.488C153.624 106.091 153.606 106.737 153.442 107.324C153.278 107.912 152.977 108.408 152.587 108.736C152.363 108.92 152.115 109.041 151.858 109.092C151.6 109.144 151.338 109.126 151.086 109.038C150.833 108.95 150.596 108.795 150.387 108.581C150.178 108.367 150.002 108.098 149.869 107.79C149.86 107.769 149.851 107.747 149.842 107.726Z" fill="#FFB6B6"/>
<path d="M149.476 45.0765C149.476 45.0765 152.972 41.0077 155.913 49.1431C158.855 57.2785 157.211 75.8638 156.797 76.8557C156.383 77.8476 156.13 76.4659 156.357 79.1099C156.542 81.2602 155.445 80.9913 155.838 81.4501C156.876 82.6602 153.971 82.7979 155.463 83.8641C156.954 84.9303 150.278 85.1299 150.278 85.1299C150.278 85.1299 149.47 84.3361 150.031 81.3428C150.346 79.6616 151.135 79.0465 150.294 78.2686C149.452 77.4906 151.163 75.0855 151.164 74.5578C151.165 74.03 148.497 62.4879 148.497 62.4879L149.476 45.0765Z" fill="#3F3D56"/>
<path d="M120.55 145.298C119.635 145.298 118.734 145.004 117.916 144.442C117.098 143.879 116.387 143.061 115.838 142.054L101.392 115.543C100.928 114.692 100.59 113.723 100.398 112.691C100.205 111.66 100.163 110.586 100.272 109.532C100.381 108.478 100.64 107.463 101.034 106.547C101.428 105.631 101.95 104.83 102.569 104.191C103.188 103.552 103.892 103.087 104.642 102.823C105.391 102.559 106.171 102.501 106.937 102.652C107.703 102.803 108.44 103.16 109.106 103.703C109.771 104.246 110.352 104.964 110.816 105.816L120.267 123.158L144.541 73.0452C144.97 72.1594 145.522 71.3986 146.164 70.8062C146.807 70.2138 147.528 69.8014 148.287 69.5926C149.045 69.3838 149.826 69.3827 150.585 69.5893C151.344 69.7959 152.066 70.2062 152.709 70.7968C153.353 71.3873 153.906 72.1465 154.336 73.0311C154.766 73.9157 155.066 74.9083 155.218 75.9523C155.369 76.9962 155.37 78.0711 155.22 79.1155C155.07 80.1599 154.772 81.1533 154.343 82.0392L125.451 141.687C124.928 142.766 124.226 143.657 123.401 144.284C122.577 144.912 121.655 145.259 120.714 145.295C120.659 145.296 120.604 145.298 120.55 145.298Z" fill="#006466"/>
<path d="M131.562 103.962C131.856 103.338 131.962 102.58 131.857 101.85C131.752 101.119 131.444 100.474 130.999 100.051C130.907 99.9675 130.811 99.8941 130.711 99.8321L132.042 78.2355L127.112 76.1028L128.006 101.45C127.851 102.042 127.843 102.689 127.983 103.288C128.123 103.887 128.404 104.406 128.781 104.762C128.996 104.963 129.239 105.102 129.494 105.174C129.749 105.245 130.012 105.246 130.267 105.178C130.523 105.109 130.766 104.972 130.983 104.775C131.2 104.577 131.386 104.322 131.532 104.025C131.542 104.004 131.552 103.983 131.562 103.962Z" fill="#FFB6B6"/>
<path d="M134.447 41.4813C134.447 41.4813 131.12 37.1528 127.856 45.052C124.592 52.9512 125.487 71.6332 125.861 72.6551C126.235 73.677 126.542 72.3166 126.21 74.9393C125.939 77.0723 127.045 76.8872 126.634 77.3154C125.55 78.4447 128.444 78.8032 126.912 79.7543C125.38 80.7053 132.038 81.4125 132.038 81.4125C132.038 81.4125 132.876 80.6814 132.436 77.65C132.189 75.9474 131.427 75.2733 132.298 74.5605C133.169 73.8477 131.558 71.3162 131.578 70.7892C131.598 70.2621 134.725 58.9405 134.725 58.9405L134.447 41.4813Z" fill="#3F3D56"/>
</g>
<defs>
<clipPath id="clip0_992_9350">
<rect width="230" height="190" fill="white"/>
</clipPath>
</defs>
</svg>
